%TF.GenerationSoftware,KiCad,Pcbnew,6.0.4-6f826c9f35~116~ubuntu20.04.1*%
%TF.CreationDate,2022-07-18T09:26:53+00:00*%
%TF.ProjectId,UST1BATTD01A,55535431-4241-4545-9444-3031412e6b69,rev?*%
%TF.SameCoordinates,PX463f660PY87a6900*%
%TF.FileFunction,Copper,L1,Top*%
%TF.FilePolarity,Positive*%
%FSLAX46Y46*%
G04 Gerber Fmt 4.6, Leading zero omitted, Abs format (unit mm)*
G04 Created by KiCad (PCBNEW 6.0.4-6f826c9f35~116~ubuntu20.04.1) date 2022-07-18 09:26:53*
%MOMM*%
%LPD*%
G01*
G04 APERTURE LIST*
G04 Aperture macros list*
%AMRoundRect*
0 Rectangle with rounded corners*
0 $1 Rounding radius*
0 $2 $3 $4 $5 $6 $7 $8 $9 X,Y pos of 4 corners*
0 Add a 4 corners polygon primitive as box body*
4,1,4,$2,$3,$4,$5,$6,$7,$8,$9,$2,$3,0*
0 Add four circle primitives for the rounded corners*
1,1,$1+$1,$2,$3*
1,1,$1+$1,$4,$5*
1,1,$1+$1,$6,$7*
1,1,$1+$1,$8,$9*
0 Add four rect primitives between the rounded corners*
20,1,$1+$1,$2,$3,$4,$5,0*
20,1,$1+$1,$4,$5,$6,$7,0*
20,1,$1+$1,$6,$7,$8,$9,0*
20,1,$1+$1,$8,$9,$2,$3,0*%
G04 Aperture macros list end*
%TA.AperFunction,ComponentPad*%
%ADD10C,6.000000*%
%TD*%
%TA.AperFunction,WasherPad*%
%ADD11C,4.500000*%
%TD*%
%TA.AperFunction,ComponentPad*%
%ADD12C,2.500000*%
%TD*%
%TA.AperFunction,SMDPad,CuDef*%
%ADD13R,1.800000X3.500000*%
%TD*%
%TA.AperFunction,SMDPad,CuDef*%
%ADD14RoundRect,0.250000X-0.450000X0.325000X-0.450000X-0.325000X0.450000X-0.325000X0.450000X0.325000X0*%
%TD*%
%TA.AperFunction,SMDPad,CuDef*%
%ADD15RoundRect,0.150000X0.700000X-0.150000X0.700000X0.150000X-0.700000X0.150000X-0.700000X-0.150000X0*%
%TD*%
%TA.AperFunction,SMDPad,CuDef*%
%ADD16RoundRect,0.250000X1.100000X-0.250000X1.100000X0.250000X-1.100000X0.250000X-1.100000X-0.250000X0*%
%TD*%
%TA.AperFunction,ViaPad*%
%ADD17C,0.800000*%
%TD*%
%TA.AperFunction,Conductor*%
%ADD18C,0.400000*%
%TD*%
%TA.AperFunction,Conductor*%
%ADD19C,0.800000*%
%TD*%
G04 APERTURE END LIST*
D10*
%TO.P,M3,1*%
%TO.N,unconnected-(M3-Pad1)*%
X86360000Y45720000D03*
%TD*%
D11*
%TO.P,BT1,*%
%TO.N,*%
X63520000Y25400000D03*
X27920000Y25400000D03*
D12*
%TO.P,BT1,1,+*%
%TO.N,Net-(BT1-Pad1)*%
X79470000Y25400000D03*
%TO.P,BT1,2,-*%
%TO.N,GND*%
X11970000Y25400000D03*
%TD*%
D13*
%TO.P,D2,1,K*%
%TO.N,Net-(D1-Pad1)*%
X88011000Y30941000D03*
%TO.P,D2,2,A*%
%TO.N,Net-(D2-Pad2)*%
X88011000Y35941000D03*
%TD*%
D14*
%TO.P,F2,1*%
%TO.N,Net-(D2-Pad2)*%
X83693000Y34308000D03*
%TO.P,F2,2*%
%TO.N,Net-(BT1-Pad1)*%
X83693000Y32258000D03*
%TD*%
D15*
%TO.P,J1,1*%
%TO.N,GND*%
X85150000Y13482000D03*
%TO.P,J1,2*%
%TO.N,Net-(D1-Pad1)*%
X85150000Y14732000D03*
%TO.P,J1,3*%
%TO.N,GND*%
X85150000Y15982000D03*
D16*
%TO.P,J1,MP*%
X88350000Y11632000D03*
X88350000Y17832000D03*
%TD*%
D10*
%TO.P,M4,1*%
%TO.N,unconnected-(M4-Pad1)*%
X86360000Y5080000D03*
%TD*%
%TO.P,M2,1*%
%TO.N,unconnected-(M2-Pad1)*%
X5080000Y5080000D03*
%TD*%
%TO.P,M1,1*%
%TO.N,unconnected-(M1-Pad1)*%
X5080000Y45720000D03*
%TD*%
D15*
%TO.P,J4,1*%
%TO.N,GND*%
X85150000Y22499000D03*
%TO.P,J4,2*%
%TO.N,Net-(D1-Pad1)*%
X85150000Y23749000D03*
%TO.P,J4,3*%
%TO.N,GND*%
X85150000Y24999000D03*
D16*
%TO.P,J4,MP*%
X88350000Y26849000D03*
X88350000Y20649000D03*
%TD*%
D17*
%TO.N,Net-(D1-Pad1)*%
X82677000Y15240000D03*
X82677000Y28702000D03*
X82677000Y23876000D03*
%TD*%
D18*
%TO.N,Net-(D1-Pad1)*%
X83058000Y23749000D02*
X82677000Y24130000D01*
D19*
X82677000Y28575000D02*
X82677000Y23876000D01*
D18*
X85150000Y23749000D02*
X83058000Y23749000D01*
D19*
X85043000Y30941000D02*
X82677000Y28575000D01*
X88011000Y30941000D02*
X85043000Y30941000D01*
X82677000Y15240000D02*
X83058000Y14859000D01*
X82677000Y23876000D02*
X82677000Y15240000D01*
D18*
X82677000Y24130000D02*
X82677000Y23876000D01*
X85150000Y14732000D02*
X83185000Y14732000D01*
X83185000Y14732000D02*
X83058000Y14859000D01*
D19*
%TO.N,Net-(D2-Pad2)*%
X88011000Y35941000D02*
X85326000Y35941000D01*
X85326000Y35941000D02*
X83693000Y34308000D01*
%TO.N,Net-(BT1-Pad1)*%
X83693000Y32258000D02*
X81153000Y32258000D01*
X81153000Y32258000D02*
X79470000Y30575000D01*
X79470000Y30575000D02*
X79470000Y25400000D01*
%TD*%
%TA.AperFunction,Conductor*%
%TO.N,GND*%
G36*
X90627621Y50025498D02*
G01*
X90674114Y49971842D01*
X90685500Y49919500D01*
X90685500Y880500D01*
X90665498Y812379D01*
X90611842Y765886D01*
X90559500Y754500D01*
X880500Y754500D01*
X812379Y774502D01*
X765886Y828158D01*
X754500Y880500D01*
X754500Y5135923D01*
X1075065Y5135923D01*
X1088722Y4744843D01*
X1140477Y4356962D01*
X1229834Y3975983D01*
X1230823Y3973077D01*
X1230825Y3973071D01*
X1354950Y3608457D01*
X1354955Y3608445D01*
X1355943Y3605542D01*
X1517598Y3249174D01*
X1713258Y2910283D01*
X1715047Y2907784D01*
X1715049Y2907781D01*
X1812831Y2771201D01*
X1941053Y2592101D01*
X2198810Y2297667D01*
X2484069Y2029792D01*
X2794107Y1791031D01*
X2796710Y1789404D01*
X2796715Y1789401D01*
X2915687Y1715059D01*
X3125964Y1583663D01*
X3476472Y1409669D01*
X3842287Y1270710D01*
X4219915Y1168110D01*
X4222958Y1167595D01*
X4222964Y1167594D01*
X4602713Y1103364D01*
X4602720Y1103363D01*
X4605754Y1102850D01*
X4608825Y1102635D01*
X4608827Y1102635D01*
X4993053Y1075767D01*
X4993061Y1075767D01*
X4996119Y1075553D01*
X5249704Y1082637D01*
X5384211Y1086394D01*
X5384214Y1086394D01*
X5387285Y1086480D01*
X5390338Y1086866D01*
X5390342Y1086866D01*
X5576145Y1110338D01*
X5775517Y1135525D01*
X5778521Y1136207D01*
X5778524Y1136208D01*
X6154115Y1221540D01*
X6154121Y1221542D01*
X6157111Y1222221D01*
X6302875Y1270710D01*
X6525500Y1344767D01*
X6525506Y1344769D01*
X6528424Y1345740D01*
X6669551Y1408574D01*
X6883111Y1503657D01*
X6883117Y1503660D01*
X6885911Y1504904D01*
X6888580Y1506420D01*
X7223492Y1696676D01*
X7223498Y1696680D01*
X7226160Y1698192D01*
X7545924Y1923761D01*
X7842150Y2179456D01*
X7844271Y2181683D01*
X7844277Y2181689D01*
X8109894Y2460615D01*
X8112011Y2462838D01*
X8211192Y2589783D01*
X8351021Y2768756D01*
X8351023Y2768759D01*
X8352931Y2771201D01*
X8354587Y2773811D01*
X8354593Y2773819D01*
X8560957Y3098997D01*
X8560959Y3099000D01*
X8562610Y3101602D01*
X8739046Y3450888D01*
X8880557Y3815723D01*
X8985790Y4192626D01*
X9053742Y4578000D01*
X9066580Y4744843D01*
X9083613Y4966211D01*
X9083613Y4966222D01*
X9083763Y4968165D01*
X9085325Y5080000D01*
X9082590Y5135923D01*
X82355065Y5135923D01*
X82368722Y4744843D01*
X82420477Y4356962D01*
X82509834Y3975983D01*
X82510823Y3973077D01*
X82510825Y3973071D01*
X82634950Y3608457D01*
X82634955Y3608445D01*
X82635943Y3605542D01*
X82797598Y3249174D01*
X82993258Y2910283D01*
X82995047Y2907784D01*
X82995049Y2907781D01*
X83092831Y2771201D01*
X83221053Y2592101D01*
X83478810Y2297667D01*
X83764069Y2029792D01*
X84074107Y1791031D01*
X84076710Y1789404D01*
X84076715Y1789401D01*
X84195687Y1715059D01*
X84405964Y1583663D01*
X84756472Y1409669D01*
X85122287Y1270710D01*
X85499915Y1168110D01*
X85502958Y1167595D01*
X85502964Y1167594D01*
X85882713Y1103364D01*
X85882720Y1103363D01*
X85885754Y1102850D01*
X85888825Y1102635D01*
X85888827Y1102635D01*
X86273053Y1075767D01*
X86273061Y1075767D01*
X86276119Y1075553D01*
X86529704Y1082637D01*
X86664211Y1086394D01*
X86664214Y1086394D01*
X86667285Y1086480D01*
X86670338Y1086866D01*
X86670342Y1086866D01*
X86856145Y1110338D01*
X87055517Y1135525D01*
X87058521Y1136207D01*
X87058524Y1136208D01*
X87434115Y1221540D01*
X87434121Y1221542D01*
X87437111Y1222221D01*
X87582875Y1270710D01*
X87805500Y1344767D01*
X87805506Y1344769D01*
X87808424Y1345740D01*
X87949551Y1408574D01*
X88163111Y1503657D01*
X88163117Y1503660D01*
X88165911Y1504904D01*
X88168580Y1506420D01*
X88503492Y1696676D01*
X88503498Y1696680D01*
X88506160Y1698192D01*
X88825924Y1923761D01*
X89122150Y2179456D01*
X89124271Y2181683D01*
X89124277Y2181689D01*
X89389894Y2460615D01*
X89392011Y2462838D01*
X89491192Y2589783D01*
X89631021Y2768756D01*
X89631023Y2768759D01*
X89632931Y2771201D01*
X89634587Y2773811D01*
X89634593Y2773819D01*
X89840957Y3098997D01*
X89840959Y3099000D01*
X89842610Y3101602D01*
X90019046Y3450888D01*
X90160557Y3815723D01*
X90265790Y4192626D01*
X90333742Y4578000D01*
X90346580Y4744843D01*
X90363613Y4966211D01*
X90363613Y4966222D01*
X90363763Y4968165D01*
X90365325Y5080000D01*
X90346209Y5470851D01*
X90289044Y5857972D01*
X90194376Y6237666D01*
X90063107Y6606311D01*
X89896492Y6960386D01*
X89867167Y7009580D01*
X89697700Y7293862D01*
X89696120Y7296513D01*
X89463905Y7611483D01*
X89202061Y7902289D01*
X88913090Y8166156D01*
X88599749Y8400565D01*
X88546075Y8433071D01*
X88267658Y8601687D01*
X88267649Y8601692D01*
X88265030Y8603278D01*
X87912126Y8772362D01*
X87909237Y8773414D01*
X87909231Y8773416D01*
X87547306Y8905145D01*
X87547303Y8905146D01*
X87544407Y8906200D01*
X87267326Y8977342D01*
X87168366Y9002751D01*
X87168363Y9002752D01*
X87165382Y9003517D01*
X86778670Y9063383D01*
X86775613Y9063554D01*
X86775612Y9063554D01*
X86745120Y9065259D01*
X86387962Y9085227D01*
X86384883Y9085098D01*
X86384880Y9085098D01*
X86128770Y9074364D01*
X85996987Y9068841D01*
X85993943Y9068413D01*
X85993941Y9068413D01*
X85959368Y9063554D01*
X85609477Y9014380D01*
X85229131Y8922364D01*
X84859579Y8793673D01*
X84856781Y8792380D01*
X84507146Y8630826D01*
X84507136Y8630821D01*
X84504349Y8629533D01*
X84395829Y8565865D01*
X84169486Y8433071D01*
X84169481Y8433068D01*
X84166831Y8431513D01*
X84126433Y8402162D01*
X83852730Y8203306D01*
X83852721Y8203299D01*
X83850248Y8201502D01*
X83847958Y8199469D01*
X83847952Y8199464D01*
X83559924Y7943740D01*
X83557621Y7941695D01*
X83291743Y7654573D01*
X83055152Y7342876D01*
X82850107Y7009580D01*
X82678564Y6657865D01*
X82542162Y6291090D01*
X82442201Y5912754D01*
X82379637Y5526469D01*
X82355065Y5135923D01*
X9082590Y5135923D01*
X9066209Y5470851D01*
X9009044Y5857972D01*
X8914376Y6237666D01*
X8783107Y6606311D01*
X8616492Y6960386D01*
X8587167Y7009580D01*
X8417700Y7293862D01*
X8416120Y7296513D01*
X8183905Y7611483D01*
X7922061Y7902289D01*
X7633090Y8166156D01*
X7319749Y8400565D01*
X7266075Y8433071D01*
X6987658Y8601687D01*
X6987649Y8601692D01*
X6985030Y8603278D01*
X6632126Y8772362D01*
X6629237Y8773414D01*
X6629231Y8773416D01*
X6267306Y8905145D01*
X6267303Y8905146D01*
X6264407Y8906200D01*
X5987326Y8977342D01*
X5888366Y9002751D01*
X5888363Y9002752D01*
X5885382Y9003517D01*
X5498670Y9063383D01*
X5495613Y9063554D01*
X5495612Y9063554D01*
X5465120Y9065259D01*
X5107962Y9085227D01*
X5104883Y9085098D01*
X5104880Y9085098D01*
X4848770Y9074364D01*
X4716987Y9068841D01*
X4713943Y9068413D01*
X4713941Y9068413D01*
X4679368Y9063554D01*
X4329477Y9014380D01*
X3949131Y8922364D01*
X3579579Y8793673D01*
X3576781Y8792380D01*
X3227146Y8630826D01*
X3227136Y8630821D01*
X3224349Y8629533D01*
X3115829Y8565865D01*
X2889486Y8433071D01*
X2889481Y8433068D01*
X2886831Y8431513D01*
X2846433Y8402162D01*
X2572730Y8203306D01*
X2572721Y8203299D01*
X2570248Y8201502D01*
X2567958Y8199469D01*
X2567952Y8199464D01*
X2279924Y7943740D01*
X2277621Y7941695D01*
X2011743Y7654573D01*
X1775152Y7342876D01*
X1570107Y7009580D01*
X1398564Y6657865D01*
X1262162Y6291090D01*
X1162201Y5912754D01*
X1099637Y5526469D01*
X1075065Y5135923D01*
X754500Y5135923D01*
X754500Y11343057D01*
X86700000Y11343057D01*
X86700456Y11335502D01*
X86709881Y11257612D01*
X86713834Y11242047D01*
X86763165Y11117451D01*
X86771522Y11102620D01*
X86852243Y10996275D01*
X86864275Y10984243D01*
X86970620Y10903522D01*
X86985451Y10895165D01*
X87110047Y10845834D01*
X87125612Y10841881D01*
X87203502Y10832456D01*
X87211057Y10832000D01*
X88181885Y10832000D01*
X88197124Y10836475D01*
X88198329Y10837865D01*
X88200000Y10845548D01*
X88200000Y10850115D01*
X88500000Y10850115D01*
X88504475Y10834876D01*
X88505865Y10833671D01*
X88513548Y10832000D01*
X89488943Y10832000D01*
X89496498Y10832456D01*
X89574388Y10841881D01*
X89589953Y10845834D01*
X89714549Y10895165D01*
X89729380Y10903522D01*
X89835725Y10984243D01*
X89847757Y10996275D01*
X89928478Y11102620D01*
X89936835Y11117451D01*
X89986166Y11242047D01*
X89990119Y11257612D01*
X89999544Y11335502D01*
X90000000Y11343057D01*
X90000000Y11463885D01*
X89995525Y11479124D01*
X89994135Y11480329D01*
X89986452Y11482000D01*
X88518115Y11482000D01*
X88502876Y11477525D01*
X88501671Y11476135D01*
X88500000Y11468452D01*
X88500000Y10850115D01*
X88200000Y10850115D01*
X88200000Y11463885D01*
X88195525Y11479124D01*
X88194135Y11480329D01*
X88186452Y11482000D01*
X86718115Y11482000D01*
X86702876Y11477525D01*
X86701671Y11476135D01*
X86700000Y11468452D01*
X86700000Y11343057D01*
X754500Y11343057D01*
X754500Y11800115D01*
X86700000Y11800115D01*
X86704475Y11784876D01*
X86705865Y11783671D01*
X86713548Y11782000D01*
X88181885Y11782000D01*
X88197124Y11786475D01*
X88198329Y11787865D01*
X88200000Y11795548D01*
X88200000Y11800115D01*
X88500000Y11800115D01*
X88504475Y11784876D01*
X88505865Y11783671D01*
X88513548Y11782000D01*
X89981885Y11782000D01*
X89997124Y11786475D01*
X89998329Y11787865D01*
X90000000Y11795548D01*
X90000000Y11920943D01*
X89999544Y11928498D01*
X89990119Y12006388D01*
X89986166Y12021953D01*
X89936835Y12146549D01*
X89928478Y12161380D01*
X89847757Y12267725D01*
X89835725Y12279757D01*
X89729380Y12360478D01*
X89714549Y12368835D01*
X89589953Y12418166D01*
X89574388Y12422119D01*
X89496498Y12431544D01*
X89488943Y12432000D01*
X88518115Y12432000D01*
X88502876Y12427525D01*
X88501671Y12426135D01*
X88500000Y12418452D01*
X88500000Y11800115D01*
X88200000Y11800115D01*
X88200000Y12413885D01*
X88195525Y12429124D01*
X88194135Y12430329D01*
X88186452Y12432000D01*
X87211057Y12432000D01*
X87203502Y12431544D01*
X87125612Y12422119D01*
X87110047Y12418166D01*
X86985451Y12368835D01*
X86970620Y12360478D01*
X86864275Y12279757D01*
X86852243Y12267725D01*
X86771522Y12161380D01*
X86763165Y12146549D01*
X86713834Y12021953D01*
X86709881Y12006388D01*
X86700456Y11928498D01*
X86700000Y11920943D01*
X86700000Y11800115D01*
X754500Y11800115D01*
X754500Y13281196D01*
X84000001Y13281196D01*
X84000280Y13275275D01*
X84002256Y13254369D01*
X84005521Y13239484D01*
X84044694Y13127936D01*
X84053406Y13111480D01*
X84122616Y13017779D01*
X84135779Y13004616D01*
X84229480Y12935406D01*
X84245936Y12926694D01*
X84357479Y12887523D01*
X84372373Y12884255D01*
X84393281Y12882279D01*
X84399192Y12882000D01*
X84981885Y12882000D01*
X84997124Y12886475D01*
X84998329Y12887865D01*
X85000000Y12895548D01*
X85000000Y12900116D01*
X85300000Y12900116D01*
X85304475Y12884877D01*
X85305865Y12883672D01*
X85313548Y12882001D01*
X85900804Y12882001D01*
X85906725Y12882280D01*
X85927631Y12884256D01*
X85942516Y12887521D01*
X86054064Y12926694D01*
X86070520Y12935406D01*
X86164221Y13004616D01*
X86177384Y13017779D01*
X86246594Y13111480D01*
X86255306Y13127936D01*
X86294477Y13239479D01*
X86297745Y13254373D01*
X86299721Y13275281D01*
X86300000Y13281192D01*
X86300000Y13313885D01*
X86295525Y13329124D01*
X86294135Y13330329D01*
X86286452Y13332000D01*
X85318115Y13332000D01*
X85302876Y13327525D01*
X85301671Y13326135D01*
X85300000Y13318452D01*
X85300000Y12900116D01*
X85000000Y12900116D01*
X85000000Y13313885D01*
X84995525Y13329124D01*
X84994135Y13330329D01*
X84986452Y13332000D01*
X84018116Y13332000D01*
X84002877Y13327525D01*
X84001672Y13326135D01*
X84000001Y13318452D01*
X84000001Y13281196D01*
X754500Y13281196D01*
X754500Y24202152D01*
X10990429Y24202152D01*
X10997217Y24192451D01*
X11052351Y24145362D01*
X11060333Y24139562D01*
X11259919Y24017255D01*
X11268713Y24012774D01*
X11484970Y23923198D01*
X11494355Y23920149D01*
X11721964Y23865504D01*
X11731711Y23863961D01*
X11965070Y23845595D01*
X11974930Y23845595D01*
X12208289Y23863961D01*
X12218036Y23865504D01*
X12445645Y23920149D01*
X12455030Y23923198D01*
X12671287Y24012774D01*
X12680081Y24017255D01*
X12879667Y24139562D01*
X12887649Y24145362D01*
X12941215Y24191111D01*
X12949645Y24204024D01*
X12943637Y24214231D01*
X11982812Y25175056D01*
X11968868Y25182670D01*
X11967035Y25182539D01*
X11960420Y25178288D01*
X10997821Y24215689D01*
X10990429Y24202152D01*
X754500Y24202152D01*
X754500Y25395070D01*
X10415595Y25395070D01*
X10433961Y25161711D01*
X10435504Y25151964D01*
X10490149Y24924355D01*
X10493198Y24914970D01*
X10582774Y24698713D01*
X10587255Y24689919D01*
X10709562Y24490333D01*
X10715362Y24482351D01*
X10761111Y24428785D01*
X10774024Y24420355D01*
X10784231Y24426363D01*
X11745056Y25387188D01*
X11751434Y25398868D01*
X12187330Y25398868D01*
X12187461Y25397035D01*
X12191712Y25390420D01*
X13154311Y24427821D01*
X13167848Y24420429D01*
X13177549Y24427217D01*
X13224638Y24482351D01*
X13230438Y24490333D01*
X13352745Y24689919D01*
X13357226Y24698713D01*
X13446802Y24914970D01*
X13449851Y24924355D01*
X13504496Y25151964D01*
X13506039Y25161711D01*
X13524405Y25395070D01*
X13524405Y25400000D01*
X25364457Y25400000D01*
X25384608Y25079706D01*
X25444744Y24764462D01*
X25543916Y24459242D01*
X25545603Y24455656D01*
X25545605Y24455652D01*
X25678873Y24172444D01*
X25678877Y24172437D01*
X25680561Y24168858D01*
X25852522Y23897890D01*
X26057089Y23650610D01*
X26291036Y23430920D01*
X26294238Y23428593D01*
X26294240Y23428592D01*
X26547463Y23244615D01*
X26547468Y23244612D01*
X26550672Y23242284D01*
X26554141Y23240377D01*
X26554144Y23240375D01*
X26828441Y23089579D01*
X26831903Y23087676D01*
X27130294Y22969534D01*
X27441139Y22889723D01*
X27759536Y22849500D01*
X28080464Y22849500D01*
X28398861Y22889723D01*
X28709706Y22969534D01*
X29008097Y23087676D01*
X29011559Y23089579D01*
X29285856Y23240375D01*
X29285859Y23240377D01*
X29289328Y23242284D01*
X29292532Y23244612D01*
X29292537Y23244615D01*
X29545760Y23428592D01*
X29545762Y23428593D01*
X29548964Y23430920D01*
X29782911Y23650610D01*
X29987478Y23897890D01*
X30159439Y24168858D01*
X30161123Y24172437D01*
X30161127Y24172444D01*
X30294395Y24455652D01*
X30294397Y24455656D01*
X30296084Y24459242D01*
X30395256Y24764462D01*
X30455392Y25079706D01*
X30475543Y25400000D01*
X60964457Y25400000D01*
X60984608Y25079706D01*
X61044744Y24764462D01*
X61143916Y24459242D01*
X61145603Y24455656D01*
X61145605Y24455652D01*
X61278873Y24172444D01*
X61278877Y24172437D01*
X61280561Y24168858D01*
X61452522Y23897890D01*
X61657089Y23650610D01*
X61891036Y23430920D01*
X61894238Y23428593D01*
X61894240Y23428592D01*
X62147463Y23244615D01*
X62147468Y23244612D01*
X62150672Y23242284D01*
X62154141Y23240377D01*
X62154144Y23240375D01*
X62428441Y23089579D01*
X62431903Y23087676D01*
X62730294Y22969534D01*
X63041139Y22889723D01*
X63359536Y22849500D01*
X63680464Y22849500D01*
X63998861Y22889723D01*
X64309706Y22969534D01*
X64608097Y23087676D01*
X64611559Y23089579D01*
X64885856Y23240375D01*
X64885859Y23240377D01*
X64889328Y23242284D01*
X64892532Y23244612D01*
X64892537Y23244615D01*
X65145760Y23428592D01*
X65145762Y23428593D01*
X65148964Y23430920D01*
X65382911Y23650610D01*
X65587478Y23897890D01*
X65759439Y24168858D01*
X65761123Y24172437D01*
X65761127Y24172444D01*
X65894395Y24455652D01*
X65894397Y24455656D01*
X65896084Y24459242D01*
X65995256Y24764462D01*
X66055392Y25079706D01*
X66075543Y25400000D01*
X77914706Y25400000D01*
X77933854Y25156698D01*
X77953275Y25075806D01*
X77989636Y24924355D01*
X77990828Y24919388D01*
X77992718Y24914825D01*
X77992720Y24914819D01*
X78082234Y24698713D01*
X78084223Y24693911D01*
X78211741Y24485821D01*
X78370241Y24300241D01*
X78555821Y24141741D01*
X78763911Y24014223D01*
X78768481Y24012330D01*
X78768485Y24012328D01*
X78984819Y23922720D01*
X78984825Y23922718D01*
X78989388Y23920828D01*
X78994188Y23919676D01*
X78994193Y23919674D01*
X79084930Y23897890D01*
X79226698Y23863854D01*
X79470000Y23844706D01*
X79713302Y23863854D01*
X79855070Y23897890D01*
X79945807Y23919674D01*
X79945812Y23919676D01*
X79950612Y23920828D01*
X79955175Y23922718D01*
X79955181Y23922720D01*
X80171515Y24012328D01*
X80171519Y24012330D01*
X80176089Y24014223D01*
X80384179Y24141741D01*
X80569759Y24300241D01*
X80728259Y24485821D01*
X80855777Y24693911D01*
X80857766Y24698713D01*
X80947280Y24914819D01*
X80947282Y24914825D01*
X80949172Y24919388D01*
X80950365Y24924355D01*
X80986725Y25075806D01*
X81006146Y25156698D01*
X81025294Y25400000D01*
X81006146Y25643302D01*
X80976377Y25767298D01*
X80950326Y25875807D01*
X80950324Y25875812D01*
X80949172Y25880612D01*
X80947282Y25885175D01*
X80947280Y25885181D01*
X80857672Y26101515D01*
X80857670Y26101519D01*
X80855777Y26106089D01*
X80728259Y26314179D01*
X80569759Y26499759D01*
X80384179Y26658259D01*
X80230665Y26752333D01*
X80183034Y26804981D01*
X80170500Y26859766D01*
X80170500Y30232654D01*
X80190502Y30300775D01*
X80207405Y30321749D01*
X81406251Y31520595D01*
X81468563Y31554621D01*
X81495346Y31557500D01*
X82784721Y31557500D01*
X82852842Y31537498D01*
X82860901Y31531862D01*
X82963372Y31454082D01*
X82963375Y31454080D01*
X82970217Y31448887D01*
X83033832Y31423700D01*
X83102923Y31396345D01*
X83102925Y31396344D01*
X83110453Y31393364D01*
X83200228Y31382500D01*
X84185772Y31382500D01*
X84185772Y31381729D01*
X84251520Y31366654D01*
X84301158Y31315894D01*
X84315473Y31246355D01*
X84289920Y31180117D01*
X84278997Y31167654D01*
X82513665Y29402322D01*
X82453986Y29368899D01*
X82438416Y29365161D01*
X82438414Y29365160D01*
X82431032Y29363388D01*
X82424288Y29359907D01*
X82424285Y29359906D01*
X82287117Y29289108D01*
X82280369Y29285625D01*
X82152604Y29174169D01*
X82055113Y29035453D01*
X81993524Y28877487D01*
X81971394Y28709389D01*
X81972228Y28701838D01*
X81976090Y28666850D01*
X81974741Y28630064D01*
X81974132Y28626779D01*
X81974132Y28626773D01*
X81972748Y28619308D01*
X81973185Y28611728D01*
X81973185Y28611727D01*
X81976291Y28557856D01*
X81976500Y28550604D01*
X81976500Y23930432D01*
X81975422Y23913986D01*
X81972902Y23894841D01*
X81971394Y23883389D01*
X81975566Y23845595D01*
X81975739Y23844032D01*
X81976500Y23830206D01*
X81976500Y15294432D01*
X81975422Y15277986D01*
X81971394Y15247389D01*
X81972602Y15236453D01*
X81973071Y15214052D01*
X81972322Y15203070D01*
X81973627Y15195594D01*
X81973627Y15195590D01*
X81982432Y15145140D01*
X81983547Y15137304D01*
X81989999Y15078865D01*
X81991277Y15075372D01*
X81991724Y15071680D01*
X81994407Y15064578D01*
X81995210Y15061309D01*
X81999177Y15046809D01*
X82000166Y15043533D01*
X82001473Y15036046D01*
X82004527Y15029089D01*
X82025108Y14982203D01*
X82028060Y14974859D01*
X82048266Y14919644D01*
X82050340Y14916558D01*
X82051655Y14913077D01*
X82055958Y14906816D01*
X82057539Y14903791D01*
X82064825Y14890701D01*
X82066566Y14887758D01*
X82069621Y14880798D01*
X82105416Y14834149D01*
X82110025Y14827734D01*
X82138592Y14785223D01*
X82138595Y14785220D01*
X82142830Y14778917D01*
X82145583Y14776412D01*
X82147688Y14773349D01*
X82153365Y14768291D01*
X82193657Y14732392D01*
X82198933Y14727411D01*
X82592735Y14333609D01*
X82595722Y14331267D01*
X82595723Y14331266D01*
X82677148Y14267421D01*
X82692457Y14255417D01*
X82699375Y14252293D01*
X82699379Y14252291D01*
X82769552Y14220607D01*
X82846984Y14185645D01*
X82854452Y14184261D01*
X82854455Y14184260D01*
X82948977Y14166742D01*
X83013692Y14154748D01*
X83021272Y14155185D01*
X83021273Y14155185D01*
X83056804Y14157234D01*
X83182959Y14164508D01*
X83345011Y14214361D01*
X83351527Y14218261D01*
X83356797Y14220607D01*
X83408045Y14231500D01*
X84121525Y14231500D01*
X84189646Y14211498D01*
X84236139Y14157842D01*
X84246243Y14087568D01*
X84216749Y14022988D01*
X84196385Y14004149D01*
X84135779Y13959384D01*
X84122616Y13946221D01*
X84053406Y13852520D01*
X84044694Y13836064D01*
X84005523Y13724521D01*
X84002255Y13709627D01*
X84000279Y13688719D01*
X84000000Y13682808D01*
X84000000Y13650115D01*
X84004475Y13634876D01*
X84005865Y13633671D01*
X84013548Y13632000D01*
X86281884Y13632000D01*
X86297123Y13636475D01*
X86298328Y13637865D01*
X86299999Y13645548D01*
X86299999Y13682804D01*
X86299720Y13688725D01*
X86297744Y13709631D01*
X86294479Y13724516D01*
X86255306Y13836064D01*
X86246594Y13852520D01*
X86177384Y13946221D01*
X86164221Y13959384D01*
X86102005Y14005338D01*
X86059095Y14061899D01*
X86053575Y14132681D01*
X86087199Y14195211D01*
X86102006Y14208040D01*
X86164576Y14254255D01*
X86164579Y14254258D01*
X86172150Y14259850D01*
X86226630Y14333609D01*
X86247041Y14361243D01*
X86247042Y14361246D01*
X86252634Y14368816D01*
X86297519Y14496631D01*
X86300500Y14528166D01*
X86300500Y14935834D01*
X86297519Y14967369D01*
X86252634Y15095184D01*
X86247042Y15102754D01*
X86247041Y15102757D01*
X86184665Y15187206D01*
X86172150Y15204150D01*
X86164579Y15209742D01*
X86164576Y15209745D01*
X86102006Y15255960D01*
X86059095Y15312521D01*
X86053575Y15383303D01*
X86087199Y15445832D01*
X86102005Y15458662D01*
X86164221Y15504616D01*
X86177384Y15517779D01*
X86246594Y15611480D01*
X86255306Y15627936D01*
X86294477Y15739479D01*
X86297745Y15754373D01*
X86299721Y15775281D01*
X86300000Y15781192D01*
X86300000Y15813885D01*
X86295525Y15829124D01*
X86294135Y15830329D01*
X86286452Y15832000D01*
X84018116Y15832000D01*
X84002877Y15827525D01*
X84001672Y15826135D01*
X84000001Y15818452D01*
X84000001Y15781196D01*
X84000280Y15775275D01*
X84002256Y15754369D01*
X84005521Y15739484D01*
X84044694Y15627936D01*
X84053406Y15611480D01*
X84122616Y15517779D01*
X84135779Y15504616D01*
X84196385Y15459851D01*
X84239296Y15403289D01*
X84244815Y15332508D01*
X84211191Y15269978D01*
X84149098Y15235554D01*
X84121525Y15232500D01*
X83716544Y15232500D01*
X83648423Y15252502D01*
X83616582Y15281795D01*
X83585978Y15321679D01*
X83414405Y15493252D01*
X83380379Y15555564D01*
X83377500Y15582347D01*
X83377500Y16150115D01*
X84000000Y16150115D01*
X84004475Y16134876D01*
X84005865Y16133671D01*
X84013548Y16132000D01*
X84981885Y16132000D01*
X84997124Y16136475D01*
X84998329Y16137865D01*
X85000000Y16145548D01*
X85000000Y16150115D01*
X85300000Y16150115D01*
X85304475Y16134876D01*
X85305865Y16133671D01*
X85313548Y16132000D01*
X86281884Y16132000D01*
X86297123Y16136475D01*
X86298328Y16137865D01*
X86299999Y16145548D01*
X86299999Y16182804D01*
X86299720Y16188725D01*
X86297744Y16209631D01*
X86294479Y16224516D01*
X86255306Y16336064D01*
X86246594Y16352520D01*
X86177384Y16446221D01*
X86164221Y16459384D01*
X86070520Y16528594D01*
X86054064Y16537306D01*
X85942521Y16576477D01*
X85927627Y16579745D01*
X85906719Y16581721D01*
X85900808Y16582000D01*
X85318115Y16582000D01*
X85302876Y16577525D01*
X85301671Y16576135D01*
X85300000Y16568452D01*
X85300000Y16150115D01*
X85000000Y16150115D01*
X85000000Y16563884D01*
X84995525Y16579123D01*
X84994135Y16580328D01*
X84986452Y16581999D01*
X84399196Y16581999D01*
X84393275Y16581720D01*
X84372369Y16579744D01*
X84357484Y16576479D01*
X84245936Y16537306D01*
X84229480Y16528594D01*
X84135779Y16459384D01*
X84122616Y16446221D01*
X84053406Y16352520D01*
X84044694Y16336064D01*
X84005523Y16224521D01*
X84002255Y16209627D01*
X84000279Y16188719D01*
X84000000Y16182808D01*
X84000000Y16150115D01*
X83377500Y16150115D01*
X83377500Y17543057D01*
X86700000Y17543057D01*
X86700456Y17535502D01*
X86709881Y17457612D01*
X86713834Y17442047D01*
X86763165Y17317451D01*
X86771522Y17302620D01*
X86852243Y17196275D01*
X86864275Y17184243D01*
X86970620Y17103522D01*
X86985451Y17095165D01*
X87110047Y17045834D01*
X87125612Y17041881D01*
X87203502Y17032456D01*
X87211057Y17032000D01*
X88181885Y17032000D01*
X88197124Y17036475D01*
X88198329Y17037865D01*
X88200000Y17045548D01*
X88200000Y17050115D01*
X88500000Y17050115D01*
X88504475Y17034876D01*
X88505865Y17033671D01*
X88513548Y17032000D01*
X89488943Y17032000D01*
X89496498Y17032456D01*
X89574388Y17041881D01*
X89589953Y17045834D01*
X89714549Y17095165D01*
X89729380Y17103522D01*
X89835725Y17184243D01*
X89847757Y17196275D01*
X89928478Y17302620D01*
X89936835Y17317451D01*
X89986166Y17442047D01*
X89990119Y17457612D01*
X89999544Y17535502D01*
X90000000Y17543057D01*
X90000000Y17663885D01*
X89995525Y17679124D01*
X89994135Y17680329D01*
X89986452Y17682000D01*
X88518115Y17682000D01*
X88502876Y17677525D01*
X88501671Y17676135D01*
X88500000Y17668452D01*
X88500000Y17050115D01*
X88200000Y17050115D01*
X88200000Y17663885D01*
X88195525Y17679124D01*
X88194135Y17680329D01*
X88186452Y17682000D01*
X86718115Y17682000D01*
X86702876Y17677525D01*
X86701671Y17676135D01*
X86700000Y17668452D01*
X86700000Y17543057D01*
X83377500Y17543057D01*
X83377500Y18000115D01*
X86700000Y18000115D01*
X86704475Y17984876D01*
X86705865Y17983671D01*
X86713548Y17982000D01*
X88181885Y17982000D01*
X88197124Y17986475D01*
X88198329Y17987865D01*
X88200000Y17995548D01*
X88200000Y18000115D01*
X88500000Y18000115D01*
X88504475Y17984876D01*
X88505865Y17983671D01*
X88513548Y17982000D01*
X89981885Y17982000D01*
X89997124Y17986475D01*
X89998329Y17987865D01*
X90000000Y17995548D01*
X90000000Y18120943D01*
X89999544Y18128498D01*
X89990119Y18206388D01*
X89986166Y18221953D01*
X89936835Y18346549D01*
X89928478Y18361380D01*
X89847757Y18467725D01*
X89835725Y18479757D01*
X89729380Y18560478D01*
X89714549Y18568835D01*
X89589953Y18618166D01*
X89574388Y18622119D01*
X89496498Y18631544D01*
X89488943Y18632000D01*
X88518115Y18632000D01*
X88502876Y18627525D01*
X88501671Y18626135D01*
X88500000Y18618452D01*
X88500000Y18000115D01*
X88200000Y18000115D01*
X88200000Y18613885D01*
X88195525Y18629124D01*
X88194135Y18630329D01*
X88186452Y18632000D01*
X87211057Y18632000D01*
X87203502Y18631544D01*
X87125612Y18622119D01*
X87110047Y18618166D01*
X86985451Y18568835D01*
X86970620Y18560478D01*
X86864275Y18479757D01*
X86852243Y18467725D01*
X86771522Y18361380D01*
X86763165Y18346549D01*
X86713834Y18221953D01*
X86709881Y18206388D01*
X86700456Y18128498D01*
X86700000Y18120943D01*
X86700000Y18000115D01*
X83377500Y18000115D01*
X83377500Y20360057D01*
X86700000Y20360057D01*
X86700456Y20352502D01*
X86709881Y20274612D01*
X86713834Y20259047D01*
X86763165Y20134451D01*
X86771522Y20119620D01*
X86852243Y20013275D01*
X86864275Y20001243D01*
X86970620Y19920522D01*
X86985451Y19912165D01*
X87110047Y19862834D01*
X87125612Y19858881D01*
X87203502Y19849456D01*
X87211057Y19849000D01*
X88181885Y19849000D01*
X88197124Y19853475D01*
X88198329Y19854865D01*
X88200000Y19862548D01*
X88200000Y19867115D01*
X88500000Y19867115D01*
X88504475Y19851876D01*
X88505865Y19850671D01*
X88513548Y19849000D01*
X89488943Y19849000D01*
X89496498Y19849456D01*
X89574388Y19858881D01*
X89589953Y19862834D01*
X89714549Y19912165D01*
X89729380Y19920522D01*
X89835725Y20001243D01*
X89847757Y20013275D01*
X89928478Y20119620D01*
X89936835Y20134451D01*
X89986166Y20259047D01*
X89990119Y20274612D01*
X89999544Y20352502D01*
X90000000Y20360057D01*
X90000000Y20480885D01*
X89995525Y20496124D01*
X89994135Y20497329D01*
X89986452Y20499000D01*
X88518115Y20499000D01*
X88502876Y20494525D01*
X88501671Y20493135D01*
X88500000Y20485452D01*
X88500000Y19867115D01*
X88200000Y19867115D01*
X88200000Y20480885D01*
X88195525Y20496124D01*
X88194135Y20497329D01*
X88186452Y20499000D01*
X86718115Y20499000D01*
X86702876Y20494525D01*
X86701671Y20493135D01*
X86700000Y20485452D01*
X86700000Y20360057D01*
X83377500Y20360057D01*
X83377500Y20817115D01*
X86700000Y20817115D01*
X86704475Y20801876D01*
X86705865Y20800671D01*
X86713548Y20799000D01*
X88181885Y20799000D01*
X88197124Y20803475D01*
X88198329Y20804865D01*
X88200000Y20812548D01*
X88200000Y20817115D01*
X88500000Y20817115D01*
X88504475Y20801876D01*
X88505865Y20800671D01*
X88513548Y20799000D01*
X89981885Y20799000D01*
X89997124Y20803475D01*
X89998329Y20804865D01*
X90000000Y20812548D01*
X90000000Y20937943D01*
X89999544Y20945498D01*
X89990119Y21023388D01*
X89986166Y21038953D01*
X89936835Y21163549D01*
X89928478Y21178380D01*
X89847757Y21284725D01*
X89835725Y21296757D01*
X89729380Y21377478D01*
X89714549Y21385835D01*
X89589953Y21435166D01*
X89574388Y21439119D01*
X89496498Y21448544D01*
X89488943Y21449000D01*
X88518115Y21449000D01*
X88502876Y21444525D01*
X88501671Y21443135D01*
X88500000Y21435452D01*
X88500000Y20817115D01*
X88200000Y20817115D01*
X88200000Y21430885D01*
X88195525Y21446124D01*
X88194135Y21447329D01*
X88186452Y21449000D01*
X87211057Y21449000D01*
X87203502Y21448544D01*
X87125612Y21439119D01*
X87110047Y21435166D01*
X86985451Y21385835D01*
X86970620Y21377478D01*
X86864275Y21296757D01*
X86852243Y21284725D01*
X86771522Y21178380D01*
X86763165Y21163549D01*
X86713834Y21038953D01*
X86709881Y21023388D01*
X86700456Y20945498D01*
X86700000Y20937943D01*
X86700000Y20817115D01*
X83377500Y20817115D01*
X83377500Y22298196D01*
X84000001Y22298196D01*
X84000280Y22292275D01*
X84002256Y22271369D01*
X84005521Y22256484D01*
X84044694Y22144936D01*
X84053406Y22128480D01*
X84122616Y22034779D01*
X84135779Y22021616D01*
X84229480Y21952406D01*
X84245936Y21943694D01*
X84357479Y21904523D01*
X84372373Y21901255D01*
X84393281Y21899279D01*
X84399192Y21899000D01*
X84981885Y21899000D01*
X84997124Y21903475D01*
X84998329Y21904865D01*
X85000000Y21912548D01*
X85000000Y21917116D01*
X85300000Y21917116D01*
X85304475Y21901877D01*
X85305865Y21900672D01*
X85313548Y21899001D01*
X85900804Y21899001D01*
X85906725Y21899280D01*
X85927631Y21901256D01*
X85942516Y21904521D01*
X86054064Y21943694D01*
X86070520Y21952406D01*
X86164221Y22021616D01*
X86177384Y22034779D01*
X86246594Y22128480D01*
X86255306Y22144936D01*
X86294477Y22256479D01*
X86297745Y22271373D01*
X86299721Y22292281D01*
X86300000Y22298192D01*
X86300000Y22330885D01*
X86295525Y22346124D01*
X86294135Y22347329D01*
X86286452Y22349000D01*
X85318115Y22349000D01*
X85302876Y22344525D01*
X85301671Y22343135D01*
X85300000Y22335452D01*
X85300000Y21917116D01*
X85000000Y21917116D01*
X85000000Y22330885D01*
X84995525Y22346124D01*
X84994135Y22347329D01*
X84986452Y22349000D01*
X84018116Y22349000D01*
X84002877Y22344525D01*
X84001672Y22343135D01*
X84000001Y22335452D01*
X84000001Y22298196D01*
X83377500Y22298196D01*
X83377500Y23122500D01*
X83397502Y23190621D01*
X83451158Y23237114D01*
X83503500Y23248500D01*
X84121525Y23248500D01*
X84189646Y23228498D01*
X84236139Y23174842D01*
X84246243Y23104568D01*
X84216749Y23039988D01*
X84196385Y23021149D01*
X84135779Y22976384D01*
X84122616Y22963221D01*
X84053406Y22869520D01*
X84044694Y22853064D01*
X84005523Y22741521D01*
X84002255Y22726627D01*
X84000279Y22705719D01*
X84000000Y22699808D01*
X84000000Y22667115D01*
X84004475Y22651876D01*
X84005865Y22650671D01*
X84013548Y22649000D01*
X86281884Y22649000D01*
X86297123Y22653475D01*
X86298328Y22654865D01*
X86299999Y22662548D01*
X86299999Y22699804D01*
X86299720Y22705725D01*
X86297744Y22726631D01*
X86294479Y22741516D01*
X86255306Y22853064D01*
X86246594Y22869520D01*
X86177384Y22963221D01*
X86164221Y22976384D01*
X86102005Y23022338D01*
X86059095Y23078899D01*
X86053575Y23149681D01*
X86087199Y23212211D01*
X86102006Y23225040D01*
X86164576Y23271255D01*
X86164579Y23271258D01*
X86172150Y23276850D01*
X86184665Y23293794D01*
X86247041Y23378243D01*
X86247042Y23378246D01*
X86252634Y23385816D01*
X86297519Y23513631D01*
X86300500Y23545166D01*
X86300500Y23952834D01*
X86297519Y23984369D01*
X86252634Y24112184D01*
X86247042Y24119754D01*
X86247041Y24119757D01*
X86177742Y24213579D01*
X86172150Y24221150D01*
X86164579Y24226742D01*
X86164576Y24226745D01*
X86102006Y24272960D01*
X86059095Y24329521D01*
X86053575Y24400303D01*
X86087199Y24462832D01*
X86102005Y24475662D01*
X86164221Y24521616D01*
X86177384Y24534779D01*
X86246594Y24628480D01*
X86255306Y24644936D01*
X86294477Y24756479D01*
X86297745Y24771373D01*
X86299721Y24792281D01*
X86300000Y24798192D01*
X86300000Y24830885D01*
X86295525Y24846124D01*
X86294135Y24847329D01*
X86286452Y24849000D01*
X84018116Y24849000D01*
X84002877Y24844525D01*
X84001672Y24843135D01*
X84000001Y24835452D01*
X84000001Y24798196D01*
X84000280Y24792275D01*
X84002256Y24771369D01*
X84005521Y24756484D01*
X84044694Y24644936D01*
X84053406Y24628480D01*
X84122616Y24534779D01*
X84135779Y24521616D01*
X84196385Y24476851D01*
X84239296Y24420289D01*
X84244815Y24349508D01*
X84211191Y24286978D01*
X84149098Y24252554D01*
X84121525Y24249500D01*
X83503500Y24249500D01*
X83435379Y24269502D01*
X83388886Y24323158D01*
X83377500Y24375500D01*
X83377500Y25167115D01*
X84000000Y25167115D01*
X84004475Y25151876D01*
X84005865Y25150671D01*
X84013548Y25149000D01*
X84981885Y25149000D01*
X84997124Y25153475D01*
X84998329Y25154865D01*
X85000000Y25162548D01*
X85000000Y25167115D01*
X85300000Y25167115D01*
X85304475Y25151876D01*
X85305865Y25150671D01*
X85313548Y25149000D01*
X86281884Y25149000D01*
X86297123Y25153475D01*
X86298328Y25154865D01*
X86299999Y25162548D01*
X86299999Y25199804D01*
X86299720Y25205725D01*
X86297744Y25226631D01*
X86294479Y25241516D01*
X86255306Y25353064D01*
X86246594Y25369520D01*
X86177384Y25463221D01*
X86164221Y25476384D01*
X86070520Y25545594D01*
X86054064Y25554306D01*
X85942521Y25593477D01*
X85927627Y25596745D01*
X85906719Y25598721D01*
X85900808Y25599000D01*
X85318115Y25599000D01*
X85302876Y25594525D01*
X85301671Y25593135D01*
X85300000Y25585452D01*
X85300000Y25167115D01*
X85000000Y25167115D01*
X85000000Y25580884D01*
X84995525Y25596123D01*
X84994135Y25597328D01*
X84986452Y25598999D01*
X84399196Y25598999D01*
X84393275Y25598720D01*
X84372369Y25596744D01*
X84357484Y25593479D01*
X84245936Y25554306D01*
X84229480Y25545594D01*
X84135779Y25476384D01*
X84122616Y25463221D01*
X84053406Y25369520D01*
X84044694Y25353064D01*
X84005523Y25241521D01*
X84002255Y25226627D01*
X84000279Y25205719D01*
X84000000Y25199808D01*
X84000000Y25167115D01*
X83377500Y25167115D01*
X83377500Y26560057D01*
X86700000Y26560057D01*
X86700456Y26552502D01*
X86709881Y26474612D01*
X86713834Y26459047D01*
X86763165Y26334451D01*
X86771522Y26319620D01*
X86852243Y26213275D01*
X86864275Y26201243D01*
X86970620Y26120522D01*
X86985451Y26112165D01*
X87110047Y26062834D01*
X87125612Y26058881D01*
X87203502Y26049456D01*
X87211057Y26049000D01*
X88181885Y26049000D01*
X88197124Y26053475D01*
X88198329Y26054865D01*
X88200000Y26062548D01*
X88200000Y26067115D01*
X88500000Y26067115D01*
X88504475Y26051876D01*
X88505865Y26050671D01*
X88513548Y26049000D01*
X89488943Y26049000D01*
X89496498Y26049456D01*
X89574388Y26058881D01*
X89589953Y26062834D01*
X89714549Y26112165D01*
X89729380Y26120522D01*
X89835725Y26201243D01*
X89847757Y26213275D01*
X89928478Y26319620D01*
X89936835Y26334451D01*
X89986166Y26459047D01*
X89990119Y26474612D01*
X89999544Y26552502D01*
X90000000Y26560057D01*
X90000000Y26680885D01*
X89995525Y26696124D01*
X89994135Y26697329D01*
X89986452Y26699000D01*
X88518115Y26699000D01*
X88502876Y26694525D01*
X88501671Y26693135D01*
X88500000Y26685452D01*
X88500000Y26067115D01*
X88200000Y26067115D01*
X88200000Y26680885D01*
X88195525Y26696124D01*
X88194135Y26697329D01*
X88186452Y26699000D01*
X86718115Y26699000D01*
X86702876Y26694525D01*
X86701671Y26693135D01*
X86700000Y26685452D01*
X86700000Y26560057D01*
X83377500Y26560057D01*
X83377500Y27017115D01*
X86700000Y27017115D01*
X86704475Y27001876D01*
X86705865Y27000671D01*
X86713548Y26999000D01*
X88181885Y26999000D01*
X88197124Y27003475D01*
X88198329Y27004865D01*
X88200000Y27012548D01*
X88200000Y27017115D01*
X88500000Y27017115D01*
X88504475Y27001876D01*
X88505865Y27000671D01*
X88513548Y26999000D01*
X89981885Y26999000D01*
X89997124Y27003475D01*
X89998329Y27004865D01*
X90000000Y27012548D01*
X90000000Y27137943D01*
X89999544Y27145498D01*
X89990119Y27223388D01*
X89986166Y27238953D01*
X89936835Y27363549D01*
X89928478Y27378380D01*
X89847757Y27484725D01*
X89835725Y27496757D01*
X89729380Y27577478D01*
X89714549Y27585835D01*
X89589953Y27635166D01*
X89574388Y27639119D01*
X89496498Y27648544D01*
X89488943Y27649000D01*
X88518115Y27649000D01*
X88502876Y27644525D01*
X88501671Y27643135D01*
X88500000Y27635452D01*
X88500000Y27017115D01*
X88200000Y27017115D01*
X88200000Y27630885D01*
X88195525Y27646124D01*
X88194135Y27647329D01*
X88186452Y27649000D01*
X87211057Y27649000D01*
X87203502Y27648544D01*
X87125612Y27639119D01*
X87110047Y27635166D01*
X86985451Y27585835D01*
X86970620Y27577478D01*
X86864275Y27496757D01*
X86852243Y27484725D01*
X86771522Y27378380D01*
X86763165Y27363549D01*
X86713834Y27238953D01*
X86709881Y27223388D01*
X86700456Y27145498D01*
X86700000Y27137943D01*
X86700000Y27017115D01*
X83377500Y27017115D01*
X83377500Y28232654D01*
X83397502Y28300775D01*
X83414405Y28321749D01*
X85296251Y30203595D01*
X85358563Y30237621D01*
X85385346Y30240500D01*
X86684500Y30240500D01*
X86752621Y30220498D01*
X86799114Y30166842D01*
X86810500Y30114500D01*
X86810500Y29146354D01*
X86813618Y29120154D01*
X86859061Y29017847D01*
X86938287Y28938759D01*
X86948924Y28934056D01*
X86948926Y28934055D01*
X87008462Y28907735D01*
X87040673Y28893494D01*
X87066354Y28890500D01*
X88955646Y28890500D01*
X88959350Y28890941D01*
X88959353Y28890941D01*
X88966746Y28891821D01*
X88981846Y28893618D01*
X89084153Y28939061D01*
X89163241Y29018287D01*
X89170831Y29035453D01*
X89204675Y29112008D01*
X89208506Y29120673D01*
X89211500Y29146354D01*
X89211500Y32735646D01*
X89208382Y32761846D01*
X89197071Y32787312D01*
X89167663Y32853518D01*
X89162939Y32864153D01*
X89083713Y32943241D01*
X89073076Y32947944D01*
X89073074Y32947945D01*
X88991207Y32984138D01*
X88981327Y32988506D01*
X88955646Y32991500D01*
X87066354Y32991500D01*
X87062650Y32991059D01*
X87062647Y32991059D01*
X87055254Y32990179D01*
X87040154Y32988382D01*
X87031514Y32984544D01*
X87031513Y32984544D01*
X86949117Y32947945D01*
X86937847Y32942939D01*
X86929628Y32934706D01*
X86929627Y32934705D01*
X86903123Y32908154D01*
X86858759Y32863713D01*
X86854056Y32853076D01*
X86854055Y32853074D01*
X86841616Y32824937D01*
X86813494Y32761327D01*
X86810500Y32735646D01*
X86810500Y31767500D01*
X86790498Y31699379D01*
X86736842Y31652886D01*
X86684500Y31641500D01*
X85071637Y31641500D01*
X85063066Y31641792D01*
X85006070Y31645678D01*
X84998594Y31644373D01*
X84998590Y31644373D01*
X84943868Y31634822D01*
X84937342Y31633859D01*
X84896904Y31628965D01*
X84874680Y31626276D01*
X84867573Y31623591D01*
X84864280Y31622782D01*
X84849798Y31618820D01*
X84846530Y31617833D01*
X84839046Y31616527D01*
X84832093Y31613475D01*
X84827781Y31612173D01*
X84756787Y31611634D01*
X84696771Y31649562D01*
X84666787Y31713917D01*
X84674213Y31779180D01*
X84679656Y31792926D01*
X84679656Y31792927D01*
X84682636Y31800453D01*
X84693500Y31890228D01*
X84693500Y32625772D01*
X84682636Y32715547D01*
X84674679Y32735646D01*
X84630275Y32847796D01*
X84627113Y32855783D01*
X84535922Y32975922D01*
X84415783Y33067113D01*
X84352168Y33092300D01*
X84283077Y33119655D01*
X84283075Y33119656D01*
X84275547Y33122636D01*
X84185772Y33133500D01*
X83200228Y33133500D01*
X83110453Y33122636D01*
X83102925Y33119656D01*
X83102923Y33119655D01*
X83033832Y33092300D01*
X82970217Y33067113D01*
X82963377Y33061921D01*
X82963372Y33061918D01*
X82860901Y32984138D01*
X82794548Y32958884D01*
X82784721Y32958500D01*
X81181637Y32958500D01*
X81173066Y32958792D01*
X81116070Y32962678D01*
X81108594Y32961373D01*
X81108590Y32961373D01*
X81053868Y32951822D01*
X81047342Y32950859D01*
X81006904Y32945965D01*
X80984680Y32943276D01*
X80977573Y32940591D01*
X80974280Y32939782D01*
X80959809Y32935823D01*
X80956533Y32934834D01*
X80949046Y32933527D01*
X80942088Y32930472D01*
X80942086Y32930472D01*
X80891242Y32908154D01*
X80885137Y32905662D01*
X80874126Y32901501D01*
X80826077Y32883345D01*
X80819824Y32879047D01*
X80816793Y32877463D01*
X80803716Y32870183D01*
X80800757Y32868433D01*
X80793797Y32865378D01*
X80787770Y32860753D01*
X80787766Y32860751D01*
X80743700Y32826938D01*
X80738381Y32823073D01*
X80686349Y32787312D01*
X80670917Y32769992D01*
X80645400Y32741352D01*
X80640419Y32736076D01*
X78994925Y31090582D01*
X78988660Y31084729D01*
X78945604Y31047169D01*
X78909317Y30995537D01*
X78905384Y30990242D01*
X78871105Y30946524D01*
X78871103Y30946520D01*
X78866416Y30940543D01*
X78863290Y30933620D01*
X78861505Y30930672D01*
X78854113Y30917712D01*
X78852480Y30914666D01*
X78848113Y30908453D01*
X78845354Y30901376D01*
X78825180Y30849634D01*
X78822625Y30843555D01*
X78796645Y30786016D01*
X78795260Y30778545D01*
X78794236Y30775277D01*
X78790123Y30760836D01*
X78789283Y30757563D01*
X78786524Y30750487D01*
X78785533Y30742957D01*
X78778284Y30687894D01*
X78777252Y30681377D01*
X78765748Y30619308D01*
X78766185Y30611728D01*
X78766185Y30611727D01*
X78769291Y30557856D01*
X78769500Y30550604D01*
X78769500Y26859766D01*
X78749498Y26791645D01*
X78709335Y26752333D01*
X78555821Y26658259D01*
X78370241Y26499759D01*
X78211741Y26314179D01*
X78084223Y26106089D01*
X78082330Y26101519D01*
X78082328Y26101515D01*
X77992720Y25885181D01*
X77992718Y25885175D01*
X77990828Y25880612D01*
X77989676Y25875812D01*
X77989674Y25875807D01*
X77963623Y25767298D01*
X77933854Y25643302D01*
X77914706Y25400000D01*
X66075543Y25400000D01*
X66055392Y25720294D01*
X65995256Y26035538D01*
X65896084Y26340758D01*
X65881752Y26371215D01*
X65761127Y26627556D01*
X65761123Y26627563D01*
X65759439Y26631142D01*
X65587478Y26902110D01*
X65382911Y27149390D01*
X65148964Y27369080D01*
X64989792Y27484725D01*
X64892537Y27555385D01*
X64892532Y27555388D01*
X64889328Y27557716D01*
X64853382Y27577478D01*
X64611559Y27710421D01*
X64611556Y27710422D01*
X64608097Y27712324D01*
X64309706Y27830466D01*
X63998861Y27910277D01*
X63680464Y27950500D01*
X63359536Y27950500D01*
X63041139Y27910277D01*
X62730294Y27830466D01*
X62431903Y27712324D01*
X62428444Y27710422D01*
X62428441Y27710421D01*
X62186619Y27577478D01*
X62150672Y27557716D01*
X62147468Y27555388D01*
X62147463Y27555385D01*
X62050208Y27484725D01*
X61891036Y27369080D01*
X61657089Y27149390D01*
X61452522Y26902110D01*
X61280561Y26631142D01*
X61278877Y26627563D01*
X61278873Y26627556D01*
X61158248Y26371215D01*
X61143916Y26340758D01*
X61044744Y26035538D01*
X60984608Y25720294D01*
X60964457Y25400000D01*
X30475543Y25400000D01*
X30455392Y25720294D01*
X30395256Y26035538D01*
X30296084Y26340758D01*
X30281752Y26371215D01*
X30161127Y26627556D01*
X30161123Y26627563D01*
X30159439Y26631142D01*
X29987478Y26902110D01*
X29782911Y27149390D01*
X29548964Y27369080D01*
X29389792Y27484725D01*
X29292537Y27555385D01*
X29292532Y27555388D01*
X29289328Y27557716D01*
X29253382Y27577478D01*
X29011559Y27710421D01*
X29011556Y27710422D01*
X29008097Y27712324D01*
X28709706Y27830466D01*
X28398861Y27910277D01*
X28080464Y27950500D01*
X27759536Y27950500D01*
X27441139Y27910277D01*
X27130294Y27830466D01*
X26831903Y27712324D01*
X26828444Y27710422D01*
X26828441Y27710421D01*
X26586619Y27577478D01*
X26550672Y27557716D01*
X26547468Y27555388D01*
X26547463Y27555385D01*
X26450208Y27484725D01*
X26291036Y27369080D01*
X26057089Y27149390D01*
X25852522Y26902110D01*
X25680561Y26631142D01*
X25678877Y26627563D01*
X25678873Y26627556D01*
X25558248Y26371215D01*
X25543916Y26340758D01*
X25444744Y26035538D01*
X25384608Y25720294D01*
X25364457Y25400000D01*
X13524405Y25400000D01*
X13524405Y25404930D01*
X13506039Y25638289D01*
X13504496Y25648036D01*
X13449851Y25875645D01*
X13446802Y25885030D01*
X13357226Y26101287D01*
X13352745Y26110081D01*
X13230438Y26309667D01*
X13224638Y26317649D01*
X13178889Y26371215D01*
X13165976Y26379645D01*
X13155769Y26373637D01*
X12194944Y25412812D01*
X12187330Y25398868D01*
X11751434Y25398868D01*
X11752670Y25401132D01*
X11752539Y25402965D01*
X11748288Y25409580D01*
X10785689Y26372179D01*
X10772152Y26379571D01*
X10762451Y26372783D01*
X10715362Y26317649D01*
X10709562Y26309667D01*
X10587255Y26110081D01*
X10582774Y26101287D01*
X10493198Y25885030D01*
X10490149Y25875645D01*
X10435504Y25648036D01*
X10433961Y25638289D01*
X10415595Y25404930D01*
X10415595Y25395070D01*
X754500Y25395070D01*
X754500Y26595976D01*
X10990355Y26595976D01*
X10996363Y26585769D01*
X11957188Y25624944D01*
X11971132Y25617330D01*
X11972965Y25617461D01*
X11979580Y25621712D01*
X12942179Y26584311D01*
X12949571Y26597848D01*
X12942783Y26607549D01*
X12887649Y26654638D01*
X12879667Y26660438D01*
X12680081Y26782745D01*
X12671287Y26787226D01*
X12455030Y26876802D01*
X12445645Y26879851D01*
X12218036Y26934496D01*
X12208289Y26936039D01*
X11974930Y26954405D01*
X11965070Y26954405D01*
X11731711Y26936039D01*
X11721964Y26934496D01*
X11494355Y26879851D01*
X11484970Y26876802D01*
X11268713Y26787226D01*
X11259919Y26782745D01*
X11060333Y26660438D01*
X11052351Y26654638D01*
X10998785Y26608889D01*
X10990355Y26595976D01*
X754500Y26595976D01*
X754500Y33940228D01*
X82692500Y33940228D01*
X82703364Y33850453D01*
X82758887Y33710217D01*
X82850078Y33590078D01*
X82970217Y33498887D01*
X83033832Y33473700D01*
X83102923Y33446345D01*
X83102925Y33446344D01*
X83110453Y33443364D01*
X83200228Y33432500D01*
X84185772Y33432500D01*
X84275547Y33443364D01*
X84283075Y33446344D01*
X84283077Y33446345D01*
X84352168Y33473700D01*
X84415783Y33498887D01*
X84535922Y33590078D01*
X84627113Y33710217D01*
X84682636Y33850453D01*
X84693500Y33940228D01*
X84693500Y34265653D01*
X84713502Y34333774D01*
X84730405Y34354749D01*
X85579253Y35203596D01*
X85641565Y35237621D01*
X85668348Y35240500D01*
X86684500Y35240500D01*
X86752621Y35220498D01*
X86799114Y35166842D01*
X86810500Y35114500D01*
X86810500Y34146354D01*
X86813618Y34120154D01*
X86859061Y34017847D01*
X86938287Y33938759D01*
X86948924Y33934056D01*
X86948926Y33934055D01*
X87008462Y33907735D01*
X87040673Y33893494D01*
X87066354Y33890500D01*
X88955646Y33890500D01*
X88959350Y33890941D01*
X88959353Y33890941D01*
X88966746Y33891821D01*
X88981846Y33893618D01*
X89084153Y33939061D01*
X89163241Y34018287D01*
X89208506Y34120673D01*
X89211500Y34146354D01*
X89211500Y37735646D01*
X89208382Y37761846D01*
X89162939Y37864153D01*
X89083713Y37943241D01*
X89073076Y37947944D01*
X89073074Y37947945D01*
X89013538Y37974265D01*
X88981327Y37988506D01*
X88955646Y37991500D01*
X87066354Y37991500D01*
X87062650Y37991059D01*
X87062647Y37991059D01*
X87055254Y37990179D01*
X87040154Y37988382D01*
X86937847Y37942939D01*
X86858759Y37863713D01*
X86813494Y37761327D01*
X86810500Y37735646D01*
X86810500Y36767500D01*
X86790498Y36699379D01*
X86736842Y36652886D01*
X86684500Y36641500D01*
X85354641Y36641500D01*
X85346071Y36641792D01*
X85345211Y36641851D01*
X85289070Y36645678D01*
X85281593Y36644373D01*
X85281590Y36644373D01*
X85226870Y36634823D01*
X85220346Y36633860D01*
X85165221Y36627189D01*
X85165218Y36627188D01*
X85157680Y36626276D01*
X85150578Y36623592D01*
X85147242Y36622773D01*
X85132785Y36618817D01*
X85129528Y36617834D01*
X85122047Y36616528D01*
X85115095Y36613476D01*
X85115094Y36613476D01*
X85064233Y36591151D01*
X85058128Y36588660D01*
X85006189Y36569033D01*
X85006185Y36569031D01*
X84999077Y36566345D01*
X84992813Y36562040D01*
X84989774Y36560451D01*
X84976701Y36553176D01*
X84973750Y36551431D01*
X84966798Y36548379D01*
X84960770Y36543754D01*
X84960769Y36543753D01*
X84916727Y36509958D01*
X84911391Y36506081D01*
X84865614Y36474619D01*
X84865608Y36474614D01*
X84859349Y36470312D01*
X84854294Y36464638D01*
X84818392Y36424343D01*
X84813411Y36419067D01*
X83614748Y35220405D01*
X83552436Y35186379D01*
X83525653Y35183500D01*
X83200228Y35183500D01*
X83110453Y35172636D01*
X83102925Y35169656D01*
X83102923Y35169655D01*
X83033832Y35142300D01*
X82970217Y35117113D01*
X82850078Y35025922D01*
X82758887Y34905783D01*
X82703364Y34765547D01*
X82692500Y34675772D01*
X82692500Y33940228D01*
X754500Y33940228D01*
X754500Y45775923D01*
X1075065Y45775923D01*
X1088722Y45384843D01*
X1140477Y44996962D01*
X1229834Y44615983D01*
X1230823Y44613077D01*
X1230825Y44613071D01*
X1354950Y44248457D01*
X1354955Y44248445D01*
X1355943Y44245542D01*
X1517598Y43889174D01*
X1713258Y43550283D01*
X1715047Y43547784D01*
X1715049Y43547781D01*
X1812831Y43411201D01*
X1941053Y43232101D01*
X2198810Y42937667D01*
X2484069Y42669792D01*
X2794107Y42431031D01*
X2796710Y42429404D01*
X2796715Y42429401D01*
X2915687Y42355059D01*
X3125964Y42223663D01*
X3476472Y42049669D01*
X3842287Y41910710D01*
X4219915Y41808110D01*
X4222958Y41807595D01*
X4222964Y41807594D01*
X4602713Y41743364D01*
X4602720Y41743363D01*
X4605754Y41742850D01*
X4608825Y41742635D01*
X4608827Y41742635D01*
X4993053Y41715767D01*
X4993061Y41715767D01*
X4996119Y41715553D01*
X5249704Y41722637D01*
X5384211Y41726394D01*
X5384214Y41726394D01*
X5387285Y41726480D01*
X5390338Y41726866D01*
X5390342Y41726866D01*
X5576145Y41750338D01*
X5775517Y41775525D01*
X5778521Y41776207D01*
X5778524Y41776208D01*
X6154115Y41861540D01*
X6154121Y41861542D01*
X6157111Y41862221D01*
X6302875Y41910710D01*
X6525500Y41984767D01*
X6525506Y41984769D01*
X6528424Y41985740D01*
X6669551Y42048574D01*
X6883111Y42143657D01*
X6883117Y42143660D01*
X6885911Y42144904D01*
X6888580Y42146420D01*
X7223492Y42336676D01*
X7223498Y42336680D01*
X7226160Y42338192D01*
X7545924Y42563761D01*
X7842150Y42819456D01*
X7844271Y42821683D01*
X7844277Y42821689D01*
X8109894Y43100615D01*
X8112011Y43102838D01*
X8211192Y43229783D01*
X8351021Y43408756D01*
X8351023Y43408759D01*
X8352931Y43411201D01*
X8354587Y43413811D01*
X8354593Y43413819D01*
X8560957Y43738997D01*
X8560959Y43739000D01*
X8562610Y43741602D01*
X8739046Y44090888D01*
X8880557Y44455723D01*
X8985790Y44832626D01*
X9053742Y45218000D01*
X9066580Y45384843D01*
X9083613Y45606211D01*
X9083613Y45606222D01*
X9083763Y45608165D01*
X9085325Y45720000D01*
X9082590Y45775923D01*
X82355065Y45775923D01*
X82368722Y45384843D01*
X82420477Y44996962D01*
X82509834Y44615983D01*
X82510823Y44613077D01*
X82510825Y44613071D01*
X82634950Y44248457D01*
X82634955Y44248445D01*
X82635943Y44245542D01*
X82797598Y43889174D01*
X82993258Y43550283D01*
X82995047Y43547784D01*
X82995049Y43547781D01*
X83092831Y43411201D01*
X83221053Y43232101D01*
X83478810Y42937667D01*
X83764069Y42669792D01*
X84074107Y42431031D01*
X84076710Y42429404D01*
X84076715Y42429401D01*
X84195687Y42355059D01*
X84405964Y42223663D01*
X84756472Y42049669D01*
X85122287Y41910710D01*
X85499915Y41808110D01*
X85502958Y41807595D01*
X85502964Y41807594D01*
X85882713Y41743364D01*
X85882720Y41743363D01*
X85885754Y41742850D01*
X85888825Y41742635D01*
X85888827Y41742635D01*
X86273053Y41715767D01*
X86273061Y41715767D01*
X86276119Y41715553D01*
X86529704Y41722637D01*
X86664211Y41726394D01*
X86664214Y41726394D01*
X86667285Y41726480D01*
X86670338Y41726866D01*
X86670342Y41726866D01*
X86856145Y41750338D01*
X87055517Y41775525D01*
X87058521Y41776207D01*
X87058524Y41776208D01*
X87434115Y41861540D01*
X87434121Y41861542D01*
X87437111Y41862221D01*
X87582875Y41910710D01*
X87805500Y41984767D01*
X87805506Y41984769D01*
X87808424Y41985740D01*
X87949551Y42048574D01*
X88163111Y42143657D01*
X88163117Y42143660D01*
X88165911Y42144904D01*
X88168580Y42146420D01*
X88503492Y42336676D01*
X88503498Y42336680D01*
X88506160Y42338192D01*
X88825924Y42563761D01*
X89122150Y42819456D01*
X89124271Y42821683D01*
X89124277Y42821689D01*
X89389894Y43100615D01*
X89392011Y43102838D01*
X89491192Y43229783D01*
X89631021Y43408756D01*
X89631023Y43408759D01*
X89632931Y43411201D01*
X89634587Y43413811D01*
X89634593Y43413819D01*
X89840957Y43738997D01*
X89840959Y43739000D01*
X89842610Y43741602D01*
X90019046Y44090888D01*
X90160557Y44455723D01*
X90265790Y44832626D01*
X90333742Y45218000D01*
X90346580Y45384843D01*
X90363613Y45606211D01*
X90363613Y45606222D01*
X90363763Y45608165D01*
X90365325Y45720000D01*
X90346209Y46110851D01*
X90289044Y46497972D01*
X90194376Y46877666D01*
X90063107Y47246311D01*
X89896492Y47600386D01*
X89867167Y47649580D01*
X89697700Y47933862D01*
X89696120Y47936513D01*
X89463905Y48251483D01*
X89202061Y48542289D01*
X88913090Y48806156D01*
X88599749Y49040565D01*
X88546075Y49073071D01*
X88267658Y49241687D01*
X88267649Y49241692D01*
X88265030Y49243278D01*
X87912126Y49412362D01*
X87909237Y49413414D01*
X87909231Y49413416D01*
X87547306Y49545145D01*
X87547303Y49545146D01*
X87544407Y49546200D01*
X87267326Y49617342D01*
X87168366Y49642751D01*
X87168363Y49642752D01*
X87165382Y49643517D01*
X86778670Y49703383D01*
X86775613Y49703554D01*
X86775612Y49703554D01*
X86745120Y49705259D01*
X86387962Y49725227D01*
X86384883Y49725098D01*
X86384880Y49725098D01*
X86128770Y49714364D01*
X85996987Y49708841D01*
X85993943Y49708413D01*
X85993941Y49708413D01*
X85959368Y49703554D01*
X85609477Y49654380D01*
X85229131Y49562364D01*
X84859579Y49433673D01*
X84856781Y49432380D01*
X84507146Y49270826D01*
X84507136Y49270821D01*
X84504349Y49269533D01*
X84395829Y49205865D01*
X84169486Y49073071D01*
X84169481Y49073068D01*
X84166831Y49071513D01*
X84126433Y49042162D01*
X83852730Y48843306D01*
X83852721Y48843299D01*
X83850248Y48841502D01*
X83847958Y48839469D01*
X83847952Y48839464D01*
X83559924Y48583740D01*
X83557621Y48581695D01*
X83291743Y48294573D01*
X83055152Y47982876D01*
X82850107Y47649580D01*
X82678564Y47297865D01*
X82542162Y46931090D01*
X82442201Y46552754D01*
X82379637Y46166469D01*
X82355065Y45775923D01*
X9082590Y45775923D01*
X9066209Y46110851D01*
X9009044Y46497972D01*
X8914376Y46877666D01*
X8783107Y47246311D01*
X8616492Y47600386D01*
X8587167Y47649580D01*
X8417700Y47933862D01*
X8416120Y47936513D01*
X8183905Y48251483D01*
X7922061Y48542289D01*
X7633090Y48806156D01*
X7319749Y49040565D01*
X7266075Y49073071D01*
X6987658Y49241687D01*
X6987649Y49241692D01*
X6985030Y49243278D01*
X6632126Y49412362D01*
X6629237Y49413414D01*
X6629231Y49413416D01*
X6267306Y49545145D01*
X6267303Y49545146D01*
X6264407Y49546200D01*
X5987326Y49617342D01*
X5888366Y49642751D01*
X5888363Y49642752D01*
X5885382Y49643517D01*
X5498670Y49703383D01*
X5495613Y49703554D01*
X5495612Y49703554D01*
X5465120Y49705259D01*
X5107962Y49725227D01*
X5104883Y49725098D01*
X5104880Y49725098D01*
X4848770Y49714364D01*
X4716987Y49708841D01*
X4713943Y49708413D01*
X4713941Y49708413D01*
X4679368Y49703554D01*
X4329477Y49654380D01*
X3949131Y49562364D01*
X3579579Y49433673D01*
X3576781Y49432380D01*
X3227146Y49270826D01*
X3227136Y49270821D01*
X3224349Y49269533D01*
X3115829Y49205865D01*
X2889486Y49073071D01*
X2889481Y49073068D01*
X2886831Y49071513D01*
X2846433Y49042162D01*
X2572730Y48843306D01*
X2572721Y48843299D01*
X2570248Y48841502D01*
X2567958Y48839469D01*
X2567952Y48839464D01*
X2279924Y48583740D01*
X2277621Y48581695D01*
X2011743Y48294573D01*
X1775152Y47982876D01*
X1570107Y47649580D01*
X1398564Y47297865D01*
X1262162Y46931090D01*
X1162201Y46552754D01*
X1099637Y46166469D01*
X1075065Y45775923D01*
X754500Y45775923D01*
X754500Y49919500D01*
X774502Y49987621D01*
X828158Y50034114D01*
X880500Y50045500D01*
X90559500Y50045500D01*
X90627621Y50025498D01*
G37*
%TD.AperFunction*%
%TD*%
M02*
