%TF.GenerationSoftware,KiCad,Pcbnew,6.0.4-6f826c9f35~116~ubuntu20.04.1*%
%TF.CreationDate,2022-07-18T09:26:53+00:00*%
%TF.ProjectId,UST1BATTD01A,55535431-4241-4545-9444-3031412e6b69,rev?*%
%TF.SameCoordinates,PX463f660PY87a6900*%
%TF.FileFunction,Legend,Bot*%
%TF.FilePolarity,Positive*%
%FSLAX46Y46*%
G04 Gerber Fmt 4.6, Leading zero omitted, Abs format (unit mm)*
G04 Created by KiCad (PCBNEW 6.0.4-6f826c9f35~116~ubuntu20.04.1) date 2022-07-18 09:26:53*
%MOMM*%
%LPD*%
G01*
G04 APERTURE LIST*
%ADD10C,0.150000*%
%ADD11C,0.120000*%
G04 APERTURE END LIST*
D10*
%TO.C,J3*%
X82552380Y24082334D02*
X83266666Y24082334D01*
X83409523Y24129953D01*
X83504761Y24225191D01*
X83552380Y24368048D01*
X83552380Y24463286D01*
X82552380Y23701381D02*
X82552380Y23082334D01*
X82933333Y23415667D01*
X82933333Y23272810D01*
X82980952Y23177572D01*
X83028571Y23129953D01*
X83123809Y23082334D01*
X83361904Y23082334D01*
X83457142Y23129953D01*
X83504761Y23177572D01*
X83552380Y23272810D01*
X83552380Y23558524D01*
X83504761Y23653762D01*
X83457142Y23701381D01*
%TO.C,J2*%
X82552380Y15065334D02*
X83266666Y15065334D01*
X83409523Y15112953D01*
X83504761Y15208191D01*
X83552380Y15351048D01*
X83552380Y15446286D01*
X82647619Y14636762D02*
X82600000Y14589143D01*
X82552380Y14493905D01*
X82552380Y14255810D01*
X82600000Y14160572D01*
X82647619Y14112953D01*
X82742857Y14065334D01*
X82838095Y14065334D01*
X82980952Y14112953D01*
X83552380Y14684381D01*
X83552380Y14065334D01*
%TO.C,F1*%
X81971571Y33607334D02*
X81971571Y33940667D01*
X82495380Y33940667D02*
X81495380Y33940667D01*
X81495380Y33464477D01*
X82495380Y32559715D02*
X82495380Y33131143D01*
X82495380Y32845429D02*
X81495380Y32845429D01*
X81638238Y32940667D01*
X81733476Y33035905D01*
X81781095Y33131143D01*
%TO.C,D1*%
X90963380Y34139096D02*
X89963380Y34139096D01*
X89963380Y33901000D01*
X90011000Y33758143D01*
X90106238Y33662905D01*
X90201476Y33615286D01*
X90391952Y33567667D01*
X90534809Y33567667D01*
X90725285Y33615286D01*
X90820523Y33662905D01*
X90915761Y33758143D01*
X90963380Y33901000D01*
X90963380Y34139096D01*
X90963380Y32615286D02*
X90963380Y33186715D01*
X90963380Y32901000D02*
X89963380Y32901000D01*
X90106238Y32996239D01*
X90201476Y33091477D01*
X90249095Y33186715D01*
D11*
%TO.C,J3*%
X85290000Y27359000D02*
X85290000Y25559000D01*
X86740000Y27359000D02*
X85290000Y27359000D01*
X85290000Y25559000D02*
X84300000Y25559000D01*
X85290000Y20139000D02*
X85290000Y21939000D01*
X86740000Y20139000D02*
X85290000Y20139000D01*
X89560000Y26089000D02*
X89560000Y21409000D01*
%TO.C,J2*%
X85290000Y18342000D02*
X85290000Y16542000D01*
X85290000Y11122000D02*
X85290000Y12922000D01*
X86740000Y11122000D02*
X85290000Y11122000D01*
X86740000Y18342000D02*
X85290000Y18342000D01*
X85290000Y16542000D02*
X84300000Y16542000D01*
X89560000Y17072000D02*
X89560000Y12392000D01*
%TO.C,F1*%
X82983000Y33535252D02*
X82983000Y33012748D01*
X84403000Y33535252D02*
X84403000Y33012748D01*
%TO.C,D1*%
X86361000Y29001000D02*
X86361000Y35901000D01*
X89661000Y29001000D02*
X86361000Y29001000D01*
X89661000Y29001000D02*
X89661000Y35901000D01*
%TD*%
M02*
