  0
SECTION
  2
HEADER
  9
$ANGBASE
  50
0.0
  9
$ANGDIR
  70
1
  9
$MEASUREMENT
  70
0
  0
ENDSEC
  0
SECTION
  2
TABLES
  0
TABLE
  2
LTYPE
  70
4
  0
LTYPE
  5
40F
  2
CONTINUOUS
  70
0
  3
Solid line
  72
65
  73
0
  40
0.0
  0
LTYPE
  5
410
  2
DASHDOT
 70
0
  3
Dash Dot ____ _ ____ _
 72
65
 73
4
 40
2.0
 49
1.25
 49
-0.25
 49
0.25
 49
-0.25
  0
LTYPE
  5
411
  2
DASHED
 70
0
  3
Dashed __ __ __ __ __
 72
65
 73
2
 40
0.75
 49
0.5
 49
-0.25
  0
LTYPE
  5
43B
  2
DOTTED
 70
0
  3
Dotted .  .  .  .
 72
65
 73
2
 40
0.2
 49
0.0
 49
-0.2
  0
ENDTAB
  0
TABLE
  2
STYLE
  70
4
  0
STYLE
  2
KICAD
  70
0
  40
0
  41
1
  42
1
  50
0
  71
0
  3
isocp.shx
  0
STYLE
  2
KICADB
  70
0
  40
0
  41
1
  42
1
  50
0
  71
0
  3
isocp.shx
  0
STYLE
  2
KICADI
  70
0
  40
0
  41
1
  42
1
  50
15
  71
0
  3
isocp.shx
  0
STYLE
  2
KICADBI
  70
0
  40
0
  41
1
  42
1
  50
15
  71
0
  3
isocp.shx
  0
ENDTAB
  0
TABLE
  2
LAYER
  70
1
  0
LAYER
  2
BLACK
  70
0
  62
7
  6
CONTINUOUS
  0
ENDTAB
  0
ENDSEC
  0
SECTION
  2
ENTITIES
0
LINE
8
BLACK
6
CONTINUOUS
10
3.35954
20
0.51041
11
3.36024
21
0.50874
0
LINE
8
BLACK
6
CONTINUOUS
10
3.36024
20
0.50874
11
3.36024
21
0.440236
0
LINE
8
BLACK
6
CONTINUOUS
10
3.36024
20
0.440236
11
3.41496
21
0.440236
0
LINE
8
BLACK
6
CONTINUOUS
10
3.41496
20
0.440236
11
3.41663
21
0.439544
0
LINE
8
BLACK
6
CONTINUOUS
10
3.41663
20
0.439544
11
3.41732
21
0.437874
0
LINE
8
BLACK
6
CONTINUOUS
10
3.41732
20
0.437874
11
3.41663
21
0.436204
0
LINE
8
BLACK
6
CONTINUOUS
10
3.41663
20
0.436204
11
3.41496
21
0.435512
0
LINE
8
BLACK
6
CONTINUOUS
10
3.41496
20
0.435512
11
3.35787
21
0.435512
0
LINE
8
BLACK
6
CONTINUOUS
10
3.35787
20
0.435512
11
3.3562
21
0.436204
0
LINE
8
BLACK
6
CONTINUOUS
10
3.3562
20
0.436204
11
3.35551
21
0.437874
0
LINE
8
BLACK
6
CONTINUOUS
10
3.35551
20
0.437874
11
3.35551
21
0.50874
0
LINE
8
BLACK
6
CONTINUOUS
10
3.35551
20
0.50874
11
3.3562
21
0.51041
0
LINE
8
BLACK
6
CONTINUOUS
10
3.3562
20
0.51041
11
3.35787
21
0.511102
0
LINE
8
BLACK
6
CONTINUOUS
10
3.35787
20
0.511102
11
3.35954
21
0.51041
0
LINE
8
BLACK
6
CONTINUOUS
10
3.52765
20
0.673796
11
3.52835
21
0.672126
0
LINE
8
BLACK
6
CONTINUOUS
10
3.52835
20
0.672126
11
3.52835
21
0.487874
0
LINE
8
BLACK
6
CONTINUOUS
10
3.52835
20
0.487874
11
3.52765
21
0.486204
0
LINE
8
BLACK
6
CONTINUOUS
10
3.52765
20
0.486204
11
3.52598
21
0.485512
0
LINE
8
BLACK
6
CONTINUOUS
10
3.52598
20
0.485512
11
3.52431
21
0.486204
0
LINE
8
BLACK
6
CONTINUOUS
10
3.52431
20
0.486204
11
3.52362
21
0.487874
0
LINE
8
BLACK
6
CONTINUOUS
10
3.52362
20
0.487874
11
3.52362
21
0.672126
0
LINE
8
BLACK
6
CONTINUOUS
10
3.52362
20
0.672126
11
3.52431
21
0.673796
0
LINE
8
BLACK
6
CONTINUOUS
10
3.52431
20
0.673796
11
3.52598
21
0.674488
0
LINE
8
BLACK
6
CONTINUOUS
10
3.52598
20
0.674488
11
3.52765
21
0.673796
0
LINE
8
BLACK
6
CONTINUOUS
10
3.29009
20
0.580966
11
3.29023
21
0.580977
0
LINE
8
BLACK
6
CONTINUOUS
10
3.29023
20
0.580977
11
3.29096
21
0.580468
0
LINE
8
BLACK
6
CONTINUOUS
10
3.29096
20
0.580468
11
3.29173
21
0.580023
0
LINE
8
BLACK
6
CONTINUOUS
10
3.29173
20
0.580023
11
3.29177
21
0.579896
0
LINE
8
BLACK
6
CONTINUOUS
10
3.29177
20
0.579896
11
3.29188
21
0.579819
0
LINE
8
BLACK
6
CONTINUOUS
10
3.29188
20
0.579819
11
3.29211
21
0.57896
0
LINE
8
BLACK
6
CONTINUOUS
10
3.29211
20
0.57896
11
3.29242
21
0.578125
0
LINE
8
BLACK
6
CONTINUOUS
10
3.29242
20
0.578125
11
3.29242
21
0.553753
0
LINE
8
BLACK
6
CONTINUOUS
10
3.29242
20
0.553753
11
3.29224
21
0.552743
0
LINE
8
BLACK
6
CONTINUOUS
10
3.29224
20
0.552743
11
3.29094
21
0.551196
0
LINE
8
BLACK
6
CONTINUOUS
10
3.29094
20
0.551196
11
3.28895
21
0.550845
0
LINE
8
BLACK
6
CONTINUOUS
10
3.28895
20
0.550845
11
3.2872
21
0.551855
0
LINE
8
BLACK
6
CONTINUOUS
10
3.2872
20
0.551855
11
3.28651
21
0.553753
0
LINE
8
BLACK
6
CONTINUOUS
10
3.28651
20
0.553753
11
3.28651
21
0.570997
0
LINE
8
BLACK
6
CONTINUOUS
10
3.28651
20
0.570997
11
3.26905
21
0.55354
0
LINE
8
BLACK
6
CONTINUOUS
10
3.26905
20
0.55354
11
3.26821
21
0.552952
0
LINE
8
BLACK
6
CONTINUOUS
10
3.26821
20
0.552952
11
3.26804
21
0.552937
0
LINE
8
BLACK
6
CONTINUOUS
10
3.26804
20
0.552937
11
3.2679
21
0.552827
0
LINE
8
BLACK
6
CONTINUOUS
10
3.2679
20
0.552827
11
3.26228
21
0.550952
0
LINE
8
BLACK
6
CONTINUOUS
10
3.26228
20
0.550952
11
3.2614
21
0.550823
0
LINE
8
BLACK
6
CONTINUOUS
10
3.2614
20
0.550823
11
3.26134
21
0.550801
0
LINE
8
BLACK
6
CONTINUOUS
10
3.26134
20
0.550801
11
3.25759
21
0.550801
0
LINE
8
BLACK
6
CONTINUOUS
10
3.25759
20
0.550801
11
3.25658
21
0.550979
0
LINE
8
BLACK
6
CONTINUOUS
10
3.25658
20
0.550979
11
3.25645
21
0.551092
0
LINE
8
BLACK
6
CONTINUOUS
10
3.25645
20
0.551092
11
3.25627
21
0.551112
0
LINE
8
BLACK
6
CONTINUOUS
10
3.25627
20
0.551112
11
3.25252
21
0.552987
0
LINE
8
BLACK
6
CONTINUOUS
10
3.25252
20
0.552987
11
3.25181
21
0.553513
0
LINE
8
BLACK
6
CONTINUOUS
10
3.25181
20
0.553513
11
3.25176
21
0.55354
0
LINE
8
BLACK
6
CONTINUOUS
10
3.25176
20
0.55354
11
3.24988
21
0.555415
0
LINE
8
BLACK
6
CONTINUOUS
10
3.24988
20
0.555415
11
3.24937
21
0.556138
0
LINE
8
BLACK
6
CONTINUOUS
10
3.24937
20
0.556138
11
3.24933
21
0.556182
0
LINE
8
BLACK
6
CONTINUOUS
10
3.24933
20
0.556182
11
3.24745
21
0.559932
0
LINE
8
BLACK
6
CONTINUOUS
10
3.24745
20
0.559932
11
3.24716
21
0.560915
0
LINE
8
BLACK
6
CONTINUOUS
10
3.24716
20
0.560915
11
3.2472
21
0.561086
0
LINE
8
BLACK
6
CONTINUOUS
10
3.2472
20
0.561086
11
3.24714
21
0.561252
0
LINE
8
BLACK
6
CONTINUOUS
10
3.24714
20
0.561252
11
3.24714
21
0.570626
0
LINE
8
BLACK
6
CONTINUOUS
10
3.24714
20
0.570626
11
3.24732
21
0.571636
0
LINE
8
BLACK
6
CONTINUOUS
10
3.24732
20
0.571636
11
3.24743
21
0.571771
0
LINE
8
BLACK
6
CONTINUOUS
10
3.24743
20
0.571771
11
3.24745
21
0.571947
0
LINE
8
BLACK
6
CONTINUOUS
10
3.24745
20
0.571947
11
3.24933
21
0.575696
0
LINE
8
BLACK
6
CONTINUOUS
10
3.24933
20
0.575696
11
3.24985
21
0.576405
0
LINE
8
BLACK
6
CONTINUOUS
10
3.24985
20
0.576405
11
3.24988
21
0.576464
0
LINE
8
BLACK
6
CONTINUOUS
10
3.24988
20
0.576464
11
3.25176
21
0.578338
0
LINE
8
BLACK
6
CONTINUOUS
10
3.25176
20
0.578338
11
3.2526
21
0.578927
0
LINE
8
BLACK
6
CONTINUOUS
10
3.2526
20
0.578927
11
3.25461
21
0.579103
0
LINE
8
BLACK
6
CONTINUOUS
10
3.25461
20
0.579103
11
3.25626
21
0.577944
0
LINE
8
BLACK
6
CONTINUOUS
10
3.25626
20
0.577944
11
3.25678
21
0.575993
0
LINE
8
BLACK
6
CONTINUOUS
10
3.25678
20
0.575993
11
3.25593
21
0.574163
0
LINE
8
BLACK
6
CONTINUOUS
10
3.25593
20
0.574163
11
3.2544
21
0.572627
0
LINE
8
BLACK
6
CONTINUOUS
10
3.2544
20
0.572627
11
3.25305
21
0.569929
0
LINE
8
BLACK
6
CONTINUOUS
10
3.25305
20
0.569929
11
3.25305
21
0.561949
0
LINE
8
BLACK
6
CONTINUOUS
10
3.25305
20
0.561949
11
3.2544
21
0.559252
0
LINE
8
BLACK
6
CONTINUOUS
10
3.2544
20
0.559252
11
3.25559
21
0.558055
0
LINE
8
BLACK
6
CONTINUOUS
10
3.25559
20
0.558055
11
3.25829
21
0.556706
0
LINE
8
BLACK
6
CONTINUOUS
10
3.25829
20
0.556706
11
3.26086
21
0.556706
0
LINE
8
BLACK
6
CONTINUOUS
10
3.26086
20
0.556706
11
3.26537
21
0.558209
0
LINE
8
BLACK
6
CONTINUOUS
10
3.26537
20
0.558209
11
3.28738
21
0.580213
0
LINE
8
BLACK
6
CONTINUOUS
10
3.28738
20
0.580213
11
3.2879
21
0.580583
0
LINE
8
BLACK
6
CONTINUOUS
10
3.2879
20
0.580583
11
3.28799
21
0.580682
0
LINE
8
BLACK
6
CONTINUOUS
10
3.28799
20
0.580682
11
3.28807
21
0.580696
0
LINE
8
BLACK
6
CONTINUOUS
10
3.28807
20
0.580696
11
3.28822
21
0.580801
0
LINE
8
BLACK
6
CONTINUOUS
10
3.28822
20
0.580801
11
3.2891
21
0.580879
0
LINE
8
BLACK
6
CONTINUOUS
10
3.2891
20
0.580879
11
3.28998
21
0.581033
0
LINE
8
BLACK
6
CONTINUOUS
10
3.28998
20
0.581033
11
3.29009
21
0.580966
0
LINE
8
BLACK
6
CONTINUOUS
10
3.29173
20
0.610019
11
3.29242
21
0.608121
0
LINE
8
BLACK
6
CONTINUOUS
10
3.29242
20
0.608121
11
3.29242
21
0.604372
0
LINE
8
BLACK
6
CONTINUOUS
10
3.29242
20
0.604372
11
3.29226
21
0.603503
0
LINE
8
BLACK
6
CONTINUOUS
10
3.29226
20
0.603503
11
3.29226
21
0.603438
0
LINE
8
BLACK
6
CONTINUOUS
10
3.29226
20
0.603438
11
3.29039
21
0.597814
0
LINE
8
BLACK
6
CONTINUOUS
10
3.29039
20
0.597814
11
3.2899
21
0.596912
0
LINE
8
BLACK
6
CONTINUOUS
10
3.2899
20
0.596912
11
3.28975
21
0.59682
0
LINE
8
BLACK
6
CONTINUOUS
10
3.28975
20
0.59682
11
3.28968
21
0.59666
0
LINE
8
BLACK
6
CONTINUOUS
10
3.28968
20
0.59666
11
3.28593
21
0.59291
0
LINE
8
BLACK
6
CONTINUOUS
10
3.28593
20
0.59291
11
3.28509
21
0.592322
0
LINE
8
BLACK
6
CONTINUOUS
10
3.28509
20
0.592322
11
3.28491
21
0.592307
0
LINE
8
BLACK
6
CONTINUOUS
10
3.28491
20
0.592307
11
3.28477
21
0.592197
0
LINE
8
BLACK
6
CONTINUOUS
10
3.28477
20
0.592197
11
3.27915
21
0.590322
0
LINE
8
BLACK
6
CONTINUOUS
10
3.27915
20
0.590322
11
3.27828
21
0.590193
0
LINE
8
BLACK
6
CONTINUOUS
10
3.27828
20
0.590193
11
3.27822
21
0.590171
0
LINE
8
BLACK
6
CONTINUOUS
10
3.27822
20
0.590171
11
3.25009
21
0.590171
0
LINE
8
BLACK
6
CONTINUOUS
10
3.25009
20
0.590171
11
3.24908
21
0.590349
0
LINE
8
BLACK
6
CONTINUOUS
10
3.24908
20
0.590349
11
3.24754
21
0.591647
0
LINE
8
BLACK
6
CONTINUOUS
10
3.24754
20
0.591647
11
3.24719
21
0.593636
0
LINE
8
BLACK
6
CONTINUOUS
10
3.24719
20
0.593636
11
3.2482
21
0.595385
0
LINE
8
BLACK
6
CONTINUOUS
10
3.2482
20
0.595385
11
3.25009
21
0.596076
0
LINE
8
BLACK
6
CONTINUOUS
10
3.25009
20
0.596076
11
3.27774
21
0.596076
0
LINE
8
BLACK
6
CONTINUOUS
10
3.27774
20
0.596076
11
3.28224
21
0.597579
0
LINE
8
BLACK
6
CONTINUOUS
10
3.28224
20
0.597579
11
3.28501
21
0.600343
0
LINE
8
BLACK
6
CONTINUOUS
10
3.28501
20
0.600343
11
3.28651
21
0.604851
0
LINE
8
BLACK
6
CONTINUOUS
10
3.28651
20
0.604851
11
3.28651
21
0.608121
0
LINE
8
BLACK
6
CONTINUOUS
10
3.28651
20
0.608121
11
3.28669
21
0.609131
0
LINE
8
BLACK
6
CONTINUOUS
10
3.28669
20
0.609131
11
3.28799
21
0.610679
0
LINE
8
BLACK
6
CONTINUOUS
10
3.28799
20
0.610679
11
3.28998
21
0.611029
0
LINE
8
BLACK
6
CONTINUOUS
10
3.28998
20
0.611029
11
3.29173
21
0.610019
0
LINE
8
BLACK
6
CONTINUOUS
10
3.31723
20
0.64959
11
3.31654
21
0.65126
0
LINE
8
BLACK
6
CONTINUOUS
10
3.31654
20
0.65126
11
3.31723
21
0.65293
0
LINE
8
BLACK
6
CONTINUOUS
10
3.31723
20
0.65293
11
3.3189
21
0.653622
0
LINE
8
BLACK
6
CONTINUOUS
10
3.3189
20
0.653622
11
3.35551
21
0.653622
0
LINE
8
BLACK
6
CONTINUOUS
10
3.35551
20
0.653622
11
3.35551
21
0.722126
0
LINE
8
BLACK
6
CONTINUOUS
10
3.35551
20
0.722126
11
3.3562
21
0.723796
0
LINE
8
BLACK
6
CONTINUOUS
10
3.3562
20
0.723796
11
3.35787
21
0.724488
0
LINE
8
BLACK
6
CONTINUOUS
10
3.35787
20
0.724488
11
3.41496
21
0.724488
0
LINE
8
BLACK
6
CONTINUOUS
10
3.41496
20
0.724488
11
3.41663
21
0.723796
0
LINE
8
BLACK
6
CONTINUOUS
10
3.41663
20
0.723796
11
3.41732
21
0.722126
0
LINE
8
BLACK
6
CONTINUOUS
10
3.41732
20
0.722126
11
3.41663
21
0.720456
0
LINE
8
BLACK
6
CONTINUOUS
10
3.41663
20
0.720456
11
3.41496
21
0.719764
0
LINE
8
BLACK
6
CONTINUOUS
10
3.41496
20
0.719764
11
3.36024
21
0.719764
0
LINE
8
BLACK
6
CONTINUOUS
10
3.36024
20
0.719764
11
3.36024
21
0.65126
0
LINE
8
BLACK
6
CONTINUOUS
10
3.36024
20
0.65126
11
3.35954
21
0.64959
0
LINE
8
BLACK
6
CONTINUOUS
10
3.35954
20
0.64959
11
3.35787
21
0.648898
0
LINE
8
BLACK
6
CONTINUOUS
10
3.35787
20
0.648898
11
3.3189
21
0.648898
0
LINE
8
BLACK
6
CONTINUOUS
10
3.3189
20
0.648898
11
3.31723
21
0.64959
0
LINE
8
BLACK
6
CONTINUOUS
10
3.35954
20
0.86541
11
3.36024
21
0.86374
0
LINE
8
BLACK
6
CONTINUOUS
10
3.36024
20
0.86374
11
3.36024
21
0.795236
0
LINE
8
BLACK
6
CONTINUOUS
10
3.36024
20
0.795236
11
3.41496
21
0.795236
0
LINE
8
BLACK
6
CONTINUOUS
10
3.41496
20
0.795236
11
3.41663
21
0.794544
0
LINE
8
BLACK
6
CONTINUOUS
10
3.41663
20
0.794544
11
3.41732
21
0.792874
0
LINE
8
BLACK
6
CONTINUOUS
10
3.41732
20
0.792874
11
3.41663
21
0.791204
0
LINE
8
BLACK
6
CONTINUOUS
10
3.41663
20
0.791204
11
3.41496
21
0.790512
0
LINE
8
BLACK
6
CONTINUOUS
10
3.41496
20
0.790512
11
3.35787
21
0.790512
0
LINE
8
BLACK
6
CONTINUOUS
10
3.35787
20
0.790512
11
3.3562
21
0.791204
0
LINE
8
BLACK
6
CONTINUOUS
10
3.3562
20
0.791204
11
3.35551
21
0.792874
0
LINE
8
BLACK
6
CONTINUOUS
10
3.35551
20
0.792874
11
3.35551
21
0.86374
0
LINE
8
BLACK
6
CONTINUOUS
10
3.35551
20
0.86374
11
3.3562
21
0.86541
0
LINE
8
BLACK
6
CONTINUOUS
10
3.3562
20
0.86541
11
3.35787
21
0.866102
0
LINE
8
BLACK
6
CONTINUOUS
10
3.35787
20
0.866102
11
3.35954
21
0.86541
0
LINE
8
BLACK
6
CONTINUOUS
10
3.52765
20
1.0288
11
3.52835
21
1.02713
0
LINE
8
BLACK
6
CONTINUOUS
10
3.52835
20
1.02713
11
3.52835
21
0.842874
0
LINE
8
BLACK
6
CONTINUOUS
10
3.52835
20
0.842874
11
3.52765
21
0.841204
0
LINE
8
BLACK
6
CONTINUOUS
10
3.52765
20
0.841204
11
3.52598
21
0.840512
0
LINE
8
BLACK
6
CONTINUOUS
10
3.52598
20
0.840512
11
3.52431
21
0.841204
0
LINE
8
BLACK
6
CONTINUOUS
10
3.52431
20
0.841204
11
3.52362
21
0.842874
0
LINE
8
BLACK
6
CONTINUOUS
10
3.52362
20
0.842874
11
3.52362
21
1.02713
0
LINE
8
BLACK
6
CONTINUOUS
10
3.52362
20
1.02713
11
3.52431
21
1.0288
0
LINE
8
BLACK
6
CONTINUOUS
10
3.52431
20
1.0288
11
3.52598
21
1.02949
0
LINE
8
BLACK
6
CONTINUOUS
10
3.52598
20
1.02949
11
3.52765
21
1.0288
0
LINE
8
BLACK
6
CONTINUOUS
10
3.2878
20
0.935213
11
3.28968
21
0.933338
0
LINE
8
BLACK
6
CONTINUOUS
10
3.28968
20
0.933338
11
3.29018
21
0.932615
0
LINE
8
BLACK
6
CONTINUOUS
10
3.29018
20
0.932615
11
3.29023
21
0.932571
0
LINE
8
BLACK
6
CONTINUOUS
10
3.29023
20
0.932571
11
3.2921
21
0.928821
0
LINE
8
BLACK
6
CONTINUOUS
10
3.2921
20
0.928821
11
3.2924
21
0.927839
0
LINE
8
BLACK
6
CONTINUOUS
10
3.2924
20
0.927839
11
3.29236
21
0.927667
0
LINE
8
BLACK
6
CONTINUOUS
10
3.29236
20
0.927667
11
3.29242
21
0.927501
0
LINE
8
BLACK
6
CONTINUOUS
10
3.29242
20
0.927501
11
3.29242
21
0.916252
0
LINE
8
BLACK
6
CONTINUOUS
10
3.29242
20
0.916252
11
3.29224
21
0.915242
0
LINE
8
BLACK
6
CONTINUOUS
10
3.29224
20
0.915242
11
3.29212
21
0.915107
0
LINE
8
BLACK
6
CONTINUOUS
10
3.29212
20
0.915107
11
3.2921
21
0.914932
0
LINE
8
BLACK
6
CONTINUOUS
10
3.2921
20
0.914932
11
3.29023
21
0.911182
0
LINE
8
BLACK
6
CONTINUOUS
10
3.29023
20
0.911182
11
3.2897
21
0.910473
0
LINE
8
BLACK
6
CONTINUOUS
10
3.2897
20
0.910473
11
3.28968
21
0.910415
0
LINE
8
BLACK
6
CONTINUOUS
10
3.28968
20
0.910415
11
3.2878
21
0.90854
0
LINE
8
BLACK
6
CONTINUOUS
10
3.2878
20
0.90854
11
3.28708
21
0.908034
0
LINE
8
BLACK
6
CONTINUOUS
10
3.28708
20
0.908034
11
3.28703
21
0.907987
0
LINE
8
BLACK
6
CONTINUOUS
10
3.28703
20
0.907987
11
3.28329
21
0.906112
0
LINE
8
BLACK
6
CONTINUOUS
10
3.28329
20
0.906112
11
3.2823
21
0.90582
0
LINE
8
BLACK
6
CONTINUOUS
10
3.2823
20
0.90582
11
3.28213
21
0.905861
0
LINE
8
BLACK
6
CONTINUOUS
10
3.28213
20
0.905861
11
3.28196
21
0.905801
0
LINE
8
BLACK
6
CONTINUOUS
10
3.28196
20
0.905801
11
3.27259
21
0.905801
0
LINE
8
BLACK
6
CONTINUOUS
10
3.27259
20
0.905801
11
3.27158
21
0.905979
0
LINE
8
BLACK
6
CONTINUOUS
10
3.27158
20
0.905979
11
3.27145
21
0.906092
0
LINE
8
BLACK
6
CONTINUOUS
10
3.27145
20
0.906092
11
3.27127
21
0.906112
0
LINE
8
BLACK
6
CONTINUOUS
10
3.27127
20
0.906112
11
3.26752
21
0.907987
0
LINE
8
BLACK
6
CONTINUOUS
10
3.26752
20
0.907987
11
3.26681
21
0.908513
0
LINE
8
BLACK
6
CONTINUOUS
10
3.26681
20
0.908513
11
3.26675
21
0.90854
0
LINE
8
BLACK
6
CONTINUOUS
10
3.26675
20
0.90854
11
3.26488
21
0.910415
0
LINE
8
BLACK
6
CONTINUOUS
10
3.26488
20
0.910415
11
3.26437
21
0.911138
0
LINE
8
BLACK
6
CONTINUOUS
10
3.26437
20
0.911138
11
3.26433
21
0.911182
0
LINE
8
BLACK
6
CONTINUOUS
10
3.26433
20
0.911182
11
3.26245
21
0.914932
0
LINE
8
BLACK
6
CONTINUOUS
10
3.26245
20
0.914932
11
3.26228
21
0.915496
0
LINE
8
BLACK
6
CONTINUOUS
10
3.26228
20
0.915496
11
3.25204
21
0.906531
0
LINE
8
BLACK
6
CONTINUOUS
10
3.25204
20
0.906531
11
3.25166
21
0.906301
0
LINE
8
BLACK
6
CONTINUOUS
10
3.25166
20
0.906301
11
3.25157
21
0.906196
0
LINE
8
BLACK
6
CONTINUOUS
10
3.25157
20
0.906196
11
3.25145
21
0.906175
0
LINE
8
BLACK
6
CONTINUOUS
10
3.25145
20
0.906175
11
3.25116
21
0.906
0
LINE
8
BLACK
6
CONTINUOUS
10
3.25116
20
0.906
11
3.25036
21
0.905984
0
LINE
8
BLACK
6
CONTINUOUS
10
3.25036
20
0.905984
11
3.24958
21
0.905845
0
LINE
8
BLACK
6
CONTINUOUS
10
3.24958
20
0.905845
11
3.24938
21
0.905963
0
LINE
8
BLACK
6
CONTINUOUS
10
3.24938
20
0.905963
11
3.24914
21
0.905958
0
LINE
8
BLACK
6
CONTINUOUS
10
3.24914
20
0.905958
11
3.24852
21
0.906457
0
LINE
8
BLACK
6
CONTINUOUS
10
3.24852
20
0.906457
11
3.24783
21
0.906855
0
LINE
8
BLACK
6
CONTINUOUS
10
3.24783
20
0.906855
11
3.24775
21
0.907077
0
LINE
8
BLACK
6
CONTINUOUS
10
3.24775
20
0.907077
11
3.24757
21
0.907224
0
LINE
8
BLACK
6
CONTINUOUS
10
3.24757
20
0.907224
11
3.24741
21
0.908005
0
LINE
8
BLACK
6
CONTINUOUS
10
3.24741
20
0.908005
11
3.24714
21
0.908753
0
LINE
8
BLACK
6
CONTINUOUS
10
3.24714
20
0.908753
11
3.24714
21
0.933125
0
LINE
8
BLACK
6
CONTINUOUS
10
3.24714
20
0.933125
11
3.24732
21
0.934135
0
LINE
8
BLACK
6
CONTINUOUS
10
3.24732
20
0.934135
11
3.24862
21
0.935682
0
LINE
8
BLACK
6
CONTINUOUS
10
3.24862
20
0.935682
11
3.25061
21
0.936033
0
LINE
8
BLACK
6
CONTINUOUS
10
3.25061
20
0.936033
11
3.25236
21
0.935023
0
LINE
8
BLACK
6
CONTINUOUS
10
3.25236
20
0.935023
11
3.25305
21
0.933125
0
LINE
8
BLACK
6
CONTINUOUS
10
3.25305
20
0.933125
11
3.25305
21
0.915261
0
LINE
8
BLACK
6
CONTINUOUS
10
3.25305
20
0.915261
11
3.26315
21
0.924099
0
LINE
8
BLACK
6
CONTINUOUS
10
3.26315
20
0.924099
11
3.26353
21
0.924329
0
LINE
8
BLACK
6
CONTINUOUS
10
3.26353
20
0.924329
11
3.26362
21
0.924434
0
LINE
8
BLACK
6
CONTINUOUS
10
3.26362
20
0.924434
11
3.26374
21
0.924455
0
LINE
8
BLACK
6
CONTINUOUS
10
3.26374
20
0.924455
11
3.26402
21
0.92463
0
LINE
8
BLACK
6
CONTINUOUS
10
3.26402
20
0.92463
11
3.26482
21
0.924646
0
LINE
8
BLACK
6
CONTINUOUS
10
3.26482
20
0.924646
11
3.2656
21
0.924785
0
LINE
8
BLACK
6
CONTINUOUS
10
3.2656
20
0.924785
11
3.26581
21
0.924667
0
LINE
8
BLACK
6
CONTINUOUS
10
3.26581
20
0.924667
11
3.26604
21
0.924672
0
LINE
8
BLACK
6
CONTINUOUS
10
3.26604
20
0.924672
11
3.26666
21
0.924173
0
LINE
8
BLACK
6
CONTINUOUS
10
3.26666
20
0.924173
11
3.26735
21
0.923775
0
LINE
8
BLACK
6
CONTINUOUS
10
3.26735
20
0.923775
11
3.26743
21
0.923553
0
LINE
8
BLACK
6
CONTINUOUS
10
3.26743
20
0.923553
11
3.26762
21
0.923406
0
LINE
8
BLACK
6
CONTINUOUS
10
3.26762
20
0.923406
11
3.26777
21
0.922625
0
LINE
8
BLACK
6
CONTINUOUS
10
3.26777
20
0.922625
11
3.26804
21
0.921877
0
LINE
8
BLACK
6
CONTINUOUS
10
3.26804
20
0.921877
11
3.26804
21
0.916949
0
LINE
8
BLACK
6
CONTINUOUS
10
3.26804
20
0.916949
11
3.26939
21
0.914252
0
LINE
8
BLACK
6
CONTINUOUS
10
3.26939
20
0.914252
11
3.27059
21
0.913055
0
LINE
8
BLACK
6
CONTINUOUS
10
3.27059
20
0.913055
11
3.27329
21
0.911706
0
LINE
8
BLACK
6
CONTINUOUS
10
3.27329
20
0.911706
11
3.28127
21
0.911706
0
LINE
8
BLACK
6
CONTINUOUS
10
3.28127
20
0.911706
11
3.28397
21
0.913055
0
LINE
8
BLACK
6
CONTINUOUS
10
3.28397
20
0.913055
11
3.28516
21
0.914252
0
LINE
8
BLACK
6
CONTINUOUS
10
3.28516
20
0.914252
11
3.28651
21
0.916949
0
LINE
8
BLACK
6
CONTINUOUS
10
3.28651
20
0.916949
11
3.28651
21
0.926804
0
LINE
8
BLACK
6
CONTINUOUS
10
3.28651
20
0.926804
11
3.28516
21
0.929501
0
LINE
8
BLACK
6
CONTINUOUS
10
3.28516
20
0.929501
11
3.28363
21
0.931037
0
LINE
8
BLACK
6
CONTINUOUS
10
3.28363
20
0.931037
11
3.28304
21
0.931877
0
LINE
8
BLACK
6
CONTINUOUS
10
3.28304
20
0.931877
11
3.28286
21
0.933889
0
LINE
8
BLACK
6
CONTINUOUS
10
3.28286
20
0.933889
11
3.28402
21
0.935544
0
LINE
8
BLACK
6
CONTINUOUS
10
3.28402
20
0.935544
11
3.28597
21
0.936067
0
LINE
8
BLACK
6
CONTINUOUS
10
3.28597
20
0.936067
11
3.2878
21
0.935213
0
LINE
8
BLACK
6
CONTINUOUS
10
3.29173
20
0.965019
11
3.29242
21
0.963121
0
LINE
8
BLACK
6
CONTINUOUS
10
3.29242
20
0.963121
11
3.29242
21
0.959372
0
LINE
8
BLACK
6
CONTINUOUS
10
3.29242
20
0.959372
11
3.29226
21
0.958503
0
LINE
8
BLACK
6
CONTINUOUS
10
3.29226
20
0.958503
11
3.29226
21
0.958438
0
LINE
8
BLACK
6
CONTINUOUS
10
3.29226
20
0.958438
11
3.29039
21
0.952814
0
LINE
8
BLACK
6
CONTINUOUS
10
3.29039
20
0.952814
11
3.2899
21
0.951912
0
LINE
8
BLACK
6
CONTINUOUS
10
3.2899
20
0.951912
11
3.28975
21
0.95182
0
LINE
8
BLACK
6
CONTINUOUS
10
3.28975
20
0.95182
11
3.28968
21
0.95166
0
LINE
8
BLACK
6
CONTINUOUS
10
3.28968
20
0.95166
11
3.28593
21
0.94791
0
LINE
8
BLACK
6
CONTINUOUS
10
3.28593
20
0.94791
11
3.28509
21
0.947322
0
LINE
8
BLACK
6
CONTINUOUS
10
3.28509
20
0.947322
11
3.28491
21
0.947307
0
LINE
8
BLACK
6
CONTINUOUS
10
3.28491
20
0.947307
11
3.28477
21
0.947197
0
LINE
8
BLACK
6
CONTINUOUS
10
3.28477
20
0.947197
11
3.27915
21
0.945322
0
LINE
8
BLACK
6
CONTINUOUS
10
3.27915
20
0.945322
11
3.27828
21
0.945193
0
LINE
8
BLACK
6
CONTINUOUS
10
3.27828
20
0.945193
11
3.27822
21
0.945171
0
LINE
8
BLACK
6
CONTINUOUS
10
3.27822
20
0.945171
11
3.25009
21
0.945171
0
LINE
8
BLACK
6
CONTINUOUS
10
3.25009
20
0.945171
11
3.24908
21
0.945349
0
LINE
8
BLACK
6
CONTINUOUS
10
3.24908
20
0.945349
11
3.24754
21
0.946647
0
LINE
8
BLACK
6
CONTINUOUS
10
3.24754
20
0.946647
11
3.24719
21
0.948636
0
LINE
8
BLACK
6
CONTINUOUS
10
3.24719
20
0.948636
11
3.2482
21
0.950385
0
LINE
8
BLACK
6
CONTINUOUS
10
3.2482
20
0.950385
11
3.25009
21
0.951076
0
LINE
8
BLACK
6
CONTINUOUS
10
3.25009
20
0.951076
11
3.27774
21
0.951076
0
LINE
8
BLACK
6
CONTINUOUS
10
3.27774
20
0.951076
11
3.28224
21
0.952579
0
LINE
8
BLACK
6
CONTINUOUS
10
3.28224
20
0.952579
11
3.28501
21
0.955343
0
LINE
8
BLACK
6
CONTINUOUS
10
3.28501
20
0.955343
11
3.28651
21
0.959851
0
LINE
8
BLACK
6
CONTINUOUS
10
3.28651
20
0.959851
11
3.28651
21
0.963121
0
LINE
8
BLACK
6
CONTINUOUS
10
3.28651
20
0.963121
11
3.28669
21
0.964131
0
LINE
8
BLACK
6
CONTINUOUS
10
3.28669
20
0.964131
11
3.28799
21
0.965679
0
LINE
8
BLACK
6
CONTINUOUS
10
3.28799
20
0.965679
11
3.28998
21
0.966029
0
LINE
8
BLACK
6
CONTINUOUS
10
3.28998
20
0.966029
11
3.29173
21
0.965019
0
LINE
8
BLACK
6
CONTINUOUS
10
3.31723
20
1.00459
11
3.31654
21
1.00626
0
LINE
8
BLACK
6
CONTINUOUS
10
3.31654
20
1.00626
11
3.31723
21
1.00793
0
LINE
8
BLACK
6
CONTINUOUS
10
3.31723
20
1.00793
11
3.3189
21
1.00862
0
LINE
8
BLACK
6
CONTINUOUS
10
3.3189
20
1.00862
11
3.35551
21
1.00862
0
LINE
8
BLACK
6
CONTINUOUS
10
3.35551
20
1.00862
11
3.35551
21
1.07713
0
LINE
8
BLACK
6
CONTINUOUS
10
3.35551
20
1.07713
11
3.3562
21
1.0788
0
LINE
8
BLACK
6
CONTINUOUS
10
3.3562
20
1.0788
11
3.35787
21
1.07949
0
LINE
8
BLACK
6
CONTINUOUS
10
3.35787
20
1.07949
11
3.41496
21
1.07949
0
LINE
8
BLACK
6
CONTINUOUS
10
3.41496
20
1.07949
11
3.41663
21
1.0788
0
LINE
8
BLACK
6
CONTINUOUS
10
3.41663
20
1.0788
11
3.41732
21
1.07713
0
LINE
8
BLACK
6
CONTINUOUS
10
3.41732
20
1.07713
11
3.41663
21
1.07546
0
LINE
8
BLACK
6
CONTINUOUS
10
3.41663
20
1.07546
11
3.41496
21
1.07476
0
LINE
8
BLACK
6
CONTINUOUS
10
3.41496
20
1.07476
11
3.36024
21
1.07476
0
LINE
8
BLACK
6
CONTINUOUS
10
3.36024
20
1.07476
11
3.36024
21
1.00626
0
LINE
8
BLACK
6
CONTINUOUS
10
3.36024
20
1.00626
11
3.35954
21
1.00459
0
LINE
8
BLACK
6
CONTINUOUS
10
3.35954
20
1.00459
11
3.35787
21
1.0039
0
LINE
8
BLACK
6
CONTINUOUS
10
3.35787
20
1.0039
11
3.3189
21
1.0039
0
LINE
8
BLACK
6
CONTINUOUS
10
3.3189
20
1.0039
11
3.31723
21
1.00459
0
LINE
8
BLACK
6
CONTINUOUS
10
3.39837
20
1.1401
11
3.39768
21
1.14177
0
LINE
8
BLACK
6
CONTINUOUS
10
3.39768
20
1.14177
11
3.39768
21
1.41343
0
LINE
8
BLACK
6
CONTINUOUS
10
3.39768
20
1.41343
11
3.39837
21
1.4151
0
LINE
8
BLACK
6
CONTINUOUS
10
3.39837
20
1.4151
11
3.40004
21
1.41579
0
LINE
8
BLACK
6
CONTINUOUS
10
3.40004
20
1.41579
11
3.40171
21
1.4151
0
LINE
8
BLACK
6
CONTINUOUS
10
3.40171
20
1.4151
11
3.4024
21
1.41343
0
LINE
8
BLACK
6
CONTINUOUS
10
3.4024
20
1.41343
11
3.4024
21
1.14413
0
LINE
8
BLACK
6
CONTINUOUS
10
3.4024
20
1.14413
11
3.5276
21
1.14413
0
LINE
8
BLACK
6
CONTINUOUS
10
3.5276
20
1.14413
11
3.5276
21
1.41343
0
LINE
8
BLACK
6
CONTINUOUS
10
3.5276
20
1.41343
11
3.52829
21
1.4151
0
LINE
8
BLACK
6
CONTINUOUS
10
3.52829
20
1.4151
11
3.52996
21
1.41579
0
LINE
8
BLACK
6
CONTINUOUS
10
3.52996
20
1.41579
11
3.53163
21
1.4151
0
LINE
8
BLACK
6
CONTINUOUS
10
3.53163
20
1.4151
11
3.53232
21
1.41343
0
LINE
8
BLACK
6
CONTINUOUS
10
3.53232
20
1.41343
11
3.53232
21
1.14177
0
LINE
8
BLACK
6
CONTINUOUS
10
3.53232
20
1.14177
11
3.53163
21
1.1401
0
LINE
8
BLACK
6
CONTINUOUS
10
3.53163
20
1.1401
11
3.52996
21
1.13941
0
LINE
8
BLACK
6
CONTINUOUS
10
3.52996
20
1.13941
11
3.40004
21
1.13941
0
LINE
8
BLACK
6
CONTINUOUS
10
3.40004
20
1.13941
11
3.39837
21
1.1401
0
LINE
8
BLACK
6
CONTINUOUS
10
3.22149
20
1.30675
11
3.2226
21
1.30506
0
LINE
8
BLACK
6
CONTINUOUS
10
3.2226
20
1.30506
11
3.22237
21
1.30306
0
LINE
8
BLACK
6
CONTINUOUS
10
3.22237
20
1.30306
11
3.22049
21
1.29931
0
LINE
8
BLACK
6
CONTINUOUS
10
3.22049
20
1.29931
11
3.21997
21
1.2986
0
LINE
8
BLACK
6
CONTINUOUS
10
3.21997
20
1.2986
11
3.21994
21
1.29854
0
LINE
8
BLACK
6
CONTINUOUS
10
3.21994
20
1.29854
11
3.21748
21
1.29608
0
LINE
8
BLACK
6
CONTINUOUS
10
3.21748
20
1.29608
11
3.2449
21
1.29608
0
LINE
8
BLACK
6
CONTINUOUS
10
3.2449
20
1.29608
11
3.2449
21
1.30438
0
LINE
8
BLACK
6
CONTINUOUS
10
3.2449
20
1.30438
11
3.24507
21
1.30539
0
LINE
8
BLACK
6
CONTINUOUS
10
3.24507
20
1.30539
11
3.24637
21
1.30693
0
LINE
8
BLACK
6
CONTINUOUS
10
3.24637
20
1.30693
11
3.24836
21
1.30728
0
LINE
8
BLACK
6
CONTINUOUS
10
3.24836
20
1.30728
11
3.25011
21
1.30627
0
LINE
8
BLACK
6
CONTINUOUS
10
3.25011
20
1.30627
11
3.2508
21
1.30438
0
LINE
8
BLACK
6
CONTINUOUS
10
3.2508
20
1.30438
11
3.2508
21
1.28188
0
LINE
8
BLACK
6
CONTINUOUS
10
3.2508
20
1.28188
11
3.25062
21
1.28087
0
LINE
8
BLACK
6
CONTINUOUS
10
3.25062
20
1.28087
11
3.24933
21
1.27932
0
LINE
8
BLACK
6
CONTINUOUS
10
3.24933
20
1.27932
11
3.24734
21
1.27897
0
LINE
8
BLACK
6
CONTINUOUS
10
3.24734
20
1.27897
11
3.24559
21
1.27998
0
LINE
8
BLACK
6
CONTINUOUS
10
3.24559
20
1.27998
11
3.2449
21
1.28188
0
LINE
8
BLACK
6
CONTINUOUS
10
3.2449
20
1.28188
11
3.2449
21
1.29017
0
LINE
8
BLACK
6
CONTINUOUS
10
3.2449
20
1.29017
11
3.20848
21
1.29017
0
LINE
8
BLACK
6
CONTINUOUS
10
3.20848
20
1.29017
11
3.20747
21
1.29035
0
LINE
8
BLACK
6
CONTINUOUS
10
3.20747
20
1.29035
11
3.20734
21
1.29046
0
LINE
8
BLACK
6
CONTINUOUS
10
3.20734
20
1.29046
11
3.20717
21
1.29048
0
LINE
8
BLACK
6
CONTINUOUS
10
3.20717
20
1.29048
11
3.20658
21
1.2911
0
LINE
8
BLACK
6
CONTINUOUS
10
3.20658
20
1.2911
11
3.20592
21
1.29165
0
LINE
8
BLACK
6
CONTINUOUS
10
3.20592
20
1.29165
11
3.20589
21
1.29182
0
LINE
8
BLACK
6
CONTINUOUS
10
3.20589
20
1.29182
11
3.20578
21
1.29194
0
LINE
8
BLACK
6
CONTINUOUS
10
3.20578
20
1.29194
11
3.20572
21
1.2928
0
LINE
8
BLACK
6
CONTINUOUS
10
3.20572
20
1.2928
11
3.20557
21
1.29364
0
LINE
8
BLACK
6
CONTINUOUS
10
3.20557
20
1.29364
11
3.20566
21
1.29379
0
LINE
8
BLACK
6
CONTINUOUS
10
3.20566
20
1.29379
11
3.20565
21
1.29396
0
LINE
8
BLACK
6
CONTINUOUS
10
3.20565
20
1.29396
11
3.20615
21
1.29465
0
LINE
8
BLACK
6
CONTINUOUS
10
3.20615
20
1.29465
11
3.20658
21
1.29539
0
LINE
8
BLACK
6
CONTINUOUS
10
3.20658
20
1.29539
11
3.20674
21
1.29545
0
LINE
8
BLACK
6
CONTINUOUS
10
3.20674
20
1.29545
11
3.20684
21
1.29558
0
LINE
8
BLACK
6
CONTINUOUS
10
3.20684
20
1.29558
11
3.21222
21
1.29917
0
LINE
8
BLACK
6
CONTINUOUS
10
3.21222
20
1.29917
11
3.21543
21
1.30238
0
LINE
8
BLACK
6
CONTINUOUS
10
3.21543
20
1.30238
11
3.21709
21
1.3057
0
LINE
8
BLACK
6
CONTINUOUS
10
3.21709
20
1.3057
11
3.2177
21
1.30652
0
LINE
8
BLACK
6
CONTINUOUS
10
3.2177
20
1.30652
11
3.21955
21
1.30732
0
LINE
8
BLACK
6
CONTINUOUS
10
3.21955
20
1.30732
11
3.22149
21
1.30675
0
LINE
8
BLACK
6
CONTINUOUS
10
3.55487
20
1.30894
11
3.55599
21
1.30725
0
LINE
8
BLACK
6
CONTINUOUS
10
3.55599
20
1.30725
11
3.55575
21
1.30524
0
LINE
8
BLACK
6
CONTINUOUS
10
3.55575
20
1.30524
11
3.55388
21
1.30149
0
LINE
8
BLACK
6
CONTINUOUS
10
3.55388
20
1.30149
11
3.55335
21
1.30078
0
LINE
8
BLACK
6
CONTINUOUS
10
3.55335
20
1.30078
11
3.55333
21
1.30073
0
LINE
8
BLACK
6
CONTINUOUS
10
3.55333
20
1.30073
11
3.55087
21
1.29827
0
LINE
8
BLACK
6
CONTINUOUS
10
3.55087
20
1.29827
11
3.57828
21
1.29827
0
LINE
8
BLACK
6
CONTINUOUS
10
3.57828
20
1.29827
11
3.57828
21
1.30656
0
LINE
8
BLACK
6
CONTINUOUS
10
3.57828
20
1.30656
11
3.57846
21
1.30757
0
LINE
8
BLACK
6
CONTINUOUS
10
3.57846
20
1.30757
11
3.57976
21
1.30912
0
LINE
8
BLACK
6
CONTINUOUS
10
3.57976
20
1.30912
11
3.58175
21
1.30947
0
LINE
8
BLACK
6
CONTINUOUS
10
3.58175
20
1.30947
11
3.5835
21
1.30846
0
LINE
8
BLACK
6
CONTINUOUS
10
3.5835
20
1.30846
11
3.58419
21
1.30656
0
LINE
8
BLACK
6
CONTINUOUS
10
3.58419
20
1.30656
11
3.58419
21
1.28407
0
LINE
8
BLACK
6
CONTINUOUS
10
3.58419
20
1.28407
11
3.58401
21
1.28306
0
LINE
8
BLACK
6
CONTINUOUS
10
3.58401
20
1.28306
11
3.58271
21
1.28151
0
LINE
8
BLACK
6
CONTINUOUS
10
3.58271
20
1.28151
11
3.58072
21
1.28116
0
LINE
8
BLACK
6
CONTINUOUS
10
3.58072
20
1.28116
11
3.57897
21
1.28217
0
LINE
8
BLACK
6
CONTINUOUS
10
3.57897
20
1.28217
11
3.57828
21
1.28407
0
LINE
8
BLACK
6
CONTINUOUS
10
3.57828
20
1.28407
11
3.57828
21
1.29236
0
LINE
8
BLACK
6
CONTINUOUS
10
3.57828
20
1.29236
11
3.54187
21
1.29236
0
LINE
8
BLACK
6
CONTINUOUS
10
3.54187
20
1.29236
11
3.54086
21
1.29254
0
LINE
8
BLACK
6
CONTINUOUS
10
3.54086
20
1.29254
11
3.54073
21
1.29265
0
LINE
8
BLACK
6
CONTINUOUS
10
3.54073
20
1.29265
11
3.54056
21
1.29267
0
LINE
8
BLACK
6
CONTINUOUS
10
3.54056
20
1.29267
11
3.53996
21
1.29329
0
LINE
8
BLACK
6
CONTINUOUS
10
3.53996
20
1.29329
11
3.53931
21
1.29384
0
LINE
8
BLACK
6
CONTINUOUS
10
3.53931
20
1.29384
11
3.53928
21
1.29401
0
LINE
8
BLACK
6
CONTINUOUS
10
3.53928
20
1.29401
11
3.53916
21
1.29413
0
LINE
8
BLACK
6
CONTINUOUS
10
3.53916
20
1.29413
11
3.53911
21
1.29498
0
LINE
8
BLACK
6
CONTINUOUS
10
3.53911
20
1.29498
11
3.53896
21
1.29583
0
LINE
8
BLACK
6
CONTINUOUS
10
3.53896
20
1.29583
11
3.53904
21
1.29597
0
LINE
8
BLACK
6
CONTINUOUS
10
3.53904
20
1.29597
11
3.53903
21
1.29614
0
LINE
8
BLACK
6
CONTINUOUS
10
3.53903
20
1.29614
11
3.53954
21
1.29683
0
LINE
8
BLACK
6
CONTINUOUS
10
3.53954
20
1.29683
11
3.53997
21
1.29758
0
LINE
8
BLACK
6
CONTINUOUS
10
3.53997
20
1.29758
11
3.54013
21
1.29763
0
LINE
8
BLACK
6
CONTINUOUS
10
3.54013
20
1.29763
11
3.54023
21
1.29777
0
LINE
8
BLACK
6
CONTINUOUS
10
3.54023
20
1.29777
11
3.54561
21
1.30136
0
LINE
8
BLACK
6
CONTINUOUS
10
3.54561
20
1.30136
11
3.54881
21
1.30456
0
LINE
8
BLACK
6
CONTINUOUS
10
3.54881
20
1.30456
11
3.55047
21
1.30788
0
LINE
8
BLACK
6
CONTINUOUS
10
3.55047
20
1.30788
11
3.55108
21
1.30871
0
LINE
8
BLACK
6
CONTINUOUS
10
3.55108
20
1.30871
11
3.55294
21
1.30951
0
LINE
8
BLACK
6
CONTINUOUS
10
3.55294
20
1.30951
11
3.55487
21
1.30894
0
LINE
8
BLACK
6
CONTINUOUS
10
3.32462
20
1.32196
11
3.32531
21
1.32029
0
LINE
8
BLACK
6
CONTINUOUS
10
3.32531
20
1.32029
11
3.32531
21
1.29971
0
LINE
8
BLACK
6
CONTINUOUS
10
3.32531
20
1.29971
11
3.32462
21
1.29804
0
LINE
8
BLACK
6
CONTINUOUS
10
3.32462
20
1.29804
11
3.32295
21
1.29735
0
LINE
8
BLACK
6
CONTINUOUS
10
3.32295
20
1.29735
11
3.32128
21
1.29804
0
LINE
8
BLACK
6
CONTINUOUS
10
3.32128
20
1.29804
11
3.32059
21
1.29971
0
LINE
8
BLACK
6
CONTINUOUS
10
3.32059
20
1.29971
11
3.32059
21
1.32029
0
LINE
8
BLACK
6
CONTINUOUS
10
3.32059
20
1.32029
11
3.32128
21
1.32196
0
LINE
8
BLACK
6
CONTINUOUS
10
3.32128
20
1.32196
11
3.32295
21
1.32265
0
LINE
8
BLACK
6
CONTINUOUS
10
3.32295
20
1.32265
11
3.32462
21
1.32196
0
LINE
8
BLACK
6
CONTINUOUS
10
3.26872
20
1.32196
11
3.26941
21
1.32029
0
LINE
8
BLACK
6
CONTINUOUS
10
3.26941
20
1.32029
11
3.26941
21
1.29971
0
LINE
8
BLACK
6
CONTINUOUS
10
3.26941
20
1.29971
11
3.26872
21
1.29804
0
LINE
8
BLACK
6
CONTINUOUS
10
3.26872
20
1.29804
11
3.26705
21
1.29735
0
LINE
8
BLACK
6
CONTINUOUS
10
3.26705
20
1.29735
11
3.26538
21
1.29804
0
LINE
8
BLACK
6
CONTINUOUS
10
3.26538
20
1.29804
11
3.26469
21
1.29971
0
LINE
8
BLACK
6
CONTINUOUS
10
3.26469
20
1.29971
11
3.26469
21
1.32029
0
LINE
8
BLACK
6
CONTINUOUS
10
3.26469
20
1.32029
11
3.26538
21
1.32196
0
LINE
8
BLACK
6
CONTINUOUS
10
3.26538
20
1.32196
11
3.26705
21
1.32265
0
LINE
8
BLACK
6
CONTINUOUS
10
3.26705
20
1.32265
11
3.26872
21
1.32196
0
LINE
8
BLACK
6
CONTINUOUS
10
3.24886
20
1.33902
11
3.25041
21
1.33772
0
LINE
8
BLACK
6
CONTINUOUS
10
3.25041
20
1.33772
11
3.25076
21
1.33573
0
LINE
8
BLACK
6
CONTINUOUS
10
3.25076
20
1.33573
11
3.24975
21
1.33398
0
LINE
8
BLACK
6
CONTINUOUS
10
3.24975
20
1.33398
11
3.24785
21
1.33329
0
LINE
8
BLACK
6
CONTINUOUS
10
3.24785
20
1.33329
11
3.23018
21
1.33329
0
LINE
8
BLACK
6
CONTINUOUS
10
3.23018
20
1.33329
11
3.23018
21
1.32312
0
LINE
8
BLACK
6
CONTINUOUS
10
3.23018
20
1.32312
11
3.23
21
1.32211
0
LINE
8
BLACK
6
CONTINUOUS
10
3.23
20
1.32211
11
3.2287
21
1.32057
0
LINE
8
BLACK
6
CONTINUOUS
10
3.2287
20
1.32057
11
3.22671
21
1.32022
0
LINE
8
BLACK
6
CONTINUOUS
10
3.22671
20
1.32022
11
3.22497
21
1.32123
0
LINE
8
BLACK
6
CONTINUOUS
10
3.22497
20
1.32123
11
3.22427
21
1.32312
0
LINE
8
BLACK
6
CONTINUOUS
10
3.22427
20
1.32312
11
3.22427
21
1.33329
0
LINE
8
BLACK
6
CONTINUOUS
10
3.22427
20
1.33329
11
3.21143
21
1.33329
0
LINE
8
BLACK
6
CONTINUOUS
10
3.21143
20
1.33329
11
3.21143
21
1.3175
0
LINE
8
BLACK
6
CONTINUOUS
10
3.21143
20
1.3175
11
3.21125
21
1.31649
0
LINE
8
BLACK
6
CONTINUOUS
10
3.21125
20
1.31649
11
3.20996
21
1.31494
0
LINE
8
BLACK
6
CONTINUOUS
10
3.20996
20
1.31494
11
3.20797
21
1.31459
0
LINE
8
BLACK
6
CONTINUOUS
10
3.20797
20
1.31459
11
3.20622
21
1.3156
0
LINE
8
BLACK
6
CONTINUOUS
10
3.20622
20
1.3156
11
3.20553
21
1.3175
0
LINE
8
BLACK
6
CONTINUOUS
10
3.20553
20
1.3175
11
3.20553
21
1.33625
0
LINE
8
BLACK
6
CONTINUOUS
10
3.20553
20
1.33625
11
3.20559
21
1.33663
0
LINE
8
BLACK
6
CONTINUOUS
10
3.20559
20
1.33663
11
3.20557
21
1.33676
0
LINE
8
BLACK
6
CONTINUOUS
10
3.20557
20
1.33676
11
3.20564
21
1.33687
0
LINE
8
BLACK
6
CONTINUOUS
10
3.20564
20
1.33687
11
3.2057
21
1.33726
0
LINE
8
BLACK
6
CONTINUOUS
10
3.2057
20
1.33726
11
3.2062
21
1.33784
0
LINE
8
BLACK
6
CONTINUOUS
10
3.2062
20
1.33784
11
3.20658
21
1.33851
0
LINE
8
BLACK
6
CONTINUOUS
10
3.20658
20
1.33851
11
3.20683
21
1.3386
0
LINE
8
BLACK
6
CONTINUOUS
10
3.20683
20
1.3386
11
3.207
21
1.3388
0
LINE
8
BLACK
6
CONTINUOUS
10
3.207
20
1.3388
11
3.20776
21
1.33894
0
LINE
8
BLACK
6
CONTINUOUS
10
3.20776
20
1.33894
11
3.20848
21
1.3392
0
LINE
8
BLACK
6
CONTINUOUS
10
3.20848
20
1.3392
11
3.24785
21
1.3392
0
LINE
8
BLACK
6
CONTINUOUS
10
3.24785
20
1.3392
11
3.24886
21
1.33902
0
LINE
8
BLACK
6
CONTINUOUS
10
3.58162
20
1.34694
11
3.58175
21
1.34697
0
LINE
8
BLACK
6
CONTINUOUS
10
3.58175
20
1.34697
11
3.58186
21
1.3469
0
LINE
8
BLACK
6
CONTINUOUS
10
3.58186
20
1.3469
11
3.58225
21
1.34683
0
LINE
8
BLACK
6
CONTINUOUS
10
3.58225
20
1.34683
11
3.58283
21
1.34634
0
LINE
8
BLACK
6
CONTINUOUS
10
3.58283
20
1.34634
11
3.5835
21
1.34596
0
LINE
8
BLACK
6
CONTINUOUS
10
3.5835
20
1.34596
11
3.58359
21
1.34571
0
LINE
8
BLACK
6
CONTINUOUS
10
3.58359
20
1.34571
11
3.58379
21
1.34554
0
LINE
8
BLACK
6
CONTINUOUS
10
3.58379
20
1.34554
11
3.58393
21
1.34478
0
LINE
8
BLACK
6
CONTINUOUS
10
3.58393
20
1.34478
11
3.58419
21
1.34406
0
LINE
8
BLACK
6
CONTINUOUS
10
3.58419
20
1.34406
11
3.58419
21
1.33469
0
LINE
8
BLACK
6
CONTINUOUS
10
3.58419
20
1.33469
11
3.58403
21
1.33382
0
LINE
8
BLACK
6
CONTINUOUS
10
3.58403
20
1.33382
11
3.58404
21
1.33375
0
LINE
8
BLACK
6
CONTINUOUS
10
3.58404
20
1.33375
11
3.58216
21
1.32813
0
LINE
8
BLACK
6
CONTINUOUS
10
3.58216
20
1.32813
11
3.58167
21
1.32723
0
LINE
8
BLACK
6
CONTINUOUS
10
3.58167
20
1.32723
11
3.58152
21
1.32713
0
LINE
8
BLACK
6
CONTINUOUS
10
3.58152
20
1.32713
11
3.58145
21
1.32697
0
LINE
8
BLACK
6
CONTINUOUS
10
3.58145
20
1.32697
11
3.5777
21
1.32322
0
LINE
8
BLACK
6
CONTINUOUS
10
3.5777
20
1.32322
11
3.57698
21
1.32272
0
LINE
8
BLACK
6
CONTINUOUS
10
3.57698
20
1.32272
11
3.57693
21
1.32267
0
LINE
8
BLACK
6
CONTINUOUS
10
3.57693
20
1.32267
11
3.57318
21
1.3208
0
LINE
8
BLACK
6
CONTINUOUS
10
3.57318
20
1.3208
11
3.57269
21
1.32065
0
LINE
8
BLACK
6
CONTINUOUS
10
3.57269
20
1.32065
11
3.57258
21
1.32057
0
LINE
8
BLACK
6
CONTINUOUS
10
3.57258
20
1.32057
11
3.56508
21
1.3187
0
LINE
8
BLACK
6
CONTINUOUS
10
3.56508
20
1.3187
11
3.56449
21
1.31866
0
LINE
8
BLACK
6
CONTINUOUS
10
3.56449
20
1.31866
11
3.56436
21
1.31861
0
LINE
8
BLACK
6
CONTINUOUS
10
3.56436
20
1.31861
11
3.55874
21
1.31861
0
LINE
8
BLACK
6
CONTINUOUS
10
3.55874
20
1.31861
11
3.55816
21
1.31871
0
LINE
8
BLACK
6
CONTINUOUS
10
3.55816
20
1.31871
11
3.55802
21
1.3187
0
LINE
8
BLACK
6
CONTINUOUS
10
3.55802
20
1.3187
11
3.55052
21
1.32057
0
LINE
8
BLACK
6
CONTINUOUS
10
3.55052
20
1.32057
11
3.55006
21
1.32078
0
LINE
8
BLACK
6
CONTINUOUS
10
3.55006
20
1.32078
11
3.54992
21
1.3208
0
LINE
8
BLACK
6
CONTINUOUS
10
3.54992
20
1.3208
11
3.54617
21
1.32267
0
LINE
8
BLACK
6
CONTINUOUS
10
3.54617
20
1.32267
11
3.54546
21
1.3232
0
LINE
8
BLACK
6
CONTINUOUS
10
3.54546
20
1.3232
11
3.5454
21
1.32322
0
LINE
8
BLACK
6
CONTINUOUS
10
3.5454
20
1.32322
11
3.54165
21
1.32697
0
LINE
8
BLACK
6
CONTINUOUS
10
3.54165
20
1.32697
11
3.54106
21
1.32781
0
LINE
8
BLACK
6
CONTINUOUS
10
3.54106
20
1.32781
11
3.54105
21
1.32799
0
LINE
8
BLACK
6
CONTINUOUS
10
3.54105
20
1.32799
11
3.54094
21
1.32813
0
LINE
8
BLACK
6
CONTINUOUS
10
3.54094
20
1.32813
11
3.53906
21
1.33375
0
LINE
8
BLACK
6
CONTINUOUS
10
3.53906
20
1.33375
11
3.53893
21
1.33462
0
LINE
8
BLACK
6
CONTINUOUS
10
3.53893
20
1.33462
11
3.53891
21
1.33469
0
LINE
8
BLACK
6
CONTINUOUS
10
3.53891
20
1.33469
11
3.53891
21
1.34406
0
LINE
8
BLACK
6
CONTINUOUS
10
3.53891
20
1.34406
11
3.53898
21
1.34444
0
LINE
8
BLACK
6
CONTINUOUS
10
3.53898
20
1.34444
11
3.53896
21
1.34457
0
LINE
8
BLACK
6
CONTINUOUS
10
3.53896
20
1.34457
11
3.53902
21
1.34469
0
LINE
8
BLACK
6
CONTINUOUS
10
3.53902
20
1.34469
11
3.53909
21
1.34507
0
LINE
8
BLACK
6
CONTINUOUS
10
3.53909
20
1.34507
11
3.53958
21
1.34566
0
LINE
8
BLACK
6
CONTINUOUS
10
3.53958
20
1.34566
11
3.53997
21
1.34632
0
LINE
8
BLACK
6
CONTINUOUS
10
3.53997
20
1.34632
11
3.54022
21
1.34641
0
LINE
8
BLACK
6
CONTINUOUS
10
3.54022
20
1.34641
11
3.54039
21
1.34662
0
LINE
8
BLACK
6
CONTINUOUS
10
3.54039
20
1.34662
11
3.54114
21
1.34675
0
LINE
8
BLACK
6
CONTINUOUS
10
3.54114
20
1.34675
11
3.54187
21
1.34701
0
LINE
8
BLACK
6
CONTINUOUS
10
3.54187
20
1.34701
11
3.58124
21
1.34701
0
LINE
8
BLACK
6
CONTINUOUS
10
3.58124
20
1.34701
11
3.58162
21
1.34694
0
LINE
8
BLACK
6
CONTINUOUS
10
3.54482
20
1.34111
11
3.54482
21
1.33516
0
LINE
8
BLACK
6
CONTINUOUS
10
3.54482
20
1.33516
11
3.54632
21
1.33066
0
LINE
8
BLACK
6
CONTINUOUS
10
3.54632
20
1.33066
11
3.54924
21
1.32774
0
LINE
8
BLACK
6
CONTINUOUS
10
3.54924
20
1.32774
11
3.55227
21
1.32622
0
LINE
8
BLACK
6
CONTINUOUS
10
3.55227
20
1.32622
11
3.5591
21
1.32451
0
LINE
8
BLACK
6
CONTINUOUS
10
3.5591
20
1.32451
11
3.564
21
1.32451
0
LINE
8
BLACK
6
CONTINUOUS
10
3.564
20
1.32451
11
3.57083
21
1.32622
0
LINE
8
BLACK
6
CONTINUOUS
10
3.57083
20
1.32622
11
3.57386
21
1.32774
0
LINE
8
BLACK
6
CONTINUOUS
10
3.57386
20
1.32774
11
3.57678
21
1.33066
0
LINE
8
BLACK
6
CONTINUOUS
10
3.57678
20
1.33066
11
3.57828
21
1.33516
0
LINE
8
BLACK
6
CONTINUOUS
10
3.57828
20
1.33516
11
3.57828
21
1.34111
0
LINE
8
BLACK
6
CONTINUOUS
10
3.57828
20
1.34111
11
3.54482
21
1.34111
  0
ENDSEC
  0
EOF
