  0
SECTION
  2
HEADER
  9
$ANGBASE
  50
0.0
  9
$ANGDIR
  70
1
  9
$MEASUREMENT
  70
0
  0
ENDSEC
  0
SECTION
  2
TABLES
  0
TABLE
  2
LTYPE
  70
4
  0
LTYPE
  5
40F
  2
CONTINUOUS
  70
0
  3
Solid line
  72
65
  73
0
  40
0.0
  0
LTYPE
  5
410
  2
DASHDOT
 70
0
  3
Dash Dot ____ _ ____ _
 72
65
 73
4
 40
2.0
 49
1.25
 49
-0.25
 49
0.25
 49
-0.25
  0
LTYPE
  5
411
  2
DASHED
 70
0
  3
Dashed __ __ __ __ __
 72
65
 73
2
 40
0.75
 49
0.5
 49
-0.25
  0
LTYPE
  5
43B
  2
DOTTED
 70
0
  3
Dotted .  .  .  .
 72
65
 73
2
 40
0.2
 49
0.0
 49
-0.2
  0
ENDTAB
  0
TABLE
  2
STYLE
  70
4
  0
STYLE
  2
KICAD
  70
0
  40
0
  41
1
  42
1
  50
0
  71
0
  3
isocp.shx
  0
STYLE
  2
KICADB
  70
0
  40
0
  41
1
  42
1
  50
0
  71
0
  3
isocp.shx
  0
STYLE
  2
KICADI
  70
0
  40
0
  41
1
  42
1
  50
15
  71
0
  3
isocp.shx
  0
STYLE
  2
KICADBI
  70
0
  40
0
  41
1
  42
1
  50
15
  71
0
  3
isocp.shx
  0
ENDTAB
  0
TABLE
  2
LAYER
  70
1
  0
LAYER
  2
BLACK
  70
0
  62
7
  6
CONTINUOUS
  0
ENDTAB
  0
ENDSEC
  0
SECTION
  2
ENTITIES
0
LINE
8
BLACK
6
CONTINUOUS
10
3.29852
20
0.417887
11
3.29823
21
0.418583
0
LINE
8
BLACK
6
CONTINUOUS
10
3.29823
20
0.418583
11
3.29823
21
0.741417
0
LINE
8
BLACK
6
CONTINUOUS
10
3.29823
20
0.741417
11
3.29852
21
0.742113
0
LINE
8
BLACK
6
CONTINUOUS
10
3.29852
20
0.742113
11
3.29921
21
0.742402
0
LINE
8
BLACK
6
CONTINUOUS
10
3.29921
20
0.742402
11
3.55118
21
0.742402
0
LINE
8
BLACK
6
CONTINUOUS
10
3.55118
20
0.742402
11
3.55188
21
0.742113
0
LINE
8
BLACK
6
CONTINUOUS
10
3.55188
20
0.742113
11
3.55217
21
0.741417
0
LINE
8
BLACK
6
CONTINUOUS
10
3.55217
20
0.741417
11
3.55217
21
0.418583
0
LINE
8
BLACK
6
CONTINUOUS
10
3.55217
20
0.418583
11
3.55188
21
0.417887
0
LINE
8
BLACK
6
CONTINUOUS
10
3.55188
20
0.417887
11
3.55118
21
0.417598
0
LINE
8
BLACK
6
CONTINUOUS
10
3.55118
20
0.417598
11
3.29921
21
0.417598
0
LINE
8
BLACK
6
CONTINUOUS
10
3.29921
20
0.417598
11
3.29852
21
0.417887
0
LINE
8
BLACK
6
CONTINUOUS
10
3.3002
20
0.740433
11
3.3002
21
0.419567
0
LINE
8
BLACK
6
CONTINUOUS
10
3.3002
20
0.419567
11
3.5502
21
0.419567
0
LINE
8
BLACK
6
CONTINUOUS
10
3.5502
20
0.419567
11
3.5502
21
0.740433
0
LINE
8
BLACK
6
CONTINUOUS
10
3.5502
20
0.740433
11
3.3002
21
0.740433
0
LINE
8
BLACK
6
CONTINUOUS
10
3.29852
20
0.772887
11
3.29823
21
0.773583
0
LINE
8
BLACK
6
CONTINUOUS
10
3.29823
20
0.773583
11
3.29823
21
1.09642
0
LINE
8
BLACK
6
CONTINUOUS
10
3.29823
20
1.09642
11
3.29852
21
1.09711
0
LINE
8
BLACK
6
CONTINUOUS
10
3.29852
20
1.09711
11
3.29921
21
1.0974
0
LINE
8
BLACK
6
CONTINUOUS
10
3.29921
20
1.0974
11
3.55118
21
1.0974
0
LINE
8
BLACK
6
CONTINUOUS
10
3.55118
20
1.0974
11
3.55188
21
1.09711
0
LINE
8
BLACK
6
CONTINUOUS
10
3.55188
20
1.09711
11
3.55217
21
1.09642
0
LINE
8
BLACK
6
CONTINUOUS
10
3.55217
20
1.09642
11
3.55217
21
0.773583
0
LINE
8
BLACK
6
CONTINUOUS
10
3.55217
20
0.773583
11
3.55188
21
0.772887
0
LINE
8
BLACK
6
CONTINUOUS
10
3.55188
20
0.772887
11
3.55118
21
0.772598
0
LINE
8
BLACK
6
CONTINUOUS
10
3.55118
20
0.772598
11
3.29921
21
0.772598
0
LINE
8
BLACK
6
CONTINUOUS
10
3.29921
20
0.772598
11
3.29852
21
0.772887
0
LINE
8
BLACK
6
CONTINUOUS
10
3.3002
20
1.09543
11
3.3002
21
0.774567
0
LINE
8
BLACK
6
CONTINUOUS
10
3.3002
20
0.774567
11
3.5502
21
0.774567
0
LINE
8
BLACK
6
CONTINUOUS
10
3.5502
20
0.774567
11
3.5502
21
1.09543
0
LINE
8
BLACK
6
CONTINUOUS
10
3.5502
20
1.09543
11
3.3002
21
1.09543
0
LINE
8
BLACK
6
CONTINUOUS
10
3.39541
20
1.13714
11
3.39512
21
1.13783
0
LINE
8
BLACK
6
CONTINUOUS
10
3.39512
20
1.13783
11
3.39512
21
1.49217
0
LINE
8
BLACK
6
CONTINUOUS
10
3.39512
20
1.49217
11
3.39541
21
1.49286
0
LINE
8
BLACK
6
CONTINUOUS
10
3.39541
20
1.49286
11
3.3961
21
1.49315
0
LINE
8
BLACK
6
CONTINUOUS
10
3.3961
20
1.49315
11
3.5339
21
1.49315
0
LINE
8
BLACK
6
CONTINUOUS
10
3.5339
20
1.49315
11
3.53459
21
1.49286
0
LINE
8
BLACK
6
CONTINUOUS
10
3.53459
20
1.49286
11
3.53488
21
1.49217
0
LINE
8
BLACK
6
CONTINUOUS
10
3.53488
20
1.49217
11
3.53488
21
1.13783
0
LINE
8
BLACK
6
CONTINUOUS
10
3.53488
20
1.13783
11
3.53459
21
1.13714
0
LINE
8
BLACK
6
CONTINUOUS
10
3.53459
20
1.13714
11
3.5339
21
1.13685
0
LINE
8
BLACK
6
CONTINUOUS
10
3.5339
20
1.13685
11
3.3961
21
1.13685
0
LINE
8
BLACK
6
CONTINUOUS
10
3.3961
20
1.13685
11
3.39541
21
1.13714
0
LINE
8
BLACK
6
CONTINUOUS
10
3.39709
20
1.49118
11
3.39709
21
1.13882
0
LINE
8
BLACK
6
CONTINUOUS
10
3.39709
20
1.13882
11
3.53291
21
1.13882
0
LINE
8
BLACK
6
CONTINUOUS
10
3.53291
20
1.13882
11
3.53291
21
1.49118
0
LINE
8
BLACK
6
CONTINUOUS
10
3.53291
20
1.49118
11
3.39709
21
1.49118
0
LINE
8
BLACK
6
CONTINUOUS
10
3.2569
20
1.23647
11
3.25661
21
1.23717
0
LINE
8
BLACK
6
CONTINUOUS
10
3.25661
20
1.23717
11
3.25661
21
1.38283
0
LINE
8
BLACK
6
CONTINUOUS
10
3.25661
20
1.38283
11
3.2569
21
1.38353
0
LINE
8
BLACK
6
CONTINUOUS
10
3.2569
20
1.38353
11
3.2576
21
1.38382
0
LINE
8
BLACK
6
CONTINUOUS
10
3.2576
20
1.38382
11
3.3324
21
1.38382
0
LINE
8
BLACK
6
CONTINUOUS
10
3.3324
20
1.38382
11
3.3331
21
1.38353
0
LINE
8
BLACK
6
CONTINUOUS
10
3.3331
20
1.38353
11
3.33339
21
1.38283
0
LINE
8
BLACK
6
CONTINUOUS
10
3.33339
20
1.38283
11
3.33339
21
1.23717
0
LINE
8
BLACK
6
CONTINUOUS
10
3.33339
20
1.23717
11
3.3331
21
1.23647
0
LINE
8
BLACK
6
CONTINUOUS
10
3.3331
20
1.23647
11
3.3324
21
1.23618
0
LINE
8
BLACK
6
CONTINUOUS
10
3.3324
20
1.23618
11
3.2576
21
1.23618
0
LINE
8
BLACK
6
CONTINUOUS
10
3.2576
20
1.23618
11
3.2569
21
1.23647
0
LINE
8
BLACK
6
CONTINUOUS
10
3.25858
20
1.38185
11
3.25858
21
1.23815
0
LINE
8
BLACK
6
CONTINUOUS
10
3.25858
20
1.23815
11
3.33142
21
1.23815
0
LINE
8
BLACK
6
CONTINUOUS
10
3.33142
20
1.23815
11
3.33142
21
1.38185
0
LINE
8
BLACK
6
CONTINUOUS
10
3.33142
20
1.38185
11
3.25858
21
1.38185
  0
ENDSEC
  0
EOF
