  0
SECTION
  2
HEADER
  9
$ANGBASE
  50
0.0
  9
$ANGDIR
  70
1
  9
$MEASUREMENT
  70
0
  0
ENDSEC
  0
SECTION
  2
TABLES
  0
TABLE
  2
LTYPE
  70
4
  0
LTYPE
  5
40F
  2
CONTINUOUS
  70
0
  3
Solid line
  72
65
  73
0
  40
0.0
  0
LTYPE
  5
410
  2
DASHDOT
 70
0
  3
Dash Dot ____ _ ____ _
 72
65
 73
4
 40
2.0
 49
1.25
 49
-0.25
 49
0.25
 49
-0.25
  0
LTYPE
  5
411
  2
DASHED
 70
0
  3
Dashed __ __ __ __ __
 72
65
 73
2
 40
0.75
 49
0.5
 49
-0.25
  0
LTYPE
  5
43B
  2
DOTTED
 70
0
  3
Dotted .  .  .  .
 72
65
 73
2
 40
0.2
 49
0.0
 49
-0.2
  0
ENDTAB
  0
TABLE
  2
STYLE
  70
4
  0
STYLE
  2
KICAD
  70
0
  40
0
  41
1
  42
1
  50
0
  71
0
  3
isocp.shx
  0
STYLE
  2
KICADB
  70
0
  40
0
  41
1
  42
1
  50
0
  71
0
  3
isocp.shx
  0
STYLE
  2
KICADI
  70
0
  40
0
  41
1
  42
1
  50
15
  71
0
  3
isocp.shx
  0
STYLE
  2
KICADBI
  70
0
  40
0
  41
1
  42
1
  50
15
  71
0
  3
isocp.shx
  0
ENDTAB
  0
TABLE
  2
LAYER
  70
1
  0
LAYER
  2
BLACK
  70
0
  62
7
  6
CONTINUOUS
  0
ENDTAB
  0
ENDSEC
  0
SECTION
  2
ENTITIES
0
LINE
8
BLACK
6
CONTINUOUS
10
3.19802
20
1.75289
11
3.19815
21
1.75291
0
LINE
8
BLACK
6
CONTINUOUS
10
3.19815
20
1.75291
11
3.19826
21
1.75284
0
LINE
8
BLACK
6
CONTINUOUS
10
3.19826
20
1.75284
11
3.19865
21
1.75277
0
LINE
8
BLACK
6
CONTINUOUS
10
3.19865
20
1.75277
11
3.19924
21
1.75228
0
LINE
8
BLACK
6
CONTINUOUS
10
3.19924
20
1.75228
11
3.1999
21
1.7519
0
LINE
8
BLACK
6
CONTINUOUS
10
3.1999
20
1.7519
11
3.19999
21
1.75165
0
LINE
8
BLACK
6
CONTINUOUS
10
3.19999
20
1.75165
11
3.20019
21
1.75148
0
LINE
8
BLACK
6
CONTINUOUS
10
3.20019
20
1.75148
11
3.20033
21
1.75072
0
LINE
8
BLACK
6
CONTINUOUS
10
3.20033
20
1.75072
11
3.20059
21
1.75
0
LINE
8
BLACK
6
CONTINUOUS
10
3.20059
20
1.75
11
3.20059
21
0.25
0
LINE
8
BLACK
6
CONTINUOUS
10
3.20059
20
0.25
11
3.20052
21
0.249616
0
LINE
8
BLACK
6
CONTINUOUS
10
3.20052
20
0.249616
11
3.20055
21
0.249487
0
LINE
8
BLACK
6
CONTINUOUS
10
3.20055
20
0.249487
11
3.20048
21
0.249374
0
LINE
8
BLACK
6
CONTINUOUS
10
3.20048
20
0.249374
11
3.20041
21
0.24899
0
LINE
8
BLACK
6
CONTINUOUS
10
3.20041
20
0.24899
11
3.19992
21
0.248402
0
LINE
8
BLACK
6
CONTINUOUS
10
3.19992
20
0.248402
11
3.19954
21
0.247738
0
LINE
8
BLACK
6
CONTINUOUS
10
3.19954
20
0.247738
11
3.19929
21
0.247647
0
LINE
8
BLACK
6
CONTINUOUS
10
3.19929
20
0.247647
11
3.19911
21
0.247443
0
LINE
8
BLACK
6
CONTINUOUS
10
3.19911
20
0.247443
11
3.19836
21
0.24731
0
LINE
8
BLACK
6
CONTINUOUS
10
3.19836
20
0.24731
11
3.19764
21
0.247047
0
LINE
8
BLACK
6
CONTINUOUS
10
3.19764
20
0.247047
11
0.402362
21
0.247047
0
LINE
8
BLACK
6
CONTINUOUS
10
0.402362
20
0.247047
11
0.401979
21
0.247115
0
LINE
8
BLACK
6
CONTINUOUS
10
0.401979
20
0.247115
11
0.401849
21
0.247092
0
LINE
8
BLACK
6
CONTINUOUS
10
0.401849
20
0.247092
11
0.401736
21
0.247158
0
LINE
8
BLACK
6
CONTINUOUS
10
0.401736
20
0.247158
11
0.401352
21
0.247225
0
LINE
8
BLACK
6
CONTINUOUS
10
0.401352
20
0.247225
11
0.400765
21
0.247718
0
LINE
8
BLACK
6
CONTINUOUS
10
0.400765
20
0.247718
11
0.4001
21
0.248102
0
LINE
8
BLACK
6
CONTINUOUS
10
0.4001
20
0.248102
11
0.400009
21
0.248352
0
LINE
8
BLACK
6
CONTINUOUS
10
0.400009
20
0.248352
11
0.399805
21
0.248524
0
LINE
8
BLACK
6
CONTINUOUS
10
0.399805
20
0.248524
11
0.399672
21
0.249279
0
LINE
8
BLACK
6
CONTINUOUS
10
0.399672
20
0.249279
11
0.399409
21
0.25
0
LINE
8
BLACK
6
CONTINUOUS
10
0.399409
20
0.25
11
0.399409
21
1.75
0
LINE
8
BLACK
6
CONTINUOUS
10
0.399409
20
1.75
11
0.399477
21
1.75038
0
LINE
8
BLACK
6
CONTINUOUS
10
0.399477
20
1.75038
11
0.399454
21
1.75051
0
LINE
8
BLACK
6
CONTINUOUS
10
0.399454
20
1.75051
11
0.39952
21
1.75063
0
LINE
8
BLACK
6
CONTINUOUS
10
0.39952
20
1.75063
11
0.399588
21
1.75101
0
LINE
8
BLACK
6
CONTINUOUS
10
0.399588
20
1.75101
11
0.400081
21
1.7516
0
LINE
8
BLACK
6
CONTINUOUS
10
0.400081
20
1.7516
11
0.400464
21
1.75226
0
LINE
8
BLACK
6
CONTINUOUS
10
0.400464
20
1.75226
11
0.400715
21
1.75235
0
LINE
8
BLACK
6
CONTINUOUS
10
0.400715
20
1.75235
11
0.400886
21
1.75256
0
LINE
8
BLACK
6
CONTINUOUS
10
0.400886
20
1.75256
11
0.401641
21
1.75269
0
LINE
8
BLACK
6
CONTINUOUS
10
0.401641
20
1.75269
11
0.402362
21
1.75295
0
LINE
8
BLACK
6
CONTINUOUS
10
0.402362
20
1.75295
11
3.19764
21
1.75295
0
LINE
8
BLACK
6
CONTINUOUS
10
3.19764
20
1.75295
11
3.19802
21
1.75289
0
LINE
8
BLACK
6
CONTINUOUS
10
0.405315
20
1.74705
11
0.405315
21
0.252953
0
LINE
8
BLACK
6
CONTINUOUS
10
0.405315
20
0.252953
11
3.19469
21
0.252953
0
LINE
8
BLACK
6
CONTINUOUS
10
3.19469
20
0.252953
11
3.19469
21
1.74705
0
LINE
8
BLACK
6
CONTINUOUS
10
3.19469
20
1.74705
11
0.405315
21
1.74705
0
LINE
8
BLACK
6
CONTINUOUS
10
2.85226
20
1.07376
11
2.85295
21
1.07186
0
LINE
8
BLACK
6
CONTINUOUS
10
2.85295
20
1.07186
11
2.85295
21
0.924831
0
LINE
8
BLACK
6
CONTINUOUS
10
2.85295
20
0.924831
11
2.99998
21
0.924831
0
LINE
8
BLACK
6
CONTINUOUS
10
2.99998
20
0.924831
11
3.00099
21
0.924653
0
LINE
8
BLACK
6
CONTINUOUS
10
3.00099
20
0.924653
11
3.00254
21
0.923355
0
LINE
8
BLACK
6
CONTINUOUS
10
3.00254
20
0.923355
11
3.00289
21
0.921366
0
LINE
8
BLACK
6
CONTINUOUS
10
3.00289
20
0.921366
11
3.00188
21
0.919617
0
LINE
8
BLACK
6
CONTINUOUS
10
3.00188
20
0.919617
11
2.99998
21
0.918926
0
LINE
8
BLACK
6
CONTINUOUS
10
2.99998
20
0.918926
11
2.85295
21
0.918926
0
LINE
8
BLACK
6
CONTINUOUS
10
2.85295
20
0.918926
11
2.85295
21
0.771897
0
LINE
8
BLACK
6
CONTINUOUS
10
2.85295
20
0.771897
11
2.85277
21
0.770887
0
LINE
8
BLACK
6
CONTINUOUS
10
2.85277
20
0.770887
11
2.85148
21
0.76934
0
LINE
8
BLACK
6
CONTINUOUS
10
2.85148
20
0.76934
11
2.84949
21
0.768989
0
LINE
8
BLACK
6
CONTINUOUS
10
2.84949
20
0.768989
11
2.84774
21
0.769999
0
LINE
8
BLACK
6
CONTINUOUS
10
2.84774
20
0.769999
11
2.84705
21
0.771897
0
LINE
8
BLACK
6
CONTINUOUS
10
2.84705
20
0.771897
11
2.84705
21
0.918926
0
LINE
8
BLACK
6
CONTINUOUS
10
2.84705
20
0.918926
11
2.70002
21
0.918926
0
LINE
8
BLACK
6
CONTINUOUS
10
2.70002
20
0.918926
11
2.69901
21
0.919104
0
LINE
8
BLACK
6
CONTINUOUS
10
2.69901
20
0.919104
11
2.69746
21
0.920402
0
LINE
8
BLACK
6
CONTINUOUS
10
2.69746
20
0.920402
11
2.69711
21
0.922391
0
LINE
8
BLACK
6
CONTINUOUS
10
2.69711
20
0.922391
11
2.69812
21
0.92414
0
LINE
8
BLACK
6
CONTINUOUS
10
2.69812
20
0.92414
11
2.70002
21
0.924831
0
LINE
8
BLACK
6
CONTINUOUS
10
2.70002
20
0.924831
11
2.84705
21
0.924831
0
LINE
8
BLACK
6
CONTINUOUS
10
2.84705
20
0.924831
11
2.84705
21
1.07186
0
LINE
8
BLACK
6
CONTINUOUS
10
2.84705
20
1.07186
11
2.84723
21
1.07287
0
LINE
8
BLACK
6
CONTINUOUS
10
2.84723
20
1.07287
11
2.84852
21
1.07442
0
LINE
8
BLACK
6
CONTINUOUS
10
2.84852
20
1.07442
11
2.85051
21
1.07477
0
LINE
8
BLACK
6
CONTINUOUS
10
2.85051
20
1.07477
11
2.85226
21
1.07376
0
LINE
8
BLACK
6
CONTINUOUS
10
1.83503
20
1.04412
11
1.8352
21
1.04415
0
LINE
8
BLACK
6
CONTINUOUS
10
1.8352
20
1.04415
11
1.83594
21
1.04372
0
LINE
8
BLACK
6
CONTINUOUS
10
1.83594
20
1.04372
11
1.83672
21
1.04338
0
LINE
8
BLACK
6
CONTINUOUS
10
1.83672
20
1.04338
11
1.8368
21
1.04323
0
LINE
8
BLACK
6
CONTINUOUS
10
1.8368
20
1.04323
11
1.83695
21
1.04314
0
LINE
8
BLACK
6
CONTINUOUS
10
1.83695
20
1.04314
11
1.83724
21
1.04234
0
LINE
8
BLACK
6
CONTINUOUS
10
1.83724
20
1.04234
11
1.83762
21
1.04157
0
LINE
8
BLACK
6
CONTINUOUS
10
1.83762
20
1.04157
11
1.83758
21
1.0414
0
LINE
8
BLACK
6
CONTINUOUS
10
1.83758
20
1.0414
11
1.83764
21
1.04124
0
LINE
8
BLACK
6
CONTINUOUS
10
1.83764
20
1.04124
11
1.83764
21
1.00483
0
LINE
8
BLACK
6
CONTINUOUS
10
1.83764
20
1.00483
11
1.84593
21
1.00483
0
LINE
8
BLACK
6
CONTINUOUS
10
1.84593
20
1.00483
11
1.84694
21
1.00465
0
LINE
8
BLACK
6
CONTINUOUS
10
1.84694
20
1.00465
11
1.84849
21
1.00335
0
LINE
8
BLACK
6
CONTINUOUS
10
1.84849
20
1.00335
11
1.84884
21
1.00136
0
LINE
8
BLACK
6
CONTINUOUS
10
1.84884
20
1.00136
11
1.84783
21
0.999613
0
LINE
8
BLACK
6
CONTINUOUS
10
1.84783
20
0.999613
11
1.84593
21
0.998922
0
LINE
8
BLACK
6
CONTINUOUS
10
1.84593
20
0.998922
11
1.82343
21
0.998922
0
LINE
8
BLACK
6
CONTINUOUS
10
1.82343
20
0.998922
11
1.82242
21
0.9991
0
LINE
8
BLACK
6
CONTINUOUS
10
1.82242
20
0.9991
11
1.82088
21
1.0004
0
LINE
8
BLACK
6
CONTINUOUS
10
1.82088
20
1.0004
11
1.82053
21
1.00239
0
LINE
8
BLACK
6
CONTINUOUS
10
1.82053
20
1.00239
11
1.82154
21
1.00414
0
LINE
8
BLACK
6
CONTINUOUS
10
1.82154
20
1.00414
11
1.82343
21
1.00483
0
LINE
8
BLACK
6
CONTINUOUS
10
1.82343
20
1.00483
11
1.83173
21
1.00483
0
LINE
8
BLACK
6
CONTINUOUS
10
1.83173
20
1.00483
11
1.83173
21
1.03224
0
LINE
8
BLACK
6
CONTINUOUS
10
1.83173
20
1.03224
11
1.82927
21
1.02978
0
LINE
8
BLACK
6
CONTINUOUS
10
1.82927
20
1.02978
11
1.82855
21
1.02928
0
LINE
8
BLACK
6
CONTINUOUS
10
1.82855
20
1.02928
11
1.8285
21
1.02923
0
LINE
8
BLACK
6
CONTINUOUS
10
1.8285
20
1.02923
11
1.82476
21
1.02736
0
LINE
8
BLACK
6
CONTINUOUS
10
1.82476
20
1.02736
11
1.82377
21
1.02706
0
LINE
8
BLACK
6
CONTINUOUS
10
1.82377
20
1.02706
11
1.82181
21
1.02753
0
LINE
8
BLACK
6
CONTINUOUS
10
1.82181
20
1.02753
11
1.8206
21
1.02915
0
LINE
8
BLACK
6
CONTINUOUS
10
1.8206
20
1.02915
11
1.82073
21
1.03117
0
LINE
8
BLACK
6
CONTINUOUS
10
1.82073
20
1.03117
11
1.82211
21
1.03264
0
LINE
8
BLACK
6
CONTINUOUS
10
1.82211
20
1.03264
11
1.82543
21
1.0343
0
LINE
8
BLACK
6
CONTINUOUS
10
1.82543
20
1.0343
11
1.82864
21
1.0375
0
LINE
8
BLACK
6
CONTINUOUS
10
1.82864
20
1.0375
11
1.83223
21
1.04288
0
LINE
8
BLACK
6
CONTINUOUS
10
1.83223
20
1.04288
11
1.83293
21
1.04362
0
LINE
8
BLACK
6
CONTINUOUS
10
1.83293
20
1.04362
11
1.8331
21
1.04367
0
LINE
8
BLACK
6
CONTINUOUS
10
1.8331
20
1.04367
11
1.83321
21
1.0438
0
LINE
8
BLACK
6
CONTINUOUS
10
1.83321
20
1.0438
11
1.83405
21
1.04395
0
LINE
8
BLACK
6
CONTINUOUS
10
1.83405
20
1.04395
11
1.83487
21
1.04419
0
LINE
8
BLACK
6
CONTINUOUS
10
1.83487
20
1.04419
11
1.83503
21
1.04412
0
LINE
8
BLACK
6
CONTINUOUS
10
1.77008
20
1.04402
11
1.77021
21
1.04391
0
LINE
8
BLACK
6
CONTINUOUS
10
1.77021
20
1.04391
11
1.77039
21
1.04389
0
LINE
8
BLACK
6
CONTINUOUS
10
1.77039
20
1.04389
11
1.77414
21
1.04201
0
LINE
8
BLACK
6
CONTINUOUS
10
1.77414
20
1.04201
11
1.77485
21
1.04149
0
LINE
8
BLACK
6
CONTINUOUS
10
1.77485
20
1.04149
11
1.7749
21
1.04146
0
LINE
8
BLACK
6
CONTINUOUS
10
1.7749
20
1.04146
11
1.77678
21
1.03958
0
LINE
8
BLACK
6
CONTINUOUS
10
1.77678
20
1.03958
11
1.77728
21
1.03886
0
LINE
8
BLACK
6
CONTINUOUS
10
1.77728
20
1.03886
11
1.77733
21
1.03882
0
LINE
8
BLACK
6
CONTINUOUS
10
1.77733
20
1.03882
11
1.77921
21
1.03507
0
LINE
8
BLACK
6
CONTINUOUS
10
1.77921
20
1.03507
11
1.7795
21
1.03408
0
LINE
8
BLACK
6
CONTINUOUS
10
1.7795
20
1.03408
11
1.77946
21
1.03391
0
LINE
8
BLACK
6
CONTINUOUS
10
1.77946
20
1.03391
11
1.77952
21
1.03375
0
LINE
8
BLACK
6
CONTINUOUS
10
1.77952
20
1.03375
11
1.77952
21
1.03
0
LINE
8
BLACK
6
CONTINUOUS
10
1.77952
20
1.03
11
1.77934
21
1.02899
0
LINE
8
BLACK
6
CONTINUOUS
10
1.77934
20
1.02899
11
1.77923
21
1.02885
0
LINE
8
BLACK
6
CONTINUOUS
10
1.77923
20
1.02885
11
1.77921
21
1.02868
0
LINE
8
BLACK
6
CONTINUOUS
10
1.77921
20
1.02868
11
1.77733
21
1.02493
0
LINE
8
BLACK
6
CONTINUOUS
10
1.77733
20
1.02493
11
1.77681
21
1.02422
0
LINE
8
BLACK
6
CONTINUOUS
10
1.77681
20
1.02422
11
1.77678
21
1.02416
0
LINE
8
BLACK
6
CONTINUOUS
10
1.77678
20
1.02416
11
1.7759
21
1.02328
0
LINE
8
BLACK
6
CONTINUOUS
10
1.7759
20
1.02328
11
1.77653
21
1.02294
0
LINE
8
BLACK
6
CONTINUOUS
10
1.77653
20
1.02294
11
1.77662
21
1.02278
0
LINE
8
BLACK
6
CONTINUOUS
10
1.77662
20
1.02278
11
1.77678
21
1.02271
0
LINE
8
BLACK
6
CONTINUOUS
10
1.77678
20
1.02271
11
1.77865
21
1.02084
0
LINE
8
BLACK
6
CONTINUOUS
10
1.77865
20
1.02084
11
1.77916
21
1.02011
0
LINE
8
BLACK
6
CONTINUOUS
10
1.77916
20
1.02011
11
1.77921
21
1.02007
0
LINE
8
BLACK
6
CONTINUOUS
10
1.77921
20
1.02007
11
1.78108
21
1.01632
0
LINE
8
BLACK
6
CONTINUOUS
10
1.78108
20
1.01632
11
1.78137
21
1.01534
0
LINE
8
BLACK
6
CONTINUOUS
10
1.78137
20
1.01534
11
1.78133
21
1.01516
0
LINE
8
BLACK
6
CONTINUOUS
10
1.78133
20
1.01516
11
1.78139
21
1.015
0
LINE
8
BLACK
6
CONTINUOUS
10
1.78139
20
1.015
11
1.78139
21
1.00937
0
LINE
8
BLACK
6
CONTINUOUS
10
1.78139
20
1.00937
11
1.78121
21
1.00836
0
LINE
8
BLACK
6
CONTINUOUS
10
1.78121
20
1.00836
11
1.7811
21
1.00823
0
LINE
8
BLACK
6
CONTINUOUS
10
1.7811
20
1.00823
11
1.78108
21
1.00805
0
LINE
8
BLACK
6
CONTINUOUS
10
1.78108
20
1.00805
11
1.77921
21
1.0043
0
LINE
8
BLACK
6
CONTINUOUS
10
1.77921
20
1.0043
11
1.77868
21
1.00359
0
LINE
8
BLACK
6
CONTINUOUS
10
1.77868
20
1.00359
11
1.77865
21
1.00354
0
LINE
8
BLACK
6
CONTINUOUS
10
1.77865
20
1.00354
11
1.77678
21
1.00166
0
LINE
8
BLACK
6
CONTINUOUS
10
1.77678
20
1.00166
11
1.77606
21
1.00116
0
LINE
8
BLACK
6
CONTINUOUS
10
1.77606
20
1.00116
11
1.77601
21
1.00111
0
LINE
8
BLACK
6
CONTINUOUS
10
1.77601
20
1.00111
11
1.77226
21
0.999234
0
LINE
8
BLACK
6
CONTINUOUS
10
1.77226
20
0.999234
11
1.77128
21
0.998941
0
LINE
8
BLACK
6
CONTINUOUS
10
1.77128
20
0.998941
11
1.77111
21
0.998982
0
LINE
8
BLACK
6
CONTINUOUS
10
1.77111
20
0.998982
11
1.77094
21
0.998922
0
LINE
8
BLACK
6
CONTINUOUS
10
1.77094
20
0.998922
11
1.75594
21
0.998922
0
LINE
8
BLACK
6
CONTINUOUS
10
1.75594
20
0.998922
11
1.75556
21
0.99899
0
LINE
8
BLACK
6
CONTINUOUS
10
1.75556
20
0.99899
11
1.75543
21
0.998967
0
LINE
8
BLACK
6
CONTINUOUS
10
1.75543
20
0.998967
11
1.75532
21
0.999032
0
LINE
8
BLACK
6
CONTINUOUS
10
1.75532
20
0.999032
11
1.75493
21
0.9991
0
LINE
8
BLACK
6
CONTINUOUS
10
1.75493
20
0.9991
11
1.75435
21
0.999593
0
LINE
8
BLACK
6
CONTINUOUS
10
1.75435
20
0.999593
11
1.75368
21
0.999977
0
LINE
8
BLACK
6
CONTINUOUS
10
1.75368
20
0.999977
11
1.75359
21
1.00023
0
LINE
8
BLACK
6
CONTINUOUS
10
1.75359
20
1.00023
11
1.75339
21
1.0004
0
LINE
8
BLACK
6
CONTINUOUS
10
1.75339
20
1.0004
11
1.75325
21
1.00115
0
LINE
8
BLACK
6
CONTINUOUS
10
1.75325
20
1.00115
11
1.75299
21
1.00187
0
LINE
8
BLACK
6
CONTINUOUS
10
1.75299
20
1.00187
11
1.75299
21
1.04124
0
LINE
8
BLACK
6
CONTINUOUS
10
1.75299
20
1.04124
11
1.75306
21
1.04163
0
LINE
8
BLACK
6
CONTINUOUS
10
1.75306
20
1.04163
11
1.75304
21
1.04176
0
LINE
8
BLACK
6
CONTINUOUS
10
1.75304
20
1.04176
11
1.7531
21
1.04187
0
LINE
8
BLACK
6
CONTINUOUS
10
1.7531
20
1.04187
11
1.75317
21
1.04225
0
LINE
8
BLACK
6
CONTINUOUS
10
1.75317
20
1.04225
11
1.75366
21
1.04284
0
LINE
8
BLACK
6
CONTINUOUS
10
1.75366
20
1.04284
11
1.75404
21
1.04351
0
LINE
8
BLACK
6
CONTINUOUS
10
1.75404
20
1.04351
11
1.7543
21
1.0436
0
LINE
8
BLACK
6
CONTINUOUS
10
1.7543
20
1.0436
11
1.75447
21
1.0438
0
LINE
8
BLACK
6
CONTINUOUS
10
1.75447
20
1.0438
11
1.75522
21
1.04394
0
LINE
8
BLACK
6
CONTINUOUS
10
1.75522
20
1.04394
11
1.75594
21
1.0442
0
LINE
8
BLACK
6
CONTINUOUS
10
1.75594
20
1.0442
11
1.76907
21
1.0442
0
LINE
8
BLACK
6
CONTINUOUS
10
1.76907
20
1.0442
11
1.77008
21
1.04402
0
LINE
8
BLACK
6
CONTINUOUS
10
1.7589
20
1.01954
11
1.7589
21
1.00483
0
LINE
8
BLACK
6
CONTINUOUS
10
1.7589
20
1.00483
11
1.77024
21
1.00483
0
LINE
8
BLACK
6
CONTINUOUS
10
1.77024
20
1.00483
11
1.77294
21
1.00618
0
LINE
8
BLACK
6
CONTINUOUS
10
1.77294
20
1.00618
11
1.77414
21
1.00737
0
LINE
8
BLACK
6
CONTINUOUS
10
1.77414
20
1.00737
11
1.77549
21
1.01007
0
LINE
8
BLACK
6
CONTINUOUS
10
1.77549
20
1.01007
11
1.77549
21
1.0143
0
LINE
8
BLACK
6
CONTINUOUS
10
1.77549
20
1.0143
11
1.77414
21
1.017
0
LINE
8
BLACK
6
CONTINUOUS
10
1.77414
20
1.017
11
1.7731
21
1.01804
0
LINE
8
BLACK
6
CONTINUOUS
10
1.7731
20
1.01804
11
1.76859
21
1.01954
0
LINE
8
BLACK
6
CONTINUOUS
10
1.76859
20
1.01954
11
1.7589
21
1.01954
0
LINE
8
BLACK
6
CONTINUOUS
10
1.7589
20
1.03829
11
1.7589
21
1.02545
0
LINE
8
BLACK
6
CONTINUOUS
10
1.7589
20
1.02545
11
1.76837
21
1.02545
0
LINE
8
BLACK
6
CONTINUOUS
10
1.76837
20
1.02545
11
1.77107
21
1.0268
0
LINE
8
BLACK
6
CONTINUOUS
10
1.77107
20
1.0268
11
1.77226
21
1.028
0
LINE
8
BLACK
6
CONTINUOUS
10
1.77226
20
1.028
11
1.77361
21
1.03069
0
LINE
8
BLACK
6
CONTINUOUS
10
1.77361
20
1.03069
11
1.77361
21
1.03305
0
LINE
8
BLACK
6
CONTINUOUS
10
1.77361
20
1.03305
11
1.77226
21
1.03575
0
LINE
8
BLACK
6
CONTINUOUS
10
1.77226
20
1.03575
11
1.77107
21
1.03694
0
LINE
8
BLACK
6
CONTINUOUS
10
1.77107
20
1.03694
11
1.76837
21
1.03829
0
LINE
8
BLACK
6
CONTINUOUS
10
1.76837
20
1.03829
11
1.7589
21
1.03829
0
LINE
8
BLACK
6
CONTINUOUS
10
1.8132
20
1.04402
11
1.81474
21
1.04272
0
LINE
8
BLACK
6
CONTINUOUS
10
1.81474
20
1.04272
11
1.81509
21
1.04073
0
LINE
8
BLACK
6
CONTINUOUS
10
1.81509
20
1.04073
11
1.81408
21
1.03898
0
LINE
8
BLACK
6
CONTINUOUS
10
1.81408
20
1.03898
11
1.81219
21
1.03829
0
LINE
8
BLACK
6
CONTINUOUS
10
1.81219
20
1.03829
11
1.80389
21
1.03829
0
LINE
8
BLACK
6
CONTINUOUS
10
1.80389
20
1.03829
11
1.80389
21
1.00187
0
LINE
8
BLACK
6
CONTINUOUS
10
1.80389
20
1.00187
11
1.80371
21
1.00086
0
LINE
8
BLACK
6
CONTINUOUS
10
1.80371
20
1.00086
11
1.80241
21
0.999318
0
LINE
8
BLACK
6
CONTINUOUS
10
1.80241
20
0.999318
11
1.80042
21
0.998967
0
LINE
8
BLACK
6
CONTINUOUS
10
1.80042
20
0.998967
11
1.79868
21
0.999977
0
LINE
8
BLACK
6
CONTINUOUS
10
1.79868
20
0.999977
11
1.79798
21
1.00187
0
LINE
8
BLACK
6
CONTINUOUS
10
1.79798
20
1.00187
11
1.79798
21
1.03829
0
LINE
8
BLACK
6
CONTINUOUS
10
1.79798
20
1.03829
11
1.78969
21
1.03829
0
LINE
8
BLACK
6
CONTINUOUS
10
1.78969
20
1.03829
11
1.78868
21
1.03847
0
LINE
8
BLACK
6
CONTINUOUS
10
1.78868
20
1.03847
11
1.78713
21
1.03977
0
LINE
8
BLACK
6
CONTINUOUS
10
1.78713
20
1.03977
11
1.78678
21
1.04176
0
LINE
8
BLACK
6
CONTINUOUS
10
1.78678
20
1.04176
11
1.78779
21
1.04351
0
LINE
8
BLACK
6
CONTINUOUS
10
1.78779
20
1.04351
11
1.78969
21
1.0442
0
LINE
8
BLACK
6
CONTINUOUS
10
1.78969
20
1.0442
11
1.81219
21
1.0442
0
LINE
8
BLACK
6
CONTINUOUS
10
1.81219
20
1.0442
11
1.8132
21
1.04402
0
LINE
8
BLACK
6
CONTINUOUS
10
3.35954
20
0.51041
11
3.36024
21
0.50874
0
LINE
8
BLACK
6
CONTINUOUS
10
3.36024
20
0.50874
11
3.36024
21
0.440236
0
LINE
8
BLACK
6
CONTINUOUS
10
3.36024
20
0.440236
11
3.41496
21
0.440236
0
LINE
8
BLACK
6
CONTINUOUS
10
3.41496
20
0.440236
11
3.41663
21
0.439544
0
LINE
8
BLACK
6
CONTINUOUS
10
3.41663
20
0.439544
11
3.41732
21
0.437874
0
LINE
8
BLACK
6
CONTINUOUS
10
3.41732
20
0.437874
11
3.41663
21
0.436204
0
LINE
8
BLACK
6
CONTINUOUS
10
3.41663
20
0.436204
11
3.41496
21
0.435512
0
LINE
8
BLACK
6
CONTINUOUS
10
3.41496
20
0.435512
11
3.35787
21
0.435512
0
LINE
8
BLACK
6
CONTINUOUS
10
3.35787
20
0.435512
11
3.3562
21
0.436204
0
LINE
8
BLACK
6
CONTINUOUS
10
3.3562
20
0.436204
11
3.35551
21
0.437874
0
LINE
8
BLACK
6
CONTINUOUS
10
3.35551
20
0.437874
11
3.35551
21
0.506378
0
LINE
8
BLACK
6
CONTINUOUS
10
3.35551
20
0.506378
11
3.3189
21
0.506378
0
LINE
8
BLACK
6
CONTINUOUS
10
3.3189
20
0.506378
11
3.31723
21
0.50707
0
LINE
8
BLACK
6
CONTINUOUS
10
3.31723
20
0.50707
11
3.31654
21
0.50874
0
LINE
8
BLACK
6
CONTINUOUS
10
3.31654
20
0.50874
11
3.31723
21
0.51041
0
LINE
8
BLACK
6
CONTINUOUS
10
3.31723
20
0.51041
11
3.3189
21
0.511102
0
LINE
8
BLACK
6
CONTINUOUS
10
3.3189
20
0.511102
11
3.35787
21
0.511102
0
LINE
8
BLACK
6
CONTINUOUS
10
3.35787
20
0.511102
11
3.35954
21
0.51041
0
LINE
8
BLACK
6
CONTINUOUS
10
3.52765
20
0.673796
11
3.52835
21
0.672126
0
LINE
8
BLACK
6
CONTINUOUS
10
3.52835
20
0.672126
11
3.52835
21
0.487874
0
LINE
8
BLACK
6
CONTINUOUS
10
3.52835
20
0.487874
11
3.52765
21
0.486204
0
LINE
8
BLACK
6
CONTINUOUS
10
3.52765
20
0.486204
11
3.52598
21
0.485512
0
LINE
8
BLACK
6
CONTINUOUS
10
3.52598
20
0.485512
11
3.52431
21
0.486204
0
LINE
8
BLACK
6
CONTINUOUS
10
3.52431
20
0.486204
11
3.52362
21
0.487874
0
LINE
8
BLACK
6
CONTINUOUS
10
3.52362
20
0.487874
11
3.52362
21
0.672126
0
LINE
8
BLACK
6
CONTINUOUS
10
3.52362
20
0.672126
11
3.52431
21
0.673796
0
LINE
8
BLACK
6
CONTINUOUS
10
3.52431
20
0.673796
11
3.52598
21
0.674488
0
LINE
8
BLACK
6
CONTINUOUS
10
3.52598
20
0.674488
11
3.52765
21
0.673796
0
LINE
8
BLACK
6
CONTINUOUS
10
3.27908
20
0.569676
11
3.27915
21
0.569678
0
LINE
8
BLACK
6
CONTINUOUS
10
3.27915
20
0.569678
11
3.28477
21
0.567803
0
LINE
8
BLACK
6
CONTINUOUS
10
3.28477
20
0.567803
11
3.28567
21
0.567315
0
LINE
8
BLACK
6
CONTINUOUS
10
3.28567
20
0.567315
11
3.28577
21
0.567164
0
LINE
8
BLACK
6
CONTINUOUS
10
3.28577
20
0.567164
11
3.28593
21
0.56709
0
LINE
8
BLACK
6
CONTINUOUS
10
3.28593
20
0.56709
11
3.28968
21
0.56334
0
LINE
8
BLACK
6
CONTINUOUS
10
3.28968
20
0.56334
11
3.29027
21
0.5625
0
LINE
8
BLACK
6
CONTINUOUS
10
3.29027
20
0.5625
11
3.29028
21
0.562324
0
LINE
8
BLACK
6
CONTINUOUS
10
3.29028
20
0.562324
11
3.29039
21
0.562186
0
LINE
8
BLACK
6
CONTINUOUS
10
3.29039
20
0.562186
11
3.29226
21
0.556562
0
LINE
8
BLACK
6
CONTINUOUS
10
3.29226
20
0.556562
11
3.29239
21
0.555689
0
LINE
8
BLACK
6
CONTINUOUS
10
3.29239
20
0.555689
11
3.29242
21
0.555628
0
LINE
8
BLACK
6
CONTINUOUS
10
3.29242
20
0.555628
11
3.29242
21
0.551879
0
LINE
8
BLACK
6
CONTINUOUS
10
3.29242
20
0.551879
11
3.29224
21
0.550869
0
LINE
8
BLACK
6
CONTINUOUS
10
3.29224
20
0.550869
11
3.29094
21
0.549321
0
LINE
8
BLACK
6
CONTINUOUS
10
3.29094
20
0.549321
11
3.28895
21
0.548971
0
LINE
8
BLACK
6
CONTINUOUS
10
3.28895
20
0.548971
11
3.2872
21
0.549981
0
LINE
8
BLACK
6
CONTINUOUS
10
3.2872
20
0.549981
11
3.28651
21
0.551879
0
LINE
8
BLACK
6
CONTINUOUS
10
3.28651
20
0.551879
11
3.28651
21
0.555149
0
LINE
8
BLACK
6
CONTINUOUS
10
3.28651
20
0.555149
11
3.28501
21
0.559657
0
LINE
8
BLACK
6
CONTINUOUS
10
3.28501
20
0.559657
11
3.28224
21
0.562421
0
LINE
8
BLACK
6
CONTINUOUS
10
3.28224
20
0.562421
11
3.27774
21
0.563924
0
LINE
8
BLACK
6
CONTINUOUS
10
3.27774
20
0.563924
11
3.25009
21
0.563924
0
LINE
8
BLACK
6
CONTINUOUS
10
3.25009
20
0.563924
11
3.24908
21
0.564102
0
LINE
8
BLACK
6
CONTINUOUS
10
3.24908
20
0.564102
11
3.24754
21
0.5654
0
LINE
8
BLACK
6
CONTINUOUS
10
3.24754
20
0.5654
11
3.24719
21
0.567389
0
LINE
8
BLACK
6
CONTINUOUS
10
3.24719
20
0.567389
11
3.2482
21
0.569139
0
LINE
8
BLACK
6
CONTINUOUS
10
3.2482
20
0.569139
11
3.25009
21
0.569829
0
LINE
8
BLACK
6
CONTINUOUS
10
3.25009
20
0.569829
11
3.27822
21
0.569829
0
LINE
8
BLACK
6
CONTINUOUS
10
3.27822
20
0.569829
11
3.27908
21
0.569676
0
LINE
8
BLACK
6
CONTINUOUS
10
3.29173
20
0.608145
11
3.29242
21
0.606247
0
LINE
8
BLACK
6
CONTINUOUS
10
3.29242
20
0.606247
11
3.29242
21
0.58375
0
LINE
8
BLACK
6
CONTINUOUS
10
3.29242
20
0.58375
11
3.29224
21
0.58274
0
LINE
8
BLACK
6
CONTINUOUS
10
3.29224
20
0.58274
11
3.29094
21
0.581192
0
LINE
8
BLACK
6
CONTINUOUS
10
3.29094
20
0.581192
11
3.28895
21
0.580842
0
LINE
8
BLACK
6
CONTINUOUS
10
3.28895
20
0.580842
11
3.2872
21
0.581852
0
LINE
8
BLACK
6
CONTINUOUS
10
3.2872
20
0.581852
11
3.28651
21
0.58375
0
LINE
8
BLACK
6
CONTINUOUS
10
3.28651
20
0.58375
11
3.28651
21
0.592045
0
LINE
8
BLACK
6
CONTINUOUS
10
3.28651
20
0.592045
11
3.2591
21
0.592045
0
LINE
8
BLACK
6
CONTINUOUS
10
3.2591
20
0.592045
11
3.26156
21
0.589587
0
LINE
8
BLACK
6
CONTINUOUS
10
3.26156
20
0.589587
11
3.26206
21
0.588864
0
LINE
8
BLACK
6
CONTINUOUS
10
3.26206
20
0.588864
11
3.26211
21
0.58882
0
LINE
8
BLACK
6
CONTINUOUS
10
3.26211
20
0.58882
11
3.26398
21
0.58507
0
LINE
8
BLACK
6
CONTINUOUS
10
3.26398
20
0.58507
11
3.26428
21
0.584087
0
LINE
8
BLACK
6
CONTINUOUS
10
3.26428
20
0.584087
11
3.26381
21
0.582123
0
LINE
8
BLACK
6
CONTINUOUS
10
3.26381
20
0.582123
11
3.26218
21
0.580919
0
LINE
8
BLACK
6
CONTINUOUS
10
3.26218
20
0.580919
11
3.26017
21
0.58104
0
LINE
8
BLACK
6
CONTINUOUS
10
3.26017
20
0.58104
11
3.2587
21
0.582429
0
LINE
8
BLACK
6
CONTINUOUS
10
3.2587
20
0.582429
11
3.25704
21
0.58575
0
LINE
8
BLACK
6
CONTINUOUS
10
3.25704
20
0.58575
11
3.25384
21
0.588954
0
LINE
8
BLACK
6
CONTINUOUS
10
3.25384
20
0.588954
11
3.24846
21
0.592541
0
LINE
8
BLACK
6
CONTINUOUS
10
3.24846
20
0.592541
11
3.24771
21
0.59325
0
LINE
8
BLACK
6
CONTINUOUS
10
3.24771
20
0.59325
11
3.24767
21
0.593413
0
LINE
8
BLACK
6
CONTINUOUS
10
3.24767
20
0.593413
11
3.24754
21
0.593522
0
LINE
8
BLACK
6
CONTINUOUS
10
3.24754
20
0.593522
11
3.24739
21
0.594366
0
LINE
8
BLACK
6
CONTINUOUS
10
3.24739
20
0.594366
11
3.24715
21
0.595188
0
LINE
8
BLACK
6
CONTINUOUS
10
3.24715
20
0.595188
11
3.24722
21
0.595344
0
LINE
8
BLACK
6
CONTINUOUS
10
3.24722
20
0.595344
11
3.24719
21
0.595511
0
LINE
8
BLACK
6
CONTINUOUS
10
3.24719
20
0.595511
11
3.24761
21
0.596253
0
LINE
8
BLACK
6
CONTINUOUS
10
3.24761
20
0.596253
11
3.24796
21
0.597038
0
LINE
8
BLACK
6
CONTINUOUS
10
3.24796
20
0.597038
11
3.24811
21
0.597113
0
LINE
8
BLACK
6
CONTINUOUS
10
3.24811
20
0.597113
11
3.2482
21
0.59726
0
LINE
8
BLACK
6
CONTINUOUS
10
3.2482
20
0.59726
11
3.249
21
0.597553
0
LINE
8
BLACK
6
CONTINUOUS
10
3.249
20
0.597553
11
3.24977
21
0.597933
0
LINE
8
BLACK
6
CONTINUOUS
10
3.24977
20
0.597933
11
3.24993
21
0.597893
0
LINE
8
BLACK
6
CONTINUOUS
10
3.24993
20
0.597893
11
3.25009
21
0.597951
0
LINE
8
BLACK
6
CONTINUOUS
10
3.25009
20
0.597951
11
3.28651
21
0.597951
0
LINE
8
BLACK
6
CONTINUOUS
10
3.28651
20
0.597951
11
3.28651
21
0.606247
0
LINE
8
BLACK
6
CONTINUOUS
10
3.28651
20
0.606247
11
3.28669
21
0.607257
0
LINE
8
BLACK
6
CONTINUOUS
10
3.28669
20
0.607257
11
3.28799
21
0.608804
0
LINE
8
BLACK
6
CONTINUOUS
10
3.28799
20
0.608804
11
3.28998
21
0.609155
0
LINE
8
BLACK
6
CONTINUOUS
10
3.28998
20
0.609155
11
3.29173
21
0.608145
0
LINE
8
BLACK
6
CONTINUOUS
10
3.41663
20
0.723796
11
3.41732
21
0.722126
0
LINE
8
BLACK
6
CONTINUOUS
10
3.41732
20
0.722126
11
3.41663
21
0.720456
0
LINE
8
BLACK
6
CONTINUOUS
10
3.41663
20
0.720456
11
3.41496
21
0.719764
0
LINE
8
BLACK
6
CONTINUOUS
10
3.41496
20
0.719764
11
3.36024
21
0.719764
0
LINE
8
BLACK
6
CONTINUOUS
10
3.36024
20
0.719764
11
3.36024
21
0.65126
0
LINE
8
BLACK
6
CONTINUOUS
10
3.36024
20
0.65126
11
3.35954
21
0.64959
0
LINE
8
BLACK
6
CONTINUOUS
10
3.35954
20
0.64959
11
3.35787
21
0.648898
0
LINE
8
BLACK
6
CONTINUOUS
10
3.35787
20
0.648898
11
3.3562
21
0.64959
0
LINE
8
BLACK
6
CONTINUOUS
10
3.3562
20
0.64959
11
3.35551
21
0.65126
0
LINE
8
BLACK
6
CONTINUOUS
10
3.35551
20
0.65126
11
3.35551
21
0.722126
0
LINE
8
BLACK
6
CONTINUOUS
10
3.35551
20
0.722126
11
3.3562
21
0.723796
0
LINE
8
BLACK
6
CONTINUOUS
10
3.3562
20
0.723796
11
3.35787
21
0.724488
0
LINE
8
BLACK
6
CONTINUOUS
10
3.35787
20
0.724488
11
3.41496
21
0.724488
0
LINE
8
BLACK
6
CONTINUOUS
10
3.41496
20
0.724488
11
3.41663
21
0.723796
0
LINE
8
BLACK
6
CONTINUOUS
10
3.35954
20
0.86541
11
3.36024
21
0.86374
0
LINE
8
BLACK
6
CONTINUOUS
10
3.36024
20
0.86374
11
3.36024
21
0.795236
0
LINE
8
BLACK
6
CONTINUOUS
10
3.36024
20
0.795236
11
3.41496
21
0.795236
0
LINE
8
BLACK
6
CONTINUOUS
10
3.41496
20
0.795236
11
3.41663
21
0.794544
0
LINE
8
BLACK
6
CONTINUOUS
10
3.41663
20
0.794544
11
3.41732
21
0.792874
0
LINE
8
BLACK
6
CONTINUOUS
10
3.41732
20
0.792874
11
3.41663
21
0.791204
0
LINE
8
BLACK
6
CONTINUOUS
10
3.41663
20
0.791204
11
3.41496
21
0.790512
0
LINE
8
BLACK
6
CONTINUOUS
10
3.41496
20
0.790512
11
3.35787
21
0.790512
0
LINE
8
BLACK
6
CONTINUOUS
10
3.35787
20
0.790512
11
3.3562
21
0.791204
0
LINE
8
BLACK
6
CONTINUOUS
10
3.3562
20
0.791204
11
3.35551
21
0.792874
0
LINE
8
BLACK
6
CONTINUOUS
10
3.35551
20
0.792874
11
3.35551
21
0.861378
0
LINE
8
BLACK
6
CONTINUOUS
10
3.35551
20
0.861378
11
3.3189
21
0.861378
0
LINE
8
BLACK
6
CONTINUOUS
10
3.3189
20
0.861378
11
3.31723
21
0.86207
0
LINE
8
BLACK
6
CONTINUOUS
10
3.31723
20
0.86207
11
3.31654
21
0.86374
0
LINE
8
BLACK
6
CONTINUOUS
10
3.31654
20
0.86374
11
3.31723
21
0.86541
0
LINE
8
BLACK
6
CONTINUOUS
10
3.31723
20
0.86541
11
3.3189
21
0.866102
0
LINE
8
BLACK
6
CONTINUOUS
10
3.3189
20
0.866102
11
3.35787
21
0.866102
0
LINE
8
BLACK
6
CONTINUOUS
10
3.35787
20
0.866102
11
3.35954
21
0.86541
0
LINE
8
BLACK
6
CONTINUOUS
10
3.52765
20
1.0288
11
3.52835
21
1.02713
0
LINE
8
BLACK
6
CONTINUOUS
10
3.52835
20
1.02713
11
3.52835
21
0.842874
0
LINE
8
BLACK
6
CONTINUOUS
10
3.52835
20
0.842874
11
3.52765
21
0.841204
0
LINE
8
BLACK
6
CONTINUOUS
10
3.52765
20
0.841204
11
3.52598
21
0.840512
0
LINE
8
BLACK
6
CONTINUOUS
10
3.52598
20
0.840512
11
3.52431
21
0.841204
0
LINE
8
BLACK
6
CONTINUOUS
10
3.52431
20
0.841204
11
3.52362
21
0.842874
0
LINE
8
BLACK
6
CONTINUOUS
10
3.52362
20
0.842874
11
3.52362
21
1.02713
0
LINE
8
BLACK
6
CONTINUOUS
10
3.52362
20
1.02713
11
3.52431
21
1.0288
0
LINE
8
BLACK
6
CONTINUOUS
10
3.52431
20
1.0288
11
3.52598
21
1.02949
0
LINE
8
BLACK
6
CONTINUOUS
10
3.52598
20
1.02949
11
3.52765
21
1.0288
0
LINE
8
BLACK
6
CONTINUOUS
10
3.27908
20
0.924676
11
3.27915
21
0.924678
0
LINE
8
BLACK
6
CONTINUOUS
10
3.27915
20
0.924678
11
3.28477
21
0.922803
0
LINE
8
BLACK
6
CONTINUOUS
10
3.28477
20
0.922803
11
3.28567
21
0.922315
0
LINE
8
BLACK
6
CONTINUOUS
10
3.28567
20
0.922315
11
3.28577
21
0.922164
0
LINE
8
BLACK
6
CONTINUOUS
10
3.28577
20
0.922164
11
3.28593
21
0.92209
0
LINE
8
BLACK
6
CONTINUOUS
10
3.28593
20
0.92209
11
3.28968
21
0.91834
0
LINE
8
BLACK
6
CONTINUOUS
10
3.28968
20
0.91834
11
3.29027
21
0.9175
0
LINE
8
BLACK
6
CONTINUOUS
10
3.29027
20
0.9175
11
3.29028
21
0.917324
0
LINE
8
BLACK
6
CONTINUOUS
10
3.29028
20
0.917324
11
3.29039
21
0.917186
0
LINE
8
BLACK
6
CONTINUOUS
10
3.29039
20
0.917186
11
3.29226
21
0.911562
0
LINE
8
BLACK
6
CONTINUOUS
10
3.29226
20
0.911562
11
3.29239
21
0.910689
0
LINE
8
BLACK
6
CONTINUOUS
10
3.29239
20
0.910689
11
3.29242
21
0.910628
0
LINE
8
BLACK
6
CONTINUOUS
10
3.29242
20
0.910628
11
3.29242
21
0.906879
0
LINE
8
BLACK
6
CONTINUOUS
10
3.29242
20
0.906879
11
3.29224
21
0.905869
0
LINE
8
BLACK
6
CONTINUOUS
10
3.29224
20
0.905869
11
3.29094
21
0.904321
0
LINE
8
BLACK
6
CONTINUOUS
10
3.29094
20
0.904321
11
3.28895
21
0.903971
0
LINE
8
BLACK
6
CONTINUOUS
10
3.28895
20
0.903971
11
3.2872
21
0.904981
0
LINE
8
BLACK
6
CONTINUOUS
10
3.2872
20
0.904981
11
3.28651
21
0.906879
0
LINE
8
BLACK
6
CONTINUOUS
10
3.28651
20
0.906879
11
3.28651
21
0.910149
0
LINE
8
BLACK
6
CONTINUOUS
10
3.28651
20
0.910149
11
3.28501
21
0.914657
0
LINE
8
BLACK
6
CONTINUOUS
10
3.28501
20
0.914657
11
3.28224
21
0.917421
0
LINE
8
BLACK
6
CONTINUOUS
10
3.28224
20
0.917421
11
3.27774
21
0.918924
0
LINE
8
BLACK
6
CONTINUOUS
10
3.27774
20
0.918924
11
3.25009
21
0.918924
0
LINE
8
BLACK
6
CONTINUOUS
10
3.25009
20
0.918924
11
3.24908
21
0.919102
0
LINE
8
BLACK
6
CONTINUOUS
10
3.24908
20
0.919102
11
3.24754
21
0.9204
0
LINE
8
BLACK
6
CONTINUOUS
10
3.24754
20
0.9204
11
3.24719
21
0.922389
0
LINE
8
BLACK
6
CONTINUOUS
10
3.24719
20
0.922389
11
3.2482
21
0.924139
0
LINE
8
BLACK
6
CONTINUOUS
10
3.2482
20
0.924139
11
3.25009
21
0.924829
0
LINE
8
BLACK
6
CONTINUOUS
10
3.25009
20
0.924829
11
3.27822
21
0.924829
0
LINE
8
BLACK
6
CONTINUOUS
10
3.27822
20
0.924829
11
3.27908
21
0.924676
0
LINE
8
BLACK
6
CONTINUOUS
10
3.2786
20
0.965019
11
3.27929
21
0.963121
0
LINE
8
BLACK
6
CONTINUOUS
10
3.27929
20
0.963121
11
3.27929
21
0.96045
0
LINE
8
BLACK
6
CONTINUOUS
10
3.27929
20
0.96045
11
3.28946
21
0.96045
0
LINE
8
BLACK
6
CONTINUOUS
10
3.28946
20
0.96045
11
3.29047
21
0.960272
0
LINE
8
BLACK
6
CONTINUOUS
10
3.29047
20
0.960272
11
3.29202
21
0.958974
0
LINE
8
BLACK
6
CONTINUOUS
10
3.29202
20
0.958974
11
3.29237
21
0.956984
0
LINE
8
BLACK
6
CONTINUOUS
10
3.29237
20
0.956984
11
3.29136
21
0.955235
0
LINE
8
BLACK
6
CONTINUOUS
10
3.29136
20
0.955235
11
3.28946
21
0.954544
0
LINE
8
BLACK
6
CONTINUOUS
10
3.28946
20
0.954544
11
3.27929
21
0.954544
0
LINE
8
BLACK
6
CONTINUOUS
10
3.27929
20
0.954544
11
3.27929
21
0.93875
0
LINE
8
BLACK
6
CONTINUOUS
10
3.27929
20
0.93875
11
3.27912
21
0.93774
0
LINE
8
BLACK
6
CONTINUOUS
10
3.27912
20
0.93774
11
3.27897
21
0.937567
0
LINE
8
BLACK
6
CONTINUOUS
10
3.27897
20
0.937567
11
3.27894
21
0.937344
0
LINE
8
BLACK
6
CONTINUOUS
10
3.27894
20
0.937344
11
3.27833
21
0.936809
0
LINE
8
BLACK
6
CONTINUOUS
10
3.27833
20
0.936809
11
3.27782
21
0.936192
0
LINE
8
BLACK
6
CONTINUOUS
10
3.27782
20
0.936192
11
3.27759
21
0.936153
0
LINE
8
BLACK
6
CONTINUOUS
10
3.27759
20
0.936153
11
3.27743
21
0.936004
0
LINE
8
BLACK
6
CONTINUOUS
10
3.27743
20
0.936004
11
3.27662
21
0.935982
0
LINE
8
BLACK
6
CONTINUOUS
10
3.27662
20
0.935982
11
3.27583
21
0.935842
0
LINE
8
BLACK
6
CONTINUOUS
10
3.27583
20
0.935842
11
3.27563
21
0.935954
0
LINE
8
BLACK
6
CONTINUOUS
10
3.27563
20
0.935954
11
3.27541
21
0.935948
0
LINE
8
BLACK
6
CONTINUOUS
10
3.27541
20
0.935948
11
3.24729
21
0.945322
0
LINE
8
BLACK
6
CONTINUOUS
10
3.24729
20
0.945322
11
3.24638
21
0.94581
0
LINE
8
BLACK
6
CONTINUOUS
10
3.24638
20
0.94581
11
3.24533
21
0.947531
0
LINE
8
BLACK
6
CONTINUOUS
10
3.24533
20
0.947531
11
3.24562
21
0.949529
0
LINE
8
BLACK
6
CONTINUOUS
10
3.24562
20
0.949529
11
3.24713
21
0.950869
0
LINE
8
BLACK
6
CONTINUOUS
10
3.24713
20
0.950869
11
3.24915
21
0.950925
0
LINE
8
BLACK
6
CONTINUOUS
10
3.24915
20
0.950925
11
3.27339
21
0.942846
0
LINE
8
BLACK
6
CONTINUOUS
10
3.27339
20
0.942846
11
3.27339
21
0.954544
0
LINE
8
BLACK
6
CONTINUOUS
10
3.27339
20
0.954544
11
3.26322
21
0.954544
0
LINE
8
BLACK
6
CONTINUOUS
10
3.26322
20
0.954544
11
3.26221
21
0.954723
0
LINE
8
BLACK
6
CONTINUOUS
10
3.26221
20
0.954723
11
3.26066
21
0.956021
0
LINE
8
BLACK
6
CONTINUOUS
10
3.26066
20
0.956021
11
3.26031
21
0.95801
0
LINE
8
BLACK
6
CONTINUOUS
10
3.26031
20
0.95801
11
3.26132
21
0.959759
0
LINE
8
BLACK
6
CONTINUOUS
10
3.26132
20
0.959759
11
3.26322
21
0.96045
0
LINE
8
BLACK
6
CONTINUOUS
10
3.26322
20
0.96045
11
3.27339
21
0.96045
0
LINE
8
BLACK
6
CONTINUOUS
10
3.27339
20
0.96045
11
3.27339
21
0.963121
0
LINE
8
BLACK
6
CONTINUOUS
10
3.27339
20
0.963121
11
3.27357
21
0.964131
0
LINE
8
BLACK
6
CONTINUOUS
10
3.27357
20
0.964131
11
3.27486
21
0.965679
0
LINE
8
BLACK
6
CONTINUOUS
10
3.27486
20
0.965679
11
3.27685
21
0.966029
0
LINE
8
BLACK
6
CONTINUOUS
10
3.27685
20
0.966029
11
3.2786
21
0.965019
0
LINE
8
BLACK
6
CONTINUOUS
10
3.41663
20
1.0788
11
3.41732
21
1.07713
0
LINE
8
BLACK
6
CONTINUOUS
10
3.41732
20
1.07713
11
3.41663
21
1.07546
0
LINE
8
BLACK
6
CONTINUOUS
10
3.41663
20
1.07546
11
3.41496
21
1.07476
0
LINE
8
BLACK
6
CONTINUOUS
10
3.41496
20
1.07476
11
3.36024
21
1.07476
0
LINE
8
BLACK
6
CONTINUOUS
10
3.36024
20
1.07476
11
3.36024
21
1.00626
0
LINE
8
BLACK
6
CONTINUOUS
10
3.36024
20
1.00626
11
3.35954
21
1.00459
0
LINE
8
BLACK
6
CONTINUOUS
10
3.35954
20
1.00459
11
3.35787
21
1.0039
0
LINE
8
BLACK
6
CONTINUOUS
10
3.35787
20
1.0039
11
3.3562
21
1.00459
0
LINE
8
BLACK
6
CONTINUOUS
10
3.3562
20
1.00459
11
3.35551
21
1.00626
0
LINE
8
BLACK
6
CONTINUOUS
10
3.35551
20
1.00626
11
3.35551
21
1.07713
0
LINE
8
BLACK
6
CONTINUOUS
10
3.35551
20
1.07713
11
3.3562
21
1.0788
0
LINE
8
BLACK
6
CONTINUOUS
10
3.3562
20
1.0788
11
3.35787
21
1.07949
0
LINE
8
BLACK
6
CONTINUOUS
10
3.35787
20
1.07949
11
3.41496
21
1.07949
0
LINE
8
BLACK
6
CONTINUOUS
10
3.41496
20
1.07949
11
3.41663
21
1.0788
0
LINE
8
BLACK
6
CONTINUOUS
10
3.39837
20
1.14168
11
3.39768
21
1.14335
0
LINE
8
BLACK
6
CONTINUOUS
10
3.39768
20
1.14335
11
3.39768
21
1.415
0
LINE
8
BLACK
6
CONTINUOUS
10
3.39768
20
1.415
11
3.39837
21
1.41667
0
LINE
8
BLACK
6
CONTINUOUS
10
3.39837
20
1.41667
11
3.40004
21
1.41736
0
LINE
8
BLACK
6
CONTINUOUS
10
3.40004
20
1.41736
11
3.40171
21
1.41667
0
LINE
8
BLACK
6
CONTINUOUS
10
3.40171
20
1.41667
11
3.4024
21
1.415
0
LINE
8
BLACK
6
CONTINUOUS
10
3.4024
20
1.415
11
3.4024
21
1.14571
0
LINE
8
BLACK
6
CONTINUOUS
10
3.4024
20
1.14571
11
3.5276
21
1.14571
0
LINE
8
BLACK
6
CONTINUOUS
10
3.5276
20
1.14571
11
3.5276
21
1.415
0
LINE
8
BLACK
6
CONTINUOUS
10
3.5276
20
1.415
11
3.52829
21
1.41667
0
LINE
8
BLACK
6
CONTINUOUS
10
3.52829
20
1.41667
11
3.52996
21
1.41736
0
LINE
8
BLACK
6
CONTINUOUS
10
3.52996
20
1.41736
11
3.53163
21
1.41667
0
LINE
8
BLACK
6
CONTINUOUS
10
3.53163
20
1.41667
11
3.53232
21
1.415
0
LINE
8
BLACK
6
CONTINUOUS
10
3.53232
20
1.415
11
3.53232
21
1.14335
0
LINE
8
BLACK
6
CONTINUOUS
10
3.53232
20
1.14335
11
3.53163
21
1.14168
0
LINE
8
BLACK
6
CONTINUOUS
10
3.53163
20
1.14168
11
3.52996
21
1.14098
0
LINE
8
BLACK
6
CONTINUOUS
10
3.52996
20
1.14098
11
3.40004
21
1.14098
0
LINE
8
BLACK
6
CONTINUOUS
10
3.40004
20
1.14098
11
3.39837
21
1.14168
0
LINE
8
BLACK
6
CONTINUOUS
10
3.36809
20
1.31286
11
3.36823
21
1.31288
0
LINE
8
BLACK
6
CONTINUOUS
10
3.36823
20
1.31288
11
3.37573
21
1.311
0
LINE
8
BLACK
6
CONTINUOUS
10
3.37573
20
1.311
11
3.37619
21
1.3108
0
LINE
8
BLACK
6
CONTINUOUS
10
3.37619
20
1.3108
11
3.37633
21
1.31078
0
LINE
8
BLACK
6
CONTINUOUS
10
3.37633
20
1.31078
11
3.38008
21
1.3089
0
LINE
8
BLACK
6
CONTINUOUS
10
3.38008
20
1.3089
11
3.38079
21
1.30838
0
LINE
8
BLACK
6
CONTINUOUS
10
3.38079
20
1.30838
11
3.38085
21
1.30835
0
LINE
8
BLACK
6
CONTINUOUS
10
3.38085
20
1.30835
11
3.3846
21
1.3046
0
LINE
8
BLACK
6
CONTINUOUS
10
3.3846
20
1.3046
11
3.38519
21
1.30376
0
LINE
8
BLACK
6
CONTINUOUS
10
3.38519
20
1.30376
11
3.3852
21
1.30359
0
LINE
8
BLACK
6
CONTINUOUS
10
3.3852
20
1.30359
11
3.38531
21
1.30345
0
LINE
8
BLACK
6
CONTINUOUS
10
3.38531
20
1.30345
11
3.38719
21
1.29782
0
LINE
8
BLACK
6
CONTINUOUS
10
3.38719
20
1.29782
11
3.38732
21
1.29695
0
LINE
8
BLACK
6
CONTINUOUS
10
3.38732
20
1.29695
11
3.38734
21
1.29689
0
LINE
8
BLACK
6
CONTINUOUS
10
3.38734
20
1.29689
11
3.38734
21
1.28752
0
LINE
8
BLACK
6
CONTINUOUS
10
3.38734
20
1.28752
11
3.38727
21
1.28713
0
LINE
8
BLACK
6
CONTINUOUS
10
3.38727
20
1.28713
11
3.38729
21
1.287
0
LINE
8
BLACK
6
CONTINUOUS
10
3.38729
20
1.287
11
3.38723
21
1.28689
0
LINE
8
BLACK
6
CONTINUOUS
10
3.38723
20
1.28689
11
3.38716
21
1.28651
0
LINE
8
BLACK
6
CONTINUOUS
10
3.38716
20
1.28651
11
3.38667
21
1.28592
0
LINE
8
BLACK
6
CONTINUOUS
10
3.38667
20
1.28592
11
3.38628
21
1.28525
0
LINE
8
BLACK
6
CONTINUOUS
10
3.38628
20
1.28525
11
3.38603
21
1.28516
0
LINE
8
BLACK
6
CONTINUOUS
10
3.38603
20
1.28516
11
3.38586
21
1.28496
0
LINE
8
BLACK
6
CONTINUOUS
10
3.38586
20
1.28496
11
3.38511
21
1.28483
0
LINE
8
BLACK
6
CONTINUOUS
10
3.38511
20
1.28483
11
3.38439
21
1.28456
0
LINE
8
BLACK
6
CONTINUOUS
10
3.38439
20
1.28456
11
3.38051
21
1.28456
0
LINE
8
BLACK
6
CONTINUOUS
10
3.38051
20
1.28456
11
3.38068
21
1.28359
0
LINE
8
BLACK
6
CONTINUOUS
10
3.38068
20
1.28359
11
3.37967
21
1.28185
0
LINE
8
BLACK
6
CONTINUOUS
10
3.37967
20
1.28185
11
3.37777
21
1.28115
0
LINE
8
BLACK
6
CONTINUOUS
10
3.37777
20
1.28115
11
3.3384
21
1.28115
0
LINE
8
BLACK
6
CONTINUOUS
10
3.3384
20
1.28115
11
3.33802
21
1.28122
0
LINE
8
BLACK
6
CONTINUOUS
10
3.33802
20
1.28122
11
3.33789
21
1.2812
0
LINE
8
BLACK
6
CONTINUOUS
10
3.33789
20
1.2812
11
3.33777
21
1.28127
0
LINE
8
BLACK
6
CONTINUOUS
10
3.33777
20
1.28127
11
3.33739
21
1.28133
0
LINE
8
BLACK
6
CONTINUOUS
10
3.33739
20
1.28133
11
3.3368
21
1.28183
0
LINE
8
BLACK
6
CONTINUOUS
10
3.3368
20
1.28183
11
3.33614
21
1.28221
0
LINE
8
BLACK
6
CONTINUOUS
10
3.33614
20
1.28221
11
3.33605
21
1.28246
0
LINE
8
BLACK
6
CONTINUOUS
10
3.33605
20
1.28246
11
3.33584
21
1.28263
0
LINE
8
BLACK
6
CONTINUOUS
10
3.33584
20
1.28263
11
3.33571
21
1.28339
0
LINE
8
BLACK
6
CONTINUOUS
10
3.33571
20
1.28339
11
3.33545
21
1.28411
0
LINE
8
BLACK
6
CONTINUOUS
10
3.33545
20
1.28411
11
3.33545
21
1.30286
0
LINE
8
BLACK
6
CONTINUOUS
10
3.33545
20
1.30286
11
3.33563
21
1.30387
0
LINE
8
BLACK
6
CONTINUOUS
10
3.33563
20
1.30387
11
3.33692
21
1.30541
0
LINE
8
BLACK
6
CONTINUOUS
10
3.33692
20
1.30541
11
3.33891
21
1.30576
0
LINE
8
BLACK
6
CONTINUOUS
10
3.33891
20
1.30576
11
3.34066
21
1.30475
0
LINE
8
BLACK
6
CONTINUOUS
10
3.34066
20
1.30475
11
3.34135
21
1.30286
0
LINE
8
BLACK
6
CONTINUOUS
10
3.34135
20
1.30286
11
3.34135
21
1.28706
0
LINE
8
BLACK
6
CONTINUOUS
10
3.34135
20
1.28706
11
3.34223
21
1.28706
0
LINE
8
BLACK
6
CONTINUOUS
10
3.34223
20
1.28706
11
3.34206
21
1.28752
0
LINE
8
BLACK
6
CONTINUOUS
10
3.34206
20
1.28752
11
3.34206
21
1.29689
0
LINE
8
BLACK
6
CONTINUOUS
10
3.34206
20
1.29689
11
3.34222
21
1.29776
0
LINE
8
BLACK
6
CONTINUOUS
10
3.34222
20
1.29776
11
3.34221
21
1.29782
0
LINE
8
BLACK
6
CONTINUOUS
10
3.34221
20
1.29782
11
3.34409
21
1.30345
0
LINE
8
BLACK
6
CONTINUOUS
10
3.34409
20
1.30345
11
3.34458
21
1.30435
0
LINE
8
BLACK
6
CONTINUOUS
10
3.34458
20
1.30435
11
3.34473
21
1.30444
0
LINE
8
BLACK
6
CONTINUOUS
10
3.34473
20
1.30444
11
3.3448
21
1.3046
0
LINE
8
BLACK
6
CONTINUOUS
10
3.3448
20
1.3046
11
3.34855
21
1.30835
0
LINE
8
BLACK
6
CONTINUOUS
10
3.34855
20
1.30835
11
3.34927
21
1.30886
0
LINE
8
BLACK
6
CONTINUOUS
10
3.34927
20
1.30886
11
3.34932
21
1.3089
0
LINE
8
BLACK
6
CONTINUOUS
10
3.34932
20
1.3089
11
3.35307
21
1.31078
0
LINE
8
BLACK
6
CONTINUOUS
10
3.35307
20
1.31078
11
3.35356
21
1.31092
0
LINE
8
BLACK
6
CONTINUOUS
10
3.35356
20
1.31092
11
3.35367
21
1.311
0
LINE
8
BLACK
6
CONTINUOUS
10
3.35367
20
1.311
11
3.36117
21
1.31288
0
LINE
8
BLACK
6
CONTINUOUS
10
3.36117
20
1.31288
11
3.36176
21
1.31292
0
LINE
8
BLACK
6
CONTINUOUS
10
3.36176
20
1.31292
11
3.36189
21
1.31297
0
LINE
8
BLACK
6
CONTINUOUS
10
3.36189
20
1.31297
11
3.36751
21
1.31297
0
LINE
8
BLACK
6
CONTINUOUS
10
3.36751
20
1.31297
11
3.36809
21
1.31286
0
LINE
8
BLACK
6
CONTINUOUS
10
3.36225
20
1.30706
11
3.35542
21
1.30535
0
LINE
8
BLACK
6
CONTINUOUS
10
3.35542
20
1.30535
11
3.35239
21
1.30384
0
LINE
8
BLACK
6
CONTINUOUS
10
3.35239
20
1.30384
11
3.34947
21
1.30092
0
LINE
8
BLACK
6
CONTINUOUS
10
3.34947
20
1.30092
11
3.34797
21
1.29641
0
LINE
8
BLACK
6
CONTINUOUS
10
3.34797
20
1.29641
11
3.34797
21
1.29047
0
LINE
8
BLACK
6
CONTINUOUS
10
3.34797
20
1.29047
11
3.3542
21
1.29047
0
LINE
8
BLACK
6
CONTINUOUS
10
3.3542
20
1.29047
11
3.3542
21
1.29723
0
LINE
8
BLACK
6
CONTINUOUS
10
3.3542
20
1.29723
11
3.35437
21
1.29824
0
LINE
8
BLACK
6
CONTINUOUS
10
3.35437
20
1.29824
11
3.35567
21
1.29979
0
LINE
8
BLACK
6
CONTINUOUS
10
3.35567
20
1.29979
11
3.35766
21
1.30014
0
LINE
8
BLACK
6
CONTINUOUS
10
3.35766
20
1.30014
11
3.35941
21
1.29913
0
LINE
8
BLACK
6
CONTINUOUS
10
3.35941
20
1.29913
11
3.3601
21
1.29723
0
LINE
8
BLACK
6
CONTINUOUS
10
3.3601
20
1.29723
11
3.3601
21
1.29047
0
LINE
8
BLACK
6
CONTINUOUS
10
3.3601
20
1.29047
11
3.38143
21
1.29047
0
LINE
8
BLACK
6
CONTINUOUS
10
3.38143
20
1.29047
11
3.38143
21
1.29641
0
LINE
8
BLACK
6
CONTINUOUS
10
3.38143
20
1.29641
11
3.37993
21
1.30092
0
LINE
8
BLACK
6
CONTINUOUS
10
3.37993
20
1.30092
11
3.37701
21
1.30384
0
LINE
8
BLACK
6
CONTINUOUS
10
3.37701
20
1.30384
11
3.37398
21
1.30535
0
LINE
8
BLACK
6
CONTINUOUS
10
3.37398
20
1.30535
11
3.36715
21
1.30706
0
LINE
8
BLACK
6
CONTINUOUS
10
3.36715
20
1.30706
11
3.36225
21
1.30706
0
LINE
8
BLACK
6
CONTINUOUS
10
3.26872
20
1.32231
11
3.26941
21
1.32064
0
LINE
8
BLACK
6
CONTINUOUS
10
3.26941
20
1.32064
11
3.26941
21
1.30007
0
LINE
8
BLACK
6
CONTINUOUS
10
3.26941
20
1.30007
11
3.26872
21
1.2984
0
LINE
8
BLACK
6
CONTINUOUS
10
3.26872
20
1.2984
11
3.26705
21
1.29771
0
LINE
8
BLACK
6
CONTINUOUS
10
3.26705
20
1.29771
11
3.26538
21
1.2984
0
LINE
8
BLACK
6
CONTINUOUS
10
3.26538
20
1.2984
11
3.26469
21
1.30007
0
LINE
8
BLACK
6
CONTINUOUS
10
3.26469
20
1.30007
11
3.26469
21
1.32064
0
LINE
8
BLACK
6
CONTINUOUS
10
3.26469
20
1.32064
11
3.26538
21
1.32231
0
LINE
8
BLACK
6
CONTINUOUS
10
3.26538
20
1.32231
11
3.26705
21
1.323
0
LINE
8
BLACK
6
CONTINUOUS
10
3.26705
20
1.323
11
3.26872
21
1.32231
0
LINE
8
BLACK
6
CONTINUOUS
10
3.32462
20
1.32231
11
3.32531
21
1.32064
0
LINE
8
BLACK
6
CONTINUOUS
10
3.32531
20
1.32064
11
3.32531
21
1.30007
0
LINE
8
BLACK
6
CONTINUOUS
10
3.32531
20
1.30007
11
3.32462
21
1.2984
0
LINE
8
BLACK
6
CONTINUOUS
10
3.32462
20
1.2984
11
3.32295
21
1.29771
0
LINE
8
BLACK
6
CONTINUOUS
10
3.32295
20
1.29771
11
3.32128
21
1.2984
0
LINE
8
BLACK
6
CONTINUOUS
10
3.32128
20
1.2984
11
3.32059
21
1.30007
0
LINE
8
BLACK
6
CONTINUOUS
10
3.32059
20
1.30007
11
3.32059
21
1.32064
0
LINE
8
BLACK
6
CONTINUOUS
10
3.32059
20
1.32064
11
3.32128
21
1.32231
0
LINE
8
BLACK
6
CONTINUOUS
10
3.32128
20
1.32231
11
3.32295
21
1.323
0
LINE
8
BLACK
6
CONTINUOUS
10
3.32295
20
1.323
11
3.32462
21
1.32231
0
LINE
8
BLACK
6
CONTINUOUS
10
3.35713
20
1.35031
11
3.3572
21
1.35031
0
LINE
8
BLACK
6
CONTINUOUS
10
3.3572
20
1.35031
11
3.36282
21
1.34843
0
LINE
8
BLACK
6
CONTINUOUS
10
3.36282
20
1.34843
11
3.36372
21
1.34795
0
LINE
8
BLACK
6
CONTINUOUS
10
3.36372
20
1.34795
11
3.36382
21
1.3478
0
LINE
8
BLACK
6
CONTINUOUS
10
3.36382
20
1.3478
11
3.36398
21
1.34772
0
LINE
8
BLACK
6
CONTINUOUS
10
3.36398
20
1.34772
11
3.37482
21
1.33688
0
LINE
8
BLACK
6
CONTINUOUS
10
3.37482
20
1.33688
11
3.37482
21
1.33848
0
LINE
8
BLACK
6
CONTINUOUS
10
3.37482
20
1.33848
11
3.375
21
1.33949
0
LINE
8
BLACK
6
CONTINUOUS
10
3.375
20
1.33949
11
3.37629
21
1.34103
0
LINE
8
BLACK
6
CONTINUOUS
10
3.37629
20
1.34103
11
3.37828
21
1.34138
0
LINE
8
BLACK
6
CONTINUOUS
10
3.37828
20
1.34138
11
3.38003
21
1.34037
0
LINE
8
BLACK
6
CONTINUOUS
10
3.38003
20
1.34037
11
3.38072
21
1.33848
0
LINE
8
BLACK
6
CONTINUOUS
10
3.38072
20
1.33848
11
3.38072
21
1.33097
0
LINE
8
BLACK
6
CONTINUOUS
10
3.38072
20
1.33097
11
3.38143
21
1.33027
0
LINE
8
BLACK
6
CONTINUOUS
10
3.38143
20
1.33027
11
3.38143
21
1.34751
0
LINE
8
BLACK
6
CONTINUOUS
10
3.38143
20
1.34751
11
3.38161
21
1.34852
0
LINE
8
BLACK
6
CONTINUOUS
10
3.38161
20
1.34852
11
3.38291
21
1.35007
0
LINE
8
BLACK
6
CONTINUOUS
10
3.38291
20
1.35007
11
3.3849
21
1.35042
0
LINE
8
BLACK
6
CONTINUOUS
10
3.3849
20
1.35042
11
3.38665
21
1.34941
0
LINE
8
BLACK
6
CONTINUOUS
10
3.38665
20
1.34941
11
3.38734
21
1.34751
0
LINE
8
BLACK
6
CONTINUOUS
10
3.38734
20
1.34751
11
3.38734
21
1.32314
0
LINE
8
BLACK
6
CONTINUOUS
10
3.38734
20
1.32314
11
3.38723
21
1.3225
0
LINE
8
BLACK
6
CONTINUOUS
10
3.38723
20
1.3225
11
3.38724
21
1.32237
0
LINE
8
BLACK
6
CONTINUOUS
10
3.38724
20
1.32237
11
3.38719
21
1.32231
0
LINE
8
BLACK
6
CONTINUOUS
10
3.38719
20
1.32231
11
3.38716
21
1.32213
0
LINE
8
BLACK
6
CONTINUOUS
10
3.38716
20
1.32213
11
3.38659
21
1.32145
0
LINE
8
BLACK
6
CONTINUOUS
10
3.38659
20
1.32145
11
3.38608
21
1.32072
0
LINE
8
BLACK
6
CONTINUOUS
10
3.38608
20
1.32072
11
3.38595
21
1.32068
0
LINE
8
BLACK
6
CONTINUOUS
10
3.38595
20
1.32068
11
3.38586
21
1.32058
0
LINE
8
BLACK
6
CONTINUOUS
10
3.38586
20
1.32058
11
3.38499
21
1.32042
0
LINE
8
BLACK
6
CONTINUOUS
10
3.38499
20
1.32042
11
3.38413
21
1.3202
0
LINE
8
BLACK
6
CONTINUOUS
10
3.38413
20
1.3202
11
3.38401
21
1.32025
0
LINE
8
BLACK
6
CONTINUOUS
10
3.38401
20
1.32025
11
3.38387
21
1.32023
0
LINE
8
BLACK
6
CONTINUOUS
10
3.38387
20
1.32023
11
3.3831
21
1.32067
0
LINE
8
BLACK
6
CONTINUOUS
10
3.3831
20
1.32067
11
3.3823
21
1.32105
0
LINE
8
BLACK
6
CONTINUOUS
10
3.3823
20
1.32105
11
3.38072
21
1.32262
0
LINE
8
BLACK
6
CONTINUOUS
10
3.38072
20
1.32262
11
3.38072
21
1.3141
0
LINE
8
BLACK
6
CONTINUOUS
10
3.38072
20
1.3141
11
3.38061
21
1.31347
0
LINE
8
BLACK
6
CONTINUOUS
10
3.38061
20
1.31347
11
3.38062
21
1.31334
0
LINE
8
BLACK
6
CONTINUOUS
10
3.38062
20
1.31334
11
3.38058
21
1.31327
0
LINE
8
BLACK
6
CONTINUOUS
10
3.38058
20
1.31327
11
3.38055
21
1.31309
0
LINE
8
BLACK
6
CONTINUOUS
10
3.38055
20
1.31309
11
3.37997
21
1.31241
0
LINE
8
BLACK
6
CONTINUOUS
10
3.37997
20
1.31241
11
3.37946
21
1.31169
0
LINE
8
BLACK
6
CONTINUOUS
10
3.37946
20
1.31169
11
3.37933
21
1.31165
0
LINE
8
BLACK
6
CONTINUOUS
10
3.37933
20
1.31165
11
3.37925
21
1.31155
0
LINE
8
BLACK
6
CONTINUOUS
10
3.37925
20
1.31155
11
3.37837
21
1.31139
0
LINE
8
BLACK
6
CONTINUOUS
10
3.37837
20
1.31139
11
3.37751
21
1.31116
0
LINE
8
BLACK
6
CONTINUOUS
10
3.37751
20
1.31116
11
3.37739
21
1.31122
0
LINE
8
BLACK
6
CONTINUOUS
10
3.37739
20
1.31122
11
3.37726
21
1.3112
0
LINE
8
BLACK
6
CONTINUOUS
10
3.37726
20
1.3112
11
3.37649
21
1.31164
0
LINE
8
BLACK
6
CONTINUOUS
10
3.37649
20
1.31164
11
3.37568
21
1.31202
0
LINE
8
BLACK
6
CONTINUOUS
10
3.37568
20
1.31202
11
3.35368
21
1.33402
0
LINE
8
BLACK
6
CONTINUOUS
10
3.35368
20
1.33402
11
3.34917
21
1.33552
0
LINE
8
BLACK
6
CONTINUOUS
10
3.34917
20
1.33552
11
3.34797
21
1.33552
0
LINE
8
BLACK
6
CONTINUOUS
10
3.34797
20
1.33552
11
3.34797
21
1.33133
0
LINE
8
BLACK
6
CONTINUOUS
10
3.34797
20
1.33133
11
3.34932
21
1.32864
0
LINE
8
BLACK
6
CONTINUOUS
10
3.34932
20
1.32864
11
3.35085
21
1.3271
0
LINE
8
BLACK
6
CONTINUOUS
10
3.35085
20
1.3271
11
3.35144
21
1.32626
0
LINE
8
BLACK
6
CONTINUOUS
10
3.35144
20
1.32626
11
3.35162
21
1.32425
0
LINE
8
BLACK
6
CONTINUOUS
10
3.35162
20
1.32425
11
3.35046
21
1.32259
0
LINE
8
BLACK
6
CONTINUOUS
10
3.35046
20
1.32259
11
3.34851
21
1.32207
0
LINE
8
BLACK
6
CONTINUOUS
10
3.34851
20
1.32207
11
3.34668
21
1.32292
0
LINE
8
BLACK
6
CONTINUOUS
10
3.34668
20
1.32292
11
3.3448
21
1.3248
0
LINE
8
BLACK
6
CONTINUOUS
10
3.3448
20
1.3248
11
3.3443
21
1.32552
0
LINE
8
BLACK
6
CONTINUOUS
10
3.3443
20
1.32552
11
3.34425
21
1.32557
0
LINE
8
BLACK
6
CONTINUOUS
10
3.34425
20
1.32557
11
3.34237
21
1.32932
0
LINE
8
BLACK
6
CONTINUOUS
10
3.34237
20
1.32932
11
3.34208
21
1.3303
0
LINE
8
BLACK
6
CONTINUOUS
10
3.34208
20
1.3303
11
3.34212
21
1.33047
0
LINE
8
BLACK
6
CONTINUOUS
10
3.34212
20
1.33047
11
3.34206
21
1.33064
0
LINE
8
BLACK
6
CONTINUOUS
10
3.34206
20
1.33064
11
3.34206
21
1.3317
0
LINE
8
BLACK
6
CONTINUOUS
10
3.34206
20
1.3317
11
3.34135
21
1.33028
0
LINE
8
BLACK
6
CONTINUOUS
10
3.34135
20
1.33028
11
3.34135
21
1.3223
0
LINE
8
BLACK
6
CONTINUOUS
10
3.34135
20
1.3223
11
3.3427
21
1.3196
0
LINE
8
BLACK
6
CONTINUOUS
10
3.3427
20
1.3196
11
3.34424
21
1.31807
0
LINE
8
BLACK
6
CONTINUOUS
10
3.34424
20
1.31807
11
3.34483
21
1.31723
0
LINE
8
BLACK
6
CONTINUOUS
10
3.34483
20
1.31723
11
3.345
21
1.31521
0
LINE
8
BLACK
6
CONTINUOUS
10
3.345
20
1.31521
11
3.34384
21
1.31356
0
LINE
8
BLACK
6
CONTINUOUS
10
3.34384
20
1.31356
11
3.34189
21
1.31304
0
LINE
8
BLACK
6
CONTINUOUS
10
3.34189
20
1.31304
11
3.34006
21
1.31389
0
LINE
8
BLACK
6
CONTINUOUS
10
3.34006
20
1.31389
11
3.33819
21
1.31577
0
LINE
8
BLACK
6
CONTINUOUS
10
3.33819
20
1.31577
11
3.33768
21
1.31649
0
LINE
8
BLACK
6
CONTINUOUS
10
3.33768
20
1.31649
11
3.33763
21
1.31653
0
LINE
8
BLACK
6
CONTINUOUS
10
3.33763
20
1.31653
11
3.33576
21
1.32028
0
LINE
8
BLACK
6
CONTINUOUS
10
3.33576
20
1.32028
11
3.33547
21
1.32127
0
LINE
8
BLACK
6
CONTINUOUS
10
3.33547
20
1.32127
11
3.33551
21
1.32144
0
LINE
8
BLACK
6
CONTINUOUS
10
3.33551
20
1.32144
11
3.33545
21
1.3216
0
LINE
8
BLACK
6
CONTINUOUS
10
3.33545
20
1.3216
11
3.33545
21
1.33098
0
LINE
8
BLACK
6
CONTINUOUS
10
3.33545
20
1.33098
11
3.33563
21
1.33199
0
LINE
8
BLACK
6
CONTINUOUS
10
3.33563
20
1.33199
11
3.33574
21
1.33212
0
LINE
8
BLACK
6
CONTINUOUS
10
3.33574
20
1.33212
11
3.33576
21
1.3323
0
LINE
8
BLACK
6
CONTINUOUS
10
3.33576
20
1.3323
11
3.33763
21
1.33605
0
LINE
8
BLACK
6
CONTINUOUS
10
3.33763
20
1.33605
11
3.33816
21
1.33676
0
LINE
8
BLACK
6
CONTINUOUS
10
3.33816
20
1.33676
11
3.33819
21
1.33681
0
LINE
8
BLACK
6
CONTINUOUS
10
3.33819
20
1.33681
11
3.34006
21
1.33869
0
LINE
8
BLACK
6
CONTINUOUS
10
3.34006
20
1.33869
11
3.34079
21
1.3392
0
LINE
8
BLACK
6
CONTINUOUS
10
3.34079
20
1.3392
11
3.34083
21
1.33924
0
LINE
8
BLACK
6
CONTINUOUS
10
3.34083
20
1.33924
11
3.34206
21
1.33986
0
LINE
8
BLACK
6
CONTINUOUS
10
3.34206
20
1.33986
11
3.34206
21
1.34001
0
LINE
8
BLACK
6
CONTINUOUS
10
3.34206
20
1.34001
11
3.34224
21
1.34102
0
LINE
8
BLACK
6
CONTINUOUS
10
3.34224
20
1.34102
11
3.34235
21
1.34115
0
LINE
8
BLACK
6
CONTINUOUS
10
3.34235
20
1.34115
11
3.34237
21
1.34133
0
LINE
8
BLACK
6
CONTINUOUS
10
3.34237
20
1.34133
11
3.34425
21
1.34508
0
LINE
8
BLACK
6
CONTINUOUS
10
3.34425
20
1.34508
11
3.34477
21
1.34579
0
LINE
8
BLACK
6
CONTINUOUS
10
3.34477
20
1.34579
11
3.3448
21
1.34585
0
LINE
8
BLACK
6
CONTINUOUS
10
3.3448
20
1.34585
11
3.34668
21
1.34772
0
LINE
8
BLACK
6
CONTINUOUS
10
3.34668
20
1.34772
11
3.3474
21
1.34823
0
LINE
8
BLACK
6
CONTINUOUS
10
3.3474
20
1.34823
11
3.34744
21
1.34827
0
LINE
8
BLACK
6
CONTINUOUS
10
3.34744
20
1.34827
11
3.35119
21
1.35015
0
LINE
8
BLACK
6
CONTINUOUS
10
3.35119
20
1.35015
11
3.35218
21
1.35044
0
LINE
8
BLACK
6
CONTINUOUS
10
3.35218
20
1.35044
11
3.35235
21
1.3504
0
LINE
8
BLACK
6
CONTINUOUS
10
3.35235
20
1.3504
11
3.35251
21
1.35046
0
LINE
8
BLACK
6
CONTINUOUS
10
3.35251
20
1.35046
11
3.35626
21
1.35046
0
LINE
8
BLACK
6
CONTINUOUS
10
3.35626
20
1.35046
11
3.35713
21
1.35031
0
LINE
8
BLACK
6
CONTINUOUS
10
3.35321
20
1.34456
11
3.35051
21
1.34321
0
LINE
8
BLACK
6
CONTINUOUS
10
3.35051
20
1.34321
11
3.34932
21
1.34201
0
LINE
8
BLACK
6
CONTINUOUS
10
3.34932
20
1.34201
11
3.34903
21
1.34143
0
LINE
8
BLACK
6
CONTINUOUS
10
3.34903
20
1.34143
11
3.34965
21
1.34143
0
LINE
8
BLACK
6
CONTINUOUS
10
3.34965
20
1.34143
11
3.35052
21
1.34128
0
LINE
8
BLACK
6
CONTINUOUS
10
3.35052
20
1.34128
11
3.35058
21
1.34128
0
LINE
8
BLACK
6
CONTINUOUS
10
3.35058
20
1.34128
11
3.35621
21
1.3394
0
LINE
8
BLACK
6
CONTINUOUS
10
3.35621
20
1.3394
11
3.35711
21
1.33891
0
LINE
8
BLACK
6
CONTINUOUS
10
3.35711
20
1.33891
11
3.3572
21
1.33876
0
LINE
8
BLACK
6
CONTINUOUS
10
3.3572
20
1.33876
11
3.35736
21
1.33869
0
LINE
8
BLACK
6
CONTINUOUS
10
3.35736
20
1.33869
11
3.37482
21
1.32123
0
LINE
8
BLACK
6
CONTINUOUS
10
3.37482
20
1.32123
11
3.37482
21
1.32853
0
LINE
8
BLACK
6
CONTINUOUS
10
3.37482
20
1.32853
11
3.36029
21
1.34305
0
LINE
8
BLACK
6
CONTINUOUS
10
3.36029
20
1.34305
11
3.35578
21
1.34456
0
LINE
8
BLACK
6
CONTINUOUS
10
3.35578
20
1.34456
11
3.35321
21
1.34456
0
LINE
8
BLACK
6
CONTINUOUS
10
-0.810139
20
5.72704
11
-0.809501
21
5.72704
0
LINE
8
BLACK
6
CONTINUOUS
10
-0.809501
20
5.72704
11
-0.80219
21
5.7246
0
LINE
8
BLACK
6
CONTINUOUS
10
-0.80219
20
5.7246
11
-0.801459
21
5.72406
0
LINE
8
BLACK
6
CONTINUOUS
10
-0.801459
20
5.72406
11
-0.800651
21
5.72365
0
LINE
8
BLACK
6
CONTINUOUS
10
-0.800651
20
5.72365
11
-0.795776
21
5.71878
0
LINE
8
BLACK
6
CONTINUOUS
10
-0.795776
20
5.71878
11
-0.795487
21
5.71821
0
LINE
8
BLACK
6
CONTINUOUS
10
-0.795487
20
5.71821
11
-0.795039
21
5.71775
0
LINE
8
BLACK
6
CONTINUOUS
10
-0.795039
20
5.71775
11
-0.792602
21
5.71288
0
LINE
8
BLACK
6
CONTINUOUS
10
-0.792602
20
5.71288
11
-0.792536
21
5.71244
0
LINE
8
BLACK
6
CONTINUOUS
10
-0.792536
20
5.71244
11
-0.792304
21
5.71207
0
LINE
8
BLACK
6
CONTINUOUS
10
-0.792304
20
5.71207
11
-0.789866
21
5.70232
0
LINE
8
BLACK
6
CONTINUOUS
10
-0.789866
20
5.70232
11
-0.7899
21
5.70183
0
LINE
8
BLACK
6
CONTINUOUS
10
-0.7899
20
5.70183
11
-0.789749
21
5.70137
0
LINE
8
BLACK
6
CONTINUOUS
10
-0.789749
20
5.70137
11
-0.789749
21
5.69406
0
LINE
8
BLACK
6
CONTINUOUS
10
-0.789749
20
5.69406
11
-0.7899
21
5.69359
0
LINE
8
BLACK
6
CONTINUOUS
10
-0.7899
20
5.69359
11
-0.789866
21
5.6931
0
LINE
8
BLACK
6
CONTINUOUS
10
-0.789866
20
5.6931
11
-0.792304
21
5.68335
0
LINE
8
BLACK
6
CONTINUOUS
10
-0.792304
20
5.68335
11
-0.792536
21
5.68298
0
LINE
8
BLACK
6
CONTINUOUS
10
-0.792536
20
5.68298
11
-0.792602
21
5.68255
0
LINE
8
BLACK
6
CONTINUOUS
10
-0.792602
20
5.68255
11
-0.795039
21
5.67767
0
LINE
8
BLACK
6
CONTINUOUS
10
-0.795039
20
5.67767
11
-0.795487
21
5.67722
0
LINE
8
BLACK
6
CONTINUOUS
10
-0.795487
20
5.67722
11
-0.795776
21
5.67665
0
LINE
8
BLACK
6
CONTINUOUS
10
-0.795776
20
5.67665
11
-0.800651
21
5.67178
0
LINE
8
BLACK
6
CONTINUOUS
10
-0.800651
20
5.67178
11
-0.801459
21
5.67136
0
LINE
8
BLACK
6
CONTINUOUS
10
-0.801459
20
5.67136
11
-0.80219
21
5.67082
0
LINE
8
BLACK
6
CONTINUOUS
10
-0.80219
20
5.67082
11
-0.809501
21
5.66839
0
LINE
8
BLACK
6
CONTINUOUS
10
-0.809501
20
5.66839
11
-0.810139
21
5.66838
0
LINE
8
BLACK
6
CONTINUOUS
10
-0.810139
20
5.66838
11
-0.810746
21
5.66819
0
LINE
8
BLACK
6
CONTINUOUS
10
-0.810746
20
5.66819
11
-0.822932
21
5.66819
0
LINE
8
BLACK
6
CONTINUOUS
10
-0.822932
20
5.66819
11
-0.823525
21
5.66838
0
LINE
8
BLACK
6
CONTINUOUS
10
-0.823525
20
5.66838
11
-0.824149
21
5.66838
0
LINE
8
BLACK
6
CONTINUOUS
10
-0.824149
20
5.66838
11
-0.824653
21
5.66874
0
LINE
8
BLACK
6
CONTINUOUS
10
-0.824653
20
5.66874
11
-0.825246
21
5.66894
0
LINE
8
BLACK
6
CONTINUOUS
10
-0.825246
20
5.66894
11
-0.825613
21
5.66944
0
LINE
8
BLACK
6
CONTINUOUS
10
-0.825613
20
5.66944
11
-0.826117
21
5.66981
0
LINE
8
BLACK
6
CONTINUOUS
10
-0.826117
20
5.66981
11
-0.82631
21
5.6704
0
LINE
8
BLACK
6
CONTINUOUS
10
-0.82631
20
5.6704
11
-0.826676
21
5.67091
0
LINE
8
BLACK
6
CONTINUOUS
10
-0.826676
20
5.67091
11
-0.826676
21
5.67153
0
LINE
8
BLACK
6
CONTINUOUS
10
-0.826676
20
5.67153
11
-0.826869
21
5.67212
0
LINE
8
BLACK
6
CONTINUOUS
10
-0.826869
20
5.67212
11
-0.826869
21
5.7233
0
LINE
8
BLACK
6
CONTINUOUS
10
-0.826869
20
5.7233
11
-0.826676
21
5.7239
0
LINE
8
BLACK
6
CONTINUOUS
10
-0.826676
20
5.7239
11
-0.826676
21
5.72452
0
LINE
8
BLACK
6
CONTINUOUS
10
-0.826676
20
5.72452
11
-0.82631
21
5.72502
0
LINE
8
BLACK
6
CONTINUOUS
10
-0.82631
20
5.72502
11
-0.826117
21
5.72562
0
LINE
8
BLACK
6
CONTINUOUS
10
-0.826117
20
5.72562
11
-0.825613
21
5.72598
0
LINE
8
BLACK
6
CONTINUOUS
10
-0.825613
20
5.72598
11
-0.825246
21
5.72649
0
LINE
8
BLACK
6
CONTINUOUS
10
-0.825246
20
5.72649
11
-0.824653
21
5.72668
0
LINE
8
BLACK
6
CONTINUOUS
10
-0.824653
20
5.72668
11
-0.824149
21
5.72705
0
LINE
8
BLACK
6
CONTINUOUS
10
-0.824149
20
5.72705
11
-0.823525
21
5.72705
0
LINE
8
BLACK
6
CONTINUOUS
10
-0.823525
20
5.72705
11
-0.822932
21
5.72724
0
LINE
8
BLACK
6
CONTINUOUS
10
-0.822932
20
5.72724
11
-0.810746
21
5.72724
0
LINE
8
BLACK
6
CONTINUOUS
10
-0.810746
20
5.72724
11
-0.810139
21
5.72704
0
LINE
8
BLACK
6
CONTINUOUS
10
-0.818995
20
5.71937
11
-0.818995
21
5.67606
0
LINE
8
BLACK
6
CONTINUOUS
10
-0.818995
20
5.67606
11
-0.811385
21
5.67606
0
LINE
8
BLACK
6
CONTINUOUS
10
-0.811385
20
5.67606
11
-0.805561
21
5.678
0
LINE
8
BLACK
6
CONTINUOUS
10
-0.805561
20
5.678
11
-0.801796
21
5.68177
0
LINE
8
BLACK
6
CONTINUOUS
10
-0.801796
20
5.68177
11
-0.799838
21
5.68568
0
LINE
8
BLACK
6
CONTINUOUS
10
-0.799838
20
5.68568
11
-0.797623
21
5.69454
0
LINE
8
BLACK
6
CONTINUOUS
10
-0.797623
20
5.69454
11
-0.797623
21
5.70088
0
LINE
8
BLACK
6
CONTINUOUS
10
-0.797623
20
5.70088
11
-0.799838
21
5.70974
0
LINE
8
BLACK
6
CONTINUOUS
10
-0.799838
20
5.70974
11
-0.801796
21
5.71366
0
LINE
8
BLACK
6
CONTINUOUS
10
-0.801796
20
5.71366
11
-0.805561
21
5.71743
0
LINE
8
BLACK
6
CONTINUOUS
10
-0.805561
20
5.71743
11
-0.811385
21
5.71937
0
LINE
8
BLACK
6
CONTINUOUS
10
-0.811385
20
5.71937
11
-0.818995
21
5.71937
0
LINE
8
BLACK
6
CONTINUOUS
10
-0.904934
20
5.72696
11
-0.904036
21
5.72682
0
LINE
8
BLACK
6
CONTINUOUS
10
-0.904036
20
5.72682
11
-0.899162
21
5.72439
0
LINE
8
BLACK
6
CONTINUOUS
10
-0.899162
20
5.72439
11
-0.897428
21
5.72268
0
LINE
8
BLACK
6
CONTINUOUS
10
-0.897428
20
5.72268
11
-0.897029
21
5.72028
0
LINE
8
BLACK
6
CONTINUOUS
10
-0.897029
20
5.72028
11
-0.898117
21
5.7181
0
LINE
8
BLACK
6
CONTINUOUS
10
-0.898117
20
5.7181
11
-0.900277
21
5.71698
0
LINE
8
BLACK
6
CONTINUOUS
10
-0.900277
20
5.71698
11
-0.902683
21
5.71734
0
LINE
8
BLACK
6
CONTINUOUS
10
-0.902683
20
5.71734
11
-0.906726
21
5.71937
0
LINE
8
BLACK
6
CONTINUOUS
10
-0.906726
20
5.71937
11
-0.91247
21
5.71937
0
LINE
8
BLACK
6
CONTINUOUS
10
-0.91247
20
5.71937
11
-0.918293
21
5.71743
0
LINE
8
BLACK
6
CONTINUOUS
10
-0.918293
20
5.71743
11
-0.922059
21
5.71366
0
LINE
8
BLACK
6
CONTINUOUS
10
-0.922059
20
5.71366
11
-0.924017
21
5.70974
0
LINE
8
BLACK
6
CONTINUOUS
10
-0.924017
20
5.70974
11
-0.926232
21
5.70088
0
LINE
8
BLACK
6
CONTINUOUS
10
-0.926232
20
5.70088
11
-0.926232
21
5.69454
0
LINE
8
BLACK
6
CONTINUOUS
10
-0.926232
20
5.69454
11
-0.924017
21
5.68568
0
LINE
8
BLACK
6
CONTINUOUS
10
-0.924017
20
5.68568
11
-0.922059
21
5.68177
0
LINE
8
BLACK
6
CONTINUOUS
10
-0.922059
20
5.68177
11
-0.918293
21
5.678
0
LINE
8
BLACK
6
CONTINUOUS
10
-0.918293
20
5.678
11
-0.91247
21
5.67606
0
LINE
8
BLACK
6
CONTINUOUS
10
-0.91247
20
5.67606
11
-0.908873
21
5.67606
0
LINE
8
BLACK
6
CONTINUOUS
10
-0.908873
20
5.67606
11
-0.903049
21
5.678
0
LINE
8
BLACK
6
CONTINUOUS
10
-0.903049
20
5.678
11
-0.902422
21
5.67863
0
LINE
8
BLACK
6
CONTINUOUS
10
-0.902422
20
5.67863
11
-0.902422
21
5.69012
0
LINE
8
BLACK
6
CONTINUOUS
10
-0.902422
20
5.69012
11
-0.908234
21
5.69012
0
LINE
8
BLACK
6
CONTINUOUS
10
-0.908234
20
5.69012
11
-0.910548
21
5.69087
0
LINE
8
BLACK
6
CONTINUOUS
10
-0.910548
20
5.69087
11
-0.911978
21
5.69284
0
LINE
8
BLACK
6
CONTINUOUS
10
-0.911978
20
5.69284
11
-0.911978
21
5.69527
0
LINE
8
BLACK
6
CONTINUOUS
10
-0.911978
20
5.69527
11
-0.910548
21
5.69724
0
LINE
8
BLACK
6
CONTINUOUS
10
-0.910548
20
5.69724
11
-0.908234
21
5.69799
0
LINE
8
BLACK
6
CONTINUOUS
10
-0.908234
20
5.69799
11
-0.898485
21
5.69799
0
LINE
8
BLACK
6
CONTINUOUS
10
-0.898485
20
5.69799
11
-0.897892
21
5.6978
0
LINE
8
BLACK
6
CONTINUOUS
10
-0.897892
20
5.6978
11
-0.897269
21
5.6978
0
LINE
8
BLACK
6
CONTINUOUS
10
-0.897269
20
5.6978
11
-0.896764
21
5.69743
0
LINE
8
BLACK
6
CONTINUOUS
10
-0.896764
20
5.69743
11
-0.896171
21
5.69724
0
LINE
8
BLACK
6
CONTINUOUS
10
-0.896171
20
5.69724
11
-0.895805
21
5.69674
0
LINE
8
BLACK
6
CONTINUOUS
10
-0.895805
20
5.69674
11
-0.8953
21
5.69637
0
LINE
8
BLACK
6
CONTINUOUS
10
-0.8953
20
5.69637
11
-0.895107
21
5.69578
0
LINE
8
BLACK
6
CONTINUOUS
10
-0.895107
20
5.69578
11
-0.894741
21
5.69527
0
LINE
8
BLACK
6
CONTINUOUS
10
-0.894741
20
5.69527
11
-0.894741
21
5.69465
0
LINE
8
BLACK
6
CONTINUOUS
10
-0.894741
20
5.69465
11
-0.894548
21
5.69406
0
LINE
8
BLACK
6
CONTINUOUS
10
-0.894548
20
5.69406
11
-0.894548
21
5.677
0
LINE
8
BLACK
6
CONTINUOUS
10
-0.894548
20
5.677
11
-0.894646
21
5.67669
0
LINE
8
BLACK
6
CONTINUOUS
10
-0.894646
20
5.67669
11
-0.894597
21
5.67638
0
LINE
8
BLACK
6
CONTINUOUS
10
-0.894597
20
5.67638
11
-0.895015
21
5.67556
0
LINE
8
BLACK
6
CONTINUOUS
10
-0.895015
20
5.67556
11
-0.8953
21
5.67468
0
LINE
8
BLACK
6
CONTINUOUS
10
-0.8953
20
5.67468
11
-0.895557
21
5.6745
0
LINE
8
BLACK
6
CONTINUOUS
10
-0.895557
20
5.6745
11
-0.895701
21
5.67421
0
LINE
8
BLACK
6
CONTINUOUS
10
-0.895701
20
5.67421
11
-0.898139
21
5.67178
0
LINE
8
BLACK
6
CONTINUOUS
10
-0.898139
20
5.67178
11
-0.898947
21
5.67136
0
LINE
8
BLACK
6
CONTINUOUS
10
-0.898947
20
5.67136
11
-0.899677
21
5.67082
0
LINE
8
BLACK
6
CONTINUOUS
10
-0.899677
20
5.67082
11
-0.906989
21
5.66839
0
LINE
8
BLACK
6
CONTINUOUS
10
-0.906989
20
5.66839
11
-0.907627
21
5.66838
0
LINE
8
BLACK
6
CONTINUOUS
10
-0.907627
20
5.66838
11
-0.908234
21
5.66819
0
LINE
8
BLACK
6
CONTINUOUS
10
-0.908234
20
5.66819
11
-0.913108
21
5.66819
0
LINE
8
BLACK
6
CONTINUOUS
10
-0.913108
20
5.66819
11
-0.913715
21
5.66838
0
LINE
8
BLACK
6
CONTINUOUS
10
-0.913715
20
5.66838
11
-0.914353
21
5.66839
0
LINE
8
BLACK
6
CONTINUOUS
10
-0.914353
20
5.66839
11
-0.921665
21
5.67082
0
LINE
8
BLACK
6
CONTINUOUS
10
-0.921665
20
5.67082
11
-0.922395
21
5.67136
0
LINE
8
BLACK
6
CONTINUOUS
10
-0.922395
20
5.67136
11
-0.923204
21
5.67178
0
LINE
8
BLACK
6
CONTINUOUS
10
-0.923204
20
5.67178
11
-0.928078
21
5.67665
0
LINE
8
BLACK
6
CONTINUOUS
10
-0.928078
20
5.67665
11
-0.928368
21
5.67722
0
LINE
8
BLACK
6
CONTINUOUS
10
-0.928368
20
5.67722
11
-0.928816
21
5.67767
0
LINE
8
BLACK
6
CONTINUOUS
10
-0.928816
20
5.67767
11
-0.931253
21
5.68255
0
LINE
8
BLACK
6
CONTINUOUS
10
-0.931253
20
5.68255
11
-0.931318
21
5.68298
0
LINE
8
BLACK
6
CONTINUOUS
10
-0.931318
20
5.68298
11
-0.931551
21
5.68335
0
LINE
8
BLACK
6
CONTINUOUS
10
-0.931551
20
5.68335
11
-0.933988
21
5.6931
0
LINE
8
BLACK
6
CONTINUOUS
10
-0.933988
20
5.6931
11
-0.933954
21
5.69359
0
LINE
8
BLACK
6
CONTINUOUS
10
-0.933954
20
5.69359
11
-0.934106
21
5.69406
0
LINE
8
BLACK
6
CONTINUOUS
10
-0.934106
20
5.69406
11
-0.934106
21
5.70137
0
LINE
8
BLACK
6
CONTINUOUS
10
-0.934106
20
5.70137
11
-0.933954
21
5.70183
0
LINE
8
BLACK
6
CONTINUOUS
10
-0.933954
20
5.70183
11
-0.933988
21
5.70232
0
LINE
8
BLACK
6
CONTINUOUS
10
-0.933988
20
5.70232
11
-0.931551
21
5.71207
0
LINE
8
BLACK
6
CONTINUOUS
10
-0.931551
20
5.71207
11
-0.931318
21
5.71244
0
LINE
8
BLACK
6
CONTINUOUS
10
-0.931318
20
5.71244
11
-0.931253
21
5.71288
0
LINE
8
BLACK
6
CONTINUOUS
10
-0.931253
20
5.71288
11
-0.928816
21
5.71775
0
LINE
8
BLACK
6
CONTINUOUS
10
-0.928816
20
5.71775
11
-0.928368
21
5.71821
0
LINE
8
BLACK
6
CONTINUOUS
10
-0.928368
20
5.71821
11
-0.928078
21
5.71878
0
LINE
8
BLACK
6
CONTINUOUS
10
-0.928078
20
5.71878
11
-0.923204
21
5.72365
0
LINE
8
BLACK
6
CONTINUOUS
10
-0.923204
20
5.72365
11
-0.922395
21
5.72406
0
LINE
8
BLACK
6
CONTINUOUS
10
-0.922395
20
5.72406
11
-0.921665
21
5.7246
0
LINE
8
BLACK
6
CONTINUOUS
10
-0.921665
20
5.7246
11
-0.914353
21
5.72704
0
LINE
8
BLACK
6
CONTINUOUS
10
-0.914353
20
5.72704
11
-0.913715
21
5.72704
0
LINE
8
BLACK
6
CONTINUOUS
10
-0.913715
20
5.72704
11
-0.913108
21
5.72724
0
LINE
8
BLACK
6
CONTINUOUS
10
-0.913108
20
5.72724
11
-0.905797
21
5.72724
0
LINE
8
BLACK
6
CONTINUOUS
10
-0.905797
20
5.72724
11
-0.904934
21
5.72696
0
LINE
8
BLACK
6
CONTINUOUS
10
-0.876346
20
5.72705
11
-0.875334
21
5.72705
0
LINE
8
BLACK
6
CONTINUOUS
10
-0.875334
20
5.72705
11
-0.875154
21
5.72692
0
LINE
8
BLACK
6
CONTINUOUS
10
-0.875154
20
5.72692
11
-0.874933
21
5.72689
0
LINE
8
BLACK
6
CONTINUOUS
10
-0.874933
20
5.72689
11
-0.874184
21
5.72621
0
LINE
8
BLACK
6
CONTINUOUS
10
-0.874184
20
5.72621
11
-0.873365
21
5.72562
0
LINE
8
BLACK
6
CONTINUOUS
10
-0.873365
20
5.72562
11
-0.873297
21
5.72541
0
LINE
8
BLACK
6
CONTINUOUS
10
-0.873297
20
5.72541
11
-0.873132
21
5.72526
0
LINE
8
BLACK
6
CONTINUOUS
10
-0.873132
20
5.72526
11
-0.851241
21
5.68695
0
LINE
8
BLACK
6
CONTINUOUS
10
-0.851241
20
5.68695
11
-0.851241
21
5.7233
0
LINE
8
BLACK
6
CONTINUOUS
10
-0.851241
20
5.7233
11
-0.850489
21
5.72562
0
LINE
8
BLACK
6
CONTINUOUS
10
-0.850489
20
5.72562
11
-0.848521
21
5.72705
0
LINE
8
BLACK
6
CONTINUOUS
10
-0.848521
20
5.72705
11
-0.846087
21
5.72705
0
LINE
8
BLACK
6
CONTINUOUS
10
-0.846087
20
5.72705
11
-0.844119
21
5.72562
0
LINE
8
BLACK
6
CONTINUOUS
10
-0.844119
20
5.72562
11
-0.843367
21
5.7233
0
LINE
8
BLACK
6
CONTINUOUS
10
-0.843367
20
5.7233
11
-0.843367
21
5.67212
0
LINE
8
BLACK
6
CONTINUOUS
10
-0.843367
20
5.67212
11
-0.843436
21
5.67191
0
LINE
8
BLACK
6
CONTINUOUS
10
-0.843436
20
5.67191
11
-0.843391
21
5.67169
0
LINE
8
BLACK
6
CONTINUOUS
10
-0.843391
20
5.67169
11
-0.843806
21
5.67077
0
LINE
8
BLACK
6
CONTINUOUS
10
-0.843806
20
5.67077
11
-0.844119
21
5.66981
0
LINE
8
BLACK
6
CONTINUOUS
10
-0.844119
20
5.66981
11
-0.844299
21
5.66968
0
LINE
8
BLACK
6
CONTINUOUS
10
-0.844299
20
5.66968
11
-0.84439
21
5.66947
0
LINE
8
BLACK
6
CONTINUOUS
10
-0.84439
20
5.66947
11
-0.845269
21
5.66897
0
LINE
8
BLACK
6
CONTINUOUS
10
-0.845269
20
5.66897
11
-0.846087
21
5.66838
0
LINE
8
BLACK
6
CONTINUOUS
10
-0.846087
20
5.66838
11
-0.84631
21
5.66838
0
LINE
8
BLACK
6
CONTINUOUS
10
-0.84631
20
5.66838
11
-0.846503
21
5.66827
0
LINE
8
BLACK
6
CONTINUOUS
10
-0.846503
20
5.66827
11
-0.847509
21
5.66838
0
LINE
8
BLACK
6
CONTINUOUS
10
-0.847509
20
5.66838
11
-0.848521
21
5.66838
0
LINE
8
BLACK
6
CONTINUOUS
10
-0.848521
20
5.66838
11
-0.848701
21
5.66851
0
LINE
8
BLACK
6
CONTINUOUS
10
-0.848701
20
5.66851
11
-0.848921
21
5.66853
0
LINE
8
BLACK
6
CONTINUOUS
10
-0.848921
20
5.66853
11
-0.84967
21
5.66921
0
LINE
8
BLACK
6
CONTINUOUS
10
-0.84967
20
5.66921
11
-0.850489
21
5.66981
0
LINE
8
BLACK
6
CONTINUOUS
10
-0.850489
20
5.66981
11
-0.850558
21
5.67002
0
LINE
8
BLACK
6
CONTINUOUS
10
-0.850558
20
5.67002
11
-0.850722
21
5.67017
0
LINE
8
BLACK
6
CONTINUOUS
10
-0.850722
20
5.67017
11
-0.872613
21
5.70848
0
LINE
8
BLACK
6
CONTINUOUS
10
-0.872613
20
5.70848
11
-0.872613
21
5.67212
0
LINE
8
BLACK
6
CONTINUOUS
10
-0.872613
20
5.67212
11
-0.873365
21
5.66981
0
LINE
8
BLACK
6
CONTINUOUS
10
-0.873365
20
5.66981
11
-0.875334
21
5.66838
0
LINE
8
BLACK
6
CONTINUOUS
10
-0.875334
20
5.66838
11
-0.877767
21
5.66838
0
LINE
8
BLACK
6
CONTINUOUS
10
-0.877767
20
5.66838
11
-0.879736
21
5.66981
0
LINE
8
BLACK
6
CONTINUOUS
10
-0.879736
20
5.66981
11
-0.880487
21
5.67212
0
LINE
8
BLACK
6
CONTINUOUS
10
-0.880487
20
5.67212
11
-0.880487
21
5.7233
0
LINE
8
BLACK
6
CONTINUOUS
10
-0.880487
20
5.7233
11
-0.880419
21
5.72351
0
LINE
8
BLACK
6
CONTINUOUS
10
-0.880419
20
5.72351
11
-0.880464
21
5.72373
0
LINE
8
BLACK
6
CONTINUOUS
10
-0.880464
20
5.72373
11
-0.880048
21
5.72465
0
LINE
8
BLACK
6
CONTINUOUS
10
-0.880048
20
5.72465
11
-0.879736
21
5.72562
0
LINE
8
BLACK
6
CONTINUOUS
10
-0.879736
20
5.72562
11
-0.879556
21
5.72575
0
LINE
8
BLACK
6
CONTINUOUS
10
-0.879556
20
5.72575
11
-0.879464
21
5.72595
0
LINE
8
BLACK
6
CONTINUOUS
10
-0.879464
20
5.72595
11
-0.878586
21
5.72645
0
LINE
8
BLACK
6
CONTINUOUS
10
-0.878586
20
5.72645
11
-0.877767
21
5.72705
0
LINE
8
BLACK
6
CONTINUOUS
10
-0.877767
20
5.72705
11
-0.877545
21
5.72705
0
LINE
8
BLACK
6
CONTINUOUS
10
-0.877545
20
5.72705
11
-0.877352
21
5.72716
0
LINE
8
BLACK
6
CONTINUOUS
10
-0.877352
20
5.72716
11
-0.876346
21
5.72705
0
LINE
8
BLACK
6
CONTINUOUS
10
-2.03738
20
5.81914
11
-2.03663
21
5.81683
0
LINE
8
BLACK
6
CONTINUOUS
10
-2.03663
20
5.81683
11
-2.03663
21
5.77632
0
LINE
8
BLACK
6
CONTINUOUS
10
-2.03663
20
5.77632
11
-2.03489
21
5.77285
0
LINE
8
BLACK
6
CONTINUOUS
10
-2.03489
20
5.77285
11
-2.03336
21
5.77132
0
LINE
8
BLACK
6
CONTINUOUS
10
-2.03336
20
5.77132
11
-2.02989
21
5.76958
0
LINE
8
BLACK
6
CONTINUOUS
10
-2.02989
20
5.76958
11
-2.022
21
5.76958
0
LINE
8
BLACK
6
CONTINUOUS
10
-2.022
20
5.76958
11
-2.01853
21
5.77132
0
LINE
8
BLACK
6
CONTINUOUS
10
-2.01853
20
5.77132
11
-2.01699
21
5.77285
0
LINE
8
BLACK
6
CONTINUOUS
10
-2.01699
20
5.77285
11
-2.01526
21
5.77632
0
LINE
8
BLACK
6
CONTINUOUS
10
-2.01526
20
5.77632
11
-2.01526
21
5.81683
0
LINE
8
BLACK
6
CONTINUOUS
10
-2.01526
20
5.81683
11
-2.0145
21
5.81914
0
LINE
8
BLACK
6
CONTINUOUS
10
-2.0145
20
5.81914
11
-2.01254
21
5.82057
0
LINE
8
BLACK
6
CONTINUOUS
10
-2.01254
20
5.82057
11
-2.0101
21
5.82057
0
LINE
8
BLACK
6
CONTINUOUS
10
-2.0101
20
5.82057
11
-2.00813
21
5.81914
0
LINE
8
BLACK
6
CONTINUOUS
10
-2.00813
20
5.81914
11
-2.00738
21
5.81683
0
LINE
8
BLACK
6
CONTINUOUS
10
-2.00738
20
5.81683
11
-2.00738
21
5.77539
0
LINE
8
BLACK
6
CONTINUOUS
10
-2.00738
20
5.77539
11
-2.00766
21
5.77453
0
LINE
8
BLACK
6
CONTINUOUS
10
-2.00766
20
5.77453
11
-2.0078
21
5.77363
0
LINE
8
BLACK
6
CONTINUOUS
10
-2.0078
20
5.77363
11
-2.01024
21
5.76876
0
LINE
8
BLACK
6
CONTINUOUS
10
-2.01024
20
5.76876
11
-2.01068
21
5.7683
0
LINE
8
BLACK
6
CONTINUOUS
10
-2.01068
20
5.7683
11
-2.01097
21
5.76774
0
LINE
8
BLACK
6
CONTINUOUS
10
-2.01097
20
5.76774
11
-2.01341
21
5.7653
0
LINE
8
BLACK
6
CONTINUOUS
10
-2.01341
20
5.7653
11
-2.01398
21
5.76501
0
LINE
8
BLACK
6
CONTINUOUS
10
-2.01398
20
5.76501
11
-2.01443
21
5.76456
0
LINE
8
BLACK
6
CONTINUOUS
10
-2.01443
20
5.76456
11
-2.01931
21
5.76212
0
LINE
8
BLACK
6
CONTINUOUS
10
-2.01931
20
5.76212
11
-2.02021
21
5.76199
0
LINE
8
BLACK
6
CONTINUOUS
10
-2.02021
20
5.76199
11
-2.02107
21
5.76171
0
LINE
8
BLACK
6
CONTINUOUS
10
-2.02107
20
5.76171
11
-2.03082
21
5.76171
0
LINE
8
BLACK
6
CONTINUOUS
10
-2.03082
20
5.76171
11
-2.03168
21
5.76199
0
LINE
8
BLACK
6
CONTINUOUS
10
-2.03168
20
5.76199
11
-2.03258
21
5.76212
0
LINE
8
BLACK
6
CONTINUOUS
10
-2.03258
20
5.76212
11
-2.03745
21
5.76456
0
LINE
8
BLACK
6
CONTINUOUS
10
-2.03745
20
5.76456
11
-2.03791
21
5.76501
0
LINE
8
BLACK
6
CONTINUOUS
10
-2.03791
20
5.76501
11
-2.03848
21
5.7653
0
LINE
8
BLACK
6
CONTINUOUS
10
-2.03848
20
5.7653
11
-2.04091
21
5.76774
0
LINE
8
BLACK
6
CONTINUOUS
10
-2.04091
20
5.76774
11
-2.0412
21
5.7683
0
LINE
8
BLACK
6
CONTINUOUS
10
-2.0412
20
5.7683
11
-2.04165
21
5.76876
0
LINE
8
BLACK
6
CONTINUOUS
10
-2.04165
20
5.76876
11
-2.04409
21
5.77363
0
LINE
8
BLACK
6
CONTINUOUS
10
-2.04409
20
5.77363
11
-2.04422
21
5.77453
0
LINE
8
BLACK
6
CONTINUOUS
10
-2.04422
20
5.77453
11
-2.0445
21
5.77539
0
LINE
8
BLACK
6
CONTINUOUS
10
-2.0445
20
5.77539
11
-2.0445
21
5.81683
0
LINE
8
BLACK
6
CONTINUOUS
10
-2.0445
20
5.81683
11
-2.04375
21
5.81914
0
LINE
8
BLACK
6
CONTINUOUS
10
-2.04375
20
5.81914
11
-2.04178
21
5.82057
0
LINE
8
BLACK
6
CONTINUOUS
10
-2.04178
20
5.82057
11
-2.03935
21
5.82057
0
LINE
8
BLACK
6
CONTINUOUS
10
-2.03935
20
5.82057
11
-2.03738
21
5.81914
0
LINE
8
BLACK
6
CONTINUOUS
10
-1.96684
20
5.82057
11
-1.96621
21
5.82056
0
LINE
8
BLACK
6
CONTINUOUS
10
-1.96621
20
5.82056
11
-1.95889
21
5.81812
0
LINE
8
BLACK
6
CONTINUOUS
10
-1.95889
20
5.81812
11
-1.95694
21
5.81668
0
LINE
8
BLACK
6
CONTINUOUS
10
-1.95694
20
5.81668
11
-1.9562
21
5.81436
0
LINE
8
BLACK
6
CONTINUOUS
10
-1.9562
20
5.81436
11
-1.95697
21
5.81205
0
LINE
8
BLACK
6
CONTINUOUS
10
-1.95697
20
5.81205
11
-1.95895
21
5.81064
0
LINE
8
BLACK
6
CONTINUOUS
10
-1.95895
20
5.81064
11
-1.96138
21
5.81065
0
LINE
8
BLACK
6
CONTINUOUS
10
-1.96138
20
5.81065
11
-1.96809
21
5.81289
0
LINE
8
BLACK
6
CONTINUOUS
10
-1.96809
20
5.81289
11
-1.97871
21
5.81289
0
LINE
8
BLACK
6
CONTINUOUS
10
-1.97871
20
5.81289
11
-1.98218
21
5.81115
0
LINE
8
BLACK
6
CONTINUOUS
10
-1.98218
20
5.81115
11
-1.98371
21
5.80962
0
LINE
8
BLACK
6
CONTINUOUS
10
-1.98371
20
5.80962
11
-1.98545
21
5.80615
0
LINE
8
BLACK
6
CONTINUOUS
10
-1.98545
20
5.80615
11
-1.98545
21
5.80313
0
LINE
8
BLACK
6
CONTINUOUS
10
-1.98545
20
5.80313
11
-1.98371
21
5.79966
0
LINE
8
BLACK
6
CONTINUOUS
10
-1.98371
20
5.79966
11
-1.98218
21
5.79813
0
LINE
8
BLACK
6
CONTINUOUS
10
-1.98218
20
5.79813
11
-1.97826
21
5.79617
0
LINE
8
BLACK
6
CONTINUOUS
10
-1.97826
20
5.79617
11
-1.96893
21
5.79384
0
LINE
8
BLACK
6
CONTINUOUS
10
-1.96893
20
5.79384
11
-1.96856
21
5.7936
0
LINE
8
BLACK
6
CONTINUOUS
10
-1.96856
20
5.7936
11
-1.96813
21
5.79354
0
LINE
8
BLACK
6
CONTINUOUS
10
-1.96813
20
5.79354
11
-1.96325
21
5.7911
0
LINE
8
BLACK
6
CONTINUOUS
10
-1.96325
20
5.7911
11
-1.9628
21
5.79065
0
LINE
8
BLACK
6
CONTINUOUS
10
-1.9628
20
5.79065
11
-1.96223
21
5.79036
0
LINE
8
BLACK
6
CONTINUOUS
10
-1.96223
20
5.79036
11
-1.95979
21
5.78793
0
LINE
8
BLACK
6
CONTINUOUS
10
-1.95979
20
5.78793
11
-1.9595
21
5.78736
0
LINE
8
BLACK
6
CONTINUOUS
10
-1.9595
20
5.78736
11
-1.95905
21
5.7869
0
LINE
8
BLACK
6
CONTINUOUS
10
-1.95905
20
5.7869
11
-1.95662
21
5.78203
0
LINE
8
BLACK
6
CONTINUOUS
10
-1.95662
20
5.78203
11
-1.95648
21
5.78113
0
LINE
8
BLACK
6
CONTINUOUS
10
-1.95648
20
5.78113
11
-1.9562
21
5.78027
0
LINE
8
BLACK
6
CONTINUOUS
10
-1.9562
20
5.78027
11
-1.9562
21
5.77539
0
LINE
8
BLACK
6
CONTINUOUS
10
-1.9562
20
5.77539
11
-1.95648
21
5.77453
0
LINE
8
BLACK
6
CONTINUOUS
10
-1.95648
20
5.77453
11
-1.95662
21
5.77363
0
LINE
8
BLACK
6
CONTINUOUS
10
-1.95662
20
5.77363
11
-1.95905
21
5.76876
0
LINE
8
BLACK
6
CONTINUOUS
10
-1.95905
20
5.76876
11
-1.9595
21
5.7683
0
LINE
8
BLACK
6
CONTINUOUS
10
-1.9595
20
5.7683
11
-1.95979
21
5.76774
0
LINE
8
BLACK
6
CONTINUOUS
10
-1.95979
20
5.76774
11
-1.96223
21
5.7653
0
LINE
8
BLACK
6
CONTINUOUS
10
-1.96223
20
5.7653
11
-1.9628
21
5.76501
0
LINE
8
BLACK
6
CONTINUOUS
10
-1.9628
20
5.76501
11
-1.96325
21
5.76456
0
LINE
8
BLACK
6
CONTINUOUS
10
-1.96325
20
5.76456
11
-1.96813
21
5.76212
0
LINE
8
BLACK
6
CONTINUOUS
10
-1.96813
20
5.76212
11
-1.96902
21
5.76199
0
LINE
8
BLACK
6
CONTINUOUS
10
-1.96902
20
5.76199
11
-1.96989
21
5.76171
0
LINE
8
BLACK
6
CONTINUOUS
10
-1.96989
20
5.76171
11
-1.98207
21
5.76171
0
LINE
8
BLACK
6
CONTINUOUS
10
-1.98207
20
5.76171
11
-1.98268
21
5.76191
0
LINE
8
BLACK
6
CONTINUOUS
10
-1.98268
20
5.76191
11
-1.98332
21
5.76191
0
LINE
8
BLACK
6
CONTINUOUS
10
-1.98332
20
5.76191
11
-1.99063
21
5.76435
0
LINE
8
BLACK
6
CONTINUOUS
10
-1.99063
20
5.76435
11
-1.99259
21
5.76579
0
LINE
8
BLACK
6
CONTINUOUS
10
-1.99259
20
5.76579
11
-1.99332
21
5.76811
0
LINE
8
BLACK
6
CONTINUOUS
10
-1.99332
20
5.76811
11
-1.99255
21
5.77042
0
LINE
8
BLACK
6
CONTINUOUS
10
-1.99255
20
5.77042
11
-1.99057
21
5.77184
0
LINE
8
BLACK
6
CONTINUOUS
10
-1.99057
20
5.77184
11
-1.98814
21
5.77182
0
LINE
8
BLACK
6
CONTINUOUS
10
-1.98814
20
5.77182
11
-1.98143
21
5.76958
0
LINE
8
BLACK
6
CONTINUOUS
10
-1.98143
20
5.76958
11
-1.97082
21
5.76958
0
LINE
8
BLACK
6
CONTINUOUS
10
-1.97082
20
5.76958
11
-1.96735
21
5.77132
0
LINE
8
BLACK
6
CONTINUOUS
10
-1.96735
20
5.77132
11
-1.96581
21
5.77285
0
LINE
8
BLACK
6
CONTINUOUS
10
-1.96581
20
5.77285
11
-1.96408
21
5.77632
0
LINE
8
BLACK
6
CONTINUOUS
10
-1.96408
20
5.77632
11
-1.96408
21
5.77934
0
LINE
8
BLACK
6
CONTINUOUS
10
-1.96408
20
5.77934
11
-1.96581
21
5.78281
0
LINE
8
BLACK
6
CONTINUOUS
10
-1.96581
20
5.78281
11
-1.96735
21
5.78434
0
LINE
8
BLACK
6
CONTINUOUS
10
-1.96735
20
5.78434
11
-1.97126
21
5.7863
0
LINE
8
BLACK
6
CONTINUOUS
10
-1.97126
20
5.7863
11
-1.98059
21
5.78864
0
LINE
8
BLACK
6
CONTINUOUS
10
-1.98059
20
5.78864
11
-1.98096
21
5.78887
0
LINE
8
BLACK
6
CONTINUOUS
10
-1.98096
20
5.78887
11
-1.9814
21
5.78893
0
LINE
8
BLACK
6
CONTINUOUS
10
-1.9814
20
5.78893
11
-1.98627
21
5.79137
0
LINE
8
BLACK
6
CONTINUOUS
10
-1.98627
20
5.79137
11
-1.98673
21
5.79182
0
LINE
8
BLACK
6
CONTINUOUS
10
-1.98673
20
5.79182
11
-1.98729
21
5.79211
0
LINE
8
BLACK
6
CONTINUOUS
10
-1.98729
20
5.79211
11
-1.98973
21
5.79455
0
LINE
8
BLACK
6
CONTINUOUS
10
-1.98973
20
5.79455
11
-1.99002
21
5.79511
0
LINE
8
BLACK
6
CONTINUOUS
10
-1.99002
20
5.79511
11
-1.99047
21
5.79557
0
LINE
8
BLACK
6
CONTINUOUS
10
-1.99047
20
5.79557
11
-1.99291
21
5.80044
0
LINE
8
BLACK
6
CONTINUOUS
10
-1.99291
20
5.80044
11
-1.99304
21
5.80134
0
LINE
8
BLACK
6
CONTINUOUS
10
-1.99304
20
5.80134
11
-1.99332
21
5.8022
0
LINE
8
BLACK
6
CONTINUOUS
10
-1.99332
20
5.8022
11
-1.99332
21
5.80708
0
LINE
8
BLACK
6
CONTINUOUS
10
-1.99332
20
5.80708
11
-1.99304
21
5.80794
0
LINE
8
BLACK
6
CONTINUOUS
10
-1.99304
20
5.80794
11
-1.99291
21
5.80884
0
LINE
8
BLACK
6
CONTINUOUS
10
-1.99291
20
5.80884
11
-1.99047
21
5.81371
0
LINE
8
BLACK
6
CONTINUOUS
10
-1.99047
20
5.81371
11
-1.99002
21
5.81417
0
LINE
8
BLACK
6
CONTINUOUS
10
-1.99002
20
5.81417
11
-1.98973
21
5.81474
0
LINE
8
BLACK
6
CONTINUOUS
10
-1.98973
20
5.81474
11
-1.98729
21
5.81717
0
LINE
8
BLACK
6
CONTINUOUS
10
-1.98729
20
5.81717
11
-1.98673
21
5.81746
0
LINE
8
BLACK
6
CONTINUOUS
10
-1.98673
20
5.81746
11
-1.98627
21
5.81791
0
LINE
8
BLACK
6
CONTINUOUS
10
-1.98627
20
5.81791
11
-1.9814
21
5.82035
0
LINE
8
BLACK
6
CONTINUOUS
10
-1.9814
20
5.82035
11
-1.9805
21
5.82048
0
LINE
8
BLACK
6
CONTINUOUS
10
-1.9805
20
5.82048
11
-1.97964
21
5.82076
0
LINE
8
BLACK
6
CONTINUOUS
10
-1.97964
20
5.82076
11
-1.96745
21
5.82076
0
LINE
8
BLACK
6
CONTINUOUS
10
-1.96745
20
5.82076
11
-1.96684
21
5.82057
0
LINE
8
BLACK
6
CONTINUOUS
10
-1.8791
20
5.82057
11
-1.87847
21
5.82056
0
LINE
8
BLACK
6
CONTINUOUS
10
-1.87847
20
5.82056
11
-1.87115
21
5.81812
0
LINE
8
BLACK
6
CONTINUOUS
10
-1.87115
20
5.81812
11
-1.8692
21
5.81668
0
LINE
8
BLACK
6
CONTINUOUS
10
-1.8692
20
5.81668
11
-1.86846
21
5.81436
0
LINE
8
BLACK
6
CONTINUOUS
10
-1.86846
20
5.81436
11
-1.86923
21
5.81205
0
LINE
8
BLACK
6
CONTINUOUS
10
-1.86923
20
5.81205
11
-1.87121
21
5.81064
0
LINE
8
BLACK
6
CONTINUOUS
10
-1.87121
20
5.81064
11
-1.87364
21
5.81065
0
LINE
8
BLACK
6
CONTINUOUS
10
-1.87364
20
5.81065
11
-1.88035
21
5.81289
0
LINE
8
BLACK
6
CONTINUOUS
10
-1.88035
20
5.81289
11
-1.89097
21
5.81289
0
LINE
8
BLACK
6
CONTINUOUS
10
-1.89097
20
5.81289
11
-1.89444
21
5.81115
0
LINE
8
BLACK
6
CONTINUOUS
10
-1.89444
20
5.81115
11
-1.89597
21
5.80962
0
LINE
8
BLACK
6
CONTINUOUS
10
-1.89597
20
5.80962
11
-1.89771
21
5.80615
0
LINE
8
BLACK
6
CONTINUOUS
10
-1.89771
20
5.80615
11
-1.89771
21
5.80313
0
LINE
8
BLACK
6
CONTINUOUS
10
-1.89771
20
5.80313
11
-1.89597
21
5.79966
0
LINE
8
BLACK
6
CONTINUOUS
10
-1.89597
20
5.79966
11
-1.89444
21
5.79813
0
LINE
8
BLACK
6
CONTINUOUS
10
-1.89444
20
5.79813
11
-1.89052
21
5.79617
0
LINE
8
BLACK
6
CONTINUOUS
10
-1.89052
20
5.79617
11
-1.88119
21
5.79384
0
LINE
8
BLACK
6
CONTINUOUS
10
-1.88119
20
5.79384
11
-1.88082
21
5.7936
0
LINE
8
BLACK
6
CONTINUOUS
10
-1.88082
20
5.7936
11
-1.88039
21
5.79354
0
LINE
8
BLACK
6
CONTINUOUS
10
-1.88039
20
5.79354
11
-1.87551
21
5.7911
0
LINE
8
BLACK
6
CONTINUOUS
10
-1.87551
20
5.7911
11
-1.87506
21
5.79065
0
LINE
8
BLACK
6
CONTINUOUS
10
-1.87506
20
5.79065
11
-1.87449
21
5.79036
0
LINE
8
BLACK
6
CONTINUOUS
10
-1.87449
20
5.79036
11
-1.87205
21
5.78793
0
LINE
8
BLACK
6
CONTINUOUS
10
-1.87205
20
5.78793
11
-1.87176
21
5.78736
0
LINE
8
BLACK
6
CONTINUOUS
10
-1.87176
20
5.78736
11
-1.87132
21
5.7869
0
LINE
8
BLACK
6
CONTINUOUS
10
-1.87132
20
5.7869
11
-1.86888
21
5.78203
0
LINE
8
BLACK
6
CONTINUOUS
10
-1.86888
20
5.78203
11
-1.86874
21
5.78113
0
LINE
8
BLACK
6
CONTINUOUS
10
-1.86874
20
5.78113
11
-1.86846
21
5.78027
0
LINE
8
BLACK
6
CONTINUOUS
10
-1.86846
20
5.78027
11
-1.86846
21
5.77539
0
LINE
8
BLACK
6
CONTINUOUS
10
-1.86846
20
5.77539
11
-1.86874
21
5.77453
0
LINE
8
BLACK
6
CONTINUOUS
10
-1.86874
20
5.77453
11
-1.86888
21
5.77363
0
LINE
8
BLACK
6
CONTINUOUS
10
-1.86888
20
5.77363
11
-1.87132
21
5.76876
0
LINE
8
BLACK
6
CONTINUOUS
10
-1.87132
20
5.76876
11
-1.87176
21
5.7683
0
LINE
8
BLACK
6
CONTINUOUS
10
-1.87176
20
5.7683
11
-1.87205
21
5.76774
0
LINE
8
BLACK
6
CONTINUOUS
10
-1.87205
20
5.76774
11
-1.87449
21
5.7653
0
LINE
8
BLACK
6
CONTINUOUS
10
-1.87449
20
5.7653
11
-1.87506
21
5.76501
0
LINE
8
BLACK
6
CONTINUOUS
10
-1.87506
20
5.76501
11
-1.87551
21
5.76456
0
LINE
8
BLACK
6
CONTINUOUS
10
-1.87551
20
5.76456
11
-1.88039
21
5.76212
0
LINE
8
BLACK
6
CONTINUOUS
10
-1.88039
20
5.76212
11
-1.88129
21
5.76199
0
LINE
8
BLACK
6
CONTINUOUS
10
-1.88129
20
5.76199
11
-1.88215
21
5.76171
0
LINE
8
BLACK
6
CONTINUOUS
10
-1.88215
20
5.76171
11
-1.89433
21
5.76171
0
LINE
8
BLACK
6
CONTINUOUS
10
-1.89433
20
5.76171
11
-1.89494
21
5.76191
0
LINE
8
BLACK
6
CONTINUOUS
10
-1.89494
20
5.76191
11
-1.89558
21
5.76191
0
LINE
8
BLACK
6
CONTINUOUS
10
-1.89558
20
5.76191
11
-1.90289
21
5.76435
0
LINE
8
BLACK
6
CONTINUOUS
10
-1.90289
20
5.76435
11
-1.90485
21
5.76579
0
LINE
8
BLACK
6
CONTINUOUS
10
-1.90485
20
5.76579
11
-1.90558
21
5.76811
0
LINE
8
BLACK
6
CONTINUOUS
10
-1.90558
20
5.76811
11
-1.90481
21
5.77042
0
LINE
8
BLACK
6
CONTINUOUS
10
-1.90481
20
5.77042
11
-1.90283
21
5.77184
0
LINE
8
BLACK
6
CONTINUOUS
10
-1.90283
20
5.77184
11
-1.9004
21
5.77182
0
LINE
8
BLACK
6
CONTINUOUS
10
-1.9004
20
5.77182
11
-1.8937
21
5.76958
0
LINE
8
BLACK
6
CONTINUOUS
10
-1.8937
20
5.76958
11
-1.88308
21
5.76958
0
LINE
8
BLACK
6
CONTINUOUS
10
-1.88308
20
5.76958
11
-1.87961
21
5.77132
0
LINE
8
BLACK
6
CONTINUOUS
10
-1.87961
20
5.77132
11
-1.87807
21
5.77285
0
LINE
8
BLACK
6
CONTINUOUS
10
-1.87807
20
5.77285
11
-1.87634
21
5.77632
0
LINE
8
BLACK
6
CONTINUOUS
10
-1.87634
20
5.77632
11
-1.87634
21
5.77934
0
LINE
8
BLACK
6
CONTINUOUS
10
-1.87634
20
5.77934
11
-1.87807
21
5.78281
0
LINE
8
BLACK
6
CONTINUOUS
10
-1.87807
20
5.78281
11
-1.87961
21
5.78434
0
LINE
8
BLACK
6
CONTINUOUS
10
-1.87961
20
5.78434
11
-1.88352
21
5.7863
0
LINE
8
BLACK
6
CONTINUOUS
10
-1.88352
20
5.7863
11
-1.89285
21
5.78864
0
LINE
8
BLACK
6
CONTINUOUS
10
-1.89285
20
5.78864
11
-1.89322
21
5.78887
0
LINE
8
BLACK
6
CONTINUOUS
10
-1.89322
20
5.78887
11
-1.89366
21
5.78893
0
LINE
8
BLACK
6
CONTINUOUS
10
-1.89366
20
5.78893
11
-1.89853
21
5.79137
0
LINE
8
BLACK
6
CONTINUOUS
10
-1.89853
20
5.79137
11
-1.89899
21
5.79182
0
LINE
8
BLACK
6
CONTINUOUS
10
-1.89899
20
5.79182
11
-1.89956
21
5.79211
0
LINE
8
BLACK
6
CONTINUOUS
10
-1.89956
20
5.79211
11
-1.90199
21
5.79455
0
LINE
8
BLACK
6
CONTINUOUS
10
-1.90199
20
5.79455
11
-1.90228
21
5.79511
0
LINE
8
BLACK
6
CONTINUOUS
10
-1.90228
20
5.79511
11
-1.90273
21
5.79557
0
LINE
8
BLACK
6
CONTINUOUS
10
-1.90273
20
5.79557
11
-1.90517
21
5.80044
0
LINE
8
BLACK
6
CONTINUOUS
10
-1.90517
20
5.80044
11
-1.9053
21
5.80134
0
LINE
8
BLACK
6
CONTINUOUS
10
-1.9053
20
5.80134
11
-1.90558
21
5.8022
0
LINE
8
BLACK
6
CONTINUOUS
10
-1.90558
20
5.8022
11
-1.90558
21
5.80708
0
LINE
8
BLACK
6
CONTINUOUS
10
-1.90558
20
5.80708
11
-1.9053
21
5.80794
0
LINE
8
BLACK
6
CONTINUOUS
10
-1.9053
20
5.80794
11
-1.90517
21
5.80884
0
LINE
8
BLACK
6
CONTINUOUS
10
-1.90517
20
5.80884
11
-1.90273
21
5.81371
0
LINE
8
BLACK
6
CONTINUOUS
10
-1.90273
20
5.81371
11
-1.90228
21
5.81417
0
LINE
8
BLACK
6
CONTINUOUS
10
-1.90228
20
5.81417
11
-1.90199
21
5.81474
0
LINE
8
BLACK
6
CONTINUOUS
10
-1.90199
20
5.81474
11
-1.89956
21
5.81717
0
LINE
8
BLACK
6
CONTINUOUS
10
-1.89956
20
5.81717
11
-1.89899
21
5.81746
0
LINE
8
BLACK
6
CONTINUOUS
10
-1.89899
20
5.81746
11
-1.89853
21
5.81791
0
LINE
8
BLACK
6
CONTINUOUS
10
-1.89853
20
5.81791
11
-1.89366
21
5.82035
0
LINE
8
BLACK
6
CONTINUOUS
10
-1.89366
20
5.82035
11
-1.89276
21
5.82048
0
LINE
8
BLACK
6
CONTINUOUS
10
-1.89276
20
5.82048
11
-1.8919
21
5.82076
0
LINE
8
BLACK
6
CONTINUOUS
10
-1.8919
20
5.82076
11
-1.87971
21
5.82076
0
LINE
8
BLACK
6
CONTINUOUS
10
-1.87971
20
5.82076
11
-1.8791
21
5.82057
0
LINE
8
BLACK
6
CONTINUOUS
10
-1.70093
20
5.82048
11
-1.70004
21
5.82035
0
LINE
8
BLACK
6
CONTINUOUS
10
-1.70004
20
5.82035
11
-1.69516
21
5.81791
0
LINE
8
BLACK
6
CONTINUOUS
10
-1.69516
20
5.81791
11
-1.69471
21
5.81746
0
LINE
8
BLACK
6
CONTINUOUS
10
-1.69471
20
5.81746
11
-1.69414
21
5.81717
0
LINE
8
BLACK
6
CONTINUOUS
10
-1.69414
20
5.81717
11
-1.6917
21
5.81474
0
LINE
8
BLACK
6
CONTINUOUS
10
-1.6917
20
5.81474
11
-1.69141
21
5.81417
0
LINE
8
BLACK
6
CONTINUOUS
10
-1.69141
20
5.81417
11
-1.69096
21
5.81371
0
LINE
8
BLACK
6
CONTINUOUS
10
-1.69096
20
5.81371
11
-1.68853
21
5.80884
0
LINE
8
BLACK
6
CONTINUOUS
10
-1.68853
20
5.80884
11
-1.68846
21
5.8084
0
LINE
8
BLACK
6
CONTINUOUS
10
-1.68846
20
5.8084
11
-1.68823
21
5.80803
0
LINE
8
BLACK
6
CONTINUOUS
10
-1.68823
20
5.80803
11
-1.68579
21
5.79828
0
LINE
8
BLACK
6
CONTINUOUS
10
-1.68579
20
5.79828
11
-1.68582
21
5.7978
0
LINE
8
BLACK
6
CONTINUOUS
10
-1.68582
20
5.7978
11
-1.68567
21
5.79733
0
LINE
8
BLACK
6
CONTINUOUS
10
-1.68567
20
5.79733
11
-1.68567
21
5.78514
0
LINE
8
BLACK
6
CONTINUOUS
10
-1.68567
20
5.78514
11
-1.68582
21
5.78468
0
LINE
8
BLACK
6
CONTINUOUS
10
-1.68582
20
5.78468
11
-1.68579
21
5.78419
0
LINE
8
BLACK
6
CONTINUOUS
10
-1.68579
20
5.78419
11
-1.68823
21
5.77444
0
LINE
8
BLACK
6
CONTINUOUS
10
-1.68823
20
5.77444
11
-1.68846
21
5.77407
0
LINE
8
BLACK
6
CONTINUOUS
10
-1.68846
20
5.77407
11
-1.68853
21
5.77363
0
LINE
8
BLACK
6
CONTINUOUS
10
-1.68853
20
5.77363
11
-1.69096
21
5.76876
0
LINE
8
BLACK
6
CONTINUOUS
10
-1.69096
20
5.76876
11
-1.69141
21
5.7683
0
LINE
8
BLACK
6
CONTINUOUS
10
-1.69141
20
5.7683
11
-1.6917
21
5.76774
0
LINE
8
BLACK
6
CONTINUOUS
10
-1.6917
20
5.76774
11
-1.69414
21
5.7653
0
LINE
8
BLACK
6
CONTINUOUS
10
-1.69414
20
5.7653
11
-1.69471
21
5.76501
0
LINE
8
BLACK
6
CONTINUOUS
10
-1.69471
20
5.76501
11
-1.69516
21
5.76456
0
LINE
8
BLACK
6
CONTINUOUS
10
-1.69516
20
5.76456
11
-1.70004
21
5.76212
0
LINE
8
BLACK
6
CONTINUOUS
10
-1.70004
20
5.76212
11
-1.70093
21
5.76199
0
LINE
8
BLACK
6
CONTINUOUS
10
-1.70093
20
5.76199
11
-1.7018
21
5.76171
0
LINE
8
BLACK
6
CONTINUOUS
10
-1.7018
20
5.76171
11
-1.70667
21
5.76171
0
LINE
8
BLACK
6
CONTINUOUS
10
-1.70667
20
5.76171
11
-1.70753
21
5.76199
0
LINE
8
BLACK
6
CONTINUOUS
10
-1.70753
20
5.76199
11
-1.70843
21
5.76212
0
LINE
8
BLACK
6
CONTINUOUS
10
-1.70843
20
5.76212
11
-1.71331
21
5.76456
0
LINE
8
BLACK
6
CONTINUOUS
10
-1.71331
20
5.76456
11
-1.71376
21
5.76501
0
LINE
8
BLACK
6
CONTINUOUS
10
-1.71376
20
5.76501
11
-1.71433
21
5.7653
0
LINE
8
BLACK
6
CONTINUOUS
10
-1.71433
20
5.7653
11
-1.71677
21
5.76774
0
LINE
8
BLACK
6
CONTINUOUS
10
-1.71677
20
5.76774
11
-1.71706
21
5.7683
0
LINE
8
BLACK
6
CONTINUOUS
10
-1.71706
20
5.7683
11
-1.7175
21
5.76876
0
LINE
8
BLACK
6
CONTINUOUS
10
-1.7175
20
5.76876
11
-1.71994
21
5.77363
0
LINE
8
BLACK
6
CONTINUOUS
10
-1.71994
20
5.77363
11
-1.72001
21
5.77407
0
LINE
8
BLACK
6
CONTINUOUS
10
-1.72001
20
5.77407
11
-1.72024
21
5.77444
0
LINE
8
BLACK
6
CONTINUOUS
10
-1.72024
20
5.77444
11
-1.72268
21
5.78419
0
LINE
8
BLACK
6
CONTINUOUS
10
-1.72268
20
5.78419
11
-1.72264
21
5.78468
0
LINE
8
BLACK
6
CONTINUOUS
10
-1.72264
20
5.78468
11
-1.72279
21
5.78514
0
LINE
8
BLACK
6
CONTINUOUS
10
-1.72279
20
5.78514
11
-1.72279
21
5.79733
0
LINE
8
BLACK
6
CONTINUOUS
10
-1.72279
20
5.79733
11
-1.72264
21
5.7978
0
LINE
8
BLACK
6
CONTINUOUS
10
-1.72264
20
5.7978
11
-1.72268
21
5.79828
0
LINE
8
BLACK
6
CONTINUOUS
10
-1.72268
20
5.79828
11
-1.72024
21
5.80803
0
LINE
8
BLACK
6
CONTINUOUS
10
-1.72024
20
5.80803
11
-1.72001
21
5.8084
0
LINE
8
BLACK
6
CONTINUOUS
10
-1.72001
20
5.8084
11
-1.71994
21
5.80884
0
LINE
8
BLACK
6
CONTINUOUS
10
-1.71994
20
5.80884
11
-1.7175
21
5.81371
0
LINE
8
BLACK
6
CONTINUOUS
10
-1.7175
20
5.81371
11
-1.71706
21
5.81417
0
LINE
8
BLACK
6
CONTINUOUS
10
-1.71706
20
5.81417
11
-1.71677
21
5.81474
0
LINE
8
BLACK
6
CONTINUOUS
10
-1.71677
20
5.81474
11
-1.71433
21
5.81717
0
LINE
8
BLACK
6
CONTINUOUS
10
-1.71433
20
5.81717
11
-1.71376
21
5.81746
0
LINE
8
BLACK
6
CONTINUOUS
10
-1.71376
20
5.81746
11
-1.71331
21
5.81791
0
LINE
8
BLACK
6
CONTINUOUS
10
-1.71331
20
5.81791
11
-1.70843
21
5.82035
0
LINE
8
BLACK
6
CONTINUOUS
10
-1.70843
20
5.82035
11
-1.70753
21
5.82048
0
LINE
8
BLACK
6
CONTINUOUS
10
-1.70753
20
5.82048
11
-1.70667
21
5.82076
0
LINE
8
BLACK
6
CONTINUOUS
10
-1.70667
20
5.82076
11
-1.7018
21
5.82076
0
LINE
8
BLACK
6
CONTINUOUS
10
-1.7018
20
5.82076
11
-1.70093
21
5.82048
0
LINE
8
BLACK
6
CONTINUOUS
10
-1.70574
20
5.81289
11
-1.70921
21
5.81115
0
LINE
8
BLACK
6
CONTINUOUS
10
-1.70921
20
5.81115
11
-1.71075
21
5.80962
0
LINE
8
BLACK
6
CONTINUOUS
10
-1.71075
20
5.80962
11
-1.7127
21
5.8057
0
LINE
8
BLACK
6
CONTINUOUS
10
-1.7127
20
5.8057
11
-1.71492
21
5.79684
0
LINE
8
BLACK
6
CONTINUOUS
10
-1.71492
20
5.79684
11
-1.71492
21
5.78563
0
LINE
8
BLACK
6
CONTINUOUS
10
-1.71492
20
5.78563
11
-1.7127
21
5.77677
0
LINE
8
BLACK
6
CONTINUOUS
10
-1.7127
20
5.77677
11
-1.71075
21
5.77285
0
LINE
8
BLACK
6
CONTINUOUS
10
-1.71075
20
5.77285
11
-1.70921
21
5.77132
0
LINE
8
BLACK
6
CONTINUOUS
10
-1.70921
20
5.77132
11
-1.70574
21
5.76958
0
LINE
8
BLACK
6
CONTINUOUS
10
-1.70574
20
5.76958
11
-1.70273
21
5.76958
0
LINE
8
BLACK
6
CONTINUOUS
10
-1.70273
20
5.76958
11
-1.69925
21
5.77132
0
LINE
8
BLACK
6
CONTINUOUS
10
-1.69925
20
5.77132
11
-1.69772
21
5.77285
0
LINE
8
BLACK
6
CONTINUOUS
10
-1.69772
20
5.77285
11
-1.69576
21
5.77677
0
LINE
8
BLACK
6
CONTINUOUS
10
-1.69576
20
5.77677
11
-1.69355
21
5.78563
0
LINE
8
BLACK
6
CONTINUOUS
10
-1.69355
20
5.78563
11
-1.69355
21
5.79684
0
LINE
8
BLACK
6
CONTINUOUS
10
-1.69355
20
5.79684
11
-1.69576
21
5.8057
0
LINE
8
BLACK
6
CONTINUOUS
10
-1.69576
20
5.8057
11
-1.69772
21
5.80962
0
LINE
8
BLACK
6
CONTINUOUS
10
-1.69772
20
5.80962
11
-1.69925
21
5.81115
0
LINE
8
BLACK
6
CONTINUOUS
10
-1.69925
20
5.81115
11
-1.70273
21
5.81289
0
LINE
8
BLACK
6
CONTINUOUS
10
-1.70273
20
5.81289
11
-1.70574
21
5.81289
0
LINE
8
BLACK
6
CONTINUOUS
10
-1.65436
20
5.82057
11
-1.65427
21
5.82057
0
LINE
8
BLACK
6
CONTINUOUS
10
-1.65427
20
5.82057
11
-1.65335
21
5.8199
0
LINE
8
BLACK
6
CONTINUOUS
10
-1.65335
20
5.8199
11
-1.6524
21
5.81927
0
LINE
8
BLACK
6
CONTINUOUS
10
-1.6524
20
5.81927
11
-1.65237
21
5.81919
0
LINE
8
BLACK
6
CONTINUOUS
10
-1.65237
20
5.81919
11
-1.6523
21
5.81914
0
LINE
8
BLACK
6
CONTINUOUS
10
-1.6523
20
5.81914
11
-1.65195
21
5.81806
0
LINE
8
BLACK
6
CONTINUOUS
10
-1.65195
20
5.81806
11
-1.65156
21
5.81699
0
LINE
8
BLACK
6
CONTINUOUS
10
-1.65156
20
5.81699
11
-1.65158
21
5.81691
0
LINE
8
BLACK
6
CONTINUOUS
10
-1.65158
20
5.81691
11
-1.65155
21
5.81683
0
LINE
8
BLACK
6
CONTINUOUS
10
-1.65155
20
5.81683
11
-1.65155
21
5.76958
0
LINE
8
BLACK
6
CONTINUOUS
10
-1.65155
20
5.76958
11
-1.64087
21
5.76958
0
LINE
8
BLACK
6
CONTINUOUS
10
-1.64087
20
5.76958
11
-1.63855
21
5.76883
0
LINE
8
BLACK
6
CONTINUOUS
10
-1.63855
20
5.76883
11
-1.63712
21
5.76686
0
LINE
8
BLACK
6
CONTINUOUS
10
-1.63712
20
5.76686
11
-1.63712
21
5.76443
0
LINE
8
BLACK
6
CONTINUOUS
10
-1.63712
20
5.76443
11
-1.63855
21
5.76246
0
LINE
8
BLACK
6
CONTINUOUS
10
-1.63855
20
5.76246
11
-1.64087
21
5.76171
0
LINE
8
BLACK
6
CONTINUOUS
10
-1.64087
20
5.76171
11
-1.67011
21
5.76171
0
LINE
8
BLACK
6
CONTINUOUS
10
-1.67011
20
5.76171
11
-1.67243
21
5.76246
0
LINE
8
BLACK
6
CONTINUOUS
10
-1.67243
20
5.76246
11
-1.67386
21
5.76443
0
LINE
8
BLACK
6
CONTINUOUS
10
-1.67386
20
5.76443
11
-1.67386
21
5.76686
0
LINE
8
BLACK
6
CONTINUOUS
10
-1.67386
20
5.76686
11
-1.67243
21
5.76883
0
LINE
8
BLACK
6
CONTINUOUS
10
-1.67243
20
5.76883
11
-1.67011
21
5.76958
0
LINE
8
BLACK
6
CONTINUOUS
10
-1.67011
20
5.76958
11
-1.65943
21
5.76958
0
LINE
8
BLACK
6
CONTINUOUS
10
-1.65943
20
5.76958
11
-1.65943
21
5.80488
0
LINE
8
BLACK
6
CONTINUOUS
10
-1.65943
20
5.80488
11
-1.66245
21
5.80186
0
LINE
8
BLACK
6
CONTINUOUS
10
-1.66245
20
5.80186
11
-1.66302
21
5.80157
0
LINE
8
BLACK
6
CONTINUOUS
10
-1.66302
20
5.80157
11
-1.66348
21
5.80112
0
LINE
8
BLACK
6
CONTINUOUS
10
-1.66348
20
5.80112
11
-1.66835
21
5.79868
0
LINE
8
BLACK
6
CONTINUOUS
10
-1.66835
20
5.79868
11
-1.67076
21
5.79832
0
LINE
8
BLACK
6
CONTINUOUS
10
-1.67076
20
5.79832
11
-1.67292
21
5.79944
0
LINE
8
BLACK
6
CONTINUOUS
10
-1.67292
20
5.79944
11
-1.67401
21
5.80162
0
LINE
8
BLACK
6
CONTINUOUS
10
-1.67401
20
5.80162
11
-1.67361
21
5.80402
0
LINE
8
BLACK
6
CONTINUOUS
10
-1.67361
20
5.80402
11
-1.67187
21
5.80573
0
LINE
8
BLACK
6
CONTINUOUS
10
-1.67187
20
5.80573
11
-1.66757
21
5.80788
0
LINE
8
BLACK
6
CONTINUOUS
10
-1.66757
20
5.80788
11
-1.66342
21
5.81202
0
LINE
8
BLACK
6
CONTINUOUS
10
-1.66342
20
5.81202
11
-1.65877
21
5.81901
0
LINE
8
BLACK
6
CONTINUOUS
10
-1.65877
20
5.81901
11
-1.6587
21
5.81906
0
LINE
8
BLACK
6
CONTINUOUS
10
-1.6587
20
5.81906
11
-1.65867
21
5.81914
0
LINE
8
BLACK
6
CONTINUOUS
10
-1.65867
20
5.81914
11
-1.65775
21
5.81981
0
LINE
8
BLACK
6
CONTINUOUS
10
-1.65775
20
5.81981
11
-1.65686
21
5.82052
0
LINE
8
BLACK
6
CONTINUOUS
10
-1.65686
20
5.82052
11
-1.65677
21
5.82052
0
LINE
8
BLACK
6
CONTINUOUS
10
-1.65677
20
5.82052
11
-1.65671
21
5.82057
0
LINE
8
BLACK
6
CONTINUOUS
10
-1.65671
20
5.82057
11
-1.65557
21
5.82057
0
LINE
8
BLACK
6
CONTINUOUS
10
-1.65557
20
5.82057
11
-1.65442
21
5.82062
0
LINE
8
BLACK
6
CONTINUOUS
10
-1.65442
20
5.82062
11
-1.65436
21
5.82057
0
LINE
8
BLACK
6
CONTINUOUS
10
-1.60918
20
5.82075
11
-1.60915
21
5.82076
0
LINE
8
BLACK
6
CONTINUOUS
10
-1.60915
20
5.82076
11
-1.60803
21
5.82039
0
LINE
8
BLACK
6
CONTINUOUS
10
-1.60803
20
5.82039
11
-1.60689
21
5.82003
0
LINE
8
BLACK
6
CONTINUOUS
10
-1.60689
20
5.82003
11
-1.60687
21
5.82
0
LINE
8
BLACK
6
CONTINUOUS
10
-1.60687
20
5.82
11
-1.60684
21
5.81999
0
LINE
8
BLACK
6
CONTINUOUS
10
-1.60684
20
5.81999
11
-1.60615
21
5.81903
0
LINE
8
BLACK
6
CONTINUOUS
10
-1.60615
20
5.81903
11
-1.60545
21
5.81807
0
LINE
8
BLACK
6
CONTINUOUS
10
-1.60545
20
5.81807
11
-1.58839
21
5.76689
0
LINE
8
BLACK
6
CONTINUOUS
10
-1.58839
20
5.76689
11
-1.58837
21
5.76446
0
LINE
8
BLACK
6
CONTINUOUS
10
-1.58837
20
5.76446
11
-1.58978
21
5.76248
0
LINE
8
BLACK
6
CONTINUOUS
10
-1.58978
20
5.76248
11
-1.59209
21
5.76171
0
LINE
8
BLACK
6
CONTINUOUS
10
-1.59209
20
5.76171
11
-1.59441
21
5.76244
0
LINE
8
BLACK
6
CONTINUOUS
10
-1.59441
20
5.76244
11
-1.59586
21
5.7644
0
LINE
8
BLACK
6
CONTINUOUS
10
-1.59586
20
5.7644
11
-1.59983
21
5.77633
0
LINE
8
BLACK
6
CONTINUOUS
10
-1.59983
20
5.77633
11
-1.61853
21
5.77633
0
LINE
8
BLACK
6
CONTINUOUS
10
-1.61853
20
5.77633
11
-1.62251
21
5.7644
0
LINE
8
BLACK
6
CONTINUOUS
10
-1.62251
20
5.7644
11
-1.62395
21
5.76244
0
LINE
8
BLACK
6
CONTINUOUS
10
-1.62395
20
5.76244
11
-1.62627
21
5.76171
0
LINE
8
BLACK
6
CONTINUOUS
10
-1.62627
20
5.76171
11
-1.62858
21
5.76248
0
LINE
8
BLACK
6
CONTINUOUS
10
-1.62858
20
5.76248
11
-1.63
21
5.76446
0
LINE
8
BLACK
6
CONTINUOUS
10
-1.63
20
5.76446
11
-1.62998
21
5.76689
0
LINE
8
BLACK
6
CONTINUOUS
10
-1.62998
20
5.76689
11
-1.61292
21
5.81807
0
LINE
8
BLACK
6
CONTINUOUS
10
-1.61292
20
5.81807
11
-1.61221
21
5.81903
0
LINE
8
BLACK
6
CONTINUOUS
10
-1.61221
20
5.81903
11
-1.61152
21
5.81999
0
LINE
8
BLACK
6
CONTINUOUS
10
-1.61152
20
5.81999
11
-1.61149
21
5.82
0
LINE
8
BLACK
6
CONTINUOUS
10
-1.61149
20
5.82
11
-1.61147
21
5.82003
0
LINE
8
BLACK
6
CONTINUOUS
10
-1.61147
20
5.82003
11
-1.61034
21
5.82039
0
LINE
8
BLACK
6
CONTINUOUS
10
-1.61034
20
5.82039
11
-1.60921
21
5.82076
0
LINE
8
BLACK
6
CONTINUOUS
10
-1.60921
20
5.82076
11
-1.60918
21
5.82075
0
LINE
8
BLACK
6
CONTINUOUS
10
-1.61591
20
5.78421
11
-1.60246
21
5.78421
0
LINE
8
BLACK
6
CONTINUOUS
10
-1.60246
20
5.78421
11
-1.60918
21
5.80438
0
LINE
8
BLACK
6
CONTINUOUS
10
-1.60918
20
5.80438
11
-1.61591
21
5.78421
0
LINE
8
BLACK
6
CONTINUOUS
10
-1.73996
20
5.82057
11
-1.73957
21
5.82057
0
LINE
8
BLACK
6
CONTINUOUS
10
-1.73957
20
5.82057
11
-1.73888
21
5.82007
0
LINE
8
BLACK
6
CONTINUOUS
10
-1.73888
20
5.82007
11
-1.73811
21
5.81971
0
LINE
8
BLACK
6
CONTINUOUS
10
-1.73811
20
5.81971
11
-1.73792
21
5.81937
0
LINE
8
BLACK
6
CONTINUOUS
10
-1.73792
20
5.81937
11
-1.73761
21
5.81914
0
LINE
8
BLACK
6
CONTINUOUS
10
-1.73761
20
5.81914
11
-1.73734
21
5.81833
0
LINE
8
BLACK
6
CONTINUOUS
10
-1.73734
20
5.81833
11
-1.73693
21
5.81758
0
LINE
8
BLACK
6
CONTINUOUS
10
-1.73693
20
5.81758
11
-1.73697
21
5.81719
0
LINE
8
BLACK
6
CONTINUOUS
10
-1.73697
20
5.81719
11
-1.73685
21
5.81683
0
LINE
8
BLACK
6
CONTINUOUS
10
-1.73685
20
5.81683
11
-1.73685
21
5.76565
0
LINE
8
BLACK
6
CONTINUOUS
10
-1.73685
20
5.76565
11
-1.73761
21
5.76333
0
LINE
8
BLACK
6
CONTINUOUS
10
-1.73761
20
5.76333
11
-1.73957
21
5.7619
0
LINE
8
BLACK
6
CONTINUOUS
10
-1.73957
20
5.7619
11
-1.74201
21
5.7619
0
LINE
8
BLACK
6
CONTINUOUS
10
-1.74201
20
5.7619
11
-1.74398
21
5.76333
0
LINE
8
BLACK
6
CONTINUOUS
10
-1.74398
20
5.76333
11
-1.74473
21
5.76565
0
LINE
8
BLACK
6
CONTINUOUS
10
-1.74473
20
5.76565
11
-1.74473
21
5.79908
0
LINE
8
BLACK
6
CONTINUOUS
10
-1.74473
20
5.79908
11
-1.75428
21
5.7786
0
LINE
8
BLACK
6
CONTINUOUS
10
-1.75428
20
5.7786
11
-1.7548
21
5.77805
0
LINE
8
BLACK
6
CONTINUOUS
10
-1.7548
20
5.77805
11
-1.75517
21
5.77739
0
LINE
8
BLACK
6
CONTINUOUS
10
-1.75517
20
5.77739
11
-1.75561
21
5.77718
0
LINE
8
BLACK
6
CONTINUOUS
10
-1.75561
20
5.77718
11
-1.75594
21
5.77683
0
LINE
8
BLACK
6
CONTINUOUS
10
-1.75594
20
5.77683
11
-1.75669
21
5.77668
0
LINE
8
BLACK
6
CONTINUOUS
10
-1.75669
20
5.77668
11
-1.75737
21
5.77636
0
LINE
8
BLACK
6
CONTINUOUS
10
-1.75737
20
5.77636
11
-1.75785
21
5.77645
0
LINE
8
BLACK
6
CONTINUOUS
10
-1.75785
20
5.77645
11
-1.75833
21
5.77636
0
LINE
8
BLACK
6
CONTINUOUS
10
-1.75833
20
5.77636
11
-1.75902
21
5.77668
0
LINE
8
BLACK
6
CONTINUOUS
10
-1.75902
20
5.77668
11
-1.75976
21
5.77683
0
LINE
8
BLACK
6
CONTINUOUS
10
-1.75976
20
5.77683
11
-1.76009
21
5.77718
0
LINE
8
BLACK
6
CONTINUOUS
10
-1.76009
20
5.77718
11
-1.76054
21
5.77739
0
LINE
8
BLACK
6
CONTINUOUS
10
-1.76054
20
5.77739
11
-1.7609
21
5.77805
0
LINE
8
BLACK
6
CONTINUOUS
10
-1.7609
20
5.77805
11
-1.76142
21
5.7786
0
LINE
8
BLACK
6
CONTINUOUS
10
-1.76142
20
5.7786
11
-1.77097
21
5.79908
0
LINE
8
BLACK
6
CONTINUOUS
10
-1.77097
20
5.79908
11
-1.77097
21
5.76565
0
LINE
8
BLACK
6
CONTINUOUS
10
-1.77097
20
5.76565
11
-1.77173
21
5.76333
0
LINE
8
BLACK
6
CONTINUOUS
10
-1.77173
20
5.76333
11
-1.7737
21
5.7619
0
LINE
8
BLACK
6
CONTINUOUS
10
-1.7737
20
5.7619
11
-1.77613
21
5.7619
0
LINE
8
BLACK
6
CONTINUOUS
10
-1.77613
20
5.7619
11
-1.7781
21
5.76333
0
LINE
8
BLACK
6
CONTINUOUS
10
-1.7781
20
5.76333
11
-1.77885
21
5.76565
0
LINE
8
BLACK
6
CONTINUOUS
10
-1.77885
20
5.76565
11
-1.77885
21
5.81683
0
LINE
8
BLACK
6
CONTINUOUS
10
-1.77885
20
5.81683
11
-1.77873
21
5.81719
0
LINE
8
BLACK
6
CONTINUOUS
10
-1.77873
20
5.81719
11
-1.77878
21
5.81758
0
LINE
8
BLACK
6
CONTINUOUS
10
-1.77878
20
5.81758
11
-1.77836
21
5.81833
0
LINE
8
BLACK
6
CONTINUOUS
10
-1.77836
20
5.81833
11
-1.7781
21
5.81914
0
LINE
8
BLACK
6
CONTINUOUS
10
-1.7781
20
5.81914
11
-1.77778
21
5.81937
0
LINE
8
BLACK
6
CONTINUOUS
10
-1.77778
20
5.81937
11
-1.7776
21
5.81971
0
LINE
8
BLACK
6
CONTINUOUS
10
-1.7776
20
5.81971
11
-1.77682
21
5.82007
0
LINE
8
BLACK
6
CONTINUOUS
10
-1.77682
20
5.82007
11
-1.77613
21
5.82057
0
LINE
8
BLACK
6
CONTINUOUS
10
-1.77613
20
5.82057
11
-1.77574
21
5.82057
0
LINE
8
BLACK
6
CONTINUOUS
10
-1.77574
20
5.82057
11
-1.77539
21
5.82073
0
LINE
8
BLACK
6
CONTINUOUS
10
-1.77539
20
5.82073
11
-1.77455
21
5.82057
0
LINE
8
BLACK
6
CONTINUOUS
10
-1.77455
20
5.82057
11
-1.7737
21
5.82057
0
LINE
8
BLACK
6
CONTINUOUS
10
-1.7737
20
5.82057
11
-1.77338
21
5.82034
0
LINE
8
BLACK
6
CONTINUOUS
10
-1.77338
20
5.82034
11
-1.773
21
5.82027
0
LINE
8
BLACK
6
CONTINUOUS
10
-1.773
20
5.82027
11
-1.77242
21
5.81964
0
LINE
8
BLACK
6
CONTINUOUS
10
-1.77242
20
5.81964
11
-1.77173
21
5.81914
0
LINE
8
BLACK
6
CONTINUOUS
10
-1.77173
20
5.81914
11
-1.77161
21
5.81877
0
LINE
8
BLACK
6
CONTINUOUS
10
-1.77161
20
5.81877
11
-1.77134
21
5.81849
0
LINE
8
BLACK
6
CONTINUOUS
10
-1.77134
20
5.81849
11
-1.75785
21
5.78958
0
LINE
8
BLACK
6
CONTINUOUS
10
-1.75785
20
5.78958
11
-1.74436
21
5.81849
0
LINE
8
BLACK
6
CONTINUOUS
10
-1.74436
20
5.81849
11
-1.7441
21
5.81877
0
LINE
8
BLACK
6
CONTINUOUS
10
-1.7441
20
5.81877
11
-1.74398
21
5.81914
0
LINE
8
BLACK
6
CONTINUOUS
10
-1.74398
20
5.81914
11
-1.74328
21
5.81964
0
LINE
8
BLACK
6
CONTINUOUS
10
-1.74328
20
5.81964
11
-1.7427
21
5.82027
0
LINE
8
BLACK
6
CONTINUOUS
10
-1.7427
20
5.82027
11
-1.74232
21
5.82034
0
LINE
8
BLACK
6
CONTINUOUS
10
-1.74232
20
5.82034
11
-1.74201
21
5.82057
0
LINE
8
BLACK
6
CONTINUOUS
10
-1.74201
20
5.82057
11
-1.74115
21
5.82057
0
LINE
8
BLACK
6
CONTINUOUS
10
-1.74115
20
5.82057
11
-1.74031
21
5.82073
0
LINE
8
BLACK
6
CONTINUOUS
10
-1.74031
20
5.82073
11
-1.73996
21
5.82057
0
LINE
8
BLACK
6
CONTINUOUS
10
-1.91396
20
5.82001
11
-1.91252
21
5.81804
0
LINE
8
BLACK
6
CONTINUOUS
10
-1.91252
20
5.81804
11
-1.91252
21
5.81561
0
LINE
8
BLACK
6
CONTINUOUS
10
-1.91252
20
5.81561
11
-1.91396
21
5.81364
0
LINE
8
BLACK
6
CONTINUOUS
10
-1.91396
20
5.81364
11
-1.91627
21
5.81289
0
LINE
8
BLACK
6
CONTINUOUS
10
-1.91627
20
5.81289
11
-1.92696
21
5.81289
0
LINE
8
BLACK
6
CONTINUOUS
10
-1.92696
20
5.81289
11
-1.92696
21
5.76565
0
LINE
8
BLACK
6
CONTINUOUS
10
-1.92696
20
5.76565
11
-1.92771
21
5.76333
0
LINE
8
BLACK
6
CONTINUOUS
10
-1.92771
20
5.76333
11
-1.92968
21
5.7619
0
LINE
8
BLACK
6
CONTINUOUS
10
-1.92968
20
5.7619
11
-1.93211
21
5.7619
0
LINE
8
BLACK
6
CONTINUOUS
10
-1.93211
20
5.7619
11
-1.93408
21
5.76333
0
LINE
8
BLACK
6
CONTINUOUS
10
-1.93408
20
5.76333
11
-1.93483
21
5.76565
0
LINE
8
BLACK
6
CONTINUOUS
10
-1.93483
20
5.76565
11
-1.93483
21
5.81289
0
LINE
8
BLACK
6
CONTINUOUS
10
-1.93483
20
5.81289
11
-1.94552
21
5.81289
0
LINE
8
BLACK
6
CONTINUOUS
10
-1.94552
20
5.81289
11
-1.94783
21
5.81364
0
LINE
8
BLACK
6
CONTINUOUS
10
-1.94783
20
5.81364
11
-1.94926
21
5.81561
0
LINE
8
BLACK
6
CONTINUOUS
10
-1.94926
20
5.81561
11
-1.94926
21
5.81804
0
LINE
8
BLACK
6
CONTINUOUS
10
-1.94926
20
5.81804
11
-1.94783
21
5.82001
0
LINE
8
BLACK
6
CONTINUOUS
10
-1.94783
20
5.82001
11
-1.94552
21
5.82076
0
LINE
8
BLACK
6
CONTINUOUS
10
-1.94552
20
5.82076
11
-1.91627
21
5.82076
0
LINE
8
BLACK
6
CONTINUOUS
10
-1.91627
20
5.82076
11
-1.91396
21
5.82001
0
LINE
8
BLACK
6
CONTINUOUS
10
-1.84728
20
5.81914
11
-1.84653
21
5.81683
0
LINE
8
BLACK
6
CONTINUOUS
10
-1.84653
20
5.81683
11
-1.84653
21
5.76565
0
LINE
8
BLACK
6
CONTINUOUS
10
-1.84653
20
5.76565
11
-1.84728
21
5.76333
0
LINE
8
BLACK
6
CONTINUOUS
10
-1.84728
20
5.76333
11
-1.84925
21
5.7619
0
LINE
8
BLACK
6
CONTINUOUS
10
-1.84925
20
5.7619
11
-1.85168
21
5.7619
0
LINE
8
BLACK
6
CONTINUOUS
10
-1.85168
20
5.7619
11
-1.85365
21
5.76333
0
LINE
8
BLACK
6
CONTINUOUS
10
-1.85365
20
5.76333
11
-1.8544
21
5.76565
0
LINE
8
BLACK
6
CONTINUOUS
10
-1.8544
20
5.76565
11
-1.8544
21
5.81683
0
LINE
8
BLACK
6
CONTINUOUS
10
-1.8544
20
5.81683
11
-1.85365
21
5.81914
0
LINE
8
BLACK
6
CONTINUOUS
10
-1.85365
20
5.81914
11
-1.85168
21
5.82057
0
LINE
8
BLACK
6
CONTINUOUS
10
-1.85168
20
5.82057
11
-1.84925
21
5.82057
0
LINE
8
BLACK
6
CONTINUOUS
10
-1.84925
20
5.82057
11
-1.84728
21
5.81914
0
LINE
8
BLACK
6
CONTINUOUS
10
-1.80573
20
5.82048
11
-1.80483
21
5.82035
0
LINE
8
BLACK
6
CONTINUOUS
10
-1.80483
20
5.82035
11
-1.79996
21
5.81791
0
LINE
8
BLACK
6
CONTINUOUS
10
-1.79996
20
5.81791
11
-1.79951
21
5.81746
0
LINE
8
BLACK
6
CONTINUOUS
10
-1.79951
20
5.81746
11
-1.79894
21
5.81717
0
LINE
8
BLACK
6
CONTINUOUS
10
-1.79894
20
5.81717
11
-1.7965
21
5.81474
0
LINE
8
BLACK
6
CONTINUOUS
10
-1.7965
20
5.81474
11
-1.79621
21
5.81417
0
LINE
8
BLACK
6
CONTINUOUS
10
-1.79621
20
5.81417
11
-1.79576
21
5.81371
0
LINE
8
BLACK
6
CONTINUOUS
10
-1.79576
20
5.81371
11
-1.79333
21
5.80884
0
LINE
8
BLACK
6
CONTINUOUS
10
-1.79333
20
5.80884
11
-1.79319
21
5.80794
0
LINE
8
BLACK
6
CONTINUOUS
10
-1.79319
20
5.80794
11
-1.79291
21
5.80708
0
LINE
8
BLACK
6
CONTINUOUS
10
-1.79291
20
5.80708
11
-1.79291
21
5.79977
0
LINE
8
BLACK
6
CONTINUOUS
10
-1.79291
20
5.79977
11
-1.79319
21
5.7989
0
LINE
8
BLACK
6
CONTINUOUS
10
-1.79319
20
5.7989
11
-1.79333
21
5.79801
0
LINE
8
BLACK
6
CONTINUOUS
10
-1.79333
20
5.79801
11
-1.79576
21
5.79313
0
LINE
8
BLACK
6
CONTINUOUS
10
-1.79576
20
5.79313
11
-1.79621
21
5.79268
0
LINE
8
BLACK
6
CONTINUOUS
10
-1.79621
20
5.79268
11
-1.7965
21
5.79211
0
LINE
8
BLACK
6
CONTINUOUS
10
-1.7965
20
5.79211
11
-1.79894
21
5.78967
0
LINE
8
BLACK
6
CONTINUOUS
10
-1.79894
20
5.78967
11
-1.79951
21
5.78938
0
LINE
8
BLACK
6
CONTINUOUS
10
-1.79951
20
5.78938
11
-1.79996
21
5.78893
0
LINE
8
BLACK
6
CONTINUOUS
10
-1.79996
20
5.78893
11
-1.80483
21
5.7865
0
LINE
8
BLACK
6
CONTINUOUS
10
-1.80483
20
5.7865
11
-1.80573
21
5.78636
0
LINE
8
BLACK
6
CONTINUOUS
10
-1.80573
20
5.78636
11
-1.8066
21
5.78608
0
LINE
8
BLACK
6
CONTINUOUS
10
-1.8066
20
5.78608
11
-1.82216
21
5.78608
0
LINE
8
BLACK
6
CONTINUOUS
10
-1.82216
20
5.78608
11
-1.82216
21
5.76565
0
LINE
8
BLACK
6
CONTINUOUS
10
-1.82216
20
5.76565
11
-1.82291
21
5.76333
0
LINE
8
BLACK
6
CONTINUOUS
10
-1.82291
20
5.76333
11
-1.82488
21
5.7619
0
LINE
8
BLACK
6
CONTINUOUS
10
-1.82488
20
5.7619
11
-1.82731
21
5.7619
0
LINE
8
BLACK
6
CONTINUOUS
10
-1.82731
20
5.7619
11
-1.82928
21
5.76333
0
LINE
8
BLACK
6
CONTINUOUS
10
-1.82928
20
5.76333
11
-1.83003
21
5.76565
0
LINE
8
BLACK
6
CONTINUOUS
10
-1.83003
20
5.76565
11
-1.83003
21
5.81683
0
LINE
8
BLACK
6
CONTINUOUS
10
-1.83003
20
5.81683
11
-1.82984
21
5.81742
0
LINE
8
BLACK
6
CONTINUOUS
10
-1.82984
20
5.81742
11
-1.82984
21
5.81804
0
LINE
8
BLACK
6
CONTINUOUS
10
-1.82984
20
5.81804
11
-1.82947
21
5.81855
0
LINE
8
BLACK
6
CONTINUOUS
10
-1.82947
20
5.81855
11
-1.82928
21
5.81914
0
LINE
8
BLACK
6
CONTINUOUS
10
-1.82928
20
5.81914
11
-1.82877
21
5.81951
0
LINE
8
BLACK
6
CONTINUOUS
10
-1.82877
20
5.81951
11
-1.82841
21
5.82001
0
LINE
8
BLACK
6
CONTINUOUS
10
-1.82841
20
5.82001
11
-1.82781
21
5.8202
0
LINE
8
BLACK
6
CONTINUOUS
10
-1.82781
20
5.8202
11
-1.82731
21
5.82057
0
LINE
8
BLACK
6
CONTINUOUS
10
-1.82731
20
5.82057
11
-1.82669
21
5.82057
0
LINE
8
BLACK
6
CONTINUOUS
10
-1.82669
20
5.82057
11
-1.82609
21
5.82076
0
LINE
8
BLACK
6
CONTINUOUS
10
-1.82609
20
5.82076
11
-1.8066
21
5.82076
0
LINE
8
BLACK
6
CONTINUOUS
10
-1.8066
20
5.82076
11
-1.80573
21
5.82048
0
LINE
8
BLACK
6
CONTINUOUS
10
-1.82216
20
5.81289
11
-1.82216
21
5.79395
0
LINE
8
BLACK
6
CONTINUOUS
10
-1.82216
20
5.79395
11
-1.80752
21
5.79395
0
LINE
8
BLACK
6
CONTINUOUS
10
-1.80752
20
5.79395
11
-1.80405
21
5.79569
0
LINE
8
BLACK
6
CONTINUOUS
10
-1.80405
20
5.79569
11
-1.80252
21
5.79722
0
LINE
8
BLACK
6
CONTINUOUS
10
-1.80252
20
5.79722
11
-1.80078
21
5.8007
0
LINE
8
BLACK
6
CONTINUOUS
10
-1.80078
20
5.8007
11
-1.80078
21
5.80615
0
LINE
8
BLACK
6
CONTINUOUS
10
-1.80078
20
5.80615
11
-1.80252
21
5.80962
0
LINE
8
BLACK
6
CONTINUOUS
10
-1.80252
20
5.80962
11
-1.80405
21
5.81115
0
LINE
8
BLACK
6
CONTINUOUS
10
-1.80405
20
5.81115
11
-1.80752
21
5.81289
0
LINE
8
BLACK
6
CONTINUOUS
10
-1.80752
20
5.81289
11
-1.82216
21
5.81289
0
LINE
8
BLACK
6
CONTINUOUS
10
-0.861179
20
5.82562
11
-0.860427
21
5.8233
0
LINE
8
BLACK
6
CONTINUOUS
10
-0.860427
20
5.8233
11
-0.860427
21
5.7828
0
LINE
8
BLACK
6
CONTINUOUS
10
-0.860427
20
5.7828
11
-0.858692
21
5.77933
0
LINE
8
BLACK
6
CONTINUOUS
10
-0.858692
20
5.77933
11
-0.857158
21
5.7778
0
LINE
8
BLACK
6
CONTINUOUS
10
-0.857158
20
5.7778
11
-0.853686
21
5.77606
0
LINE
8
BLACK
6
CONTINUOUS
10
-0.853686
20
5.77606
11
-0.845796
21
5.77606
0
LINE
8
BLACK
6
CONTINUOUS
10
-0.845796
20
5.77606
11
-0.842325
21
5.7778
0
LINE
8
BLACK
6
CONTINUOUS
10
-0.842325
20
5.7778
11
-0.840791
21
5.77933
0
LINE
8
BLACK
6
CONTINUOUS
10
-0.840791
20
5.77933
11
-0.839055
21
5.7828
0
LINE
8
BLACK
6
CONTINUOUS
10
-0.839055
20
5.7828
11
-0.839055
21
5.8233
0
LINE
8
BLACK
6
CONTINUOUS
10
-0.839055
20
5.8233
11
-0.838303
21
5.82562
0
LINE
8
BLACK
6
CONTINUOUS
10
-0.838303
20
5.82562
11
-0.836335
21
5.82705
0
LINE
8
BLACK
6
CONTINUOUS
10
-0.836335
20
5.82705
11
-0.833901
21
5.82705
0
LINE
8
BLACK
6
CONTINUOUS
10
-0.833901
20
5.82705
11
-0.831933
21
5.82562
0
LINE
8
BLACK
6
CONTINUOUS
10
-0.831933
20
5.82562
11
-0.831181
21
5.8233
0
LINE
8
BLACK
6
CONTINUOUS
10
-0.831181
20
5.8233
11
-0.831181
21
5.78187
0
LINE
8
BLACK
6
CONTINUOUS
10
-0.831181
20
5.78187
11
-0.831462
21
5.78101
0
LINE
8
BLACK
6
CONTINUOUS
10
-0.831462
20
5.78101
11
-0.831597
21
5.78011
0
LINE
8
BLACK
6
CONTINUOUS
10
-0.831597
20
5.78011
11
-0.834034
21
5.77524
0
LINE
8
BLACK
6
CONTINUOUS
10
-0.834034
20
5.77524
11
-0.834482
21
5.77478
0
LINE
8
BLACK
6
CONTINUOUS
10
-0.834482
20
5.77478
11
-0.834771
21
5.77421
0
LINE
8
BLACK
6
CONTINUOUS
10
-0.834771
20
5.77421
11
-0.837209
21
5.77178
0
LINE
8
BLACK
6
CONTINUOUS
10
-0.837209
20
5.77178
11
-0.837777
21
5.77149
0
LINE
8
BLACK
6
CONTINUOUS
10
-0.837777
20
5.77149
11
-0.838232
21
5.77104
0
LINE
8
BLACK
6
CONTINUOUS
10
-0.838232
20
5.77104
11
-0.843106
21
5.7686
0
LINE
8
BLACK
6
CONTINUOUS
10
-0.843106
20
5.7686
11
-0.844004
21
5.76847
0
LINE
8
BLACK
6
CONTINUOUS
10
-0.844004
20
5.76847
11
-0.844867
21
5.76819
0
LINE
8
BLACK
6
CONTINUOUS
10
-0.844867
20
5.76819
11
-0.854616
21
5.76819
0
LINE
8
BLACK
6
CONTINUOUS
10
-0.854616
20
5.76819
11
-0.855479
21
5.76847
0
LINE
8
BLACK
6
CONTINUOUS
10
-0.855479
20
5.76847
11
-0.856376
21
5.7686
0
LINE
8
BLACK
6
CONTINUOUS
10
-0.856376
20
5.7686
11
-0.861251
21
5.77104
0
LINE
8
BLACK
6
CONTINUOUS
10
-0.861251
20
5.77104
11
-0.861705
21
5.77149
0
LINE
8
BLACK
6
CONTINUOUS
10
-0.861705
20
5.77149
11
-0.862274
21
5.77178
0
LINE
8
BLACK
6
CONTINUOUS
10
-0.862274
20
5.77178
11
-0.864711
21
5.77421
0
LINE
8
BLACK
6
CONTINUOUS
10
-0.864711
20
5.77421
11
-0.865001
21
5.77478
0
LINE
8
BLACK
6
CONTINUOUS
10
-0.865001
20
5.77478
11
-0.865449
21
5.77524
0
LINE
8
BLACK
6
CONTINUOUS
10
-0.865449
20
5.77524
11
-0.867886
21
5.78011
0
LINE
8
BLACK
6
CONTINUOUS
10
-0.867886
20
5.78011
11
-0.868021
21
5.78101
0
LINE
8
BLACK
6
CONTINUOUS
10
-0.868021
20
5.78101
11
-0.868301
21
5.78187
0
LINE
8
BLACK
6
CONTINUOUS
10
-0.868301
20
5.78187
11
-0.868301
21
5.8233
0
LINE
8
BLACK
6
CONTINUOUS
10
-0.868301
20
5.8233
11
-0.86755
21
5.82562
0
LINE
8
BLACK
6
CONTINUOUS
10
-0.86755
20
5.82562
11
-0.865581
21
5.82705
0
LINE
8
BLACK
6
CONTINUOUS
10
-0.865581
20
5.82705
11
-0.863148
21
5.82705
0
LINE
8
BLACK
6
CONTINUOUS
10
-0.863148
20
5.82705
11
-0.861179
21
5.82562
0
LINE
8
BLACK
6
CONTINUOUS
10
-0.897622
20
5.82696
11
-0.896725
21
5.82682
0
LINE
8
BLACK
6
CONTINUOUS
10
-0.896725
20
5.82682
11
-0.89185
21
5.82439
0
LINE
8
BLACK
6
CONTINUOUS
10
-0.89185
20
5.82439
11
-0.891396
21
5.82394
0
LINE
8
BLACK
6
CONTINUOUS
10
-0.891396
20
5.82394
11
-0.890827
21
5.82365
0
LINE
8
BLACK
6
CONTINUOUS
10
-0.890827
20
5.82365
11
-0.885953
21
5.81878
0
LINE
8
BLACK
6
CONTINUOUS
10
-0.885953
20
5.81878
11
-0.885475
21
5.81784
0
LINE
8
BLACK
6
CONTINUOUS
10
-0.885475
20
5.81784
11
-0.884917
21
5.81695
0
LINE
8
BLACK
6
CONTINUOUS
10
-0.884917
20
5.81695
11
-0.88248
21
5.8072
0
LINE
8
BLACK
6
CONTINUOUS
10
-0.88248
20
5.8072
11
-0.882514
21
5.80671
0
LINE
8
BLACK
6
CONTINUOUS
10
-0.882514
20
5.80671
11
-0.882362
21
5.80624
0
LINE
8
BLACK
6
CONTINUOUS
10
-0.882362
20
5.80624
11
-0.882362
21
5.78918
0
LINE
8
BLACK
6
CONTINUOUS
10
-0.882362
20
5.78918
11
-0.882514
21
5.78872
0
LINE
8
BLACK
6
CONTINUOUS
10
-0.882514
20
5.78872
11
-0.88248
21
5.78823
0
LINE
8
BLACK
6
CONTINUOUS
10
-0.88248
20
5.78823
11
-0.884917
21
5.77848
0
LINE
8
BLACK
6
CONTINUOUS
10
-0.884917
20
5.77848
11
-0.885475
21
5.77759
0
LINE
8
BLACK
6
CONTINUOUS
10
-0.885475
20
5.77759
11
-0.885953
21
5.77665
0
LINE
8
BLACK
6
CONTINUOUS
10
-0.885953
20
5.77665
11
-0.890827
21
5.77178
0
LINE
8
BLACK
6
CONTINUOUS
10
-0.890827
20
5.77178
11
-0.891395
21
5.77149
0
LINE
8
BLACK
6
CONTINUOUS
10
-0.891395
20
5.77149
11
-0.89185
21
5.77104
0
LINE
8
BLACK
6
CONTINUOUS
10
-0.89185
20
5.77104
11
-0.896724
21
5.7686
0
LINE
8
BLACK
6
CONTINUOUS
10
-0.896724
20
5.7686
11
-0.897622
21
5.76847
0
LINE
8
BLACK
6
CONTINUOUS
10
-0.897622
20
5.76847
11
-0.898485
21
5.76819
0
LINE
8
BLACK
6
CONTINUOUS
10
-0.898485
20
5.76819
11
-0.908234
21
5.76819
0
LINE
8
BLACK
6
CONTINUOUS
10
-0.908234
20
5.76819
11
-0.909097
21
5.76847
0
LINE
8
BLACK
6
CONTINUOUS
10
-0.909097
20
5.76847
11
-0.909995
21
5.7686
0
LINE
8
BLACK
6
CONTINUOUS
10
-0.909995
20
5.7686
11
-0.914869
21
5.77104
0
LINE
8
BLACK
6
CONTINUOUS
10
-0.914869
20
5.77104
11
-0.915324
21
5.77149
0
LINE
8
BLACK
6
CONTINUOUS
10
-0.915324
20
5.77149
11
-0.915892
21
5.77178
0
LINE
8
BLACK
6
CONTINUOUS
10
-0.915892
20
5.77178
11
-0.920767
21
5.77665
0
LINE
8
BLACK
6
CONTINUOUS
10
-0.920767
20
5.77665
11
-0.921244
21
5.77759
0
LINE
8
BLACK
6
CONTINUOUS
10
-0.921244
20
5.77759
11
-0.921802
21
5.77848
0
LINE
8
BLACK
6
CONTINUOUS
10
-0.921802
20
5.77848
11
-0.924239
21
5.78823
0
LINE
8
BLACK
6
CONTINUOUS
10
-0.924239
20
5.78823
11
-0.924206
21
5.78872
0
LINE
8
BLACK
6
CONTINUOUS
10
-0.924206
20
5.78872
11
-0.924357
21
5.78918
0
LINE
8
BLACK
6
CONTINUOUS
10
-0.924357
20
5.78918
11
-0.924357
21
5.80624
0
LINE
8
BLACK
6
CONTINUOUS
10
-0.924357
20
5.80624
11
-0.924206
21
5.80671
0
LINE
8
BLACK
6
CONTINUOUS
10
-0.924206
20
5.80671
11
-0.924239
21
5.8072
0
LINE
8
BLACK
6
CONTINUOUS
10
-0.924239
20
5.8072
11
-0.921802
21
5.81695
0
LINE
8
BLACK
6
CONTINUOUS
10
-0.921802
20
5.81695
11
-0.921244
21
5.81784
0
LINE
8
BLACK
6
CONTINUOUS
10
-0.921244
20
5.81784
11
-0.920767
21
5.81878
0
LINE
8
BLACK
6
CONTINUOUS
10
-0.920767
20
5.81878
11
-0.915892
21
5.82365
0
LINE
8
BLACK
6
CONTINUOUS
10
-0.915892
20
5.82365
11
-0.915324
21
5.82394
0
LINE
8
BLACK
6
CONTINUOUS
10
-0.915324
20
5.82394
11
-0.914869
21
5.82439
0
LINE
8
BLACK
6
CONTINUOUS
10
-0.914869
20
5.82439
11
-0.909995
21
5.82682
0
LINE
8
BLACK
6
CONTINUOUS
10
-0.909995
20
5.82682
11
-0.909097
21
5.82696
0
LINE
8
BLACK
6
CONTINUOUS
10
-0.909097
20
5.82696
11
-0.908234
21
5.82724
0
LINE
8
BLACK
6
CONTINUOUS
10
-0.908234
20
5.82724
11
-0.898485
21
5.82724
0
LINE
8
BLACK
6
CONTINUOUS
10
-0.898485
20
5.82724
11
-0.897622
21
5.82696
0
LINE
8
BLACK
6
CONTINUOUS
10
-0.907305
20
5.81937
11
-0.910776
21
5.81763
0
LINE
8
BLACK
6
CONTINUOUS
10
-0.910776
20
5.81763
11
-0.914428
21
5.81398
0
LINE
8
BLACK
6
CONTINUOUS
10
-0.914428
20
5.81398
11
-0.916483
21
5.80576
0
LINE
8
BLACK
6
CONTINUOUS
10
-0.916483
20
5.80576
11
-0.916483
21
5.78967
0
LINE
8
BLACK
6
CONTINUOUS
10
-0.916483
20
5.78967
11
-0.914428
21
5.78145
0
LINE
8
BLACK
6
CONTINUOUS
10
-0.914428
20
5.78145
11
-0.910776
21
5.7778
0
LINE
8
BLACK
6
CONTINUOUS
10
-0.910776
20
5.7778
11
-0.907305
21
5.77606
0
LINE
8
BLACK
6
CONTINUOUS
10
-0.907305
20
5.77606
11
-0.899415
21
5.77606
0
LINE
8
BLACK
6
CONTINUOUS
10
-0.899415
20
5.77606
11
-0.895943
21
5.7778
0
LINE
8
BLACK
6
CONTINUOUS
10
-0.895943
20
5.7778
11
-0.892291
21
5.78145
0
LINE
8
BLACK
6
CONTINUOUS
10
-0.892291
20
5.78145
11
-0.890236
21
5.78967
0
LINE
8
BLACK
6
CONTINUOUS
10
-0.890236
20
5.78967
11
-0.890236
21
5.80576
0
LINE
8
BLACK
6
CONTINUOUS
10
-0.890236
20
5.80576
11
-0.892291
21
5.81398
0
LINE
8
BLACK
6
CONTINUOUS
10
-0.892291
20
5.81398
11
-0.895943
21
5.81763
0
LINE
8
BLACK
6
CONTINUOUS
10
-0.895943
20
5.81763
11
-0.899415
21
5.81937
0
LINE
8
BLACK
6
CONTINUOUS
10
-0.899415
20
5.81937
11
-0.907305
21
5.81937
0
LINE
8
BLACK
6
CONTINUOUS
10
-0.786497
20
5.82649
11
-0.785067
21
5.82452
0
LINE
8
BLACK
6
CONTINUOUS
10
-0.785067
20
5.82452
11
-0.785067
21
5.82209
0
LINE
8
BLACK
6
CONTINUOUS
10
-0.785067
20
5.82209
11
-0.786497
21
5.82012
0
LINE
8
BLACK
6
CONTINUOUS
10
-0.786497
20
5.82012
11
-0.788811
21
5.81937
0
LINE
8
BLACK
6
CONTINUOUS
10
-0.788811
20
5.81937
11
-0.799498
21
5.81937
0
LINE
8
BLACK
6
CONTINUOUS
10
-0.799498
20
5.81937
11
-0.799498
21
5.77212
0
LINE
8
BLACK
6
CONTINUOUS
10
-0.799498
20
5.77212
11
-0.800249
21
5.76981
0
LINE
8
BLACK
6
CONTINUOUS
10
-0.800249
20
5.76981
11
-0.802218
21
5.76838
0
LINE
8
BLACK
6
CONTINUOUS
10
-0.802218
20
5.76838
11
-0.804651
21
5.76838
0
LINE
8
BLACK
6
CONTINUOUS
10
-0.804651
20
5.76838
11
-0.80662
21
5.76981
0
LINE
8
BLACK
6
CONTINUOUS
10
-0.80662
20
5.76981
11
-0.807372
21
5.77212
0
LINE
8
BLACK
6
CONTINUOUS
10
-0.807372
20
5.77212
11
-0.807372
21
5.81937
0
LINE
8
BLACK
6
CONTINUOUS
10
-0.807372
20
5.81937
11
-0.818058
21
5.81937
0
LINE
8
BLACK
6
CONTINUOUS
10
-0.818058
20
5.81937
11
-0.820372
21
5.82012
0
LINE
8
BLACK
6
CONTINUOUS
10
-0.820372
20
5.82012
11
-0.821802
21
5.82209
0
LINE
8
BLACK
6
CONTINUOUS
10
-0.821802
20
5.82209
11
-0.821802
21
5.82452
0
LINE
8
BLACK
6
CONTINUOUS
10
-0.821802
20
5.82452
11
-0.820372
21
5.82649
0
LINE
8
BLACK
6
CONTINUOUS
10
-0.820372
20
5.82649
11
-0.818058
21
5.82724
0
LINE
8
BLACK
6
CONTINUOUS
10
-0.818058
20
5.82724
11
-0.788811
21
5.82724
0
LINE
8
BLACK
6
CONTINUOUS
10
-0.788811
20
5.82724
11
-0.786497
21
5.82649
0
LINE
8
BLACK
6
CONTINUOUS
10
-1.93746
20
5.90154
11
-1.9367
21
5.89923
0
LINE
8
BLACK
6
CONTINUOUS
10
-1.9367
20
5.89923
11
-1.9367
21
5.85873
0
LINE
8
BLACK
6
CONTINUOUS
10
-1.9367
20
5.85873
11
-1.93497
21
5.85525
0
LINE
8
BLACK
6
CONTINUOUS
10
-1.93497
20
5.85525
11
-1.93343
21
5.85372
0
LINE
8
BLACK
6
CONTINUOUS
10
-1.93343
20
5.85372
11
-1.92996
21
5.85198
0
LINE
8
BLACK
6
CONTINUOUS
10
-1.92996
20
5.85198
11
-1.92207
21
5.85198
0
LINE
8
BLACK
6
CONTINUOUS
10
-1.92207
20
5.85198
11
-1.9186
21
5.85372
0
LINE
8
BLACK
6
CONTINUOUS
10
-1.9186
20
5.85372
11
-1.91707
21
5.85525
0
LINE
8
BLACK
6
CONTINUOUS
10
-1.91707
20
5.85525
11
-1.91533
21
5.85873
0
LINE
8
BLACK
6
CONTINUOUS
10
-1.91533
20
5.85873
11
-1.91533
21
5.89923
0
LINE
8
BLACK
6
CONTINUOUS
10
-1.91533
20
5.89923
11
-1.91458
21
5.90154
0
LINE
8
BLACK
6
CONTINUOUS
10
-1.91458
20
5.90154
11
-1.91261
21
5.90297
0
LINE
8
BLACK
6
CONTINUOUS
10
-1.91261
20
5.90297
11
-1.91018
21
5.90297
0
LINE
8
BLACK
6
CONTINUOUS
10
-1.91018
20
5.90297
11
-1.90821
21
5.90154
0
LINE
8
BLACK
6
CONTINUOUS
10
-1.90821
20
5.90154
11
-1.90746
21
5.89923
0
LINE
8
BLACK
6
CONTINUOUS
10
-1.90746
20
5.89923
11
-1.90746
21
5.8578
0
LINE
8
BLACK
6
CONTINUOUS
10
-1.90746
20
5.8578
11
-1.90774
21
5.85693
0
LINE
8
BLACK
6
CONTINUOUS
10
-1.90774
20
5.85693
11
-1.90787
21
5.85604
0
LINE
8
BLACK
6
CONTINUOUS
10
-1.90787
20
5.85604
11
-1.91031
21
5.85116
0
LINE
8
BLACK
6
CONTINUOUS
10
-1.91031
20
5.85116
11
-1.91076
21
5.85071
0
LINE
8
BLACK
6
CONTINUOUS
10
-1.91076
20
5.85071
11
-1.91105
21
5.85014
0
LINE
8
BLACK
6
CONTINUOUS
10
-1.91105
20
5.85014
11
-1.91349
21
5.8477
0
LINE
8
BLACK
6
CONTINUOUS
10
-1.91349
20
5.8477
11
-1.91405
21
5.84741
0
LINE
8
BLACK
6
CONTINUOUS
10
-1.91405
20
5.84741
11
-1.91451
21
5.84696
0
LINE
8
BLACK
6
CONTINUOUS
10
-1.91451
20
5.84696
11
-1.91938
21
5.84453
0
LINE
8
BLACK
6
CONTINUOUS
10
-1.91938
20
5.84453
11
-1.92028
21
5.84439
0
LINE
8
BLACK
6
CONTINUOUS
10
-1.92028
20
5.84439
11
-1.92114
21
5.84411
0
LINE
8
BLACK
6
CONTINUOUS
10
-1.92114
20
5.84411
11
-1.93089
21
5.84411
0
LINE
8
BLACK
6
CONTINUOUS
10
-1.93089
20
5.84411
11
-1.93176
21
5.84439
0
LINE
8
BLACK
6
CONTINUOUS
10
-1.93176
20
5.84439
11
-1.93265
21
5.84453
0
LINE
8
BLACK
6
CONTINUOUS
10
-1.93265
20
5.84453
11
-1.93753
21
5.84696
0
LINE
8
BLACK
6
CONTINUOUS
10
-1.93753
20
5.84696
11
-1.93798
21
5.84741
0
LINE
8
BLACK
6
CONTINUOUS
10
-1.93798
20
5.84741
11
-1.93855
21
5.8477
0
LINE
8
BLACK
6
CONTINUOUS
10
-1.93855
20
5.8477
11
-1.94099
21
5.85014
0
LINE
8
BLACK
6
CONTINUOUS
10
-1.94099
20
5.85014
11
-1.94128
21
5.85071
0
LINE
8
BLACK
6
CONTINUOUS
10
-1.94128
20
5.85071
11
-1.94173
21
5.85116
0
LINE
8
BLACK
6
CONTINUOUS
10
-1.94173
20
5.85116
11
-1.94416
21
5.85604
0
LINE
8
BLACK
6
CONTINUOUS
10
-1.94416
20
5.85604
11
-1.9443
21
5.85693
0
LINE
8
BLACK
6
CONTINUOUS
10
-1.9443
20
5.85693
11
-1.94458
21
5.8578
0
LINE
8
BLACK
6
CONTINUOUS
10
-1.94458
20
5.8578
11
-1.94458
21
5.89923
0
LINE
8
BLACK
6
CONTINUOUS
10
-1.94458
20
5.89923
11
-1.94383
21
5.90154
0
LINE
8
BLACK
6
CONTINUOUS
10
-1.94383
20
5.90154
11
-1.94186
21
5.90297
0
LINE
8
BLACK
6
CONTINUOUS
10
-1.94186
20
5.90297
11
-1.93942
21
5.90297
0
LINE
8
BLACK
6
CONTINUOUS
10
-1.93942
20
5.90297
11
-1.93746
21
5.90154
0
LINE
8
BLACK
6
CONTINUOUS
10
-1.69397
20
5.903
11
-1.69342
21
5.90302
0
LINE
8
BLACK
6
CONTINUOUS
10
-1.69342
20
5.90302
11
-1.69284
21
5.90263
0
LINE
8
BLACK
6
CONTINUOUS
10
-1.69284
20
5.90263
11
-1.69217
21
5.90241
0
LINE
8
BLACK
6
CONTINUOUS
10
-1.69217
20
5.90241
11
-1.69185
21
5.90197
0
LINE
8
BLACK
6
CONTINUOUS
10
-1.69185
20
5.90197
11
-1.6914
21
5.90167
0
LINE
8
BLACK
6
CONTINUOUS
10
-1.6914
20
5.90167
11
-1.69115
21
5.90101
0
LINE
8
BLACK
6
CONTINUOUS
10
-1.69115
20
5.90101
11
-1.69074
21
5.90045
0
LINE
8
BLACK
6
CONTINUOUS
10
-1.69074
20
5.90045
11
-1.69074
21
5.8999
0
LINE
8
BLACK
6
CONTINUOUS
10
-1.69074
20
5.8999
11
-1.69055
21
5.89939
0
LINE
8
BLACK
6
CONTINUOUS
10
-1.69055
20
5.89939
11
-1.69074
21
5.89871
0
LINE
8
BLACK
6
CONTINUOUS
10
-1.69074
20
5.89871
11
-1.69074
21
5.89801
0
LINE
8
BLACK
6
CONTINUOUS
10
-1.69074
20
5.89801
11
-1.69106
21
5.89757
0
LINE
8
BLACK
6
CONTINUOUS
10
-1.69106
20
5.89757
11
-1.69121
21
5.89704
0
LINE
8
BLACK
6
CONTINUOUS
10
-1.69121
20
5.89704
11
-1.72125
21
5.85198
0
LINE
8
BLACK
6
CONTINUOUS
10
-1.72125
20
5.85198
11
-1.69448
21
5.85198
0
LINE
8
BLACK
6
CONTINUOUS
10
-1.69448
20
5.85198
11
-1.69217
21
5.85123
0
LINE
8
BLACK
6
CONTINUOUS
10
-1.69217
20
5.85123
11
-1.69074
21
5.84926
0
LINE
8
BLACK
6
CONTINUOUS
10
-1.69074
20
5.84926
11
-1.69074
21
5.84683
0
LINE
8
BLACK
6
CONTINUOUS
10
-1.69074
20
5.84683
11
-1.69217
21
5.84486
0
LINE
8
BLACK
6
CONTINUOUS
10
-1.69217
20
5.84486
11
-1.69448
21
5.84411
0
LINE
8
BLACK
6
CONTINUOUS
10
-1.69448
20
5.84411
11
-1.72861
21
5.84411
0
LINE
8
BLACK
6
CONTINUOUS
10
-1.72861
20
5.84411
11
-1.72912
21
5.84428
0
LINE
8
BLACK
6
CONTINUOUS
10
-1.72912
20
5.84428
11
-1.72967
21
5.84426
0
LINE
8
BLACK
6
CONTINUOUS
10
-1.72967
20
5.84426
11
-1.73025
21
5.84465
0
LINE
8
BLACK
6
CONTINUOUS
10
-1.73025
20
5.84465
11
-1.73092
21
5.84486
0
LINE
8
BLACK
6
CONTINUOUS
10
-1.73092
20
5.84486
11
-1.73124
21
5.8453
0
LINE
8
BLACK
6
CONTINUOUS
10
-1.73124
20
5.8453
11
-1.73169
21
5.84561
0
LINE
8
BLACK
6
CONTINUOUS
10
-1.73169
20
5.84561
11
-1.73194
21
5.84626
0
LINE
8
BLACK
6
CONTINUOUS
10
-1.73194
20
5.84626
11
-1.73235
21
5.84683
0
LINE
8
BLACK
6
CONTINUOUS
10
-1.73235
20
5.84683
11
-1.73235
21
5.84738
0
LINE
8
BLACK
6
CONTINUOUS
10
-1.73235
20
5.84738
11
-1.73254
21
5.84789
0
LINE
8
BLACK
6
CONTINUOUS
10
-1.73254
20
5.84789
11
-1.73235
21
5.84856
0
LINE
8
BLACK
6
CONTINUOUS
10
-1.73235
20
5.84856
11
-1.73235
21
5.84926
0
LINE
8
BLACK
6
CONTINUOUS
10
-1.73235
20
5.84926
11
-1.73203
21
5.84971
0
LINE
8
BLACK
6
CONTINUOUS
10
-1.73203
20
5.84971
11
-1.73188
21
5.85023
0
LINE
8
BLACK
6
CONTINUOUS
10
-1.73188
20
5.85023
11
-1.70184
21
5.89529
0
LINE
8
BLACK
6
CONTINUOUS
10
-1.70184
20
5.89529
11
-1.72861
21
5.89529
0
LINE
8
BLACK
6
CONTINUOUS
10
-1.72861
20
5.89529
11
-1.73092
21
5.89604
0
LINE
8
BLACK
6
CONTINUOUS
10
-1.73092
20
5.89604
11
-1.73235
21
5.89801
0
LINE
8
BLACK
6
CONTINUOUS
10
-1.73235
20
5.89801
11
-1.73235
21
5.90045
0
LINE
8
BLACK
6
CONTINUOUS
10
-1.73235
20
5.90045
11
-1.73092
21
5.90241
0
LINE
8
BLACK
6
CONTINUOUS
10
-1.73092
20
5.90241
11
-1.72861
21
5.90317
0
LINE
8
BLACK
6
CONTINUOUS
10
-1.72861
20
5.90317
11
-1.69448
21
5.90317
0
LINE
8
BLACK
6
CONTINUOUS
10
-1.69448
20
5.90317
11
-1.69397
21
5.903
0
LINE
8
BLACK
6
CONTINUOUS
10
-1.75481
20
5.90297
11
-1.75417
21
5.90296
0
LINE
8
BLACK
6
CONTINUOUS
10
-1.75417
20
5.90296
11
-1.74686
21
5.90053
0
LINE
8
BLACK
6
CONTINUOUS
10
-1.74686
20
5.90053
11
-1.74613
21
5.89999
0
LINE
8
BLACK
6
CONTINUOUS
10
-1.74613
20
5.89999
11
-1.74532
21
5.89958
0
LINE
8
BLACK
6
CONTINUOUS
10
-1.74532
20
5.89958
11
-1.74288
21
5.89714
0
LINE
8
BLACK
6
CONTINUOUS
10
-1.74288
20
5.89714
11
-1.74178
21
5.89497
0
LINE
8
BLACK
6
CONTINUOUS
10
-1.74178
20
5.89497
11
-1.74216
21
5.89257
0
LINE
8
BLACK
6
CONTINUOUS
10
-1.74216
20
5.89257
11
-1.74388
21
5.89085
0
LINE
8
BLACK
6
CONTINUOUS
10
-1.74388
20
5.89085
11
-1.74628
21
5.89047
0
LINE
8
BLACK
6
CONTINUOUS
10
-1.74628
20
5.89047
11
-1.74845
21
5.89157
0
LINE
8
BLACK
6
CONTINUOUS
10
-1.74845
20
5.89157
11
-1.75023
21
5.89335
0
LINE
8
BLACK
6
CONTINUOUS
10
-1.75023
20
5.89335
11
-1.75605
21
5.89529
0
LINE
8
BLACK
6
CONTINUOUS
10
-1.75605
20
5.89529
11
-1.75965
21
5.89529
0
LINE
8
BLACK
6
CONTINUOUS
10
-1.75965
20
5.89529
11
-1.76547
21
5.89335
0
LINE
8
BLACK
6
CONTINUOUS
10
-1.76547
20
5.89335
11
-1.76924
21
5.88958
0
LINE
8
BLACK
6
CONTINUOUS
10
-1.76924
20
5.88958
11
-1.7712
21
5.88567
0
LINE
8
BLACK
6
CONTINUOUS
10
-1.7712
20
5.88567
11
-1.77341
21
5.87681
0
LINE
8
BLACK
6
CONTINUOUS
10
-1.77341
20
5.87681
11
-1.77341
21
5.87047
0
LINE
8
BLACK
6
CONTINUOUS
10
-1.77341
20
5.87047
11
-1.7712
21
5.86161
0
LINE
8
BLACK
6
CONTINUOUS
10
-1.7712
20
5.86161
11
-1.76924
21
5.85769
0
LINE
8
BLACK
6
CONTINUOUS
10
-1.76924
20
5.85769
11
-1.76547
21
5.85393
0
LINE
8
BLACK
6
CONTINUOUS
10
-1.76547
20
5.85393
11
-1.75965
21
5.85198
0
LINE
8
BLACK
6
CONTINUOUS
10
-1.75965
20
5.85198
11
-1.75605
21
5.85198
0
LINE
8
BLACK
6
CONTINUOUS
10
-1.75605
20
5.85198
11
-1.75023
21
5.85393
0
LINE
8
BLACK
6
CONTINUOUS
10
-1.75023
20
5.85393
11
-1.74845
21
5.85571
0
LINE
8
BLACK
6
CONTINUOUS
10
-1.74845
20
5.85571
11
-1.74628
21
5.85681
0
LINE
8
BLACK
6
CONTINUOUS
10
-1.74628
20
5.85681
11
-1.74388
21
5.85643
0
LINE
8
BLACK
6
CONTINUOUS
10
-1.74388
20
5.85643
11
-1.74216
21
5.85471
0
LINE
8
BLACK
6
CONTINUOUS
10
-1.74216
20
5.85471
11
-1.74178
21
5.85231
0
LINE
8
BLACK
6
CONTINUOUS
10
-1.74178
20
5.85231
11
-1.74288
21
5.85014
0
LINE
8
BLACK
6
CONTINUOUS
10
-1.74288
20
5.85014
11
-1.74532
21
5.8477
0
LINE
8
BLACK
6
CONTINUOUS
10
-1.74532
20
5.8477
11
-1.74613
21
5.84729
0
LINE
8
BLACK
6
CONTINUOUS
10
-1.74613
20
5.84729
11
-1.74686
21
5.84675
0
LINE
8
BLACK
6
CONTINUOUS
10
-1.74686
20
5.84675
11
-1.75417
21
5.84431
0
LINE
8
BLACK
6
CONTINUOUS
10
-1.75417
20
5.84431
11
-1.75481
21
5.84431
0
LINE
8
BLACK
6
CONTINUOUS
10
-1.75481
20
5.84431
11
-1.75541
21
5.84411
0
LINE
8
BLACK
6
CONTINUOUS
10
-1.75541
20
5.84411
11
-1.76029
21
5.84411
0
LINE
8
BLACK
6
CONTINUOUS
10
-1.76029
20
5.84411
11
-1.7609
21
5.84431
0
LINE
8
BLACK
6
CONTINUOUS
10
-1.7609
20
5.84431
11
-1.76153
21
5.84431
0
LINE
8
BLACK
6
CONTINUOUS
10
-1.76153
20
5.84431
11
-1.76885
21
5.84675
0
LINE
8
BLACK
6
CONTINUOUS
10
-1.76885
20
5.84675
11
-1.76958
21
5.84729
0
LINE
8
BLACK
6
CONTINUOUS
10
-1.76958
20
5.84729
11
-1.77038
21
5.8477
0
LINE
8
BLACK
6
CONTINUOUS
10
-1.77038
20
5.8477
11
-1.77526
21
5.85258
0
LINE
8
BLACK
6
CONTINUOUS
10
-1.77526
20
5.85258
11
-1.77555
21
5.85314
0
LINE
8
BLACK
6
CONTINUOUS
10
-1.77555
20
5.85314
11
-1.776
21
5.8536
0
LINE
8
BLACK
6
CONTINUOUS
10
-1.776
20
5.8536
11
-1.77843
21
5.85847
0
LINE
8
BLACK
6
CONTINUOUS
10
-1.77843
20
5.85847
11
-1.7785
21
5.85891
0
LINE
8
BLACK
6
CONTINUOUS
10
-1.7785
20
5.85891
11
-1.77873
21
5.85928
0
LINE
8
BLACK
6
CONTINUOUS
10
-1.77873
20
5.85928
11
-1.78117
21
5.86903
0
LINE
8
BLACK
6
CONTINUOUS
10
-1.78117
20
5.86903
11
-1.78113
21
5.86952
0
LINE
8
BLACK
6
CONTINUOUS
10
-1.78113
20
5.86952
11
-1.78129
21
5.86998
0
LINE
8
BLACK
6
CONTINUOUS
10
-1.78129
20
5.86998
11
-1.78129
21
5.87729
0
LINE
8
BLACK
6
CONTINUOUS
10
-1.78129
20
5.87729
11
-1.78113
21
5.87776
0
LINE
8
BLACK
6
CONTINUOUS
10
-1.78113
20
5.87776
11
-1.78117
21
5.87825
0
LINE
8
BLACK
6
CONTINUOUS
10
-1.78117
20
5.87825
11
-1.77873
21
5.888
0
LINE
8
BLACK
6
CONTINUOUS
10
-1.77873
20
5.888
11
-1.7785
21
5.88837
0
LINE
8
BLACK
6
CONTINUOUS
10
-1.7785
20
5.88837
11
-1.77843
21
5.8888
0
LINE
8
BLACK
6
CONTINUOUS
10
-1.77843
20
5.8888
11
-1.776
21
5.89368
0
LINE
8
BLACK
6
CONTINUOUS
10
-1.776
20
5.89368
11
-1.77555
21
5.89413
0
LINE
8
BLACK
6
CONTINUOUS
10
-1.77555
20
5.89413
11
-1.77526
21
5.8947
0
LINE
8
BLACK
6
CONTINUOUS
10
-1.77526
20
5.8947
11
-1.77038
21
5.89958
0
LINE
8
BLACK
6
CONTINUOUS
10
-1.77038
20
5.89958
11
-1.76958
21
5.89999
0
LINE
8
BLACK
6
CONTINUOUS
10
-1.76958
20
5.89999
11
-1.76885
21
5.90053
0
LINE
8
BLACK
6
CONTINUOUS
10
-1.76885
20
5.90053
11
-1.76153
21
5.90296
0
LINE
8
BLACK
6
CONTINUOUS
10
-1.76153
20
5.90296
11
-1.7609
21
5.90297
0
LINE
8
BLACK
6
CONTINUOUS
10
-1.7609
20
5.90297
11
-1.76029
21
5.90317
0
LINE
8
BLACK
6
CONTINUOUS
10
-1.76029
20
5.90317
11
-1.75541
21
5.90317
0
LINE
8
BLACK
6
CONTINUOUS
10
-1.75541
20
5.90317
11
-1.75481
21
5.90297
0
LINE
8
BLACK
6
CONTINUOUS
10
-1.86692
20
5.90297
11
-1.86628
21
5.90296
0
LINE
8
BLACK
6
CONTINUOUS
10
-1.86628
20
5.90296
11
-1.85897
21
5.90053
0
LINE
8
BLACK
6
CONTINUOUS
10
-1.85897
20
5.90053
11
-1.85701
21
5.89908
0
LINE
8
BLACK
6
CONTINUOUS
10
-1.85701
20
5.89908
11
-1.85628
21
5.89676
0
LINE
8
BLACK
6
CONTINUOUS
10
-1.85628
20
5.89676
11
-1.85705
21
5.89445
0
LINE
8
BLACK
6
CONTINUOUS
10
-1.85705
20
5.89445
11
-1.85903
21
5.89304
0
LINE
8
BLACK
6
CONTINUOUS
10
-1.85903
20
5.89304
11
-1.86146
21
5.89306
0
LINE
8
BLACK
6
CONTINUOUS
10
-1.86146
20
5.89306
11
-1.86816
21
5.89529
0
LINE
8
BLACK
6
CONTINUOUS
10
-1.86816
20
5.89529
11
-1.87878
21
5.89529
0
LINE
8
BLACK
6
CONTINUOUS
10
-1.87878
20
5.89529
11
-1.88225
21
5.89356
0
LINE
8
BLACK
6
CONTINUOUS
10
-1.88225
20
5.89356
11
-1.88379
21
5.89202
0
LINE
8
BLACK
6
CONTINUOUS
10
-1.88379
20
5.89202
11
-1.88552
21
5.88855
0
LINE
8
BLACK
6
CONTINUOUS
10
-1.88552
20
5.88855
11
-1.88552
21
5.88553
0
LINE
8
BLACK
6
CONTINUOUS
10
-1.88552
20
5.88553
11
-1.88379
21
5.88206
0
LINE
8
BLACK
6
CONTINUOUS
10
-1.88379
20
5.88206
11
-1.88225
21
5.88053
0
LINE
8
BLACK
6
CONTINUOUS
10
-1.88225
20
5.88053
11
-1.87834
21
5.87857
0
LINE
8
BLACK
6
CONTINUOUS
10
-1.87834
20
5.87857
11
-1.86901
21
5.87624
0
LINE
8
BLACK
6
CONTINUOUS
10
-1.86901
20
5.87624
11
-1.86864
21
5.87601
0
LINE
8
BLACK
6
CONTINUOUS
10
-1.86864
20
5.87601
11
-1.8682
21
5.87594
0
LINE
8
BLACK
6
CONTINUOUS
10
-1.8682
20
5.87594
11
-1.86333
21
5.8735
0
LINE
8
BLACK
6
CONTINUOUS
10
-1.86333
20
5.8735
11
-1.86287
21
5.87306
0
LINE
8
BLACK
6
CONTINUOUS
10
-1.86287
20
5.87306
11
-1.8623
21
5.87277
0
LINE
8
BLACK
6
CONTINUOUS
10
-1.8623
20
5.87277
11
-1.85987
21
5.87033
0
LINE
8
BLACK
6
CONTINUOUS
10
-1.85987
20
5.87033
11
-1.85958
21
5.86976
0
LINE
8
BLACK
6
CONTINUOUS
10
-1.85958
20
5.86976
11
-1.85913
21
5.86931
0
LINE
8
BLACK
6
CONTINUOUS
10
-1.85913
20
5.86931
11
-1.85669
21
5.86443
0
LINE
8
BLACK
6
CONTINUOUS
10
-1.85669
20
5.86443
11
-1.85656
21
5.86353
0
LINE
8
BLACK
6
CONTINUOUS
10
-1.85656
20
5.86353
11
-1.85628
21
5.86267
0
LINE
8
BLACK
6
CONTINUOUS
10
-1.85628
20
5.86267
11
-1.85628
21
5.8578
0
LINE
8
BLACK
6
CONTINUOUS
10
-1.85628
20
5.8578
11
-1.85656
21
5.85693
0
LINE
8
BLACK
6
CONTINUOUS
10
-1.85656
20
5.85693
11
-1.85669
21
5.85604
0
LINE
8
BLACK
6
CONTINUOUS
10
-1.85669
20
5.85604
11
-1.85913
21
5.85116
0
LINE
8
BLACK
6
CONTINUOUS
10
-1.85913
20
5.85116
11
-1.85958
21
5.85071
0
LINE
8
BLACK
6
CONTINUOUS
10
-1.85958
20
5.85071
11
-1.85987
21
5.85014
0
LINE
8
BLACK
6
CONTINUOUS
10
-1.85987
20
5.85014
11
-1.8623
21
5.8477
0
LINE
8
BLACK
6
CONTINUOUS
10
-1.8623
20
5.8477
11
-1.86287
21
5.84741
0
LINE
8
BLACK
6
CONTINUOUS
10
-1.86287
20
5.84741
11
-1.86333
21
5.84696
0
LINE
8
BLACK
6
CONTINUOUS
10
-1.86333
20
5.84696
11
-1.8682
21
5.84453
0
LINE
8
BLACK
6
CONTINUOUS
10
-1.8682
20
5.84453
11
-1.8691
21
5.84439
0
LINE
8
BLACK
6
CONTINUOUS
10
-1.8691
20
5.84439
11
-1.86996
21
5.84411
0
LINE
8
BLACK
6
CONTINUOUS
10
-1.86996
20
5.84411
11
-1.88215
21
5.84411
0
LINE
8
BLACK
6
CONTINUOUS
10
-1.88215
20
5.84411
11
-1.88276
21
5.84431
0
LINE
8
BLACK
6
CONTINUOUS
10
-1.88276
20
5.84431
11
-1.88339
21
5.84431
0
LINE
8
BLACK
6
CONTINUOUS
10
-1.88339
20
5.84431
11
-1.89071
21
5.84675
0
LINE
8
BLACK
6
CONTINUOUS
10
-1.89071
20
5.84675
11
-1.89266
21
5.84819
0
LINE
8
BLACK
6
CONTINUOUS
10
-1.89266
20
5.84819
11
-1.8934
21
5.85051
0
LINE
8
BLACK
6
CONTINUOUS
10
-1.8934
20
5.85051
11
-1.89263
21
5.85282
0
LINE
8
BLACK
6
CONTINUOUS
10
-1.89263
20
5.85282
11
-1.89065
21
5.85424
0
LINE
8
BLACK
6
CONTINUOUS
10
-1.89065
20
5.85424
11
-1.88822
21
5.85422
0
LINE
8
BLACK
6
CONTINUOUS
10
-1.88822
20
5.85422
11
-1.88151
21
5.85198
0
LINE
8
BLACK
6
CONTINUOUS
10
-1.88151
20
5.85198
11
-1.87089
21
5.85198
0
LINE
8
BLACK
6
CONTINUOUS
10
-1.87089
20
5.85198
11
-1.86742
21
5.85372
0
LINE
8
BLACK
6
CONTINUOUS
10
-1.86742
20
5.85372
11
-1.86589
21
5.85525
0
LINE
8
BLACK
6
CONTINUOUS
10
-1.86589
20
5.85525
11
-1.86415
21
5.85873
0
LINE
8
BLACK
6
CONTINUOUS
10
-1.86415
20
5.85873
11
-1.86415
21
5.86174
0
LINE
8
BLACK
6
CONTINUOUS
10
-1.86415
20
5.86174
11
-1.86589
21
5.86521
0
LINE
8
BLACK
6
CONTINUOUS
10
-1.86589
20
5.86521
11
-1.86742
21
5.86675
0
LINE
8
BLACK
6
CONTINUOUS
10
-1.86742
20
5.86675
11
-1.87134
21
5.8687
0
LINE
8
BLACK
6
CONTINUOUS
10
-1.87134
20
5.8687
11
-1.88067
21
5.87104
0
LINE
8
BLACK
6
CONTINUOUS
10
-1.88067
20
5.87104
11
-1.88104
21
5.87127
0
LINE
8
BLACK
6
CONTINUOUS
10
-1.88104
20
5.87127
11
-1.88147
21
5.87134
0
LINE
8
BLACK
6
CONTINUOUS
10
-1.88147
20
5.87134
11
-1.88635
21
5.87377
0
LINE
8
BLACK
6
CONTINUOUS
10
-1.88635
20
5.87377
11
-1.8868
21
5.87422
0
LINE
8
BLACK
6
CONTINUOUS
10
-1.8868
20
5.87422
11
-1.88737
21
5.87451
0
LINE
8
BLACK
6
CONTINUOUS
10
-1.88737
20
5.87451
11
-1.88981
21
5.87695
0
LINE
8
BLACK
6
CONTINUOUS
10
-1.88981
20
5.87695
11
-1.8901
21
5.87752
0
LINE
8
BLACK
6
CONTINUOUS
10
-1.8901
20
5.87752
11
-1.89054
21
5.87797
0
LINE
8
BLACK
6
CONTINUOUS
10
-1.89054
20
5.87797
11
-1.89298
21
5.88284
0
LINE
8
BLACK
6
CONTINUOUS
10
-1.89298
20
5.88284
11
-1.89312
21
5.88374
0
LINE
8
BLACK
6
CONTINUOUS
10
-1.89312
20
5.88374
11
-1.8934
21
5.88461
0
LINE
8
BLACK
6
CONTINUOUS
10
-1.8934
20
5.88461
11
-1.8934
21
5.88948
0
LINE
8
BLACK
6
CONTINUOUS
10
-1.8934
20
5.88948
11
-1.89312
21
5.89034
0
LINE
8
BLACK
6
CONTINUOUS
10
-1.89312
20
5.89034
11
-1.89298
21
5.89124
0
LINE
8
BLACK
6
CONTINUOUS
10
-1.89298
20
5.89124
11
-1.89054
21
5.89611
0
LINE
8
BLACK
6
CONTINUOUS
10
-1.89054
20
5.89611
11
-1.8901
21
5.89657
0
LINE
8
BLACK
6
CONTINUOUS
10
-1.8901
20
5.89657
11
-1.88981
21
5.89714
0
LINE
8
BLACK
6
CONTINUOUS
10
-1.88981
20
5.89714
11
-1.88737
21
5.89958
0
LINE
8
BLACK
6
CONTINUOUS
10
-1.88737
20
5.89958
11
-1.8868
21
5.89986
0
LINE
8
BLACK
6
CONTINUOUS
10
-1.8868
20
5.89986
11
-1.88635
21
5.90031
0
LINE
8
BLACK
6
CONTINUOUS
10
-1.88635
20
5.90031
11
-1.88147
21
5.90275
0
LINE
8
BLACK
6
CONTINUOUS
10
-1.88147
20
5.90275
11
-1.88057
21
5.90289
0
LINE
8
BLACK
6
CONTINUOUS
10
-1.88057
20
5.90289
11
-1.87971
21
5.90317
0
LINE
8
BLACK
6
CONTINUOUS
10
-1.87971
20
5.90317
11
-1.86753
21
5.90317
0
LINE
8
BLACK
6
CONTINUOUS
10
-1.86753
20
5.90317
11
-1.86692
21
5.90297
0
LINE
8
BLACK
6
CONTINUOUS
10
-1.79838
20
5.85667
11
-1.79807
21
5.85667
0
LINE
8
BLACK
6
CONTINUOUS
10
-1.79807
20
5.85667
11
-1.79781
21
5.85648
0
LINE
8
BLACK
6
CONTINUOUS
10
-1.79781
20
5.85648
11
-1.7975
21
5.85643
0
LINE
8
BLACK
6
CONTINUOUS
10
-1.7975
20
5.85643
11
-1.79706
21
5.85599
0
LINE
8
BLACK
6
CONTINUOUS
10
-1.79706
20
5.85599
11
-1.7965
21
5.85571
0
LINE
8
BLACK
6
CONTINUOUS
10
-1.7965
20
5.85571
11
-1.79406
21
5.85327
0
LINE
8
BLACK
6
CONTINUOUS
10
-1.79406
20
5.85327
11
-1.79378
21
5.85271
0
LINE
8
BLACK
6
CONTINUOUS
10
-1.79378
20
5.85271
11
-1.79334
21
5.85227
0
LINE
8
BLACK
6
CONTINUOUS
10
-1.79334
20
5.85227
11
-1.79324
21
5.85166
0
LINE
8
BLACK
6
CONTINUOUS
10
-1.79324
20
5.85166
11
-1.79296
21
5.8511
0
LINE
8
BLACK
6
CONTINUOUS
10
-1.79296
20
5.8511
11
-1.79306
21
5.85048
0
LINE
8
BLACK
6
CONTINUOUS
10
-1.79306
20
5.85048
11
-1.79296
21
5.84987
0
LINE
8
BLACK
6
CONTINUOUS
10
-1.79296
20
5.84987
11
-1.79324
21
5.84931
0
LINE
8
BLACK
6
CONTINUOUS
10
-1.79324
20
5.84931
11
-1.79334
21
5.8487
0
LINE
8
BLACK
6
CONTINUOUS
10
-1.79334
20
5.8487
11
-1.79378
21
5.84826
0
LINE
8
BLACK
6
CONTINUOUS
10
-1.79378
20
5.84826
11
-1.79406
21
5.8477
0
LINE
8
BLACK
6
CONTINUOUS
10
-1.79406
20
5.8477
11
-1.7965
21
5.84526
0
LINE
8
BLACK
6
CONTINUOUS
10
-1.7965
20
5.84526
11
-1.79706
21
5.84498
0
LINE
8
BLACK
6
CONTINUOUS
10
-1.79706
20
5.84498
11
-1.7975
21
5.84454
0
LINE
8
BLACK
6
CONTINUOUS
10
-1.7975
20
5.84454
11
-1.79781
21
5.84449
0
LINE
8
BLACK
6
CONTINUOUS
10
-1.79781
20
5.84449
11
-1.79807
21
5.8443
0
LINE
8
BLACK
6
CONTINUOUS
10
-1.79807
20
5.8443
11
-1.79838
21
5.8443
0
LINE
8
BLACK
6
CONTINUOUS
10
-1.79838
20
5.8443
11
-1.79867
21
5.84416
0
LINE
8
BLACK
6
CONTINUOUS
10
-1.79867
20
5.84416
11
-1.79928
21
5.84426
0
LINE
8
BLACK
6
CONTINUOUS
10
-1.79928
20
5.84426
11
-1.7999
21
5.84416
0
LINE
8
BLACK
6
CONTINUOUS
10
-1.7999
20
5.84416
11
-1.80018
21
5.8443
0
LINE
8
BLACK
6
CONTINUOUS
10
-1.80018
20
5.8443
11
-1.8005
21
5.8443
0
LINE
8
BLACK
6
CONTINUOUS
10
-1.8005
20
5.8443
11
-1.80076
21
5.84449
0
LINE
8
BLACK
6
CONTINUOUS
10
-1.80076
20
5.84449
11
-1.80107
21
5.84454
0
LINE
8
BLACK
6
CONTINUOUS
10
-1.80107
20
5.84454
11
-1.80151
21
5.84498
0
LINE
8
BLACK
6
CONTINUOUS
10
-1.80151
20
5.84498
11
-1.80207
21
5.84526
0
LINE
8
BLACK
6
CONTINUOUS
10
-1.80207
20
5.84526
11
-1.8045
21
5.8477
0
LINE
8
BLACK
6
CONTINUOUS
10
-1.8045
20
5.8477
11
-1.80479
21
5.84826
0
LINE
8
BLACK
6
CONTINUOUS
10
-1.80479
20
5.84826
11
-1.80523
21
5.8487
0
LINE
8
BLACK
6
CONTINUOUS
10
-1.80523
20
5.8487
11
-1.80533
21
5.84931
0
LINE
8
BLACK
6
CONTINUOUS
10
-1.80533
20
5.84931
11
-1.80561
21
5.84987
0
LINE
8
BLACK
6
CONTINUOUS
10
-1.80561
20
5.84987
11
-1.80551
21
5.85048
0
LINE
8
BLACK
6
CONTINUOUS
10
-1.80551
20
5.85048
11
-1.80561
21
5.8511
0
LINE
8
BLACK
6
CONTINUOUS
10
-1.80561
20
5.8511
11
-1.80533
21
5.85166
0
LINE
8
BLACK
6
CONTINUOUS
10
-1.80533
20
5.85166
11
-1.80523
21
5.85227
0
LINE
8
BLACK
6
CONTINUOUS
10
-1.80523
20
5.85227
11
-1.80479
21
5.85271
0
LINE
8
BLACK
6
CONTINUOUS
10
-1.80479
20
5.85271
11
-1.8045
21
5.85327
0
LINE
8
BLACK
6
CONTINUOUS
10
-1.8045
20
5.85327
11
-1.80207
21
5.85571
0
LINE
8
BLACK
6
CONTINUOUS
10
-1.80207
20
5.85571
11
-1.80151
21
5.85599
0
LINE
8
BLACK
6
CONTINUOUS
10
-1.80151
20
5.85599
11
-1.80107
21
5.85643
0
LINE
8
BLACK
6
CONTINUOUS
10
-1.80107
20
5.85643
11
-1.80076
21
5.85648
0
LINE
8
BLACK
6
CONTINUOUS
10
-1.80076
20
5.85648
11
-1.8005
21
5.85667
0
LINE
8
BLACK
6
CONTINUOUS
10
-1.8005
20
5.85667
11
-1.80018
21
5.85667
0
LINE
8
BLACK
6
CONTINUOUS
10
-1.80018
20
5.85667
11
-1.7999
21
5.85681
0
LINE
8
BLACK
6
CONTINUOUS
10
-1.7999
20
5.85681
11
-1.79928
21
5.85671
0
LINE
8
BLACK
6
CONTINUOUS
10
-1.79928
20
5.85671
11
-1.79867
21
5.85681
0
LINE
8
BLACK
6
CONTINUOUS
10
-1.79867
20
5.85681
11
-1.79838
21
5.85667
0
LINE
8
BLACK
6
CONTINUOUS
10
-1.81403
20
5.90241
11
-1.8126
21
5.90045
0
LINE
8
BLACK
6
CONTINUOUS
10
-1.8126
20
5.90045
11
-1.8126
21
5.89801
0
LINE
8
BLACK
6
CONTINUOUS
10
-1.8126
20
5.89801
11
-1.81403
21
5.89604
0
LINE
8
BLACK
6
CONTINUOUS
10
-1.81403
20
5.89604
11
-1.81634
21
5.89529
0
LINE
8
BLACK
6
CONTINUOUS
10
-1.81634
20
5.89529
11
-1.82703
21
5.89529
0
LINE
8
BLACK
6
CONTINUOUS
10
-1.82703
20
5.89529
11
-1.82703
21
5.84805
0
LINE
8
BLACK
6
CONTINUOUS
10
-1.82703
20
5.84805
11
-1.82778
21
5.84573
0
LINE
8
BLACK
6
CONTINUOUS
10
-1.82778
20
5.84573
11
-1.82975
21
5.8443
0
LINE
8
BLACK
6
CONTINUOUS
10
-1.82975
20
5.8443
11
-1.83218
21
5.8443
0
LINE
8
BLACK
6
CONTINUOUS
10
-1.83218
20
5.8443
11
-1.83415
21
5.84573
0
LINE
8
BLACK
6
CONTINUOUS
10
-1.83415
20
5.84573
11
-1.8349
21
5.84805
0
LINE
8
BLACK
6
CONTINUOUS
10
-1.8349
20
5.84805
11
-1.8349
21
5.89529
0
LINE
8
BLACK
6
CONTINUOUS
10
-1.8349
20
5.89529
11
-1.84559
21
5.89529
0
LINE
8
BLACK
6
CONTINUOUS
10
-1.84559
20
5.89529
11
-1.8479
21
5.89604
0
LINE
8
BLACK
6
CONTINUOUS
10
-1.8479
20
5.89604
11
-1.84933
21
5.89801
0
LINE
8
BLACK
6
CONTINUOUS
10
-1.84933
20
5.89801
11
-1.84933
21
5.90045
0
LINE
8
BLACK
6
CONTINUOUS
10
-1.84933
20
5.90045
11
-1.8479
21
5.90241
0
LINE
8
BLACK
6
CONTINUOUS
10
-1.8479
20
5.90241
11
-1.84559
21
5.90317
0
LINE
8
BLACK
6
CONTINUOUS
10
-1.84559
20
5.90317
11
-1.81634
21
5.90317
0
LINE
8
BLACK
6
CONTINUOUS
10
-1.81634
20
5.90317
11
-1.81403
21
5.90241
0
LINE
8
BLACK
6
CONTINUOUS
10
-0.810139
20
5.92704
11
-0.809501
21
5.92704
0
LINE
8
BLACK
6
CONTINUOUS
10
-0.809501
20
5.92704
11
-0.80219
21
5.9246
0
LINE
8
BLACK
6
CONTINUOUS
10
-0.80219
20
5.9246
11
-0.801459
21
5.92406
0
LINE
8
BLACK
6
CONTINUOUS
10
-0.801459
20
5.92406
11
-0.800651
21
5.92365
0
LINE
8
BLACK
6
CONTINUOUS
10
-0.800651
20
5.92365
11
-0.795776
21
5.91878
0
LINE
8
BLACK
6
CONTINUOUS
10
-0.795776
20
5.91878
11
-0.795487
21
5.91821
0
LINE
8
BLACK
6
CONTINUOUS
10
-0.795487
20
5.91821
11
-0.795039
21
5.91775
0
LINE
8
BLACK
6
CONTINUOUS
10
-0.795039
20
5.91775
11
-0.792602
21
5.91288
0
LINE
8
BLACK
6
CONTINUOUS
10
-0.792602
20
5.91288
11
-0.792536
21
5.91244
0
LINE
8
BLACK
6
CONTINUOUS
10
-0.792536
20
5.91244
11
-0.792304
21
5.91207
0
LINE
8
BLACK
6
CONTINUOUS
10
-0.792304
20
5.91207
11
-0.789866
21
5.90232
0
LINE
8
BLACK
6
CONTINUOUS
10
-0.789866
20
5.90232
11
-0.7899
21
5.90183
0
LINE
8
BLACK
6
CONTINUOUS
10
-0.7899
20
5.90183
11
-0.789749
21
5.90137
0
LINE
8
BLACK
6
CONTINUOUS
10
-0.789749
20
5.90137
11
-0.789749
21
5.89406
0
LINE
8
BLACK
6
CONTINUOUS
10
-0.789749
20
5.89406
11
-0.7899
21
5.89359
0
LINE
8
BLACK
6
CONTINUOUS
10
-0.7899
20
5.89359
11
-0.789866
21
5.8931
0
LINE
8
BLACK
6
CONTINUOUS
10
-0.789866
20
5.8931
11
-0.792304
21
5.88335
0
LINE
8
BLACK
6
CONTINUOUS
10
-0.792304
20
5.88335
11
-0.792536
21
5.88298
0
LINE
8
BLACK
6
CONTINUOUS
10
-0.792536
20
5.88298
11
-0.792602
21
5.88255
0
LINE
8
BLACK
6
CONTINUOUS
10
-0.792602
20
5.88255
11
-0.795039
21
5.87767
0
LINE
8
BLACK
6
CONTINUOUS
10
-0.795039
20
5.87767
11
-0.795487
21
5.87722
0
LINE
8
BLACK
6
CONTINUOUS
10
-0.795487
20
5.87722
11
-0.795776
21
5.87665
0
LINE
8
BLACK
6
CONTINUOUS
10
-0.795776
20
5.87665
11
-0.800651
21
5.87178
0
LINE
8
BLACK
6
CONTINUOUS
10
-0.800651
20
5.87178
11
-0.801459
21
5.87136
0
LINE
8
BLACK
6
CONTINUOUS
10
-0.801459
20
5.87136
11
-0.80219
21
5.87082
0
LINE
8
BLACK
6
CONTINUOUS
10
-0.80219
20
5.87082
11
-0.809501
21
5.86839
0
LINE
8
BLACK
6
CONTINUOUS
10
-0.809501
20
5.86839
11
-0.810139
21
5.86838
0
LINE
8
BLACK
6
CONTINUOUS
10
-0.810139
20
5.86838
11
-0.810746
21
5.86819
0
LINE
8
BLACK
6
CONTINUOUS
10
-0.810746
20
5.86819
11
-0.822932
21
5.86819
0
LINE
8
BLACK
6
CONTINUOUS
10
-0.822932
20
5.86819
11
-0.823525
21
5.86838
0
LINE
8
BLACK
6
CONTINUOUS
10
-0.823525
20
5.86838
11
-0.824149
21
5.86838
0
LINE
8
BLACK
6
CONTINUOUS
10
-0.824149
20
5.86838
11
-0.824653
21
5.86874
0
LINE
8
BLACK
6
CONTINUOUS
10
-0.824653
20
5.86874
11
-0.825246
21
5.86894
0
LINE
8
BLACK
6
CONTINUOUS
10
-0.825246
20
5.86894
11
-0.825613
21
5.86944
0
LINE
8
BLACK
6
CONTINUOUS
10
-0.825613
20
5.86944
11
-0.826117
21
5.86981
0
LINE
8
BLACK
6
CONTINUOUS
10
-0.826117
20
5.86981
11
-0.82631
21
5.8704
0
LINE
8
BLACK
6
CONTINUOUS
10
-0.82631
20
5.8704
11
-0.826676
21
5.87091
0
LINE
8
BLACK
6
CONTINUOUS
10
-0.826676
20
5.87091
11
-0.826676
21
5.87153
0
LINE
8
BLACK
6
CONTINUOUS
10
-0.826676
20
5.87153
11
-0.826869
21
5.87212
0
LINE
8
BLACK
6
CONTINUOUS
10
-0.826869
20
5.87212
11
-0.826869
21
5.9233
0
LINE
8
BLACK
6
CONTINUOUS
10
-0.826869
20
5.9233
11
-0.826676
21
5.9239
0
LINE
8
BLACK
6
CONTINUOUS
10
-0.826676
20
5.9239
11
-0.826676
21
5.92452
0
LINE
8
BLACK
6
CONTINUOUS
10
-0.826676
20
5.92452
11
-0.82631
21
5.92502
0
LINE
8
BLACK
6
CONTINUOUS
10
-0.82631
20
5.92502
11
-0.826117
21
5.92562
0
LINE
8
BLACK
6
CONTINUOUS
10
-0.826117
20
5.92562
11
-0.825613
21
5.92598
0
LINE
8
BLACK
6
CONTINUOUS
10
-0.825613
20
5.92598
11
-0.825246
21
5.92649
0
LINE
8
BLACK
6
CONTINUOUS
10
-0.825246
20
5.92649
11
-0.824653
21
5.92668
0
LINE
8
BLACK
6
CONTINUOUS
10
-0.824653
20
5.92668
11
-0.824149
21
5.92705
0
LINE
8
BLACK
6
CONTINUOUS
10
-0.824149
20
5.92705
11
-0.823525
21
5.92705
0
LINE
8
BLACK
6
CONTINUOUS
10
-0.823525
20
5.92705
11
-0.822932
21
5.92724
0
LINE
8
BLACK
6
CONTINUOUS
10
-0.822932
20
5.92724
11
-0.810746
21
5.92724
0
LINE
8
BLACK
6
CONTINUOUS
10
-0.810746
20
5.92724
11
-0.810139
21
5.92704
0
LINE
8
BLACK
6
CONTINUOUS
10
-0.818995
20
5.91937
11
-0.818995
21
5.87606
0
LINE
8
BLACK
6
CONTINUOUS
10
-0.818995
20
5.87606
11
-0.811385
21
5.87606
0
LINE
8
BLACK
6
CONTINUOUS
10
-0.811385
20
5.87606
11
-0.805561
21
5.878
0
LINE
8
BLACK
6
CONTINUOUS
10
-0.805561
20
5.878
11
-0.801796
21
5.88177
0
LINE
8
BLACK
6
CONTINUOUS
10
-0.801796
20
5.88177
11
-0.799838
21
5.88568
0
LINE
8
BLACK
6
CONTINUOUS
10
-0.799838
20
5.88568
11
-0.797623
21
5.89454
0
LINE
8
BLACK
6
CONTINUOUS
10
-0.797623
20
5.89454
11
-0.797623
21
5.90088
0
LINE
8
BLACK
6
CONTINUOUS
10
-0.797623
20
5.90088
11
-0.799838
21
5.90974
0
LINE
8
BLACK
6
CONTINUOUS
10
-0.799838
20
5.90974
11
-0.801796
21
5.91366
0
LINE
8
BLACK
6
CONTINUOUS
10
-0.801796
20
5.91366
11
-0.805561
21
5.91743
0
LINE
8
BLACK
6
CONTINUOUS
10
-0.805561
20
5.91743
11
-0.811385
21
5.91937
0
LINE
8
BLACK
6
CONTINUOUS
10
-0.811385
20
5.91937
11
-0.818995
21
5.91937
0
LINE
8
BLACK
6
CONTINUOUS
10
-0.904934
20
5.92696
11
-0.904036
21
5.92682
0
LINE
8
BLACK
6
CONTINUOUS
10
-0.904036
20
5.92682
11
-0.899162
21
5.92439
0
LINE
8
BLACK
6
CONTINUOUS
10
-0.899162
20
5.92439
11
-0.897428
21
5.92268
0
LINE
8
BLACK
6
CONTINUOUS
10
-0.897428
20
5.92268
11
-0.897029
21
5.92028
0
LINE
8
BLACK
6
CONTINUOUS
10
-0.897029
20
5.92028
11
-0.898117
21
5.9181
0
LINE
8
BLACK
6
CONTINUOUS
10
-0.898117
20
5.9181
11
-0.900277
21
5.91698
0
LINE
8
BLACK
6
CONTINUOUS
10
-0.900277
20
5.91698
11
-0.902683
21
5.91734
0
LINE
8
BLACK
6
CONTINUOUS
10
-0.902683
20
5.91734
11
-0.906726
21
5.91937
0
LINE
8
BLACK
6
CONTINUOUS
10
-0.906726
20
5.91937
11
-0.91247
21
5.91937
0
LINE
8
BLACK
6
CONTINUOUS
10
-0.91247
20
5.91937
11
-0.918293
21
5.91743
0
LINE
8
BLACK
6
CONTINUOUS
10
-0.918293
20
5.91743
11
-0.922059
21
5.91366
0
LINE
8
BLACK
6
CONTINUOUS
10
-0.922059
20
5.91366
11
-0.924017
21
5.90974
0
LINE
8
BLACK
6
CONTINUOUS
10
-0.924017
20
5.90974
11
-0.926232
21
5.90088
0
LINE
8
BLACK
6
CONTINUOUS
10
-0.926232
20
5.90088
11
-0.926232
21
5.89454
0
LINE
8
BLACK
6
CONTINUOUS
10
-0.926232
20
5.89454
11
-0.924017
21
5.88568
0
LINE
8
BLACK
6
CONTINUOUS
10
-0.924017
20
5.88568
11
-0.922059
21
5.88177
0
LINE
8
BLACK
6
CONTINUOUS
10
-0.922059
20
5.88177
11
-0.918293
21
5.878
0
LINE
8
BLACK
6
CONTINUOUS
10
-0.918293
20
5.878
11
-0.91247
21
5.87606
0
LINE
8
BLACK
6
CONTINUOUS
10
-0.91247
20
5.87606
11
-0.908873
21
5.87606
0
LINE
8
BLACK
6
CONTINUOUS
10
-0.908873
20
5.87606
11
-0.903049
21
5.878
0
LINE
8
BLACK
6
CONTINUOUS
10
-0.903049
20
5.878
11
-0.902422
21
5.87863
0
LINE
8
BLACK
6
CONTINUOUS
10
-0.902422
20
5.87863
11
-0.902422
21
5.89012
0
LINE
8
BLACK
6
CONTINUOUS
10
-0.902422
20
5.89012
11
-0.908234
21
5.89012
0
LINE
8
BLACK
6
CONTINUOUS
10
-0.908234
20
5.89012
11
-0.910548
21
5.89087
0
LINE
8
BLACK
6
CONTINUOUS
10
-0.910548
20
5.89087
11
-0.911978
21
5.89284
0
LINE
8
BLACK
6
CONTINUOUS
10
-0.911978
20
5.89284
11
-0.911978
21
5.89527
0
LINE
8
BLACK
6
CONTINUOUS
10
-0.911978
20
5.89527
11
-0.910548
21
5.89724
0
LINE
8
BLACK
6
CONTINUOUS
10
-0.910548
20
5.89724
11
-0.908234
21
5.89799
0
LINE
8
BLACK
6
CONTINUOUS
10
-0.908234
20
5.89799
11
-0.898485
21
5.89799
0
LINE
8
BLACK
6
CONTINUOUS
10
-0.898485
20
5.89799
11
-0.897892
21
5.8978
0
LINE
8
BLACK
6
CONTINUOUS
10
-0.897892
20
5.8978
11
-0.897269
21
5.8978
0
LINE
8
BLACK
6
CONTINUOUS
10
-0.897269
20
5.8978
11
-0.896764
21
5.89743
0
LINE
8
BLACK
6
CONTINUOUS
10
-0.896764
20
5.89743
11
-0.896171
21
5.89724
0
LINE
8
BLACK
6
CONTINUOUS
10
-0.896171
20
5.89724
11
-0.895805
21
5.89674
0
LINE
8
BLACK
6
CONTINUOUS
10
-0.895805
20
5.89674
11
-0.8953
21
5.89637
0
LINE
8
BLACK
6
CONTINUOUS
10
-0.8953
20
5.89637
11
-0.895107
21
5.89578
0
LINE
8
BLACK
6
CONTINUOUS
10
-0.895107
20
5.89578
11
-0.894741
21
5.89527
0
LINE
8
BLACK
6
CONTINUOUS
10
-0.894741
20
5.89527
11
-0.894741
21
5.89465
0
LINE
8
BLACK
6
CONTINUOUS
10
-0.894741
20
5.89465
11
-0.894548
21
5.89406
0
LINE
8
BLACK
6
CONTINUOUS
10
-0.894548
20
5.89406
11
-0.894548
21
5.877
0
LINE
8
BLACK
6
CONTINUOUS
10
-0.894548
20
5.877
11
-0.894646
21
5.87669
0
LINE
8
BLACK
6
CONTINUOUS
10
-0.894646
20
5.87669
11
-0.894597
21
5.87638
0
LINE
8
BLACK
6
CONTINUOUS
10
-0.894597
20
5.87638
11
-0.895015
21
5.87556
0
LINE
8
BLACK
6
CONTINUOUS
10
-0.895015
20
5.87556
11
-0.8953
21
5.87468
0
LINE
8
BLACK
6
CONTINUOUS
10
-0.8953
20
5.87468
11
-0.895557
21
5.8745
0
LINE
8
BLACK
6
CONTINUOUS
10
-0.895557
20
5.8745
11
-0.895701
21
5.87421
0
LINE
8
BLACK
6
CONTINUOUS
10
-0.895701
20
5.87421
11
-0.898139
21
5.87178
0
LINE
8
BLACK
6
CONTINUOUS
10
-0.898139
20
5.87178
11
-0.898947
21
5.87136
0
LINE
8
BLACK
6
CONTINUOUS
10
-0.898947
20
5.87136
11
-0.899677
21
5.87082
0
LINE
8
BLACK
6
CONTINUOUS
10
-0.899677
20
5.87082
11
-0.906989
21
5.86839
0
LINE
8
BLACK
6
CONTINUOUS
10
-0.906989
20
5.86839
11
-0.907627
21
5.86838
0
LINE
8
BLACK
6
CONTINUOUS
10
-0.907627
20
5.86838
11
-0.908234
21
5.86819
0
LINE
8
BLACK
6
CONTINUOUS
10
-0.908234
20
5.86819
11
-0.913108
21
5.86819
0
LINE
8
BLACK
6
CONTINUOUS
10
-0.913108
20
5.86819
11
-0.913715
21
5.86838
0
LINE
8
BLACK
6
CONTINUOUS
10
-0.913715
20
5.86838
11
-0.914353
21
5.86839
0
LINE
8
BLACK
6
CONTINUOUS
10
-0.914353
20
5.86839
11
-0.921665
21
5.87082
0
LINE
8
BLACK
6
CONTINUOUS
10
-0.921665
20
5.87082
11
-0.922395
21
5.87136
0
LINE
8
BLACK
6
CONTINUOUS
10
-0.922395
20
5.87136
11
-0.923204
21
5.87178
0
LINE
8
BLACK
6
CONTINUOUS
10
-0.923204
20
5.87178
11
-0.928078
21
5.87665
0
LINE
8
BLACK
6
CONTINUOUS
10
-0.928078
20
5.87665
11
-0.928368
21
5.87722
0
LINE
8
BLACK
6
CONTINUOUS
10
-0.928368
20
5.87722
11
-0.928816
21
5.87767
0
LINE
8
BLACK
6
CONTINUOUS
10
-0.928816
20
5.87767
11
-0.931253
21
5.88255
0
LINE
8
BLACK
6
CONTINUOUS
10
-0.931253
20
5.88255
11
-0.931318
21
5.88298
0
LINE
8
BLACK
6
CONTINUOUS
10
-0.931318
20
5.88298
11
-0.931551
21
5.88335
0
LINE
8
BLACK
6
CONTINUOUS
10
-0.931551
20
5.88335
11
-0.933988
21
5.8931
0
LINE
8
BLACK
6
CONTINUOUS
10
-0.933988
20
5.8931
11
-0.933954
21
5.89359
0
LINE
8
BLACK
6
CONTINUOUS
10
-0.933954
20
5.89359
11
-0.934106
21
5.89406
0
LINE
8
BLACK
6
CONTINUOUS
10
-0.934106
20
5.89406
11
-0.934106
21
5.90137
0
LINE
8
BLACK
6
CONTINUOUS
10
-0.934106
20
5.90137
11
-0.933954
21
5.90183
0
LINE
8
BLACK
6
CONTINUOUS
10
-0.933954
20
5.90183
11
-0.933988
21
5.90232
0
LINE
8
BLACK
6
CONTINUOUS
10
-0.933988
20
5.90232
11
-0.931551
21
5.91207
0
LINE
8
BLACK
6
CONTINUOUS
10
-0.931551
20
5.91207
11
-0.931318
21
5.91244
0
LINE
8
BLACK
6
CONTINUOUS
10
-0.931318
20
5.91244
11
-0.931253
21
5.91288
0
LINE
8
BLACK
6
CONTINUOUS
10
-0.931253
20
5.91288
11
-0.928816
21
5.91775
0
LINE
8
BLACK
6
CONTINUOUS
10
-0.928816
20
5.91775
11
-0.928368
21
5.91821
0
LINE
8
BLACK
6
CONTINUOUS
10
-0.928368
20
5.91821
11
-0.928078
21
5.91878
0
LINE
8
BLACK
6
CONTINUOUS
10
-0.928078
20
5.91878
11
-0.923204
21
5.92365
0
LINE
8
BLACK
6
CONTINUOUS
10
-0.923204
20
5.92365
11
-0.922395
21
5.92406
0
LINE
8
BLACK
6
CONTINUOUS
10
-0.922395
20
5.92406
11
-0.921665
21
5.9246
0
LINE
8
BLACK
6
CONTINUOUS
10
-0.921665
20
5.9246
11
-0.914353
21
5.92704
0
LINE
8
BLACK
6
CONTINUOUS
10
-0.914353
20
5.92704
11
-0.913715
21
5.92704
0
LINE
8
BLACK
6
CONTINUOUS
10
-0.913715
20
5.92704
11
-0.913108
21
5.92724
0
LINE
8
BLACK
6
CONTINUOUS
10
-0.913108
20
5.92724
11
-0.905797
21
5.92724
0
LINE
8
BLACK
6
CONTINUOUS
10
-0.905797
20
5.92724
11
-0.904934
21
5.92696
0
LINE
8
BLACK
6
CONTINUOUS
10
-0.876346
20
5.92705
11
-0.875334
21
5.92705
0
LINE
8
BLACK
6
CONTINUOUS
10
-0.875334
20
5.92705
11
-0.875154
21
5.92692
0
LINE
8
BLACK
6
CONTINUOUS
10
-0.875154
20
5.92692
11
-0.874933
21
5.92689
0
LINE
8
BLACK
6
CONTINUOUS
10
-0.874933
20
5.92689
11
-0.874184
21
5.92621
0
LINE
8
BLACK
6
CONTINUOUS
10
-0.874184
20
5.92621
11
-0.873365
21
5.92562
0
LINE
8
BLACK
6
CONTINUOUS
10
-0.873365
20
5.92562
11
-0.873297
21
5.92541
0
LINE
8
BLACK
6
CONTINUOUS
10
-0.873297
20
5.92541
11
-0.873132
21
5.92526
0
LINE
8
BLACK
6
CONTINUOUS
10
-0.873132
20
5.92526
11
-0.851241
21
5.88695
0
LINE
8
BLACK
6
CONTINUOUS
10
-0.851241
20
5.88695
11
-0.851241
21
5.9233
0
LINE
8
BLACK
6
CONTINUOUS
10
-0.851241
20
5.9233
11
-0.850489
21
5.92562
0
LINE
8
BLACK
6
CONTINUOUS
10
-0.850489
20
5.92562
11
-0.848521
21
5.92705
0
LINE
8
BLACK
6
CONTINUOUS
10
-0.848521
20
5.92705
11
-0.846087
21
5.92705
0
LINE
8
BLACK
6
CONTINUOUS
10
-0.846087
20
5.92705
11
-0.844119
21
5.92562
0
LINE
8
BLACK
6
CONTINUOUS
10
-0.844119
20
5.92562
11
-0.843367
21
5.9233
0
LINE
8
BLACK
6
CONTINUOUS
10
-0.843367
20
5.9233
11
-0.843367
21
5.87212
0
LINE
8
BLACK
6
CONTINUOUS
10
-0.843367
20
5.87212
11
-0.843436
21
5.87191
0
LINE
8
BLACK
6
CONTINUOUS
10
-0.843436
20
5.87191
11
-0.843391
21
5.87169
0
LINE
8
BLACK
6
CONTINUOUS
10
-0.843391
20
5.87169
11
-0.843806
21
5.87077
0
LINE
8
BLACK
6
CONTINUOUS
10
-0.843806
20
5.87077
11
-0.844119
21
5.86981
0
LINE
8
BLACK
6
CONTINUOUS
10
-0.844119
20
5.86981
11
-0.844299
21
5.86968
0
LINE
8
BLACK
6
CONTINUOUS
10
-0.844299
20
5.86968
11
-0.84439
21
5.86947
0
LINE
8
BLACK
6
CONTINUOUS
10
-0.84439
20
5.86947
11
-0.845269
21
5.86897
0
LINE
8
BLACK
6
CONTINUOUS
10
-0.845269
20
5.86897
11
-0.846087
21
5.86838
0
LINE
8
BLACK
6
CONTINUOUS
10
-0.846087
20
5.86838
11
-0.84631
21
5.86838
0
LINE
8
BLACK
6
CONTINUOUS
10
-0.84631
20
5.86838
11
-0.846503
21
5.86827
0
LINE
8
BLACK
6
CONTINUOUS
10
-0.846503
20
5.86827
11
-0.847509
21
5.86838
0
LINE
8
BLACK
6
CONTINUOUS
10
-0.847509
20
5.86838
11
-0.848521
21
5.86838
0
LINE
8
BLACK
6
CONTINUOUS
10
-0.848521
20
5.86838
11
-0.848701
21
5.86851
0
LINE
8
BLACK
6
CONTINUOUS
10
-0.848701
20
5.86851
11
-0.848921
21
5.86853
0
LINE
8
BLACK
6
CONTINUOUS
10
-0.848921
20
5.86853
11
-0.84967
21
5.86921
0
LINE
8
BLACK
6
CONTINUOUS
10
-0.84967
20
5.86921
11
-0.850489
21
5.86981
0
LINE
8
BLACK
6
CONTINUOUS
10
-0.850489
20
5.86981
11
-0.850558
21
5.87002
0
LINE
8
BLACK
6
CONTINUOUS
10
-0.850558
20
5.87002
11
-0.850722
21
5.87017
0
LINE
8
BLACK
6
CONTINUOUS
10
-0.850722
20
5.87017
11
-0.872613
21
5.90848
0
LINE
8
BLACK
6
CONTINUOUS
10
-0.872613
20
5.90848
11
-0.872613
21
5.87212
0
LINE
8
BLACK
6
CONTINUOUS
10
-0.872613
20
5.87212
11
-0.873365
21
5.86981
0
LINE
8
BLACK
6
CONTINUOUS
10
-0.873365
20
5.86981
11
-0.875334
21
5.86838
0
LINE
8
BLACK
6
CONTINUOUS
10
-0.875334
20
5.86838
11
-0.877767
21
5.86838
0
LINE
8
BLACK
6
CONTINUOUS
10
-0.877767
20
5.86838
11
-0.879736
21
5.86981
0
LINE
8
BLACK
6
CONTINUOUS
10
-0.879736
20
5.86981
11
-0.880487
21
5.87212
0
LINE
8
BLACK
6
CONTINUOUS
10
-0.880487
20
5.87212
11
-0.880487
21
5.9233
0
LINE
8
BLACK
6
CONTINUOUS
10
-0.880487
20
5.9233
11
-0.880419
21
5.92351
0
LINE
8
BLACK
6
CONTINUOUS
10
-0.880419
20
5.92351
11
-0.880464
21
5.92373
0
LINE
8
BLACK
6
CONTINUOUS
10
-0.880464
20
5.92373
11
-0.880048
21
5.92465
0
LINE
8
BLACK
6
CONTINUOUS
10
-0.880048
20
5.92465
11
-0.879736
21
5.92562
0
LINE
8
BLACK
6
CONTINUOUS
10
-0.879736
20
5.92562
11
-0.879556
21
5.92575
0
LINE
8
BLACK
6
CONTINUOUS
10
-0.879556
20
5.92575
11
-0.879464
21
5.92595
0
LINE
8
BLACK
6
CONTINUOUS
10
-0.879464
20
5.92595
11
-0.878586
21
5.92645
0
LINE
8
BLACK
6
CONTINUOUS
10
-0.878586
20
5.92645
11
-0.877767
21
5.92705
0
LINE
8
BLACK
6
CONTINUOUS
10
-0.877767
20
5.92705
11
-0.877545
21
5.92705
0
LINE
8
BLACK
6
CONTINUOUS
10
-0.877545
20
5.92705
11
-0.877352
21
5.92716
0
LINE
8
BLACK
6
CONTINUOUS
10
-0.877352
20
5.92716
11
-0.876346
21
5.92705
0
LINE
8
BLACK
6
CONTINUOUS
10
-0.796246
20
6.02649
11
-0.794816
21
6.02452
0
LINE
8
BLACK
6
CONTINUOUS
10
-0.794816
20
6.02452
11
-0.794816
21
6.02209
0
LINE
8
BLACK
6
CONTINUOUS
10
-0.794816
20
6.02209
11
-0.796246
21
6.02012
0
LINE
8
BLACK
6
CONTINUOUS
10
-0.796246
20
6.02012
11
-0.79856
21
6.01937
0
LINE
8
BLACK
6
CONTINUOUS
10
-0.79856
20
6.01937
11
-0.80738
21
6.01937
0
LINE
8
BLACK
6
CONTINUOUS
10
-0.80738
20
6.01937
11
-0.810851
21
6.01763
0
LINE
8
BLACK
6
CONTINUOUS
10
-0.810851
20
6.01763
11
-0.812561
21
6.01592
0
LINE
8
BLACK
6
CONTINUOUS
10
-0.812561
20
6.01592
11
-0.816841
21
6.0095
0
LINE
8
BLACK
6
CONTINUOUS
10
-0.816841
20
6.0095
11
-0.817733
21
6.00593
0
LINE
8
BLACK
6
CONTINUOUS
10
-0.817733
20
6.00593
11
-0.814944
21
6.00733
0
LINE
8
BLACK
6
CONTINUOUS
10
-0.814944
20
6.00733
11
-0.814046
21
6.00746
0
LINE
8
BLACK
6
CONTINUOUS
10
-0.814046
20
6.00746
11
-0.813183
21
6.00774
0
LINE
8
BLACK
6
CONTINUOUS
10
-0.813183
20
6.00774
11
-0.803435
21
6.00774
0
LINE
8
BLACK
6
CONTINUOUS
10
-0.803435
20
6.00774
11
-0.802571
21
6.00746
0
LINE
8
BLACK
6
CONTINUOUS
10
-0.802571
20
6.00746
11
-0.801674
21
6.00733
0
LINE
8
BLACK
6
CONTINUOUS
10
-0.801674
20
6.00733
11
-0.796799
21
6.00489
0
LINE
8
BLACK
6
CONTINUOUS
10
-0.796799
20
6.00489
11
-0.796345
21
6.00444
0
LINE
8
BLACK
6
CONTINUOUS
10
-0.796345
20
6.00444
11
-0.795776
21
6.00415
0
LINE
8
BLACK
6
CONTINUOUS
10
-0.795776
20
6.00415
11
-0.793339
21
6.00172
0
LINE
8
BLACK
6
CONTINUOUS
10
-0.793339
20
6.00172
11
-0.793049
21
6.00115
0
LINE
8
BLACK
6
CONTINUOUS
10
-0.793049
20
6.00115
11
-0.792602
21
6.00069
0
LINE
8
BLACK
6
CONTINUOUS
10
-0.792602
20
6.00069
11
-0.790164
21
5.99582
0
LINE
8
BLACK
6
CONTINUOUS
10
-0.790164
20
5.99582
11
-0.790029
21
5.99492
0
LINE
8
BLACK
6
CONTINUOUS
10
-0.790029
20
5.99492
11
-0.789749
21
5.99406
0
LINE
8
BLACK
6
CONTINUOUS
10
-0.789749
20
5.99406
11
-0.789749
21
5.98187
0
LINE
8
BLACK
6
CONTINUOUS
10
-0.789749
20
5.98187
11
-0.790029
21
5.98101
0
LINE
8
BLACK
6
CONTINUOUS
10
-0.790029
20
5.98101
11
-0.790164
21
5.98011
0
LINE
8
BLACK
6
CONTINUOUS
10
-0.790164
20
5.98011
11
-0.792602
21
5.97524
0
LINE
8
BLACK
6
CONTINUOUS
10
-0.792602
20
5.97524
11
-0.793049
21
5.97478
0
LINE
8
BLACK
6
CONTINUOUS
10
-0.793049
20
5.97478
11
-0.793339
21
5.97421
0
LINE
8
BLACK
6
CONTINUOUS
10
-0.793339
20
5.97421
11
-0.795776
21
5.97178
0
LINE
8
BLACK
6
CONTINUOUS
10
-0.795776
20
5.97178
11
-0.796345
21
5.97149
0
LINE
8
BLACK
6
CONTINUOUS
10
-0.796345
20
5.97149
11
-0.796799
21
5.97104
0
LINE
8
BLACK
6
CONTINUOUS
10
-0.796799
20
5.97104
11
-0.801674
21
5.9686
0
LINE
8
BLACK
6
CONTINUOUS
10
-0.801674
20
5.9686
11
-0.802571
21
5.96847
0
LINE
8
BLACK
6
CONTINUOUS
10
-0.802571
20
5.96847
11
-0.803435
21
5.96819
0
LINE
8
BLACK
6
CONTINUOUS
10
-0.803435
20
5.96819
11
-0.813183
21
5.96819
0
LINE
8
BLACK
6
CONTINUOUS
10
-0.813183
20
5.96819
11
-0.814046
21
5.96847
0
LINE
8
BLACK
6
CONTINUOUS
10
-0.814046
20
5.96847
11
-0.814944
21
5.9686
0
LINE
8
BLACK
6
CONTINUOUS
10
-0.814944
20
5.9686
11
-0.819818
21
5.97104
0
LINE
8
BLACK
6
CONTINUOUS
10
-0.819818
20
5.97104
11
-0.820273
21
5.97149
0
LINE
8
BLACK
6
CONTINUOUS
10
-0.820273
20
5.97149
11
-0.820842
21
5.97178
0
LINE
8
BLACK
6
CONTINUOUS
10
-0.820842
20
5.97178
11
-0.823279
21
5.97421
0
LINE
8
BLACK
6
CONTINUOUS
10
-0.823279
20
5.97421
11
-0.823569
21
5.97478
0
LINE
8
BLACK
6
CONTINUOUS
10
-0.823569
20
5.97478
11
-0.824016
21
5.97524
0
LINE
8
BLACK
6
CONTINUOUS
10
-0.824016
20
5.97524
11
-0.826454
21
5.98011
0
LINE
8
BLACK
6
CONTINUOUS
10
-0.826454
20
5.98011
11
-0.826589
21
5.98101
0
LINE
8
BLACK
6
CONTINUOUS
10
-0.826589
20
5.98101
11
-0.826869
21
5.98187
0
LINE
8
BLACK
6
CONTINUOUS
10
-0.826869
20
5.98187
11
-0.826869
21
6.00137
0
LINE
8
BLACK
6
CONTINUOUS
10
-0.826869
20
6.00137
11
-0.826718
21
6.00183
0
LINE
8
BLACK
6
CONTINUOUS
10
-0.826718
20
6.00183
11
-0.826752
21
6.00232
0
LINE
8
BLACK
6
CONTINUOUS
10
-0.826752
20
6.00232
11
-0.824314
21
6.01207
0
LINE
8
BLACK
6
CONTINUOUS
10
-0.824314
20
6.01207
11
-0.823954
21
6.01265
0
LINE
8
BLACK
6
CONTINUOUS
10
-0.823954
20
6.01265
11
-0.823771
21
6.0133
0
LINE
8
BLACK
6
CONTINUOUS
10
-0.823771
20
6.0133
11
-0.818896
21
6.02061
0
LINE
8
BLACK
6
CONTINUOUS
10
-0.818896
20
6.02061
11
-0.818585
21
6.02086
0
LINE
8
BLACK
6
CONTINUOUS
10
-0.818585
20
6.02086
11
-0.818404
21
6.02121
0
LINE
8
BLACK
6
CONTINUOUS
10
-0.818404
20
6.02121
11
-0.815967
21
6.02365
0
LINE
8
BLACK
6
CONTINUOUS
10
-0.815967
20
6.02365
11
-0.815399
21
6.02394
0
LINE
8
BLACK
6
CONTINUOUS
10
-0.815399
20
6.02394
11
-0.814944
21
6.02439
0
LINE
8
BLACK
6
CONTINUOUS
10
-0.814944
20
6.02439
11
-0.81007
21
6.02682
0
LINE
8
BLACK
6
CONTINUOUS
10
-0.81007
20
6.02682
11
-0.809172
21
6.02696
0
LINE
8
BLACK
6
CONTINUOUS
10
-0.809172
20
6.02696
11
-0.808309
21
6.02724
0
LINE
8
BLACK
6
CONTINUOUS
10
-0.808309
20
6.02724
11
-0.79856
21
6.02724
0
LINE
8
BLACK
6
CONTINUOUS
10
-0.79856
20
6.02724
11
-0.796246
21
6.02649
0
LINE
8
BLACK
6
CONTINUOUS
10
-0.812254
20
5.99987
11
-0.815726
21
5.99813
0
LINE
8
BLACK
6
CONTINUOUS
10
-0.815726
20
5.99813
11
-0.817259
21
5.9966
0
LINE
8
BLACK
6
CONTINUOUS
10
-0.817259
20
5.9966
11
-0.818995
21
5.99313
0
LINE
8
BLACK
6
CONTINUOUS
10
-0.818995
20
5.99313
11
-0.818995
21
5.9828
0
LINE
8
BLACK
6
CONTINUOUS
10
-0.818995
20
5.9828
11
-0.817259
21
5.97933
0
LINE
8
BLACK
6
CONTINUOUS
10
-0.817259
20
5.97933
11
-0.815726
21
5.9778
0
LINE
8
BLACK
6
CONTINUOUS
10
-0.815726
20
5.9778
11
-0.812254
21
5.97606
0
LINE
8
BLACK
6
CONTINUOUS
10
-0.812254
20
5.97606
11
-0.804364
21
5.97606
0
LINE
8
BLACK
6
CONTINUOUS
10
-0.804364
20
5.97606
11
-0.800892
21
5.9778
0
LINE
8
BLACK
6
CONTINUOUS
10
-0.800892
20
5.9778
11
-0.799359
21
5.97933
0
LINE
8
BLACK
6
CONTINUOUS
10
-0.799359
20
5.97933
11
-0.797623
21
5.9828
0
LINE
8
BLACK
6
CONTINUOUS
10
-0.797623
20
5.9828
11
-0.797623
21
5.99313
0
LINE
8
BLACK
6
CONTINUOUS
10
-0.797623
20
5.99313
11
-0.799359
21
5.9966
0
LINE
8
BLACK
6
CONTINUOUS
10
-0.799359
20
5.9966
11
-0.800892
21
5.99813
0
LINE
8
BLACK
6
CONTINUOUS
10
-0.800892
20
5.99813
11
-0.804364
21
5.99987
0
LINE
8
BLACK
6
CONTINUOUS
10
-0.804364
20
5.99987
11
-0.812254
21
5.99987
0
LINE
8
BLACK
6
CONTINUOUS
10
-0.885542
20
6.02699
11
-0.884749
21
6.02692
0
LINE
8
BLACK
6
CONTINUOUS
10
-0.884749
20
6.02692
11
-0.884412
21
6.02663
0
LINE
8
BLACK
6
CONTINUOUS
10
-0.884412
20
6.02663
11
-0.883985
21
6.02649
0
LINE
8
BLACK
6
CONTINUOUS
10
-0.883985
20
6.02649
11
-0.883517
21
6.02584
0
LINE
8
BLACK
6
CONTINUOUS
10
-0.883517
20
6.02584
11
-0.882918
21
6.02532
0
LINE
8
BLACK
6
CONTINUOUS
10
-0.882918
20
6.02532
11
-0.882819
21
6.02488
0
LINE
8
BLACK
6
CONTINUOUS
10
-0.882819
20
6.02488
11
-0.882555
21
6.02452
0
LINE
8
BLACK
6
CONTINUOUS
10
-0.882555
20
6.02452
11
-0.882555
21
6.02372
0
LINE
8
BLACK
6
CONTINUOUS
10
-0.882555
20
6.02372
11
-0.882378
21
6.02295
0
LINE
8
BLACK
6
CONTINUOUS
10
-0.882378
20
6.02295
11
-0.882555
21
6.02254
0
LINE
8
BLACK
6
CONTINUOUS
10
-0.882555
20
6.02254
11
-0.882555
21
6.02209
0
LINE
8
BLACK
6
CONTINUOUS
10
-0.882555
20
6.02209
11
-0.883023
21
6.02144
0
LINE
8
BLACK
6
CONTINUOUS
10
-0.883023
20
6.02144
11
-0.883336
21
6.02071
0
LINE
8
BLACK
6
CONTINUOUS
10
-0.883336
20
6.02071
11
-0.894959
21
6.00743
0
LINE
8
BLACK
6
CONTINUOUS
10
-0.894959
20
6.00743
11
-0.894287
21
6.00733
0
LINE
8
BLACK
6
CONTINUOUS
10
-0.894287
20
6.00733
11
-0.889413
21
6.00489
0
LINE
8
BLACK
6
CONTINUOUS
10
-0.889413
20
6.00489
11
-0.888958
21
6.00444
0
LINE
8
BLACK
6
CONTINUOUS
10
-0.888958
20
6.00444
11
-0.88839
21
6.00415
0
LINE
8
BLACK
6
CONTINUOUS
10
-0.88839
20
6.00415
11
-0.885953
21
6.00172
0
LINE
8
BLACK
6
CONTINUOUS
10
-0.885953
20
6.00172
11
-0.885663
21
6.00115
0
LINE
8
BLACK
6
CONTINUOUS
10
-0.885663
20
6.00115
11
-0.885215
21
6.00069
0
LINE
8
BLACK
6
CONTINUOUS
10
-0.885215
20
6.00069
11
-0.882778
21
5.99582
0
LINE
8
BLACK
6
CONTINUOUS
10
-0.882778
20
5.99582
11
-0.882643
21
5.99492
0
LINE
8
BLACK
6
CONTINUOUS
10
-0.882643
20
5.99492
11
-0.882362
21
5.99406
0
LINE
8
BLACK
6
CONTINUOUS
10
-0.882362
20
5.99406
11
-0.882362
21
5.98187
0
LINE
8
BLACK
6
CONTINUOUS
10
-0.882362
20
5.98187
11
-0.882643
21
5.98101
0
LINE
8
BLACK
6
CONTINUOUS
10
-0.882643
20
5.98101
11
-0.882778
21
5.98011
0
LINE
8
BLACK
6
CONTINUOUS
10
-0.882778
20
5.98011
11
-0.885215
21
5.97524
0
LINE
8
BLACK
6
CONTINUOUS
10
-0.885215
20
5.97524
11
-0.885663
21
5.97478
0
LINE
8
BLACK
6
CONTINUOUS
10
-0.885663
20
5.97478
11
-0.885953
21
5.97421
0
LINE
8
BLACK
6
CONTINUOUS
10
-0.885953
20
5.97421
11
-0.88839
21
5.97178
0
LINE
8
BLACK
6
CONTINUOUS
10
-0.88839
20
5.97178
11
-0.888958
21
5.97149
0
LINE
8
BLACK
6
CONTINUOUS
10
-0.888958
20
5.97149
11
-0.889413
21
5.97104
0
LINE
8
BLACK
6
CONTINUOUS
10
-0.889413
20
5.97104
11
-0.894287
21
5.9686
0
LINE
8
BLACK
6
CONTINUOUS
10
-0.894287
20
5.9686
11
-0.895185
21
5.96847
0
LINE
8
BLACK
6
CONTINUOUS
10
-0.895185
20
5.96847
11
-0.896048
21
5.96819
0
LINE
8
BLACK
6
CONTINUOUS
10
-0.896048
20
5.96819
11
-0.910671
21
5.96819
0
LINE
8
BLACK
6
CONTINUOUS
10
-0.910671
20
5.96819
11
-0.911534
21
5.96847
0
LINE
8
BLACK
6
CONTINUOUS
10
-0.911534
20
5.96847
11
-0.912432
21
5.9686
0
LINE
8
BLACK
6
CONTINUOUS
10
-0.912432
20
5.9686
11
-0.917306
21
5.97104
0
LINE
8
BLACK
6
CONTINUOUS
10
-0.917306
20
5.97104
11
-0.917761
21
5.97149
0
LINE
8
BLACK
6
CONTINUOUS
10
-0.917761
20
5.97149
11
-0.918329
21
5.97178
0
LINE
8
BLACK
6
CONTINUOUS
10
-0.918329
20
5.97178
11
-0.920767
21
5.97421
0
LINE
8
BLACK
6
CONTINUOUS
10
-0.920767
20
5.97421
11
-0.921871
21
5.97638
0
LINE
8
BLACK
6
CONTINUOUS
10
-0.921871
20
5.97638
11
-0.921491
21
5.97878
0
LINE
8
BLACK
6
CONTINUOUS
10
-0.921491
20
5.97878
11
-0.91977
21
5.9805
0
LINE
8
BLACK
6
CONTINUOUS
10
-0.91977
20
5.9805
11
-0.917367
21
5.98089
0
LINE
8
BLACK
6
CONTINUOUS
10
-0.917367
20
5.98089
11
-0.915199
21
5.97978
0
LINE
8
BLACK
6
CONTINUOUS
10
-0.915199
20
5.97978
11
-0.913214
21
5.9778
0
LINE
8
BLACK
6
CONTINUOUS
10
-0.913214
20
5.9778
11
-0.909742
21
5.97606
0
LINE
8
BLACK
6
CONTINUOUS
10
-0.909742
20
5.97606
11
-0.896977
21
5.97606
0
LINE
8
BLACK
6
CONTINUOUS
10
-0.896977
20
5.97606
11
-0.893506
21
5.9778
0
LINE
8
BLACK
6
CONTINUOUS
10
-0.893506
20
5.9778
11
-0.891972
21
5.97933
0
LINE
8
BLACK
6
CONTINUOUS
10
-0.891972
20
5.97933
11
-0.890236
21
5.9828
0
LINE
8
BLACK
6
CONTINUOUS
10
-0.890236
20
5.9828
11
-0.890236
21
5.99313
0
LINE
8
BLACK
6
CONTINUOUS
10
-0.890236
20
5.99313
11
-0.891972
21
5.9966
0
LINE
8
BLACK
6
CONTINUOUS
10
-0.891972
20
5.9966
11
-0.893506
21
5.99813
0
LINE
8
BLACK
6
CONTINUOUS
10
-0.893506
20
5.99813
11
-0.896977
21
5.99987
0
LINE
8
BLACK
6
CONTINUOUS
10
-0.896977
20
5.99987
11
-0.90336
21
5.99987
0
LINE
8
BLACK
6
CONTINUOUS
10
-0.90336
20
5.99987
11
-0.904117
21
6.00011
0
LINE
8
BLACK
6
CONTINUOUS
10
-0.904117
20
6.00011
11
-0.90491
21
6.00019
0
LINE
8
BLACK
6
CONTINUOUS
10
-0.90491
20
6.00019
11
-0.905247
21
6.00048
0
LINE
8
BLACK
6
CONTINUOUS
10
-0.905247
20
6.00048
11
-0.905674
21
6.00062
0
LINE
8
BLACK
6
CONTINUOUS
10
-0.905674
20
6.00062
11
-0.906142
21
6.00126
0
LINE
8
BLACK
6
CONTINUOUS
10
-0.906142
20
6.00126
11
-0.906741
21
6.00179
0
LINE
8
BLACK
6
CONTINUOUS
10
-0.906741
20
6.00179
11
-0.90684
21
6.00223
0
LINE
8
BLACK
6
CONTINUOUS
10
-0.90684
20
6.00223
11
-0.907104
21
6.00259
0
LINE
8
BLACK
6
CONTINUOUS
10
-0.907104
20
6.00259
11
-0.907104
21
6.00339
0
LINE
8
BLACK
6
CONTINUOUS
10
-0.907104
20
6.00339
11
-0.907281
21
6.00416
0
LINE
8
BLACK
6
CONTINUOUS
10
-0.907281
20
6.00416
11
-0.907104
21
6.00457
0
LINE
8
BLACK
6
CONTINUOUS
10
-0.907104
20
6.00457
11
-0.907104
21
6.00502
0
LINE
8
BLACK
6
CONTINUOUS
10
-0.907104
20
6.00502
11
-0.906636
21
6.00567
0
LINE
8
BLACK
6
CONTINUOUS
10
-0.906636
20
6.00567
11
-0.906323
21
6.0064
0
LINE
8
BLACK
6
CONTINUOUS
10
-0.906323
20
6.0064
11
-0.894976
21
6.01937
0
LINE
8
BLACK
6
CONTINUOUS
10
-0.894976
20
6.01937
11
-0.917983
21
6.01937
0
LINE
8
BLACK
6
CONTINUOUS
10
-0.917983
20
6.01937
11
-0.920297
21
6.02012
0
LINE
8
BLACK
6
CONTINUOUS
10
-0.920297
20
6.02012
11
-0.921727
21
6.02209
0
LINE
8
BLACK
6
CONTINUOUS
10
-0.921727
20
6.02209
11
-0.921727
21
6.02452
0
LINE
8
BLACK
6
CONTINUOUS
10
-0.921727
20
6.02452
11
-0.920297
21
6.02649
0
LINE
8
BLACK
6
CONTINUOUS
10
-0.920297
20
6.02649
11
-0.917983
21
6.02724
0
LINE
8
BLACK
6
CONTINUOUS
10
-0.917983
20
6.02724
11
-0.886299
21
6.02724
0
LINE
8
BLACK
6
CONTINUOUS
10
-0.886299
20
6.02724
11
-0.885542
21
6.02699
0
LINE
8
BLACK
6
CONTINUOUS
10
-0.835217
20
6.02647
11
-0.833802
21
6.02449
0
LINE
8
BLACK
6
CONTINUOUS
10
-0.833802
20
6.02449
11
-0.83382
21
6.02206
0
LINE
8
BLACK
6
CONTINUOUS
10
-0.83382
20
6.02206
11
-0.850881
21
5.97088
0
LINE
8
BLACK
6
CONTINUOUS
10
-0.850881
20
5.97088
11
-0.851586
21
5.96992
0
LINE
8
BLACK
6
CONTINUOUS
10
-0.851586
20
5.96992
11
-0.852277
21
5.96895
0
LINE
8
BLACK
6
CONTINUOUS
10
-0.852277
20
5.96895
11
-0.852307
21
5.96894
0
LINE
8
BLACK
6
CONTINUOUS
10
-0.852307
20
5.96894
11
-0.852326
21
5.96892
0
LINE
8
BLACK
6
CONTINUOUS
10
-0.852326
20
5.96892
11
-0.853461
21
5.96856
0
LINE
8
BLACK
6
CONTINUOUS
10
-0.853461
20
5.96856
11
-0.854586
21
5.96819
0
LINE
8
BLACK
6
CONTINUOUS
10
-0.854586
20
5.96819
11
-0.854616
21
5.96819
0
LINE
8
BLACK
6
CONTINUOUS
10
-0.854616
20
5.96819
11
-0.854646
21
5.96819
0
LINE
8
BLACK
6
CONTINUOUS
10
-0.854646
20
5.96819
11
-0.855773
21
5.96856
0
LINE
8
BLACK
6
CONTINUOUS
10
-0.855773
20
5.96856
11
-0.856906
21
5.96892
0
LINE
8
BLACK
6
CONTINUOUS
10
-0.856906
20
5.96892
11
-0.856924
21
5.96894
0
LINE
8
BLACK
6
CONTINUOUS
10
-0.856924
20
5.96894
11
-0.856954
21
5.96895
0
LINE
8
BLACK
6
CONTINUOUS
10
-0.856954
20
5.96895
11
-0.857645
21
5.96992
0
LINE
8
BLACK
6
CONTINUOUS
10
-0.857645
20
5.96992
11
-0.858351
21
5.97088
0
LINE
8
BLACK
6
CONTINUOUS
10
-0.858351
20
5.97088
11
-0.875411
21
6.02206
0
LINE
8
BLACK
6
CONTINUOUS
10
-0.875411
20
6.02206
11
-0.87543
21
6.02449
0
LINE
8
BLACK
6
CONTINUOUS
10
-0.87543
20
6.02449
11
-0.874014
21
6.02647
0
LINE
8
BLACK
6
CONTINUOUS
10
-0.874014
20
6.02647
11
-0.871706
21
6.02724
0
LINE
8
BLACK
6
CONTINUOUS
10
-0.871706
20
6.02724
11
-0.869386
21
6.02651
0
LINE
8
BLACK
6
CONTINUOUS
10
-0.869386
20
6.02651
11
-0.867941
21
6.02455
0
LINE
8
BLACK
6
CONTINUOUS
10
-0.867941
20
6.02455
11
-0.854616
21
5.98457
0
LINE
8
BLACK
6
CONTINUOUS
10
-0.854616
20
5.98457
11
-0.84129
21
6.02455
0
LINE
8
BLACK
6
CONTINUOUS
10
-0.84129
20
6.02455
11
-0.839845
21
6.02651
0
LINE
8
BLACK
6
CONTINUOUS
10
-0.839845
20
6.02651
11
-0.837525
21
6.02724
0
LINE
8
BLACK
6
CONTINUOUS
10
-0.837525
20
6.02724
11
-0.835217
21
6.02647
0
LINE
8
BLACK
6
CONTINUOUS
10
-0.810139
20
6.12704
11
-0.809501
21
6.12704
0
LINE
8
BLACK
6
CONTINUOUS
10
-0.809501
20
6.12704
11
-0.80219
21
6.1246
0
LINE
8
BLACK
6
CONTINUOUS
10
-0.80219
20
6.1246
11
-0.801459
21
6.12406
0
LINE
8
BLACK
6
CONTINUOUS
10
-0.801459
20
6.12406
11
-0.800651
21
6.12365
0
LINE
8
BLACK
6
CONTINUOUS
10
-0.800651
20
6.12365
11
-0.795776
21
6.11878
0
LINE
8
BLACK
6
CONTINUOUS
10
-0.795776
20
6.11878
11
-0.795487
21
6.11821
0
LINE
8
BLACK
6
CONTINUOUS
10
-0.795487
20
6.11821
11
-0.795039
21
6.11775
0
LINE
8
BLACK
6
CONTINUOUS
10
-0.795039
20
6.11775
11
-0.792602
21
6.11288
0
LINE
8
BLACK
6
CONTINUOUS
10
-0.792602
20
6.11288
11
-0.792536
21
6.11244
0
LINE
8
BLACK
6
CONTINUOUS
10
-0.792536
20
6.11244
11
-0.792304
21
6.11207
0
LINE
8
BLACK
6
CONTINUOUS
10
-0.792304
20
6.11207
11
-0.789866
21
6.10232
0
LINE
8
BLACK
6
CONTINUOUS
10
-0.789866
20
6.10232
11
-0.7899
21
6.10183
0
LINE
8
BLACK
6
CONTINUOUS
10
-0.7899
20
6.10183
11
-0.789749
21
6.10137
0
LINE
8
BLACK
6
CONTINUOUS
10
-0.789749
20
6.10137
11
-0.789749
21
6.09406
0
LINE
8
BLACK
6
CONTINUOUS
10
-0.789749
20
6.09406
11
-0.7899
21
6.09359
0
LINE
8
BLACK
6
CONTINUOUS
10
-0.7899
20
6.09359
11
-0.789866
21
6.0931
0
LINE
8
BLACK
6
CONTINUOUS
10
-0.789866
20
6.0931
11
-0.792304
21
6.08335
0
LINE
8
BLACK
6
CONTINUOUS
10
-0.792304
20
6.08335
11
-0.792536
21
6.08298
0
LINE
8
BLACK
6
CONTINUOUS
10
-0.792536
20
6.08298
11
-0.792602
21
6.08255
0
LINE
8
BLACK
6
CONTINUOUS
10
-0.792602
20
6.08255
11
-0.795039
21
6.07767
0
LINE
8
BLACK
6
CONTINUOUS
10
-0.795039
20
6.07767
11
-0.795487
21
6.07722
0
LINE
8
BLACK
6
CONTINUOUS
10
-0.795487
20
6.07722
11
-0.795776
21
6.07665
0
LINE
8
BLACK
6
CONTINUOUS
10
-0.795776
20
6.07665
11
-0.800651
21
6.07178
0
LINE
8
BLACK
6
CONTINUOUS
10
-0.800651
20
6.07178
11
-0.801459
21
6.07136
0
LINE
8
BLACK
6
CONTINUOUS
10
-0.801459
20
6.07136
11
-0.80219
21
6.07082
0
LINE
8
BLACK
6
CONTINUOUS
10
-0.80219
20
6.07082
11
-0.809501
21
6.06839
0
LINE
8
BLACK
6
CONTINUOUS
10
-0.809501
20
6.06839
11
-0.810139
21
6.06838
0
LINE
8
BLACK
6
CONTINUOUS
10
-0.810139
20
6.06838
11
-0.810746
21
6.06819
0
LINE
8
BLACK
6
CONTINUOUS
10
-0.810746
20
6.06819
11
-0.822932
21
6.06819
0
LINE
8
BLACK
6
CONTINUOUS
10
-0.822932
20
6.06819
11
-0.823525
21
6.06838
0
LINE
8
BLACK
6
CONTINUOUS
10
-0.823525
20
6.06838
11
-0.824149
21
6.06838
0
LINE
8
BLACK
6
CONTINUOUS
10
-0.824149
20
6.06838
11
-0.824653
21
6.06874
0
LINE
8
BLACK
6
CONTINUOUS
10
-0.824653
20
6.06874
11
-0.825246
21
6.06894
0
LINE
8
BLACK
6
CONTINUOUS
10
-0.825246
20
6.06894
11
-0.825613
21
6.06944
0
LINE
8
BLACK
6
CONTINUOUS
10
-0.825613
20
6.06944
11
-0.826117
21
6.06981
0
LINE
8
BLACK
6
CONTINUOUS
10
-0.826117
20
6.06981
11
-0.82631
21
6.0704
0
LINE
8
BLACK
6
CONTINUOUS
10
-0.82631
20
6.0704
11
-0.826676
21
6.07091
0
LINE
8
BLACK
6
CONTINUOUS
10
-0.826676
20
6.07091
11
-0.826676
21
6.07153
0
LINE
8
BLACK
6
CONTINUOUS
10
-0.826676
20
6.07153
11
-0.826869
21
6.07212
0
LINE
8
BLACK
6
CONTINUOUS
10
-0.826869
20
6.07212
11
-0.826869
21
6.1233
0
LINE
8
BLACK
6
CONTINUOUS
10
-0.826869
20
6.1233
11
-0.826676
21
6.1239
0
LINE
8
BLACK
6
CONTINUOUS
10
-0.826676
20
6.1239
11
-0.826676
21
6.12452
0
LINE
8
BLACK
6
CONTINUOUS
10
-0.826676
20
6.12452
11
-0.82631
21
6.12502
0
LINE
8
BLACK
6
CONTINUOUS
10
-0.82631
20
6.12502
11
-0.826117
21
6.12562
0
LINE
8
BLACK
6
CONTINUOUS
10
-0.826117
20
6.12562
11
-0.825613
21
6.12598
0
LINE
8
BLACK
6
CONTINUOUS
10
-0.825613
20
6.12598
11
-0.825246
21
6.12649
0
LINE
8
BLACK
6
CONTINUOUS
10
-0.825246
20
6.12649
11
-0.824653
21
6.12668
0
LINE
8
BLACK
6
CONTINUOUS
10
-0.824653
20
6.12668
11
-0.824149
21
6.12705
0
LINE
8
BLACK
6
CONTINUOUS
10
-0.824149
20
6.12705
11
-0.823525
21
6.12705
0
LINE
8
BLACK
6
CONTINUOUS
10
-0.823525
20
6.12705
11
-0.822932
21
6.12724
0
LINE
8
BLACK
6
CONTINUOUS
10
-0.822932
20
6.12724
11
-0.810746
21
6.12724
0
LINE
8
BLACK
6
CONTINUOUS
10
-0.810746
20
6.12724
11
-0.810139
21
6.12704
0
LINE
8
BLACK
6
CONTINUOUS
10
-0.818995
20
6.11937
11
-0.818995
21
6.07606
0
LINE
8
BLACK
6
CONTINUOUS
10
-0.818995
20
6.07606
11
-0.811385
21
6.07606
0
LINE
8
BLACK
6
CONTINUOUS
10
-0.811385
20
6.07606
11
-0.805561
21
6.078
0
LINE
8
BLACK
6
CONTINUOUS
10
-0.805561
20
6.078
11
-0.801796
21
6.08177
0
LINE
8
BLACK
6
CONTINUOUS
10
-0.801796
20
6.08177
11
-0.799838
21
6.08568
0
LINE
8
BLACK
6
CONTINUOUS
10
-0.799838
20
6.08568
11
-0.797623
21
6.09454
0
LINE
8
BLACK
6
CONTINUOUS
10
-0.797623
20
6.09454
11
-0.797623
21
6.10088
0
LINE
8
BLACK
6
CONTINUOUS
10
-0.797623
20
6.10088
11
-0.799838
21
6.10974
0
LINE
8
BLACK
6
CONTINUOUS
10
-0.799838
20
6.10974
11
-0.801796
21
6.11366
0
LINE
8
BLACK
6
CONTINUOUS
10
-0.801796
20
6.11366
11
-0.805561
21
6.11743
0
LINE
8
BLACK
6
CONTINUOUS
10
-0.805561
20
6.11743
11
-0.811385
21
6.11937
0
LINE
8
BLACK
6
CONTINUOUS
10
-0.811385
20
6.11937
11
-0.818995
21
6.11937
0
LINE
8
BLACK
6
CONTINUOUS
10
-0.904934
20
6.12696
11
-0.904036
21
6.12682
0
LINE
8
BLACK
6
CONTINUOUS
10
-0.904036
20
6.12682
11
-0.899162
21
6.12439
0
LINE
8
BLACK
6
CONTINUOUS
10
-0.899162
20
6.12439
11
-0.897428
21
6.12268
0
LINE
8
BLACK
6
CONTINUOUS
10
-0.897428
20
6.12268
11
-0.897029
21
6.12028
0
LINE
8
BLACK
6
CONTINUOUS
10
-0.897029
20
6.12028
11
-0.898117
21
6.1181
0
LINE
8
BLACK
6
CONTINUOUS
10
-0.898117
20
6.1181
11
-0.900277
21
6.11698
0
LINE
8
BLACK
6
CONTINUOUS
10
-0.900277
20
6.11698
11
-0.902683
21
6.11734
0
LINE
8
BLACK
6
CONTINUOUS
10
-0.902683
20
6.11734
11
-0.906726
21
6.11937
0
LINE
8
BLACK
6
CONTINUOUS
10
-0.906726
20
6.11937
11
-0.91247
21
6.11937
0
LINE
8
BLACK
6
CONTINUOUS
10
-0.91247
20
6.11937
11
-0.918293
21
6.11743
0
LINE
8
BLACK
6
CONTINUOUS
10
-0.918293
20
6.11743
11
-0.922059
21
6.11366
0
LINE
8
BLACK
6
CONTINUOUS
10
-0.922059
20
6.11366
11
-0.924017
21
6.10974
0
LINE
8
BLACK
6
CONTINUOUS
10
-0.924017
20
6.10974
11
-0.926232
21
6.10088
0
LINE
8
BLACK
6
CONTINUOUS
10
-0.926232
20
6.10088
11
-0.926232
21
6.09454
0
LINE
8
BLACK
6
CONTINUOUS
10
-0.926232
20
6.09454
11
-0.924017
21
6.08568
0
LINE
8
BLACK
6
CONTINUOUS
10
-0.924017
20
6.08568
11
-0.922059
21
6.08177
0
LINE
8
BLACK
6
CONTINUOUS
10
-0.922059
20
6.08177
11
-0.918293
21
6.078
0
LINE
8
BLACK
6
CONTINUOUS
10
-0.918293
20
6.078
11
-0.91247
21
6.07606
0
LINE
8
BLACK
6
CONTINUOUS
10
-0.91247
20
6.07606
11
-0.908873
21
6.07606
0
LINE
8
BLACK
6
CONTINUOUS
10
-0.908873
20
6.07606
11
-0.903049
21
6.078
0
LINE
8
BLACK
6
CONTINUOUS
10
-0.903049
20
6.078
11
-0.902422
21
6.07863
0
LINE
8
BLACK
6
CONTINUOUS
10
-0.902422
20
6.07863
11
-0.902422
21
6.09012
0
LINE
8
BLACK
6
CONTINUOUS
10
-0.902422
20
6.09012
11
-0.908234
21
6.09012
0
LINE
8
BLACK
6
CONTINUOUS
10
-0.908234
20
6.09012
11
-0.910548
21
6.09087
0
LINE
8
BLACK
6
CONTINUOUS
10
-0.910548
20
6.09087
11
-0.911978
21
6.09284
0
LINE
8
BLACK
6
CONTINUOUS
10
-0.911978
20
6.09284
11
-0.911978
21
6.09527
0
LINE
8
BLACK
6
CONTINUOUS
10
-0.911978
20
6.09527
11
-0.910548
21
6.09724
0
LINE
8
BLACK
6
CONTINUOUS
10
-0.910548
20
6.09724
11
-0.908234
21
6.09799
0
LINE
8
BLACK
6
CONTINUOUS
10
-0.908234
20
6.09799
11
-0.898485
21
6.09799
0
LINE
8
BLACK
6
CONTINUOUS
10
-0.898485
20
6.09799
11
-0.897892
21
6.0978
0
LINE
8
BLACK
6
CONTINUOUS
10
-0.897892
20
6.0978
11
-0.897269
21
6.0978
0
LINE
8
BLACK
6
CONTINUOUS
10
-0.897269
20
6.0978
11
-0.896764
21
6.09743
0
LINE
8
BLACK
6
CONTINUOUS
10
-0.896764
20
6.09743
11
-0.896171
21
6.09724
0
LINE
8
BLACK
6
CONTINUOUS
10
-0.896171
20
6.09724
11
-0.895805
21
6.09674
0
LINE
8
BLACK
6
CONTINUOUS
10
-0.895805
20
6.09674
11
-0.8953
21
6.09637
0
LINE
8
BLACK
6
CONTINUOUS
10
-0.8953
20
6.09637
11
-0.895107
21
6.09578
0
LINE
8
BLACK
6
CONTINUOUS
10
-0.895107
20
6.09578
11
-0.894741
21
6.09527
0
LINE
8
BLACK
6
CONTINUOUS
10
-0.894741
20
6.09527
11
-0.894741
21
6.09465
0
LINE
8
BLACK
6
CONTINUOUS
10
-0.894741
20
6.09465
11
-0.894548
21
6.09406
0
LINE
8
BLACK
6
CONTINUOUS
10
-0.894548
20
6.09406
11
-0.894548
21
6.077
0
LINE
8
BLACK
6
CONTINUOUS
10
-0.894548
20
6.077
11
-0.894646
21
6.07669
0
LINE
8
BLACK
6
CONTINUOUS
10
-0.894646
20
6.07669
11
-0.894597
21
6.07638
0
LINE
8
BLACK
6
CONTINUOUS
10
-0.894597
20
6.07638
11
-0.895015
21
6.07556
0
LINE
8
BLACK
6
CONTINUOUS
10
-0.895015
20
6.07556
11
-0.8953
21
6.07468
0
LINE
8
BLACK
6
CONTINUOUS
10
-0.8953
20
6.07468
11
-0.895557
21
6.0745
0
LINE
8
BLACK
6
CONTINUOUS
10
-0.895557
20
6.0745
11
-0.895701
21
6.07421
0
LINE
8
BLACK
6
CONTINUOUS
10
-0.895701
20
6.07421
11
-0.898139
21
6.07178
0
LINE
8
BLACK
6
CONTINUOUS
10
-0.898139
20
6.07178
11
-0.898947
21
6.07136
0
LINE
8
BLACK
6
CONTINUOUS
10
-0.898947
20
6.07136
11
-0.899677
21
6.07082
0
LINE
8
BLACK
6
CONTINUOUS
10
-0.899677
20
6.07082
11
-0.906989
21
6.06839
0
LINE
8
BLACK
6
CONTINUOUS
10
-0.906989
20
6.06839
11
-0.907627
21
6.06838
0
LINE
8
BLACK
6
CONTINUOUS
10
-0.907627
20
6.06838
11
-0.908234
21
6.06819
0
LINE
8
BLACK
6
CONTINUOUS
10
-0.908234
20
6.06819
11
-0.913108
21
6.06819
0
LINE
8
BLACK
6
CONTINUOUS
10
-0.913108
20
6.06819
11
-0.913715
21
6.06838
0
LINE
8
BLACK
6
CONTINUOUS
10
-0.913715
20
6.06838
11
-0.914353
21
6.06839
0
LINE
8
BLACK
6
CONTINUOUS
10
-0.914353
20
6.06839
11
-0.921665
21
6.07082
0
LINE
8
BLACK
6
CONTINUOUS
10
-0.921665
20
6.07082
11
-0.922395
21
6.07136
0
LINE
8
BLACK
6
CONTINUOUS
10
-0.922395
20
6.07136
11
-0.923204
21
6.07178
0
LINE
8
BLACK
6
CONTINUOUS
10
-0.923204
20
6.07178
11
-0.928078
21
6.07665
0
LINE
8
BLACK
6
CONTINUOUS
10
-0.928078
20
6.07665
11
-0.928368
21
6.07722
0
LINE
8
BLACK
6
CONTINUOUS
10
-0.928368
20
6.07722
11
-0.928816
21
6.07767
0
LINE
8
BLACK
6
CONTINUOUS
10
-0.928816
20
6.07767
11
-0.931253
21
6.08255
0
LINE
8
BLACK
6
CONTINUOUS
10
-0.931253
20
6.08255
11
-0.931318
21
6.08298
0
LINE
8
BLACK
6
CONTINUOUS
10
-0.931318
20
6.08298
11
-0.931551
21
6.08335
0
LINE
8
BLACK
6
CONTINUOUS
10
-0.931551
20
6.08335
11
-0.933988
21
6.0931
0
LINE
8
BLACK
6
CONTINUOUS
10
-0.933988
20
6.0931
11
-0.933954
21
6.09359
0
LINE
8
BLACK
6
CONTINUOUS
10
-0.933954
20
6.09359
11
-0.934106
21
6.09406
0
LINE
8
BLACK
6
CONTINUOUS
10
-0.934106
20
6.09406
11
-0.934106
21
6.10137
0
LINE
8
BLACK
6
CONTINUOUS
10
-0.934106
20
6.10137
11
-0.933954
21
6.10183
0
LINE
8
BLACK
6
CONTINUOUS
10
-0.933954
20
6.10183
11
-0.933988
21
6.10232
0
LINE
8
BLACK
6
CONTINUOUS
10
-0.933988
20
6.10232
11
-0.931551
21
6.11207
0
LINE
8
BLACK
6
CONTINUOUS
10
-0.931551
20
6.11207
11
-0.931318
21
6.11244
0
LINE
8
BLACK
6
CONTINUOUS
10
-0.931318
20
6.11244
11
-0.931253
21
6.11288
0
LINE
8
BLACK
6
CONTINUOUS
10
-0.931253
20
6.11288
11
-0.928816
21
6.11775
0
LINE
8
BLACK
6
CONTINUOUS
10
-0.928816
20
6.11775
11
-0.928368
21
6.11821
0
LINE
8
BLACK
6
CONTINUOUS
10
-0.928368
20
6.11821
11
-0.928078
21
6.11878
0
LINE
8
BLACK
6
CONTINUOUS
10
-0.928078
20
6.11878
11
-0.923204
21
6.12365
0
LINE
8
BLACK
6
CONTINUOUS
10
-0.923204
20
6.12365
11
-0.922395
21
6.12406
0
LINE
8
BLACK
6
CONTINUOUS
10
-0.922395
20
6.12406
11
-0.921665
21
6.1246
0
LINE
8
BLACK
6
CONTINUOUS
10
-0.921665
20
6.1246
11
-0.914353
21
6.12704
0
LINE
8
BLACK
6
CONTINUOUS
10
-0.914353
20
6.12704
11
-0.913715
21
6.12704
0
LINE
8
BLACK
6
CONTINUOUS
10
-0.913715
20
6.12704
11
-0.913108
21
6.12724
0
LINE
8
BLACK
6
CONTINUOUS
10
-0.913108
20
6.12724
11
-0.905797
21
6.12724
0
LINE
8
BLACK
6
CONTINUOUS
10
-0.905797
20
6.12724
11
-0.904934
21
6.12696
0
LINE
8
BLACK
6
CONTINUOUS
10
-0.876346
20
6.12705
11
-0.875334
21
6.12705
0
LINE
8
BLACK
6
CONTINUOUS
10
-0.875334
20
6.12705
11
-0.875154
21
6.12692
0
LINE
8
BLACK
6
CONTINUOUS
10
-0.875154
20
6.12692
11
-0.874933
21
6.12689
0
LINE
8
BLACK
6
CONTINUOUS
10
-0.874933
20
6.12689
11
-0.874184
21
6.12621
0
LINE
8
BLACK
6
CONTINUOUS
10
-0.874184
20
6.12621
11
-0.873365
21
6.12562
0
LINE
8
BLACK
6
CONTINUOUS
10
-0.873365
20
6.12562
11
-0.873297
21
6.12541
0
LINE
8
BLACK
6
CONTINUOUS
10
-0.873297
20
6.12541
11
-0.873132
21
6.12526
0
LINE
8
BLACK
6
CONTINUOUS
10
-0.873132
20
6.12526
11
-0.851241
21
6.08695
0
LINE
8
BLACK
6
CONTINUOUS
10
-0.851241
20
6.08695
11
-0.851241
21
6.1233
0
LINE
8
BLACK
6
CONTINUOUS
10
-0.851241
20
6.1233
11
-0.850489
21
6.12562
0
LINE
8
BLACK
6
CONTINUOUS
10
-0.850489
20
6.12562
11
-0.848521
21
6.12705
0
LINE
8
BLACK
6
CONTINUOUS
10
-0.848521
20
6.12705
11
-0.846087
21
6.12705
0
LINE
8
BLACK
6
CONTINUOUS
10
-0.846087
20
6.12705
11
-0.844119
21
6.12562
0
LINE
8
BLACK
6
CONTINUOUS
10
-0.844119
20
6.12562
11
-0.843367
21
6.1233
0
LINE
8
BLACK
6
CONTINUOUS
10
-0.843367
20
6.1233
11
-0.843367
21
6.07212
0
LINE
8
BLACK
6
CONTINUOUS
10
-0.843367
20
6.07212
11
-0.843436
21
6.07191
0
LINE
8
BLACK
6
CONTINUOUS
10
-0.843436
20
6.07191
11
-0.843391
21
6.07169
0
LINE
8
BLACK
6
CONTINUOUS
10
-0.843391
20
6.07169
11
-0.843806
21
6.07077
0
LINE
8
BLACK
6
CONTINUOUS
10
-0.843806
20
6.07077
11
-0.844119
21
6.06981
0
LINE
8
BLACK
6
CONTINUOUS
10
-0.844119
20
6.06981
11
-0.844299
21
6.06968
0
LINE
8
BLACK
6
CONTINUOUS
10
-0.844299
20
6.06968
11
-0.84439
21
6.06947
0
LINE
8
BLACK
6
CONTINUOUS
10
-0.84439
20
6.06947
11
-0.845269
21
6.06897
0
LINE
8
BLACK
6
CONTINUOUS
10
-0.845269
20
6.06897
11
-0.846087
21
6.06838
0
LINE
8
BLACK
6
CONTINUOUS
10
-0.846087
20
6.06838
11
-0.84631
21
6.06838
0
LINE
8
BLACK
6
CONTINUOUS
10
-0.84631
20
6.06838
11
-0.846503
21
6.06827
0
LINE
8
BLACK
6
CONTINUOUS
10
-0.846503
20
6.06827
11
-0.847509
21
6.06838
0
LINE
8
BLACK
6
CONTINUOUS
10
-0.847509
20
6.06838
11
-0.848521
21
6.06838
0
LINE
8
BLACK
6
CONTINUOUS
10
-0.848521
20
6.06838
11
-0.848701
21
6.06851
0
LINE
8
BLACK
6
CONTINUOUS
10
-0.848701
20
6.06851
11
-0.848921
21
6.06853
0
LINE
8
BLACK
6
CONTINUOUS
10
-0.848921
20
6.06853
11
-0.84967
21
6.06921
0
LINE
8
BLACK
6
CONTINUOUS
10
-0.84967
20
6.06921
11
-0.850489
21
6.06981
0
LINE
8
BLACK
6
CONTINUOUS
10
-0.850489
20
6.06981
11
-0.850558
21
6.07002
0
LINE
8
BLACK
6
CONTINUOUS
10
-0.850558
20
6.07002
11
-0.850722
21
6.07017
0
LINE
8
BLACK
6
CONTINUOUS
10
-0.850722
20
6.07017
11
-0.872613
21
6.10848
0
LINE
8
BLACK
6
CONTINUOUS
10
-0.872613
20
6.10848
11
-0.872613
21
6.07212
0
LINE
8
BLACK
6
CONTINUOUS
10
-0.872613
20
6.07212
11
-0.873365
21
6.06981
0
LINE
8
BLACK
6
CONTINUOUS
10
-0.873365
20
6.06981
11
-0.875334
21
6.06838
0
LINE
8
BLACK
6
CONTINUOUS
10
-0.875334
20
6.06838
11
-0.877767
21
6.06838
0
LINE
8
BLACK
6
CONTINUOUS
10
-0.877767
20
6.06838
11
-0.879736
21
6.06981
0
LINE
8
BLACK
6
CONTINUOUS
10
-0.879736
20
6.06981
11
-0.880487
21
6.07212
0
LINE
8
BLACK
6
CONTINUOUS
10
-0.880487
20
6.07212
11
-0.880487
21
6.1233
0
LINE
8
BLACK
6
CONTINUOUS
10
-0.880487
20
6.1233
11
-0.880419
21
6.12351
0
LINE
8
BLACK
6
CONTINUOUS
10
-0.880419
20
6.12351
11
-0.880464
21
6.12373
0
LINE
8
BLACK
6
CONTINUOUS
10
-0.880464
20
6.12373
11
-0.880048
21
6.12465
0
LINE
8
BLACK
6
CONTINUOUS
10
-0.880048
20
6.12465
11
-0.879736
21
6.12562
0
LINE
8
BLACK
6
CONTINUOUS
10
-0.879736
20
6.12562
11
-0.879556
21
6.12575
0
LINE
8
BLACK
6
CONTINUOUS
10
-0.879556
20
6.12575
11
-0.879464
21
6.12595
0
LINE
8
BLACK
6
CONTINUOUS
10
-0.879464
20
6.12595
11
-0.878586
21
6.12645
0
LINE
8
BLACK
6
CONTINUOUS
10
-0.878586
20
6.12645
11
-0.877767
21
6.12705
0
LINE
8
BLACK
6
CONTINUOUS
10
-0.877767
20
6.12705
11
-0.877545
21
6.12705
0
LINE
8
BLACK
6
CONTINUOUS
10
-0.877545
20
6.12705
11
-0.877352
21
6.12716
0
LINE
8
BLACK
6
CONTINUOUS
10
-0.877352
20
6.12716
11
-0.876346
21
6.12705
  0
ENDSEC
  0
EOF
