  0
SECTION
  2
HEADER
  9
$ANGBASE
  50
0.0
  9
$ANGDIR
  70
1
  9
$MEASUREMENT
  70
0
  0
ENDSEC
  0
SECTION
  2
TABLES
  0
TABLE
  2
LTYPE
  70
4
  0
LTYPE
  5
40F
  2
CONTINUOUS
  70
0
  3
Solid line
  72
65
  73
0
  40
0.0
  0
LTYPE
  5
410
  2
DASHDOT
 70
0
  3
Dash Dot ____ _ ____ _
 72
65
 73
4
 40
2.0
 49
1.25
 49
-0.25
 49
0.25
 49
-0.25
  0
LTYPE
  5
411
  2
DASHED
 70
0
  3
Dashed __ __ __ __ __
 72
65
 73
2
 40
0.75
 49
0.5
 49
-0.25
  0
LTYPE
  5
43B
  2
DOTTED
 70
0
  3
Dotted .  .  .  .
 72
65
 73
2
 40
0.2
 49
0.0
 49
-0.2
  0
ENDTAB
  0
TABLE
  2
STYLE
  70
4
  0
STYLE
  2
KICAD
  70
0
  40
0
  41
1
  42
1
  50
0
  71
0
  3
isocp.shx
  0
STYLE
  2
KICADB
  70
0
  40
0
  41
1
  42
1
  50
0
  71
0
  3
isocp.shx
  0
STYLE
  2
KICADI
  70
0
  40
0
  41
1
  42
1
  50
15
  71
0
  3
isocp.shx
  0
STYLE
  2
KICADBI
  70
0
  40
0
  41
1
  42
1
  50
15
  71
0
  3
isocp.shx
  0
ENDTAB
  0
TABLE
  2
LAYER
  70
1
  0
LAYER
  2
BLACK
  70
0
  62
7
  6
CONTINUOUS
  0
ENDTAB
  0
ENDSEC
  0
SECTION
  2
ENTITIES
0
LINE
8
BLACK
6
CONTINUOUS
10
3.52542
20
0.476889
11
3.52861
21
0.474755
0
LINE
8
BLACK
6
CONTINUOUS
10
3.52861
20
0.474755
11
3.53075
21
0.471562
0
LINE
8
BLACK
6
CONTINUOUS
10
3.53075
20
0.471562
11
3.5315
21
0.467795
0
LINE
8
BLACK
6
CONTINUOUS
10
3.5315
20
0.467795
11
3.5315
21
0.44811
0
LINE
8
BLACK
6
CONTINUOUS
10
3.5315
20
0.44811
11
3.53075
21
0.444344
0
LINE
8
BLACK
6
CONTINUOUS
10
3.53075
20
0.444344
11
3.52861
21
0.441151
0
LINE
8
BLACK
6
CONTINUOUS
10
3.52861
20
0.441151
11
3.52542
21
0.439017
0
LINE
8
BLACK
6
CONTINUOUS
10
3.52542
20
0.439017
11
3.52165
21
0.438268
0
LINE
8
BLACK
6
CONTINUOUS
10
3.52165
20
0.438268
11
3.43504
21
0.438268
0
LINE
8
BLACK
6
CONTINUOUS
10
3.43504
20
0.438268
11
3.43127
21
0.439017
0
LINE
8
BLACK
6
CONTINUOUS
10
3.43127
20
0.439017
11
3.42808
21
0.441151
0
LINE
8
BLACK
6
CONTINUOUS
10
3.42808
20
0.441151
11
3.42595
21
0.444344
0
LINE
8
BLACK
6
CONTINUOUS
10
3.42595
20
0.444344
11
3.4252
21
0.44811
0
LINE
8
BLACK
6
CONTINUOUS
10
3.4252
20
0.44811
11
3.4252
21
0.467795
0
LINE
8
BLACK
6
CONTINUOUS
10
3.4252
20
0.467795
11
3.42595
21
0.471562
0
LINE
8
BLACK
6
CONTINUOUS
10
3.42595
20
0.471562
11
3.42808
21
0.474755
0
LINE
8
BLACK
6
CONTINUOUS
10
3.42808
20
0.474755
11
3.43127
21
0.476889
0
LINE
8
BLACK
6
CONTINUOUS
10
3.43127
20
0.476889
11
3.43504
21
0.477638
0
LINE
8
BLACK
6
CONTINUOUS
10
3.43504
20
0.477638
11
3.52165
21
0.477638
0
LINE
8
BLACK
6
CONTINUOUS
10
3.52165
20
0.477638
11
3.52542
21
0.476889
0
LINE
8
BLACK
6
CONTINUOUS
10
3.38218
20
0.542149
11
3.3841
21
0.540869
0
LINE
8
BLACK
6
CONTINUOUS
10
3.3841
20
0.540869
11
3.38538
21
0.538953
0
LINE
8
BLACK
6
CONTINUOUS
10
3.38538
20
0.538953
11
3.38583
21
0.536693
0
LINE
8
BLACK
6
CONTINUOUS
10
3.38583
20
0.536693
11
3.38583
21
0.524882
0
LINE
8
BLACK
6
CONTINUOUS
10
3.38583
20
0.524882
11
3.38538
21
0.522622
0
LINE
8
BLACK
6
CONTINUOUS
10
3.38538
20
0.522622
11
3.3841
21
0.520706
0
LINE
8
BLACK
6
CONTINUOUS
10
3.3841
20
0.520706
11
3.38218
21
0.519426
0
LINE
8
BLACK
6
CONTINUOUS
10
3.38218
20
0.519426
11
3.37992
21
0.518976
0
LINE
8
BLACK
6
CONTINUOUS
10
3.37992
20
0.518976
11
3.3248
21
0.518976
0
LINE
8
BLACK
6
CONTINUOUS
10
3.3248
20
0.518976
11
3.32254
21
0.519426
0
LINE
8
BLACK
6
CONTINUOUS
10
3.32254
20
0.519426
11
3.32063
21
0.520706
0
LINE
8
BLACK
6
CONTINUOUS
10
3.32063
20
0.520706
11
3.31935
21
0.522622
0
LINE
8
BLACK
6
CONTINUOUS
10
3.31935
20
0.522622
11
3.3189
21
0.524882
0
LINE
8
BLACK
6
CONTINUOUS
10
3.3189
20
0.524882
11
3.3189
21
0.536693
0
LINE
8
BLACK
6
CONTINUOUS
10
3.3189
20
0.536693
11
3.31935
21
0.538953
0
LINE
8
BLACK
6
CONTINUOUS
10
3.31935
20
0.538953
11
3.32063
21
0.540869
0
LINE
8
BLACK
6
CONTINUOUS
10
3.32063
20
0.540869
11
3.32254
21
0.542149
0
LINE
8
BLACK
6
CONTINUOUS
10
3.32254
20
0.542149
11
3.3248
21
0.542598
0
LINE
8
BLACK
6
CONTINUOUS
10
3.3248
20
0.542598
11
3.37992
21
0.542598
0
LINE
8
BLACK
6
CONTINUOUS
10
3.37992
20
0.542598
11
3.38218
21
0.542149
0
LINE
8
BLACK
6
CONTINUOUS
10
3.38218
20
0.591361
11
3.3841
21
0.590081
0
LINE
8
BLACK
6
CONTINUOUS
10
3.3841
20
0.590081
11
3.38538
21
0.588165
0
LINE
8
BLACK
6
CONTINUOUS
10
3.38538
20
0.588165
11
3.38583
21
0.585906
0
LINE
8
BLACK
6
CONTINUOUS
10
3.38583
20
0.585906
11
3.38583
21
0.574094
0
LINE
8
BLACK
6
CONTINUOUS
10
3.38583
20
0.574094
11
3.38538
21
0.571835
0
LINE
8
BLACK
6
CONTINUOUS
10
3.38538
20
0.571835
11
3.3841
21
0.569919
0
LINE
8
BLACK
6
CONTINUOUS
10
3.3841
20
0.569919
11
3.38218
21
0.568639
0
LINE
8
BLACK
6
CONTINUOUS
10
3.38218
20
0.568639
11
3.37992
21
0.568189
0
LINE
8
BLACK
6
CONTINUOUS
10
3.37992
20
0.568189
11
3.3248
21
0.568189
0
LINE
8
BLACK
6
CONTINUOUS
10
3.3248
20
0.568189
11
3.32254
21
0.568639
0
LINE
8
BLACK
6
CONTINUOUS
10
3.32254
20
0.568639
11
3.32063
21
0.569919
0
LINE
8
BLACK
6
CONTINUOUS
10
3.32063
20
0.569919
11
3.31935
21
0.571835
0
LINE
8
BLACK
6
CONTINUOUS
10
3.31935
20
0.571835
11
3.3189
21
0.574094
0
LINE
8
BLACK
6
CONTINUOUS
10
3.3189
20
0.574094
11
3.3189
21
0.585906
0
LINE
8
BLACK
6
CONTINUOUS
10
3.3189
20
0.585906
11
3.31935
21
0.588165
0
LINE
8
BLACK
6
CONTINUOUS
10
3.31935
20
0.588165
11
3.32063
21
0.590081
0
LINE
8
BLACK
6
CONTINUOUS
10
3.32063
20
0.590081
11
3.32254
21
0.591361
0
LINE
8
BLACK
6
CONTINUOUS
10
3.32254
20
0.591361
11
3.3248
21
0.591811
0
LINE
8
BLACK
6
CONTINUOUS
10
3.3248
20
0.591811
11
3.37992
21
0.591811
0
LINE
8
BLACK
6
CONTINUOUS
10
3.37992
20
0.591811
11
3.38218
21
0.591361
0
LINE
8
BLACK
6
CONTINUOUS
10
3.38218
20
0.640574
11
3.3841
21
0.639294
0
LINE
8
BLACK
6
CONTINUOUS
10
3.3841
20
0.639294
11
3.38538
21
0.637378
0
LINE
8
BLACK
6
CONTINUOUS
10
3.38538
20
0.637378
11
3.38583
21
0.635118
0
LINE
8
BLACK
6
CONTINUOUS
10
3.38583
20
0.635118
11
3.38583
21
0.623307
0
LINE
8
BLACK
6
CONTINUOUS
10
3.38583
20
0.623307
11
3.38538
21
0.621047
0
LINE
8
BLACK
6
CONTINUOUS
10
3.38538
20
0.621047
11
3.3841
21
0.619131
0
LINE
8
BLACK
6
CONTINUOUS
10
3.3841
20
0.619131
11
3.38218
21
0.617851
0
LINE
8
BLACK
6
CONTINUOUS
10
3.38218
20
0.617851
11
3.37992
21
0.617402
0
LINE
8
BLACK
6
CONTINUOUS
10
3.37992
20
0.617402
11
3.3248
21
0.617402
0
LINE
8
BLACK
6
CONTINUOUS
10
3.3248
20
0.617402
11
3.32254
21
0.617851
0
LINE
8
BLACK
6
CONTINUOUS
10
3.32254
20
0.617851
11
3.32063
21
0.619131
0
LINE
8
BLACK
6
CONTINUOUS
10
3.32063
20
0.619131
11
3.31935
21
0.621047
0
LINE
8
BLACK
6
CONTINUOUS
10
3.31935
20
0.621047
11
3.3189
21
0.623307
0
LINE
8
BLACK
6
CONTINUOUS
10
3.3189
20
0.623307
11
3.3189
21
0.635118
0
LINE
8
BLACK
6
CONTINUOUS
10
3.3189
20
0.635118
11
3.31935
21
0.637378
0
LINE
8
BLACK
6
CONTINUOUS
10
3.31935
20
0.637378
11
3.32063
21
0.639294
0
LINE
8
BLACK
6
CONTINUOUS
10
3.32063
20
0.639294
11
3.32254
21
0.640574
0
LINE
8
BLACK
6
CONTINUOUS
10
3.32254
20
0.640574
11
3.3248
21
0.641024
0
LINE
8
BLACK
6
CONTINUOUS
10
3.3248
20
0.641024
11
3.37992
21
0.641024
0
LINE
8
BLACK
6
CONTINUOUS
10
3.37992
20
0.641024
11
3.38218
21
0.640574
0
LINE
8
BLACK
6
CONTINUOUS
10
3.52542
20
0.720983
11
3.52861
21
0.718849
0
LINE
8
BLACK
6
CONTINUOUS
10
3.52861
20
0.718849
11
3.53075
21
0.715656
0
LINE
8
BLACK
6
CONTINUOUS
10
3.53075
20
0.715656
11
3.5315
21
0.71189
0
LINE
8
BLACK
6
CONTINUOUS
10
3.5315
20
0.71189
11
3.5315
21
0.692205
0
LINE
8
BLACK
6
CONTINUOUS
10
3.5315
20
0.692205
11
3.53075
21
0.688438
0
LINE
8
BLACK
6
CONTINUOUS
10
3.53075
20
0.688438
11
3.52861
21
0.685245
0
LINE
8
BLACK
6
CONTINUOUS
10
3.52861
20
0.685245
11
3.52542
21
0.683111
0
LINE
8
BLACK
6
CONTINUOUS
10
3.52542
20
0.683111
11
3.52165
21
0.682362
0
LINE
8
BLACK
6
CONTINUOUS
10
3.52165
20
0.682362
11
3.43504
21
0.682362
0
LINE
8
BLACK
6
CONTINUOUS
10
3.43504
20
0.682362
11
3.43127
21
0.683111
0
LINE
8
BLACK
6
CONTINUOUS
10
3.43127
20
0.683111
11
3.42808
21
0.685245
0
LINE
8
BLACK
6
CONTINUOUS
10
3.42808
20
0.685245
11
3.42595
21
0.688438
0
LINE
8
BLACK
6
CONTINUOUS
10
3.42595
20
0.688438
11
3.4252
21
0.692205
0
LINE
8
BLACK
6
CONTINUOUS
10
3.4252
20
0.692205
11
3.4252
21
0.71189
0
LINE
8
BLACK
6
CONTINUOUS
10
3.4252
20
0.71189
11
3.42595
21
0.715656
0
LINE
8
BLACK
6
CONTINUOUS
10
3.42595
20
0.715656
11
3.42808
21
0.718849
0
LINE
8
BLACK
6
CONTINUOUS
10
3.42808
20
0.718849
11
3.43127
21
0.720983
0
LINE
8
BLACK
6
CONTINUOUS
10
3.43127
20
0.720983
11
3.43504
21
0.721732
0
LINE
8
BLACK
6
CONTINUOUS
10
3.43504
20
0.721732
11
3.52165
21
0.721732
0
LINE
8
BLACK
6
CONTINUOUS
10
3.52165
20
0.721732
11
3.52542
21
0.720983
0
LINE
8
BLACK
6
CONTINUOUS
10
3.52542
20
0.831889
11
3.52861
21
0.829755
0
LINE
8
BLACK
6
CONTINUOUS
10
3.52861
20
0.829755
11
3.53075
21
0.826562
0
LINE
8
BLACK
6
CONTINUOUS
10
3.53075
20
0.826562
11
3.5315
21
0.822795
0
LINE
8
BLACK
6
CONTINUOUS
10
3.5315
20
0.822795
11
3.5315
21
0.80311
0
LINE
8
BLACK
6
CONTINUOUS
10
3.5315
20
0.80311
11
3.53075
21
0.799344
0
LINE
8
BLACK
6
CONTINUOUS
10
3.53075
20
0.799344
11
3.52861
21
0.796151
0
LINE
8
BLACK
6
CONTINUOUS
10
3.52861
20
0.796151
11
3.52542
21
0.794017
0
LINE
8
BLACK
6
CONTINUOUS
10
3.52542
20
0.794017
11
3.52165
21
0.793268
0
LINE
8
BLACK
6
CONTINUOUS
10
3.52165
20
0.793268
11
3.43504
21
0.793268
0
LINE
8
BLACK
6
CONTINUOUS
10
3.43504
20
0.793268
11
3.43127
21
0.794017
0
LINE
8
BLACK
6
CONTINUOUS
10
3.43127
20
0.794017
11
3.42808
21
0.796151
0
LINE
8
BLACK
6
CONTINUOUS
10
3.42808
20
0.796151
11
3.42595
21
0.799344
0
LINE
8
BLACK
6
CONTINUOUS
10
3.42595
20
0.799344
11
3.4252
21
0.80311
0
LINE
8
BLACK
6
CONTINUOUS
10
3.4252
20
0.80311
11
3.4252
21
0.822795
0
LINE
8
BLACK
6
CONTINUOUS
10
3.4252
20
0.822795
11
3.42595
21
0.826562
0
LINE
8
BLACK
6
CONTINUOUS
10
3.42595
20
0.826562
11
3.42808
21
0.829755
0
LINE
8
BLACK
6
CONTINUOUS
10
3.42808
20
0.829755
11
3.43127
21
0.831889
0
LINE
8
BLACK
6
CONTINUOUS
10
3.43127
20
0.831889
11
3.43504
21
0.832638
0
LINE
8
BLACK
6
CONTINUOUS
10
3.43504
20
0.832638
11
3.52165
21
0.832638
0
LINE
8
BLACK
6
CONTINUOUS
10
3.52165
20
0.832638
11
3.52542
21
0.831889
0
LINE
8
BLACK
6
CONTINUOUS
10
3.38218
20
0.897149
11
3.3841
21
0.895869
0
LINE
8
BLACK
6
CONTINUOUS
10
3.3841
20
0.895869
11
3.38538
21
0.893953
0
LINE
8
BLACK
6
CONTINUOUS
10
3.38538
20
0.893953
11
3.38583
21
0.891693
0
LINE
8
BLACK
6
CONTINUOUS
10
3.38583
20
0.891693
11
3.38583
21
0.879882
0
LINE
8
BLACK
6
CONTINUOUS
10
3.38583
20
0.879882
11
3.38538
21
0.877622
0
LINE
8
BLACK
6
CONTINUOUS
10
3.38538
20
0.877622
11
3.3841
21
0.875706
0
LINE
8
BLACK
6
CONTINUOUS
10
3.3841
20
0.875706
11
3.38218
21
0.874426
0
LINE
8
BLACK
6
CONTINUOUS
10
3.38218
20
0.874426
11
3.37992
21
0.873976
0
LINE
8
BLACK
6
CONTINUOUS
10
3.37992
20
0.873976
11
3.3248
21
0.873976
0
LINE
8
BLACK
6
CONTINUOUS
10
3.3248
20
0.873976
11
3.32254
21
0.874426
0
LINE
8
BLACK
6
CONTINUOUS
10
3.32254
20
0.874426
11
3.32063
21
0.875706
0
LINE
8
BLACK
6
CONTINUOUS
10
3.32063
20
0.875706
11
3.31935
21
0.877622
0
LINE
8
BLACK
6
CONTINUOUS
10
3.31935
20
0.877622
11
3.3189
21
0.879882
0
LINE
8
BLACK
6
CONTINUOUS
10
3.3189
20
0.879882
11
3.3189
21
0.891693
0
LINE
8
BLACK
6
CONTINUOUS
10
3.3189
20
0.891693
11
3.31935
21
0.893953
0
LINE
8
BLACK
6
CONTINUOUS
10
3.31935
20
0.893953
11
3.32063
21
0.895869
0
LINE
8
BLACK
6
CONTINUOUS
10
3.32063
20
0.895869
11
3.32254
21
0.897149
0
LINE
8
BLACK
6
CONTINUOUS
10
3.32254
20
0.897149
11
3.3248
21
0.897598
0
LINE
8
BLACK
6
CONTINUOUS
10
3.3248
20
0.897598
11
3.37992
21
0.897598
0
LINE
8
BLACK
6
CONTINUOUS
10
3.37992
20
0.897598
11
3.38218
21
0.897149
0
LINE
8
BLACK
6
CONTINUOUS
10
3.38218
20
0.946361
11
3.3841
21
0.945081
0
LINE
8
BLACK
6
CONTINUOUS
10
3.3841
20
0.945081
11
3.38538
21
0.943165
0
LINE
8
BLACK
6
CONTINUOUS
10
3.38538
20
0.943165
11
3.38583
21
0.940906
0
LINE
8
BLACK
6
CONTINUOUS
10
3.38583
20
0.940906
11
3.38583
21
0.929094
0
LINE
8
BLACK
6
CONTINUOUS
10
3.38583
20
0.929094
11
3.38538
21
0.926835
0
LINE
8
BLACK
6
CONTINUOUS
10
3.38538
20
0.926835
11
3.3841
21
0.924919
0
LINE
8
BLACK
6
CONTINUOUS
10
3.3841
20
0.924919
11
3.38218
21
0.923639
0
LINE
8
BLACK
6
CONTINUOUS
10
3.38218
20
0.923639
11
3.37992
21
0.923189
0
LINE
8
BLACK
6
CONTINUOUS
10
3.37992
20
0.923189
11
3.3248
21
0.923189
0
LINE
8
BLACK
6
CONTINUOUS
10
3.3248
20
0.923189
11
3.32254
21
0.923639
0
LINE
8
BLACK
6
CONTINUOUS
10
3.32254
20
0.923639
11
3.32063
21
0.924919
0
LINE
8
BLACK
6
CONTINUOUS
10
3.32063
20
0.924919
11
3.31935
21
0.926835
0
LINE
8
BLACK
6
CONTINUOUS
10
3.31935
20
0.926835
11
3.3189
21
0.929094
0
LINE
8
BLACK
6
CONTINUOUS
10
3.3189
20
0.929094
11
3.3189
21
0.940906
0
LINE
8
BLACK
6
CONTINUOUS
10
3.3189
20
0.940906
11
3.31935
21
0.943165
0
LINE
8
BLACK
6
CONTINUOUS
10
3.31935
20
0.943165
11
3.32063
21
0.945081
0
LINE
8
BLACK
6
CONTINUOUS
10
3.32063
20
0.945081
11
3.32254
21
0.946361
0
LINE
8
BLACK
6
CONTINUOUS
10
3.32254
20
0.946361
11
3.3248
21
0.946811
0
LINE
8
BLACK
6
CONTINUOUS
10
3.3248
20
0.946811
11
3.37992
21
0.946811
0
LINE
8
BLACK
6
CONTINUOUS
10
3.37992
20
0.946811
11
3.38218
21
0.946361
0
LINE
8
BLACK
6
CONTINUOUS
10
3.38218
20
0.995574
11
3.3841
21
0.994294
0
LINE
8
BLACK
6
CONTINUOUS
10
3.3841
20
0.994294
11
3.38538
21
0.992378
0
LINE
8
BLACK
6
CONTINUOUS
10
3.38538
20
0.992378
11
3.38583
21
0.990118
0
LINE
8
BLACK
6
CONTINUOUS
10
3.38583
20
0.990118
11
3.38583
21
0.978307
0
LINE
8
BLACK
6
CONTINUOUS
10
3.38583
20
0.978307
11
3.38538
21
0.976047
0
LINE
8
BLACK
6
CONTINUOUS
10
3.38538
20
0.976047
11
3.3841
21
0.974131
0
LINE
8
BLACK
6
CONTINUOUS
10
3.3841
20
0.974131
11
3.38218
21
0.972851
0
LINE
8
BLACK
6
CONTINUOUS
10
3.38218
20
0.972851
11
3.37992
21
0.972402
0
LINE
8
BLACK
6
CONTINUOUS
10
3.37992
20
0.972402
11
3.3248
21
0.972402
0
LINE
8
BLACK
6
CONTINUOUS
10
3.3248
20
0.972402
11
3.32254
21
0.972851
0
LINE
8
BLACK
6
CONTINUOUS
10
3.32254
20
0.972851
11
3.32063
21
0.974131
0
LINE
8
BLACK
6
CONTINUOUS
10
3.32063
20
0.974131
11
3.31935
21
0.976047
0
LINE
8
BLACK
6
CONTINUOUS
10
3.31935
20
0.976047
11
3.3189
21
0.978307
0
LINE
8
BLACK
6
CONTINUOUS
10
3.3189
20
0.978307
11
3.3189
21
0.990118
0
LINE
8
BLACK
6
CONTINUOUS
10
3.3189
20
0.990118
11
3.31935
21
0.992378
0
LINE
8
BLACK
6
CONTINUOUS
10
3.31935
20
0.992378
11
3.32063
21
0.994294
0
LINE
8
BLACK
6
CONTINUOUS
10
3.32063
20
0.994294
11
3.32254
21
0.995574
0
LINE
8
BLACK
6
CONTINUOUS
10
3.32254
20
0.995574
11
3.3248
21
0.996024
0
LINE
8
BLACK
6
CONTINUOUS
10
3.3248
20
0.996024
11
3.37992
21
0.996024
0
LINE
8
BLACK
6
CONTINUOUS
10
3.37992
20
0.996024
11
3.38218
21
0.995574
0
LINE
8
BLACK
6
CONTINUOUS
10
3.52542
20
1.07598
11
3.52861
21
1.07385
0
LINE
8
BLACK
6
CONTINUOUS
10
3.52861
20
1.07385
11
3.53075
21
1.07066
0
LINE
8
BLACK
6
CONTINUOUS
10
3.53075
20
1.07066
11
3.5315
21
1.06689
0
LINE
8
BLACK
6
CONTINUOUS
10
3.5315
20
1.06689
11
3.5315
21
1.0472
0
LINE
8
BLACK
6
CONTINUOUS
10
3.5315
20
1.0472
11
3.53075
21
1.04344
0
LINE
8
BLACK
6
CONTINUOUS
10
3.53075
20
1.04344
11
3.52861
21
1.04025
0
LINE
8
BLACK
6
CONTINUOUS
10
3.52861
20
1.04025
11
3.52542
21
1.03811
0
LINE
8
BLACK
6
CONTINUOUS
10
3.52542
20
1.03811
11
3.52165
21
1.03736
0
LINE
8
BLACK
6
CONTINUOUS
10
3.52165
20
1.03736
11
3.43504
21
1.03736
0
LINE
8
BLACK
6
CONTINUOUS
10
3.43504
20
1.03736
11
3.43127
21
1.03811
0
LINE
8
BLACK
6
CONTINUOUS
10
3.43127
20
1.03811
11
3.42808
21
1.04025
0
LINE
8
BLACK
6
CONTINUOUS
10
3.42808
20
1.04025
11
3.42595
21
1.04344
0
LINE
8
BLACK
6
CONTINUOUS
10
3.42595
20
1.04344
11
3.4252
21
1.0472
0
LINE
8
BLACK
6
CONTINUOUS
10
3.4252
20
1.0472
11
3.4252
21
1.06689
0
LINE
8
BLACK
6
CONTINUOUS
10
3.4252
20
1.06689
11
3.42595
21
1.07066
0
LINE
8
BLACK
6
CONTINUOUS
10
3.42595
20
1.07066
11
3.42808
21
1.07385
0
LINE
8
BLACK
6
CONTINUOUS
10
3.42808
20
1.07385
11
3.43127
21
1.07598
0
LINE
8
BLACK
6
CONTINUOUS
10
3.43127
20
1.07598
11
3.43504
21
1.07673
0
LINE
8
BLACK
6
CONTINUOUS
10
3.43504
20
1.07673
11
3.52165
21
1.07673
0
LINE
8
BLACK
6
CONTINUOUS
10
3.52165
20
1.07673
11
3.52542
21
1.07598
0
LINE
8
BLACK
6
CONTINUOUS
10
3.50043
20
1.14768
11
3.42957
21
1.14768
0
LINE
8
BLACK
6
CONTINUOUS
10
3.42957
20
1.14768
11
3.42957
21
1.28547
0
LINE
8
BLACK
6
CONTINUOUS
10
3.42957
20
1.28547
11
3.50043
21
1.28547
0
LINE
8
BLACK
6
CONTINUOUS
10
3.50043
20
1.28547
11
3.50043
21
1.14768
0
LINE
8
BLACK
6
CONTINUOUS
10
3.31648
20
1.29153
11
3.31968
21
1.2894
0
LINE
8
BLACK
6
CONTINUOUS
10
3.31968
20
1.2894
11
3.32181
21
1.28621
0
LINE
8
BLACK
6
CONTINUOUS
10
3.32181
20
1.28621
11
3.32256
21
1.28244
0
LINE
8
BLACK
6
CONTINUOUS
10
3.32256
20
1.28244
11
3.32256
21
1.25685
0
LINE
8
BLACK
6
CONTINUOUS
10
3.32256
20
1.25685
11
3.32181
21
1.25308
0
LINE
8
BLACK
6
CONTINUOUS
10
3.32181
20
1.25308
11
3.31968
21
1.24989
0
LINE
8
BLACK
6
CONTINUOUS
10
3.31968
20
1.24989
11
3.31648
21
1.24776
0
LINE
8
BLACK
6
CONTINUOUS
10
3.31648
20
1.24776
11
3.31272
21
1.24701
0
LINE
8
BLACK
6
CONTINUOUS
10
3.31272
20
1.24701
11
3.27728
21
1.24701
0
LINE
8
BLACK
6
CONTINUOUS
10
3.27728
20
1.24701
11
3.27352
21
1.24776
0
LINE
8
BLACK
6
CONTINUOUS
10
3.27352
20
1.24776
11
3.27032
21
1.24989
0
LINE
8
BLACK
6
CONTINUOUS
10
3.27032
20
1.24989
11
3.26819
21
1.25308
0
LINE
8
BLACK
6
CONTINUOUS
10
3.26819
20
1.25308
11
3.26744
21
1.25685
0
LINE
8
BLACK
6
CONTINUOUS
10
3.26744
20
1.25685
11
3.26744
21
1.28244
0
LINE
8
BLACK
6
CONTINUOUS
10
3.26744
20
1.28244
11
3.26819
21
1.28621
0
LINE
8
BLACK
6
CONTINUOUS
10
3.26819
20
1.28621
11
3.27032
21
1.2894
0
LINE
8
BLACK
6
CONTINUOUS
10
3.27032
20
1.2894
11
3.27352
21
1.29153
0
LINE
8
BLACK
6
CONTINUOUS
10
3.27352
20
1.29153
11
3.27728
21
1.29228
0
LINE
8
BLACK
6
CONTINUOUS
10
3.27728
20
1.29228
11
3.31272
21
1.29228
0
LINE
8
BLACK
6
CONTINUOUS
10
3.31272
20
1.29228
11
3.31648
21
1.29153
0
LINE
8
BLACK
6
CONTINUOUS
10
3.31648
20
1.37224
11
3.31968
21
1.37011
0
LINE
8
BLACK
6
CONTINUOUS
10
3.31968
20
1.37011
11
3.32181
21
1.36692
0
LINE
8
BLACK
6
CONTINUOUS
10
3.32181
20
1.36692
11
3.32256
21
1.36315
0
LINE
8
BLACK
6
CONTINUOUS
10
3.32256
20
1.36315
11
3.32256
21
1.33756
0
LINE
8
BLACK
6
CONTINUOUS
10
3.32256
20
1.33756
11
3.32181
21
1.33379
0
LINE
8
BLACK
6
CONTINUOUS
10
3.32181
20
1.33379
11
3.31968
21
1.3306
0
LINE
8
BLACK
6
CONTINUOUS
10
3.31968
20
1.3306
11
3.31648
21
1.32847
0
LINE
8
BLACK
6
CONTINUOUS
10
3.31648
20
1.32847
11
3.31272
21
1.32772
0
LINE
8
BLACK
6
CONTINUOUS
10
3.31272
20
1.32772
11
3.27728
21
1.32772
0
LINE
8
BLACK
6
CONTINUOUS
10
3.27728
20
1.32772
11
3.27352
21
1.32847
0
LINE
8
BLACK
6
CONTINUOUS
10
3.27352
20
1.32847
11
3.27032
21
1.3306
0
LINE
8
BLACK
6
CONTINUOUS
10
3.27032
20
1.3306
11
3.26819
21
1.33379
0
LINE
8
BLACK
6
CONTINUOUS
10
3.26819
20
1.33379
11
3.26744
21
1.33756
0
LINE
8
BLACK
6
CONTINUOUS
10
3.26744
20
1.33756
11
3.26744
21
1.36315
0
LINE
8
BLACK
6
CONTINUOUS
10
3.26744
20
1.36315
11
3.26819
21
1.36692
0
LINE
8
BLACK
6
CONTINUOUS
10
3.26819
20
1.36692
11
3.27032
21
1.37011
0
LINE
8
BLACK
6
CONTINUOUS
10
3.27032
20
1.37011
11
3.27352
21
1.37224
0
LINE
8
BLACK
6
CONTINUOUS
10
3.27352
20
1.37224
11
3.27728
21
1.37299
0
LINE
8
BLACK
6
CONTINUOUS
10
3.27728
20
1.37299
11
3.31272
21
1.37299
0
LINE
8
BLACK
6
CONTINUOUS
10
3.31272
20
1.37299
11
3.31648
21
1.37224
0
LINE
8
BLACK
6
CONTINUOUS
10
3.50043
20
1.34453
11
3.42957
21
1.34453
0
LINE
8
BLACK
6
CONTINUOUS
10
3.42957
20
1.34453
11
3.42957
21
1.48232
0
LINE
8
BLACK
6
CONTINUOUS
10
3.42957
20
1.48232
11
3.50043
21
1.48232
0
LINE
8
BLACK
6
CONTINUOUS
10
3.50043
20
1.48232
11
3.50043
21
1.34453
  0
ENDSEC
  0
EOF
