  0
SECTION
  2
HEADER
  9
$ANGBASE
  50
0.0
  9
$ANGDIR
  70
1
  9
$MEASUREMENT
  70
0
  0
ENDSEC
  0
SECTION
  2
TABLES
  0
TABLE
  2
LTYPE
  70
4
  0
LTYPE
  5
40F
  2
CONTINUOUS
  70
0
  3
Solid line
  72
65
  73
0
  40
0.0
  0
LTYPE
  5
410
  2
DASHDOT
 70
0
  3
Dash Dot ____ _ ____ _
 72
65
 73
4
 40
2.0
 49
1.25
 49
-0.25
 49
0.25
 49
-0.25
  0
LTYPE
  5
411
  2
DASHED
 70
0
  3
Dashed __ __ __ __ __
 72
65
 73
2
 40
0.75
 49
0.5
 49
-0.25
  0
LTYPE
  5
43B
  2
DOTTED
 70
0
  3
Dotted .  .  .  .
 72
65
 73
2
 40
0.2
 49
0.0
 49
-0.2
  0
ENDTAB
  0
TABLE
  2
STYLE
  70
4
  0
STYLE
  2
KICAD
  70
0
  40
0
  41
1
  42
1
  50
0
  71
0
  3
isocp.shx
  0
STYLE
  2
KICADB
  70
0
  40
0
  41
1
  42
1
  50
0
  71
0
  3
isocp.shx
  0
STYLE
  2
KICADI
  70
0
  40
0
  41
1
  42
1
  50
15
  71
0
  3
isocp.shx
  0
STYLE
  2
KICADBI
  70
0
  40
0
  41
1
  42
1
  50
15
  71
0
  3
isocp.shx
  0
ENDTAB
  0
TABLE
  2
LAYER
  70
1
  0
LAYER
  2
BLACK
  70
0
  62
7
  6
CONTINUOUS
  0
ENDTAB
  0
ENDSEC
  0
SECTION
  2
ENTITIES
0
LINE
8
BLACK
6
CONTINUOUS
10
3.41492
20
0.325098
11
3.42877
21
0.322656
0
LINE
8
BLACK
6
CONTINUOUS
10
3.42877
20
0.322656
11
3.44226
21
0.318684
0
LINE
8
BLACK
6
CONTINUOUS
10
3.44226
20
0.318684
11
3.45523
21
0.313234
0
LINE
8
BLACK
6
CONTINUOUS
10
3.45523
20
0.313234
11
3.46751
21
0.306372
0
LINE
8
BLACK
6
CONTINUOUS
10
3.46751
20
0.306372
11
3.47894
21
0.298184
0
LINE
8
BLACK
6
CONTINUOUS
10
3.47894
20
0.298184
11
3.48939
21
0.288773
0
LINE
8
BLACK
6
CONTINUOUS
10
3.48939
20
0.288773
11
3.49873
21
0.278255
0
LINE
8
BLACK
6
CONTINUOUS
10
3.49873
20
0.278255
11
3.50684
21
0.266761
0
LINE
8
BLACK
6
CONTINUOUS
10
3.50684
20
0.266761
11
3.51362
21
0.254436
0
LINE
8
BLACK
6
CONTINUOUS
10
3.51362
20
0.254436
11
3.51898
21
0.241432
0
LINE
8
BLACK
6
CONTINUOUS
10
3.51898
20
0.241432
11
3.52285
21
0.227912
0
LINE
8
BLACK
6
CONTINUOUS
10
3.52285
20
0.227912
11
3.5252
21
0.214043
0
LINE
8
BLACK
6
CONTINUOUS
10
3.5252
20
0.214043
11
3.52598
21
0.2
0
LINE
8
BLACK
6
CONTINUOUS
10
3.52598
20
0.2
11
3.52594
21
0.196482
0
LINE
8
BLACK
6
CONTINUOUS
10
3.52594
20
0.196482
11
3.52476
21
0.182466
0
LINE
8
BLACK
6
CONTINUOUS
10
3.52476
20
0.182466
11
3.52203
21
0.168669
0
LINE
8
BLACK
6
CONTINUOUS
10
3.52203
20
0.168669
11
3.51777
21
0.155262
0
LINE
8
BLACK
6
CONTINUOUS
10
3.51777
20
0.155262
11
3.51205
21
0.142413
0
LINE
8
BLACK
6
CONTINUOUS
10
3.51205
20
0.142413
11
3.50493
21
0.130281
0
LINE
8
BLACK
6
CONTINUOUS
10
3.50493
20
0.130281
11
3.49651
21
0.119019
0
LINE
8
BLACK
6
CONTINUOUS
10
3.49651
20
0.119019
11
3.48688
21
0.108766
0
LINE
8
BLACK
6
CONTINUOUS
10
3.48688
20
0.108766
11
3.47617
21
0.0996498
0
LINE
8
BLACK
6
CONTINUOUS
10
3.47617
20
0.0996498
11
3.46451
21
0.0917846
0
LINE
8
BLACK
6
CONTINUOUS
10
3.46451
20
0.0917846
11
3.45204
21
0.0852682
0
LINE
8
BLACK
6
CONTINUOUS
10
3.45204
20
0.0852682
11
3.43893
21
0.0801819
0
LINE
8
BLACK
6
CONTINUOUS
10
3.43893
20
0.0801819
11
3.42533
21
0.0765889
0
LINE
8
BLACK
6
CONTINUOUS
10
3.42533
20
0.0765889
11
3.41142
21
0.0745343
0
LINE
8
BLACK
6
CONTINUOUS
10
3.41142
20
0.0745343
11
3.39736
21
0.0740434
0
LINE
8
BLACK
6
CONTINUOUS
10
3.39736
20
0.0740434
11
3.38334
21
0.0751224
0
LINE
8
BLACK
6
CONTINUOUS
10
3.38334
20
0.0751224
11
3.36952
21
0.077758
0
LINE
8
BLACK
6
CONTINUOUS
10
3.36952
20
0.077758
11
3.35609
21
0.0819172
0
LINE
8
BLACK
6
CONTINUOUS
10
3.35609
20
0.0819172
11
3.3432
21
0.0875482
0
LINE
8
BLACK
6
CONTINUOUS
10
3.3432
20
0.0875482
11
3.33102
21
0.0945809
0
LINE
8
BLACK
6
CONTINUOUS
10
3.33102
20
0.0945809
11
3.31969
21
0.102927
0
LINE
8
BLACK
6
CONTINUOUS
10
3.31969
20
0.102927
11
3.30937
21
0.112484
0
LINE
8
BLACK
6
CONTINUOUS
10
3.30937
20
0.112484
11
3.30018
21
0.123131
0
LINE
8
BLACK
6
CONTINUOUS
10
3.30018
20
0.123131
11
3.29224
21
0.134737
0
LINE
8
BLACK
6
CONTINUOUS
10
3.29224
20
0.134737
11
3.28563
21
0.147156
0
LINE
8
BLACK
6
CONTINUOUS
10
3.28563
20
0.147156
11
3.28046
21
0.160233
0
LINE
8
BLACK
6
CONTINUOUS
10
3.28046
20
0.160233
11
3.27677
21
0.173806
0
LINE
8
BLACK
6
CONTINUOUS
10
3.27677
20
0.173806
11
3.27462
21
0.187706
0
LINE
8
BLACK
6
CONTINUOUS
10
3.27462
20
0.187706
11
3.27403
21
0.201759
0
LINE
8
BLACK
6
CONTINUOUS
10
3.27403
20
0.201759
11
3.27501
21
0.21579
0
LINE
8
BLACK
6
CONTINUOUS
10
3.27501
20
0.21579
11
3.27755
21
0.229624
0
LINE
8
BLACK
6
CONTINUOUS
10
3.27755
20
0.229624
11
3.28161
21
0.243089
0
LINE
8
BLACK
6
CONTINUOUS
10
3.28161
20
0.243089
11
3.28715
21
0.256017
0
LINE
8
BLACK
6
CONTINUOUS
10
3.28715
20
0.256017
11
3.2941
21
0.268247
0
LINE
8
BLACK
6
CONTINUOUS
10
3.2941
20
0.268247
11
3.30237
21
0.279626
0
LINE
8
BLACK
6
CONTINUOUS
10
3.30237
20
0.279626
11
3.31185
21
0.290012
0
LINE
8
BLACK
6
CONTINUOUS
10
3.31185
20
0.290012
11
3.32244
21
0.299277
0
LINE
8
BLACK
6
CONTINUOUS
10
3.32244
20
0.299277
11
3.33399
21
0.307304
0
LINE
8
BLACK
6
CONTINUOUS
10
3.33399
20
0.307304
11
3.34636
21
0.313994
0
LINE
8
BLACK
6
CONTINUOUS
10
3.34636
20
0.313994
11
3.3594
21
0.319263
0
LINE
8
BLACK
6
CONTINUOUS
10
3.3594
20
0.319263
11
3.37295
21
0.323045
0
LINE
8
BLACK
6
CONTINUOUS
10
3.37295
20
0.323045
11
3.38683
21
0.325294
0
LINE
8
BLACK
6
CONTINUOUS
10
3.38683
20
0.325294
11
3.40088
21
0.325981
0
LINE
8
BLACK
6
CONTINUOUS
10
3.40088
20
0.325981
11
3.41492
21
0.325098
0
LINE
8
BLACK
6
CONTINUOUS
10
0.214917
20
0.325098
11
0.228769
21
0.322656
0
LINE
8
BLACK
6
CONTINUOUS
10
0.228769
20
0.322656
11
0.242262
21
0.318684
0
LINE
8
BLACK
6
CONTINUOUS
10
0.242262
20
0.318684
11
0.255228
21
0.313234
0
LINE
8
BLACK
6
CONTINUOUS
10
0.255228
20
0.313234
11
0.267506
21
0.306372
0
LINE
8
BLACK
6
CONTINUOUS
10
0.267506
20
0.306372
11
0.278942
21
0.298184
0
LINE
8
BLACK
6
CONTINUOUS
10
0.278942
20
0.298184
11
0.289395
21
0.288773
0
LINE
8
BLACK
6
CONTINUOUS
10
0.289395
20
0.288773
11
0.298733
21
0.278255
0
LINE
8
BLACK
6
CONTINUOUS
10
0.298733
20
0.278255
11
0.306841
21
0.266761
0
LINE
8
BLACK
6
CONTINUOUS
10
0.306841
20
0.266761
11
0.313617
21
0.254436
0
LINE
8
BLACK
6
CONTINUOUS
10
0.313617
20
0.254436
11
0.318977
21
0.241432
0
LINE
8
BLACK
6
CONTINUOUS
10
0.318977
20
0.241432
11
0.322853
21
0.227912
0
LINE
8
BLACK
6
CONTINUOUS
10
0.322853
20
0.227912
11
0.325199
21
0.214043
0
LINE
8
BLACK
6
CONTINUOUS
10
0.325199
20
0.214043
11
0.325984
21
0.2
0
LINE
8
BLACK
6
CONTINUOUS
10
0.325984
20
0.2
11
0.325935
21
0.196482
0
LINE
8
BLACK
6
CONTINUOUS
10
0.325935
20
0.196482
11
0.324758
21
0.182466
0
LINE
8
BLACK
6
CONTINUOUS
10
0.324758
20
0.182466
11
0.322026
21
0.168669
0
LINE
8
BLACK
6
CONTINUOUS
10
0.322026
20
0.168669
11
0.317773
21
0.155262
0
LINE
8
BLACK
6
CONTINUOUS
10
0.317773
20
0.155262
11
0.312052
21
0.142413
0
LINE
8
BLACK
6
CONTINUOUS
10
0.312052
20
0.142413
11
0.304935
21
0.130281
0
LINE
8
BLACK
6
CONTINUOUS
10
0.304935
20
0.130281
11
0.29651
21
0.119019
0
LINE
8
BLACK
6
CONTINUOUS
10
0.29651
20
0.119019
11
0.286881
21
0.108766
0
LINE
8
BLACK
6
CONTINUOUS
10
0.286881
20
0.108766
11
0.27617
21
0.0996498
0
LINE
8
BLACK
6
CONTINUOUS
10
0.27617
20
0.0996498
11
0.264509
21
0.0917846
0
LINE
8
BLACK
6
CONTINUOUS
10
0.264509
20
0.0917846
11
0.252045
21
0.0852682
0
LINE
8
BLACK
6
CONTINUOUS
10
0.252045
20
0.0852682
11
0.238931
21
0.0801819
0
LINE
8
BLACK
6
CONTINUOUS
10
0.238931
20
0.0801819
11
0.225333
21
0.0765889
0
LINE
8
BLACK
6
CONTINUOUS
10
0.225333
20
0.0765889
11
0.211418
21
0.0745343
0
LINE
8
BLACK
6
CONTINUOUS
10
0.211418
20
0.0745343
11
0.197362
21
0.0740434
0
LINE
8
BLACK
6
CONTINUOUS
10
0.197362
20
0.0740434
11
0.183338
21
0.0751224
0
LINE
8
BLACK
6
CONTINUOUS
10
0.183338
20
0.0751224
11
0.169522
21
0.077758
0
LINE
8
BLACK
6
CONTINUOUS
10
0.169522
20
0.077758
11
0.156085
21
0.0819172
0
LINE
8
BLACK
6
CONTINUOUS
10
0.156085
20
0.0819172
11
0.143197
21
0.0875482
0
LINE
8
BLACK
6
CONTINUOUS
10
0.143197
20
0.0875482
11
0.131016
21
0.0945809
0
LINE
8
BLACK
6
CONTINUOUS
10
0.131016
20
0.0945809
11
0.119695
21
0.102927
0
LINE
8
BLACK
6
CONTINUOUS
10
0.119695
20
0.102927
11
0.109375
21
0.112484
0
LINE
8
BLACK
6
CONTINUOUS
10
0.109375
20
0.112484
11
0.100184
21
0.123131
0
LINE
8
BLACK
6
CONTINUOUS
10
0.100184
20
0.123131
11
0.0922376
21
0.134737
0
LINE
8
BLACK
6
CONTINUOUS
10
0.0922376
20
0.134737
11
0.0856343
21
0.147156
0
LINE
8
BLACK
6
CONTINUOUS
10
0.0856343
20
0.147156
11
0.0804566
21
0.160233
0
LINE
8
BLACK
6
CONTINUOUS
10
0.0804566
20
0.160233
11
0.0767688
21
0.173806
0
LINE
8
BLACK
6
CONTINUOUS
10
0.0767688
20
0.173806
11
0.074617
21
0.187706
0
LINE
8
BLACK
6
CONTINUOUS
10
0.074617
20
0.187706
11
0.074028
21
0.201759
0
LINE
8
BLACK
6
CONTINUOUS
10
0.074028
20
0.201759
11
0.0750092
21
0.21579
0
LINE
8
BLACK
6
CONTINUOUS
10
0.0750092
20
0.21579
11
0.0775482
21
0.229624
0
LINE
8
BLACK
6
CONTINUOUS
10
0.0775482
20
0.229624
11
0.0816135
21
0.243089
0
LINE
8
BLACK
6
CONTINUOUS
10
0.0816135
20
0.243089
11
0.0871544
21
0.256017
0
LINE
8
BLACK
6
CONTINUOUS
10
0.0871544
20
0.256017
11
0.0941019
21
0.268247
0
LINE
8
BLACK
6
CONTINUOUS
10
0.0941019
20
0.268247
11
0.102369
21
0.279626
0
LINE
8
BLACK
6
CONTINUOUS
10
0.102369
20
0.279626
11
0.111853
21
0.290012
0
LINE
8
BLACK
6
CONTINUOUS
10
0.111853
20
0.290012
11
0.122436
21
0.299277
0
LINE
8
BLACK
6
CONTINUOUS
10
0.122436
20
0.299277
11
0.133986
21
0.307304
0
LINE
8
BLACK
6
CONTINUOUS
10
0.133986
20
0.307304
11
0.146359
21
0.313994
0
LINE
8
BLACK
6
CONTINUOUS
10
0.146359
20
0.313994
11
0.1594
21
0.319263
0
LINE
8
BLACK
6
CONTINUOUS
10
0.1594
20
0.319263
11
0.172947
21
0.323045
0
LINE
8
BLACK
6
CONTINUOUS
10
0.172947
20
0.323045
11
0.186831
21
0.325294
0
LINE
8
BLACK
6
CONTINUOUS
10
0.186831
20
0.325294
11
0.20088
21
0.325981
0
LINE
8
BLACK
6
CONTINUOUS
10
0.20088
20
0.325981
11
0.214917
21
0.325098
0
LINE
8
BLACK
6
CONTINUOUS
10
3.52497
20
0.485198
11
3.52994
21
0.483453
0
LINE
8
BLACK
6
CONTINUOUS
10
3.52994
20
0.483453
11
3.53418
21
0.480323
0
LINE
8
BLACK
6
CONTINUOUS
10
3.53418
20
0.480323
11
3.53731
21
0.476085
0
LINE
8
BLACK
6
CONTINUOUS
10
3.53731
20
0.476085
11
3.53906
21
0.471115
0
LINE
8
BLACK
6
CONTINUOUS
10
3.53906
20
0.471115
11
3.53937
21
0.467795
0
LINE
8
BLACK
6
CONTINUOUS
10
3.53937
20
0.467795
11
3.53937
21
0.44811
0
LINE
8
BLACK
6
CONTINUOUS
10
3.53937
20
0.44811
11
3.53906
21
0.44479
0
LINE
8
BLACK
6
CONTINUOUS
10
3.53906
20
0.44479
11
3.53731
21
0.43982
0
LINE
8
BLACK
6
CONTINUOUS
10
3.53731
20
0.43982
11
3.53418
21
0.435583
0
LINE
8
BLACK
6
CONTINUOUS
10
3.53418
20
0.435583
11
3.52994
21
0.432453
0
LINE
8
BLACK
6
CONTINUOUS
10
3.52994
20
0.432453
11
3.52497
21
0.430708
0
LINE
8
BLACK
6
CONTINUOUS
10
3.52497
20
0.430708
11
3.52165
21
0.430394
0
LINE
8
BLACK
6
CONTINUOUS
10
3.52165
20
0.430394
11
3.43504
21
0.430394
0
LINE
8
BLACK
6
CONTINUOUS
10
3.43504
20
0.430394
11
3.43172
21
0.430708
0
LINE
8
BLACK
6
CONTINUOUS
10
3.43172
20
0.430708
11
3.42675
21
0.432453
0
LINE
8
BLACK
6
CONTINUOUS
10
3.42675
20
0.432453
11
3.42251
21
0.435583
0
LINE
8
BLACK
6
CONTINUOUS
10
3.42251
20
0.435583
11
3.41938
21
0.43982
0
LINE
8
BLACK
6
CONTINUOUS
10
3.41938
20
0.43982
11
3.41764
21
0.44479
0
LINE
8
BLACK
6
CONTINUOUS
10
3.41764
20
0.44479
11
3.41732
21
0.44811
0
LINE
8
BLACK
6
CONTINUOUS
10
3.41732
20
0.44811
11
3.41732
21
0.467795
0
LINE
8
BLACK
6
CONTINUOUS
10
3.41732
20
0.467795
11
3.41764
21
0.471115
0
LINE
8
BLACK
6
CONTINUOUS
10
3.41764
20
0.471115
11
3.41938
21
0.476085
0
LINE
8
BLACK
6
CONTINUOUS
10
3.41938
20
0.476085
11
3.42251
21
0.480323
0
LINE
8
BLACK
6
CONTINUOUS
10
3.42251
20
0.480323
11
3.42675
21
0.483453
0
LINE
8
BLACK
6
CONTINUOUS
10
3.42675
20
0.483453
11
3.43172
21
0.485198
0
LINE
8
BLACK
6
CONTINUOUS
10
3.43172
20
0.485198
11
3.43504
21
0.485512
0
LINE
8
BLACK
6
CONTINUOUS
10
3.43504
20
0.485512
11
3.52165
21
0.485512
0
LINE
8
BLACK
6
CONTINUOUS
10
3.52165
20
0.485512
11
3.52497
21
0.485198
0
LINE
8
BLACK
6
CONTINUOUS
10
3.38386
20
0.549898
11
3.38792
21
0.547911
0
LINE
8
BLACK
6
CONTINUOUS
10
3.38792
20
0.547911
11
3.39113
21
0.544714
0
LINE
8
BLACK
6
CONTINUOUS
10
3.39113
20
0.544714
11
3.39312
21
0.540653
0
LINE
8
BLACK
6
CONTINUOUS
10
3.39312
20
0.540653
11
3.3937
21
0.536693
0
LINE
8
BLACK
6
CONTINUOUS
10
3.3937
20
0.536693
11
3.3937
21
0.524882
0
LINE
8
BLACK
6
CONTINUOUS
10
3.3937
20
0.524882
11
3.39313
21
0.520945
0
LINE
8
BLACK
6
CONTINUOUS
10
3.39313
20
0.520945
11
3.39114
21
0.51688
0
LINE
8
BLACK
6
CONTINUOUS
10
3.39114
20
0.51688
11
3.38794
21
0.513678
0
LINE
8
BLACK
6
CONTINUOUS
10
3.38794
20
0.513678
11
3.38388
21
0.511684
0
LINE
8
BLACK
6
CONTINUOUS
10
3.38388
20
0.511684
11
3.37992
21
0.511102
0
LINE
8
BLACK
6
CONTINUOUS
10
3.37992
20
0.511102
11
3.3248
21
0.511102
0
LINE
8
BLACK
6
CONTINUOUS
10
3.3248
20
0.511102
11
3.32087
21
0.511677
0
LINE
8
BLACK
6
CONTINUOUS
10
3.32087
20
0.511677
11
3.3168
21
0.513664
0
LINE
8
BLACK
6
CONTINUOUS
10
3.3168
20
0.513664
11
3.3136
21
0.516861
0
LINE
8
BLACK
6
CONTINUOUS
10
3.3136
20
0.516861
11
3.3116
21
0.520922
0
LINE
8
BLACK
6
CONTINUOUS
10
3.3116
20
0.520922
11
3.31102
21
0.524882
0
LINE
8
BLACK
6
CONTINUOUS
10
3.31102
20
0.524882
11
3.31102
21
0.536693
0
LINE
8
BLACK
6
CONTINUOUS
10
3.31102
20
0.536693
11
3.3116
21
0.54063
0
LINE
8
BLACK
6
CONTINUOUS
10
3.3116
20
0.54063
11
3.31359
21
0.544695
0
LINE
8
BLACK
6
CONTINUOUS
10
3.31359
20
0.544695
11
3.31678
21
0.547897
0
LINE
8
BLACK
6
CONTINUOUS
10
3.31678
20
0.547897
11
3.32084
21
0.549891
0
LINE
8
BLACK
6
CONTINUOUS
10
3.32084
20
0.549891
11
3.3248
21
0.550472
0
LINE
8
BLACK
6
CONTINUOUS
10
3.3248
20
0.550472
11
3.37992
21
0.550472
0
LINE
8
BLACK
6
CONTINUOUS
10
3.37992
20
0.550472
11
3.38386
21
0.549898
0
LINE
8
BLACK
6
CONTINUOUS
10
3.38386
20
0.599111
11
3.38792
21
0.597124
0
LINE
8
BLACK
6
CONTINUOUS
10
3.38792
20
0.597124
11
3.39113
21
0.593927
0
LINE
8
BLACK
6
CONTINUOUS
10
3.39113
20
0.593927
11
3.39312
21
0.589865
0
LINE
8
BLACK
6
CONTINUOUS
10
3.39312
20
0.589865
11
3.3937
21
0.585906
0
LINE
8
BLACK
6
CONTINUOUS
10
3.3937
20
0.585906
11
3.3937
21
0.574094
0
LINE
8
BLACK
6
CONTINUOUS
10
3.3937
20
0.574094
11
3.39313
21
0.570158
0
LINE
8
BLACK
6
CONTINUOUS
10
3.39313
20
0.570158
11
3.39114
21
0.566093
0
LINE
8
BLACK
6
CONTINUOUS
10
3.39114
20
0.566093
11
3.38794
21
0.56289
0
LINE
8
BLACK
6
CONTINUOUS
10
3.38794
20
0.56289
11
3.38388
21
0.560896
0
LINE
8
BLACK
6
CONTINUOUS
10
3.38388
20
0.560896
11
3.37992
21
0.560315
0
LINE
8
BLACK
6
CONTINUOUS
10
3.37992
20
0.560315
11
3.3248
21
0.560315
0
LINE
8
BLACK
6
CONTINUOUS
10
3.3248
20
0.560315
11
3.32087
21
0.560889
0
LINE
8
BLACK
6
CONTINUOUS
10
3.32087
20
0.560889
11
3.3168
21
0.562876
0
LINE
8
BLACK
6
CONTINUOUS
10
3.3168
20
0.562876
11
3.3136
21
0.566073
0
LINE
8
BLACK
6
CONTINUOUS
10
3.3136
20
0.566073
11
3.3116
21
0.570135
0
LINE
8
BLACK
6
CONTINUOUS
10
3.3116
20
0.570135
11
3.31102
21
0.574094
0
LINE
8
BLACK
6
CONTINUOUS
10
3.31102
20
0.574094
11
3.31102
21
0.585906
0
LINE
8
BLACK
6
CONTINUOUS
10
3.31102
20
0.585906
11
3.3116
21
0.589842
0
LINE
8
BLACK
6
CONTINUOUS
10
3.3116
20
0.589842
11
3.31359
21
0.593907
0
LINE
8
BLACK
6
CONTINUOUS
10
3.31359
20
0.593907
11
3.31678
21
0.59711
0
LINE
8
BLACK
6
CONTINUOUS
10
3.31678
20
0.59711
11
3.32084
21
0.599104
0
LINE
8
BLACK
6
CONTINUOUS
10
3.32084
20
0.599104
11
3.3248
21
0.599685
0
LINE
8
BLACK
6
CONTINUOUS
10
3.3248
20
0.599685
11
3.37992
21
0.599685
0
LINE
8
BLACK
6
CONTINUOUS
10
3.37992
20
0.599685
11
3.38386
21
0.599111
0
LINE
8
BLACK
6
CONTINUOUS
10
3.38386
20
0.648323
11
3.38792
21
0.646336
0
LINE
8
BLACK
6
CONTINUOUS
10
3.38792
20
0.646336
11
3.39113
21
0.643139
0
LINE
8
BLACK
6
CONTINUOUS
10
3.39113
20
0.643139
11
3.39312
21
0.639078
0
LINE
8
BLACK
6
CONTINUOUS
10
3.39312
20
0.639078
11
3.3937
21
0.635118
0
LINE
8
BLACK
6
CONTINUOUS
10
3.3937
20
0.635118
11
3.3937
21
0.623307
0
LINE
8
BLACK
6
CONTINUOUS
10
3.3937
20
0.623307
11
3.39313
21
0.61937
0
LINE
8
BLACK
6
CONTINUOUS
10
3.39313
20
0.61937
11
3.39114
21
0.615305
0
LINE
8
BLACK
6
CONTINUOUS
10
3.39114
20
0.615305
11
3.38794
21
0.612103
0
LINE
8
BLACK
6
CONTINUOUS
10
3.38794
20
0.612103
11
3.38388
21
0.610109
0
LINE
8
BLACK
6
CONTINUOUS
10
3.38388
20
0.610109
11
3.37992
21
0.609528
0
LINE
8
BLACK
6
CONTINUOUS
10
3.37992
20
0.609528
11
3.3248
21
0.609528
0
LINE
8
BLACK
6
CONTINUOUS
10
3.3248
20
0.609528
11
3.32087
21
0.610102
0
LINE
8
BLACK
6
CONTINUOUS
10
3.32087
20
0.610102
11
3.3168
21
0.612089
0
LINE
8
BLACK
6
CONTINUOUS
10
3.3168
20
0.612089
11
3.3136
21
0.615286
0
LINE
8
BLACK
6
CONTINUOUS
10
3.3136
20
0.615286
11
3.3116
21
0.619347
0
LINE
8
BLACK
6
CONTINUOUS
10
3.3116
20
0.619347
11
3.31102
21
0.623307
0
LINE
8
BLACK
6
CONTINUOUS
10
3.31102
20
0.623307
11
3.31102
21
0.635118
0
LINE
8
BLACK
6
CONTINUOUS
10
3.31102
20
0.635118
11
3.3116
21
0.639055
0
LINE
8
BLACK
6
CONTINUOUS
10
3.3116
20
0.639055
11
3.31359
21
0.64312
0
LINE
8
BLACK
6
CONTINUOUS
10
3.31359
20
0.64312
11
3.31678
21
0.646322
0
LINE
8
BLACK
6
CONTINUOUS
10
3.31678
20
0.646322
11
3.32084
21
0.648316
0
LINE
8
BLACK
6
CONTINUOUS
10
3.32084
20
0.648316
11
3.3248
21
0.648898
0
LINE
8
BLACK
6
CONTINUOUS
10
3.3248
20
0.648898
11
3.37992
21
0.648898
0
LINE
8
BLACK
6
CONTINUOUS
10
3.37992
20
0.648898
11
3.38386
21
0.648323
0
LINE
8
BLACK
6
CONTINUOUS
10
3.52497
20
0.729292
11
3.52994
21
0.727547
0
LINE
8
BLACK
6
CONTINUOUS
10
3.52994
20
0.727547
11
3.53418
21
0.724417
0
LINE
8
BLACK
6
CONTINUOUS
10
3.53418
20
0.724417
11
3.53731
21
0.72018
0
LINE
8
BLACK
6
CONTINUOUS
10
3.53731
20
0.72018
11
3.53906
21
0.71521
0
LINE
8
BLACK
6
CONTINUOUS
10
3.53906
20
0.71521
11
3.53937
21
0.71189
0
LINE
8
BLACK
6
CONTINUOUS
10
3.53937
20
0.71189
11
3.53937
21
0.692205
0
LINE
8
BLACK
6
CONTINUOUS
10
3.53937
20
0.692205
11
3.53906
21
0.688885
0
LINE
8
BLACK
6
CONTINUOUS
10
3.53906
20
0.688885
11
3.53731
21
0.683915
0
LINE
8
BLACK
6
CONTINUOUS
10
3.53731
20
0.683915
11
3.53418
21
0.679677
0
LINE
8
BLACK
6
CONTINUOUS
10
3.53418
20
0.679677
11
3.52994
21
0.676547
0
LINE
8
BLACK
6
CONTINUOUS
10
3.52994
20
0.676547
11
3.52497
21
0.674802
0
LINE
8
BLACK
6
CONTINUOUS
10
3.52497
20
0.674802
11
3.52165
21
0.674488
0
LINE
8
BLACK
6
CONTINUOUS
10
3.52165
20
0.674488
11
3.43504
21
0.674488
0
LINE
8
BLACK
6
CONTINUOUS
10
3.43504
20
0.674488
11
3.43172
21
0.674802
0
LINE
8
BLACK
6
CONTINUOUS
10
3.43172
20
0.674802
11
3.42675
21
0.676547
0
LINE
8
BLACK
6
CONTINUOUS
10
3.42675
20
0.676547
11
3.42251
21
0.679677
0
LINE
8
BLACK
6
CONTINUOUS
10
3.42251
20
0.679677
11
3.41938
21
0.683915
0
LINE
8
BLACK
6
CONTINUOUS
10
3.41938
20
0.683915
11
3.41764
21
0.688885
0
LINE
8
BLACK
6
CONTINUOUS
10
3.41764
20
0.688885
11
3.41732
21
0.692205
0
LINE
8
BLACK
6
CONTINUOUS
10
3.41732
20
0.692205
11
3.41732
21
0.71189
0
LINE
8
BLACK
6
CONTINUOUS
10
3.41732
20
0.71189
11
3.41764
21
0.71521
0
LINE
8
BLACK
6
CONTINUOUS
10
3.41764
20
0.71521
11
3.41938
21
0.72018
0
LINE
8
BLACK
6
CONTINUOUS
10
3.41938
20
0.72018
11
3.42251
21
0.724417
0
LINE
8
BLACK
6
CONTINUOUS
10
3.42251
20
0.724417
11
3.42675
21
0.727547
0
LINE
8
BLACK
6
CONTINUOUS
10
3.42675
20
0.727547
11
3.43172
21
0.729292
0
LINE
8
BLACK
6
CONTINUOUS
10
3.43172
20
0.729292
11
3.43504
21
0.729606
0
LINE
8
BLACK
6
CONTINUOUS
10
3.43504
20
0.729606
11
3.52165
21
0.729606
0
LINE
8
BLACK
6
CONTINUOUS
10
3.52165
20
0.729606
11
3.52497
21
0.729292
0
LINE
8
BLACK
6
CONTINUOUS
10
3.52497
20
0.840198
11
3.52994
21
0.838453
0
LINE
8
BLACK
6
CONTINUOUS
10
3.52994
20
0.838453
11
3.53418
21
0.835323
0
LINE
8
BLACK
6
CONTINUOUS
10
3.53418
20
0.835323
11
3.53731
21
0.831085
0
LINE
8
BLACK
6
CONTINUOUS
10
3.53731
20
0.831085
11
3.53906
21
0.826115
0
LINE
8
BLACK
6
CONTINUOUS
10
3.53906
20
0.826115
11
3.53937
21
0.822795
0
LINE
8
BLACK
6
CONTINUOUS
10
3.53937
20
0.822795
11
3.53937
21
0.80311
0
LINE
8
BLACK
6
CONTINUOUS
10
3.53937
20
0.80311
11
3.53906
21
0.79979
0
LINE
8
BLACK
6
CONTINUOUS
10
3.53906
20
0.79979
11
3.53731
21
0.79482
0
LINE
8
BLACK
6
CONTINUOUS
10
3.53731
20
0.79482
11
3.53418
21
0.790583
0
LINE
8
BLACK
6
CONTINUOUS
10
3.53418
20
0.790583
11
3.52994
21
0.787453
0
LINE
8
BLACK
6
CONTINUOUS
10
3.52994
20
0.787453
11
3.52497
21
0.785708
0
LINE
8
BLACK
6
CONTINUOUS
10
3.52497
20
0.785708
11
3.52165
21
0.785394
0
LINE
8
BLACK
6
CONTINUOUS
10
3.52165
20
0.785394
11
3.43504
21
0.785394
0
LINE
8
BLACK
6
CONTINUOUS
10
3.43504
20
0.785394
11
3.43172
21
0.785708
0
LINE
8
BLACK
6
CONTINUOUS
10
3.43172
20
0.785708
11
3.42675
21
0.787453
0
LINE
8
BLACK
6
CONTINUOUS
10
3.42675
20
0.787453
11
3.42251
21
0.790583
0
LINE
8
BLACK
6
CONTINUOUS
10
3.42251
20
0.790583
11
3.41938
21
0.79482
0
LINE
8
BLACK
6
CONTINUOUS
10
3.41938
20
0.79482
11
3.41764
21
0.79979
0
LINE
8
BLACK
6
CONTINUOUS
10
3.41764
20
0.79979
11
3.41732
21
0.80311
0
LINE
8
BLACK
6
CONTINUOUS
10
3.41732
20
0.80311
11
3.41732
21
0.822795
0
LINE
8
BLACK
6
CONTINUOUS
10
3.41732
20
0.822795
11
3.41764
21
0.826115
0
LINE
8
BLACK
6
CONTINUOUS
10
3.41764
20
0.826115
11
3.41938
21
0.831085
0
LINE
8
BLACK
6
CONTINUOUS
10
3.41938
20
0.831085
11
3.42251
21
0.835323
0
LINE
8
BLACK
6
CONTINUOUS
10
3.42251
20
0.835323
11
3.42675
21
0.838453
0
LINE
8
BLACK
6
CONTINUOUS
10
3.42675
20
0.838453
11
3.43172
21
0.840198
0
LINE
8
BLACK
6
CONTINUOUS
10
3.43172
20
0.840198
11
3.43504
21
0.840512
0
LINE
8
BLACK
6
CONTINUOUS
10
3.43504
20
0.840512
11
3.52165
21
0.840512
0
LINE
8
BLACK
6
CONTINUOUS
10
3.52165
20
0.840512
11
3.52497
21
0.840198
0
LINE
8
BLACK
6
CONTINUOUS
10
3.38386
20
0.904898
11
3.38792
21
0.902911
0
LINE
8
BLACK
6
CONTINUOUS
10
3.38792
20
0.902911
11
3.39113
21
0.899714
0
LINE
8
BLACK
6
CONTINUOUS
10
3.39113
20
0.899714
11
3.39312
21
0.895653
0
LINE
8
BLACK
6
CONTINUOUS
10
3.39312
20
0.895653
11
3.3937
21
0.891693
0
LINE
8
BLACK
6
CONTINUOUS
10
3.3937
20
0.891693
11
3.3937
21
0.879882
0
LINE
8
BLACK
6
CONTINUOUS
10
3.3937
20
0.879882
11
3.39313
21
0.875945
0
LINE
8
BLACK
6
CONTINUOUS
10
3.39313
20
0.875945
11
3.39114
21
0.87188
0
LINE
8
BLACK
6
CONTINUOUS
10
3.39114
20
0.87188
11
3.38794
21
0.868678
0
LINE
8
BLACK
6
CONTINUOUS
10
3.38794
20
0.868678
11
3.38388
21
0.866684
0
LINE
8
BLACK
6
CONTINUOUS
10
3.38388
20
0.866684
11
3.37992
21
0.866102
0
LINE
8
BLACK
6
CONTINUOUS
10
3.37992
20
0.866102
11
3.3248
21
0.866102
0
LINE
8
BLACK
6
CONTINUOUS
10
3.3248
20
0.866102
11
3.32087
21
0.866677
0
LINE
8
BLACK
6
CONTINUOUS
10
3.32087
20
0.866677
11
3.3168
21
0.868664
0
LINE
8
BLACK
6
CONTINUOUS
10
3.3168
20
0.868664
11
3.3136
21
0.871861
0
LINE
8
BLACK
6
CONTINUOUS
10
3.3136
20
0.871861
11
3.3116
21
0.875922
0
LINE
8
BLACK
6
CONTINUOUS
10
3.3116
20
0.875922
11
3.31102
21
0.879882
0
LINE
8
BLACK
6
CONTINUOUS
10
3.31102
20
0.879882
11
3.31102
21
0.891693
0
LINE
8
BLACK
6
CONTINUOUS
10
3.31102
20
0.891693
11
3.3116
21
0.89563
0
LINE
8
BLACK
6
CONTINUOUS
10
3.3116
20
0.89563
11
3.31359
21
0.899695
0
LINE
8
BLACK
6
CONTINUOUS
10
3.31359
20
0.899695
11
3.31678
21
0.902897
0
LINE
8
BLACK
6
CONTINUOUS
10
3.31678
20
0.902897
11
3.32084
21
0.904891
0
LINE
8
BLACK
6
CONTINUOUS
10
3.32084
20
0.904891
11
3.3248
21
0.905472
0
LINE
8
BLACK
6
CONTINUOUS
10
3.3248
20
0.905472
11
3.37992
21
0.905472
0
LINE
8
BLACK
6
CONTINUOUS
10
3.37992
20
0.905472
11
3.38386
21
0.904898
0
LINE
8
BLACK
6
CONTINUOUS
10
2.51886
20
1.09475
11
2.53059
21
1.09174
0
LINE
8
BLACK
6
CONTINUOUS
10
2.53059
20
1.09174
11
2.54186
21
1.08728
0
LINE
8
BLACK
6
CONTINUOUS
10
2.54186
20
1.08728
11
2.55247
21
1.08144
0
LINE
8
BLACK
6
CONTINUOUS
10
2.55247
20
1.08144
11
2.56227
21
1.07432
0
LINE
8
BLACK
6
CONTINUOUS
10
2.56227
20
1.07432
11
2.5711
21
1.06603
0
LINE
8
BLACK
6
CONTINUOUS
10
2.5711
20
1.06603
11
2.57882
21
1.0567
0
LINE
8
BLACK
6
CONTINUOUS
10
2.57882
20
1.0567
11
2.58531
21
1.04647
0
LINE
8
BLACK
6
CONTINUOUS
10
2.58531
20
1.04647
11
2.59047
21
1.03551
0
LINE
8
BLACK
6
CONTINUOUS
10
2.59047
20
1.03551
11
2.59421
21
1.02399
0
LINE
8
BLACK
6
CONTINUOUS
10
2.59421
20
1.02399
11
2.59648
21
1.01209
0
LINE
8
BLACK
6
CONTINUOUS
10
2.59648
20
1.01209
11
2.59724
21
1
0
LINE
8
BLACK
6
CONTINUOUS
10
2.59724
20
1
11
2.59648
21
0.987911
0
LINE
8
BLACK
6
CONTINUOUS
10
2.59648
20
0.987911
11
2.59421
21
0.976012
0
LINE
8
BLACK
6
CONTINUOUS
10
2.59421
20
0.976012
11
2.59047
21
0.964492
0
LINE
8
BLACK
6
CONTINUOUS
10
2.59047
20
0.964492
11
2.58531
21
0.953532
0
LINE
8
BLACK
6
CONTINUOUS
10
2.58531
20
0.953532
11
2.57882
21
0.943304
0
LINE
8
BLACK
6
CONTINUOUS
10
2.57882
20
0.943304
11
2.5711
21
0.933971
0
LINE
8
BLACK
6
CONTINUOUS
10
2.5711
20
0.933971
11
2.56227
21
0.925679
0
LINE
8
BLACK
6
CONTINUOUS
10
2.56227
20
0.925679
11
2.55247
21
0.918559
0
LINE
8
BLACK
6
CONTINUOUS
10
2.55247
20
0.918559
11
2.54186
21
0.912723
0
LINE
8
BLACK
6
CONTINUOUS
10
2.54186
20
0.912723
11
2.53059
21
0.908264
0
LINE
8
BLACK
6
CONTINUOUS
10
2.53059
20
0.908264
11
2.51886
21
0.905252
0
LINE
8
BLACK
6
CONTINUOUS
10
2.51886
20
0.905252
11
2.50684
21
0.903734
0
LINE
8
BLACK
6
CONTINUOUS
10
2.50684
20
0.903734
11
2.49473
21
0.903734
0
LINE
8
BLACK
6
CONTINUOUS
10
2.49473
20
0.903734
11
2.48271
21
0.905252
0
LINE
8
BLACK
6
CONTINUOUS
10
2.48271
20
0.905252
11
2.47098
21
0.908264
0
LINE
8
BLACK
6
CONTINUOUS
10
2.47098
20
0.908264
11
2.45972
21
0.912723
0
LINE
8
BLACK
6
CONTINUOUS
10
2.45972
20
0.912723
11
2.4491
21
0.918559
0
LINE
8
BLACK
6
CONTINUOUS
10
2.4491
20
0.918559
11
2.4393
21
0.925679
0
LINE
8
BLACK
6
CONTINUOUS
10
2.4393
20
0.925679
11
2.43047
21
0.933971
0
LINE
8
BLACK
6
CONTINUOUS
10
2.43047
20
0.933971
11
2.42275
21
0.943304
0
LINE
8
BLACK
6
CONTINUOUS
10
2.42275
20
0.943304
11
2.41626
21
0.953532
0
LINE
8
BLACK
6
CONTINUOUS
10
2.41626
20
0.953532
11
2.4111
21
0.964492
0
LINE
8
BLACK
6
CONTINUOUS
10
2.4111
20
0.964492
11
2.40736
21
0.976012
0
LINE
8
BLACK
6
CONTINUOUS
10
2.40736
20
0.976012
11
2.40509
21
0.987911
0
LINE
8
BLACK
6
CONTINUOUS
10
2.40509
20
0.987911
11
2.40433
21
1
0
LINE
8
BLACK
6
CONTINUOUS
10
2.40433
20
1
11
2.40509
21
1.01209
0
LINE
8
BLACK
6
CONTINUOUS
10
2.40509
20
1.01209
11
2.40736
21
1.02399
0
LINE
8
BLACK
6
CONTINUOUS
10
2.40736
20
1.02399
11
2.4111
21
1.03551
0
LINE
8
BLACK
6
CONTINUOUS
10
2.4111
20
1.03551
11
2.41626
21
1.04647
0
LINE
8
BLACK
6
CONTINUOUS
10
2.41626
20
1.04647
11
2.42275
21
1.0567
0
LINE
8
BLACK
6
CONTINUOUS
10
2.42275
20
1.0567
11
2.43047
21
1.06603
0
LINE
8
BLACK
6
CONTINUOUS
10
2.43047
20
1.06603
11
2.4393
21
1.07432
0
LINE
8
BLACK
6
CONTINUOUS
10
2.4393
20
1.07432
11
2.4491
21
1.08144
0
LINE
8
BLACK
6
CONTINUOUS
10
2.4491
20
1.08144
11
2.45972
21
1.08728
0
LINE
8
BLACK
6
CONTINUOUS
10
2.45972
20
1.08728
11
2.47098
21
1.09174
0
LINE
8
BLACK
6
CONTINUOUS
10
2.47098
20
1.09174
11
2.48271
21
1.09475
0
LINE
8
BLACK
6
CONTINUOUS
10
2.48271
20
1.09475
11
2.49473
21
1.09627
0
LINE
8
BLACK
6
CONTINUOUS
10
2.49473
20
1.09627
11
2.50684
21
1.09627
0
LINE
8
BLACK
6
CONTINUOUS
10
2.50684
20
1.09627
11
2.51886
21
1.09475
0
LINE
8
BLACK
6
CONTINUOUS
10
1.11729
20
1.09475
11
1.12902
21
1.09174
0
LINE
8
BLACK
6
CONTINUOUS
10
1.12902
20
1.09174
11
1.14028
21
1.08728
0
LINE
8
BLACK
6
CONTINUOUS
10
1.14028
20
1.08728
11
1.1509
21
1.08144
0
LINE
8
BLACK
6
CONTINUOUS
10
1.1509
20
1.08144
11
1.1607
21
1.07432
0
LINE
8
BLACK
6
CONTINUOUS
10
1.1607
20
1.07432
11
1.16953
21
1.06603
0
LINE
8
BLACK
6
CONTINUOUS
10
1.16953
20
1.06603
11
1.17725
21
1.0567
0
LINE
8
BLACK
6
CONTINUOUS
10
1.17725
20
1.0567
11
1.18374
21
1.04647
0
LINE
8
BLACK
6
CONTINUOUS
10
1.18374
20
1.04647
11
1.1889
21
1.03551
0
LINE
8
BLACK
6
CONTINUOUS
10
1.1889
20
1.03551
11
1.19264
21
1.02399
0
LINE
8
BLACK
6
CONTINUOUS
10
1.19264
20
1.02399
11
1.19491
21
1.01209
0
LINE
8
BLACK
6
CONTINUOUS
10
1.19491
20
1.01209
11
1.19567
21
1
0
LINE
8
BLACK
6
CONTINUOUS
10
1.19567
20
1
11
1.19491
21
0.987911
0
LINE
8
BLACK
6
CONTINUOUS
10
1.19491
20
0.987911
11
1.19264
21
0.976012
0
LINE
8
BLACK
6
CONTINUOUS
10
1.19264
20
0.976012
11
1.1889
21
0.964492
0
LINE
8
BLACK
6
CONTINUOUS
10
1.1889
20
0.964492
11
1.18374
21
0.953532
0
LINE
8
BLACK
6
CONTINUOUS
10
1.18374
20
0.953532
11
1.17725
21
0.943304
0
LINE
8
BLACK
6
CONTINUOUS
10
1.17725
20
0.943304
11
1.16953
21
0.933971
0
LINE
8
BLACK
6
CONTINUOUS
10
1.16953
20
0.933971
11
1.1607
21
0.925679
0
LINE
8
BLACK
6
CONTINUOUS
10
1.1607
20
0.925679
11
1.1509
21
0.918559
0
LINE
8
BLACK
6
CONTINUOUS
10
1.1509
20
0.918559
11
1.14028
21
0.912723
0
LINE
8
BLACK
6
CONTINUOUS
10
1.14028
20
0.912723
11
1.12902
21
0.908264
0
LINE
8
BLACK
6
CONTINUOUS
10
1.12902
20
0.908264
11
1.11729
21
0.905252
0
LINE
8
BLACK
6
CONTINUOUS
10
1.11729
20
0.905252
11
1.10527
21
0.903734
0
LINE
8
BLACK
6
CONTINUOUS
10
1.10527
20
0.903734
11
1.09316
21
0.903734
0
LINE
8
BLACK
6
CONTINUOUS
10
1.09316
20
0.903734
11
1.08114
21
0.905252
0
LINE
8
BLACK
6
CONTINUOUS
10
1.08114
20
0.905252
11
1.06941
21
0.908264
0
LINE
8
BLACK
6
CONTINUOUS
10
1.06941
20
0.908264
11
1.05814
21
0.912723
0
LINE
8
BLACK
6
CONTINUOUS
10
1.05814
20
0.912723
11
1.04753
21
0.918559
0
LINE
8
BLACK
6
CONTINUOUS
10
1.04753
20
0.918559
11
1.03773
21
0.925679
0
LINE
8
BLACK
6
CONTINUOUS
10
1.03773
20
0.925679
11
1.0289
21
0.933971
0
LINE
8
BLACK
6
CONTINUOUS
10
1.0289
20
0.933971
11
1.02118
21
0.943304
0
LINE
8
BLACK
6
CONTINUOUS
10
1.02118
20
0.943304
11
1.01469
21
0.953532
0
LINE
8
BLACK
6
CONTINUOUS
10
1.01469
20
0.953532
11
1.00953
21
0.964492
0
LINE
8
BLACK
6
CONTINUOUS
10
1.00953
20
0.964492
11
1.00579
21
0.976012
0
LINE
8
BLACK
6
CONTINUOUS
10
1.00579
20
0.976012
11
1.00352
21
0.987911
0
LINE
8
BLACK
6
CONTINUOUS
10
1.00352
20
0.987911
11
1.00276
21
1
0
LINE
8
BLACK
6
CONTINUOUS
10
1.00276
20
1
11
1.00352
21
1.01209
0
LINE
8
BLACK
6
CONTINUOUS
10
1.00352
20
1.01209
11
1.00579
21
1.02399
0
LINE
8
BLACK
6
CONTINUOUS
10
1.00579
20
1.02399
11
1.00953
21
1.03551
0
LINE
8
BLACK
6
CONTINUOUS
10
1.00953
20
1.03551
11
1.01469
21
1.04647
0
LINE
8
BLACK
6
CONTINUOUS
10
1.01469
20
1.04647
11
1.02118
21
1.0567
0
LINE
8
BLACK
6
CONTINUOUS
10
1.02118
20
1.0567
11
1.0289
21
1.06603
0
LINE
8
BLACK
6
CONTINUOUS
10
1.0289
20
1.06603
11
1.03773
21
1.07432
0
LINE
8
BLACK
6
CONTINUOUS
10
1.03773
20
1.07432
11
1.04753
21
1.08144
0
LINE
8
BLACK
6
CONTINUOUS
10
1.04753
20
1.08144
11
1.05814
21
1.08728
0
LINE
8
BLACK
6
CONTINUOUS
10
1.05814
20
1.08728
11
1.06941
21
1.09174
0
LINE
8
BLACK
6
CONTINUOUS
10
1.06941
20
1.09174
11
1.08114
21
1.09475
0
LINE
8
BLACK
6
CONTINUOUS
10
1.08114
20
1.09475
11
1.09316
21
1.09627
0
LINE
8
BLACK
6
CONTINUOUS
10
1.09316
20
1.09627
11
1.10527
21
1.09627
0
LINE
8
BLACK
6
CONTINUOUS
10
1.10527
20
1.09627
11
1.11729
21
1.09475
0
LINE
8
BLACK
6
CONTINUOUS
10
3.38386
20
0.954111
11
3.38792
21
0.952124
0
LINE
8
BLACK
6
CONTINUOUS
10
3.38792
20
0.952124
11
3.39113
21
0.948927
0
LINE
8
BLACK
6
CONTINUOUS
10
3.39113
20
0.948927
11
3.39312
21
0.944865
0
LINE
8
BLACK
6
CONTINUOUS
10
3.39312
20
0.944865
11
3.3937
21
0.940906
0
LINE
8
BLACK
6
CONTINUOUS
10
3.3937
20
0.940906
11
3.3937
21
0.929094
0
LINE
8
BLACK
6
CONTINUOUS
10
3.3937
20
0.929094
11
3.39313
21
0.925158
0
LINE
8
BLACK
6
CONTINUOUS
10
3.39313
20
0.925158
11
3.39114
21
0.921093
0
LINE
8
BLACK
6
CONTINUOUS
10
3.39114
20
0.921093
11
3.38794
21
0.91789
0
LINE
8
BLACK
6
CONTINUOUS
10
3.38794
20
0.91789
11
3.38388
21
0.915896
0
LINE
8
BLACK
6
CONTINUOUS
10
3.38388
20
0.915896
11
3.37992
21
0.915315
0
LINE
8
BLACK
6
CONTINUOUS
10
3.37992
20
0.915315
11
3.3248
21
0.915315
0
LINE
8
BLACK
6
CONTINUOUS
10
3.3248
20
0.915315
11
3.32087
21
0.915889
0
LINE
8
BLACK
6
CONTINUOUS
10
3.32087
20
0.915889
11
3.3168
21
0.917876
0
LINE
8
BLACK
6
CONTINUOUS
10
3.3168
20
0.917876
11
3.3136
21
0.921073
0
LINE
8
BLACK
6
CONTINUOUS
10
3.3136
20
0.921073
11
3.3116
21
0.925135
0
LINE
8
BLACK
6
CONTINUOUS
10
3.3116
20
0.925135
11
3.31102
21
0.929094
0
LINE
8
BLACK
6
CONTINUOUS
10
3.31102
20
0.929094
11
3.31102
21
0.940906
0
LINE
8
BLACK
6
CONTINUOUS
10
3.31102
20
0.940906
11
3.3116
21
0.944842
0
LINE
8
BLACK
6
CONTINUOUS
10
3.3116
20
0.944842
11
3.31359
21
0.948907
0
LINE
8
BLACK
6
CONTINUOUS
10
3.31359
20
0.948907
11
3.31678
21
0.95211
0
LINE
8
BLACK
6
CONTINUOUS
10
3.31678
20
0.95211
11
3.32084
21
0.954104
0
LINE
8
BLACK
6
CONTINUOUS
10
3.32084
20
0.954104
11
3.3248
21
0.954685
0
LINE
8
BLACK
6
CONTINUOUS
10
3.3248
20
0.954685
11
3.37992
21
0.954685
0
LINE
8
BLACK
6
CONTINUOUS
10
3.37992
20
0.954685
11
3.38386
21
0.954111
0
LINE
8
BLACK
6
CONTINUOUS
10
3.13411
20
1.05683
11
3.14332
21
1.05519
0
LINE
8
BLACK
6
CONTINUOUS
10
3.14332
20
1.05519
11
3.15214
21
1.05207
0
LINE
8
BLACK
6
CONTINUOUS
10
3.15214
20
1.05207
11
3.16033
21
1.04755
0
LINE
8
BLACK
6
CONTINUOUS
10
3.16033
20
1.04755
11
3.16767
21
1.04175
0
LINE
8
BLACK
6
CONTINUOUS
10
3.16767
20
1.04175
11
3.17397
21
1.03483
0
LINE
8
BLACK
6
CONTINUOUS
10
3.17397
20
1.03483
11
3.17905
21
1.02698
0
LINE
8
BLACK
6
CONTINUOUS
10
3.17905
20
1.02698
11
3.18278
21
1.0184
0
LINE
8
BLACK
6
CONTINUOUS
10
3.18278
20
1.0184
11
3.18506
21
1.00932
0
LINE
8
BLACK
6
CONTINUOUS
10
3.18506
20
1.00932
11
3.18583
21
1
0
LINE
8
BLACK
6
CONTINUOUS
10
3.18583
20
1
11
3.18576
21
0.997211
0
LINE
8
BLACK
6
CONTINUOUS
10
3.18576
20
0.997211
11
3.18454
21
0.987936
0
LINE
8
BLACK
6
CONTINUOUS
10
3.18454
20
0.987936
11
3.18182
21
0.978985
0
LINE
8
BLACK
6
CONTINUOUS
10
3.18182
20
0.978985
11
3.17767
21
0.970598
0
LINE
8
BLACK
6
CONTINUOUS
10
3.17767
20
0.970598
11
3.17221
21
0.963001
0
LINE
8
BLACK
6
CONTINUOUS
10
3.17221
20
0.963001
11
3.16559
21
0.956397
0
LINE
8
BLACK
6
CONTINUOUS
10
3.16559
20
0.956397
11
3.15797
21
0.950965
0
LINE
8
BLACK
6
CONTINUOUS
10
3.15797
20
0.950965
11
3.14957
21
0.946849
0
LINE
8
BLACK
6
CONTINUOUS
10
3.14957
20
0.946849
11
3.14061
21
0.944161
0
LINE
8
BLACK
6
CONTINUOUS
10
3.14061
20
0.944161
11
3.13133
21
0.942972
0
LINE
8
BLACK
6
CONTINUOUS
10
3.13133
20
0.942972
11
3.12198
21
0.943315
0
LINE
8
BLACK
6
CONTINUOUS
10
3.12198
20
0.943315
11
3.11281
21
0.94518
0
LINE
8
BLACK
6
CONTINUOUS
10
3.11281
20
0.94518
11
3.10407
21
0.948517
0
LINE
8
BLACK
6
CONTINUOUS
10
3.10407
20
0.948517
11
3.096
21
0.953237
0
LINE
8
BLACK
6
CONTINUOUS
10
3.096
20
0.953237
11
3.0888
21
0.959213
0
LINE
8
BLACK
6
CONTINUOUS
10
3.0888
20
0.959213
11
3.08267
21
0.966284
0
LINE
8
BLACK
6
CONTINUOUS
10
3.08267
20
0.966284
11
3.07779
21
0.974261
0
LINE
8
BLACK
6
CONTINUOUS
10
3.07779
20
0.974261
11
3.07427
21
0.982929
0
LINE
8
BLACK
6
CONTINUOUS
10
3.07427
20
0.982929
11
3.07221
21
0.992055
0
LINE
8
BLACK
6
CONTINUOUS
10
3.07221
20
0.992055
11
3.07167
21
1.00139
0
LINE
8
BLACK
6
CONTINUOUS
10
3.07167
20
1.00139
11
3.07266
21
1.0107
0
LINE
8
BLACK
6
CONTINUOUS
10
3.07266
20
1.0107
11
3.07516
21
1.01971
0
LINE
8
BLACK
6
CONTINUOUS
10
3.07516
20
1.01971
11
3.0791
21
1.0282
0
LINE
8
BLACK
6
CONTINUOUS
10
3.0791
20
1.0282
11
3.08438
21
1.03593
0
LINE
8
BLACK
6
CONTINUOUS
10
3.08438
20
1.03593
11
3.09084
21
1.04269
0
LINE
8
BLACK
6
CONTINUOUS
10
3.09084
20
1.04269
11
3.09832
21
1.04831
0
LINE
8
BLACK
6
CONTINUOUS
10
3.09832
20
1.04831
11
3.10662
21
1.05263
0
LINE
8
BLACK
6
CONTINUOUS
10
3.10662
20
1.05263
11
3.11551
21
1.05553
0
LINE
8
BLACK
6
CONTINUOUS
10
3.11551
20
1.05553
11
3.12476
21
1.05695
0
LINE
8
BLACK
6
CONTINUOUS
10
3.12476
20
1.05695
11
3.13411
21
1.05683
0
LINE
8
BLACK
6
CONTINUOUS
10
0.476632
20
1.05683
11
0.485842
21
1.05519
0
LINE
8
BLACK
6
CONTINUOUS
10
0.485842
20
1.05519
11
0.494661
21
1.05207
0
LINE
8
BLACK
6
CONTINUOUS
10
0.494661
20
1.05207
11
0.502851
21
1.04755
0
LINE
8
BLACK
6
CONTINUOUS
10
0.502851
20
1.04755
11
0.510193
21
1.04175
0
LINE
8
BLACK
6
CONTINUOUS
10
0.510193
20
1.04175
11
0.516489
21
1.03483
0
LINE
8
BLACK
6
CONTINUOUS
10
0.516489
20
1.03483
11
0.52157
21
1.02698
0
LINE
8
BLACK
6
CONTINUOUS
10
0.52157
20
1.02698
11
0.525301
21
1.0184
0
LINE
8
BLACK
6
CONTINUOUS
10
0.525301
20
1.0184
11
0.52758
21
1.00932
0
LINE
8
BLACK
6
CONTINUOUS
10
0.52758
20
1.00932
11
0.528346
21
1
0
LINE
8
BLACK
6
CONTINUOUS
10
0.528346
20
1
11
0.528278
21
0.997211
0
LINE
8
BLACK
6
CONTINUOUS
10
0.528278
20
0.997211
11
0.527057
21
0.987936
0
LINE
8
BLACK
6
CONTINUOUS
10
0.527057
20
0.987936
11
0.524338
21
0.978985
0
LINE
8
BLACK
6
CONTINUOUS
10
0.524338
20
0.978985
11
0.520193
21
0.970598
0
LINE
8
BLACK
6
CONTINUOUS
10
0.520193
20
0.970598
11
0.514734
21
0.963001
0
LINE
8
BLACK
6
CONTINUOUS
10
0.514734
20
0.963001
11
0.508107
21
0.956397
0
LINE
8
BLACK
6
CONTINUOUS
10
0.508107
20
0.956397
11
0.500491
21
0.950965
0
LINE
8
BLACK
6
CONTINUOUS
10
0.500491
20
0.950965
11
0.492089
21
0.946849
0
LINE
8
BLACK
6
CONTINUOUS
10
0.492089
20
0.946849
11
0.483129
21
0.944161
0
LINE
8
BLACK
6
CONTINUOUS
10
0.483129
20
0.944161
11
0.473849
21
0.942972
0
LINE
8
BLACK
6
CONTINUOUS
10
0.473849
20
0.942972
11
0.464501
21
0.943315
0
LINE
8
BLACK
6
CONTINUOUS
10
0.464501
20
0.943315
11
0.455333
21
0.94518
0
LINE
8
BLACK
6
CONTINUOUS
10
0.455333
20
0.94518
11
0.446594
21
0.948517
0
LINE
8
BLACK
6
CONTINUOUS
10
0.446594
20
0.948517
11
0.438516
21
0.953237
0
LINE
8
BLACK
6
CONTINUOUS
10
0.438516
20
0.953237
11
0.431318
21
0.959213
0
LINE
8
BLACK
6
CONTINUOUS
10
0.431318
20
0.959213
11
0.425193
21
0.966284
0
LINE
8
BLACK
6
CONTINUOUS
10
0.425193
20
0.966284
11
0.420305
21
0.974261
0
LINE
8
BLACK
6
CONTINUOUS
10
0.420305
20
0.974261
11
0.416786
21
0.982929
0
LINE
8
BLACK
6
CONTINUOUS
10
0.416786
20
0.982929
11
0.414729
21
0.992055
0
LINE
8
BLACK
6
CONTINUOUS
10
0.414729
20
0.992055
11
0.41419
21
1.00139
0
LINE
8
BLACK
6
CONTINUOUS
10
0.41419
20
1.00139
11
0.415184
21
1.0107
0
LINE
8
BLACK
6
CONTINUOUS
10
0.415184
20
1.0107
11
0.417684
21
1.01971
0
LINE
8
BLACK
6
CONTINUOUS
10
0.417684
20
1.01971
11
0.421623
21
1.0282
0
LINE
8
BLACK
6
CONTINUOUS
10
0.421623
20
1.0282
11
0.426895
21
1.03593
0
LINE
8
BLACK
6
CONTINUOUS
10
0.426895
20
1.03593
11
0.433359
21
1.04269
0
LINE
8
BLACK
6
CONTINUOUS
10
0.433359
20
1.04269
11
0.44084
21
1.04831
0
LINE
8
BLACK
6
CONTINUOUS
10
0.44084
20
1.04831
11
0.449138
21
1.05263
0
LINE
8
BLACK
6
CONTINUOUS
10
0.449138
20
1.05263
11
0.45803
21
1.05553
0
LINE
8
BLACK
6
CONTINUOUS
10
0.45803
20
1.05553
11
0.467278
21
1.05695
0
LINE
8
BLACK
6
CONTINUOUS
10
0.467278
20
1.05695
11
0.476632
21
1.05683
0
LINE
8
BLACK
6
CONTINUOUS
10
3.38386
20
1.00332
11
3.38792
21
1.00134
0
LINE
8
BLACK
6
CONTINUOUS
10
3.38792
20
1.00134
11
3.39113
21
0.998139
0
LINE
8
BLACK
6
CONTINUOUS
10
3.39113
20
0.998139
11
3.39312
21
0.994078
0
LINE
8
BLACK
6
CONTINUOUS
10
3.39312
20
0.994078
11
3.3937
21
0.990118
0
LINE
8
BLACK
6
CONTINUOUS
10
3.3937
20
0.990118
11
3.3937
21
0.978307
0
LINE
8
BLACK
6
CONTINUOUS
10
3.3937
20
0.978307
11
3.39313
21
0.97437
0
LINE
8
BLACK
6
CONTINUOUS
10
3.39313
20
0.97437
11
3.39114
21
0.970305
0
LINE
8
BLACK
6
CONTINUOUS
10
3.39114
20
0.970305
11
3.38794
21
0.967103
0
LINE
8
BLACK
6
CONTINUOUS
10
3.38794
20
0.967103
11
3.38388
21
0.965109
0
LINE
8
BLACK
6
CONTINUOUS
10
3.38388
20
0.965109
11
3.37992
21
0.964528
0
LINE
8
BLACK
6
CONTINUOUS
10
3.37992
20
0.964528
11
3.3248
21
0.964528
0
LINE
8
BLACK
6
CONTINUOUS
10
3.3248
20
0.964528
11
3.32087
21
0.965102
0
LINE
8
BLACK
6
CONTINUOUS
10
3.32087
20
0.965102
11
3.3168
21
0.967089
0
LINE
8
BLACK
6
CONTINUOUS
10
3.3168
20
0.967089
11
3.3136
21
0.970286
0
LINE
8
BLACK
6
CONTINUOUS
10
3.3136
20
0.970286
11
3.3116
21
0.974347
0
LINE
8
BLACK
6
CONTINUOUS
10
3.3116
20
0.974347
11
3.31102
21
0.978307
0
LINE
8
BLACK
6
CONTINUOUS
10
3.31102
20
0.978307
11
3.31102
21
0.990118
0
LINE
8
BLACK
6
CONTINUOUS
10
3.31102
20
0.990118
11
3.3116
21
0.994055
0
LINE
8
BLACK
6
CONTINUOUS
10
3.3116
20
0.994055
11
3.31359
21
0.99812
0
LINE
8
BLACK
6
CONTINUOUS
10
3.31359
20
0.99812
11
3.31678
21
1.00132
0
LINE
8
BLACK
6
CONTINUOUS
10
3.31678
20
1.00132
11
3.32084
21
1.00332
0
LINE
8
BLACK
6
CONTINUOUS
10
3.32084
20
1.00332
11
3.3248
21
1.0039
0
LINE
8
BLACK
6
CONTINUOUS
10
3.3248
20
1.0039
11
3.37992
21
1.0039
0
LINE
8
BLACK
6
CONTINUOUS
10
3.37992
20
1.0039
11
3.38386
21
1.00332
0
LINE
8
BLACK
6
CONTINUOUS
10
3.52497
20
1.08429
11
3.52994
21
1.08255
0
LINE
8
BLACK
6
CONTINUOUS
10
3.52994
20
1.08255
11
3.53418
21
1.07942
0
LINE
8
BLACK
6
CONTINUOUS
10
3.53418
20
1.07942
11
3.53731
21
1.07518
0
LINE
8
BLACK
6
CONTINUOUS
10
3.53731
20
1.07518
11
3.53906
21
1.07021
0
LINE
8
BLACK
6
CONTINUOUS
10
3.53906
20
1.07021
11
3.53937
21
1.06689
0
LINE
8
BLACK
6
CONTINUOUS
10
3.53937
20
1.06689
11
3.53937
21
1.0472
0
LINE
8
BLACK
6
CONTINUOUS
10
3.53937
20
1.0472
11
3.53906
21
1.04388
0
LINE
8
BLACK
6
CONTINUOUS
10
3.53906
20
1.04388
11
3.53731
21
1.03891
0
LINE
8
BLACK
6
CONTINUOUS
10
3.53731
20
1.03891
11
3.53418
21
1.03468
0
LINE
8
BLACK
6
CONTINUOUS
10
3.53418
20
1.03468
11
3.52994
21
1.03155
0
LINE
8
BLACK
6
CONTINUOUS
10
3.52994
20
1.03155
11
3.52497
21
1.0298
0
LINE
8
BLACK
6
CONTINUOUS
10
3.52497
20
1.0298
11
3.52165
21
1.02949
0
LINE
8
BLACK
6
CONTINUOUS
10
3.52165
20
1.02949
11
3.43504
21
1.02949
0
LINE
8
BLACK
6
CONTINUOUS
10
3.43504
20
1.02949
11
3.43172
21
1.0298
0
LINE
8
BLACK
6
CONTINUOUS
10
3.43172
20
1.0298
11
3.42675
21
1.03155
0
LINE
8
BLACK
6
CONTINUOUS
10
3.42675
20
1.03155
11
3.42251
21
1.03468
0
LINE
8
BLACK
6
CONTINUOUS
10
3.42251
20
1.03468
11
3.41938
21
1.03891
0
LINE
8
BLACK
6
CONTINUOUS
10
3.41938
20
1.03891
11
3.41764
21
1.04388
0
LINE
8
BLACK
6
CONTINUOUS
10
3.41764
20
1.04388
11
3.41732
21
1.0472
0
LINE
8
BLACK
6
CONTINUOUS
10
3.41732
20
1.0472
11
3.41732
21
1.06689
0
LINE
8
BLACK
6
CONTINUOUS
10
3.41732
20
1.06689
11
3.41764
21
1.07021
0
LINE
8
BLACK
6
CONTINUOUS
10
3.41764
20
1.07021
11
3.41938
21
1.07518
0
LINE
8
BLACK
6
CONTINUOUS
10
3.41938
20
1.07518
11
3.42251
21
1.07942
0
LINE
8
BLACK
6
CONTINUOUS
10
3.42251
20
1.07942
11
3.42675
21
1.08255
0
LINE
8
BLACK
6
CONTINUOUS
10
3.42675
20
1.08255
11
3.43172
21
1.08429
0
LINE
8
BLACK
6
CONTINUOUS
10
3.43172
20
1.08429
11
3.43504
21
1.08461
0
LINE
8
BLACK
6
CONTINUOUS
10
3.43504
20
1.08461
11
3.52165
21
1.08461
0
LINE
8
BLACK
6
CONTINUOUS
10
3.52165
20
1.08461
11
3.52497
21
1.08429
0
LINE
8
BLACK
6
CONTINUOUS
10
3.50345
20
1.29275
11
3.506
21
1.29104
0
LINE
8
BLACK
6
CONTINUOUS
10
3.506
20
1.29104
11
3.50771
21
1.28849
0
LINE
8
BLACK
6
CONTINUOUS
10
3.50771
20
1.28849
11
3.50831
21
1.28547
0
LINE
8
BLACK
6
CONTINUOUS
10
3.50831
20
1.28547
11
3.50831
21
1.14768
0
LINE
8
BLACK
6
CONTINUOUS
10
3.50831
20
1.14768
11
3.50771
21
1.14466
0
LINE
8
BLACK
6
CONTINUOUS
10
3.50771
20
1.14466
11
3.506
21
1.14211
0
LINE
8
BLACK
6
CONTINUOUS
10
3.506
20
1.14211
11
3.50345
21
1.1404
0
LINE
8
BLACK
6
CONTINUOUS
10
3.50345
20
1.1404
11
3.50043
21
1.1398
0
LINE
8
BLACK
6
CONTINUOUS
10
3.50043
20
1.1398
11
3.42957
21
1.1398
0
LINE
8
BLACK
6
CONTINUOUS
10
3.42957
20
1.1398
11
3.42655
21
1.1404
0
LINE
8
BLACK
6
CONTINUOUS
10
3.42655
20
1.1404
11
3.424
21
1.14211
0
LINE
8
BLACK
6
CONTINUOUS
10
3.424
20
1.14211
11
3.42229
21
1.14466
0
LINE
8
BLACK
6
CONTINUOUS
10
3.42229
20
1.14466
11
3.42169
21
1.14768
0
LINE
8
BLACK
6
CONTINUOUS
10
3.42169
20
1.14768
11
3.42169
21
1.28547
0
LINE
8
BLACK
6
CONTINUOUS
10
3.42169
20
1.28547
11
3.42229
21
1.28849
0
LINE
8
BLACK
6
CONTINUOUS
10
3.42229
20
1.28849
11
3.424
21
1.29104
0
LINE
8
BLACK
6
CONTINUOUS
10
3.424
20
1.29104
11
3.42655
21
1.29275
0
LINE
8
BLACK
6
CONTINUOUS
10
3.42655
20
1.29275
11
3.42957
21
1.29335
0
LINE
8
BLACK
6
CONTINUOUS
10
3.42957
20
1.29335
11
3.50043
21
1.29335
0
LINE
8
BLACK
6
CONTINUOUS
10
3.50043
20
1.29335
11
3.50345
21
1.29275
0
LINE
8
BLACK
6
CONTINUOUS
10
3.31604
20
1.29984
11
3.32101
21
1.2981
0
LINE
8
BLACK
6
CONTINUOUS
10
3.32101
20
1.2981
11
3.32524
21
1.29497
0
LINE
8
BLACK
6
CONTINUOUS
10
3.32524
20
1.29497
11
3.32837
21
1.29073
0
LINE
8
BLACK
6
CONTINUOUS
10
3.32837
20
1.29073
11
3.33012
21
1.28576
0
LINE
8
BLACK
6
CONTINUOUS
10
3.33012
20
1.28576
11
3.33043
21
1.28244
0
LINE
8
BLACK
6
CONTINUOUS
10
3.33043
20
1.28244
11
3.33043
21
1.25685
0
LINE
8
BLACK
6
CONTINUOUS
10
3.33043
20
1.25685
11
3.33012
21
1.25353
0
LINE
8
BLACK
6
CONTINUOUS
10
3.33012
20
1.25353
11
3.32837
21
1.24856
0
LINE
8
BLACK
6
CONTINUOUS
10
3.32837
20
1.24856
11
3.32524
21
1.24432
0
LINE
8
BLACK
6
CONTINUOUS
10
3.32524
20
1.24432
11
3.32101
21
1.24119
0
LINE
8
BLACK
6
CONTINUOUS
10
3.32101
20
1.24119
11
3.31604
21
1.23945
0
LINE
8
BLACK
6
CONTINUOUS
10
3.31604
20
1.23945
11
3.31272
21
1.23913
0
LINE
8
BLACK
6
CONTINUOUS
10
3.31272
20
1.23913
11
3.27728
21
1.23913
0
LINE
8
BLACK
6
CONTINUOUS
10
3.27728
20
1.23913
11
3.27396
21
1.23945
0
LINE
8
BLACK
6
CONTINUOUS
10
3.27396
20
1.23945
11
3.26899
21
1.24119
0
LINE
8
BLACK
6
CONTINUOUS
10
3.26899
20
1.24119
11
3.26476
21
1.24432
0
LINE
8
BLACK
6
CONTINUOUS
10
3.26476
20
1.24432
11
3.26163
21
1.24856
0
LINE
8
BLACK
6
CONTINUOUS
10
3.26163
20
1.24856
11
3.25988
21
1.25353
0
LINE
8
BLACK
6
CONTINUOUS
10
3.25988
20
1.25353
11
3.25957
21
1.25685
0
LINE
8
BLACK
6
CONTINUOUS
10
3.25957
20
1.25685
11
3.25957
21
1.28244
0
LINE
8
BLACK
6
CONTINUOUS
10
3.25957
20
1.28244
11
3.25988
21
1.28576
0
LINE
8
BLACK
6
CONTINUOUS
10
3.25988
20
1.28576
11
3.26163
21
1.29073
0
LINE
8
BLACK
6
CONTINUOUS
10
3.26163
20
1.29073
11
3.26476
21
1.29497
0
LINE
8
BLACK
6
CONTINUOUS
10
3.26476
20
1.29497
11
3.26899
21
1.2981
0
LINE
8
BLACK
6
CONTINUOUS
10
3.26899
20
1.2981
11
3.27396
21
1.29984
0
LINE
8
BLACK
6
CONTINUOUS
10
3.27396
20
1.29984
11
3.27728
21
1.30016
0
LINE
8
BLACK
6
CONTINUOUS
10
3.27728
20
1.30016
11
3.31272
21
1.30016
0
LINE
8
BLACK
6
CONTINUOUS
10
3.31272
20
1.30016
11
3.31604
21
1.29984
0
LINE
8
BLACK
6
CONTINUOUS
10
3.31604
20
1.38055
11
3.32101
21
1.37881
0
LINE
8
BLACK
6
CONTINUOUS
10
3.32101
20
1.37881
11
3.32524
21
1.37568
0
LINE
8
BLACK
6
CONTINUOUS
10
3.32524
20
1.37568
11
3.32837
21
1.37144
0
LINE
8
BLACK
6
CONTINUOUS
10
3.32837
20
1.37144
11
3.33012
21
1.36647
0
LINE
8
BLACK
6
CONTINUOUS
10
3.33012
20
1.36647
11
3.33043
21
1.36315
0
LINE
8
BLACK
6
CONTINUOUS
10
3.33043
20
1.36315
11
3.33043
21
1.33756
0
LINE
8
BLACK
6
CONTINUOUS
10
3.33043
20
1.33756
11
3.33012
21
1.33424
0
LINE
8
BLACK
6
CONTINUOUS
10
3.33012
20
1.33424
11
3.32837
21
1.32927
0
LINE
8
BLACK
6
CONTINUOUS
10
3.32837
20
1.32927
11
3.32524
21
1.32503
0
LINE
8
BLACK
6
CONTINUOUS
10
3.32524
20
1.32503
11
3.32101
21
1.3219
0
LINE
8
BLACK
6
CONTINUOUS
10
3.32101
20
1.3219
11
3.31604
21
1.32016
0
LINE
8
BLACK
6
CONTINUOUS
10
3.31604
20
1.32016
11
3.31272
21
1.31984
0
LINE
8
BLACK
6
CONTINUOUS
10
3.31272
20
1.31984
11
3.27728
21
1.31984
0
LINE
8
BLACK
6
CONTINUOUS
10
3.27728
20
1.31984
11
3.27396
21
1.32016
0
LINE
8
BLACK
6
CONTINUOUS
10
3.27396
20
1.32016
11
3.26899
21
1.3219
0
LINE
8
BLACK
6
CONTINUOUS
10
3.26899
20
1.3219
11
3.26476
21
1.32503
0
LINE
8
BLACK
6
CONTINUOUS
10
3.26476
20
1.32503
11
3.26163
21
1.32927
0
LINE
8
BLACK
6
CONTINUOUS
10
3.26163
20
1.32927
11
3.25988
21
1.33424
0
LINE
8
BLACK
6
CONTINUOUS
10
3.25988
20
1.33424
11
3.25957
21
1.33756
0
LINE
8
BLACK
6
CONTINUOUS
10
3.25957
20
1.33756
11
3.25957
21
1.36315
0
LINE
8
BLACK
6
CONTINUOUS
10
3.25957
20
1.36315
11
3.25988
21
1.36647
0
LINE
8
BLACK
6
CONTINUOUS
10
3.25988
20
1.36647
11
3.26163
21
1.37144
0
LINE
8
BLACK
6
CONTINUOUS
10
3.26163
20
1.37144
11
3.26476
21
1.37568
0
LINE
8
BLACK
6
CONTINUOUS
10
3.26476
20
1.37568
11
3.26899
21
1.37881
0
LINE
8
BLACK
6
CONTINUOUS
10
3.26899
20
1.37881
11
3.27396
21
1.38055
0
LINE
8
BLACK
6
CONTINUOUS
10
3.27396
20
1.38055
11
3.27728
21
1.38087
0
LINE
8
BLACK
6
CONTINUOUS
10
3.27728
20
1.38087
11
3.31272
21
1.38087
0
LINE
8
BLACK
6
CONTINUOUS
10
3.31272
20
1.38087
11
3.31604
21
1.38055
0
LINE
8
BLACK
6
CONTINUOUS
10
3.50345
20
1.4896
11
3.506
21
1.48789
0
LINE
8
BLACK
6
CONTINUOUS
10
3.506
20
1.48789
11
3.50771
21
1.48534
0
LINE
8
BLACK
6
CONTINUOUS
10
3.50771
20
1.48534
11
3.50831
21
1.48232
0
LINE
8
BLACK
6
CONTINUOUS
10
3.50831
20
1.48232
11
3.50831
21
1.34453
0
LINE
8
BLACK
6
CONTINUOUS
10
3.50831
20
1.34453
11
3.50771
21
1.34151
0
LINE
8
BLACK
6
CONTINUOUS
10
3.50771
20
1.34151
11
3.506
21
1.33896
0
LINE
8
BLACK
6
CONTINUOUS
10
3.506
20
1.33896
11
3.50345
21
1.33725
0
LINE
8
BLACK
6
CONTINUOUS
10
3.50345
20
1.33725
11
3.50043
21
1.33665
0
LINE
8
BLACK
6
CONTINUOUS
10
3.50043
20
1.33665
11
3.42957
21
1.33665
0
LINE
8
BLACK
6
CONTINUOUS
10
3.42957
20
1.33665
11
3.42655
21
1.33725
0
LINE
8
BLACK
6
CONTINUOUS
10
3.42655
20
1.33725
11
3.424
21
1.33896
0
LINE
8
BLACK
6
CONTINUOUS
10
3.424
20
1.33896
11
3.42229
21
1.34151
0
LINE
8
BLACK
6
CONTINUOUS
10
3.42229
20
1.34151
11
3.42169
21
1.34453
0
LINE
8
BLACK
6
CONTINUOUS
10
3.42169
20
1.34453
11
3.42169
21
1.48232
0
LINE
8
BLACK
6
CONTINUOUS
10
3.42169
20
1.48232
11
3.42229
21
1.48534
0
LINE
8
BLACK
6
CONTINUOUS
10
3.42229
20
1.48534
11
3.424
21
1.48789
0
LINE
8
BLACK
6
CONTINUOUS
10
3.424
20
1.48789
11
3.42655
21
1.4896
0
LINE
8
BLACK
6
CONTINUOUS
10
3.42655
20
1.4896
11
3.42957
21
1.4902
0
LINE
8
BLACK
6
CONTINUOUS
10
3.42957
20
1.4902
11
3.50043
21
1.4902
0
LINE
8
BLACK
6
CONTINUOUS
10
3.50043
20
1.4902
11
3.50345
21
1.4896
0
LINE
8
BLACK
6
CONTINUOUS
10
3.41492
20
1.9251
11
3.42877
21
1.92266
0
LINE
8
BLACK
6
CONTINUOUS
10
3.42877
20
1.92266
11
3.44226
21
1.91868
0
LINE
8
BLACK
6
CONTINUOUS
10
3.44226
20
1.91868
11
3.45523
21
1.91323
0
LINE
8
BLACK
6
CONTINUOUS
10
3.45523
20
1.91323
11
3.46751
21
1.90637
0
LINE
8
BLACK
6
CONTINUOUS
10
3.46751
20
1.90637
11
3.47894
21
1.89818
0
LINE
8
BLACK
6
CONTINUOUS
10
3.47894
20
1.89818
11
3.48939
21
1.88877
0
LINE
8
BLACK
6
CONTINUOUS
10
3.48939
20
1.88877
11
3.49873
21
1.87825
0
LINE
8
BLACK
6
CONTINUOUS
10
3.49873
20
1.87825
11
3.50684
21
1.86676
0
LINE
8
BLACK
6
CONTINUOUS
10
3.50684
20
1.86676
11
3.51362
21
1.85444
0
LINE
8
BLACK
6
CONTINUOUS
10
3.51362
20
1.85444
11
3.51898
21
1.84143
0
LINE
8
BLACK
6
CONTINUOUS
10
3.51898
20
1.84143
11
3.52285
21
1.82791
0
LINE
8
BLACK
6
CONTINUOUS
10
3.52285
20
1.82791
11
3.5252
21
1.81404
0
LINE
8
BLACK
6
CONTINUOUS
10
3.5252
20
1.81404
11
3.52598
21
1.8
0
LINE
8
BLACK
6
CONTINUOUS
10
3.52598
20
1.8
11
3.52594
21
1.79648
0
LINE
8
BLACK
6
CONTINUOUS
10
3.52594
20
1.79648
11
3.52476
21
1.78247
0
LINE
8
BLACK
6
CONTINUOUS
10
3.52476
20
1.78247
11
3.52203
21
1.76867
0
LINE
8
BLACK
6
CONTINUOUS
10
3.52203
20
1.76867
11
3.51777
21
1.75526
0
LINE
8
BLACK
6
CONTINUOUS
10
3.51777
20
1.75526
11
3.51205
21
1.74241
0
LINE
8
BLACK
6
CONTINUOUS
10
3.51205
20
1.74241
11
3.50493
21
1.73028
0
LINE
8
BLACK
6
CONTINUOUS
10
3.50493
20
1.73028
11
3.49651
21
1.71902
0
LINE
8
BLACK
6
CONTINUOUS
10
3.49651
20
1.71902
11
3.48688
21
1.70877
0
LINE
8
BLACK
6
CONTINUOUS
10
3.48688
20
1.70877
11
3.47617
21
1.69965
0
LINE
8
BLACK
6
CONTINUOUS
10
3.47617
20
1.69965
11
3.46451
21
1.69178
0
LINE
8
BLACK
6
CONTINUOUS
10
3.46451
20
1.69178
11
3.45204
21
1.68527
0
LINE
8
BLACK
6
CONTINUOUS
10
3.45204
20
1.68527
11
3.43893
21
1.68018
0
LINE
8
BLACK
6
CONTINUOUS
10
3.43893
20
1.68018
11
3.42533
21
1.67659
0
LINE
8
BLACK
6
CONTINUOUS
10
3.42533
20
1.67659
11
3.41142
21
1.67453
0
LINE
8
BLACK
6
CONTINUOUS
10
3.41142
20
1.67453
11
3.39736
21
1.67404
0
LINE
8
BLACK
6
CONTINUOUS
10
3.39736
20
1.67404
11
3.38334
21
1.67512
0
LINE
8
BLACK
6
CONTINUOUS
10
3.38334
20
1.67512
11
3.36952
21
1.67776
0
LINE
8
BLACK
6
CONTINUOUS
10
3.36952
20
1.67776
11
3.35609
21
1.68192
0
LINE
8
BLACK
6
CONTINUOUS
10
3.35609
20
1.68192
11
3.3432
21
1.68755
0
LINE
8
BLACK
6
CONTINUOUS
10
3.3432
20
1.68755
11
3.33102
21
1.69458
0
LINE
8
BLACK
6
CONTINUOUS
10
3.33102
20
1.69458
11
3.31969
21
1.70293
0
LINE
8
BLACK
6
CONTINUOUS
10
3.31969
20
1.70293
11
3.30937
21
1.71248
0
LINE
8
BLACK
6
CONTINUOUS
10
3.30937
20
1.71248
11
3.30018
21
1.72313
0
LINE
8
BLACK
6
CONTINUOUS
10
3.30018
20
1.72313
11
3.29224
21
1.73474
0
LINE
8
BLACK
6
CONTINUOUS
10
3.29224
20
1.73474
11
3.28563
21
1.74716
0
LINE
8
BLACK
6
CONTINUOUS
10
3.28563
20
1.74716
11
3.28046
21
1.76023
0
LINE
8
BLACK
6
CONTINUOUS
10
3.28046
20
1.76023
11
3.27677
21
1.77381
0
LINE
8
BLACK
6
CONTINUOUS
10
3.27677
20
1.77381
11
3.27462
21
1.78771
0
LINE
8
BLACK
6
CONTINUOUS
10
3.27462
20
1.78771
11
3.27403
21
1.80176
0
LINE
8
BLACK
6
CONTINUOUS
10
3.27403
20
1.80176
11
3.27501
21
1.81579
0
LINE
8
BLACK
6
CONTINUOUS
10
3.27501
20
1.81579
11
3.27755
21
1.82962
0
LINE
8
BLACK
6
CONTINUOUS
10
3.27755
20
1.82962
11
3.28161
21
1.84309
0
LINE
8
BLACK
6
CONTINUOUS
10
3.28161
20
1.84309
11
3.28715
21
1.85602
0
LINE
8
BLACK
6
CONTINUOUS
10
3.28715
20
1.85602
11
3.2941
21
1.86825
0
LINE
8
BLACK
6
CONTINUOUS
10
3.2941
20
1.86825
11
3.30237
21
1.87963
0
LINE
8
BLACK
6
CONTINUOUS
10
3.30237
20
1.87963
11
3.31185
21
1.89001
0
LINE
8
BLACK
6
CONTINUOUS
10
3.31185
20
1.89001
11
3.32244
21
1.89928
0
LINE
8
BLACK
6
CONTINUOUS
10
3.32244
20
1.89928
11
3.33399
21
1.9073
0
LINE
8
BLACK
6
CONTINUOUS
10
3.33399
20
1.9073
11
3.34636
21
1.91399
0
LINE
8
BLACK
6
CONTINUOUS
10
3.34636
20
1.91399
11
3.3594
21
1.91926
0
LINE
8
BLACK
6
CONTINUOUS
10
3.3594
20
1.91926
11
3.37295
21
1.92305
0
LINE
8
BLACK
6
CONTINUOUS
10
3.37295
20
1.92305
11
3.38683
21
1.92529
0
LINE
8
BLACK
6
CONTINUOUS
10
3.38683
20
1.92529
11
3.40088
21
1.92598
0
LINE
8
BLACK
6
CONTINUOUS
10
3.40088
20
1.92598
11
3.41492
21
1.9251
0
LINE
8
BLACK
6
CONTINUOUS
10
0.214917
20
1.9251
11
0.228769
21
1.92266
0
LINE
8
BLACK
6
CONTINUOUS
10
0.228769
20
1.92266
11
0.242262
21
1.91868
0
LINE
8
BLACK
6
CONTINUOUS
10
0.242262
20
1.91868
11
0.255228
21
1.91323
0
LINE
8
BLACK
6
CONTINUOUS
10
0.255228
20
1.91323
11
0.267506
21
1.90637
0
LINE
8
BLACK
6
CONTINUOUS
10
0.267506
20
1.90637
11
0.278942
21
1.89818
0
LINE
8
BLACK
6
CONTINUOUS
10
0.278942
20
1.89818
11
0.289395
21
1.88877
0
LINE
8
BLACK
6
CONTINUOUS
10
0.289395
20
1.88877
11
0.298733
21
1.87825
0
LINE
8
BLACK
6
CONTINUOUS
10
0.298733
20
1.87825
11
0.306841
21
1.86676
0
LINE
8
BLACK
6
CONTINUOUS
10
0.306841
20
1.86676
11
0.313617
21
1.85444
0
LINE
8
BLACK
6
CONTINUOUS
10
0.313617
20
1.85444
11
0.318977
21
1.84143
0
LINE
8
BLACK
6
CONTINUOUS
10
0.318977
20
1.84143
11
0.322853
21
1.82791
0
LINE
8
BLACK
6
CONTINUOUS
10
0.322853
20
1.82791
11
0.325199
21
1.81404
0
LINE
8
BLACK
6
CONTINUOUS
10
0.325199
20
1.81404
11
0.325984
21
1.8
0
LINE
8
BLACK
6
CONTINUOUS
10
0.325984
20
1.8
11
0.325935
21
1.79648
0
LINE
8
BLACK
6
CONTINUOUS
10
0.325935
20
1.79648
11
0.324758
21
1.78247
0
LINE
8
BLACK
6
CONTINUOUS
10
0.324758
20
1.78247
11
0.322026
21
1.76867
0
LINE
8
BLACK
6
CONTINUOUS
10
0.322026
20
1.76867
11
0.317773
21
1.75526
0
LINE
8
BLACK
6
CONTINUOUS
10
0.317773
20
1.75526
11
0.312052
21
1.74241
0
LINE
8
BLACK
6
CONTINUOUS
10
0.312052
20
1.74241
11
0.304935
21
1.73028
0
LINE
8
BLACK
6
CONTINUOUS
10
0.304935
20
1.73028
11
0.29651
21
1.71902
0
LINE
8
BLACK
6
CONTINUOUS
10
0.29651
20
1.71902
11
0.286881
21
1.70877
0
LINE
8
BLACK
6
CONTINUOUS
10
0.286881
20
1.70877
11
0.27617
21
1.69965
0
LINE
8
BLACK
6
CONTINUOUS
10
0.27617
20
1.69965
11
0.264509
21
1.69178
0
LINE
8
BLACK
6
CONTINUOUS
10
0.264509
20
1.69178
11
0.252045
21
1.68527
0
LINE
8
BLACK
6
CONTINUOUS
10
0.252045
20
1.68527
11
0.238931
21
1.68018
0
LINE
8
BLACK
6
CONTINUOUS
10
0.238931
20
1.68018
11
0.225333
21
1.67659
0
LINE
8
BLACK
6
CONTINUOUS
10
0.225333
20
1.67659
11
0.211418
21
1.67453
0
LINE
8
BLACK
6
CONTINUOUS
10
0.211418
20
1.67453
11
0.197362
21
1.67404
0
LINE
8
BLACK
6
CONTINUOUS
10
0.197362
20
1.67404
11
0.183338
21
1.67512
0
LINE
8
BLACK
6
CONTINUOUS
10
0.183338
20
1.67512
11
0.169522
21
1.67776
0
LINE
8
BLACK
6
CONTINUOUS
10
0.169522
20
1.67776
11
0.156085
21
1.68192
0
LINE
8
BLACK
6
CONTINUOUS
10
0.156085
20
1.68192
11
0.143197
21
1.68755
0
LINE
8
BLACK
6
CONTINUOUS
10
0.143197
20
1.68755
11
0.131016
21
1.69458
0
LINE
8
BLACK
6
CONTINUOUS
10
0.131016
20
1.69458
11
0.119695
21
1.70293
0
LINE
8
BLACK
6
CONTINUOUS
10
0.119695
20
1.70293
11
0.109375
21
1.71248
0
LINE
8
BLACK
6
CONTINUOUS
10
0.109375
20
1.71248
11
0.100184
21
1.72313
0
LINE
8
BLACK
6
CONTINUOUS
10
0.100184
20
1.72313
11
0.0922376
21
1.73474
0
LINE
8
BLACK
6
CONTINUOUS
10
0.0922376
20
1.73474
11
0.0856343
21
1.74716
0
LINE
8
BLACK
6
CONTINUOUS
10
0.0856343
20
1.74716
11
0.0804566
21
1.76023
0
LINE
8
BLACK
6
CONTINUOUS
10
0.0804566
20
1.76023
11
0.0767688
21
1.77381
0
LINE
8
BLACK
6
CONTINUOUS
10
0.0767688
20
1.77381
11
0.074617
21
1.78771
0
LINE
8
BLACK
6
CONTINUOUS
10
0.074617
20
1.78771
11
0.074028
21
1.80176
0
LINE
8
BLACK
6
CONTINUOUS
10
0.074028
20
1.80176
11
0.0750092
21
1.81579
0
LINE
8
BLACK
6
CONTINUOUS
10
0.0750092
20
1.81579
11
0.0775482
21
1.82962
0
LINE
8
BLACK
6
CONTINUOUS
10
0.0775482
20
1.82962
11
0.0816135
21
1.84309
0
LINE
8
BLACK
6
CONTINUOUS
10
0.0816135
20
1.84309
11
0.0871544
21
1.85602
0
LINE
8
BLACK
6
CONTINUOUS
10
0.0871544
20
1.85602
11
0.0941019
21
1.86825
0
LINE
8
BLACK
6
CONTINUOUS
10
0.0941019
20
1.86825
11
0.102369
21
1.87963
0
LINE
8
BLACK
6
CONTINUOUS
10
0.102369
20
1.87963
11
0.111853
21
1.89001
0
LINE
8
BLACK
6
CONTINUOUS
10
0.111853
20
1.89001
11
0.122436
21
1.89928
0
LINE
8
BLACK
6
CONTINUOUS
10
0.122436
20
1.89928
11
0.133986
21
1.9073
0
LINE
8
BLACK
6
CONTINUOUS
10
0.133986
20
1.9073
11
0.146359
21
1.91399
0
LINE
8
BLACK
6
CONTINUOUS
10
0.146359
20
1.91399
11
0.1594
21
1.91926
0
LINE
8
BLACK
6
CONTINUOUS
10
0.1594
20
1.91926
11
0.172947
21
1.92305
0
LINE
8
BLACK
6
CONTINUOUS
10
0.172947
20
1.92305
11
0.186831
21
1.92529
0
LINE
8
BLACK
6
CONTINUOUS
10
0.186831
20
1.92529
11
0.20088
21
1.92598
0
LINE
8
BLACK
6
CONTINUOUS
10
0.20088
20
1.92598
11
0.214917
21
1.9251
  0
ENDSEC
  0
EOF
