  0
SECTION
  2
HEADER
  9
$ANGBASE
  50
0.0
  9
$ANGDIR
  70
1
  9
$MEASUREMENT
  70
0
  0
ENDSEC
  0
SECTION
  2
TABLES
  0
TABLE
  2
LTYPE
  70
4
  0
LTYPE
  5
40F
  2
CONTINUOUS
  70
0
  3
Solid line
  72
65
  73
0
  40
0.0
  0
LTYPE
  5
410
  2
DASHDOT
 70
0
  3
Dash Dot ____ _ ____ _
 72
65
 73
4
 40
2.0
 49
1.25
 49
-0.25
 49
0.25
 49
-0.25
  0
LTYPE
  5
411
  2
DASHED
 70
0
  3
Dashed __ __ __ __ __
 72
65
 73
2
 40
0.75
 49
0.5
 49
-0.25
  0
LTYPE
  5
43B
  2
DOTTED
 70
0
  3
Dotted .  .  .  .
 72
65
 73
2
 40
0.2
 49
0.0
 49
-0.2
  0
ENDTAB
  0
TABLE
  2
STYLE
  70
4
  0
STYLE
  2
KICAD
  70
0
  40
0
  41
1
  42
1
  50
0
  71
0
  3
isocp.shx
  0
STYLE
  2
KICADB
  70
0
  40
0
  41
1
  42
1
  50
0
  71
0
  3
isocp.shx
  0
STYLE
  2
KICADI
  70
0
  40
0
  41
1
  42
1
  50
15
  71
0
  3
isocp.shx
  0
STYLE
  2
KICADBI
  70
0
  40
0
  41
1
  42
1
  50
15
  71
0
  3
isocp.shx
  0
ENDTAB
  0
TABLE
  2
LAYER
  70
1
  0
LAYER
  2
BLACK
  70
0
  62
7
  6
CONTINUOUS
  0
ENDTAB
  0
ENDSEC
  0
SECTION
  2
ENTITIES
0
LINE
8
BLACK
6
CONTINUOUS
10
0.20865
20
0.317793
11
0.222132
21
0.316018
0
LINE
8
BLACK
6
CONTINUOUS
10
0.222132
20
0.316018
11
0.23532
21
0.312706
0
LINE
8
BLACK
6
CONTINUOUS
10
0.23532
20
0.312706
11
0.24804
21
0.307899
0
LINE
8
BLACK
6
CONTINUOUS
10
0.24804
20
0.307899
11
0.260123
21
0.301662
0
LINE
8
BLACK
6
CONTINUOUS
10
0.260123
20
0.301662
11
0.271409
21
0.294078
0
LINE
8
BLACK
6
CONTINUOUS
10
0.271409
20
0.294078
11
0.281749
21
0.285247
0
LINE
8
BLACK
6
CONTINUOUS
10
0.281749
20
0.285247
11
0.291006
21
0.275286
0
LINE
8
BLACK
6
CONTINUOUS
10
0.291006
20
0.275286
11
0.299056
21
0.264327
0
LINE
8
BLACK
6
CONTINUOUS
10
0.299056
20
0.264327
11
0.305793
21
0.252516
0
LINE
8
BLACK
6
CONTINUOUS
10
0.305793
20
0.252516
11
0.311128
21
0.240008
0
LINE
8
BLACK
6
CONTINUOUS
10
0.311128
20
0.240008
11
0.31499
21
0.226971
0
LINE
8
BLACK
6
CONTINUOUS
10
0.31499
20
0.226971
11
0.317327
21
0.213575
0
LINE
8
BLACK
6
CONTINUOUS
10
0.317327
20
0.213575
11
0.31811
21
0.2
0
LINE
8
BLACK
6
CONTINUOUS
10
0.31811
20
0.2
11
0.317877
21
0.192584
0
LINE
8
BLACK
6
CONTINUOUS
10
0.317877
20
0.192584
11
0.316244
21
0.179084
0
LINE
8
BLACK
6
CONTINUOUS
10
0.316244
20
0.179084
11
0.313069
21
0.165862
0
LINE
8
BLACK
6
CONTINUOUS
10
0.313069
20
0.165862
11
0.308396
21
0.153093
0
LINE
8
BLACK
6
CONTINUOUS
10
0.308396
20
0.153093
11
0.302286
21
0.140945
0
LINE
8
BLACK
6
CONTINUOUS
10
0.302286
20
0.140945
11
0.294821
21
0.12958
0
LINE
8
BLACK
6
CONTINUOUS
10
0.294821
20
0.12958
11
0.286099
21
0.119148
0
LINE
8
BLACK
6
CONTINUOUS
10
0.286099
20
0.119148
11
0.276235
21
0.109788
0
LINE
8
BLACK
6
CONTINUOUS
10
0.276235
20
0.109788
11
0.265361
21
0.101623
0
LINE
8
BLACK
6
CONTINUOUS
10
0.265361
20
0.101623
11
0.253621
21
0.094763
0
LINE
8
BLACK
6
CONTINUOUS
10
0.253621
20
0.094763
11
0.24117
21
0.0892974
0
LINE
8
BLACK
6
CONTINUOUS
10
0.24117
20
0.0892974
11
0.228173
21
0.0852991
0
LINE
8
BLACK
6
CONTINUOUS
10
0.228173
20
0.0852991
11
0.214803
21
0.0828211
0
LINE
8
BLACK
6
CONTINUOUS
10
0.214803
20
0.0828211
11
0.201237
21
0.0818962
0
LINE
8
BLACK
6
CONTINUOUS
10
0.201237
20
0.0818962
11
0.187654
21
0.0825368
0
LINE
8
BLACK
6
CONTINUOUS
10
0.187654
20
0.0825368
11
0.174235
21
0.0847343
0
LINE
8
BLACK
6
CONTINUOUS
10
0.174235
20
0.0847343
11
0.161157
21
0.0884595
0
LINE
8
BLACK
6
CONTINUOUS
10
0.161157
20
0.0884595
11
0.148595
21
0.0936631
0
LINE
8
BLACK
6
CONTINUOUS
10
0.148595
20
0.0936631
11
0.136713
21
0.100276
0
LINE
8
BLACK
6
CONTINUOUS
10
0.136713
20
0.100276
11
0.125671
21
0.108211
0
LINE
8
BLACK
6
CONTINUOUS
10
0.125671
20
0.108211
11
0.115613
21
0.117363
0
LINE
8
BLACK
6
CONTINUOUS
10
0.115613
20
0.117363
11
0.106675
21
0.127609
0
LINE
8
BLACK
6
CONTINUOUS
10
0.106675
20
0.127609
11
0.0989727
21
0.138816
0
LINE
8
BLACK
6
CONTINUOUS
10
0.0989727
20
0.138816
11
0.0926099
21
0.150833
0
LINE
8
BLACK
6
CONTINUOUS
10
0.0926099
20
0.150833
11
0.0876705
21
0.163502
0
LINE
8
BLACK
6
CONTINUOUS
10
0.0876705
20
0.163502
11
0.0842199
21
0.176655
0
LINE
8
BLACK
6
CONTINUOUS
10
0.0842199
20
0.176655
11
0.082304
21
0.190117
0
LINE
8
BLACK
6
CONTINUOUS
10
0.082304
20
0.190117
11
0.081948
21
0.20371
0
LINE
8
BLACK
6
CONTINUOUS
10
0.081948
20
0.20371
11
0.0831568
21
0.217254
0
LINE
8
BLACK
6
CONTINUOUS
10
0.0831568
20
0.217254
11
0.0859143
21
0.230569
0
LINE
8
BLACK
6
CONTINUOUS
10
0.0859143
20
0.230569
11
0.0901839
21
0.243479
0
LINE
8
BLACK
6
CONTINUOUS
10
0.0901839
20
0.243479
11
0.0959091
21
0.255813
0
LINE
8
BLACK
6
CONTINUOUS
10
0.0959091
20
0.255813
11
0.103014
21
0.267407
0
LINE
8
BLACK
6
CONTINUOUS
10
0.103014
20
0.267407
11
0.111404
21
0.278108
0
LINE
8
BLACK
6
CONTINUOUS
10
0.111404
20
0.278108
11
0.120969
21
0.287773
0
LINE
8
BLACK
6
CONTINUOUS
10
0.120969
20
0.287773
11
0.131581
21
0.296275
0
LINE
8
BLACK
6
CONTINUOUS
10
0.131581
20
0.296275
11
0.1431
21
0.303501
0
LINE
8
BLACK
6
CONTINUOUS
10
0.1431
20
0.303501
11
0.155373
21
0.309355
0
LINE
8
BLACK
6
CONTINUOUS
10
0.155373
20
0.309355
11
0.168238
21
0.313759
0
LINE
8
BLACK
6
CONTINUOUS
10
0.168238
20
0.313759
11
0.181524
21
0.316656
0
LINE
8
BLACK
6
CONTINUOUS
10
0.181524
20
0.316656
11
0.195054
21
0.318007
0
LINE
8
BLACK
6
CONTINUOUS
10
0.195054
20
0.318007
11
0.20865
21
0.317793
0
LINE
8
BLACK
6
CONTINUOUS
10
3.40865
20
0.317793
11
3.42213
21
0.316018
0
LINE
8
BLACK
6
CONTINUOUS
10
3.42213
20
0.316018
11
3.43532
21
0.312706
0
LINE
8
BLACK
6
CONTINUOUS
10
3.43532
20
0.312706
11
3.44804
21
0.307899
0
LINE
8
BLACK
6
CONTINUOUS
10
3.44804
20
0.307899
11
3.46012
21
0.301662
0
LINE
8
BLACK
6
CONTINUOUS
10
3.46012
20
0.301662
11
3.47141
21
0.294078
0
LINE
8
BLACK
6
CONTINUOUS
10
3.47141
20
0.294078
11
3.48175
21
0.285247
0
LINE
8
BLACK
6
CONTINUOUS
10
3.48175
20
0.285247
11
3.49101
21
0.275286
0
LINE
8
BLACK
6
CONTINUOUS
10
3.49101
20
0.275286
11
3.49906
21
0.264327
0
LINE
8
BLACK
6
CONTINUOUS
10
3.49906
20
0.264327
11
3.50579
21
0.252516
0
LINE
8
BLACK
6
CONTINUOUS
10
3.50579
20
0.252516
11
3.51113
21
0.240008
0
LINE
8
BLACK
6
CONTINUOUS
10
3.51113
20
0.240008
11
3.51499
21
0.226971
0
LINE
8
BLACK
6
CONTINUOUS
10
3.51499
20
0.226971
11
3.51733
21
0.213575
0
LINE
8
BLACK
6
CONTINUOUS
10
3.51733
20
0.213575
11
3.51811
21
0.2
0
LINE
8
BLACK
6
CONTINUOUS
10
3.51811
20
0.2
11
3.51788
21
0.192584
0
LINE
8
BLACK
6
CONTINUOUS
10
3.51788
20
0.192584
11
3.51624
21
0.179084
0
LINE
8
BLACK
6
CONTINUOUS
10
3.51624
20
0.179084
11
3.51307
21
0.165862
0
LINE
8
BLACK
6
CONTINUOUS
10
3.51307
20
0.165862
11
3.5084
21
0.153093
0
LINE
8
BLACK
6
CONTINUOUS
10
3.5084
20
0.153093
11
3.50229
21
0.140945
0
LINE
8
BLACK
6
CONTINUOUS
10
3.50229
20
0.140945
11
3.49482
21
0.12958
0
LINE
8
BLACK
6
CONTINUOUS
10
3.49482
20
0.12958
11
3.4861
21
0.119148
0
LINE
8
BLACK
6
CONTINUOUS
10
3.4861
20
0.119148
11
3.47624
21
0.109788
0
LINE
8
BLACK
6
CONTINUOUS
10
3.47624
20
0.109788
11
3.46536
21
0.101623
0
LINE
8
BLACK
6
CONTINUOUS
10
3.46536
20
0.101623
11
3.45362
21
0.094763
0
LINE
8
BLACK
6
CONTINUOUS
10
3.45362
20
0.094763
11
3.44117
21
0.0892974
0
LINE
8
BLACK
6
CONTINUOUS
10
3.44117
20
0.0892974
11
3.42817
21
0.0852991
0
LINE
8
BLACK
6
CONTINUOUS
10
3.42817
20
0.0852991
11
3.4148
21
0.0828211
0
LINE
8
BLACK
6
CONTINUOUS
10
3.4148
20
0.0828211
11
3.40124
21
0.0818962
0
LINE
8
BLACK
6
CONTINUOUS
10
3.40124
20
0.0818962
11
3.38765
21
0.0825368
0
LINE
8
BLACK
6
CONTINUOUS
10
3.38765
20
0.0825368
11
3.37424
21
0.0847343
0
LINE
8
BLACK
6
CONTINUOUS
10
3.37424
20
0.0847343
11
3.36116
21
0.0884595
0
LINE
8
BLACK
6
CONTINUOUS
10
3.36116
20
0.0884595
11
3.34859
21
0.0936631
0
LINE
8
BLACK
6
CONTINUOUS
10
3.34859
20
0.0936631
11
3.33671
21
0.100276
0
LINE
8
BLACK
6
CONTINUOUS
10
3.33671
20
0.100276
11
3.32567
21
0.108211
0
LINE
8
BLACK
6
CONTINUOUS
10
3.32567
20
0.108211
11
3.31561
21
0.117363
0
LINE
8
BLACK
6
CONTINUOUS
10
3.31561
20
0.117363
11
3.30667
21
0.127609
0
LINE
8
BLACK
6
CONTINUOUS
10
3.30667
20
0.127609
11
3.29897
21
0.138816
0
LINE
8
BLACK
6
CONTINUOUS
10
3.29897
20
0.138816
11
3.29261
21
0.150833
0
LINE
8
BLACK
6
CONTINUOUS
10
3.29261
20
0.150833
11
3.28767
21
0.163502
0
LINE
8
BLACK
6
CONTINUOUS
10
3.28767
20
0.163502
11
3.28422
21
0.176655
0
LINE
8
BLACK
6
CONTINUOUS
10
3.28422
20
0.176655
11
3.2823
21
0.190117
0
LINE
8
BLACK
6
CONTINUOUS
10
3.2823
20
0.190117
11
3.28195
21
0.20371
0
LINE
8
BLACK
6
CONTINUOUS
10
3.28195
20
0.20371
11
3.28316
21
0.217254
0
LINE
8
BLACK
6
CONTINUOUS
10
3.28316
20
0.217254
11
3.28591
21
0.230569
0
LINE
8
BLACK
6
CONTINUOUS
10
3.28591
20
0.230569
11
3.29018
21
0.243479
0
LINE
8
BLACK
6
CONTINUOUS
10
3.29018
20
0.243479
11
3.29591
21
0.255813
0
LINE
8
BLACK
6
CONTINUOUS
10
3.29591
20
0.255813
11
3.30301
21
0.267407
0
LINE
8
BLACK
6
CONTINUOUS
10
3.30301
20
0.267407
11
3.3114
21
0.278108
0
LINE
8
BLACK
6
CONTINUOUS
10
3.3114
20
0.278108
11
3.32097
21
0.287773
0
LINE
8
BLACK
6
CONTINUOUS
10
3.32097
20
0.287773
11
3.33158
21
0.296275
0
LINE
8
BLACK
6
CONTINUOUS
10
3.33158
20
0.296275
11
3.3431
21
0.303501
0
LINE
8
BLACK
6
CONTINUOUS
10
3.3431
20
0.303501
11
3.35537
21
0.309355
0
LINE
8
BLACK
6
CONTINUOUS
10
3.35537
20
0.309355
11
3.36824
21
0.313759
0
LINE
8
BLACK
6
CONTINUOUS
10
3.36824
20
0.313759
11
3.38152
21
0.316656
0
LINE
8
BLACK
6
CONTINUOUS
10
3.38152
20
0.316656
11
3.39505
21
0.318007
0
LINE
8
BLACK
6
CONTINUOUS
10
3.39505
20
0.318007
11
3.40865
21
0.317793
0
LINE
8
BLACK
6
CONTINUOUS
10
3.52542
20
0.476889
11
3.52861
21
0.474755
0
LINE
8
BLACK
6
CONTINUOUS
10
3.52861
20
0.474755
11
3.53075
21
0.471562
0
LINE
8
BLACK
6
CONTINUOUS
10
3.53075
20
0.471562
11
3.5315
21
0.467795
0
LINE
8
BLACK
6
CONTINUOUS
10
3.5315
20
0.467795
11
3.5315
21
0.44811
0
LINE
8
BLACK
6
CONTINUOUS
10
3.5315
20
0.44811
11
3.53075
21
0.444344
0
LINE
8
BLACK
6
CONTINUOUS
10
3.53075
20
0.444344
11
3.52861
21
0.441151
0
LINE
8
BLACK
6
CONTINUOUS
10
3.52861
20
0.441151
11
3.52542
21
0.439017
0
LINE
8
BLACK
6
CONTINUOUS
10
3.52542
20
0.439017
11
3.52165
21
0.438268
0
LINE
8
BLACK
6
CONTINUOUS
10
3.52165
20
0.438268
11
3.43504
21
0.438268
0
LINE
8
BLACK
6
CONTINUOUS
10
3.43504
20
0.438268
11
3.43127
21
0.439017
0
LINE
8
BLACK
6
CONTINUOUS
10
3.43127
20
0.439017
11
3.42808
21
0.441151
0
LINE
8
BLACK
6
CONTINUOUS
10
3.42808
20
0.441151
11
3.42595
21
0.444344
0
LINE
8
BLACK
6
CONTINUOUS
10
3.42595
20
0.444344
11
3.4252
21
0.44811
0
LINE
8
BLACK
6
CONTINUOUS
10
3.4252
20
0.44811
11
3.4252
21
0.467795
0
LINE
8
BLACK
6
CONTINUOUS
10
3.4252
20
0.467795
11
3.42595
21
0.471562
0
LINE
8
BLACK
6
CONTINUOUS
10
3.42595
20
0.471562
11
3.42808
21
0.474755
0
LINE
8
BLACK
6
CONTINUOUS
10
3.42808
20
0.474755
11
3.43127
21
0.476889
0
LINE
8
BLACK
6
CONTINUOUS
10
3.43127
20
0.476889
11
3.43504
21
0.477638
0
LINE
8
BLACK
6
CONTINUOUS
10
3.43504
20
0.477638
11
3.52165
21
0.477638
0
LINE
8
BLACK
6
CONTINUOUS
10
3.52165
20
0.477638
11
3.52542
21
0.476889
0
LINE
8
BLACK
6
CONTINUOUS
10
3.38218
20
0.542149
11
3.3841
21
0.540869
0
LINE
8
BLACK
6
CONTINUOUS
10
3.3841
20
0.540869
11
3.38538
21
0.538953
0
LINE
8
BLACK
6
CONTINUOUS
10
3.38538
20
0.538953
11
3.38583
21
0.536693
0
LINE
8
BLACK
6
CONTINUOUS
10
3.38583
20
0.536693
11
3.38583
21
0.524882
0
LINE
8
BLACK
6
CONTINUOUS
10
3.38583
20
0.524882
11
3.38538
21
0.522622
0
LINE
8
BLACK
6
CONTINUOUS
10
3.38538
20
0.522622
11
3.3841
21
0.520706
0
LINE
8
BLACK
6
CONTINUOUS
10
3.3841
20
0.520706
11
3.38218
21
0.519426
0
LINE
8
BLACK
6
CONTINUOUS
10
3.38218
20
0.519426
11
3.37992
21
0.518976
0
LINE
8
BLACK
6
CONTINUOUS
10
3.37992
20
0.518976
11
3.3248
21
0.518976
0
LINE
8
BLACK
6
CONTINUOUS
10
3.3248
20
0.518976
11
3.32254
21
0.519426
0
LINE
8
BLACK
6
CONTINUOUS
10
3.32254
20
0.519426
11
3.32063
21
0.520706
0
LINE
8
BLACK
6
CONTINUOUS
10
3.32063
20
0.520706
11
3.31935
21
0.522622
0
LINE
8
BLACK
6
CONTINUOUS
10
3.31935
20
0.522622
11
3.3189
21
0.524882
0
LINE
8
BLACK
6
CONTINUOUS
10
3.3189
20
0.524882
11
3.3189
21
0.536693
0
LINE
8
BLACK
6
CONTINUOUS
10
3.3189
20
0.536693
11
3.31935
21
0.538953
0
LINE
8
BLACK
6
CONTINUOUS
10
3.31935
20
0.538953
11
3.32063
21
0.540869
0
LINE
8
BLACK
6
CONTINUOUS
10
3.32063
20
0.540869
11
3.32254
21
0.542149
0
LINE
8
BLACK
6
CONTINUOUS
10
3.32254
20
0.542149
11
3.3248
21
0.542598
0
LINE
8
BLACK
6
CONTINUOUS
10
3.3248
20
0.542598
11
3.37992
21
0.542598
0
LINE
8
BLACK
6
CONTINUOUS
10
3.37992
20
0.542598
11
3.38218
21
0.542149
0
LINE
8
BLACK
6
CONTINUOUS
10
3.38218
20
0.591361
11
3.3841
21
0.590081
0
LINE
8
BLACK
6
CONTINUOUS
10
3.3841
20
0.590081
11
3.38538
21
0.588165
0
LINE
8
BLACK
6
CONTINUOUS
10
3.38538
20
0.588165
11
3.38583
21
0.585906
0
LINE
8
BLACK
6
CONTINUOUS
10
3.38583
20
0.585906
11
3.38583
21
0.574094
0
LINE
8
BLACK
6
CONTINUOUS
10
3.38583
20
0.574094
11
3.38538
21
0.571835
0
LINE
8
BLACK
6
CONTINUOUS
10
3.38538
20
0.571835
11
3.3841
21
0.569919
0
LINE
8
BLACK
6
CONTINUOUS
10
3.3841
20
0.569919
11
3.38218
21
0.568639
0
LINE
8
BLACK
6
CONTINUOUS
10
3.38218
20
0.568639
11
3.37992
21
0.568189
0
LINE
8
BLACK
6
CONTINUOUS
10
3.37992
20
0.568189
11
3.3248
21
0.568189
0
LINE
8
BLACK
6
CONTINUOUS
10
3.3248
20
0.568189
11
3.32254
21
0.568639
0
LINE
8
BLACK
6
CONTINUOUS
10
3.32254
20
0.568639
11
3.32063
21
0.569919
0
LINE
8
BLACK
6
CONTINUOUS
10
3.32063
20
0.569919
11
3.31935
21
0.571835
0
LINE
8
BLACK
6
CONTINUOUS
10
3.31935
20
0.571835
11
3.3189
21
0.574094
0
LINE
8
BLACK
6
CONTINUOUS
10
3.3189
20
0.574094
11
3.3189
21
0.585906
0
LINE
8
BLACK
6
CONTINUOUS
10
3.3189
20
0.585906
11
3.31935
21
0.588165
0
LINE
8
BLACK
6
CONTINUOUS
10
3.31935
20
0.588165
11
3.32063
21
0.590081
0
LINE
8
BLACK
6
CONTINUOUS
10
3.32063
20
0.590081
11
3.32254
21
0.591361
0
LINE
8
BLACK
6
CONTINUOUS
10
3.32254
20
0.591361
11
3.3248
21
0.591811
0
LINE
8
BLACK
6
CONTINUOUS
10
3.3248
20
0.591811
11
3.37992
21
0.591811
0
LINE
8
BLACK
6
CONTINUOUS
10
3.37992
20
0.591811
11
3.38218
21
0.591361
0
LINE
8
BLACK
6
CONTINUOUS
10
3.38218
20
0.640574
11
3.3841
21
0.639294
0
LINE
8
BLACK
6
CONTINUOUS
10
3.3841
20
0.639294
11
3.38538
21
0.637378
0
LINE
8
BLACK
6
CONTINUOUS
10
3.38538
20
0.637378
11
3.38583
21
0.635118
0
LINE
8
BLACK
6
CONTINUOUS
10
3.38583
20
0.635118
11
3.38583
21
0.623307
0
LINE
8
BLACK
6
CONTINUOUS
10
3.38583
20
0.623307
11
3.38538
21
0.621047
0
LINE
8
BLACK
6
CONTINUOUS
10
3.38538
20
0.621047
11
3.3841
21
0.619131
0
LINE
8
BLACK
6
CONTINUOUS
10
3.3841
20
0.619131
11
3.38218
21
0.617851
0
LINE
8
BLACK
6
CONTINUOUS
10
3.38218
20
0.617851
11
3.37992
21
0.617402
0
LINE
8
BLACK
6
CONTINUOUS
10
3.37992
20
0.617402
11
3.3248
21
0.617402
0
LINE
8
BLACK
6
CONTINUOUS
10
3.3248
20
0.617402
11
3.32254
21
0.617851
0
LINE
8
BLACK
6
CONTINUOUS
10
3.32254
20
0.617851
11
3.32063
21
0.619131
0
LINE
8
BLACK
6
CONTINUOUS
10
3.32063
20
0.619131
11
3.31935
21
0.621047
0
LINE
8
BLACK
6
CONTINUOUS
10
3.31935
20
0.621047
11
3.3189
21
0.623307
0
LINE
8
BLACK
6
CONTINUOUS
10
3.3189
20
0.623307
11
3.3189
21
0.635118
0
LINE
8
BLACK
6
CONTINUOUS
10
3.3189
20
0.635118
11
3.31935
21
0.637378
0
LINE
8
BLACK
6
CONTINUOUS
10
3.31935
20
0.637378
11
3.32063
21
0.639294
0
LINE
8
BLACK
6
CONTINUOUS
10
3.32063
20
0.639294
11
3.32254
21
0.640574
0
LINE
8
BLACK
6
CONTINUOUS
10
3.32254
20
0.640574
11
3.3248
21
0.641024
0
LINE
8
BLACK
6
CONTINUOUS
10
3.3248
20
0.641024
11
3.37992
21
0.641024
0
LINE
8
BLACK
6
CONTINUOUS
10
3.37992
20
0.641024
11
3.38218
21
0.640574
0
LINE
8
BLACK
6
CONTINUOUS
10
3.52542
20
0.720983
11
3.52861
21
0.718849
0
LINE
8
BLACK
6
CONTINUOUS
10
3.52861
20
0.718849
11
3.53075
21
0.715656
0
LINE
8
BLACK
6
CONTINUOUS
10
3.53075
20
0.715656
11
3.5315
21
0.71189
0
LINE
8
BLACK
6
CONTINUOUS
10
3.5315
20
0.71189
11
3.5315
21
0.692205
0
LINE
8
BLACK
6
CONTINUOUS
10
3.5315
20
0.692205
11
3.53075
21
0.688438
0
LINE
8
BLACK
6
CONTINUOUS
10
3.53075
20
0.688438
11
3.52861
21
0.685245
0
LINE
8
BLACK
6
CONTINUOUS
10
3.52861
20
0.685245
11
3.52542
21
0.683111
0
LINE
8
BLACK
6
CONTINUOUS
10
3.52542
20
0.683111
11
3.52165
21
0.682362
0
LINE
8
BLACK
6
CONTINUOUS
10
3.52165
20
0.682362
11
3.43504
21
0.682362
0
LINE
8
BLACK
6
CONTINUOUS
10
3.43504
20
0.682362
11
3.43127
21
0.683111
0
LINE
8
BLACK
6
CONTINUOUS
10
3.43127
20
0.683111
11
3.42808
21
0.685245
0
LINE
8
BLACK
6
CONTINUOUS
10
3.42808
20
0.685245
11
3.42595
21
0.688438
0
LINE
8
BLACK
6
CONTINUOUS
10
3.42595
20
0.688438
11
3.4252
21
0.692205
0
LINE
8
BLACK
6
CONTINUOUS
10
3.4252
20
0.692205
11
3.4252
21
0.71189
0
LINE
8
BLACK
6
CONTINUOUS
10
3.4252
20
0.71189
11
3.42595
21
0.715656
0
LINE
8
BLACK
6
CONTINUOUS
10
3.42595
20
0.715656
11
3.42808
21
0.718849
0
LINE
8
BLACK
6
CONTINUOUS
10
3.42808
20
0.718849
11
3.43127
21
0.720983
0
LINE
8
BLACK
6
CONTINUOUS
10
3.43127
20
0.720983
11
3.43504
21
0.721732
0
LINE
8
BLACK
6
CONTINUOUS
10
3.43504
20
0.721732
11
3.52165
21
0.721732
0
LINE
8
BLACK
6
CONTINUOUS
10
3.52165
20
0.721732
11
3.52542
21
0.720983
0
LINE
8
BLACK
6
CONTINUOUS
10
3.52542
20
0.831889
11
3.52861
21
0.829755
0
LINE
8
BLACK
6
CONTINUOUS
10
3.52861
20
0.829755
11
3.53075
21
0.826562
0
LINE
8
BLACK
6
CONTINUOUS
10
3.53075
20
0.826562
11
3.5315
21
0.822795
0
LINE
8
BLACK
6
CONTINUOUS
10
3.5315
20
0.822795
11
3.5315
21
0.80311
0
LINE
8
BLACK
6
CONTINUOUS
10
3.5315
20
0.80311
11
3.53075
21
0.799344
0
LINE
8
BLACK
6
CONTINUOUS
10
3.53075
20
0.799344
11
3.52861
21
0.796151
0
LINE
8
BLACK
6
CONTINUOUS
10
3.52861
20
0.796151
11
3.52542
21
0.794017
0
LINE
8
BLACK
6
CONTINUOUS
10
3.52542
20
0.794017
11
3.52165
21
0.793268
0
LINE
8
BLACK
6
CONTINUOUS
10
3.52165
20
0.793268
11
3.43504
21
0.793268
0
LINE
8
BLACK
6
CONTINUOUS
10
3.43504
20
0.793268
11
3.43127
21
0.794017
0
LINE
8
BLACK
6
CONTINUOUS
10
3.43127
20
0.794017
11
3.42808
21
0.796151
0
LINE
8
BLACK
6
CONTINUOUS
10
3.42808
20
0.796151
11
3.42595
21
0.799344
0
LINE
8
BLACK
6
CONTINUOUS
10
3.42595
20
0.799344
11
3.4252
21
0.80311
0
LINE
8
BLACK
6
CONTINUOUS
10
3.4252
20
0.80311
11
3.4252
21
0.822795
0
LINE
8
BLACK
6
CONTINUOUS
10
3.4252
20
0.822795
11
3.42595
21
0.826562
0
LINE
8
BLACK
6
CONTINUOUS
10
3.42595
20
0.826562
11
3.42808
21
0.829755
0
LINE
8
BLACK
6
CONTINUOUS
10
3.42808
20
0.829755
11
3.43127
21
0.831889
0
LINE
8
BLACK
6
CONTINUOUS
10
3.43127
20
0.831889
11
3.43504
21
0.832638
0
LINE
8
BLACK
6
CONTINUOUS
10
3.43504
20
0.832638
11
3.52165
21
0.832638
0
LINE
8
BLACK
6
CONTINUOUS
10
3.52165
20
0.832638
11
3.52542
21
0.831889
0
LINE
8
BLACK
6
CONTINUOUS
10
3.38218
20
0.897149
11
3.3841
21
0.895869
0
LINE
8
BLACK
6
CONTINUOUS
10
3.3841
20
0.895869
11
3.38538
21
0.893953
0
LINE
8
BLACK
6
CONTINUOUS
10
3.38538
20
0.893953
11
3.38583
21
0.891693
0
LINE
8
BLACK
6
CONTINUOUS
10
3.38583
20
0.891693
11
3.38583
21
0.879882
0
LINE
8
BLACK
6
CONTINUOUS
10
3.38583
20
0.879882
11
3.38538
21
0.877622
0
LINE
8
BLACK
6
CONTINUOUS
10
3.38538
20
0.877622
11
3.3841
21
0.875706
0
LINE
8
BLACK
6
CONTINUOUS
10
3.3841
20
0.875706
11
3.38218
21
0.874426
0
LINE
8
BLACK
6
CONTINUOUS
10
3.38218
20
0.874426
11
3.37992
21
0.873976
0
LINE
8
BLACK
6
CONTINUOUS
10
3.37992
20
0.873976
11
3.3248
21
0.873976
0
LINE
8
BLACK
6
CONTINUOUS
10
3.3248
20
0.873976
11
3.32254
21
0.874426
0
LINE
8
BLACK
6
CONTINUOUS
10
3.32254
20
0.874426
11
3.32063
21
0.875706
0
LINE
8
BLACK
6
CONTINUOUS
10
3.32063
20
0.875706
11
3.31935
21
0.877622
0
LINE
8
BLACK
6
CONTINUOUS
10
3.31935
20
0.877622
11
3.3189
21
0.879882
0
LINE
8
BLACK
6
CONTINUOUS
10
3.3189
20
0.879882
11
3.3189
21
0.891693
0
LINE
8
BLACK
6
CONTINUOUS
10
3.3189
20
0.891693
11
3.31935
21
0.893953
0
LINE
8
BLACK
6
CONTINUOUS
10
3.31935
20
0.893953
11
3.32063
21
0.895869
0
LINE
8
BLACK
6
CONTINUOUS
10
3.32063
20
0.895869
11
3.32254
21
0.897149
0
LINE
8
BLACK
6
CONTINUOUS
10
3.32254
20
0.897149
11
3.3248
21
0.897598
0
LINE
8
BLACK
6
CONTINUOUS
10
3.3248
20
0.897598
11
3.37992
21
0.897598
0
LINE
8
BLACK
6
CONTINUOUS
10
3.37992
20
0.897598
11
3.38218
21
0.897149
0
LINE
8
BLACK
6
CONTINUOUS
10
1.11077
20
1.08782
11
1.12214
21
1.08556
0
LINE
8
BLACK
6
CONTINUOUS
10
1.12214
20
1.08556
11
1.13311
21
1.08184
0
LINE
8
BLACK
6
CONTINUOUS
10
1.13311
20
1.08184
11
1.1435
21
1.07671
0
LINE
8
BLACK
6
CONTINUOUS
10
1.1435
20
1.07671
11
1.15314
21
1.07028
0
LINE
8
BLACK
6
CONTINUOUS
10
1.15314
20
1.07028
11
1.16185
21
1.06264
0
LINE
8
BLACK
6
CONTINUOUS
10
1.16185
20
1.06264
11
1.16949
21
1.05393
0
LINE
8
BLACK
6
CONTINUOUS
10
1.16949
20
1.05393
11
1.17593
21
1.04429
0
LINE
8
BLACK
6
CONTINUOUS
10
1.17593
20
1.04429
11
1.18105
21
1.0339
0
LINE
8
BLACK
6
CONTINUOUS
10
1.18105
20
1.0339
11
1.18478
21
1.02293
0
LINE
8
BLACK
6
CONTINUOUS
10
1.18478
20
1.02293
11
1.18704
21
1.01156
0
LINE
8
BLACK
6
CONTINUOUS
10
1.18704
20
1.01156
11
1.1878
21
1
0
LINE
8
BLACK
6
CONTINUOUS
10
1.1878
20
1
11
1.18704
21
0.988438
0
LINE
8
BLACK
6
CONTINUOUS
10
1.18704
20
0.988438
11
1.18478
21
0.977073
0
LINE
8
BLACK
6
CONTINUOUS
10
1.18478
20
0.977073
11
1.18105
21
0.966101
0
LINE
8
BLACK
6
CONTINUOUS
10
1.18105
20
0.966101
11
1.17593
21
0.955709
0
LINE
8
BLACK
6
CONTINUOUS
10
1.17593
20
0.955709
11
1.16949
21
0.946074
0
LINE
8
BLACK
6
CONTINUOUS
10
1.16949
20
0.946074
11
1.16185
21
0.937363
0
LINE
8
BLACK
6
CONTINUOUS
10
1.16185
20
0.937363
11
1.15314
21
0.929723
0
LINE
8
BLACK
6
CONTINUOUS
10
1.15314
20
0.929723
11
1.1435
21
0.923285
0
LINE
8
BLACK
6
CONTINUOUS
10
1.1435
20
0.923285
11
1.13311
21
0.91816
0
LINE
8
BLACK
6
CONTINUOUS
10
1.13311
20
0.91816
11
1.12214
21
0.914436
0
LINE
8
BLACK
6
CONTINUOUS
10
1.12214
20
0.914436
11
1.11077
21
0.912175
0
LINE
8
BLACK
6
CONTINUOUS
10
1.11077
20
0.912175
11
1.09921
21
0.911417
0
LINE
8
BLACK
6
CONTINUOUS
10
1.09921
20
0.911417
11
1.08765
21
0.912175
0
LINE
8
BLACK
6
CONTINUOUS
10
1.08765
20
0.912175
11
1.07629
21
0.914436
0
LINE
8
BLACK
6
CONTINUOUS
10
1.07629
20
0.914436
11
1.06531
21
0.91816
0
LINE
8
BLACK
6
CONTINUOUS
10
1.06531
20
0.91816
11
1.05492
21
0.923285
0
LINE
8
BLACK
6
CONTINUOUS
10
1.05492
20
0.923285
11
1.04529
21
0.929723
0
LINE
8
BLACK
6
CONTINUOUS
10
1.04529
20
0.929723
11
1.03658
21
0.937363
0
LINE
8
BLACK
6
CONTINUOUS
10
1.03658
20
0.937363
11
1.02894
21
0.946074
0
LINE
8
BLACK
6
CONTINUOUS
10
1.02894
20
0.946074
11
1.0225
21
0.955709
0
LINE
8
BLACK
6
CONTINUOUS
10
1.0225
20
0.955709
11
1.01737
21
0.966101
0
LINE
8
BLACK
6
CONTINUOUS
10
1.01737
20
0.966101
11
1.01365
21
0.977073
0
LINE
8
BLACK
6
CONTINUOUS
10
1.01365
20
0.977073
11
1.01139
21
0.988438
0
LINE
8
BLACK
6
CONTINUOUS
10
1.01139
20
0.988438
11
1.01063
21
1
0
LINE
8
BLACK
6
CONTINUOUS
10
1.01063
20
1
11
1.01139
21
1.01156
0
LINE
8
BLACK
6
CONTINUOUS
10
1.01139
20
1.01156
11
1.01365
21
1.02293
0
LINE
8
BLACK
6
CONTINUOUS
10
1.01365
20
1.02293
11
1.01737
21
1.0339
0
LINE
8
BLACK
6
CONTINUOUS
10
1.01737
20
1.0339
11
1.0225
21
1.04429
0
LINE
8
BLACK
6
CONTINUOUS
10
1.0225
20
1.04429
11
1.02894
21
1.05393
0
LINE
8
BLACK
6
CONTINUOUS
10
1.02894
20
1.05393
11
1.03658
21
1.06264
0
LINE
8
BLACK
6
CONTINUOUS
10
1.03658
20
1.06264
11
1.04529
21
1.07028
0
LINE
8
BLACK
6
CONTINUOUS
10
1.04529
20
1.07028
11
1.05492
21
1.07671
0
LINE
8
BLACK
6
CONTINUOUS
10
1.05492
20
1.07671
11
1.06531
21
1.08184
0
LINE
8
BLACK
6
CONTINUOUS
10
1.06531
20
1.08184
11
1.07629
21
1.08556
0
LINE
8
BLACK
6
CONTINUOUS
10
1.07629
20
1.08556
11
1.08765
21
1.08782
0
LINE
8
BLACK
6
CONTINUOUS
10
1.08765
20
1.08782
11
1.09921
21
1.08858
0
LINE
8
BLACK
6
CONTINUOUS
10
1.09921
20
1.08858
11
1.11077
21
1.08782
0
LINE
8
BLACK
6
CONTINUOUS
10
2.51235
20
1.08782
11
2.52371
21
1.08556
0
LINE
8
BLACK
6
CONTINUOUS
10
2.52371
20
1.08556
11
2.53469
21
1.08184
0
LINE
8
BLACK
6
CONTINUOUS
10
2.53469
20
1.08184
11
2.54508
21
1.07671
0
LINE
8
BLACK
6
CONTINUOUS
10
2.54508
20
1.07671
11
2.55471
21
1.07028
0
LINE
8
BLACK
6
CONTINUOUS
10
2.55471
20
1.07028
11
2.56342
21
1.06264
0
LINE
8
BLACK
6
CONTINUOUS
10
2.56342
20
1.06264
11
2.57106
21
1.05393
0
LINE
8
BLACK
6
CONTINUOUS
10
2.57106
20
1.05393
11
2.5775
21
1.04429
0
LINE
8
BLACK
6
CONTINUOUS
10
2.5775
20
1.04429
11
2.58263
21
1.0339
0
LINE
8
BLACK
6
CONTINUOUS
10
2.58263
20
1.0339
11
2.58635
21
1.02293
0
LINE
8
BLACK
6
CONTINUOUS
10
2.58635
20
1.02293
11
2.58861
21
1.01156
0
LINE
8
BLACK
6
CONTINUOUS
10
2.58861
20
1.01156
11
2.58937
21
1
0
LINE
8
BLACK
6
CONTINUOUS
10
2.58937
20
1
11
2.58861
21
0.988438
0
LINE
8
BLACK
6
CONTINUOUS
10
2.58861
20
0.988438
11
2.58635
21
0.977073
0
LINE
8
BLACK
6
CONTINUOUS
10
2.58635
20
0.977073
11
2.58263
21
0.966101
0
LINE
8
BLACK
6
CONTINUOUS
10
2.58263
20
0.966101
11
2.5775
21
0.955709
0
LINE
8
BLACK
6
CONTINUOUS
10
2.5775
20
0.955709
11
2.57106
21
0.946074
0
LINE
8
BLACK
6
CONTINUOUS
10
2.57106
20
0.946074
11
2.56342
21
0.937363
0
LINE
8
BLACK
6
CONTINUOUS
10
2.56342
20
0.937363
11
2.55471
21
0.929723
0
LINE
8
BLACK
6
CONTINUOUS
10
2.55471
20
0.929723
11
2.54508
21
0.923285
0
LINE
8
BLACK
6
CONTINUOUS
10
2.54508
20
0.923285
11
2.53469
21
0.91816
0
LINE
8
BLACK
6
CONTINUOUS
10
2.53469
20
0.91816
11
2.52371
21
0.914436
0
LINE
8
BLACK
6
CONTINUOUS
10
2.52371
20
0.914436
11
2.51235
21
0.912175
0
LINE
8
BLACK
6
CONTINUOUS
10
2.51235
20
0.912175
11
2.50079
21
0.911417
0
LINE
8
BLACK
6
CONTINUOUS
10
2.50079
20
0.911417
11
2.48923
21
0.912175
0
LINE
8
BLACK
6
CONTINUOUS
10
2.48923
20
0.912175
11
2.47786
21
0.914436
0
LINE
8
BLACK
6
CONTINUOUS
10
2.47786
20
0.914436
11
2.46689
21
0.91816
0
LINE
8
BLACK
6
CONTINUOUS
10
2.46689
20
0.91816
11
2.4565
21
0.923285
0
LINE
8
BLACK
6
CONTINUOUS
10
2.4565
20
0.923285
11
2.44686
21
0.929723
0
LINE
8
BLACK
6
CONTINUOUS
10
2.44686
20
0.929723
11
2.43815
21
0.937363
0
LINE
8
BLACK
6
CONTINUOUS
10
2.43815
20
0.937363
11
2.43051
21
0.946074
0
LINE
8
BLACK
6
CONTINUOUS
10
2.43051
20
0.946074
11
2.42407
21
0.955709
0
LINE
8
BLACK
6
CONTINUOUS
10
2.42407
20
0.955709
11
2.41895
21
0.966101
0
LINE
8
BLACK
6
CONTINUOUS
10
2.41895
20
0.966101
11
2.41522
21
0.977073
0
LINE
8
BLACK
6
CONTINUOUS
10
2.41522
20
0.977073
11
2.41296
21
0.988438
0
LINE
8
BLACK
6
CONTINUOUS
10
2.41296
20
0.988438
11
2.4122
21
1
0
LINE
8
BLACK
6
CONTINUOUS
10
2.4122
20
1
11
2.41296
21
1.01156
0
LINE
8
BLACK
6
CONTINUOUS
10
2.41296
20
1.01156
11
2.41522
21
1.02293
0
LINE
8
BLACK
6
CONTINUOUS
10
2.41522
20
1.02293
11
2.41895
21
1.0339
0
LINE
8
BLACK
6
CONTINUOUS
10
2.41895
20
1.0339
11
2.42407
21
1.04429
0
LINE
8
BLACK
6
CONTINUOUS
10
2.42407
20
1.04429
11
2.43051
21
1.05393
0
LINE
8
BLACK
6
CONTINUOUS
10
2.43051
20
1.05393
11
2.43815
21
1.06264
0
LINE
8
BLACK
6
CONTINUOUS
10
2.43815
20
1.06264
11
2.44686
21
1.07028
0
LINE
8
BLACK
6
CONTINUOUS
10
2.44686
20
1.07028
11
2.4565
21
1.07671
0
LINE
8
BLACK
6
CONTINUOUS
10
2.4565
20
1.07671
11
2.46689
21
1.08184
0
LINE
8
BLACK
6
CONTINUOUS
10
2.46689
20
1.08184
11
2.47786
21
1.08556
0
LINE
8
BLACK
6
CONTINUOUS
10
2.47786
20
1.08556
11
2.48923
21
1.08782
0
LINE
8
BLACK
6
CONTINUOUS
10
2.48923
20
1.08782
11
2.50079
21
1.08858
0
LINE
8
BLACK
6
CONTINUOUS
10
2.50079
20
1.08858
11
2.51235
21
1.08782
0
LINE
8
BLACK
6
CONTINUOUS
10
3.38218
20
0.946361
11
3.3841
21
0.945081
0
LINE
8
BLACK
6
CONTINUOUS
10
3.3841
20
0.945081
11
3.38538
21
0.943165
0
LINE
8
BLACK
6
CONTINUOUS
10
3.38538
20
0.943165
11
3.38583
21
0.940906
0
LINE
8
BLACK
6
CONTINUOUS
10
3.38583
20
0.940906
11
3.38583
21
0.929094
0
LINE
8
BLACK
6
CONTINUOUS
10
3.38583
20
0.929094
11
3.38538
21
0.926835
0
LINE
8
BLACK
6
CONTINUOUS
10
3.38538
20
0.926835
11
3.3841
21
0.924919
0
LINE
8
BLACK
6
CONTINUOUS
10
3.3841
20
0.924919
11
3.38218
21
0.923639
0
LINE
8
BLACK
6
CONTINUOUS
10
3.38218
20
0.923639
11
3.37992
21
0.923189
0
LINE
8
BLACK
6
CONTINUOUS
10
3.37992
20
0.923189
11
3.3248
21
0.923189
0
LINE
8
BLACK
6
CONTINUOUS
10
3.3248
20
0.923189
11
3.32254
21
0.923639
0
LINE
8
BLACK
6
CONTINUOUS
10
3.32254
20
0.923639
11
3.32063
21
0.924919
0
LINE
8
BLACK
6
CONTINUOUS
10
3.32063
20
0.924919
11
3.31935
21
0.926835
0
LINE
8
BLACK
6
CONTINUOUS
10
3.31935
20
0.926835
11
3.3189
21
0.929094
0
LINE
8
BLACK
6
CONTINUOUS
10
3.3189
20
0.929094
11
3.3189
21
0.940906
0
LINE
8
BLACK
6
CONTINUOUS
10
3.3189
20
0.940906
11
3.31935
21
0.943165
0
LINE
8
BLACK
6
CONTINUOUS
10
3.31935
20
0.943165
11
3.32063
21
0.945081
0
LINE
8
BLACK
6
CONTINUOUS
10
3.32063
20
0.945081
11
3.32254
21
0.946361
0
LINE
8
BLACK
6
CONTINUOUS
10
3.32254
20
0.946361
11
3.3248
21
0.946811
0
LINE
8
BLACK
6
CONTINUOUS
10
3.3248
20
0.946811
11
3.37992
21
0.946811
0
LINE
8
BLACK
6
CONTINUOUS
10
3.37992
20
0.946811
11
3.38218
21
0.946361
0
LINE
8
BLACK
6
CONTINUOUS
10
0.479806
20
1.04846
11
0.488092
21
1.04624
0
LINE
8
BLACK
6
CONTINUOUS
10
0.488092
20
1.04624
11
0.495866
21
1.04262
0
LINE
8
BLACK
6
CONTINUOUS
10
0.495866
20
1.04262
11
0.502893
21
1.0377
0
LINE
8
BLACK
6
CONTINUOUS
10
0.502893
20
1.0377
11
0.508959
21
1.03163
0
LINE
8
BLACK
6
CONTINUOUS
10
0.508959
20
1.03163
11
0.513879
21
1.02461
0
LINE
8
BLACK
6
CONTINUOUS
10
0.513879
20
1.02461
11
0.517505
21
1.01683
0
LINE
8
BLACK
6
CONTINUOUS
10
0.517505
20
1.01683
11
0.519725
21
1.00855
0
LINE
8
BLACK
6
CONTINUOUS
10
0.519725
20
1.00855
11
0.520472
21
1
0
LINE
8
BLACK
6
CONTINUOUS
10
0.520472
20
1
11
0.519725
21
0.991454
0
LINE
8
BLACK
6
CONTINUOUS
10
0.519725
20
0.991454
11
0.517505
21
0.983168
0
LINE
8
BLACK
6
CONTINUOUS
10
0.517505
20
0.983168
11
0.513879
21
0.975394
0
LINE
8
BLACK
6
CONTINUOUS
10
0.513879
20
0.975394
11
0.508959
21
0.968367
0
LINE
8
BLACK
6
CONTINUOUS
10
0.508959
20
0.968367
11
0.502893
21
0.962301
0
LINE
8
BLACK
6
CONTINUOUS
10
0.502893
20
0.962301
11
0.495866
21
0.957381
0
LINE
8
BLACK
6
CONTINUOUS
10
0.495866
20
0.957381
11
0.488092
21
0.953755
0
LINE
8
BLACK
6
CONTINUOUS
10
0.488092
20
0.953755
11
0.479806
21
0.951535
0
LINE
8
BLACK
6
CONTINUOUS
10
0.479806
20
0.951535
11
0.47126
21
0.950787
0
LINE
8
BLACK
6
CONTINUOUS
10
0.47126
20
0.950787
11
0.462714
21
0.951535
0
LINE
8
BLACK
6
CONTINUOUS
10
0.462714
20
0.951535
11
0.454428
21
0.953755
0
LINE
8
BLACK
6
CONTINUOUS
10
0.454428
20
0.953755
11
0.446654
21
0.957381
0
LINE
8
BLACK
6
CONTINUOUS
10
0.446654
20
0.957381
11
0.439627
21
0.962301
0
LINE
8
BLACK
6
CONTINUOUS
10
0.439627
20
0.962301
11
0.433561
21
0.968367
0
LINE
8
BLACK
6
CONTINUOUS
10
0.433561
20
0.968367
11
0.42864
21
0.975394
0
LINE
8
BLACK
6
CONTINUOUS
10
0.42864
20
0.975394
11
0.425015
21
0.983168
0
LINE
8
BLACK
6
CONTINUOUS
10
0.425015
20
0.983168
11
0.422795
21
0.991454
0
LINE
8
BLACK
6
CONTINUOUS
10
0.422795
20
0.991454
11
0.422047
21
1
0
LINE
8
BLACK
6
CONTINUOUS
10
0.422047
20
1
11
0.422795
21
1.00855
0
LINE
8
BLACK
6
CONTINUOUS
10
0.422795
20
1.00855
11
0.425015
21
1.01683
0
LINE
8
BLACK
6
CONTINUOUS
10
0.425015
20
1.01683
11
0.42864
21
1.02461
0
LINE
8
BLACK
6
CONTINUOUS
10
0.42864
20
1.02461
11
0.433561
21
1.03163
0
LINE
8
BLACK
6
CONTINUOUS
10
0.433561
20
1.03163
11
0.439627
21
1.0377
0
LINE
8
BLACK
6
CONTINUOUS
10
0.439627
20
1.0377
11
0.446654
21
1.04262
0
LINE
8
BLACK
6
CONTINUOUS
10
0.446654
20
1.04262
11
0.454428
21
1.04624
0
LINE
8
BLACK
6
CONTINUOUS
10
0.454428
20
1.04624
11
0.462714
21
1.04846
0
LINE
8
BLACK
6
CONTINUOUS
10
0.462714
20
1.04846
11
0.47126
21
1.04921
0
LINE
8
BLACK
6
CONTINUOUS
10
0.47126
20
1.04921
11
0.479806
21
1.04846
0
LINE
8
BLACK
6
CONTINUOUS
10
3.13729
20
1.04846
11
3.14557
21
1.04624
0
LINE
8
BLACK
6
CONTINUOUS
10
3.14557
20
1.04624
11
3.15335
21
1.04262
0
LINE
8
BLACK
6
CONTINUOUS
10
3.15335
20
1.04262
11
3.16037
21
1.0377
0
LINE
8
BLACK
6
CONTINUOUS
10
3.16037
20
1.0377
11
3.16644
21
1.03163
0
LINE
8
BLACK
6
CONTINUOUS
10
3.16644
20
1.03163
11
3.17136
21
1.02461
0
LINE
8
BLACK
6
CONTINUOUS
10
3.17136
20
1.02461
11
3.17498
21
1.01683
0
LINE
8
BLACK
6
CONTINUOUS
10
3.17498
20
1.01683
11
3.17721
21
1.00855
0
LINE
8
BLACK
6
CONTINUOUS
10
3.17721
20
1.00855
11
3.17795
21
1
0
LINE
8
BLACK
6
CONTINUOUS
10
3.17795
20
1
11
3.17721
21
0.991454
0
LINE
8
BLACK
6
CONTINUOUS
10
3.17721
20
0.991454
11
3.17498
21
0.983168
0
LINE
8
BLACK
6
CONTINUOUS
10
3.17498
20
0.983168
11
3.17136
21
0.975394
0
LINE
8
BLACK
6
CONTINUOUS
10
3.17136
20
0.975394
11
3.16644
21
0.968367
0
LINE
8
BLACK
6
CONTINUOUS
10
3.16644
20
0.968367
11
3.16037
21
0.962301
0
LINE
8
BLACK
6
CONTINUOUS
10
3.16037
20
0.962301
11
3.15335
21
0.957381
0
LINE
8
BLACK
6
CONTINUOUS
10
3.15335
20
0.957381
11
3.14557
21
0.953755
0
LINE
8
BLACK
6
CONTINUOUS
10
3.14557
20
0.953755
11
3.13729
21
0.951535
0
LINE
8
BLACK
6
CONTINUOUS
10
3.13729
20
0.951535
11
3.12874
21
0.950787
0
LINE
8
BLACK
6
CONTINUOUS
10
3.12874
20
0.950787
11
3.12019
21
0.951535
0
LINE
8
BLACK
6
CONTINUOUS
10
3.12019
20
0.951535
11
3.11191
21
0.953755
0
LINE
8
BLACK
6
CONTINUOUS
10
3.11191
20
0.953755
11
3.10413
21
0.957381
0
LINE
8
BLACK
6
CONTINUOUS
10
3.10413
20
0.957381
11
3.09711
21
0.962301
0
LINE
8
BLACK
6
CONTINUOUS
10
3.09711
20
0.962301
11
3.09104
21
0.968367
0
LINE
8
BLACK
6
CONTINUOUS
10
3.09104
20
0.968367
11
3.08612
21
0.975394
0
LINE
8
BLACK
6
CONTINUOUS
10
3.08612
20
0.975394
11
3.0825
21
0.983168
0
LINE
8
BLACK
6
CONTINUOUS
10
3.0825
20
0.983168
11
3.08028
21
0.991454
0
LINE
8
BLACK
6
CONTINUOUS
10
3.08028
20
0.991454
11
3.07953
21
1
0
LINE
8
BLACK
6
CONTINUOUS
10
3.07953
20
1
11
3.08028
21
1.00855
0
LINE
8
BLACK
6
CONTINUOUS
10
3.08028
20
1.00855
11
3.0825
21
1.01683
0
LINE
8
BLACK
6
CONTINUOUS
10
3.0825
20
1.01683
11
3.08612
21
1.02461
0
LINE
8
BLACK
6
CONTINUOUS
10
3.08612
20
1.02461
11
3.09104
21
1.03163
0
LINE
8
BLACK
6
CONTINUOUS
10
3.09104
20
1.03163
11
3.09711
21
1.0377
0
LINE
8
BLACK
6
CONTINUOUS
10
3.09711
20
1.0377
11
3.10413
21
1.04262
0
LINE
8
BLACK
6
CONTINUOUS
10
3.10413
20
1.04262
11
3.11191
21
1.04624
0
LINE
8
BLACK
6
CONTINUOUS
10
3.11191
20
1.04624
11
3.12019
21
1.04846
0
LINE
8
BLACK
6
CONTINUOUS
10
3.12019
20
1.04846
11
3.12874
21
1.04921
0
LINE
8
BLACK
6
CONTINUOUS
10
3.12874
20
1.04921
11
3.13729
21
1.04846
0
LINE
8
BLACK
6
CONTINUOUS
10
3.38218
20
0.995574
11
3.3841
21
0.994294
0
LINE
8
BLACK
6
CONTINUOUS
10
3.3841
20
0.994294
11
3.38538
21
0.992378
0
LINE
8
BLACK
6
CONTINUOUS
10
3.38538
20
0.992378
11
3.38583
21
0.990118
0
LINE
8
BLACK
6
CONTINUOUS
10
3.38583
20
0.990118
11
3.38583
21
0.978307
0
LINE
8
BLACK
6
CONTINUOUS
10
3.38583
20
0.978307
11
3.38538
21
0.976047
0
LINE
8
BLACK
6
CONTINUOUS
10
3.38538
20
0.976047
11
3.3841
21
0.974131
0
LINE
8
BLACK
6
CONTINUOUS
10
3.3841
20
0.974131
11
3.38218
21
0.972851
0
LINE
8
BLACK
6
CONTINUOUS
10
3.38218
20
0.972851
11
3.37992
21
0.972402
0
LINE
8
BLACK
6
CONTINUOUS
10
3.37992
20
0.972402
11
3.3248
21
0.972402
0
LINE
8
BLACK
6
CONTINUOUS
10
3.3248
20
0.972402
11
3.32254
21
0.972851
0
LINE
8
BLACK
6
CONTINUOUS
10
3.32254
20
0.972851
11
3.32063
21
0.974131
0
LINE
8
BLACK
6
CONTINUOUS
10
3.32063
20
0.974131
11
3.31935
21
0.976047
0
LINE
8
BLACK
6
CONTINUOUS
10
3.31935
20
0.976047
11
3.3189
21
0.978307
0
LINE
8
BLACK
6
CONTINUOUS
10
3.3189
20
0.978307
11
3.3189
21
0.990118
0
LINE
8
BLACK
6
CONTINUOUS
10
3.3189
20
0.990118
11
3.31935
21
0.992378
0
LINE
8
BLACK
6
CONTINUOUS
10
3.31935
20
0.992378
11
3.32063
21
0.994294
0
LINE
8
BLACK
6
CONTINUOUS
10
3.32063
20
0.994294
11
3.32254
21
0.995574
0
LINE
8
BLACK
6
CONTINUOUS
10
3.32254
20
0.995574
11
3.3248
21
0.996024
0
LINE
8
BLACK
6
CONTINUOUS
10
3.3248
20
0.996024
11
3.37992
21
0.996024
0
LINE
8
BLACK
6
CONTINUOUS
10
3.37992
20
0.996024
11
3.38218
21
0.995574
0
LINE
8
BLACK
6
CONTINUOUS
10
3.52542
20
1.07598
11
3.52861
21
1.07385
0
LINE
8
BLACK
6
CONTINUOUS
10
3.52861
20
1.07385
11
3.53075
21
1.07066
0
LINE
8
BLACK
6
CONTINUOUS
10
3.53075
20
1.07066
11
3.5315
21
1.06689
0
LINE
8
BLACK
6
CONTINUOUS
10
3.5315
20
1.06689
11
3.5315
21
1.0472
0
LINE
8
BLACK
6
CONTINUOUS
10
3.5315
20
1.0472
11
3.53075
21
1.04344
0
LINE
8
BLACK
6
CONTINUOUS
10
3.53075
20
1.04344
11
3.52861
21
1.04025
0
LINE
8
BLACK
6
CONTINUOUS
10
3.52861
20
1.04025
11
3.52542
21
1.03811
0
LINE
8
BLACK
6
CONTINUOUS
10
3.52542
20
1.03811
11
3.52165
21
1.03736
0
LINE
8
BLACK
6
CONTINUOUS
10
3.52165
20
1.03736
11
3.43504
21
1.03736
0
LINE
8
BLACK
6
CONTINUOUS
10
3.43504
20
1.03736
11
3.43127
21
1.03811
0
LINE
8
BLACK
6
CONTINUOUS
10
3.43127
20
1.03811
11
3.42808
21
1.04025
0
LINE
8
BLACK
6
CONTINUOUS
10
3.42808
20
1.04025
11
3.42595
21
1.04344
0
LINE
8
BLACK
6
CONTINUOUS
10
3.42595
20
1.04344
11
3.4252
21
1.0472
0
LINE
8
BLACK
6
CONTINUOUS
10
3.4252
20
1.0472
11
3.4252
21
1.06689
0
LINE
8
BLACK
6
CONTINUOUS
10
3.4252
20
1.06689
11
3.42595
21
1.07066
0
LINE
8
BLACK
6
CONTINUOUS
10
3.42595
20
1.07066
11
3.42808
21
1.07385
0
LINE
8
BLACK
6
CONTINUOUS
10
3.42808
20
1.07385
11
3.43127
21
1.07598
0
LINE
8
BLACK
6
CONTINUOUS
10
3.43127
20
1.07598
11
3.43504
21
1.07673
0
LINE
8
BLACK
6
CONTINUOUS
10
3.43504
20
1.07673
11
3.52165
21
1.07673
0
LINE
8
BLACK
6
CONTINUOUS
10
3.52165
20
1.07673
11
3.52542
21
1.07598
0
LINE
8
BLACK
6
CONTINUOUS
10
3.50043
20
1.14925
11
3.42957
21
1.14925
0
LINE
8
BLACK
6
CONTINUOUS
10
3.42957
20
1.14925
11
3.42957
21
1.28705
0
LINE
8
BLACK
6
CONTINUOUS
10
3.42957
20
1.28705
11
3.50043
21
1.28705
0
LINE
8
BLACK
6
CONTINUOUS
10
3.50043
20
1.28705
11
3.50043
21
1.14925
0
LINE
8
BLACK
6
CONTINUOUS
10
3.31648
20
1.29189
11
3.31968
21
1.28975
0
LINE
8
BLACK
6
CONTINUOUS
10
3.31968
20
1.28975
11
3.32181
21
1.28656
0
LINE
8
BLACK
6
CONTINUOUS
10
3.32181
20
1.28656
11
3.32256
21
1.2828
0
LINE
8
BLACK
6
CONTINUOUS
10
3.32256
20
1.2828
11
3.32256
21
1.2572
0
LINE
8
BLACK
6
CONTINUOUS
10
3.32256
20
1.2572
11
3.32181
21
1.25344
0
LINE
8
BLACK
6
CONTINUOUS
10
3.32181
20
1.25344
11
3.31968
21
1.25025
0
LINE
8
BLACK
6
CONTINUOUS
10
3.31968
20
1.25025
11
3.31648
21
1.24811
0
LINE
8
BLACK
6
CONTINUOUS
10
3.31648
20
1.24811
11
3.31272
21
1.24736
0
LINE
8
BLACK
6
CONTINUOUS
10
3.31272
20
1.24736
11
3.27728
21
1.24736
0
LINE
8
BLACK
6
CONTINUOUS
10
3.27728
20
1.24736
11
3.27352
21
1.24811
0
LINE
8
BLACK
6
CONTINUOUS
10
3.27352
20
1.24811
11
3.27032
21
1.25025
0
LINE
8
BLACK
6
CONTINUOUS
10
3.27032
20
1.25025
11
3.26819
21
1.25344
0
LINE
8
BLACK
6
CONTINUOUS
10
3.26819
20
1.25344
11
3.26744
21
1.2572
0
LINE
8
BLACK
6
CONTINUOUS
10
3.26744
20
1.2572
11
3.26744
21
1.2828
0
LINE
8
BLACK
6
CONTINUOUS
10
3.26744
20
1.2828
11
3.26819
21
1.28656
0
LINE
8
BLACK
6
CONTINUOUS
10
3.26819
20
1.28656
11
3.27032
21
1.28975
0
LINE
8
BLACK
6
CONTINUOUS
10
3.27032
20
1.28975
11
3.27352
21
1.29189
0
LINE
8
BLACK
6
CONTINUOUS
10
3.27352
20
1.29189
11
3.27728
21
1.29264
0
LINE
8
BLACK
6
CONTINUOUS
10
3.27728
20
1.29264
11
3.31272
21
1.29264
0
LINE
8
BLACK
6
CONTINUOUS
10
3.31272
20
1.29264
11
3.31648
21
1.29189
0
LINE
8
BLACK
6
CONTINUOUS
10
3.31648
20
1.3726
11
3.31968
21
1.37046
0
LINE
8
BLACK
6
CONTINUOUS
10
3.31968
20
1.37046
11
3.32181
21
1.36727
0
LINE
8
BLACK
6
CONTINUOUS
10
3.32181
20
1.36727
11
3.32256
21
1.3635
0
LINE
8
BLACK
6
CONTINUOUS
10
3.32256
20
1.3635
11
3.32256
21
1.33791
0
LINE
8
BLACK
6
CONTINUOUS
10
3.32256
20
1.33791
11
3.32181
21
1.33415
0
LINE
8
BLACK
6
CONTINUOUS
10
3.32181
20
1.33415
11
3.31968
21
1.33095
0
LINE
8
BLACK
6
CONTINUOUS
10
3.31968
20
1.33095
11
3.31648
21
1.32882
0
LINE
8
BLACK
6
CONTINUOUS
10
3.31648
20
1.32882
11
3.31272
21
1.32807
0
LINE
8
BLACK
6
CONTINUOUS
10
3.31272
20
1.32807
11
3.27728
21
1.32807
0
LINE
8
BLACK
6
CONTINUOUS
10
3.27728
20
1.32807
11
3.27352
21
1.32882
0
LINE
8
BLACK
6
CONTINUOUS
10
3.27352
20
1.32882
11
3.27032
21
1.33095
0
LINE
8
BLACK
6
CONTINUOUS
10
3.27032
20
1.33095
11
3.26819
21
1.33415
0
LINE
8
BLACK
6
CONTINUOUS
10
3.26819
20
1.33415
11
3.26744
21
1.33791
0
LINE
8
BLACK
6
CONTINUOUS
10
3.26744
20
1.33791
11
3.26744
21
1.3635
0
LINE
8
BLACK
6
CONTINUOUS
10
3.26744
20
1.3635
11
3.26819
21
1.36727
0
LINE
8
BLACK
6
CONTINUOUS
10
3.26819
20
1.36727
11
3.27032
21
1.37046
0
LINE
8
BLACK
6
CONTINUOUS
10
3.27032
20
1.37046
11
3.27352
21
1.3726
0
LINE
8
BLACK
6
CONTINUOUS
10
3.27352
20
1.3726
11
3.27728
21
1.37335
0
LINE
8
BLACK
6
CONTINUOUS
10
3.27728
20
1.37335
11
3.31272
21
1.37335
0
LINE
8
BLACK
6
CONTINUOUS
10
3.31272
20
1.37335
11
3.31648
21
1.3726
0
LINE
8
BLACK
6
CONTINUOUS
10
3.50043
20
1.3461
11
3.42957
21
1.3461
0
LINE
8
BLACK
6
CONTINUOUS
10
3.42957
20
1.3461
11
3.42957
21
1.4839
0
LINE
8
BLACK
6
CONTINUOUS
10
3.42957
20
1.4839
11
3.50043
21
1.4839
0
LINE
8
BLACK
6
CONTINUOUS
10
3.50043
20
1.4839
11
3.50043
21
1.3461
0
LINE
8
BLACK
6
CONTINUOUS
10
0.20865
20
1.91779
11
0.222132
21
1.91602
0
LINE
8
BLACK
6
CONTINUOUS
10
0.222132
20
1.91602
11
0.23532
21
1.91271
0
LINE
8
BLACK
6
CONTINUOUS
10
0.23532
20
1.91271
11
0.24804
21
1.9079
0
LINE
8
BLACK
6
CONTINUOUS
10
0.24804
20
1.9079
11
0.260123
21
1.90166
0
LINE
8
BLACK
6
CONTINUOUS
10
0.260123
20
1.90166
11
0.271409
21
1.89408
0
LINE
8
BLACK
6
CONTINUOUS
10
0.271409
20
1.89408
11
0.281749
21
1.88525
0
LINE
8
BLACK
6
CONTINUOUS
10
0.281749
20
1.88525
11
0.291006
21
1.87529
0
LINE
8
BLACK
6
CONTINUOUS
10
0.291006
20
1.87529
11
0.299056
21
1.86433
0
LINE
8
BLACK
6
CONTINUOUS
10
0.299056
20
1.86433
11
0.305793
21
1.85252
0
LINE
8
BLACK
6
CONTINUOUS
10
0.305793
20
1.85252
11
0.311128
21
1.84001
0
LINE
8
BLACK
6
CONTINUOUS
10
0.311128
20
1.84001
11
0.31499
21
1.82697
0
LINE
8
BLACK
6
CONTINUOUS
10
0.31499
20
1.82697
11
0.317327
21
1.81358
0
LINE
8
BLACK
6
CONTINUOUS
10
0.317327
20
1.81358
11
0.31811
21
1.8
0
LINE
8
BLACK
6
CONTINUOUS
10
0.31811
20
1.8
11
0.317877
21
1.79258
0
LINE
8
BLACK
6
CONTINUOUS
10
0.317877
20
1.79258
11
0.316244
21
1.77908
0
LINE
8
BLACK
6
CONTINUOUS
10
0.316244
20
1.77908
11
0.313069
21
1.76586
0
LINE
8
BLACK
6
CONTINUOUS
10
0.313069
20
1.76586
11
0.308396
21
1.75309
0
LINE
8
BLACK
6
CONTINUOUS
10
0.308396
20
1.75309
11
0.302286
21
1.74094
0
LINE
8
BLACK
6
CONTINUOUS
10
0.302286
20
1.74094
11
0.294821
21
1.72958
0
LINE
8
BLACK
6
CONTINUOUS
10
0.294821
20
1.72958
11
0.286099
21
1.71915
0
LINE
8
BLACK
6
CONTINUOUS
10
0.286099
20
1.71915
11
0.276235
21
1.70979
0
LINE
8
BLACK
6
CONTINUOUS
10
0.276235
20
1.70979
11
0.265361
21
1.70162
0
LINE
8
BLACK
6
CONTINUOUS
10
0.265361
20
1.70162
11
0.253621
21
1.69476
0
LINE
8
BLACK
6
CONTINUOUS
10
0.253621
20
1.69476
11
0.24117
21
1.6893
0
LINE
8
BLACK
6
CONTINUOUS
10
0.24117
20
1.6893
11
0.228173
21
1.6853
0
LINE
8
BLACK
6
CONTINUOUS
10
0.228173
20
1.6853
11
0.214803
21
1.68282
0
LINE
8
BLACK
6
CONTINUOUS
10
0.214803
20
1.68282
11
0.201237
21
1.6819
0
LINE
8
BLACK
6
CONTINUOUS
10
0.201237
20
1.6819
11
0.187654
21
1.68254
0
LINE
8
BLACK
6
CONTINUOUS
10
0.187654
20
1.68254
11
0.174235
21
1.68473
0
LINE
8
BLACK
6
CONTINUOUS
10
0.174235
20
1.68473
11
0.161157
21
1.68846
0
LINE
8
BLACK
6
CONTINUOUS
10
0.161157
20
1.68846
11
0.148595
21
1.69366
0
LINE
8
BLACK
6
CONTINUOUS
10
0.148595
20
1.69366
11
0.136713
21
1.70028
0
LINE
8
BLACK
6
CONTINUOUS
10
0.136713
20
1.70028
11
0.125671
21
1.70821
0
LINE
8
BLACK
6
CONTINUOUS
10
0.125671
20
1.70821
11
0.115613
21
1.71736
0
LINE
8
BLACK
6
CONTINUOUS
10
0.115613
20
1.71736
11
0.106675
21
1.72761
0
LINE
8
BLACK
6
CONTINUOUS
10
0.106675
20
1.72761
11
0.0989727
21
1.73882
0
LINE
8
BLACK
6
CONTINUOUS
10
0.0989727
20
1.73882
11
0.0926099
21
1.75083
0
LINE
8
BLACK
6
CONTINUOUS
10
0.0926099
20
1.75083
11
0.0876705
21
1.7635
0
LINE
8
BLACK
6
CONTINUOUS
10
0.0876705
20
1.7635
11
0.0842199
21
1.77665
0
LINE
8
BLACK
6
CONTINUOUS
10
0.0842199
20
1.77665
11
0.082304
21
1.79012
0
LINE
8
BLACK
6
CONTINUOUS
10
0.082304
20
1.79012
11
0.081948
21
1.80371
0
LINE
8
BLACK
6
CONTINUOUS
10
0.081948
20
1.80371
11
0.0831568
21
1.81725
0
LINE
8
BLACK
6
CONTINUOUS
10
0.0831568
20
1.81725
11
0.0859143
21
1.83057
0
LINE
8
BLACK
6
CONTINUOUS
10
0.0859143
20
1.83057
11
0.0901839
21
1.84348
0
LINE
8
BLACK
6
CONTINUOUS
10
0.0901839
20
1.84348
11
0.0959091
21
1.85581
0
LINE
8
BLACK
6
CONTINUOUS
10
0.0959091
20
1.85581
11
0.103014
21
1.86741
0
LINE
8
BLACK
6
CONTINUOUS
10
0.103014
20
1.86741
11
0.111404
21
1.87811
0
LINE
8
BLACK
6
CONTINUOUS
10
0.111404
20
1.87811
11
0.120969
21
1.88777
0
LINE
8
BLACK
6
CONTINUOUS
10
0.120969
20
1.88777
11
0.131581
21
1.89627
0
LINE
8
BLACK
6
CONTINUOUS
10
0.131581
20
1.89627
11
0.1431
21
1.9035
0
LINE
8
BLACK
6
CONTINUOUS
10
0.1431
20
1.9035
11
0.155373
21
1.90935
0
LINE
8
BLACK
6
CONTINUOUS
10
0.155373
20
1.90935
11
0.168238
21
1.91376
0
LINE
8
BLACK
6
CONTINUOUS
10
0.168238
20
1.91376
11
0.181524
21
1.91666
0
LINE
8
BLACK
6
CONTINUOUS
10
0.181524
20
1.91666
11
0.195054
21
1.91801
0
LINE
8
BLACK
6
CONTINUOUS
10
0.195054
20
1.91801
11
0.20865
21
1.91779
0
LINE
8
BLACK
6
CONTINUOUS
10
3.40865
20
1.91779
11
3.42213
21
1.91602
0
LINE
8
BLACK
6
CONTINUOUS
10
3.42213
20
1.91602
11
3.43532
21
1.91271
0
LINE
8
BLACK
6
CONTINUOUS
10
3.43532
20
1.91271
11
3.44804
21
1.9079
0
LINE
8
BLACK
6
CONTINUOUS
10
3.44804
20
1.9079
11
3.46012
21
1.90166
0
LINE
8
BLACK
6
CONTINUOUS
10
3.46012
20
1.90166
11
3.47141
21
1.89408
0
LINE
8
BLACK
6
CONTINUOUS
10
3.47141
20
1.89408
11
3.48175
21
1.88525
0
LINE
8
BLACK
6
CONTINUOUS
10
3.48175
20
1.88525
11
3.49101
21
1.87529
0
LINE
8
BLACK
6
CONTINUOUS
10
3.49101
20
1.87529
11
3.49906
21
1.86433
0
LINE
8
BLACK
6
CONTINUOUS
10
3.49906
20
1.86433
11
3.50579
21
1.85252
0
LINE
8
BLACK
6
CONTINUOUS
10
3.50579
20
1.85252
11
3.51113
21
1.84001
0
LINE
8
BLACK
6
CONTINUOUS
10
3.51113
20
1.84001
11
3.51499
21
1.82697
0
LINE
8
BLACK
6
CONTINUOUS
10
3.51499
20
1.82697
11
3.51733
21
1.81358
0
LINE
8
BLACK
6
CONTINUOUS
10
3.51733
20
1.81358
11
3.51811
21
1.8
0
LINE
8
BLACK
6
CONTINUOUS
10
3.51811
20
1.8
11
3.51788
21
1.79258
0
LINE
8
BLACK
6
CONTINUOUS
10
3.51788
20
1.79258
11
3.51624
21
1.77908
0
LINE
8
BLACK
6
CONTINUOUS
10
3.51624
20
1.77908
11
3.51307
21
1.76586
0
LINE
8
BLACK
6
CONTINUOUS
10
3.51307
20
1.76586
11
3.5084
21
1.75309
0
LINE
8
BLACK
6
CONTINUOUS
10
3.5084
20
1.75309
11
3.50229
21
1.74094
0
LINE
8
BLACK
6
CONTINUOUS
10
3.50229
20
1.74094
11
3.49482
21
1.72958
0
LINE
8
BLACK
6
CONTINUOUS
10
3.49482
20
1.72958
11
3.4861
21
1.71915
0
LINE
8
BLACK
6
CONTINUOUS
10
3.4861
20
1.71915
11
3.47624
21
1.70979
0
LINE
8
BLACK
6
CONTINUOUS
10
3.47624
20
1.70979
11
3.46536
21
1.70162
0
LINE
8
BLACK
6
CONTINUOUS
10
3.46536
20
1.70162
11
3.45362
21
1.69476
0
LINE
8
BLACK
6
CONTINUOUS
10
3.45362
20
1.69476
11
3.44117
21
1.6893
0
LINE
8
BLACK
6
CONTINUOUS
10
3.44117
20
1.6893
11
3.42817
21
1.6853
0
LINE
8
BLACK
6
CONTINUOUS
10
3.42817
20
1.6853
11
3.4148
21
1.68282
0
LINE
8
BLACK
6
CONTINUOUS
10
3.4148
20
1.68282
11
3.40124
21
1.6819
0
LINE
8
BLACK
6
CONTINUOUS
10
3.40124
20
1.6819
11
3.38765
21
1.68254
0
LINE
8
BLACK
6
CONTINUOUS
10
3.38765
20
1.68254
11
3.37424
21
1.68473
0
LINE
8
BLACK
6
CONTINUOUS
10
3.37424
20
1.68473
11
3.36116
21
1.68846
0
LINE
8
BLACK
6
CONTINUOUS
10
3.36116
20
1.68846
11
3.34859
21
1.69366
0
LINE
8
BLACK
6
CONTINUOUS
10
3.34859
20
1.69366
11
3.33671
21
1.70028
0
LINE
8
BLACK
6
CONTINUOUS
10
3.33671
20
1.70028
11
3.32567
21
1.70821
0
LINE
8
BLACK
6
CONTINUOUS
10
3.32567
20
1.70821
11
3.31561
21
1.71736
0
LINE
8
BLACK
6
CONTINUOUS
10
3.31561
20
1.71736
11
3.30667
21
1.72761
0
LINE
8
BLACK
6
CONTINUOUS
10
3.30667
20
1.72761
11
3.29897
21
1.73882
0
LINE
8
BLACK
6
CONTINUOUS
10
3.29897
20
1.73882
11
3.29261
21
1.75083
0
LINE
8
BLACK
6
CONTINUOUS
10
3.29261
20
1.75083
11
3.28767
21
1.7635
0
LINE
8
BLACK
6
CONTINUOUS
10
3.28767
20
1.7635
11
3.28422
21
1.77665
0
LINE
8
BLACK
6
CONTINUOUS
10
3.28422
20
1.77665
11
3.2823
21
1.79012
0
LINE
8
BLACK
6
CONTINUOUS
10
3.2823
20
1.79012
11
3.28195
21
1.80371
0
LINE
8
BLACK
6
CONTINUOUS
10
3.28195
20
1.80371
11
3.28316
21
1.81725
0
LINE
8
BLACK
6
CONTINUOUS
10
3.28316
20
1.81725
11
3.28591
21
1.83057
0
LINE
8
BLACK
6
CONTINUOUS
10
3.28591
20
1.83057
11
3.29018
21
1.84348
0
LINE
8
BLACK
6
CONTINUOUS
10
3.29018
20
1.84348
11
3.29591
21
1.85581
0
LINE
8
BLACK
6
CONTINUOUS
10
3.29591
20
1.85581
11
3.30301
21
1.86741
0
LINE
8
BLACK
6
CONTINUOUS
10
3.30301
20
1.86741
11
3.3114
21
1.87811
0
LINE
8
BLACK
6
CONTINUOUS
10
3.3114
20
1.87811
11
3.32097
21
1.88777
0
LINE
8
BLACK
6
CONTINUOUS
10
3.32097
20
1.88777
11
3.33158
21
1.89627
0
LINE
8
BLACK
6
CONTINUOUS
10
3.33158
20
1.89627
11
3.3431
21
1.9035
0
LINE
8
BLACK
6
CONTINUOUS
10
3.3431
20
1.9035
11
3.35537
21
1.90935
0
LINE
8
BLACK
6
CONTINUOUS
10
3.35537
20
1.90935
11
3.36824
21
1.91376
0
LINE
8
BLACK
6
CONTINUOUS
10
3.36824
20
1.91376
11
3.38152
21
1.91666
0
LINE
8
BLACK
6
CONTINUOUS
10
3.38152
20
1.91666
11
3.39505
21
1.91801
0
LINE
8
BLACK
6
CONTINUOUS
10
3.39505
20
1.91801
11
3.40865
21
1.91779
  0
ENDSEC
  0
EOF
