  0
SECTION
  2
HEADER
  9
$ANGBASE
  50
0.0
  9
$ANGDIR
  70
1
  9
$MEASUREMENT
  70
0
  0
ENDSEC
  0
SECTION
  2
TABLES
  0
TABLE
  2
LTYPE
  70
4
  0
LTYPE
  5
40F
  2
CONTINUOUS
  70
0
  3
Solid line
  72
65
  73
0
  40
0.0
  0
LTYPE
  5
410
  2
DASHDOT
 70
0
  3
Dash Dot ____ _ ____ _
 72
65
 73
4
 40
2.0
 49
1.25
 49
-0.25
 49
0.25
 49
-0.25
  0
LTYPE
  5
411
  2
DASHED
 70
0
  3
Dashed __ __ __ __ __
 72
65
 73
2
 40
0.75
 49
0.5
 49
-0.25
  0
LTYPE
  5
43B
  2
DOTTED
 70
0
  3
Dotted .  .  .  .
 72
65
 73
2
 40
0.2
 49
0.0
 49
-0.2
  0
ENDTAB
  0
TABLE
  2
STYLE
  70
4
  0
STYLE
  2
KICAD
  70
0
  40
0
  41
1
  42
1
  50
0
  71
0
  3
isocp.shx
  0
STYLE
  2
KICADB
  70
0
  40
0
  41
1
  42
1
  50
0
  71
0
  3
isocp.shx
  0
STYLE
  2
KICADI
  70
0
  40
0
  41
1
  42
1
  50
15
  71
0
  3
isocp.shx
  0
STYLE
  2
KICADBI
  70
0
  40
0
  41
1
  42
1
  50
15
  71
0
  3
isocp.shx
  0
ENDTAB
  0
TABLE
  2
LAYER
  70
1
  0
LAYER
  2
BLACK
  70
0
  62
7
  6
CONTINUOUS
  0
ENDTAB
  0
ENDSEC
  0
SECTION
  2
ENTITIES
0
LINE
8
BLACK
6
CONTINUOUS
10
2.70885
20
0.120484
11
2.70975
21
0.120348
0
LINE
8
BLACK
6
CONTINUOUS
10
2.70975
20
0.120348
11
2.71463
21
0.117911
0
LINE
8
BLACK
6
CONTINUOUS
10
2.71463
20
0.117911
11
2.71508
21
0.117463
0
LINE
8
BLACK
6
CONTINUOUS
10
2.71508
20
0.117463
11
2.71565
21
0.117174
0
LINE
8
BLACK
6
CONTINUOUS
10
2.71565
20
0.117174
11
2.71809
21
0.114736
0
LINE
8
BLACK
6
CONTINUOUS
10
2.71809
20
0.114736
11
2.71838
21
0.114168
0
LINE
8
BLACK
6
CONTINUOUS
10
2.71838
20
0.114168
11
2.71882
21
0.113713
0
LINE
8
BLACK
6
CONTINUOUS
10
2.71882
20
0.113713
11
2.72126
21
0.108839
0
LINE
8
BLACK
6
CONTINUOUS
10
2.72126
20
0.108839
11
2.7214
21
0.107941
0
LINE
8
BLACK
6
CONTINUOUS
10
2.7214
20
0.107941
11
2.72168
21
0.107078
0
LINE
8
BLACK
6
CONTINUOUS
10
2.72168
20
0.107078
11
2.72168
21
0.102204
0
LINE
8
BLACK
6
CONTINUOUS
10
2.72168
20
0.102204
11
2.72148
21
0.101597
0
LINE
8
BLACK
6
CONTINUOUS
10
2.72148
20
0.101597
11
2.72147
21
0.100959
0
LINE
8
BLACK
6
CONTINUOUS
10
2.72147
20
0.100959
11
2.71904
21
0.0936472
0
LINE
8
BLACK
6
CONTINUOUS
10
2.71904
20
0.0936472
11
2.7185
21
0.092917
0
LINE
8
BLACK
6
CONTINUOUS
10
2.7185
20
0.092917
11
2.71809
21
0.0921083
0
LINE
8
BLACK
6
CONTINUOUS
10
2.71809
20
0.0921083
11
2.69556
21
0.0695829
0
LINE
8
BLACK
6
CONTINUOUS
10
2.69556
20
0.0695829
11
2.71774
21
0.0695829
0
LINE
8
BLACK
6
CONTINUOUS
10
2.71774
20
0.0695829
11
2.72005
21
0.068831
0
LINE
8
BLACK
6
CONTINUOUS
10
2.72005
20
0.068831
11
2.72148
21
0.0668625
0
LINE
8
BLACK
6
CONTINUOUS
10
2.72148
20
0.0668625
11
2.72148
21
0.0644293
0
LINE
8
BLACK
6
CONTINUOUS
10
2.72148
20
0.0644293
11
2.72005
21
0.0624607
0
LINE
8
BLACK
6
CONTINUOUS
10
2.72005
20
0.0624607
11
2.71774
21
0.0617089
0
LINE
8
BLACK
6
CONTINUOUS
10
2.71774
20
0.0617089
11
2.68606
21
0.0617089
0
LINE
8
BLACK
6
CONTINUOUS
10
2.68606
20
0.0617089
11
2.68518
21
0.0619937
0
LINE
8
BLACK
6
CONTINUOUS
10
2.68518
20
0.0619937
11
2.68427
21
0.062138
0
LINE
8
BLACK
6
CONTINUOUS
10
2.68427
20
0.062138
11
2.68404
21
0.0623626
0
LINE
8
BLACK
6
CONTINUOUS
10
2.68404
20
0.0623626
11
2.68374
21
0.0624607
0
LINE
8
BLACK
6
CONTINUOUS
10
2.68374
20
0.0624607
11
2.6832
21
0.0632067
0
LINE
8
BLACK
6
CONTINUOUS
10
2.6832
20
0.0632067
11
2.68255
21
0.0638585
0
LINE
8
BLACK
6
CONTINUOUS
10
2.68255
20
0.0638585
11
2.6825
21
0.0641722
0
LINE
8
BLACK
6
CONTINUOUS
10
2.6825
20
0.0641722
11
2.68231
21
0.0644293
0
LINE
8
BLACK
6
CONTINUOUS
10
2.68231
20
0.0644293
11
2.68231
21
0.0653512
0
LINE
8
BLACK
6
CONTINUOUS
10
2.68231
20
0.0653512
11
2.68217
21
0.0662617
0
LINE
8
BLACK
6
CONTINUOUS
10
2.68217
20
0.0662617
11
2.68231
21
0.0665448
0
LINE
8
BLACK
6
CONTINUOUS
10
2.68231
20
0.0665448
11
2.68231
21
0.0668625
0
LINE
8
BLACK
6
CONTINUOUS
10
2.68231
20
0.0668625
11
2.68285
21
0.0676084
0
LINE
8
BLACK
6
CONTINUOUS
10
2.68285
20
0.0676084
11
2.68327
21
0.0684298
0
LINE
8
BLACK
6
CONTINUOUS
10
2.68327
20
0.0684298
11
2.71186
21
0.0970189
0
LINE
8
BLACK
6
CONTINUOUS
10
2.71186
20
0.0970189
11
2.7138
21
0.102843
0
LINE
8
BLACK
6
CONTINUOUS
10
2.7138
20
0.102843
11
2.7138
21
0.106149
0
LINE
8
BLACK
6
CONTINUOUS
10
2.7138
20
0.106149
11
2.71207
21
0.109621
0
LINE
8
BLACK
6
CONTINUOUS
10
2.71207
20
0.109621
11
2.71053
21
0.111154
0
LINE
8
BLACK
6
CONTINUOUS
10
2.71053
20
0.111154
11
2.70706
21
0.11289
0
LINE
8
BLACK
6
CONTINUOUS
10
2.70706
20
0.11289
11
2.69673
21
0.11289
0
LINE
8
BLACK
6
CONTINUOUS
10
2.69673
20
0.11289
11
2.69326
21
0.111154
0
LINE
8
BLACK
6
CONTINUOUS
10
2.69326
20
0.111154
11
2.69128
21
0.109169
0
LINE
8
BLACK
6
CONTINUOUS
10
2.69128
20
0.109169
11
2.68911
21
0.108064
0
LINE
8
BLACK
6
CONTINUOUS
10
2.68911
20
0.108064
11
2.68671
21
0.108445
0
LINE
8
BLACK
6
CONTINUOUS
10
2.68671
20
0.108445
11
2.68498
21
0.110165
0
LINE
8
BLACK
6
CONTINUOUS
10
2.68498
20
0.110165
11
2.6846
21
0.112569
0
LINE
8
BLACK
6
CONTINUOUS
10
2.6846
20
0.112569
11
2.68571
21
0.114736
0
LINE
8
BLACK
6
CONTINUOUS
10
2.68571
20
0.114736
11
2.68815
21
0.117174
0
LINE
8
BLACK
6
CONTINUOUS
10
2.68815
20
0.117174
11
2.68871
21
0.117463
0
LINE
8
BLACK
6
CONTINUOUS
10
2.68871
20
0.117463
11
2.68917
21
0.117911
0
LINE
8
BLACK
6
CONTINUOUS
10
2.68917
20
0.117911
11
2.69404
21
0.120348
0
LINE
8
BLACK
6
CONTINUOUS
10
2.69404
20
0.120348
11
2.69494
21
0.120484
0
LINE
8
BLACK
6
CONTINUOUS
10
2.69494
20
0.120484
11
2.6958
21
0.120764
0
LINE
8
BLACK
6
CONTINUOUS
10
2.6958
20
0.120764
11
2.70799
21
0.120764
0
LINE
8
BLACK
6
CONTINUOUS
10
2.70799
20
0.120764
11
2.70885
21
0.120484
0
LINE
8
BLACK
6
CONTINUOUS
10
2.60893
20
0.120484
11
2.60983
21
0.120348
0
LINE
8
BLACK
6
CONTINUOUS
10
2.60983
20
0.120348
11
2.6147
21
0.117911
0
LINE
8
BLACK
6
CONTINUOUS
10
2.6147
20
0.117911
11
2.61515
21
0.117463
0
LINE
8
BLACK
6
CONTINUOUS
10
2.61515
20
0.117463
11
2.61572
21
0.117174
0
LINE
8
BLACK
6
CONTINUOUS
10
2.61572
20
0.117174
11
2.61816
21
0.114736
0
LINE
8
BLACK
6
CONTINUOUS
10
2.61816
20
0.114736
11
2.61845
21
0.114168
0
LINE
8
BLACK
6
CONTINUOUS
10
2.61845
20
0.114168
11
2.6189
21
0.113713
0
LINE
8
BLACK
6
CONTINUOUS
10
2.6189
20
0.113713
11
2.62134
21
0.108839
0
LINE
8
BLACK
6
CONTINUOUS
10
2.62134
20
0.108839
11
2.6214
21
0.108405
0
LINE
8
BLACK
6
CONTINUOUS
10
2.6214
20
0.108405
11
2.62163
21
0.108033
0
LINE
8
BLACK
6
CONTINUOUS
10
2.62163
20
0.108033
11
2.62407
21
0.0982843
0
LINE
8
BLACK
6
CONTINUOUS
10
2.62407
20
0.0982843
11
2.62404
21
0.0977955
0
LINE
8
BLACK
6
CONTINUOUS
10
2.62404
20
0.0977955
11
2.62419
21
0.0973294
0
LINE
8
BLACK
6
CONTINUOUS
10
2.62419
20
0.0973294
11
2.62419
21
0.0851434
0
LINE
8
BLACK
6
CONTINUOUS
10
2.62419
20
0.0851434
11
2.62404
21
0.0846774
0
LINE
8
BLACK
6
CONTINUOUS
10
2.62404
20
0.0846774
11
2.62407
21
0.0841886
0
LINE
8
BLACK
6
CONTINUOUS
10
2.62407
20
0.0841886
11
2.62163
21
0.0744398
0
LINE
8
BLACK
6
CONTINUOUS
10
2.62163
20
0.0744398
11
2.6214
21
0.0740679
0
LINE
8
BLACK
6
CONTINUOUS
10
2.6214
20
0.0740679
11
2.62134
21
0.0736339
0
LINE
8
BLACK
6
CONTINUOUS
10
2.62134
20
0.0736339
11
2.6189
21
0.0687596
0
LINE
8
BLACK
6
CONTINUOUS
10
2.6189
20
0.0687596
11
2.61845
21
0.0683049
0
LINE
8
BLACK
6
CONTINUOUS
10
2.61845
20
0.0683049
11
2.61816
21
0.0677364
0
LINE
8
BLACK
6
CONTINUOUS
10
2.61816
20
0.0677364
11
2.61572
21
0.0652992
0
LINE
8
BLACK
6
CONTINUOUS
10
2.61572
20
0.0652992
11
2.61515
21
0.0650095
0
LINE
8
BLACK
6
CONTINUOUS
10
2.61515
20
0.0650095
11
2.6147
21
0.0645617
0
LINE
8
BLACK
6
CONTINUOUS
10
2.6147
20
0.0645617
11
2.60983
21
0.0621245
0
LINE
8
BLACK
6
CONTINUOUS
10
2.60983
20
0.0621245
11
2.60893
21
0.0619893
0
LINE
8
BLACK
6
CONTINUOUS
10
2.60893
20
0.0619893
11
2.60807
21
0.0617089
0
LINE
8
BLACK
6
CONTINUOUS
10
2.60807
20
0.0617089
11
2.60319
21
0.0617089
0
LINE
8
BLACK
6
CONTINUOUS
10
2.60319
20
0.0617089
11
2.60233
21
0.0619893
0
LINE
8
BLACK
6
CONTINUOUS
10
2.60233
20
0.0619893
11
2.60143
21
0.0621245
0
LINE
8
BLACK
6
CONTINUOUS
10
2.60143
20
0.0621245
11
2.59656
21
0.0645617
0
LINE
8
BLACK
6
CONTINUOUS
10
2.59656
20
0.0645617
11
2.5961
21
0.0650095
0
LINE
8
BLACK
6
CONTINUOUS
10
2.5961
20
0.0650095
11
2.59553
21
0.0652992
0
LINE
8
BLACK
6
CONTINUOUS
10
2.59553
20
0.0652992
11
2.5931
21
0.0677364
0
LINE
8
BLACK
6
CONTINUOUS
10
2.5931
20
0.0677364
11
2.59281
21
0.0683049
0
LINE
8
BLACK
6
CONTINUOUS
10
2.59281
20
0.0683049
11
2.59236
21
0.0687596
0
LINE
8
BLACK
6
CONTINUOUS
10
2.59236
20
0.0687596
11
2.58992
21
0.0736339
0
LINE
8
BLACK
6
CONTINUOUS
10
2.58992
20
0.0736339
11
2.58986
21
0.0740679
0
LINE
8
BLACK
6
CONTINUOUS
10
2.58986
20
0.0740679
11
2.58962
21
0.0744398
0
LINE
8
BLACK
6
CONTINUOUS
10
2.58962
20
0.0744398
11
2.58719
21
0.0841885
0
LINE
8
BLACK
6
CONTINUOUS
10
2.58719
20
0.0841885
11
2.58722
21
0.0846774
0
LINE
8
BLACK
6
CONTINUOUS
10
2.58722
20
0.0846774
11
2.58707
21
0.0851434
0
LINE
8
BLACK
6
CONTINUOUS
10
2.58707
20
0.0851434
11
2.58707
21
0.0973294
0
LINE
8
BLACK
6
CONTINUOUS
10
2.58707
20
0.0973294
11
2.58722
21
0.0977954
0
LINE
8
BLACK
6
CONTINUOUS
10
2.58722
20
0.0977954
11
2.58719
21
0.0982843
0
LINE
8
BLACK
6
CONTINUOUS
10
2.58719
20
0.0982843
11
2.58962
21
0.108033
0
LINE
8
BLACK
6
CONTINUOUS
10
2.58962
20
0.108033
11
2.58986
21
0.108405
0
LINE
8
BLACK
6
CONTINUOUS
10
2.58986
20
0.108405
11
2.58992
21
0.108839
0
LINE
8
BLACK
6
CONTINUOUS
10
2.58992
20
0.108839
11
2.59236
21
0.113713
0
LINE
8
BLACK
6
CONTINUOUS
10
2.59236
20
0.113713
11
2.59281
21
0.114168
0
LINE
8
BLACK
6
CONTINUOUS
10
2.59281
20
0.114168
11
2.5931
21
0.114736
0
LINE
8
BLACK
6
CONTINUOUS
10
2.5931
20
0.114736
11
2.59553
21
0.117174
0
LINE
8
BLACK
6
CONTINUOUS
10
2.59553
20
0.117174
11
2.5961
21
0.117463
0
LINE
8
BLACK
6
CONTINUOUS
10
2.5961
20
0.117463
11
2.59656
21
0.117911
0
LINE
8
BLACK
6
CONTINUOUS
10
2.59656
20
0.117911
11
2.60143
21
0.120348
0
LINE
8
BLACK
6
CONTINUOUS
10
2.60143
20
0.120348
11
2.60233
21
0.120484
0
LINE
8
BLACK
6
CONTINUOUS
10
2.60233
20
0.120484
11
2.60319
21
0.120764
0
LINE
8
BLACK
6
CONTINUOUS
10
2.60319
20
0.120764
11
2.60807
21
0.120764
0
LINE
8
BLACK
6
CONTINUOUS
10
2.60807
20
0.120764
11
2.60893
21
0.120484
0
LINE
8
BLACK
6
CONTINUOUS
10
2.60412
20
0.11289
11
2.60065
21
0.111154
0
LINE
8
BLACK
6
CONTINUOUS
10
2.60065
20
0.111154
11
2.59911
21
0.109621
0
LINE
8
BLACK
6
CONTINUOUS
10
2.59911
20
0.109621
11
2.59716
21
0.105704
0
LINE
8
BLACK
6
CONTINUOUS
10
2.59716
20
0.105704
11
2.59494
21
0.0968448
0
LINE
8
BLACK
6
CONTINUOUS
10
2.59494
20
0.0968448
11
2.59494
21
0.0856281
0
LINE
8
BLACK
6
CONTINUOUS
10
2.59494
20
0.0856281
11
2.59716
21
0.0767689
0
LINE
8
BLACK
6
CONTINUOUS
10
2.59716
20
0.0767689
11
2.59911
21
0.0728524
0
LINE
8
BLACK
6
CONTINUOUS
10
2.59911
20
0.0728524
11
2.60065
21
0.0713187
0
LINE
8
BLACK
6
CONTINUOUS
10
2.60065
20
0.0713187
11
2.60412
21
0.0695829
0
LINE
8
BLACK
6
CONTINUOUS
10
2.60412
20
0.0695829
11
2.60714
21
0.0695829
0
LINE
8
BLACK
6
CONTINUOUS
10
2.60714
20
0.0695829
11
2.61061
21
0.0713187
0
LINE
8
BLACK
6
CONTINUOUS
10
2.61061
20
0.0713187
11
2.61214
21
0.0728524
0
LINE
8
BLACK
6
CONTINUOUS
10
2.61214
20
0.0728524
11
2.6141
21
0.0767689
0
LINE
8
BLACK
6
CONTINUOUS
10
2.6141
20
0.0767689
11
2.61631
21
0.0856281
0
LINE
8
BLACK
6
CONTINUOUS
10
2.61631
20
0.0856281
11
2.61631
21
0.0968448
0
LINE
8
BLACK
6
CONTINUOUS
10
2.61631
20
0.0968448
11
2.6141
21
0.105704
0
LINE
8
BLACK
6
CONTINUOUS
10
2.6141
20
0.105704
11
2.61214
21
0.109621
0
LINE
8
BLACK
6
CONTINUOUS
10
2.61214
20
0.109621
11
2.61061
21
0.111154
0
LINE
8
BLACK
6
CONTINUOUS
10
2.61061
20
0.111154
11
2.60714
21
0.11289
0
LINE
8
BLACK
6
CONTINUOUS
10
2.60714
20
0.11289
11
2.60412
21
0.11289
0
LINE
8
BLACK
6
CONTINUOUS
10
2.56262
20
0.120484
11
2.56352
21
0.120348
0
LINE
8
BLACK
6
CONTINUOUS
10
2.56352
20
0.120348
11
2.56839
21
0.117911
0
LINE
8
BLACK
6
CONTINUOUS
10
2.56839
20
0.117911
11
2.56885
21
0.117463
0
LINE
8
BLACK
6
CONTINUOUS
10
2.56885
20
0.117463
11
2.56942
21
0.117174
0
LINE
8
BLACK
6
CONTINUOUS
10
2.56942
20
0.117174
11
2.57185
21
0.114736
0
LINE
8
BLACK
6
CONTINUOUS
10
2.57185
20
0.114736
11
2.57214
21
0.114168
0
LINE
8
BLACK
6
CONTINUOUS
10
2.57214
20
0.114168
11
2.57259
21
0.113713
0
LINE
8
BLACK
6
CONTINUOUS
10
2.57259
20
0.113713
11
2.57503
21
0.108839
0
LINE
8
BLACK
6
CONTINUOUS
10
2.57503
20
0.108839
11
2.57516
21
0.107941
0
LINE
8
BLACK
6
CONTINUOUS
10
2.57516
20
0.107941
11
2.57544
21
0.107078
0
LINE
8
BLACK
6
CONTINUOUS
10
2.57544
20
0.107078
11
2.57544
21
0.102204
0
LINE
8
BLACK
6
CONTINUOUS
10
2.57544
20
0.102204
11
2.57525
21
0.101597
0
LINE
8
BLACK
6
CONTINUOUS
10
2.57525
20
0.101597
11
2.57524
21
0.100959
0
LINE
8
BLACK
6
CONTINUOUS
10
2.57524
20
0.100959
11
2.57281
21
0.0936472
0
LINE
8
BLACK
6
CONTINUOUS
10
2.57281
20
0.0936472
11
2.57227
21
0.092917
0
LINE
8
BLACK
6
CONTINUOUS
10
2.57227
20
0.092917
11
2.57185
21
0.0921083
0
LINE
8
BLACK
6
CONTINUOUS
10
2.57185
20
0.0921083
11
2.54933
21
0.0695829
0
LINE
8
BLACK
6
CONTINUOUS
10
2.54933
20
0.0695829
11
2.57151
21
0.0695829
0
LINE
8
BLACK
6
CONTINUOUS
10
2.57151
20
0.0695829
11
2.57382
21
0.068831
0
LINE
8
BLACK
6
CONTINUOUS
10
2.57382
20
0.068831
11
2.57525
21
0.0668625
0
LINE
8
BLACK
6
CONTINUOUS
10
2.57525
20
0.0668625
11
2.57525
21
0.0644293
0
LINE
8
BLACK
6
CONTINUOUS
10
2.57525
20
0.0644293
11
2.57382
21
0.0624607
0
LINE
8
BLACK
6
CONTINUOUS
10
2.57382
20
0.0624607
11
2.57151
21
0.0617089
0
LINE
8
BLACK
6
CONTINUOUS
10
2.57151
20
0.0617089
11
2.53982
21
0.0617089
0
LINE
8
BLACK
6
CONTINUOUS
10
2.53982
20
0.0617089
11
2.53895
21
0.0619937
0
LINE
8
BLACK
6
CONTINUOUS
10
2.53895
20
0.0619937
11
2.53804
21
0.062138
0
LINE
8
BLACK
6
CONTINUOUS
10
2.53804
20
0.062138
11
2.53781
21
0.0623626
0
LINE
8
BLACK
6
CONTINUOUS
10
2.53781
20
0.0623626
11
2.53751
21
0.0624607
0
LINE
8
BLACK
6
CONTINUOUS
10
2.53751
20
0.0624607
11
2.53697
21
0.0632067
0
LINE
8
BLACK
6
CONTINUOUS
10
2.53697
20
0.0632067
11
2.53632
21
0.0638585
0
LINE
8
BLACK
6
CONTINUOUS
10
2.53632
20
0.0638585
11
2.53627
21
0.0641722
0
LINE
8
BLACK
6
CONTINUOUS
10
2.53627
20
0.0641722
11
2.53608
21
0.0644293
0
LINE
8
BLACK
6
CONTINUOUS
10
2.53608
20
0.0644293
11
2.53608
21
0.0653512
0
LINE
8
BLACK
6
CONTINUOUS
10
2.53608
20
0.0653512
11
2.53594
21
0.0662617
0
LINE
8
BLACK
6
CONTINUOUS
10
2.53594
20
0.0662617
11
2.53608
21
0.0665448
0
LINE
8
BLACK
6
CONTINUOUS
10
2.53608
20
0.0665448
11
2.53608
21
0.0668625
0
LINE
8
BLACK
6
CONTINUOUS
10
2.53608
20
0.0668625
11
2.53662
21
0.0676084
0
LINE
8
BLACK
6
CONTINUOUS
10
2.53662
20
0.0676084
11
2.53704
21
0.0684298
0
LINE
8
BLACK
6
CONTINUOUS
10
2.53704
20
0.0684298
11
2.56563
21
0.0970189
0
LINE
8
BLACK
6
CONTINUOUS
10
2.56563
20
0.0970189
11
2.56757
21
0.102843
0
LINE
8
BLACK
6
CONTINUOUS
10
2.56757
20
0.102843
11
2.56757
21
0.106149
0
LINE
8
BLACK
6
CONTINUOUS
10
2.56757
20
0.106149
11
2.56583
21
0.109621
0
LINE
8
BLACK
6
CONTINUOUS
10
2.56583
20
0.109621
11
2.5643
21
0.111154
0
LINE
8
BLACK
6
CONTINUOUS
10
2.5643
20
0.111154
11
2.56083
21
0.11289
0
LINE
8
BLACK
6
CONTINUOUS
10
2.56083
20
0.11289
11
2.5505
21
0.11289
0
LINE
8
BLACK
6
CONTINUOUS
10
2.5505
20
0.11289
11
2.54703
21
0.111154
0
LINE
8
BLACK
6
CONTINUOUS
10
2.54703
20
0.111154
11
2.54504
21
0.109169
0
LINE
8
BLACK
6
CONTINUOUS
10
2.54504
20
0.109169
11
2.54288
21
0.108064
0
LINE
8
BLACK
6
CONTINUOUS
10
2.54288
20
0.108064
11
2.54047
21
0.108445
0
LINE
8
BLACK
6
CONTINUOUS
10
2.54047
20
0.108445
11
2.53875
21
0.110165
0
LINE
8
BLACK
6
CONTINUOUS
10
2.53875
20
0.110165
11
2.53837
21
0.112569
0
LINE
8
BLACK
6
CONTINUOUS
10
2.53837
20
0.112569
11
2.53948
21
0.114736
0
LINE
8
BLACK
6
CONTINUOUS
10
2.53948
20
0.114736
11
2.54191
21
0.117174
0
LINE
8
BLACK
6
CONTINUOUS
10
2.54191
20
0.117174
11
2.54248
21
0.117463
0
LINE
8
BLACK
6
CONTINUOUS
10
2.54248
20
0.117463
11
2.54294
21
0.117911
0
LINE
8
BLACK
6
CONTINUOUS
10
2.54294
20
0.117911
11
2.54781
21
0.120348
0
LINE
8
BLACK
6
CONTINUOUS
10
2.54781
20
0.120348
11
2.54871
21
0.120484
0
LINE
8
BLACK
6
CONTINUOUS
10
2.54871
20
0.120484
11
2.54957
21
0.120764
0
LINE
8
BLACK
6
CONTINUOUS
10
2.54957
20
0.120764
11
2.56176
21
0.120764
0
LINE
8
BLACK
6
CONTINUOUS
10
2.56176
20
0.120764
11
2.56262
21
0.120484
0
LINE
8
BLACK
6
CONTINUOUS
10
2.66011
20
0.120484
11
2.66101
21
0.120348
0
LINE
8
BLACK
6
CONTINUOUS
10
2.66101
20
0.120348
11
2.66588
21
0.117911
0
LINE
8
BLACK
6
CONTINUOUS
10
2.66588
20
0.117911
11
2.66634
21
0.117463
0
LINE
8
BLACK
6
CONTINUOUS
10
2.66634
20
0.117463
11
2.6669
21
0.117174
0
LINE
8
BLACK
6
CONTINUOUS
10
2.6669
20
0.117174
11
2.66934
21
0.114736
0
LINE
8
BLACK
6
CONTINUOUS
10
2.66934
20
0.114736
11
2.66963
21
0.114168
0
LINE
8
BLACK
6
CONTINUOUS
10
2.66963
20
0.114168
11
2.67008
21
0.113713
0
LINE
8
BLACK
6
CONTINUOUS
10
2.67008
20
0.113713
11
2.67252
21
0.108839
0
LINE
8
BLACK
6
CONTINUOUS
10
2.67252
20
0.108839
11
2.67265
21
0.107941
0
LINE
8
BLACK
6
CONTINUOUS
10
2.67265
20
0.107941
11
2.67293
21
0.107078
0
LINE
8
BLACK
6
CONTINUOUS
10
2.67293
20
0.107078
11
2.67293
21
0.102204
0
LINE
8
BLACK
6
CONTINUOUS
10
2.67293
20
0.102204
11
2.67273
21
0.101597
0
LINE
8
BLACK
6
CONTINUOUS
10
2.67273
20
0.101597
11
2.67273
21
0.100959
0
LINE
8
BLACK
6
CONTINUOUS
10
2.67273
20
0.100959
11
2.67029
21
0.0936472
0
LINE
8
BLACK
6
CONTINUOUS
10
2.67029
20
0.0936472
11
2.66975
21
0.092917
0
LINE
8
BLACK
6
CONTINUOUS
10
2.66975
20
0.092917
11
2.66934
21
0.0921083
0
LINE
8
BLACK
6
CONTINUOUS
10
2.66934
20
0.0921083
11
2.64682
21
0.0695829
0
LINE
8
BLACK
6
CONTINUOUS
10
2.64682
20
0.0695829
11
2.669
21
0.0695829
0
LINE
8
BLACK
6
CONTINUOUS
10
2.669
20
0.0695829
11
2.67131
21
0.068831
0
LINE
8
BLACK
6
CONTINUOUS
10
2.67131
20
0.068831
11
2.67274
21
0.0668625
0
LINE
8
BLACK
6
CONTINUOUS
10
2.67274
20
0.0668625
11
2.67274
21
0.0644293
0
LINE
8
BLACK
6
CONTINUOUS
10
2.67274
20
0.0644293
11
2.67131
21
0.0624607
0
LINE
8
BLACK
6
CONTINUOUS
10
2.67131
20
0.0624607
11
2.669
21
0.0617089
0
LINE
8
BLACK
6
CONTINUOUS
10
2.669
20
0.0617089
11
2.63731
21
0.0617089
0
LINE
8
BLACK
6
CONTINUOUS
10
2.63731
20
0.0617089
11
2.63643
21
0.0619937
0
LINE
8
BLACK
6
CONTINUOUS
10
2.63643
20
0.0619937
11
2.63552
21
0.062138
0
LINE
8
BLACK
6
CONTINUOUS
10
2.63552
20
0.062138
11
2.6353
21
0.0623626
0
LINE
8
BLACK
6
CONTINUOUS
10
2.6353
20
0.0623626
11
2.635
21
0.0624607
0
LINE
8
BLACK
6
CONTINUOUS
10
2.635
20
0.0624607
11
2.63446
21
0.0632067
0
LINE
8
BLACK
6
CONTINUOUS
10
2.63446
20
0.0632067
11
2.6338
21
0.0638585
0
LINE
8
BLACK
6
CONTINUOUS
10
2.6338
20
0.0638585
11
2.63375
21
0.0641722
0
LINE
8
BLACK
6
CONTINUOUS
10
2.63375
20
0.0641722
11
2.63357
21
0.0644293
0
LINE
8
BLACK
6
CONTINUOUS
10
2.63357
20
0.0644293
11
2.63357
21
0.0653512
0
LINE
8
BLACK
6
CONTINUOUS
10
2.63357
20
0.0653512
11
2.63342
21
0.0662617
0
LINE
8
BLACK
6
CONTINUOUS
10
2.63342
20
0.0662617
11
2.63357
21
0.0665448
0
LINE
8
BLACK
6
CONTINUOUS
10
2.63357
20
0.0665448
11
2.63357
21
0.0668625
0
LINE
8
BLACK
6
CONTINUOUS
10
2.63357
20
0.0668625
11
2.63411
21
0.0676084
0
LINE
8
BLACK
6
CONTINUOUS
10
2.63411
20
0.0676084
11
2.63453
21
0.0684298
0
LINE
8
BLACK
6
CONTINUOUS
10
2.63453
20
0.0684298
11
2.66312
21
0.0970189
0
LINE
8
BLACK
6
CONTINUOUS
10
2.66312
20
0.0970189
11
2.66506
21
0.102843
0
LINE
8
BLACK
6
CONTINUOUS
10
2.66506
20
0.102843
11
2.66506
21
0.106149
0
LINE
8
BLACK
6
CONTINUOUS
10
2.66506
20
0.106149
11
2.66332
21
0.109621
0
LINE
8
BLACK
6
CONTINUOUS
10
2.66332
20
0.109621
11
2.66179
21
0.111154
0
LINE
8
BLACK
6
CONTINUOUS
10
2.66179
20
0.111154
11
2.65832
21
0.11289
0
LINE
8
BLACK
6
CONTINUOUS
10
2.65832
20
0.11289
11
2.64799
21
0.11289
0
LINE
8
BLACK
6
CONTINUOUS
10
2.64799
20
0.11289
11
2.64452
21
0.111154
0
LINE
8
BLACK
6
CONTINUOUS
10
2.64452
20
0.111154
11
2.64253
21
0.109169
0
LINE
8
BLACK
6
CONTINUOUS
10
2.64253
20
0.109169
11
2.64036
21
0.108064
0
LINE
8
BLACK
6
CONTINUOUS
10
2.64036
20
0.108064
11
2.63796
21
0.108445
0
LINE
8
BLACK
6
CONTINUOUS
10
2.63796
20
0.108445
11
2.63624
21
0.110165
0
LINE
8
BLACK
6
CONTINUOUS
10
2.63624
20
0.110165
11
2.63586
21
0.112568
0
LINE
8
BLACK
6
CONTINUOUS
10
2.63586
20
0.112568
11
2.63696
21
0.114736
0
LINE
8
BLACK
6
CONTINUOUS
10
2.63696
20
0.114736
11
2.6394
21
0.117174
0
LINE
8
BLACK
6
CONTINUOUS
10
2.6394
20
0.117174
11
2.63997
21
0.117463
0
LINE
8
BLACK
6
CONTINUOUS
10
2.63997
20
0.117463
11
2.64043
21
0.117911
0
LINE
8
BLACK
6
CONTINUOUS
10
2.64043
20
0.117911
11
2.6453
21
0.120348
0
LINE
8
BLACK
6
CONTINUOUS
10
2.6453
20
0.120348
11
2.6462
21
0.120484
0
LINE
8
BLACK
6
CONTINUOUS
10
2.6462
20
0.120484
11
2.64706
21
0.120764
0
LINE
8
BLACK
6
CONTINUOUS
10
2.64706
20
0.120764
11
2.65925
21
0.120764
0
LINE
8
BLACK
6
CONTINUOUS
10
2.65925
20
0.120764
11
2.66011
21
0.120484
0
LINE
8
BLACK
6
CONTINUOUS
10
2.53935
20
0.201543
11
2.5401
21
0.199229
0
LINE
8
BLACK
6
CONTINUOUS
10
2.5401
20
0.199229
11
2.5401
21
0.162671
0
LINE
8
BLACK
6
CONTINUOUS
10
2.5401
20
0.162671
11
2.53991
21
0.162064
0
LINE
8
BLACK
6
CONTINUOUS
10
2.53991
20
0.162064
11
2.5399
21
0.161426
0
LINE
8
BLACK
6
CONTINUOUS
10
2.5399
20
0.161426
11
2.53747
21
0.154114
0
LINE
8
BLACK
6
CONTINUOUS
10
2.53747
20
0.154114
11
2.53693
21
0.153384
0
LINE
8
BLACK
6
CONTINUOUS
10
2.53693
20
0.153384
11
2.53651
21
0.152575
0
LINE
8
BLACK
6
CONTINUOUS
10
2.53651
20
0.152575
11
2.53164
21
0.147701
0
LINE
8
BLACK
6
CONTINUOUS
10
2.53164
20
0.147701
11
2.53083
21
0.147289
0
LINE
8
BLACK
6
CONTINUOUS
10
2.53083
20
0.147289
11
2.5301
21
0.14675
0
LINE
8
BLACK
6
CONTINUOUS
10
2.5301
20
0.14675
11
2.52279
21
0.144312
0
LINE
8
BLACK
6
CONTINUOUS
10
2.52279
20
0.144312
11
2.52215
21
0.144308
0
LINE
8
BLACK
6
CONTINUOUS
10
2.52215
20
0.144308
11
2.52154
21
0.14411
0
LINE
8
BLACK
6
CONTINUOUS
10
2.52154
20
0.14411
11
2.51667
21
0.14411
0
LINE
8
BLACK
6
CONTINUOUS
10
2.51667
20
0.14411
11
2.51436
21
0.144862
0
LINE
8
BLACK
6
CONTINUOUS
10
2.51436
20
0.144862
11
2.51293
21
0.146831
0
LINE
8
BLACK
6
CONTINUOUS
10
2.51293
20
0.146831
11
2.51293
21
0.149264
0
LINE
8
BLACK
6
CONTINUOUS
10
2.51293
20
0.149264
11
2.51436
21
0.151233
0
LINE
8
BLACK
6
CONTINUOUS
10
2.51436
20
0.151233
11
2.51667
21
0.151984
0
LINE
8
BLACK
6
CONTINUOUS
10
2.51667
20
0.151984
11
2.52091
21
0.151984
0
LINE
8
BLACK
6
CONTINUOUS
10
2.52091
20
0.151984
11
2.52673
21
0.153926
0
LINE
8
BLACK
6
CONTINUOUS
10
2.52673
20
0.153926
11
2.53029
21
0.157486
0
LINE
8
BLACK
6
CONTINUOUS
10
2.53029
20
0.157486
11
2.53223
21
0.163309
0
LINE
8
BLACK
6
CONTINUOUS
10
2.53223
20
0.163309
11
2.53223
21
0.199229
0
LINE
8
BLACK
6
CONTINUOUS
10
2.53223
20
0.199229
11
2.53298
21
0.201543
0
LINE
8
BLACK
6
CONTINUOUS
10
2.53298
20
0.201543
11
2.53495
21
0.202973
0
LINE
8
BLACK
6
CONTINUOUS
10
2.53495
20
0.202973
11
2.53738
21
0.202973
0
LINE
8
BLACK
6
CONTINUOUS
10
2.53738
20
0.202973
11
2.53935
21
0.201543
0
LINE
8
BLACK
6
CONTINUOUS
10
2.62451
20
0.202968
11
2.62515
21
0.202964
0
LINE
8
BLACK
6
CONTINUOUS
10
2.62515
20
0.202964
11
2.63246
21
0.200526
0
LINE
8
BLACK
6
CONTINUOUS
10
2.63246
20
0.200526
11
2.63319
21
0.199987
0
LINE
8
BLACK
6
CONTINUOUS
10
2.63319
20
0.199987
11
2.634
21
0.199575
0
LINE
8
BLACK
6
CONTINUOUS
10
2.634
20
0.199575
11
2.63644
21
0.197138
0
LINE
8
BLACK
6
CONTINUOUS
10
2.63644
20
0.197138
11
2.63754
21
0.19497
0
LINE
8
BLACK
6
CONTINUOUS
10
2.63754
20
0.19497
11
2.63716
21
0.192567
0
LINE
8
BLACK
6
CONTINUOUS
10
2.63716
20
0.192567
11
2.63544
21
0.190846
0
LINE
8
BLACK
6
CONTINUOUS
10
2.63544
20
0.190846
11
2.63304
21
0.190466
0
LINE
8
BLACK
6
CONTINUOUS
10
2.63304
20
0.190466
11
2.63087
21
0.19157
0
LINE
8
BLACK
6
CONTINUOUS
10
2.63087
20
0.19157
11
2.62909
21
0.19335
0
LINE
8
BLACK
6
CONTINUOUS
10
2.62909
20
0.19335
11
2.62327
21
0.195292
0
LINE
8
BLACK
6
CONTINUOUS
10
2.62327
20
0.195292
11
2.61967
21
0.195292
0
LINE
8
BLACK
6
CONTINUOUS
10
2.61967
20
0.195292
11
2.61385
21
0.19335
0
LINE
8
BLACK
6
CONTINUOUS
10
2.61385
20
0.19335
11
2.61008
21
0.189585
0
LINE
8
BLACK
6
CONTINUOUS
10
2.61008
20
0.189585
11
2.60812
21
0.185668
0
LINE
8
BLACK
6
CONTINUOUS
10
2.60812
20
0.185668
11
2.60591
21
0.176809
0
LINE
8
BLACK
6
CONTINUOUS
10
2.60591
20
0.176809
11
2.60591
21
0.170467
0
LINE
8
BLACK
6
CONTINUOUS
10
2.60591
20
0.170467
11
2.60812
21
0.161608
0
LINE
8
BLACK
6
CONTINUOUS
10
2.60812
20
0.161608
11
2.61008
21
0.157691
0
LINE
8
BLACK
6
CONTINUOUS
10
2.61008
20
0.157691
11
2.61385
21
0.153926
0
LINE
8
BLACK
6
CONTINUOUS
10
2.61385
20
0.153926
11
2.61967
21
0.151984
0
LINE
8
BLACK
6
CONTINUOUS
10
2.61967
20
0.151984
11
2.62327
21
0.151984
0
LINE
8
BLACK
6
CONTINUOUS
10
2.62327
20
0.151984
11
2.62909
21
0.153926
0
LINE
8
BLACK
6
CONTINUOUS
10
2.62909
20
0.153926
11
2.63087
21
0.155706
0
LINE
8
BLACK
6
CONTINUOUS
10
2.63087
20
0.155706
11
2.63304
21
0.15681
0
LINE
8
BLACK
6
CONTINUOUS
10
2.63304
20
0.15681
11
2.63544
21
0.15643
0
LINE
8
BLACK
6
CONTINUOUS
10
2.63544
20
0.15643
11
2.63716
21
0.154709
0
LINE
8
BLACK
6
CONTINUOUS
10
2.63716
20
0.154709
11
2.63754
21
0.152306
0
LINE
8
BLACK
6
CONTINUOUS
10
2.63754
20
0.152306
11
2.63644
21
0.150138
0
LINE
8
BLACK
6
CONTINUOUS
10
2.63644
20
0.150138
11
2.634
21
0.147701
0
LINE
8
BLACK
6
CONTINUOUS
10
2.634
20
0.147701
11
2.63319
21
0.147289
0
LINE
8
BLACK
6
CONTINUOUS
10
2.63319
20
0.147289
11
2.63246
21
0.14675
0
LINE
8
BLACK
6
CONTINUOUS
10
2.63246
20
0.14675
11
2.62515
21
0.144312
0
LINE
8
BLACK
6
CONTINUOUS
10
2.62515
20
0.144312
11
2.62451
21
0.144308
0
LINE
8
BLACK
6
CONTINUOUS
10
2.62451
20
0.144308
11
2.62391
21
0.14411
0
LINE
8
BLACK
6
CONTINUOUS
10
2.62391
20
0.14411
11
2.61903
21
0.14411
0
LINE
8
BLACK
6
CONTINUOUS
10
2.61903
20
0.14411
11
2.61843
21
0.144308
0
LINE
8
BLACK
6
CONTINUOUS
10
2.61843
20
0.144308
11
2.61779
21
0.144312
0
LINE
8
BLACK
6
CONTINUOUS
10
2.61779
20
0.144312
11
2.61048
21
0.14675
0
LINE
8
BLACK
6
CONTINUOUS
10
2.61048
20
0.14675
11
2.60975
21
0.147289
0
LINE
8
BLACK
6
CONTINUOUS
10
2.60975
20
0.147289
11
2.60894
21
0.147701
0
LINE
8
BLACK
6
CONTINUOUS
10
2.60894
20
0.147701
11
2.60406
21
0.152575
0
LINE
8
BLACK
6
CONTINUOUS
10
2.60406
20
0.152575
11
2.60377
21
0.153144
0
LINE
8
BLACK
6
CONTINUOUS
10
2.60377
20
0.153144
11
2.60333
21
0.153598
0
LINE
8
BLACK
6
CONTINUOUS
10
2.60333
20
0.153598
11
2.60089
21
0.158473
0
LINE
8
BLACK
6
CONTINUOUS
10
2.60089
20
0.158473
11
2.60082
21
0.158907
0
LINE
8
BLACK
6
CONTINUOUS
10
2.60082
20
0.158907
11
2.60059
21
0.159279
0
LINE
8
BLACK
6
CONTINUOUS
10
2.60059
20
0.159279
11
2.59815
21
0.169027
0
LINE
8
BLACK
6
CONTINUOUS
10
2.59815
20
0.169027
11
2.59819
21
0.169516
0
LINE
8
BLACK
6
CONTINUOUS
10
2.59819
20
0.169516
11
2.59804
21
0.169982
0
LINE
8
BLACK
6
CONTINUOUS
10
2.59804
20
0.169982
11
2.59804
21
0.177294
0
LINE
8
BLACK
6
CONTINUOUS
10
2.59804
20
0.177294
11
2.59819
21
0.17776
0
LINE
8
BLACK
6
CONTINUOUS
10
2.59819
20
0.17776
11
2.59815
21
0.178249
0
LINE
8
BLACK
6
CONTINUOUS
10
2.59815
20
0.178249
11
2.60059
21
0.187997
0
LINE
8
BLACK
6
CONTINUOUS
10
2.60059
20
0.187997
11
2.60082
21
0.188369
0
LINE
8
BLACK
6
CONTINUOUS
10
2.60082
20
0.188369
11
2.60089
21
0.188803
0
LINE
8
BLACK
6
CONTINUOUS
10
2.60089
20
0.188803
11
2.60333
21
0.193678
0
LINE
8
BLACK
6
CONTINUOUS
10
2.60333
20
0.193678
11
2.60377
21
0.194132
0
LINE
8
BLACK
6
CONTINUOUS
10
2.60377
20
0.194132
11
2.60406
21
0.194701
0
LINE
8
BLACK
6
CONTINUOUS
10
2.60406
20
0.194701
11
2.60894
21
0.199575
0
LINE
8
BLACK
6
CONTINUOUS
10
2.60894
20
0.199575
11
2.60975
21
0.199987
0
LINE
8
BLACK
6
CONTINUOUS
10
2.60975
20
0.199987
11
2.61048
21
0.200526
0
LINE
8
BLACK
6
CONTINUOUS
10
2.61048
20
0.200526
11
2.61779
21
0.202964
0
LINE
8
BLACK
6
CONTINUOUS
10
2.61779
20
0.202964
11
2.61843
21
0.202968
0
LINE
8
BLACK
6
CONTINUOUS
10
2.61843
20
0.202968
11
2.61903
21
0.203166
0
LINE
8
BLACK
6
CONTINUOUS
10
2.61903
20
0.203166
11
2.62391
21
0.203166
0
LINE
8
BLACK
6
CONTINUOUS
10
2.62391
20
0.203166
11
2.62451
21
0.202968
0
LINE
8
BLACK
6
CONTINUOUS
10
2.72957
20
0.202885
11
2.73047
21
0.20275
0
LINE
8
BLACK
6
CONTINUOUS
10
2.73047
20
0.20275
11
2.73534
21
0.200313
0
LINE
8
BLACK
6
CONTINUOUS
10
2.73534
20
0.200313
11
2.7358
21
0.199865
0
LINE
8
BLACK
6
CONTINUOUS
10
2.7358
20
0.199865
11
2.73636
21
0.199575
0
LINE
8
BLACK
6
CONTINUOUS
10
2.73636
20
0.199575
11
2.74124
21
0.194701
0
LINE
8
BLACK
6
CONTINUOUS
10
2.74124
20
0.194701
11
2.74172
21
0.193764
0
LINE
8
BLACK
6
CONTINUOUS
10
2.74172
20
0.193764
11
2.74227
21
0.192872
0
LINE
8
BLACK
6
CONTINUOUS
10
2.74227
20
0.192872
11
2.74471
21
0.183123
0
LINE
8
BLACK
6
CONTINUOUS
10
2.74471
20
0.183123
11
2.74468
21
0.182634
0
LINE
8
BLACK
6
CONTINUOUS
10
2.74468
20
0.182634
11
2.74483
21
0.182168
0
LINE
8
BLACK
6
CONTINUOUS
10
2.74483
20
0.182168
11
2.74483
21
0.165108
0
LINE
8
BLACK
6
CONTINUOUS
10
2.74483
20
0.165108
11
2.74468
21
0.164642
0
LINE
8
BLACK
6
CONTINUOUS
10
2.74468
20
0.164642
11
2.74471
21
0.164153
0
LINE
8
BLACK
6
CONTINUOUS
10
2.74471
20
0.164153
11
2.74227
21
0.154404
0
LINE
8
BLACK
6
CONTINUOUS
10
2.74227
20
0.154404
11
2.74172
21
0.153512
0
LINE
8
BLACK
6
CONTINUOUS
10
2.74172
20
0.153512
11
2.74124
21
0.152575
0
LINE
8
BLACK
6
CONTINUOUS
10
2.74124
20
0.152575
11
2.73636
21
0.147701
0
LINE
8
BLACK
6
CONTINUOUS
10
2.73636
20
0.147701
11
2.7358
21
0.147411
0
LINE
8
BLACK
6
CONTINUOUS
10
2.7358
20
0.147411
11
2.73534
21
0.146963
0
LINE
8
BLACK
6
CONTINUOUS
10
2.73534
20
0.146963
11
2.73047
21
0.144526
0
LINE
8
BLACK
6
CONTINUOUS
10
2.73047
20
0.144526
11
2.72957
21
0.144391
0
LINE
8
BLACK
6
CONTINUOUS
10
2.72957
20
0.144391
11
2.72871
21
0.14411
0
LINE
8
BLACK
6
CONTINUOUS
10
2.72871
20
0.14411
11
2.71896
21
0.14411
0
LINE
8
BLACK
6
CONTINUOUS
10
2.71896
20
0.14411
11
2.71809
21
0.144391
0
LINE
8
BLACK
6
CONTINUOUS
10
2.71809
20
0.144391
11
2.7172
21
0.144526
0
LINE
8
BLACK
6
CONTINUOUS
10
2.7172
20
0.144526
11
2.71232
21
0.146963
0
LINE
8
BLACK
6
CONTINUOUS
10
2.71232
20
0.146963
11
2.71187
21
0.147411
0
LINE
8
BLACK
6
CONTINUOUS
10
2.71187
20
0.147411
11
2.7113
21
0.147701
0
LINE
8
BLACK
6
CONTINUOUS
10
2.7113
20
0.147701
11
2.70642
21
0.152575
0
LINE
8
BLACK
6
CONTINUOUS
10
2.70642
20
0.152575
11
2.70595
21
0.153512
0
LINE
8
BLACK
6
CONTINUOUS
10
2.70595
20
0.153512
11
2.70539
21
0.154404
0
LINE
8
BLACK
6
CONTINUOUS
10
2.70539
20
0.154404
11
2.70295
21
0.164153
0
LINE
8
BLACK
6
CONTINUOUS
10
2.70295
20
0.164153
11
2.70299
21
0.164642
0
LINE
8
BLACK
6
CONTINUOUS
10
2.70299
20
0.164642
11
2.70283
21
0.165108
0
LINE
8
BLACK
6
CONTINUOUS
10
2.70283
20
0.165108
11
2.70283
21
0.182168
0
LINE
8
BLACK
6
CONTINUOUS
10
2.70283
20
0.182168
11
2.70299
21
0.182634
0
LINE
8
BLACK
6
CONTINUOUS
10
2.70299
20
0.182634
11
2.70295
21
0.183123
0
LINE
8
BLACK
6
CONTINUOUS
10
2.70295
20
0.183123
11
2.70539
21
0.192872
0
LINE
8
BLACK
6
CONTINUOUS
10
2.70539
20
0.192872
11
2.70595
21
0.193764
0
LINE
8
BLACK
6
CONTINUOUS
10
2.70595
20
0.193764
11
2.70642
21
0.194701
0
LINE
8
BLACK
6
CONTINUOUS
10
2.70642
20
0.194701
11
2.7113
21
0.199575
0
LINE
8
BLACK
6
CONTINUOUS
10
2.7113
20
0.199575
11
2.71187
21
0.199865
0
LINE
8
BLACK
6
CONTINUOUS
10
2.71187
20
0.199865
11
2.71232
21
0.200313
0
LINE
8
BLACK
6
CONTINUOUS
10
2.71232
20
0.200313
11
2.7172
21
0.20275
0
LINE
8
BLACK
6
CONTINUOUS
10
2.7172
20
0.20275
11
2.71809
21
0.202885
0
LINE
8
BLACK
6
CONTINUOUS
10
2.71809
20
0.202885
11
2.71896
21
0.203166
0
LINE
8
BLACK
6
CONTINUOUS
10
2.71896
20
0.203166
11
2.72871
21
0.203166
0
LINE
8
BLACK
6
CONTINUOUS
10
2.72871
20
0.203166
11
2.72957
21
0.202885
0
LINE
8
BLACK
6
CONTINUOUS
10
2.71989
20
0.195292
11
2.71642
21
0.193556
0
LINE
8
BLACK
6
CONTINUOUS
10
2.71642
20
0.193556
11
2.71276
21
0.189904
0
LINE
8
BLACK
6
CONTINUOUS
10
2.71276
20
0.189904
11
2.71071
21
0.181684
0
LINE
8
BLACK
6
CONTINUOUS
10
2.71071
20
0.181684
11
2.71071
21
0.165592
0
LINE
8
BLACK
6
CONTINUOUS
10
2.71071
20
0.165592
11
2.71276
21
0.157372
0
LINE
8
BLACK
6
CONTINUOUS
10
2.71276
20
0.157372
11
2.71642
21
0.15372
0
LINE
8
BLACK
6
CONTINUOUS
10
2.71642
20
0.15372
11
2.71989
21
0.151984
0
LINE
8
BLACK
6
CONTINUOUS
10
2.71989
20
0.151984
11
2.72778
21
0.151984
0
LINE
8
BLACK
6
CONTINUOUS
10
2.72778
20
0.151984
11
2.73125
21
0.15372
0
LINE
8
BLACK
6
CONTINUOUS
10
2.73125
20
0.15372
11
2.7349
21
0.157372
0
LINE
8
BLACK
6
CONTINUOUS
10
2.7349
20
0.157372
11
2.73696
21
0.165592
0
LINE
8
BLACK
6
CONTINUOUS
10
2.73696
20
0.165592
11
2.73696
21
0.181684
0
LINE
8
BLACK
6
CONTINUOUS
10
2.73696
20
0.181684
11
2.7349
21
0.189904
0
LINE
8
BLACK
6
CONTINUOUS
10
2.7349
20
0.189904
11
2.73125
21
0.193556
0
LINE
8
BLACK
6
CONTINUOUS
10
2.73125
20
0.193556
11
2.72778
21
0.195292
0
LINE
8
BLACK
6
CONTINUOUS
10
2.72778
20
0.195292
11
2.71989
21
0.195292
0
LINE
8
BLACK
6
CONTINUOUS
10
2.57029
20
0.203156
11
2.57032
21
0.203165
0
LINE
8
BLACK
6
CONTINUOUS
10
2.57032
20
0.203165
11
2.57144
21
0.20279
0
LINE
8
BLACK
6
CONTINUOUS
10
2.57144
20
0.20279
11
2.57258
21
0.202431
0
LINE
8
BLACK
6
CONTINUOUS
10
2.57258
20
0.202431
11
2.5726
21
0.202406
0
LINE
8
BLACK
6
CONTINUOUS
10
2.5726
20
0.202406
11
2.57263
21
0.202396
0
LINE
8
BLACK
6
CONTINUOUS
10
2.57263
20
0.202396
11
2.57332
21
0.201429
0
LINE
8
BLACK
6
CONTINUOUS
10
2.57332
20
0.201429
11
2.57402
21
0.200474
0
LINE
8
BLACK
6
CONTINUOUS
10
2.57402
20
0.200474
11
2.59108
21
0.149292
0
LINE
8
BLACK
6
CONTINUOUS
10
2.59108
20
0.149292
11
2.5911
21
0.146859
0
LINE
8
BLACK
6
CONTINUOUS
10
2.5911
20
0.146859
11
2.58969
21
0.14488
0
LINE
8
BLACK
6
CONTINUOUS
10
2.58969
20
0.14488
11
2.58738
21
0.144111
0
LINE
8
BLACK
6
CONTINUOUS
10
2.58738
20
0.144111
11
2.58506
21
0.144845
0
LINE
8
BLACK
6
CONTINUOUS
10
2.58506
20
0.144845
11
2.58361
21
0.146802
0
LINE
8
BLACK
6
CONTINUOUS
10
2.58361
20
0.146802
11
2.57964
21
0.158734
0
LINE
8
BLACK
6
CONTINUOUS
10
2.57964
20
0.158734
11
2.56094
21
0.158734
0
LINE
8
BLACK
6
CONTINUOUS
10
2.56094
20
0.158734
11
2.55696
21
0.146802
0
LINE
8
BLACK
6
CONTINUOUS
10
2.55696
20
0.146802
11
2.55552
21
0.144845
0
LINE
8
BLACK
6
CONTINUOUS
10
2.55552
20
0.144845
11
2.5532
21
0.144111
0
LINE
8
BLACK
6
CONTINUOUS
10
2.5532
20
0.144111
11
2.55089
21
0.14488
0
LINE
8
BLACK
6
CONTINUOUS
10
2.55089
20
0.14488
11
2.54947
21
0.146859
0
LINE
8
BLACK
6
CONTINUOUS
10
2.54947
20
0.146859
11
2.54949
21
0.149292
0
LINE
8
BLACK
6
CONTINUOUS
10
2.54949
20
0.149292
11
2.56655
21
0.200474
0
LINE
8
BLACK
6
CONTINUOUS
10
2.56655
20
0.200474
11
2.56726
21
0.201429
0
LINE
8
BLACK
6
CONTINUOUS
10
2.56726
20
0.201429
11
2.56795
21
0.202396
0
LINE
8
BLACK
6
CONTINUOUS
10
2.56795
20
0.202396
11
2.56798
21
0.202406
0
LINE
8
BLACK
6
CONTINUOUS
10
2.56798
20
0.202406
11
2.568
21
0.202431
0
LINE
8
BLACK
6
CONTINUOUS
10
2.568
20
0.202431
11
2.56913
21
0.20279
0
LINE
8
BLACK
6
CONTINUOUS
10
2.56913
20
0.20279
11
2.57026
21
0.203165
0
LINE
8
BLACK
6
CONTINUOUS
10
2.57026
20
0.203165
11
2.57029
21
0.203156
0
LINE
8
BLACK
6
CONTINUOUS
10
2.56357
20
0.166608
11
2.57701
21
0.166608
0
LINE
8
BLACK
6
CONTINUOUS
10
2.57701
20
0.166608
11
2.57029
21
0.186779
0
LINE
8
BLACK
6
CONTINUOUS
10
2.57029
20
0.186779
11
2.56357
21
0.166608
0
LINE
8
BLACK
6
CONTINUOUS
10
2.65878
20
0.201543
11
2.65953
21
0.199229
0
LINE
8
BLACK
6
CONTINUOUS
10
2.65953
20
0.199229
11
2.65953
21
0.178794
0
LINE
8
BLACK
6
CONTINUOUS
10
2.65953
20
0.178794
11
2.6809
21
0.178794
0
LINE
8
BLACK
6
CONTINUOUS
10
2.6809
20
0.178794
11
2.6809
21
0.199229
0
LINE
8
BLACK
6
CONTINUOUS
10
2.6809
20
0.199229
11
2.68165
21
0.201543
0
LINE
8
BLACK
6
CONTINUOUS
10
2.68165
20
0.201543
11
2.68362
21
0.202973
0
LINE
8
BLACK
6
CONTINUOUS
10
2.68362
20
0.202973
11
2.68605
21
0.202973
0
LINE
8
BLACK
6
CONTINUOUS
10
2.68605
20
0.202973
11
2.68802
21
0.201543
0
LINE
8
BLACK
6
CONTINUOUS
10
2.68802
20
0.201543
11
2.68877
21
0.199229
0
LINE
8
BLACK
6
CONTINUOUS
10
2.68877
20
0.199229
11
2.68877
21
0.148047
0
LINE
8
BLACK
6
CONTINUOUS
10
2.68877
20
0.148047
11
2.68802
21
0.145733
0
LINE
8
BLACK
6
CONTINUOUS
10
2.68802
20
0.145733
11
2.68605
21
0.144303
0
LINE
8
BLACK
6
CONTINUOUS
10
2.68605
20
0.144303
11
2.68362
21
0.144303
0
LINE
8
BLACK
6
CONTINUOUS
10
2.68362
20
0.144303
11
2.68165
21
0.145733
0
LINE
8
BLACK
6
CONTINUOUS
10
2.68165
20
0.145733
11
2.6809
21
0.148047
0
LINE
8
BLACK
6
CONTINUOUS
10
2.6809
20
0.148047
11
2.6809
21
0.17092
0
LINE
8
BLACK
6
CONTINUOUS
10
2.6809
20
0.17092
11
2.65953
21
0.17092
0
LINE
8
BLACK
6
CONTINUOUS
10
2.65953
20
0.17092
11
2.65953
21
0.148047
0
LINE
8
BLACK
6
CONTINUOUS
10
2.65953
20
0.148047
11
2.65878
21
0.145733
0
LINE
8
BLACK
6
CONTINUOUS
10
2.65878
20
0.145733
11
2.65681
21
0.144303
0
LINE
8
BLACK
6
CONTINUOUS
10
2.65681
20
0.144303
11
2.65437
21
0.144303
0
LINE
8
BLACK
6
CONTINUOUS
10
2.65437
20
0.144303
11
2.65241
21
0.145733
0
LINE
8
BLACK
6
CONTINUOUS
10
2.65241
20
0.145733
11
2.65165
21
0.148047
0
LINE
8
BLACK
6
CONTINUOUS
10
2.65165
20
0.148047
11
2.65165
21
0.199229
0
LINE
8
BLACK
6
CONTINUOUS
10
2.65165
20
0.199229
11
2.65241
21
0.201543
0
LINE
8
BLACK
6
CONTINUOUS
10
2.65241
20
0.201543
11
2.65437
21
0.202973
0
LINE
8
BLACK
6
CONTINUOUS
10
2.65437
20
0.202973
11
2.65681
21
0.202973
0
LINE
8
BLACK
6
CONTINUOUS
10
2.65681
20
0.202973
11
2.65878
21
0.201543
0
LINE
8
BLACK
6
CONTINUOUS
10
3.19802
20
1.75289
11
3.19815
21
1.75291
0
LINE
8
BLACK
6
CONTINUOUS
10
3.19815
20
1.75291
11
3.19826
21
1.75284
0
LINE
8
BLACK
6
CONTINUOUS
10
3.19826
20
1.75284
11
3.19865
21
1.75277
0
LINE
8
BLACK
6
CONTINUOUS
10
3.19865
20
1.75277
11
3.19924
21
1.75228
0
LINE
8
BLACK
6
CONTINUOUS
10
3.19924
20
1.75228
11
3.1999
21
1.7519
0
LINE
8
BLACK
6
CONTINUOUS
10
3.1999
20
1.7519
11
3.19999
21
1.75165
0
LINE
8
BLACK
6
CONTINUOUS
10
3.19999
20
1.75165
11
3.20019
21
1.75148
0
LINE
8
BLACK
6
CONTINUOUS
10
3.20019
20
1.75148
11
3.20033
21
1.75072
0
LINE
8
BLACK
6
CONTINUOUS
10
3.20033
20
1.75072
11
3.20059
21
1.75
0
LINE
8
BLACK
6
CONTINUOUS
10
3.20059
20
1.75
11
3.20059
21
0.25
0
LINE
8
BLACK
6
CONTINUOUS
10
3.20059
20
0.25
11
3.20052
21
0.249616
0
LINE
8
BLACK
6
CONTINUOUS
10
3.20052
20
0.249616
11
3.20055
21
0.249487
0
LINE
8
BLACK
6
CONTINUOUS
10
3.20055
20
0.249487
11
3.20048
21
0.249374
0
LINE
8
BLACK
6
CONTINUOUS
10
3.20048
20
0.249374
11
3.20041
21
0.24899
0
LINE
8
BLACK
6
CONTINUOUS
10
3.20041
20
0.24899
11
3.19992
21
0.248402
0
LINE
8
BLACK
6
CONTINUOUS
10
3.19992
20
0.248402
11
3.19954
21
0.247738
0
LINE
8
BLACK
6
CONTINUOUS
10
3.19954
20
0.247738
11
3.19929
21
0.247647
0
LINE
8
BLACK
6
CONTINUOUS
10
3.19929
20
0.247647
11
3.19911
21
0.247443
0
LINE
8
BLACK
6
CONTINUOUS
10
3.19911
20
0.247443
11
3.19836
21
0.24731
0
LINE
8
BLACK
6
CONTINUOUS
10
3.19836
20
0.24731
11
3.19764
21
0.247047
0
LINE
8
BLACK
6
CONTINUOUS
10
3.19764
20
0.247047
11
0.402362
21
0.247047
0
LINE
8
BLACK
6
CONTINUOUS
10
0.402362
20
0.247047
11
0.401979
21
0.247115
0
LINE
8
BLACK
6
CONTINUOUS
10
0.401979
20
0.247115
11
0.401849
21
0.247092
0
LINE
8
BLACK
6
CONTINUOUS
10
0.401849
20
0.247092
11
0.401736
21
0.247158
0
LINE
8
BLACK
6
CONTINUOUS
10
0.401736
20
0.247158
11
0.401352
21
0.247225
0
LINE
8
BLACK
6
CONTINUOUS
10
0.401352
20
0.247225
11
0.400765
21
0.247718
0
LINE
8
BLACK
6
CONTINUOUS
10
0.400765
20
0.247718
11
0.4001
21
0.248102
0
LINE
8
BLACK
6
CONTINUOUS
10
0.4001
20
0.248102
11
0.400009
21
0.248352
0
LINE
8
BLACK
6
CONTINUOUS
10
0.400009
20
0.248352
11
0.399805
21
0.248524
0
LINE
8
BLACK
6
CONTINUOUS
10
0.399805
20
0.248524
11
0.399672
21
0.249279
0
LINE
8
BLACK
6
CONTINUOUS
10
0.399672
20
0.249279
11
0.399409
21
0.25
0
LINE
8
BLACK
6
CONTINUOUS
10
0.399409
20
0.25
11
0.399409
21
1.75
0
LINE
8
BLACK
6
CONTINUOUS
10
0.399409
20
1.75
11
0.399477
21
1.75038
0
LINE
8
BLACK
6
CONTINUOUS
10
0.399477
20
1.75038
11
0.399454
21
1.75051
0
LINE
8
BLACK
6
CONTINUOUS
10
0.399454
20
1.75051
11
0.39952
21
1.75063
0
LINE
8
BLACK
6
CONTINUOUS
10
0.39952
20
1.75063
11
0.399588
21
1.75101
0
LINE
8
BLACK
6
CONTINUOUS
10
0.399588
20
1.75101
11
0.400081
21
1.7516
0
LINE
8
BLACK
6
CONTINUOUS
10
0.400081
20
1.7516
11
0.400464
21
1.75226
0
LINE
8
BLACK
6
CONTINUOUS
10
0.400464
20
1.75226
11
0.400715
21
1.75235
0
LINE
8
BLACK
6
CONTINUOUS
10
0.400715
20
1.75235
11
0.400886
21
1.75256
0
LINE
8
BLACK
6
CONTINUOUS
10
0.400886
20
1.75256
11
0.401641
21
1.75269
0
LINE
8
BLACK
6
CONTINUOUS
10
0.401641
20
1.75269
11
0.402362
21
1.75295
0
LINE
8
BLACK
6
CONTINUOUS
10
0.402362
20
1.75295
11
3.19764
21
1.75295
0
LINE
8
BLACK
6
CONTINUOUS
10
3.19764
20
1.75295
11
3.19802
21
1.75289
0
LINE
8
BLACK
6
CONTINUOUS
10
0.405315
20
1.74705
11
0.405315
21
0.252953
0
LINE
8
BLACK
6
CONTINUOUS
10
0.405315
20
0.252953
11
3.19469
21
0.252953
0
LINE
8
BLACK
6
CONTINUOUS
10
3.19469
20
0.252953
11
3.19469
21
1.74705
0
LINE
8
BLACK
6
CONTINUOUS
10
3.19469
20
1.74705
11
0.405315
21
1.74705
0
LINE
8
BLACK
6
CONTINUOUS
10
2.85226
20
1.07376
11
2.85295
21
1.07186
0
LINE
8
BLACK
6
CONTINUOUS
10
2.85295
20
1.07186
11
2.85295
21
0.924831
0
LINE
8
BLACK
6
CONTINUOUS
10
2.85295
20
0.924831
11
2.99998
21
0.924831
0
LINE
8
BLACK
6
CONTINUOUS
10
2.99998
20
0.924831
11
3.00099
21
0.924653
0
LINE
8
BLACK
6
CONTINUOUS
10
3.00099
20
0.924653
11
3.00254
21
0.923355
0
LINE
8
BLACK
6
CONTINUOUS
10
3.00254
20
0.923355
11
3.00289
21
0.921366
0
LINE
8
BLACK
6
CONTINUOUS
10
3.00289
20
0.921366
11
3.00188
21
0.919617
0
LINE
8
BLACK
6
CONTINUOUS
10
3.00188
20
0.919617
11
2.99998
21
0.918926
0
LINE
8
BLACK
6
CONTINUOUS
10
2.99998
20
0.918926
11
2.85295
21
0.918926
0
LINE
8
BLACK
6
CONTINUOUS
10
2.85295
20
0.918926
11
2.85295
21
0.771897
0
LINE
8
BLACK
6
CONTINUOUS
10
2.85295
20
0.771897
11
2.85277
21
0.770887
0
LINE
8
BLACK
6
CONTINUOUS
10
2.85277
20
0.770887
11
2.85148
21
0.76934
0
LINE
8
BLACK
6
CONTINUOUS
10
2.85148
20
0.76934
11
2.84949
21
0.768989
0
LINE
8
BLACK
6
CONTINUOUS
10
2.84949
20
0.768989
11
2.84774
21
0.769999
0
LINE
8
BLACK
6
CONTINUOUS
10
2.84774
20
0.769999
11
2.84705
21
0.771897
0
LINE
8
BLACK
6
CONTINUOUS
10
2.84705
20
0.771897
11
2.84705
21
0.918926
0
LINE
8
BLACK
6
CONTINUOUS
10
2.84705
20
0.918926
11
2.70002
21
0.918926
0
LINE
8
BLACK
6
CONTINUOUS
10
2.70002
20
0.918926
11
2.69901
21
0.919104
0
LINE
8
BLACK
6
CONTINUOUS
10
2.69901
20
0.919104
11
2.69746
21
0.920402
0
LINE
8
BLACK
6
CONTINUOUS
10
2.69746
20
0.920402
11
2.69711
21
0.922391
0
LINE
8
BLACK
6
CONTINUOUS
10
2.69711
20
0.922391
11
2.69812
21
0.92414
0
LINE
8
BLACK
6
CONTINUOUS
10
2.69812
20
0.92414
11
2.70002
21
0.924831
0
LINE
8
BLACK
6
CONTINUOUS
10
2.70002
20
0.924831
11
2.84705
21
0.924831
0
LINE
8
BLACK
6
CONTINUOUS
10
2.84705
20
0.924831
11
2.84705
21
1.07186
0
LINE
8
BLACK
6
CONTINUOUS
10
2.84705
20
1.07186
11
2.84723
21
1.07287
0
LINE
8
BLACK
6
CONTINUOUS
10
2.84723
20
1.07287
11
2.84852
21
1.07442
0
LINE
8
BLACK
6
CONTINUOUS
10
2.84852
20
1.07442
11
2.85051
21
1.07477
0
LINE
8
BLACK
6
CONTINUOUS
10
2.85051
20
1.07477
11
2.85226
21
1.07376
0
LINE
8
BLACK
6
CONTINUOUS
10
1.83503
20
1.04412
11
1.8352
21
1.04415
0
LINE
8
BLACK
6
CONTINUOUS
10
1.8352
20
1.04415
11
1.83594
21
1.04372
0
LINE
8
BLACK
6
CONTINUOUS
10
1.83594
20
1.04372
11
1.83672
21
1.04338
0
LINE
8
BLACK
6
CONTINUOUS
10
1.83672
20
1.04338
11
1.8368
21
1.04323
0
LINE
8
BLACK
6
CONTINUOUS
10
1.8368
20
1.04323
11
1.83695
21
1.04314
0
LINE
8
BLACK
6
CONTINUOUS
10
1.83695
20
1.04314
11
1.83724
21
1.04234
0
LINE
8
BLACK
6
CONTINUOUS
10
1.83724
20
1.04234
11
1.83762
21
1.04157
0
LINE
8
BLACK
6
CONTINUOUS
10
1.83762
20
1.04157
11
1.83758
21
1.0414
0
LINE
8
BLACK
6
CONTINUOUS
10
1.83758
20
1.0414
11
1.83764
21
1.04124
0
LINE
8
BLACK
6
CONTINUOUS
10
1.83764
20
1.04124
11
1.83764
21
1.00483
0
LINE
8
BLACK
6
CONTINUOUS
10
1.83764
20
1.00483
11
1.84593
21
1.00483
0
LINE
8
BLACK
6
CONTINUOUS
10
1.84593
20
1.00483
11
1.84694
21
1.00465
0
LINE
8
BLACK
6
CONTINUOUS
10
1.84694
20
1.00465
11
1.84849
21
1.00335
0
LINE
8
BLACK
6
CONTINUOUS
10
1.84849
20
1.00335
11
1.84884
21
1.00136
0
LINE
8
BLACK
6
CONTINUOUS
10
1.84884
20
1.00136
11
1.84783
21
0.999613
0
LINE
8
BLACK
6
CONTINUOUS
10
1.84783
20
0.999613
11
1.84593
21
0.998922
0
LINE
8
BLACK
6
CONTINUOUS
10
1.84593
20
0.998922
11
1.82343
21
0.998922
0
LINE
8
BLACK
6
CONTINUOUS
10
1.82343
20
0.998922
11
1.82242
21
0.9991
0
LINE
8
BLACK
6
CONTINUOUS
10
1.82242
20
0.9991
11
1.82088
21
1.0004
0
LINE
8
BLACK
6
CONTINUOUS
10
1.82088
20
1.0004
11
1.82053
21
1.00239
0
LINE
8
BLACK
6
CONTINUOUS
10
1.82053
20
1.00239
11
1.82154
21
1.00414
0
LINE
8
BLACK
6
CONTINUOUS
10
1.82154
20
1.00414
11
1.82343
21
1.00483
0
LINE
8
BLACK
6
CONTINUOUS
10
1.82343
20
1.00483
11
1.83173
21
1.00483
0
LINE
8
BLACK
6
CONTINUOUS
10
1.83173
20
1.00483
11
1.83173
21
1.03224
0
LINE
8
BLACK
6
CONTINUOUS
10
1.83173
20
1.03224
11
1.82927
21
1.02978
0
LINE
8
BLACK
6
CONTINUOUS
10
1.82927
20
1.02978
11
1.82855
21
1.02928
0
LINE
8
BLACK
6
CONTINUOUS
10
1.82855
20
1.02928
11
1.8285
21
1.02923
0
LINE
8
BLACK
6
CONTINUOUS
10
1.8285
20
1.02923
11
1.82476
21
1.02736
0
LINE
8
BLACK
6
CONTINUOUS
10
1.82476
20
1.02736
11
1.82377
21
1.02706
0
LINE
8
BLACK
6
CONTINUOUS
10
1.82377
20
1.02706
11
1.82181
21
1.02753
0
LINE
8
BLACK
6
CONTINUOUS
10
1.82181
20
1.02753
11
1.8206
21
1.02915
0
LINE
8
BLACK
6
CONTINUOUS
10
1.8206
20
1.02915
11
1.82073
21
1.03117
0
LINE
8
BLACK
6
CONTINUOUS
10
1.82073
20
1.03117
11
1.82211
21
1.03264
0
LINE
8
BLACK
6
CONTINUOUS
10
1.82211
20
1.03264
11
1.82543
21
1.0343
0
LINE
8
BLACK
6
CONTINUOUS
10
1.82543
20
1.0343
11
1.82864
21
1.0375
0
LINE
8
BLACK
6
CONTINUOUS
10
1.82864
20
1.0375
11
1.83223
21
1.04288
0
LINE
8
BLACK
6
CONTINUOUS
10
1.83223
20
1.04288
11
1.83293
21
1.04362
0
LINE
8
BLACK
6
CONTINUOUS
10
1.83293
20
1.04362
11
1.8331
21
1.04367
0
LINE
8
BLACK
6
CONTINUOUS
10
1.8331
20
1.04367
11
1.83321
21
1.0438
0
LINE
8
BLACK
6
CONTINUOUS
10
1.83321
20
1.0438
11
1.83405
21
1.04395
0
LINE
8
BLACK
6
CONTINUOUS
10
1.83405
20
1.04395
11
1.83487
21
1.04419
0
LINE
8
BLACK
6
CONTINUOUS
10
1.83487
20
1.04419
11
1.83503
21
1.04412
0
LINE
8
BLACK
6
CONTINUOUS
10
1.77008
20
1.04402
11
1.77021
21
1.04391
0
LINE
8
BLACK
6
CONTINUOUS
10
1.77021
20
1.04391
11
1.77039
21
1.04389
0
LINE
8
BLACK
6
CONTINUOUS
10
1.77039
20
1.04389
11
1.77414
21
1.04201
0
LINE
8
BLACK
6
CONTINUOUS
10
1.77414
20
1.04201
11
1.77485
21
1.04149
0
LINE
8
BLACK
6
CONTINUOUS
10
1.77485
20
1.04149
11
1.7749
21
1.04146
0
LINE
8
BLACK
6
CONTINUOUS
10
1.7749
20
1.04146
11
1.77678
21
1.03958
0
LINE
8
BLACK
6
CONTINUOUS
10
1.77678
20
1.03958
11
1.77728
21
1.03886
0
LINE
8
BLACK
6
CONTINUOUS
10
1.77728
20
1.03886
11
1.77733
21
1.03882
0
LINE
8
BLACK
6
CONTINUOUS
10
1.77733
20
1.03882
11
1.77921
21
1.03507
0
LINE
8
BLACK
6
CONTINUOUS
10
1.77921
20
1.03507
11
1.7795
21
1.03408
0
LINE
8
BLACK
6
CONTINUOUS
10
1.7795
20
1.03408
11
1.77946
21
1.03391
0
LINE
8
BLACK
6
CONTINUOUS
10
1.77946
20
1.03391
11
1.77952
21
1.03375
0
LINE
8
BLACK
6
CONTINUOUS
10
1.77952
20
1.03375
11
1.77952
21
1.03
0
LINE
8
BLACK
6
CONTINUOUS
10
1.77952
20
1.03
11
1.77934
21
1.02899
0
LINE
8
BLACK
6
CONTINUOUS
10
1.77934
20
1.02899
11
1.77923
21
1.02885
0
LINE
8
BLACK
6
CONTINUOUS
10
1.77923
20
1.02885
11
1.77921
21
1.02868
0
LINE
8
BLACK
6
CONTINUOUS
10
1.77921
20
1.02868
11
1.77733
21
1.02493
0
LINE
8
BLACK
6
CONTINUOUS
10
1.77733
20
1.02493
11
1.77681
21
1.02422
0
LINE
8
BLACK
6
CONTINUOUS
10
1.77681
20
1.02422
11
1.77678
21
1.02416
0
LINE
8
BLACK
6
CONTINUOUS
10
1.77678
20
1.02416
11
1.7759
21
1.02328
0
LINE
8
BLACK
6
CONTINUOUS
10
1.7759
20
1.02328
11
1.77653
21
1.02294
0
LINE
8
BLACK
6
CONTINUOUS
10
1.77653
20
1.02294
11
1.77662
21
1.02278
0
LINE
8
BLACK
6
CONTINUOUS
10
1.77662
20
1.02278
11
1.77678
21
1.02271
0
LINE
8
BLACK
6
CONTINUOUS
10
1.77678
20
1.02271
11
1.77865
21
1.02084
0
LINE
8
BLACK
6
CONTINUOUS
10
1.77865
20
1.02084
11
1.77916
21
1.02011
0
LINE
8
BLACK
6
CONTINUOUS
10
1.77916
20
1.02011
11
1.77921
21
1.02007
0
LINE
8
BLACK
6
CONTINUOUS
10
1.77921
20
1.02007
11
1.78108
21
1.01632
0
LINE
8
BLACK
6
CONTINUOUS
10
1.78108
20
1.01632
11
1.78137
21
1.01534
0
LINE
8
BLACK
6
CONTINUOUS
10
1.78137
20
1.01534
11
1.78133
21
1.01516
0
LINE
8
BLACK
6
CONTINUOUS
10
1.78133
20
1.01516
11
1.78139
21
1.015
0
LINE
8
BLACK
6
CONTINUOUS
10
1.78139
20
1.015
11
1.78139
21
1.00937
0
LINE
8
BLACK
6
CONTINUOUS
10
1.78139
20
1.00937
11
1.78121
21
1.00836
0
LINE
8
BLACK
6
CONTINUOUS
10
1.78121
20
1.00836
11
1.7811
21
1.00823
0
LINE
8
BLACK
6
CONTINUOUS
10
1.7811
20
1.00823
11
1.78108
21
1.00805
0
LINE
8
BLACK
6
CONTINUOUS
10
1.78108
20
1.00805
11
1.77921
21
1.0043
0
LINE
8
BLACK
6
CONTINUOUS
10
1.77921
20
1.0043
11
1.77868
21
1.00359
0
LINE
8
BLACK
6
CONTINUOUS
10
1.77868
20
1.00359
11
1.77865
21
1.00354
0
LINE
8
BLACK
6
CONTINUOUS
10
1.77865
20
1.00354
11
1.77678
21
1.00166
0
LINE
8
BLACK
6
CONTINUOUS
10
1.77678
20
1.00166
11
1.77606
21
1.00116
0
LINE
8
BLACK
6
CONTINUOUS
10
1.77606
20
1.00116
11
1.77601
21
1.00111
0
LINE
8
BLACK
6
CONTINUOUS
10
1.77601
20
1.00111
11
1.77226
21
0.999234
0
LINE
8
BLACK
6
CONTINUOUS
10
1.77226
20
0.999234
11
1.77128
21
0.998941
0
LINE
8
BLACK
6
CONTINUOUS
10
1.77128
20
0.998941
11
1.77111
21
0.998982
0
LINE
8
BLACK
6
CONTINUOUS
10
1.77111
20
0.998982
11
1.77094
21
0.998922
0
LINE
8
BLACK
6
CONTINUOUS
10
1.77094
20
0.998922
11
1.75594
21
0.998922
0
LINE
8
BLACK
6
CONTINUOUS
10
1.75594
20
0.998922
11
1.75556
21
0.99899
0
LINE
8
BLACK
6
CONTINUOUS
10
1.75556
20
0.99899
11
1.75543
21
0.998967
0
LINE
8
BLACK
6
CONTINUOUS
10
1.75543
20
0.998967
11
1.75532
21
0.999032
0
LINE
8
BLACK
6
CONTINUOUS
10
1.75532
20
0.999032
11
1.75493
21
0.9991
0
LINE
8
BLACK
6
CONTINUOUS
10
1.75493
20
0.9991
11
1.75435
21
0.999593
0
LINE
8
BLACK
6
CONTINUOUS
10
1.75435
20
0.999593
11
1.75368
21
0.999977
0
LINE
8
BLACK
6
CONTINUOUS
10
1.75368
20
0.999977
11
1.75359
21
1.00023
0
LINE
8
BLACK
6
CONTINUOUS
10
1.75359
20
1.00023
11
1.75339
21
1.0004
0
LINE
8
BLACK
6
CONTINUOUS
10
1.75339
20
1.0004
11
1.75325
21
1.00115
0
LINE
8
BLACK
6
CONTINUOUS
10
1.75325
20
1.00115
11
1.75299
21
1.00187
0
LINE
8
BLACK
6
CONTINUOUS
10
1.75299
20
1.00187
11
1.75299
21
1.04124
0
LINE
8
BLACK
6
CONTINUOUS
10
1.75299
20
1.04124
11
1.75306
21
1.04163
0
LINE
8
BLACK
6
CONTINUOUS
10
1.75306
20
1.04163
11
1.75304
21
1.04176
0
LINE
8
BLACK
6
CONTINUOUS
10
1.75304
20
1.04176
11
1.7531
21
1.04187
0
LINE
8
BLACK
6
CONTINUOUS
10
1.7531
20
1.04187
11
1.75317
21
1.04225
0
LINE
8
BLACK
6
CONTINUOUS
10
1.75317
20
1.04225
11
1.75366
21
1.04284
0
LINE
8
BLACK
6
CONTINUOUS
10
1.75366
20
1.04284
11
1.75404
21
1.04351
0
LINE
8
BLACK
6
CONTINUOUS
10
1.75404
20
1.04351
11
1.7543
21
1.0436
0
LINE
8
BLACK
6
CONTINUOUS
10
1.7543
20
1.0436
11
1.75447
21
1.0438
0
LINE
8
BLACK
6
CONTINUOUS
10
1.75447
20
1.0438
11
1.75522
21
1.04394
0
LINE
8
BLACK
6
CONTINUOUS
10
1.75522
20
1.04394
11
1.75594
21
1.0442
0
LINE
8
BLACK
6
CONTINUOUS
10
1.75594
20
1.0442
11
1.76907
21
1.0442
0
LINE
8
BLACK
6
CONTINUOUS
10
1.76907
20
1.0442
11
1.77008
21
1.04402
0
LINE
8
BLACK
6
CONTINUOUS
10
1.7589
20
1.01954
11
1.7589
21
1.00483
0
LINE
8
BLACK
6
CONTINUOUS
10
1.7589
20
1.00483
11
1.77024
21
1.00483
0
LINE
8
BLACK
6
CONTINUOUS
10
1.77024
20
1.00483
11
1.77294
21
1.00618
0
LINE
8
BLACK
6
CONTINUOUS
10
1.77294
20
1.00618
11
1.77414
21
1.00737
0
LINE
8
BLACK
6
CONTINUOUS
10
1.77414
20
1.00737
11
1.77549
21
1.01007
0
LINE
8
BLACK
6
CONTINUOUS
10
1.77549
20
1.01007
11
1.77549
21
1.0143
0
LINE
8
BLACK
6
CONTINUOUS
10
1.77549
20
1.0143
11
1.77414
21
1.017
0
LINE
8
BLACK
6
CONTINUOUS
10
1.77414
20
1.017
11
1.7731
21
1.01804
0
LINE
8
BLACK
6
CONTINUOUS
10
1.7731
20
1.01804
11
1.76859
21
1.01954
0
LINE
8
BLACK
6
CONTINUOUS
10
1.76859
20
1.01954
11
1.7589
21
1.01954
0
LINE
8
BLACK
6
CONTINUOUS
10
1.7589
20
1.03829
11
1.7589
21
1.02545
0
LINE
8
BLACK
6
CONTINUOUS
10
1.7589
20
1.02545
11
1.76837
21
1.02545
0
LINE
8
BLACK
6
CONTINUOUS
10
1.76837
20
1.02545
11
1.77107
21
1.0268
0
LINE
8
BLACK
6
CONTINUOUS
10
1.77107
20
1.0268
11
1.77226
21
1.028
0
LINE
8
BLACK
6
CONTINUOUS
10
1.77226
20
1.028
11
1.77361
21
1.03069
0
LINE
8
BLACK
6
CONTINUOUS
10
1.77361
20
1.03069
11
1.77361
21
1.03305
0
LINE
8
BLACK
6
CONTINUOUS
10
1.77361
20
1.03305
11
1.77226
21
1.03575
0
LINE
8
BLACK
6
CONTINUOUS
10
1.77226
20
1.03575
11
1.77107
21
1.03694
0
LINE
8
BLACK
6
CONTINUOUS
10
1.77107
20
1.03694
11
1.76837
21
1.03829
0
LINE
8
BLACK
6
CONTINUOUS
10
1.76837
20
1.03829
11
1.7589
21
1.03829
0
LINE
8
BLACK
6
CONTINUOUS
10
1.8132
20
1.04402
11
1.81474
21
1.04272
0
LINE
8
BLACK
6
CONTINUOUS
10
1.81474
20
1.04272
11
1.81509
21
1.04073
0
LINE
8
BLACK
6
CONTINUOUS
10
1.81509
20
1.04073
11
1.81408
21
1.03898
0
LINE
8
BLACK
6
CONTINUOUS
10
1.81408
20
1.03898
11
1.81219
21
1.03829
0
LINE
8
BLACK
6
CONTINUOUS
10
1.81219
20
1.03829
11
1.80389
21
1.03829
0
LINE
8
BLACK
6
CONTINUOUS
10
1.80389
20
1.03829
11
1.80389
21
1.00187
0
LINE
8
BLACK
6
CONTINUOUS
10
1.80389
20
1.00187
11
1.80371
21
1.00086
0
LINE
8
BLACK
6
CONTINUOUS
10
1.80371
20
1.00086
11
1.80241
21
0.999318
0
LINE
8
BLACK
6
CONTINUOUS
10
1.80241
20
0.999318
11
1.80042
21
0.998967
0
LINE
8
BLACK
6
CONTINUOUS
10
1.80042
20
0.998967
11
1.79868
21
0.999977
0
LINE
8
BLACK
6
CONTINUOUS
10
1.79868
20
0.999977
11
1.79798
21
1.00187
0
LINE
8
BLACK
6
CONTINUOUS
10
1.79798
20
1.00187
11
1.79798
21
1.03829
0
LINE
8
BLACK
6
CONTINUOUS
10
1.79798
20
1.03829
11
1.78969
21
1.03829
0
LINE
8
BLACK
6
CONTINUOUS
10
1.78969
20
1.03829
11
1.78868
21
1.03847
0
LINE
8
BLACK
6
CONTINUOUS
10
1.78868
20
1.03847
11
1.78713
21
1.03977
0
LINE
8
BLACK
6
CONTINUOUS
10
1.78713
20
1.03977
11
1.78678
21
1.04176
0
LINE
8
BLACK
6
CONTINUOUS
10
1.78678
20
1.04176
11
1.78779
21
1.04351
0
LINE
8
BLACK
6
CONTINUOUS
10
1.78779
20
1.04351
11
1.78969
21
1.0442
0
LINE
8
BLACK
6
CONTINUOUS
10
1.78969
20
1.0442
11
1.81219
21
1.0442
0
LINE
8
BLACK
6
CONTINUOUS
10
1.81219
20
1.0442
11
1.8132
21
1.04402
0
LINE
8
BLACK
6
CONTINUOUS
10
3.35954
20
0.51041
11
3.36024
21
0.50874
0
LINE
8
BLACK
6
CONTINUOUS
10
3.36024
20
0.50874
11
3.36024
21
0.440236
0
LINE
8
BLACK
6
CONTINUOUS
10
3.36024
20
0.440236
11
3.41496
21
0.440236
0
LINE
8
BLACK
6
CONTINUOUS
10
3.41496
20
0.440236
11
3.41663
21
0.439544
0
LINE
8
BLACK
6
CONTINUOUS
10
3.41663
20
0.439544
11
3.41732
21
0.437874
0
LINE
8
BLACK
6
CONTINUOUS
10
3.41732
20
0.437874
11
3.41663
21
0.436204
0
LINE
8
BLACK
6
CONTINUOUS
10
3.41663
20
0.436204
11
3.41496
21
0.435512
0
LINE
8
BLACK
6
CONTINUOUS
10
3.41496
20
0.435512
11
3.35787
21
0.435512
0
LINE
8
BLACK
6
CONTINUOUS
10
3.35787
20
0.435512
11
3.3562
21
0.436204
0
LINE
8
BLACK
6
CONTINUOUS
10
3.3562
20
0.436204
11
3.35551
21
0.437874
0
LINE
8
BLACK
6
CONTINUOUS
10
3.35551
20
0.437874
11
3.35551
21
0.506378
0
LINE
8
BLACK
6
CONTINUOUS
10
3.35551
20
0.506378
11
3.3189
21
0.506378
0
LINE
8
BLACK
6
CONTINUOUS
10
3.3189
20
0.506378
11
3.31723
21
0.50707
0
LINE
8
BLACK
6
CONTINUOUS
10
3.31723
20
0.50707
11
3.31654
21
0.50874
0
LINE
8
BLACK
6
CONTINUOUS
10
3.31654
20
0.50874
11
3.31723
21
0.51041
0
LINE
8
BLACK
6
CONTINUOUS
10
3.31723
20
0.51041
11
3.3189
21
0.511102
0
LINE
8
BLACK
6
CONTINUOUS
10
3.3189
20
0.511102
11
3.35787
21
0.511102
0
LINE
8
BLACK
6
CONTINUOUS
10
3.35787
20
0.511102
11
3.35954
21
0.51041
0
LINE
8
BLACK
6
CONTINUOUS
10
3.52765
20
0.673796
11
3.52835
21
0.672126
0
LINE
8
BLACK
6
CONTINUOUS
10
3.52835
20
0.672126
11
3.52835
21
0.487874
0
LINE
8
BLACK
6
CONTINUOUS
10
3.52835
20
0.487874
11
3.52765
21
0.486204
0
LINE
8
BLACK
6
CONTINUOUS
10
3.52765
20
0.486204
11
3.52598
21
0.485512
0
LINE
8
BLACK
6
CONTINUOUS
10
3.52598
20
0.485512
11
3.52431
21
0.486204
0
LINE
8
BLACK
6
CONTINUOUS
10
3.52431
20
0.486204
11
3.52362
21
0.487874
0
LINE
8
BLACK
6
CONTINUOUS
10
3.52362
20
0.487874
11
3.52362
21
0.672126
0
LINE
8
BLACK
6
CONTINUOUS
10
3.52362
20
0.672126
11
3.52431
21
0.673796
0
LINE
8
BLACK
6
CONTINUOUS
10
3.52431
20
0.673796
11
3.52598
21
0.674488
0
LINE
8
BLACK
6
CONTINUOUS
10
3.52598
20
0.674488
11
3.52765
21
0.673796
0
LINE
8
BLACK
6
CONTINUOUS
10
3.27908
20
0.569676
11
3.27915
21
0.569678
0
LINE
8
BLACK
6
CONTINUOUS
10
3.27915
20
0.569678
11
3.28477
21
0.567803
0
LINE
8
BLACK
6
CONTINUOUS
10
3.28477
20
0.567803
11
3.28567
21
0.567315
0
LINE
8
BLACK
6
CONTINUOUS
10
3.28567
20
0.567315
11
3.28577
21
0.567164
0
LINE
8
BLACK
6
CONTINUOUS
10
3.28577
20
0.567164
11
3.28593
21
0.56709
0
LINE
8
BLACK
6
CONTINUOUS
10
3.28593
20
0.56709
11
3.28968
21
0.56334
0
LINE
8
BLACK
6
CONTINUOUS
10
3.28968
20
0.56334
11
3.29027
21
0.5625
0
LINE
8
BLACK
6
CONTINUOUS
10
3.29027
20
0.5625
11
3.29028
21
0.562324
0
LINE
8
BLACK
6
CONTINUOUS
10
3.29028
20
0.562324
11
3.29039
21
0.562186
0
LINE
8
BLACK
6
CONTINUOUS
10
3.29039
20
0.562186
11
3.29226
21
0.556562
0
LINE
8
BLACK
6
CONTINUOUS
10
3.29226
20
0.556562
11
3.29239
21
0.555689
0
LINE
8
BLACK
6
CONTINUOUS
10
3.29239
20
0.555689
11
3.29242
21
0.555628
0
LINE
8
BLACK
6
CONTINUOUS
10
3.29242
20
0.555628
11
3.29242
21
0.551879
0
LINE
8
BLACK
6
CONTINUOUS
10
3.29242
20
0.551879
11
3.29224
21
0.550869
0
LINE
8
BLACK
6
CONTINUOUS
10
3.29224
20
0.550869
11
3.29094
21
0.549321
0
LINE
8
BLACK
6
CONTINUOUS
10
3.29094
20
0.549321
11
3.28895
21
0.548971
0
LINE
8
BLACK
6
CONTINUOUS
10
3.28895
20
0.548971
11
3.2872
21
0.549981
0
LINE
8
BLACK
6
CONTINUOUS
10
3.2872
20
0.549981
11
3.28651
21
0.551879
0
LINE
8
BLACK
6
CONTINUOUS
10
3.28651
20
0.551879
11
3.28651
21
0.555149
0
LINE
8
BLACK
6
CONTINUOUS
10
3.28651
20
0.555149
11
3.28501
21
0.559657
0
LINE
8
BLACK
6
CONTINUOUS
10
3.28501
20
0.559657
11
3.28224
21
0.562421
0
LINE
8
BLACK
6
CONTINUOUS
10
3.28224
20
0.562421
11
3.27774
21
0.563924
0
LINE
8
BLACK
6
CONTINUOUS
10
3.27774
20
0.563924
11
3.25009
21
0.563924
0
LINE
8
BLACK
6
CONTINUOUS
10
3.25009
20
0.563924
11
3.24908
21
0.564102
0
LINE
8
BLACK
6
CONTINUOUS
10
3.24908
20
0.564102
11
3.24754
21
0.5654
0
LINE
8
BLACK
6
CONTINUOUS
10
3.24754
20
0.5654
11
3.24719
21
0.567389
0
LINE
8
BLACK
6
CONTINUOUS
10
3.24719
20
0.567389
11
3.2482
21
0.569139
0
LINE
8
BLACK
6
CONTINUOUS
10
3.2482
20
0.569139
11
3.25009
21
0.569829
0
LINE
8
BLACK
6
CONTINUOUS
10
3.25009
20
0.569829
11
3.27822
21
0.569829
0
LINE
8
BLACK
6
CONTINUOUS
10
3.27822
20
0.569829
11
3.27908
21
0.569676
0
LINE
8
BLACK
6
CONTINUOUS
10
3.29173
20
0.608145
11
3.29242
21
0.606247
0
LINE
8
BLACK
6
CONTINUOUS
10
3.29242
20
0.606247
11
3.29242
21
0.58375
0
LINE
8
BLACK
6
CONTINUOUS
10
3.29242
20
0.58375
11
3.29224
21
0.58274
0
LINE
8
BLACK
6
CONTINUOUS
10
3.29224
20
0.58274
11
3.29094
21
0.581192
0
LINE
8
BLACK
6
CONTINUOUS
10
3.29094
20
0.581192
11
3.28895
21
0.580842
0
LINE
8
BLACK
6
CONTINUOUS
10
3.28895
20
0.580842
11
3.2872
21
0.581852
0
LINE
8
BLACK
6
CONTINUOUS
10
3.2872
20
0.581852
11
3.28651
21
0.58375
0
LINE
8
BLACK
6
CONTINUOUS
10
3.28651
20
0.58375
11
3.28651
21
0.592045
0
LINE
8
BLACK
6
CONTINUOUS
10
3.28651
20
0.592045
11
3.2591
21
0.592045
0
LINE
8
BLACK
6
CONTINUOUS
10
3.2591
20
0.592045
11
3.26156
21
0.589587
0
LINE
8
BLACK
6
CONTINUOUS
10
3.26156
20
0.589587
11
3.26206
21
0.588864
0
LINE
8
BLACK
6
CONTINUOUS
10
3.26206
20
0.588864
11
3.26211
21
0.58882
0
LINE
8
BLACK
6
CONTINUOUS
10
3.26211
20
0.58882
11
3.26398
21
0.58507
0
LINE
8
BLACK
6
CONTINUOUS
10
3.26398
20
0.58507
11
3.26428
21
0.584087
0
LINE
8
BLACK
6
CONTINUOUS
10
3.26428
20
0.584087
11
3.26381
21
0.582123
0
LINE
8
BLACK
6
CONTINUOUS
10
3.26381
20
0.582123
11
3.26218
21
0.580919
0
LINE
8
BLACK
6
CONTINUOUS
10
3.26218
20
0.580919
11
3.26017
21
0.58104
0
LINE
8
BLACK
6
CONTINUOUS
10
3.26017
20
0.58104
11
3.2587
21
0.582429
0
LINE
8
BLACK
6
CONTINUOUS
10
3.2587
20
0.582429
11
3.25704
21
0.58575
0
LINE
8
BLACK
6
CONTINUOUS
10
3.25704
20
0.58575
11
3.25384
21
0.588954
0
LINE
8
BLACK
6
CONTINUOUS
10
3.25384
20
0.588954
11
3.24846
21
0.592541
0
LINE
8
BLACK
6
CONTINUOUS
10
3.24846
20
0.592541
11
3.24771
21
0.59325
0
LINE
8
BLACK
6
CONTINUOUS
10
3.24771
20
0.59325
11
3.24767
21
0.593413
0
LINE
8
BLACK
6
CONTINUOUS
10
3.24767
20
0.593413
11
3.24754
21
0.593522
0
LINE
8
BLACK
6
CONTINUOUS
10
3.24754
20
0.593522
11
3.24739
21
0.594366
0
LINE
8
BLACK
6
CONTINUOUS
10
3.24739
20
0.594366
11
3.24715
21
0.595188
0
LINE
8
BLACK
6
CONTINUOUS
10
3.24715
20
0.595188
11
3.24722
21
0.595344
0
LINE
8
BLACK
6
CONTINUOUS
10
3.24722
20
0.595344
11
3.24719
21
0.595511
0
LINE
8
BLACK
6
CONTINUOUS
10
3.24719
20
0.595511
11
3.24761
21
0.596253
0
LINE
8
BLACK
6
CONTINUOUS
10
3.24761
20
0.596253
11
3.24796
21
0.597038
0
LINE
8
BLACK
6
CONTINUOUS
10
3.24796
20
0.597038
11
3.24811
21
0.597113
0
LINE
8
BLACK
6
CONTINUOUS
10
3.24811
20
0.597113
11
3.2482
21
0.59726
0
LINE
8
BLACK
6
CONTINUOUS
10
3.2482
20
0.59726
11
3.249
21
0.597553
0
LINE
8
BLACK
6
CONTINUOUS
10
3.249
20
0.597553
11
3.24977
21
0.597933
0
LINE
8
BLACK
6
CONTINUOUS
10
3.24977
20
0.597933
11
3.24993
21
0.597893
0
LINE
8
BLACK
6
CONTINUOUS
10
3.24993
20
0.597893
11
3.25009
21
0.597951
0
LINE
8
BLACK
6
CONTINUOUS
10
3.25009
20
0.597951
11
3.28651
21
0.597951
0
LINE
8
BLACK
6
CONTINUOUS
10
3.28651
20
0.597951
11
3.28651
21
0.606247
0
LINE
8
BLACK
6
CONTINUOUS
10
3.28651
20
0.606247
11
3.28669
21
0.607257
0
LINE
8
BLACK
6
CONTINUOUS
10
3.28669
20
0.607257
11
3.28799
21
0.608804
0
LINE
8
BLACK
6
CONTINUOUS
10
3.28799
20
0.608804
11
3.28998
21
0.609155
0
LINE
8
BLACK
6
CONTINUOUS
10
3.28998
20
0.609155
11
3.29173
21
0.608145
0
LINE
8
BLACK
6
CONTINUOUS
10
3.41663
20
0.723796
11
3.41732
21
0.722126
0
LINE
8
BLACK
6
CONTINUOUS
10
3.41732
20
0.722126
11
3.41663
21
0.720456
0
LINE
8
BLACK
6
CONTINUOUS
10
3.41663
20
0.720456
11
3.41496
21
0.719764
0
LINE
8
BLACK
6
CONTINUOUS
10
3.41496
20
0.719764
11
3.36024
21
0.719764
0
LINE
8
BLACK
6
CONTINUOUS
10
3.36024
20
0.719764
11
3.36024
21
0.65126
0
LINE
8
BLACK
6
CONTINUOUS
10
3.36024
20
0.65126
11
3.35954
21
0.64959
0
LINE
8
BLACK
6
CONTINUOUS
10
3.35954
20
0.64959
11
3.35787
21
0.648898
0
LINE
8
BLACK
6
CONTINUOUS
10
3.35787
20
0.648898
11
3.3562
21
0.64959
0
LINE
8
BLACK
6
CONTINUOUS
10
3.3562
20
0.64959
11
3.35551
21
0.65126
0
LINE
8
BLACK
6
CONTINUOUS
10
3.35551
20
0.65126
11
3.35551
21
0.722126
0
LINE
8
BLACK
6
CONTINUOUS
10
3.35551
20
0.722126
11
3.3562
21
0.723796
0
LINE
8
BLACK
6
CONTINUOUS
10
3.3562
20
0.723796
11
3.35787
21
0.724488
0
LINE
8
BLACK
6
CONTINUOUS
10
3.35787
20
0.724488
11
3.41496
21
0.724488
0
LINE
8
BLACK
6
CONTINUOUS
10
3.41496
20
0.724488
11
3.41663
21
0.723796
0
LINE
8
BLACK
6
CONTINUOUS
10
3.35954
20
0.86541
11
3.36024
21
0.86374
0
LINE
8
BLACK
6
CONTINUOUS
10
3.36024
20
0.86374
11
3.36024
21
0.795236
0
LINE
8
BLACK
6
CONTINUOUS
10
3.36024
20
0.795236
11
3.41496
21
0.795236
0
LINE
8
BLACK
6
CONTINUOUS
10
3.41496
20
0.795236
11
3.41663
21
0.794544
0
LINE
8
BLACK
6
CONTINUOUS
10
3.41663
20
0.794544
11
3.41732
21
0.792874
0
LINE
8
BLACK
6
CONTINUOUS
10
3.41732
20
0.792874
11
3.41663
21
0.791204
0
LINE
8
BLACK
6
CONTINUOUS
10
3.41663
20
0.791204
11
3.41496
21
0.790512
0
LINE
8
BLACK
6
CONTINUOUS
10
3.41496
20
0.790512
11
3.35787
21
0.790512
0
LINE
8
BLACK
6
CONTINUOUS
10
3.35787
20
0.790512
11
3.3562
21
0.791204
0
LINE
8
BLACK
6
CONTINUOUS
10
3.3562
20
0.791204
11
3.35551
21
0.792874
0
LINE
8
BLACK
6
CONTINUOUS
10
3.35551
20
0.792874
11
3.35551
21
0.861378
0
LINE
8
BLACK
6
CONTINUOUS
10
3.35551
20
0.861378
11
3.3189
21
0.861378
0
LINE
8
BLACK
6
CONTINUOUS
10
3.3189
20
0.861378
11
3.31723
21
0.86207
0
LINE
8
BLACK
6
CONTINUOUS
10
3.31723
20
0.86207
11
3.31654
21
0.86374
0
LINE
8
BLACK
6
CONTINUOUS
10
3.31654
20
0.86374
11
3.31723
21
0.86541
0
LINE
8
BLACK
6
CONTINUOUS
10
3.31723
20
0.86541
11
3.3189
21
0.866102
0
LINE
8
BLACK
6
CONTINUOUS
10
3.3189
20
0.866102
11
3.35787
21
0.866102
0
LINE
8
BLACK
6
CONTINUOUS
10
3.35787
20
0.866102
11
3.35954
21
0.86541
0
LINE
8
BLACK
6
CONTINUOUS
10
3.52765
20
1.0288
11
3.52835
21
1.02713
0
LINE
8
BLACK
6
CONTINUOUS
10
3.52835
20
1.02713
11
3.52835
21
0.842874
0
LINE
8
BLACK
6
CONTINUOUS
10
3.52835
20
0.842874
11
3.52765
21
0.841204
0
LINE
8
BLACK
6
CONTINUOUS
10
3.52765
20
0.841204
11
3.52598
21
0.840512
0
LINE
8
BLACK
6
CONTINUOUS
10
3.52598
20
0.840512
11
3.52431
21
0.841204
0
LINE
8
BLACK
6
CONTINUOUS
10
3.52431
20
0.841204
11
3.52362
21
0.842874
0
LINE
8
BLACK
6
CONTINUOUS
10
3.52362
20
0.842874
11
3.52362
21
1.02713
0
LINE
8
BLACK
6
CONTINUOUS
10
3.52362
20
1.02713
11
3.52431
21
1.0288
0
LINE
8
BLACK
6
CONTINUOUS
10
3.52431
20
1.0288
11
3.52598
21
1.02949
0
LINE
8
BLACK
6
CONTINUOUS
10
3.52598
20
1.02949
11
3.52765
21
1.0288
0
LINE
8
BLACK
6
CONTINUOUS
10
3.27908
20
0.924676
11
3.27915
21
0.924678
0
LINE
8
BLACK
6
CONTINUOUS
10
3.27915
20
0.924678
11
3.28477
21
0.922803
0
LINE
8
BLACK
6
CONTINUOUS
10
3.28477
20
0.922803
11
3.28567
21
0.922315
0
LINE
8
BLACK
6
CONTINUOUS
10
3.28567
20
0.922315
11
3.28577
21
0.922164
0
LINE
8
BLACK
6
CONTINUOUS
10
3.28577
20
0.922164
11
3.28593
21
0.92209
0
LINE
8
BLACK
6
CONTINUOUS
10
3.28593
20
0.92209
11
3.28968
21
0.91834
0
LINE
8
BLACK
6
CONTINUOUS
10
3.28968
20
0.91834
11
3.29027
21
0.9175
0
LINE
8
BLACK
6
CONTINUOUS
10
3.29027
20
0.9175
11
3.29028
21
0.917324
0
LINE
8
BLACK
6
CONTINUOUS
10
3.29028
20
0.917324
11
3.29039
21
0.917186
0
LINE
8
BLACK
6
CONTINUOUS
10
3.29039
20
0.917186
11
3.29226
21
0.911562
0
LINE
8
BLACK
6
CONTINUOUS
10
3.29226
20
0.911562
11
3.29239
21
0.910689
0
LINE
8
BLACK
6
CONTINUOUS
10
3.29239
20
0.910689
11
3.29242
21
0.910628
0
LINE
8
BLACK
6
CONTINUOUS
10
3.29242
20
0.910628
11
3.29242
21
0.906879
0
LINE
8
BLACK
6
CONTINUOUS
10
3.29242
20
0.906879
11
3.29224
21
0.905869
0
LINE
8
BLACK
6
CONTINUOUS
10
3.29224
20
0.905869
11
3.29094
21
0.904321
0
LINE
8
BLACK
6
CONTINUOUS
10
3.29094
20
0.904321
11
3.28895
21
0.903971
0
LINE
8
BLACK
6
CONTINUOUS
10
3.28895
20
0.903971
11
3.2872
21
0.904981
0
LINE
8
BLACK
6
CONTINUOUS
10
3.2872
20
0.904981
11
3.28651
21
0.906879
0
LINE
8
BLACK
6
CONTINUOUS
10
3.28651
20
0.906879
11
3.28651
21
0.910149
0
LINE
8
BLACK
6
CONTINUOUS
10
3.28651
20
0.910149
11
3.28501
21
0.914657
0
LINE
8
BLACK
6
CONTINUOUS
10
3.28501
20
0.914657
11
3.28224
21
0.917421
0
LINE
8
BLACK
6
CONTINUOUS
10
3.28224
20
0.917421
11
3.27774
21
0.918924
0
LINE
8
BLACK
6
CONTINUOUS
10
3.27774
20
0.918924
11
3.25009
21
0.918924
0
LINE
8
BLACK
6
CONTINUOUS
10
3.25009
20
0.918924
11
3.24908
21
0.919102
0
LINE
8
BLACK
6
CONTINUOUS
10
3.24908
20
0.919102
11
3.24754
21
0.9204
0
LINE
8
BLACK
6
CONTINUOUS
10
3.24754
20
0.9204
11
3.24719
21
0.922389
0
LINE
8
BLACK
6
CONTINUOUS
10
3.24719
20
0.922389
11
3.2482
21
0.924139
0
LINE
8
BLACK
6
CONTINUOUS
10
3.2482
20
0.924139
11
3.25009
21
0.924829
0
LINE
8
BLACK
6
CONTINUOUS
10
3.25009
20
0.924829
11
3.27822
21
0.924829
0
LINE
8
BLACK
6
CONTINUOUS
10
3.27822
20
0.924829
11
3.27908
21
0.924676
0
LINE
8
BLACK
6
CONTINUOUS
10
3.2786
20
0.965019
11
3.27929
21
0.963121
0
LINE
8
BLACK
6
CONTINUOUS
10
3.27929
20
0.963121
11
3.27929
21
0.96045
0
LINE
8
BLACK
6
CONTINUOUS
10
3.27929
20
0.96045
11
3.28946
21
0.96045
0
LINE
8
BLACK
6
CONTINUOUS
10
3.28946
20
0.96045
11
3.29047
21
0.960272
0
LINE
8
BLACK
6
CONTINUOUS
10
3.29047
20
0.960272
11
3.29202
21
0.958974
0
LINE
8
BLACK
6
CONTINUOUS
10
3.29202
20
0.958974
11
3.29237
21
0.956984
0
LINE
8
BLACK
6
CONTINUOUS
10
3.29237
20
0.956984
11
3.29136
21
0.955235
0
LINE
8
BLACK
6
CONTINUOUS
10
3.29136
20
0.955235
11
3.28946
21
0.954544
0
LINE
8
BLACK
6
CONTINUOUS
10
3.28946
20
0.954544
11
3.27929
21
0.954544
0
LINE
8
BLACK
6
CONTINUOUS
10
3.27929
20
0.954544
11
3.27929
21
0.93875
0
LINE
8
BLACK
6
CONTINUOUS
10
3.27929
20
0.93875
11
3.27912
21
0.93774
0
LINE
8
BLACK
6
CONTINUOUS
10
3.27912
20
0.93774
11
3.27897
21
0.937567
0
LINE
8
BLACK
6
CONTINUOUS
10
3.27897
20
0.937567
11
3.27894
21
0.937344
0
LINE
8
BLACK
6
CONTINUOUS
10
3.27894
20
0.937344
11
3.27833
21
0.936809
0
LINE
8
BLACK
6
CONTINUOUS
10
3.27833
20
0.936809
11
3.27782
21
0.936192
0
LINE
8
BLACK
6
CONTINUOUS
10
3.27782
20
0.936192
11
3.27759
21
0.936153
0
LINE
8
BLACK
6
CONTINUOUS
10
3.27759
20
0.936153
11
3.27743
21
0.936004
0
LINE
8
BLACK
6
CONTINUOUS
10
3.27743
20
0.936004
11
3.27662
21
0.935982
0
LINE
8
BLACK
6
CONTINUOUS
10
3.27662
20
0.935982
11
3.27583
21
0.935842
0
LINE
8
BLACK
6
CONTINUOUS
10
3.27583
20
0.935842
11
3.27563
21
0.935954
0
LINE
8
BLACK
6
CONTINUOUS
10
3.27563
20
0.935954
11
3.27541
21
0.935948
0
LINE
8
BLACK
6
CONTINUOUS
10
3.27541
20
0.935948
11
3.24729
21
0.945322
0
LINE
8
BLACK
6
CONTINUOUS
10
3.24729
20
0.945322
11
3.24638
21
0.94581
0
LINE
8
BLACK
6
CONTINUOUS
10
3.24638
20
0.94581
11
3.24533
21
0.947531
0
LINE
8
BLACK
6
CONTINUOUS
10
3.24533
20
0.947531
11
3.24562
21
0.949529
0
LINE
8
BLACK
6
CONTINUOUS
10
3.24562
20
0.949529
11
3.24713
21
0.950869
0
LINE
8
BLACK
6
CONTINUOUS
10
3.24713
20
0.950869
11
3.24915
21
0.950925
0
LINE
8
BLACK
6
CONTINUOUS
10
3.24915
20
0.950925
11
3.27339
21
0.942846
0
LINE
8
BLACK
6
CONTINUOUS
10
3.27339
20
0.942846
11
3.27339
21
0.954544
0
LINE
8
BLACK
6
CONTINUOUS
10
3.27339
20
0.954544
11
3.26322
21
0.954544
0
LINE
8
BLACK
6
CONTINUOUS
10
3.26322
20
0.954544
11
3.26221
21
0.954723
0
LINE
8
BLACK
6
CONTINUOUS
10
3.26221
20
0.954723
11
3.26066
21
0.956021
0
LINE
8
BLACK
6
CONTINUOUS
10
3.26066
20
0.956021
11
3.26031
21
0.95801
0
LINE
8
BLACK
6
CONTINUOUS
10
3.26031
20
0.95801
11
3.26132
21
0.959759
0
LINE
8
BLACK
6
CONTINUOUS
10
3.26132
20
0.959759
11
3.26322
21
0.96045
0
LINE
8
BLACK
6
CONTINUOUS
10
3.26322
20
0.96045
11
3.27339
21
0.96045
0
LINE
8
BLACK
6
CONTINUOUS
10
3.27339
20
0.96045
11
3.27339
21
0.963121
0
LINE
8
BLACK
6
CONTINUOUS
10
3.27339
20
0.963121
11
3.27357
21
0.964131
0
LINE
8
BLACK
6
CONTINUOUS
10
3.27357
20
0.964131
11
3.27486
21
0.965679
0
LINE
8
BLACK
6
CONTINUOUS
10
3.27486
20
0.965679
11
3.27685
21
0.966029
0
LINE
8
BLACK
6
CONTINUOUS
10
3.27685
20
0.966029
11
3.2786
21
0.965019
0
LINE
8
BLACK
6
CONTINUOUS
10
3.41663
20
1.0788
11
3.41732
21
1.07713
0
LINE
8
BLACK
6
CONTINUOUS
10
3.41732
20
1.07713
11
3.41663
21
1.07546
0
LINE
8
BLACK
6
CONTINUOUS
10
3.41663
20
1.07546
11
3.41496
21
1.07476
0
LINE
8
BLACK
6
CONTINUOUS
10
3.41496
20
1.07476
11
3.36024
21
1.07476
0
LINE
8
BLACK
6
CONTINUOUS
10
3.36024
20
1.07476
11
3.36024
21
1.00626
0
LINE
8
BLACK
6
CONTINUOUS
10
3.36024
20
1.00626
11
3.35954
21
1.00459
0
LINE
8
BLACK
6
CONTINUOUS
10
3.35954
20
1.00459
11
3.35787
21
1.0039
0
LINE
8
BLACK
6
CONTINUOUS
10
3.35787
20
1.0039
11
3.3562
21
1.00459
0
LINE
8
BLACK
6
CONTINUOUS
10
3.3562
20
1.00459
11
3.35551
21
1.00626
0
LINE
8
BLACK
6
CONTINUOUS
10
3.35551
20
1.00626
11
3.35551
21
1.07713
0
LINE
8
BLACK
6
CONTINUOUS
10
3.35551
20
1.07713
11
3.3562
21
1.0788
0
LINE
8
BLACK
6
CONTINUOUS
10
3.3562
20
1.0788
11
3.35787
21
1.07949
0
LINE
8
BLACK
6
CONTINUOUS
10
3.35787
20
1.07949
11
3.41496
21
1.07949
0
LINE
8
BLACK
6
CONTINUOUS
10
3.41496
20
1.07949
11
3.41663
21
1.0788
0
LINE
8
BLACK
6
CONTINUOUS
10
3.39837
20
1.14168
11
3.39768
21
1.14335
0
LINE
8
BLACK
6
CONTINUOUS
10
3.39768
20
1.14335
11
3.39768
21
1.415
0
LINE
8
BLACK
6
CONTINUOUS
10
3.39768
20
1.415
11
3.39837
21
1.41667
0
LINE
8
BLACK
6
CONTINUOUS
10
3.39837
20
1.41667
11
3.40004
21
1.41736
0
LINE
8
BLACK
6
CONTINUOUS
10
3.40004
20
1.41736
11
3.40171
21
1.41667
0
LINE
8
BLACK
6
CONTINUOUS
10
3.40171
20
1.41667
11
3.4024
21
1.415
0
LINE
8
BLACK
6
CONTINUOUS
10
3.4024
20
1.415
11
3.4024
21
1.14571
0
LINE
8
BLACK
6
CONTINUOUS
10
3.4024
20
1.14571
11
3.5276
21
1.14571
0
LINE
8
BLACK
6
CONTINUOUS
10
3.5276
20
1.14571
11
3.5276
21
1.415
0
LINE
8
BLACK
6
CONTINUOUS
10
3.5276
20
1.415
11
3.52829
21
1.41667
0
LINE
8
BLACK
6
CONTINUOUS
10
3.52829
20
1.41667
11
3.52996
21
1.41736
0
LINE
8
BLACK
6
CONTINUOUS
10
3.52996
20
1.41736
11
3.53163
21
1.41667
0
LINE
8
BLACK
6
CONTINUOUS
10
3.53163
20
1.41667
11
3.53232
21
1.415
0
LINE
8
BLACK
6
CONTINUOUS
10
3.53232
20
1.415
11
3.53232
21
1.14335
0
LINE
8
BLACK
6
CONTINUOUS
10
3.53232
20
1.14335
11
3.53163
21
1.14168
0
LINE
8
BLACK
6
CONTINUOUS
10
3.53163
20
1.14168
11
3.52996
21
1.14098
0
LINE
8
BLACK
6
CONTINUOUS
10
3.52996
20
1.14098
11
3.40004
21
1.14098
0
LINE
8
BLACK
6
CONTINUOUS
10
3.40004
20
1.14098
11
3.39837
21
1.14168
0
LINE
8
BLACK
6
CONTINUOUS
10
3.36809
20
1.31286
11
3.36823
21
1.31288
0
LINE
8
BLACK
6
CONTINUOUS
10
3.36823
20
1.31288
11
3.37573
21
1.311
0
LINE
8
BLACK
6
CONTINUOUS
10
3.37573
20
1.311
11
3.37619
21
1.3108
0
LINE
8
BLACK
6
CONTINUOUS
10
3.37619
20
1.3108
11
3.37633
21
1.31078
0
LINE
8
BLACK
6
CONTINUOUS
10
3.37633
20
1.31078
11
3.38008
21
1.3089
0
LINE
8
BLACK
6
CONTINUOUS
10
3.38008
20
1.3089
11
3.38079
21
1.30838
0
LINE
8
BLACK
6
CONTINUOUS
10
3.38079
20
1.30838
11
3.38085
21
1.30835
0
LINE
8
BLACK
6
CONTINUOUS
10
3.38085
20
1.30835
11
3.3846
21
1.3046
0
LINE
8
BLACK
6
CONTINUOUS
10
3.3846
20
1.3046
11
3.38519
21
1.30376
0
LINE
8
BLACK
6
CONTINUOUS
10
3.38519
20
1.30376
11
3.3852
21
1.30359
0
LINE
8
BLACK
6
CONTINUOUS
10
3.3852
20
1.30359
11
3.38531
21
1.30345
0
LINE
8
BLACK
6
CONTINUOUS
10
3.38531
20
1.30345
11
3.38719
21
1.29782
0
LINE
8
BLACK
6
CONTINUOUS
10
3.38719
20
1.29782
11
3.38732
21
1.29695
0
LINE
8
BLACK
6
CONTINUOUS
10
3.38732
20
1.29695
11
3.38734
21
1.29689
0
LINE
8
BLACK
6
CONTINUOUS
10
3.38734
20
1.29689
11
3.38734
21
1.28752
0
LINE
8
BLACK
6
CONTINUOUS
10
3.38734
20
1.28752
11
3.38727
21
1.28713
0
LINE
8
BLACK
6
CONTINUOUS
10
3.38727
20
1.28713
11
3.38729
21
1.287
0
LINE
8
BLACK
6
CONTINUOUS
10
3.38729
20
1.287
11
3.38723
21
1.28689
0
LINE
8
BLACK
6
CONTINUOUS
10
3.38723
20
1.28689
11
3.38716
21
1.28651
0
LINE
8
BLACK
6
CONTINUOUS
10
3.38716
20
1.28651
11
3.38667
21
1.28592
0
LINE
8
BLACK
6
CONTINUOUS
10
3.38667
20
1.28592
11
3.38628
21
1.28525
0
LINE
8
BLACK
6
CONTINUOUS
10
3.38628
20
1.28525
11
3.38603
21
1.28516
0
LINE
8
BLACK
6
CONTINUOUS
10
3.38603
20
1.28516
11
3.38586
21
1.28496
0
LINE
8
BLACK
6
CONTINUOUS
10
3.38586
20
1.28496
11
3.38511
21
1.28483
0
LINE
8
BLACK
6
CONTINUOUS
10
3.38511
20
1.28483
11
3.38439
21
1.28456
0
LINE
8
BLACK
6
CONTINUOUS
10
3.38439
20
1.28456
11
3.34501
21
1.28456
0
LINE
8
BLACK
6
CONTINUOUS
10
3.34501
20
1.28456
11
3.34463
21
1.28463
0
LINE
8
BLACK
6
CONTINUOUS
10
3.34463
20
1.28463
11
3.3445
21
1.28461
0
LINE
8
BLACK
6
CONTINUOUS
10
3.3445
20
1.28461
11
3.34439
21
1.28467
0
LINE
8
BLACK
6
CONTINUOUS
10
3.34439
20
1.28467
11
3.34401
21
1.28474
0
LINE
8
BLACK
6
CONTINUOUS
10
3.34401
20
1.28474
11
3.34342
21
1.28523
0
LINE
8
BLACK
6
CONTINUOUS
10
3.34342
20
1.28523
11
3.34275
21
1.28562
0
LINE
8
BLACK
6
CONTINUOUS
10
3.34275
20
1.28562
11
3.34266
21
1.28587
0
LINE
8
BLACK
6
CONTINUOUS
10
3.34266
20
1.28587
11
3.34246
21
1.28604
0
LINE
8
BLACK
6
CONTINUOUS
10
3.34246
20
1.28604
11
3.34232
21
1.2868
0
LINE
8
BLACK
6
CONTINUOUS
10
3.34232
20
1.2868
11
3.34206
21
1.28752
0
LINE
8
BLACK
6
CONTINUOUS
10
3.34206
20
1.28752
11
3.34206
21
1.29689
0
LINE
8
BLACK
6
CONTINUOUS
10
3.34206
20
1.29689
11
3.34222
21
1.29776
0
LINE
8
BLACK
6
CONTINUOUS
10
3.34222
20
1.29776
11
3.34221
21
1.29782
0
LINE
8
BLACK
6
CONTINUOUS
10
3.34221
20
1.29782
11
3.34409
21
1.30345
0
LINE
8
BLACK
6
CONTINUOUS
10
3.34409
20
1.30345
11
3.34458
21
1.30435
0
LINE
8
BLACK
6
CONTINUOUS
10
3.34458
20
1.30435
11
3.34473
21
1.30444
0
LINE
8
BLACK
6
CONTINUOUS
10
3.34473
20
1.30444
11
3.3448
21
1.3046
0
LINE
8
BLACK
6
CONTINUOUS
10
3.3448
20
1.3046
11
3.34855
21
1.30835
0
LINE
8
BLACK
6
CONTINUOUS
10
3.34855
20
1.30835
11
3.34927
21
1.30886
0
LINE
8
BLACK
6
CONTINUOUS
10
3.34927
20
1.30886
11
3.34932
21
1.3089
0
LINE
8
BLACK
6
CONTINUOUS
10
3.34932
20
1.3089
11
3.35307
21
1.31078
0
LINE
8
BLACK
6
CONTINUOUS
10
3.35307
20
1.31078
11
3.35356
21
1.31092
0
LINE
8
BLACK
6
CONTINUOUS
10
3.35356
20
1.31092
11
3.35367
21
1.311
0
LINE
8
BLACK
6
CONTINUOUS
10
3.35367
20
1.311
11
3.36117
21
1.31288
0
LINE
8
BLACK
6
CONTINUOUS
10
3.36117
20
1.31288
11
3.36176
21
1.31292
0
LINE
8
BLACK
6
CONTINUOUS
10
3.36176
20
1.31292
11
3.36189
21
1.31297
0
LINE
8
BLACK
6
CONTINUOUS
10
3.36189
20
1.31297
11
3.36751
21
1.31297
0
LINE
8
BLACK
6
CONTINUOUS
10
3.36751
20
1.31297
11
3.36809
21
1.31286
0
LINE
8
BLACK
6
CONTINUOUS
10
3.36225
20
1.30706
11
3.35542
21
1.30535
0
LINE
8
BLACK
6
CONTINUOUS
10
3.35542
20
1.30535
11
3.35239
21
1.30384
0
LINE
8
BLACK
6
CONTINUOUS
10
3.35239
20
1.30384
11
3.34947
21
1.30092
0
LINE
8
BLACK
6
CONTINUOUS
10
3.34947
20
1.30092
11
3.34797
21
1.29641
0
LINE
8
BLACK
6
CONTINUOUS
10
3.34797
20
1.29641
11
3.34797
21
1.29047
0
LINE
8
BLACK
6
CONTINUOUS
10
3.34797
20
1.29047
11
3.38143
21
1.29047
0
LINE
8
BLACK
6
CONTINUOUS
10
3.38143
20
1.29047
11
3.38143
21
1.29641
0
LINE
8
BLACK
6
CONTINUOUS
10
3.38143
20
1.29641
11
3.37993
21
1.30092
0
LINE
8
BLACK
6
CONTINUOUS
10
3.37993
20
1.30092
11
3.37701
21
1.30384
0
LINE
8
BLACK
6
CONTINUOUS
10
3.37701
20
1.30384
11
3.37398
21
1.30535
0
LINE
8
BLACK
6
CONTINUOUS
10
3.37398
20
1.30535
11
3.36715
21
1.30706
0
LINE
8
BLACK
6
CONTINUOUS
10
3.36715
20
1.30706
11
3.36225
21
1.30706
0
LINE
8
BLACK
6
CONTINUOUS
10
3.26872
20
1.32231
11
3.26941
21
1.32064
0
LINE
8
BLACK
6
CONTINUOUS
10
3.26941
20
1.32064
11
3.26941
21
1.30007
0
LINE
8
BLACK
6
CONTINUOUS
10
3.26941
20
1.30007
11
3.26872
21
1.2984
0
LINE
8
BLACK
6
CONTINUOUS
10
3.26872
20
1.2984
11
3.26705
21
1.29771
0
LINE
8
BLACK
6
CONTINUOUS
10
3.26705
20
1.29771
11
3.26538
21
1.2984
0
LINE
8
BLACK
6
CONTINUOUS
10
3.26538
20
1.2984
11
3.26469
21
1.30007
0
LINE
8
BLACK
6
CONTINUOUS
10
3.26469
20
1.30007
11
3.26469
21
1.32064
0
LINE
8
BLACK
6
CONTINUOUS
10
3.26469
20
1.32064
11
3.26538
21
1.32231
0
LINE
8
BLACK
6
CONTINUOUS
10
3.26538
20
1.32231
11
3.26705
21
1.323
0
LINE
8
BLACK
6
CONTINUOUS
10
3.26705
20
1.323
11
3.26872
21
1.32231
0
LINE
8
BLACK
6
CONTINUOUS
10
3.32462
20
1.32231
11
3.32531
21
1.32064
0
LINE
8
BLACK
6
CONTINUOUS
10
3.32531
20
1.32064
11
3.32531
21
1.30007
0
LINE
8
BLACK
6
CONTINUOUS
10
3.32531
20
1.30007
11
3.32462
21
1.2984
0
LINE
8
BLACK
6
CONTINUOUS
10
3.32462
20
1.2984
11
3.32295
21
1.29771
0
LINE
8
BLACK
6
CONTINUOUS
10
3.32295
20
1.29771
11
3.32128
21
1.2984
0
LINE
8
BLACK
6
CONTINUOUS
10
3.32128
20
1.2984
11
3.32059
21
1.30007
0
LINE
8
BLACK
6
CONTINUOUS
10
3.32059
20
1.30007
11
3.32059
21
1.32064
0
LINE
8
BLACK
6
CONTINUOUS
10
3.32059
20
1.32064
11
3.32128
21
1.32231
0
LINE
8
BLACK
6
CONTINUOUS
10
3.32128
20
1.32231
11
3.32295
21
1.323
0
LINE
8
BLACK
6
CONTINUOUS
10
3.32295
20
1.323
11
3.32462
21
1.32231
0
LINE
8
BLACK
6
CONTINUOUS
10
3.2107
20
1.3394
11
3.21139
21
1.3375
0
LINE
8
BLACK
6
CONTINUOUS
10
3.21139
20
1.3375
11
3.21139
21
1.32171
0
LINE
8
BLACK
6
CONTINUOUS
10
3.21139
20
1.32171
11
3.22424
21
1.32171
0
LINE
8
BLACK
6
CONTINUOUS
10
3.22424
20
1.32171
11
3.22424
21
1.33188
0
LINE
8
BLACK
6
CONTINUOUS
10
3.22424
20
1.33188
11
3.22441
21
1.33289
0
LINE
8
BLACK
6
CONTINUOUS
10
3.22441
20
1.33289
11
3.22571
21
1.33443
0
LINE
8
BLACK
6
CONTINUOUS
10
3.22571
20
1.33443
11
3.2277
21
1.33478
0
LINE
8
BLACK
6
CONTINUOUS
10
3.2277
20
1.33478
11
3.22945
21
1.33377
0
LINE
8
BLACK
6
CONTINUOUS
10
3.22945
20
1.33377
11
3.23014
21
1.33188
0
LINE
8
BLACK
6
CONTINUOUS
10
3.23014
20
1.33188
11
3.23014
21
1.32171
0
LINE
8
BLACK
6
CONTINUOUS
10
3.23014
20
1.32171
11
3.24781
21
1.32171
0
LINE
8
BLACK
6
CONTINUOUS
10
3.24781
20
1.32171
11
3.24882
21
1.32153
0
LINE
8
BLACK
6
CONTINUOUS
10
3.24882
20
1.32153
11
3.25037
21
1.32023
0
LINE
8
BLACK
6
CONTINUOUS
10
3.25037
20
1.32023
11
3.25072
21
1.31824
0
LINE
8
BLACK
6
CONTINUOUS
10
3.25072
20
1.31824
11
3.24971
21
1.31649
0
LINE
8
BLACK
6
CONTINUOUS
10
3.24971
20
1.31649
11
3.24781
21
1.3158
0
LINE
8
BLACK
6
CONTINUOUS
10
3.24781
20
1.3158
11
3.20844
21
1.3158
0
LINE
8
BLACK
6
CONTINUOUS
10
3.20844
20
1.3158
11
3.20806
21
1.31587
0
LINE
8
BLACK
6
CONTINUOUS
10
3.20806
20
1.31587
11
3.20793
21
1.31585
0
LINE
8
BLACK
6
CONTINUOUS
10
3.20793
20
1.31585
11
3.20781
21
1.31591
0
LINE
8
BLACK
6
CONTINUOUS
10
3.20781
20
1.31591
11
3.20743
21
1.31598
0
LINE
8
BLACK
6
CONTINUOUS
10
3.20743
20
1.31598
11
3.20684
21
1.31647
0
LINE
8
BLACK
6
CONTINUOUS
10
3.20684
20
1.31647
11
3.20618
21
1.31686
0
LINE
8
BLACK
6
CONTINUOUS
10
3.20618
20
1.31686
11
3.20609
21
1.31711
0
LINE
8
BLACK
6
CONTINUOUS
10
3.20609
20
1.31711
11
3.20588
21
1.31728
0
LINE
8
BLACK
6
CONTINUOUS
10
3.20588
20
1.31728
11
3.20575
21
1.31803
0
LINE
8
BLACK
6
CONTINUOUS
10
3.20575
20
1.31803
11
3.20549
21
1.31875
0
LINE
8
BLACK
6
CONTINUOUS
10
3.20549
20
1.31875
11
3.20549
21
1.3375
0
LINE
8
BLACK
6
CONTINUOUS
10
3.20549
20
1.3375
11
3.20567
21
1.33851
0
LINE
8
BLACK
6
CONTINUOUS
10
3.20567
20
1.33851
11
3.20696
21
1.34006
0
LINE
8
BLACK
6
CONTINUOUS
10
3.20696
20
1.34006
11
3.20895
21
1.34041
0
LINE
8
BLACK
6
CONTINUOUS
10
3.20895
20
1.34041
11
3.2107
21
1.3394
0
LINE
8
BLACK
6
CONTINUOUS
10
3.35713
20
1.35031
11
3.3572
21
1.35031
0
LINE
8
BLACK
6
CONTINUOUS
10
3.3572
20
1.35031
11
3.36282
21
1.34843
0
LINE
8
BLACK
6
CONTINUOUS
10
3.36282
20
1.34843
11
3.36372
21
1.34795
0
LINE
8
BLACK
6
CONTINUOUS
10
3.36372
20
1.34795
11
3.36382
21
1.3478
0
LINE
8
BLACK
6
CONTINUOUS
10
3.36382
20
1.3478
11
3.36398
21
1.34772
0
LINE
8
BLACK
6
CONTINUOUS
10
3.36398
20
1.34772
11
3.38143
21
1.33027
0
LINE
8
BLACK
6
CONTINUOUS
10
3.38143
20
1.33027
11
3.38143
21
1.34751
0
LINE
8
BLACK
6
CONTINUOUS
10
3.38143
20
1.34751
11
3.38161
21
1.34852
0
LINE
8
BLACK
6
CONTINUOUS
10
3.38161
20
1.34852
11
3.38291
21
1.35007
0
LINE
8
BLACK
6
CONTINUOUS
10
3.38291
20
1.35007
11
3.3849
21
1.35042
0
LINE
8
BLACK
6
CONTINUOUS
10
3.3849
20
1.35042
11
3.38665
21
1.34941
0
LINE
8
BLACK
6
CONTINUOUS
10
3.38665
20
1.34941
11
3.38734
21
1.34751
0
LINE
8
BLACK
6
CONTINUOUS
10
3.38734
20
1.34751
11
3.38734
21
1.32314
0
LINE
8
BLACK
6
CONTINUOUS
10
3.38734
20
1.32314
11
3.38723
21
1.3225
0
LINE
8
BLACK
6
CONTINUOUS
10
3.38723
20
1.3225
11
3.38724
21
1.32237
0
LINE
8
BLACK
6
CONTINUOUS
10
3.38724
20
1.32237
11
3.38719
21
1.32231
0
LINE
8
BLACK
6
CONTINUOUS
10
3.38719
20
1.32231
11
3.38716
21
1.32213
0
LINE
8
BLACK
6
CONTINUOUS
10
3.38716
20
1.32213
11
3.38659
21
1.32145
0
LINE
8
BLACK
6
CONTINUOUS
10
3.38659
20
1.32145
11
3.38608
21
1.32072
0
LINE
8
BLACK
6
CONTINUOUS
10
3.38608
20
1.32072
11
3.38595
21
1.32068
0
LINE
8
BLACK
6
CONTINUOUS
10
3.38595
20
1.32068
11
3.38586
21
1.32058
0
LINE
8
BLACK
6
CONTINUOUS
10
3.38586
20
1.32058
11
3.38499
21
1.32042
0
LINE
8
BLACK
6
CONTINUOUS
10
3.38499
20
1.32042
11
3.38413
21
1.3202
0
LINE
8
BLACK
6
CONTINUOUS
10
3.38413
20
1.3202
11
3.38401
21
1.32025
0
LINE
8
BLACK
6
CONTINUOUS
10
3.38401
20
1.32025
11
3.38387
21
1.32023
0
LINE
8
BLACK
6
CONTINUOUS
10
3.38387
20
1.32023
11
3.3831
21
1.32067
0
LINE
8
BLACK
6
CONTINUOUS
10
3.3831
20
1.32067
11
3.3823
21
1.32105
0
LINE
8
BLACK
6
CONTINUOUS
10
3.3823
20
1.32105
11
3.36029
21
1.34305
0
LINE
8
BLACK
6
CONTINUOUS
10
3.36029
20
1.34305
11
3.35578
21
1.34456
0
LINE
8
BLACK
6
CONTINUOUS
10
3.35578
20
1.34456
11
3.35321
21
1.34456
0
LINE
8
BLACK
6
CONTINUOUS
10
3.35321
20
1.34456
11
3.35051
21
1.34321
0
LINE
8
BLACK
6
CONTINUOUS
10
3.35051
20
1.34321
11
3.34932
21
1.34201
0
LINE
8
BLACK
6
CONTINUOUS
10
3.34932
20
1.34201
11
3.34797
21
1.33931
0
LINE
8
BLACK
6
CONTINUOUS
10
3.34797
20
1.33931
11
3.34797
21
1.33133
0
LINE
8
BLACK
6
CONTINUOUS
10
3.34797
20
1.33133
11
3.34932
21
1.32864
0
LINE
8
BLACK
6
CONTINUOUS
10
3.34932
20
1.32864
11
3.35085
21
1.3271
0
LINE
8
BLACK
6
CONTINUOUS
10
3.35085
20
1.3271
11
3.35144
21
1.32626
0
LINE
8
BLACK
6
CONTINUOUS
10
3.35144
20
1.32626
11
3.35162
21
1.32425
0
LINE
8
BLACK
6
CONTINUOUS
10
3.35162
20
1.32425
11
3.35046
21
1.32259
0
LINE
8
BLACK
6
CONTINUOUS
10
3.35046
20
1.32259
11
3.34851
21
1.32207
0
LINE
8
BLACK
6
CONTINUOUS
10
3.34851
20
1.32207
11
3.34668
21
1.32292
0
LINE
8
BLACK
6
CONTINUOUS
10
3.34668
20
1.32292
11
3.3448
21
1.3248
0
LINE
8
BLACK
6
CONTINUOUS
10
3.3448
20
1.3248
11
3.3443
21
1.32552
0
LINE
8
BLACK
6
CONTINUOUS
10
3.3443
20
1.32552
11
3.34425
21
1.32557
0
LINE
8
BLACK
6
CONTINUOUS
10
3.34425
20
1.32557
11
3.34237
21
1.32932
0
LINE
8
BLACK
6
CONTINUOUS
10
3.34237
20
1.32932
11
3.34208
21
1.3303
0
LINE
8
BLACK
6
CONTINUOUS
10
3.34208
20
1.3303
11
3.34212
21
1.33047
0
LINE
8
BLACK
6
CONTINUOUS
10
3.34212
20
1.33047
11
3.34206
21
1.33064
0
LINE
8
BLACK
6
CONTINUOUS
10
3.34206
20
1.33064
11
3.34206
21
1.34001
0
LINE
8
BLACK
6
CONTINUOUS
10
3.34206
20
1.34001
11
3.34224
21
1.34102
0
LINE
8
BLACK
6
CONTINUOUS
10
3.34224
20
1.34102
11
3.34235
21
1.34115
0
LINE
8
BLACK
6
CONTINUOUS
10
3.34235
20
1.34115
11
3.34237
21
1.34133
0
LINE
8
BLACK
6
CONTINUOUS
10
3.34237
20
1.34133
11
3.34425
21
1.34508
0
LINE
8
BLACK
6
CONTINUOUS
10
3.34425
20
1.34508
11
3.34477
21
1.34579
0
LINE
8
BLACK
6
CONTINUOUS
10
3.34477
20
1.34579
11
3.3448
21
1.34585
0
LINE
8
BLACK
6
CONTINUOUS
10
3.3448
20
1.34585
11
3.34668
21
1.34772
0
LINE
8
BLACK
6
CONTINUOUS
10
3.34668
20
1.34772
11
3.3474
21
1.34823
0
LINE
8
BLACK
6
CONTINUOUS
10
3.3474
20
1.34823
11
3.34744
21
1.34827
0
LINE
8
BLACK
6
CONTINUOUS
10
3.34744
20
1.34827
11
3.35119
21
1.35015
0
LINE
8
BLACK
6
CONTINUOUS
10
3.35119
20
1.35015
11
3.35218
21
1.35044
0
LINE
8
BLACK
6
CONTINUOUS
10
3.35218
20
1.35044
11
3.35235
21
1.3504
0
LINE
8
BLACK
6
CONTINUOUS
10
3.35235
20
1.3504
11
3.35251
21
1.35046
0
LINE
8
BLACK
6
CONTINUOUS
10
3.35251
20
1.35046
11
3.35626
21
1.35046
0
LINE
8
BLACK
6
CONTINUOUS
10
3.35626
20
1.35046
11
3.35713
21
1.35031
0
LINE
8
BLACK
6
CONTINUOUS
10
3.22056
20
1.37592
11
3.22062
21
1.37592
0
LINE
8
BLACK
6
CONTINUOUS
10
3.22062
20
1.37592
11
3.22625
21
1.37405
0
LINE
8
BLACK
6
CONTINUOUS
10
3.22625
20
1.37405
11
3.22715
21
1.37356
0
LINE
8
BLACK
6
CONTINUOUS
10
3.22715
20
1.37356
11
3.22724
21
1.37341
0
LINE
8
BLACK
6
CONTINUOUS
10
3.22724
20
1.37341
11
3.2274
21
1.37333
0
LINE
8
BLACK
6
CONTINUOUS
10
3.2274
20
1.37333
11
3.24486
21
1.35588
0
LINE
8
BLACK
6
CONTINUOUS
10
3.24486
20
1.35588
11
3.24486
21
1.37312
0
LINE
8
BLACK
6
CONTINUOUS
10
3.24486
20
1.37312
11
3.24504
21
1.37413
0
LINE
8
BLACK
6
CONTINUOUS
10
3.24504
20
1.37413
11
3.24633
21
1.37568
0
LINE
8
BLACK
6
CONTINUOUS
10
3.24633
20
1.37568
11
3.24832
21
1.37603
0
LINE
8
BLACK
6
CONTINUOUS
10
3.24832
20
1.37603
11
3.25007
21
1.37502
0
LINE
8
BLACK
6
CONTINUOUS
10
3.25007
20
1.37502
11
3.25076
21
1.37312
0
LINE
8
BLACK
6
CONTINUOUS
10
3.25076
20
1.37312
11
3.25076
21
1.34875
0
LINE
8
BLACK
6
CONTINUOUS
10
3.25076
20
1.34875
11
3.25065
21
1.34811
0
LINE
8
BLACK
6
CONTINUOUS
10
3.25065
20
1.34811
11
3.25066
21
1.34799
0
LINE
8
BLACK
6
CONTINUOUS
10
3.25066
20
1.34799
11
3.25062
21
1.34792
0
LINE
8
BLACK
6
CONTINUOUS
10
3.25062
20
1.34792
11
3.25058
21
1.34774
0
LINE
8
BLACK
6
CONTINUOUS
10
3.25058
20
1.34774
11
3.25001
21
1.34706
0
LINE
8
BLACK
6
CONTINUOUS
10
3.25001
20
1.34706
11
3.2495
21
1.34633
0
LINE
8
BLACK
6
CONTINUOUS
10
3.2495
20
1.34633
11
3.24937
21
1.3463
0
LINE
8
BLACK
6
CONTINUOUS
10
3.24937
20
1.3463
11
3.24929
21
1.34619
0
LINE
8
BLACK
6
CONTINUOUS
10
3.24929
20
1.34619
11
3.24841
21
1.34604
0
LINE
8
BLACK
6
CONTINUOUS
10
3.24841
20
1.34604
11
3.24755
21
1.34581
0
LINE
8
BLACK
6
CONTINUOUS
10
3.24755
20
1.34581
11
3.24743
21
1.34587
0
LINE
8
BLACK
6
CONTINUOUS
10
3.24743
20
1.34587
11
3.2473
21
1.34584
0
LINE
8
BLACK
6
CONTINUOUS
10
3.2473
20
1.34584
11
3.24653
21
1.34629
0
LINE
8
BLACK
6
CONTINUOUS
10
3.24653
20
1.34629
11
3.24572
21
1.34666
0
LINE
8
BLACK
6
CONTINUOUS
10
3.24572
20
1.34666
11
3.22372
21
1.36867
0
LINE
8
BLACK
6
CONTINUOUS
10
3.22372
20
1.36867
11
3.21921
21
1.37017
0
LINE
8
BLACK
6
CONTINUOUS
10
3.21921
20
1.37017
11
3.21664
21
1.37017
0
LINE
8
BLACK
6
CONTINUOUS
10
3.21664
20
1.37017
11
3.21394
21
1.36882
0
LINE
8
BLACK
6
CONTINUOUS
10
3.21394
20
1.36882
11
3.21274
21
1.36762
0
LINE
8
BLACK
6
CONTINUOUS
10
3.21274
20
1.36762
11
3.21139
21
1.36493
0
LINE
8
BLACK
6
CONTINUOUS
10
3.21139
20
1.36493
11
3.21139
21
1.35695
0
LINE
8
BLACK
6
CONTINUOUS
10
3.21139
20
1.35695
11
3.21274
21
1.35425
0
LINE
8
BLACK
6
CONTINUOUS
10
3.21274
20
1.35425
11
3.21428
21
1.35271
0
LINE
8
BLACK
6
CONTINUOUS
10
3.21428
20
1.35271
11
3.21487
21
1.35187
0
LINE
8
BLACK
6
CONTINUOUS
10
3.21487
20
1.35187
11
3.21504
21
1.34986
0
LINE
8
BLACK
6
CONTINUOUS
10
3.21504
20
1.34986
11
3.21388
21
1.34821
0
LINE
8
BLACK
6
CONTINUOUS
10
3.21388
20
1.34821
11
3.21193
21
1.34768
0
LINE
8
BLACK
6
CONTINUOUS
10
3.21193
20
1.34768
11
3.2101
21
1.34854
0
LINE
8
BLACK
6
CONTINUOUS
10
3.2101
20
1.34854
11
3.20823
21
1.35041
0
LINE
8
BLACK
6
CONTINUOUS
10
3.20823
20
1.35041
11
3.20772
21
1.35113
0
LINE
8
BLACK
6
CONTINUOUS
10
3.20772
20
1.35113
11
3.20767
21
1.35118
0
LINE
8
BLACK
6
CONTINUOUS
10
3.20767
20
1.35118
11
3.2058
21
1.35493
0
LINE
8
BLACK
6
CONTINUOUS
10
3.2058
20
1.35493
11
3.20551
21
1.35591
0
LINE
8
BLACK
6
CONTINUOUS
10
3.20551
20
1.35591
11
3.20555
21
1.35608
0
LINE
8
BLACK
6
CONTINUOUS
10
3.20555
20
1.35608
11
3.20549
21
1.35625
0
LINE
8
BLACK
6
CONTINUOUS
10
3.20549
20
1.35625
11
3.20549
21
1.36562
0
LINE
8
BLACK
6
CONTINUOUS
10
3.20549
20
1.36562
11
3.20567
21
1.36663
0
LINE
8
BLACK
6
CONTINUOUS
10
3.20567
20
1.36663
11
3.20578
21
1.36677
0
LINE
8
BLACK
6
CONTINUOUS
10
3.20578
20
1.36677
11
3.2058
21
1.36694
0
LINE
8
BLACK
6
CONTINUOUS
10
3.2058
20
1.36694
11
3.20767
21
1.37069
0
LINE
8
BLACK
6
CONTINUOUS
10
3.20767
20
1.37069
11
3.2082
21
1.3714
0
LINE
8
BLACK
6
CONTINUOUS
10
3.2082
20
1.3714
11
3.20823
21
1.37146
0
LINE
8
BLACK
6
CONTINUOUS
10
3.20823
20
1.37146
11
3.2101
21
1.37333
0
LINE
8
BLACK
6
CONTINUOUS
10
3.2101
20
1.37333
11
3.21082
21
1.37384
0
LINE
8
BLACK
6
CONTINUOUS
10
3.21082
20
1.37384
11
3.21087
21
1.37389
0
LINE
8
BLACK
6
CONTINUOUS
10
3.21087
20
1.37389
11
3.21462
21
1.37576
0
LINE
8
BLACK
6
CONTINUOUS
10
3.21462
20
1.37576
11
3.2156
21
1.37605
0
LINE
8
BLACK
6
CONTINUOUS
10
3.2156
20
1.37605
11
3.21577
21
1.37601
0
LINE
8
BLACK
6
CONTINUOUS
10
3.21577
20
1.37601
11
3.21594
21
1.37607
0
LINE
8
BLACK
6
CONTINUOUS
10
3.21594
20
1.37607
11
3.21969
21
1.37607
0
LINE
8
BLACK
6
CONTINUOUS
10
3.21969
20
1.37607
11
3.22056
21
1.37592
0
LINE
8
BLACK
6
CONTINUOUS
10
1.14073
20
1.86057
11
1.14082
21
1.86057
0
LINE
8
BLACK
6
CONTINUOUS
10
1.14082
20
1.86057
11
1.14174
21
1.8599
0
LINE
8
BLACK
6
CONTINUOUS
10
1.14174
20
1.8599
11
1.14269
21
1.85927
0
LINE
8
BLACK
6
CONTINUOUS
10
1.14269
20
1.85927
11
1.14272
21
1.85919
0
LINE
8
BLACK
6
CONTINUOUS
10
1.14272
20
1.85919
11
1.14278
21
1.85914
0
LINE
8
BLACK
6
CONTINUOUS
10
1.14278
20
1.85914
11
1.14314
21
1.85806
0
LINE
8
BLACK
6
CONTINUOUS
10
1.14314
20
1.85806
11
1.14353
21
1.85699
0
LINE
8
BLACK
6
CONTINUOUS
10
1.14353
20
1.85699
11
1.14351
21
1.85691
0
LINE
8
BLACK
6
CONTINUOUS
10
1.14351
20
1.85691
11
1.14354
21
1.85683
0
LINE
8
BLACK
6
CONTINUOUS
10
1.14354
20
1.85683
11
1.14354
21
1.80958
0
LINE
8
BLACK
6
CONTINUOUS
10
1.14354
20
1.80958
11
1.15422
21
1.80958
0
LINE
8
BLACK
6
CONTINUOUS
10
1.15422
20
1.80958
11
1.15654
21
1.80883
0
LINE
8
BLACK
6
CONTINUOUS
10
1.15654
20
1.80883
11
1.15797
21
1.80686
0
LINE
8
BLACK
6
CONTINUOUS
10
1.15797
20
1.80686
11
1.15797
21
1.80443
0
LINE
8
BLACK
6
CONTINUOUS
10
1.15797
20
1.80443
11
1.15654
21
1.80246
0
LINE
8
BLACK
6
CONTINUOUS
10
1.15654
20
1.80246
11
1.15422
21
1.80171
0
LINE
8
BLACK
6
CONTINUOUS
10
1.15422
20
1.80171
11
1.12498
21
1.80171
0
LINE
8
BLACK
6
CONTINUOUS
10
1.12498
20
1.80171
11
1.12266
21
1.80246
0
LINE
8
BLACK
6
CONTINUOUS
10
1.12266
20
1.80246
11
1.12123
21
1.80443
0
LINE
8
BLACK
6
CONTINUOUS
10
1.12123
20
1.80443
11
1.12123
21
1.80686
0
LINE
8
BLACK
6
CONTINUOUS
10
1.12123
20
1.80686
11
1.12266
21
1.80883
0
LINE
8
BLACK
6
CONTINUOUS
10
1.12266
20
1.80883
11
1.12498
21
1.80958
0
LINE
8
BLACK
6
CONTINUOUS
10
1.12498
20
1.80958
11
1.13566
21
1.80958
0
LINE
8
BLACK
6
CONTINUOUS
10
1.13566
20
1.80958
11
1.13566
21
1.84488
0
LINE
8
BLACK
6
CONTINUOUS
10
1.13566
20
1.84488
11
1.13263
21
1.84186
0
LINE
8
BLACK
6
CONTINUOUS
10
1.13263
20
1.84186
11
1.13207
21
1.84157
0
LINE
8
BLACK
6
CONTINUOUS
10
1.13207
20
1.84157
11
1.13161
21
1.84112
0
LINE
8
BLACK
6
CONTINUOUS
10
1.13161
20
1.84112
11
1.12674
21
1.83868
0
LINE
8
BLACK
6
CONTINUOUS
10
1.12674
20
1.83868
11
1.12433
21
1.83832
0
LINE
8
BLACK
6
CONTINUOUS
10
1.12433
20
1.83832
11
1.12217
21
1.83944
0
LINE
8
BLACK
6
CONTINUOUS
10
1.12217
20
1.83944
11
1.12108
21
1.84162
0
LINE
8
BLACK
6
CONTINUOUS
10
1.12108
20
1.84162
11
1.12148
21
1.84402
0
LINE
8
BLACK
6
CONTINUOUS
10
1.12148
20
1.84402
11
1.12321
21
1.84573
0
LINE
8
BLACK
6
CONTINUOUS
10
1.12321
20
1.84573
11
1.12752
21
1.84788
0
LINE
8
BLACK
6
CONTINUOUS
10
1.12752
20
1.84788
11
1.13166
21
1.85202
0
LINE
8
BLACK
6
CONTINUOUS
10
1.13166
20
1.85202
11
1.13632
21
1.85901
0
LINE
8
BLACK
6
CONTINUOUS
10
1.13632
20
1.85901
11
1.13639
21
1.85906
0
LINE
8
BLACK
6
CONTINUOUS
10
1.13639
20
1.85906
11
1.13641
21
1.85914
0
LINE
8
BLACK
6
CONTINUOUS
10
1.13641
20
1.85914
11
1.13734
21
1.85981
0
LINE
8
BLACK
6
CONTINUOUS
10
1.13734
20
1.85981
11
1.13823
21
1.86052
0
LINE
8
BLACK
6
CONTINUOUS
10
1.13823
20
1.86052
11
1.13832
21
1.86052
0
LINE
8
BLACK
6
CONTINUOUS
10
1.13832
20
1.86052
11
1.13838
21
1.86057
0
LINE
8
BLACK
6
CONTINUOUS
10
1.13838
20
1.86057
11
1.13952
21
1.86057
0
LINE
8
BLACK
6
CONTINUOUS
10
1.13952
20
1.86057
11
1.14066
21
1.86062
0
LINE
8
BLACK
6
CONTINUOUS
10
1.14066
20
1.86062
11
1.14073
21
1.86057
0
LINE
8
BLACK
6
CONTINUOUS
10
1.04028
20
1.86057
11
1.04092
21
1.86056
0
LINE
8
BLACK
6
CONTINUOUS
10
1.04092
20
1.86056
11
1.04823
21
1.85812
0
LINE
8
BLACK
6
CONTINUOUS
10
1.04823
20
1.85812
11
1.04896
21
1.85759
0
LINE
8
BLACK
6
CONTINUOUS
10
1.04896
20
1.85759
11
1.04977
21
1.85717
0
LINE
8
BLACK
6
CONTINUOUS
10
1.04977
20
1.85717
11
1.05464
21
1.8523
0
LINE
8
BLACK
6
CONTINUOUS
10
1.05464
20
1.8523
11
1.05493
21
1.85173
0
LINE
8
BLACK
6
CONTINUOUS
10
1.05493
20
1.85173
11
1.05538
21
1.85128
0
LINE
8
BLACK
6
CONTINUOUS
10
1.05538
20
1.85128
11
1.05782
21
1.8464
0
LINE
8
BLACK
6
CONTINUOUS
10
1.05782
20
1.8464
11
1.05788
21
1.84597
0
LINE
8
BLACK
6
CONTINUOUS
10
1.05788
20
1.84597
11
1.05812
21
1.8456
0
LINE
8
BLACK
6
CONTINUOUS
10
1.05812
20
1.8456
11
1.06055
21
1.83585
0
LINE
8
BLACK
6
CONTINUOUS
10
1.06055
20
1.83585
11
1.06052
21
1.83536
0
LINE
8
BLACK
6
CONTINUOUS
10
1.06052
20
1.83536
11
1.06067
21
1.83489
0
LINE
8
BLACK
6
CONTINUOUS
10
1.06067
20
1.83489
11
1.06067
21
1.82758
0
LINE
8
BLACK
6
CONTINUOUS
10
1.06067
20
1.82758
11
1.06052
21
1.82711
0
LINE
8
BLACK
6
CONTINUOUS
10
1.06052
20
1.82711
11
1.06055
21
1.82663
0
LINE
8
BLACK
6
CONTINUOUS
10
1.06055
20
1.82663
11
1.05812
21
1.81688
0
LINE
8
BLACK
6
CONTINUOUS
10
1.05812
20
1.81688
11
1.05788
21
1.81651
0
LINE
8
BLACK
6
CONTINUOUS
10
1.05788
20
1.81651
11
1.05782
21
1.81607
0
LINE
8
BLACK
6
CONTINUOUS
10
1.05782
20
1.81607
11
1.05538
21
1.8112
0
LINE
8
BLACK
6
CONTINUOUS
10
1.05538
20
1.8112
11
1.05493
21
1.81074
0
LINE
8
BLACK
6
CONTINUOUS
10
1.05493
20
1.81074
11
1.05464
21
1.81017
0
LINE
8
BLACK
6
CONTINUOUS
10
1.05464
20
1.81017
11
1.04977
21
1.8053
0
LINE
8
BLACK
6
CONTINUOUS
10
1.04977
20
1.8053
11
1.04896
21
1.80489
0
LINE
8
BLACK
6
CONTINUOUS
10
1.04896
20
1.80489
11
1.04823
21
1.80435
0
LINE
8
BLACK
6
CONTINUOUS
10
1.04823
20
1.80435
11
1.04092
21
1.80191
0
LINE
8
BLACK
6
CONTINUOUS
10
1.04092
20
1.80191
11
1.04028
21
1.80191
0
LINE
8
BLACK
6
CONTINUOUS
10
1.04028
20
1.80191
11
1.03967
21
1.80171
0
LINE
8
BLACK
6
CONTINUOUS
10
1.03967
20
1.80171
11
1.02749
21
1.80171
0
LINE
8
BLACK
6
CONTINUOUS
10
1.02749
20
1.80171
11
1.02689
21
1.8019
0
LINE
8
BLACK
6
CONTINUOUS
10
1.02689
20
1.8019
11
1.02627
21
1.8019
0
LINE
8
BLACK
6
CONTINUOUS
10
1.02627
20
1.8019
11
1.02577
21
1.80227
0
LINE
8
BLACK
6
CONTINUOUS
10
1.02577
20
1.80227
11
1.02517
21
1.80246
0
LINE
8
BLACK
6
CONTINUOUS
10
1.02517
20
1.80246
11
1.02481
21
1.80297
0
LINE
8
BLACK
6
CONTINUOUS
10
1.02481
20
1.80297
11
1.0243
21
1.80333
0
LINE
8
BLACK
6
CONTINUOUS
10
1.0243
20
1.80333
11
1.02411
21
1.80392
0
LINE
8
BLACK
6
CONTINUOUS
10
1.02411
20
1.80392
11
1.02374
21
1.80443
0
LINE
8
BLACK
6
CONTINUOUS
10
1.02374
20
1.80443
11
1.02374
21
1.80505
0
LINE
8
BLACK
6
CONTINUOUS
10
1.02374
20
1.80505
11
1.02355
21
1.80565
0
LINE
8
BLACK
6
CONTINUOUS
10
1.02355
20
1.80565
11
1.02355
21
1.85683
0
LINE
8
BLACK
6
CONTINUOUS
10
1.02355
20
1.85683
11
1.02374
21
1.85742
0
LINE
8
BLACK
6
CONTINUOUS
10
1.02374
20
1.85742
11
1.02374
21
1.85804
0
LINE
8
BLACK
6
CONTINUOUS
10
1.02374
20
1.85804
11
1.02411
21
1.85855
0
LINE
8
BLACK
6
CONTINUOUS
10
1.02411
20
1.85855
11
1.0243
21
1.85914
0
LINE
8
BLACK
6
CONTINUOUS
10
1.0243
20
1.85914
11
1.02481
21
1.85951
0
LINE
8
BLACK
6
CONTINUOUS
10
1.02481
20
1.85951
11
1.02517
21
1.86001
0
LINE
8
BLACK
6
CONTINUOUS
10
1.02517
20
1.86001
11
1.02577
21
1.8602
0
LINE
8
BLACK
6
CONTINUOUS
10
1.02577
20
1.8602
11
1.02627
21
1.86057
0
LINE
8
BLACK
6
CONTINUOUS
10
1.02627
20
1.86057
11
1.02689
21
1.86057
0
LINE
8
BLACK
6
CONTINUOUS
10
1.02689
20
1.86057
11
1.02749
21
1.86076
0
LINE
8
BLACK
6
CONTINUOUS
10
1.02749
20
1.86076
11
1.03967
21
1.86076
0
LINE
8
BLACK
6
CONTINUOUS
10
1.03967
20
1.86076
11
1.04028
21
1.86057
0
LINE
8
BLACK
6
CONTINUOUS
10
1.03142
20
1.85289
11
1.03142
21
1.80958
0
LINE
8
BLACK
6
CONTINUOUS
10
1.03142
20
1.80958
11
1.03903
21
1.80958
0
LINE
8
BLACK
6
CONTINUOUS
10
1.03903
20
1.80958
11
1.04486
21
1.81152
0
LINE
8
BLACK
6
CONTINUOUS
10
1.04486
20
1.81152
11
1.04862
21
1.81529
0
LINE
8
BLACK
6
CONTINUOUS
10
1.04862
20
1.81529
11
1.05058
21
1.81921
0
LINE
8
BLACK
6
CONTINUOUS
10
1.05058
20
1.81921
11
1.0528
21
1.82807
0
LINE
8
BLACK
6
CONTINUOUS
10
1.0528
20
1.82807
11
1.0528
21
1.83441
0
LINE
8
BLACK
6
CONTINUOUS
10
1.0528
20
1.83441
11
1.05058
21
1.84327
0
LINE
8
BLACK
6
CONTINUOUS
10
1.05058
20
1.84327
11
1.04862
21
1.84718
0
LINE
8
BLACK
6
CONTINUOUS
10
1.04862
20
1.84718
11
1.04486
21
1.85095
0
LINE
8
BLACK
6
CONTINUOUS
10
1.04486
20
1.85095
11
1.03903
21
1.85289
0
LINE
8
BLACK
6
CONTINUOUS
10
1.03903
20
1.85289
11
1.03142
21
1.85289
0
LINE
8
BLACK
6
CONTINUOUS
10
0.87237
20
1.86048
11
0.873268
21
1.86035
0
LINE
8
BLACK
6
CONTINUOUS
10
0.873268
20
1.86035
11
0.878142
21
1.85791
0
LINE
8
BLACK
6
CONTINUOUS
10
0.878142
20
1.85791
11
0.878597
21
1.85746
0
LINE
8
BLACK
6
CONTINUOUS
10
0.878597
20
1.85746
11
0.879166
21
1.85717
0
LINE
8
BLACK
6
CONTINUOUS
10
0.879166
20
1.85717
11
0.881603
21
1.85474
0
LINE
8
BLACK
6
CONTINUOUS
10
0.881603
20
1.85474
11
0.881892
21
1.85417
0
LINE
8
BLACK
6
CONTINUOUS
10
0.881892
20
1.85417
11
0.88234
21
1.85371
0
LINE
8
BLACK
6
CONTINUOUS
10
0.88234
20
1.85371
11
0.884777
21
1.84884
0
LINE
8
BLACK
6
CONTINUOUS
10
0.884777
20
1.84884
11
0.884913
21
1.84794
0
LINE
8
BLACK
6
CONTINUOUS
10
0.884913
20
1.84794
11
0.885193
21
1.84708
0
LINE
8
BLACK
6
CONTINUOUS
10
0.885193
20
1.84708
11
0.885193
21
1.8422
0
LINE
8
BLACK
6
CONTINUOUS
10
0.885193
20
1.8422
11
0.884913
21
1.84134
0
LINE
8
BLACK
6
CONTINUOUS
10
0.884913
20
1.84134
11
0.884777
21
1.84044
0
LINE
8
BLACK
6
CONTINUOUS
10
0.884777
20
1.84044
11
0.88234
21
1.83557
0
LINE
8
BLACK
6
CONTINUOUS
10
0.88234
20
1.83557
11
0.881892
21
1.83511
0
LINE
8
BLACK
6
CONTINUOUS
10
0.881892
20
1.83511
11
0.881603
21
1.83455
0
LINE
8
BLACK
6
CONTINUOUS
10
0.881603
20
1.83455
11
0.880493
21
1.83344
0
LINE
8
BLACK
6
CONTINUOUS
10
0.880493
20
1.83344
11
0.880794
21
1.83321
0
LINE
8
BLACK
6
CONTINUOUS
10
0.880794
20
1.83321
11
0.881603
21
1.8328
0
LINE
8
BLACK
6
CONTINUOUS
10
0.881603
20
1.8328
11
0.88404
21
1.83036
0
LINE
8
BLACK
6
CONTINUOUS
10
0.88404
20
1.83036
11
0.88433
21
1.8298
0
LINE
8
BLACK
6
CONTINUOUS
10
0.88433
20
1.8298
11
0.884777
21
1.82934
0
LINE
8
BLACK
6
CONTINUOUS
10
0.884777
20
1.82934
11
0.887215
21
1.82447
0
LINE
8
BLACK
6
CONTINUOUS
10
0.887215
20
1.82447
11
0.88735
21
1.82357
0
LINE
8
BLACK
6
CONTINUOUS
10
0.88735
20
1.82357
11
0.88763
21
1.82271
0
LINE
8
BLACK
6
CONTINUOUS
10
0.88763
20
1.82271
11
0.88763
21
1.81539
0
LINE
8
BLACK
6
CONTINUOUS
10
0.88763
20
1.81539
11
0.88735
21
1.81453
0
LINE
8
BLACK
6
CONTINUOUS
10
0.88735
20
1.81453
11
0.887215
21
1.81363
0
LINE
8
BLACK
6
CONTINUOUS
10
0.887215
20
1.81363
11
0.884777
21
1.80876
0
LINE
8
BLACK
6
CONTINUOUS
10
0.884777
20
1.80876
11
0.88433
21
1.8083
0
LINE
8
BLACK
6
CONTINUOUS
10
0.88433
20
1.8083
11
0.88404
21
1.80774
0
LINE
8
BLACK
6
CONTINUOUS
10
0.88404
20
1.80774
11
0.881603
21
1.8053
0
LINE
8
BLACK
6
CONTINUOUS
10
0.881603
20
1.8053
11
0.881034
21
1.80501
0
LINE
8
BLACK
6
CONTINUOUS
10
0.881034
20
1.80501
11
0.88058
21
1.80456
0
LINE
8
BLACK
6
CONTINUOUS
10
0.88058
20
1.80456
11
0.875705
21
1.80212
0
LINE
8
BLACK
6
CONTINUOUS
10
0.875705
20
1.80212
11
0.874808
21
1.80199
0
LINE
8
BLACK
6
CONTINUOUS
10
0.874808
20
1.80199
11
0.873944
21
1.80171
0
LINE
8
BLACK
6
CONTINUOUS
10
0.873944
20
1.80171
11
0.854447
21
1.80171
0
LINE
8
BLACK
6
CONTINUOUS
10
0.854447
20
1.80171
11
0.853854
21
1.8019
0
LINE
8
BLACK
6
CONTINUOUS
10
0.853854
20
1.8019
11
0.85323
21
1.8019
0
LINE
8
BLACK
6
CONTINUOUS
10
0.85323
20
1.8019
11
0.852726
21
1.80227
0
LINE
8
BLACK
6
CONTINUOUS
10
0.852726
20
1.80227
11
0.852133
21
1.80246
0
LINE
8
BLACK
6
CONTINUOUS
10
0.852133
20
1.80246
11
0.851766
21
1.80297
0
LINE
8
BLACK
6
CONTINUOUS
10
0.851766
20
1.80297
11
0.851262
21
1.80333
0
LINE
8
BLACK
6
CONTINUOUS
10
0.851262
20
1.80333
11
0.851069
21
1.80392
0
LINE
8
BLACK
6
CONTINUOUS
10
0.851069
20
1.80392
11
0.850703
21
1.80443
0
LINE
8
BLACK
6
CONTINUOUS
10
0.850703
20
1.80443
11
0.850703
21
1.80505
0
LINE
8
BLACK
6
CONTINUOUS
10
0.850703
20
1.80505
11
0.85051
21
1.80565
0
LINE
8
BLACK
6
CONTINUOUS
10
0.85051
20
1.80565
11
0.85051
21
1.85683
0
LINE
8
BLACK
6
CONTINUOUS
10
0.85051
20
1.85683
11
0.850703
21
1.85742
0
LINE
8
BLACK
6
CONTINUOUS
10
0.850703
20
1.85742
11
0.850703
21
1.85804
0
LINE
8
BLACK
6
CONTINUOUS
10
0.850703
20
1.85804
11
0.851069
21
1.85855
0
LINE
8
BLACK
6
CONTINUOUS
10
0.851069
20
1.85855
11
0.851262
21
1.85914
0
LINE
8
BLACK
6
CONTINUOUS
10
0.851262
20
1.85914
11
0.851766
21
1.85951
0
LINE
8
BLACK
6
CONTINUOUS
10
0.851766
20
1.85951
11
0.852133
21
1.86001
0
LINE
8
BLACK
6
CONTINUOUS
10
0.852133
20
1.86001
11
0.852726
21
1.8602
0
LINE
8
BLACK
6
CONTINUOUS
10
0.852726
20
1.8602
11
0.85323
21
1.86057
0
LINE
8
BLACK
6
CONTINUOUS
10
0.85323
20
1.86057
11
0.853854
21
1.86057
0
LINE
8
BLACK
6
CONTINUOUS
10
0.853854
20
1.86057
11
0.854447
21
1.86076
0
LINE
8
BLACK
6
CONTINUOUS
10
0.854447
20
1.86076
11
0.871507
21
1.86076
0
LINE
8
BLACK
6
CONTINUOUS
10
0.871507
20
1.86076
11
0.87237
21
1.86048
0
LINE
8
BLACK
6
CONTINUOUS
10
0.858384
20
1.82852
11
0.858384
21
1.80958
0
LINE
8
BLACK
6
CONTINUOUS
10
0.858384
20
1.80958
11
0.873015
21
1.80958
0
LINE
8
BLACK
6
CONTINUOUS
10
0.873015
20
1.80958
11
0.876487
21
1.81132
0
LINE
8
BLACK
6
CONTINUOUS
10
0.876487
20
1.81132
11
0.87802
21
1.81285
0
LINE
8
BLACK
6
CONTINUOUS
10
0.87802
20
1.81285
11
0.879756
21
1.81632
0
LINE
8
BLACK
6
CONTINUOUS
10
0.879756
20
1.81632
11
0.879756
21
1.82178
0
LINE
8
BLACK
6
CONTINUOUS
10
0.879756
20
1.82178
11
0.87802
21
1.82525
0
LINE
8
BLACK
6
CONTINUOUS
10
0.87802
20
1.82525
11
0.876692
21
1.82658
0
LINE
8
BLACK
6
CONTINUOUS
10
0.876692
20
1.82658
11
0.870868
21
1.82852
0
LINE
8
BLACK
6
CONTINUOUS
10
0.870868
20
1.82852
11
0.858384
21
1.82852
0
LINE
8
BLACK
6
CONTINUOUS
10
0.858384
20
1.85289
11
0.858384
21
1.83639
0
LINE
8
BLACK
6
CONTINUOUS
10
0.858384
20
1.83639
11
0.870578
21
1.83639
0
LINE
8
BLACK
6
CONTINUOUS
10
0.870578
20
1.83639
11
0.87405
21
1.83813
0
LINE
8
BLACK
6
CONTINUOUS
10
0.87405
20
1.83813
11
0.875583
21
1.83966
0
LINE
8
BLACK
6
CONTINUOUS
10
0.875583
20
1.83966
11
0.877319
21
1.84313
0
LINE
8
BLACK
6
CONTINUOUS
10
0.877319
20
1.84313
11
0.877319
21
1.84615
0
LINE
8
BLACK
6
CONTINUOUS
10
0.877319
20
1.84615
11
0.875583
21
1.84962
0
LINE
8
BLACK
6
CONTINUOUS
10
0.875583
20
1.84962
11
0.87405
21
1.85115
0
LINE
8
BLACK
6
CONTINUOUS
10
0.87405
20
1.85115
11
0.870578
21
1.85289
0
LINE
8
BLACK
6
CONTINUOUS
10
0.870578
20
1.85289
11
0.858384
21
1.85289
0
LINE
8
BLACK
6
CONTINUOUS
10
0.667531
20
1.85914
11
0.668283
21
1.85683
0
LINE
8
BLACK
6
CONTINUOUS
10
0.668283
20
1.85683
11
0.668283
21
1.81632
0
LINE
8
BLACK
6
CONTINUOUS
10
0.668283
20
1.81632
11
0.670019
21
1.81285
0
LINE
8
BLACK
6
CONTINUOUS
10
0.670019
20
1.81285
11
0.671552
21
1.81132
0
LINE
8
BLACK
6
CONTINUOUS
10
0.671552
20
1.81132
11
0.675024
21
1.80958
0
LINE
8
BLACK
6
CONTINUOUS
10
0.675024
20
1.80958
11
0.682914
21
1.80958
0
LINE
8
BLACK
6
CONTINUOUS
10
0.682914
20
1.80958
11
0.686386
21
1.81132
0
LINE
8
BLACK
6
CONTINUOUS
10
0.686386
20
1.81132
11
0.687919
21
1.81285
0
LINE
8
BLACK
6
CONTINUOUS
10
0.687919
20
1.81285
11
0.689655
21
1.81632
0
LINE
8
BLACK
6
CONTINUOUS
10
0.689655
20
1.81632
11
0.689655
21
1.85683
0
LINE
8
BLACK
6
CONTINUOUS
10
0.689655
20
1.85683
11
0.690407
21
1.85914
0
LINE
8
BLACK
6
CONTINUOUS
10
0.690407
20
1.85914
11
0.692375
21
1.86057
0
LINE
8
BLACK
6
CONTINUOUS
10
0.692375
20
1.86057
11
0.694809
21
1.86057
0
LINE
8
BLACK
6
CONTINUOUS
10
0.694809
20
1.86057
11
0.696777
21
1.85914
0
LINE
8
BLACK
6
CONTINUOUS
10
0.696777
20
1.85914
11
0.697529
21
1.85683
0
LINE
8
BLACK
6
CONTINUOUS
10
0.697529
20
1.85683
11
0.697529
21
1.81539
0
LINE
8
BLACK
6
CONTINUOUS
10
0.697529
20
1.81539
11
0.697249
21
1.81453
0
LINE
8
BLACK
6
CONTINUOUS
10
0.697249
20
1.81453
11
0.697113
21
1.81363
0
LINE
8
BLACK
6
CONTINUOUS
10
0.697113
20
1.81363
11
0.694676
21
1.80876
0
LINE
8
BLACK
6
CONTINUOUS
10
0.694676
20
1.80876
11
0.694228
21
1.8083
0
LINE
8
BLACK
6
CONTINUOUS
10
0.694228
20
1.8083
11
0.693939
21
1.80774
0
LINE
8
BLACK
6
CONTINUOUS
10
0.693939
20
1.80774
11
0.691502
21
1.8053
0
LINE
8
BLACK
6
CONTINUOUS
10
0.691502
20
1.8053
11
0.690933
21
1.80501
0
LINE
8
BLACK
6
CONTINUOUS
10
0.690933
20
1.80501
11
0.690478
21
1.80456
0
LINE
8
BLACK
6
CONTINUOUS
10
0.690478
20
1.80456
11
0.685604
21
1.80212
0
LINE
8
BLACK
6
CONTINUOUS
10
0.685604
20
1.80212
11
0.684706
21
1.80199
0
LINE
8
BLACK
6
CONTINUOUS
10
0.684706
20
1.80199
11
0.683843
21
1.80171
0
LINE
8
BLACK
6
CONTINUOUS
10
0.683843
20
1.80171
11
0.674094
21
1.80171
0
LINE
8
BLACK
6
CONTINUOUS
10
0.674094
20
1.80171
11
0.673231
21
1.80199
0
LINE
8
BLACK
6
CONTINUOUS
10
0.673231
20
1.80199
11
0.672334
21
1.80212
0
LINE
8
BLACK
6
CONTINUOUS
10
0.672334
20
1.80212
11
0.667459
21
1.80456
0
LINE
8
BLACK
6
CONTINUOUS
10
0.667459
20
1.80456
11
0.667005
21
1.80501
0
LINE
8
BLACK
6
CONTINUOUS
10
0.667005
20
1.80501
11
0.666436
21
1.8053
0
LINE
8
BLACK
6
CONTINUOUS
10
0.666436
20
1.8053
11
0.663999
21
1.80774
0
LINE
8
BLACK
6
CONTINUOUS
10
0.663999
20
1.80774
11
0.663709
21
1.8083
0
LINE
8
BLACK
6
CONTINUOUS
10
0.663709
20
1.8083
11
0.663261
21
1.80876
0
LINE
8
BLACK
6
CONTINUOUS
10
0.663261
20
1.80876
11
0.660824
21
1.81363
0
LINE
8
BLACK
6
CONTINUOUS
10
0.660824
20
1.81363
11
0.660689
21
1.81453
0
LINE
8
BLACK
6
CONTINUOUS
10
0.660689
20
1.81453
11
0.660409
21
1.81539
0
LINE
8
BLACK
6
CONTINUOUS
10
0.660409
20
1.81539
11
0.660409
21
1.85683
0
LINE
8
BLACK
6
CONTINUOUS
10
0.660409
20
1.85683
11
0.661161
21
1.85914
0
LINE
8
BLACK
6
CONTINUOUS
10
0.661161
20
1.85914
11
0.663129
21
1.86057
0
LINE
8
BLACK
6
CONTINUOUS
10
0.663129
20
1.86057
11
0.665562
21
1.86057
0
LINE
8
BLACK
6
CONTINUOUS
10
0.665562
20
1.86057
11
0.667531
21
1.85914
0
LINE
8
BLACK
6
CONTINUOUS
10
0.738068
20
1.86057
11
0.738707
21
1.86056
0
LINE
8
BLACK
6
CONTINUOUS
10
0.738707
20
1.86056
11
0.746018
21
1.85812
0
LINE
8
BLACK
6
CONTINUOUS
10
0.746018
20
1.85812
11
0.747976
21
1.85668
0
LINE
8
BLACK
6
CONTINUOUS
10
0.747976
20
1.85668
11
0.74871
21
1.85436
0
LINE
8
BLACK
6
CONTINUOUS
10
0.74871
20
1.85436
11
0.747941
21
1.85205
0
LINE
8
BLACK
6
CONTINUOUS
10
0.747941
20
1.85205
11
0.745961
21
1.85064
0
LINE
8
BLACK
6
CONTINUOUS
10
0.745961
20
1.85064
11
0.743528
21
1.85065
0
LINE
8
BLACK
6
CONTINUOUS
10
0.743528
20
1.85065
11
0.736823
21
1.85289
0
LINE
8
BLACK
6
CONTINUOUS
10
0.736823
20
1.85289
11
0.726205
21
1.85289
0
LINE
8
BLACK
6
CONTINUOUS
10
0.726205
20
1.85289
11
0.722733
21
1.85115
0
LINE
8
BLACK
6
CONTINUOUS
10
0.722733
20
1.85115
11
0.7212
21
1.84962
0
LINE
8
BLACK
6
CONTINUOUS
10
0.7212
20
1.84962
11
0.719464
21
1.84615
0
LINE
8
BLACK
6
CONTINUOUS
10
0.719464
20
1.84615
11
0.719464
21
1.84313
0
LINE
8
BLACK
6
CONTINUOUS
10
0.719464
20
1.84313
11
0.7212
21
1.83966
0
LINE
8
BLACK
6
CONTINUOUS
10
0.7212
20
1.83966
11
0.722733
21
1.83813
0
LINE
8
BLACK
6
CONTINUOUS
10
0.722733
20
1.83813
11
0.72665
21
1.83617
0
LINE
8
BLACK
6
CONTINUOUS
10
0.72665
20
1.83617
11
0.735979
21
1.83384
0
LINE
8
BLACK
6
CONTINUOUS
10
0.735979
20
1.83384
11
0.736351
21
1.8336
0
LINE
8
BLACK
6
CONTINUOUS
10
0.736351
20
1.8336
11
0.736785
21
1.83354
0
LINE
8
BLACK
6
CONTINUOUS
10
0.736785
20
1.83354
11
0.741659
21
1.8311
0
LINE
8
BLACK
6
CONTINUOUS
10
0.741659
20
1.8311
11
0.742114
21
1.83065
0
LINE
8
BLACK
6
CONTINUOUS
10
0.742114
20
1.83065
11
0.742683
21
1.83036
0
LINE
8
BLACK
6
CONTINUOUS
10
0.742683
20
1.83036
11
0.74512
21
1.82793
0
LINE
8
BLACK
6
CONTINUOUS
10
0.74512
20
1.82793
11
0.74541
21
1.82736
0
LINE
8
BLACK
6
CONTINUOUS
10
0.74541
20
1.82736
11
0.745857
21
1.8269
0
LINE
8
BLACK
6
CONTINUOUS
10
0.745857
20
1.8269
11
0.748295
21
1.82203
0
LINE
8
BLACK
6
CONTINUOUS
10
0.748295
20
1.82203
11
0.74843
21
1.82113
0
LINE
8
BLACK
6
CONTINUOUS
10
0.74843
20
1.82113
11
0.74871
21
1.82027
0
LINE
8
BLACK
6
CONTINUOUS
10
0.74871
20
1.82027
11
0.74871
21
1.81539
0
LINE
8
BLACK
6
CONTINUOUS
10
0.74871
20
1.81539
11
0.74843
21
1.81453
0
LINE
8
BLACK
6
CONTINUOUS
10
0.74843
20
1.81453
11
0.748295
21
1.81363
0
LINE
8
BLACK
6
CONTINUOUS
10
0.748295
20
1.81363
11
0.745857
21
1.80876
0
LINE
8
BLACK
6
CONTINUOUS
10
0.745857
20
1.80876
11
0.74541
21
1.8083
0
LINE
8
BLACK
6
CONTINUOUS
10
0.74541
20
1.8083
11
0.74512
21
1.80774
0
LINE
8
BLACK
6
CONTINUOUS
10
0.74512
20
1.80774
11
0.742683
21
1.8053
0
LINE
8
BLACK
6
CONTINUOUS
10
0.742683
20
1.8053
11
0.742114
21
1.80501
0
LINE
8
BLACK
6
CONTINUOUS
10
0.742114
20
1.80501
11
0.741659
21
1.80456
0
LINE
8
BLACK
6
CONTINUOUS
10
0.741659
20
1.80456
11
0.736785
21
1.80212
0
LINE
8
BLACK
6
CONTINUOUS
10
0.736785
20
1.80212
11
0.735887
21
1.80199
0
LINE
8
BLACK
6
CONTINUOUS
10
0.735887
20
1.80199
11
0.735024
21
1.80171
0
LINE
8
BLACK
6
CONTINUOUS
10
0.735024
20
1.80171
11
0.722838
21
1.80171
0
LINE
8
BLACK
6
CONTINUOUS
10
0.722838
20
1.80171
11
0.722231
21
1.80191
0
LINE
8
BLACK
6
CONTINUOUS
10
0.722231
20
1.80191
11
0.721593
21
1.80191
0
LINE
8
BLACK
6
CONTINUOUS
10
0.721593
20
1.80191
11
0.714282
21
1.80435
0
LINE
8
BLACK
6
CONTINUOUS
10
0.714282
20
1.80435
11
0.712324
21
1.80579
0
LINE
8
BLACK
6
CONTINUOUS
10
0.712324
20
1.80579
11
0.71159
21
1.80811
0
LINE
8
BLACK
6
CONTINUOUS
10
0.71159
20
1.80811
11
0.712359
21
1.81042
0
LINE
8
BLACK
6
CONTINUOUS
10
0.712359
20
1.81042
11
0.714339
21
1.81184
0
LINE
8
BLACK
6
CONTINUOUS
10
0.714339
20
1.81184
11
0.716772
21
1.81182
0
LINE
8
BLACK
6
CONTINUOUS
10
0.716772
20
1.81182
11
0.723477
21
1.80958
0
LINE
8
BLACK
6
CONTINUOUS
10
0.723477
20
1.80958
11
0.734095
21
1.80958
0
LINE
8
BLACK
6
CONTINUOUS
10
0.734095
20
1.80958
11
0.737567
21
1.81132
0
LINE
8
BLACK
6
CONTINUOUS
10
0.737567
20
1.81132
11
0.7391
21
1.81285
0
LINE
8
BLACK
6
CONTINUOUS
10
0.7391
20
1.81285
11
0.740836
21
1.81632
0
LINE
8
BLACK
6
CONTINUOUS
10
0.740836
20
1.81632
11
0.740836
21
1.81934
0
LINE
8
BLACK
6
CONTINUOUS
10
0.740836
20
1.81934
11
0.7391
21
1.82281
0
LINE
8
BLACK
6
CONTINUOUS
10
0.7391
20
1.82281
11
0.737567
21
1.82434
0
LINE
8
BLACK
6
CONTINUOUS
10
0.737567
20
1.82434
11
0.73365
21
1.8263
0
LINE
8
BLACK
6
CONTINUOUS
10
0.73365
20
1.8263
11
0.724321
21
1.82864
0
LINE
8
BLACK
6
CONTINUOUS
10
0.724321
20
1.82864
11
0.723949
21
1.82887
0
LINE
8
BLACK
6
CONTINUOUS
10
0.723949
20
1.82887
11
0.723515
21
1.82893
0
LINE
8
BLACK
6
CONTINUOUS
10
0.723515
20
1.82893
11
0.718641
21
1.83137
0
LINE
8
BLACK
6
CONTINUOUS
10
0.718641
20
1.83137
11
0.718186
21
1.83182
0
LINE
8
BLACK
6
CONTINUOUS
10
0.718186
20
1.83182
11
0.717617
21
1.83211
0
LINE
8
BLACK
6
CONTINUOUS
10
0.717617
20
1.83211
11
0.71518
21
1.83455
0
LINE
8
BLACK
6
CONTINUOUS
10
0.71518
20
1.83455
11
0.71489
21
1.83511
0
LINE
8
BLACK
6
CONTINUOUS
10
0.71489
20
1.83511
11
0.714443
21
1.83557
0
LINE
8
BLACK
6
CONTINUOUS
10
0.714443
20
1.83557
11
0.712005
21
1.84044
0
LINE
8
BLACK
6
CONTINUOUS
10
0.712005
20
1.84044
11
0.71187
21
1.84134
0
LINE
8
BLACK
6
CONTINUOUS
10
0.71187
20
1.84134
11
0.71159
21
1.8422
0
LINE
8
BLACK
6
CONTINUOUS
10
0.71159
20
1.8422
11
0.71159
21
1.84708
0
LINE
8
BLACK
6
CONTINUOUS
10
0.71159
20
1.84708
11
0.71187
21
1.84794
0
LINE
8
BLACK
6
CONTINUOUS
10
0.71187
20
1.84794
11
0.712005
21
1.84884
0
LINE
8
BLACK
6
CONTINUOUS
10
0.712005
20
1.84884
11
0.714443
21
1.85371
0
LINE
8
BLACK
6
CONTINUOUS
10
0.714443
20
1.85371
11
0.71489
21
1.85417
0
LINE
8
BLACK
6
CONTINUOUS
10
0.71489
20
1.85417
11
0.71518
21
1.85474
0
LINE
8
BLACK
6
CONTINUOUS
10
0.71518
20
1.85474
11
0.717617
21
1.85717
0
LINE
8
BLACK
6
CONTINUOUS
10
0.717617
20
1.85717
11
0.718186
21
1.85746
0
LINE
8
BLACK
6
CONTINUOUS
10
0.718186
20
1.85746
11
0.718641
21
1.85791
0
LINE
8
BLACK
6
CONTINUOUS
10
0.718641
20
1.85791
11
0.723515
21
1.86035
0
LINE
8
BLACK
6
CONTINUOUS
10
0.723515
20
1.86035
11
0.724412
21
1.86048
0
LINE
8
BLACK
6
CONTINUOUS
10
0.724412
20
1.86048
11
0.725276
21
1.86076
0
LINE
8
BLACK
6
CONTINUOUS
10
0.725276
20
1.86076
11
0.737462
21
1.86076
0
LINE
8
BLACK
6
CONTINUOUS
10
0.737462
20
1.86076
11
0.738068
21
1.86057
0
LINE
8
BLACK
6
CONTINUOUS
10
1.09416
20
1.86048
11
1.09505
21
1.86035
0
LINE
8
BLACK
6
CONTINUOUS
10
1.09505
20
1.86035
11
1.09993
21
1.85791
0
LINE
8
BLACK
6
CONTINUOUS
10
1.09993
20
1.85791
11
1.10038
21
1.85746
0
LINE
8
BLACK
6
CONTINUOUS
10
1.10038
20
1.85746
11
1.10095
21
1.85717
0
LINE
8
BLACK
6
CONTINUOUS
10
1.10095
20
1.85717
11
1.10339
21
1.85474
0
LINE
8
BLACK
6
CONTINUOUS
10
1.10339
20
1.85474
11
1.10368
21
1.85417
0
LINE
8
BLACK
6
CONTINUOUS
10
1.10368
20
1.85417
11
1.10413
21
1.85371
0
LINE
8
BLACK
6
CONTINUOUS
10
1.10413
20
1.85371
11
1.10656
21
1.84884
0
LINE
8
BLACK
6
CONTINUOUS
10
1.10656
20
1.84884
11
1.10663
21
1.8484
0
LINE
8
BLACK
6
CONTINUOUS
10
1.10663
20
1.8484
11
1.10686
21
1.84803
0
LINE
8
BLACK
6
CONTINUOUS
10
1.10686
20
1.84803
11
1.1093
21
1.83828
0
LINE
8
BLACK
6
CONTINUOUS
10
1.1093
20
1.83828
11
1.10926
21
1.8378
0
LINE
8
BLACK
6
CONTINUOUS
10
1.10926
20
1.8378
11
1.10942
21
1.83733
0
LINE
8
BLACK
6
CONTINUOUS
10
1.10942
20
1.83733
11
1.10942
21
1.82514
0
LINE
8
BLACK
6
CONTINUOUS
10
1.10942
20
1.82514
11
1.10926
21
1.82468
0
LINE
8
BLACK
6
CONTINUOUS
10
1.10926
20
1.82468
11
1.1093
21
1.82419
0
LINE
8
BLACK
6
CONTINUOUS
10
1.1093
20
1.82419
11
1.10686
21
1.81444
0
LINE
8
BLACK
6
CONTINUOUS
10
1.10686
20
1.81444
11
1.10663
21
1.81407
0
LINE
8
BLACK
6
CONTINUOUS
10
1.10663
20
1.81407
11
1.10656
21
1.81363
0
LINE
8
BLACK
6
CONTINUOUS
10
1.10656
20
1.81363
11
1.10413
21
1.80876
0
LINE
8
BLACK
6
CONTINUOUS
10
1.10413
20
1.80876
11
1.10368
21
1.8083
0
LINE
8
BLACK
6
CONTINUOUS
10
1.10368
20
1.8083
11
1.10339
21
1.80774
0
LINE
8
BLACK
6
CONTINUOUS
10
1.10339
20
1.80774
11
1.10095
21
1.8053
0
LINE
8
BLACK
6
CONTINUOUS
10
1.10095
20
1.8053
11
1.10038
21
1.80501
0
LINE
8
BLACK
6
CONTINUOUS
10
1.10038
20
1.80501
11
1.09993
21
1.80456
0
LINE
8
BLACK
6
CONTINUOUS
10
1.09993
20
1.80456
11
1.09505
21
1.80212
0
LINE
8
BLACK
6
CONTINUOUS
10
1.09505
20
1.80212
11
1.09416
21
1.80199
0
LINE
8
BLACK
6
CONTINUOUS
10
1.09416
20
1.80199
11
1.09329
21
1.80171
0
LINE
8
BLACK
6
CONTINUOUS
10
1.09329
20
1.80171
11
1.08842
21
1.80171
0
LINE
8
BLACK
6
CONTINUOUS
10
1.08842
20
1.80171
11
1.08755
21
1.80199
0
LINE
8
BLACK
6
CONTINUOUS
10
1.08755
20
1.80199
11
1.08666
21
1.80212
0
LINE
8
BLACK
6
CONTINUOUS
10
1.08666
20
1.80212
11
1.08178
21
1.80456
0
LINE
8
BLACK
6
CONTINUOUS
10
1.08178
20
1.80456
11
1.08133
21
1.80501
0
LINE
8
BLACK
6
CONTINUOUS
10
1.08133
20
1.80501
11
1.08076
21
1.8053
0
LINE
8
BLACK
6
CONTINUOUS
10
1.08076
20
1.8053
11
1.07832
21
1.80774
0
LINE
8
BLACK
6
CONTINUOUS
10
1.07832
20
1.80774
11
1.07803
21
1.8083
0
LINE
8
BLACK
6
CONTINUOUS
10
1.07803
20
1.8083
11
1.07758
21
1.80876
0
LINE
8
BLACK
6
CONTINUOUS
10
1.07758
20
1.80876
11
1.07515
21
1.81363
0
LINE
8
BLACK
6
CONTINUOUS
10
1.07515
20
1.81363
11
1.07508
21
1.81407
0
LINE
8
BLACK
6
CONTINUOUS
10
1.07508
20
1.81407
11
1.07485
21
1.81444
0
LINE
8
BLACK
6
CONTINUOUS
10
1.07485
20
1.81444
11
1.07241
21
1.82419
0
LINE
8
BLACK
6
CONTINUOUS
10
1.07241
20
1.82419
11
1.07245
21
1.82468
0
LINE
8
BLACK
6
CONTINUOUS
10
1.07245
20
1.82468
11
1.07229
21
1.82514
0
LINE
8
BLACK
6
CONTINUOUS
10
1.07229
20
1.82514
11
1.07229
21
1.83733
0
LINE
8
BLACK
6
CONTINUOUS
10
1.07229
20
1.83733
11
1.07245
21
1.8378
0
LINE
8
BLACK
6
CONTINUOUS
10
1.07245
20
1.8378
11
1.07241
21
1.83828
0
LINE
8
BLACK
6
CONTINUOUS
10
1.07241
20
1.83828
11
1.07485
21
1.84803
0
LINE
8
BLACK
6
CONTINUOUS
10
1.07485
20
1.84803
11
1.07508
21
1.8484
0
LINE
8
BLACK
6
CONTINUOUS
10
1.07508
20
1.8484
11
1.07515
21
1.84884
0
LINE
8
BLACK
6
CONTINUOUS
10
1.07515
20
1.84884
11
1.07758
21
1.85371
0
LINE
8
BLACK
6
CONTINUOUS
10
1.07758
20
1.85371
11
1.07803
21
1.85417
0
LINE
8
BLACK
6
CONTINUOUS
10
1.07803
20
1.85417
11
1.07832
21
1.85474
0
LINE
8
BLACK
6
CONTINUOUS
10
1.07832
20
1.85474
11
1.08076
21
1.85717
0
LINE
8
BLACK
6
CONTINUOUS
10
1.08076
20
1.85717
11
1.08133
21
1.85746
0
LINE
8
BLACK
6
CONTINUOUS
10
1.08133
20
1.85746
11
1.08178
21
1.85791
0
LINE
8
BLACK
6
CONTINUOUS
10
1.08178
20
1.85791
11
1.08666
21
1.86035
0
LINE
8
BLACK
6
CONTINUOUS
10
1.08666
20
1.86035
11
1.08755
21
1.86048
0
LINE
8
BLACK
6
CONTINUOUS
10
1.08755
20
1.86048
11
1.08842
21
1.86076
0
LINE
8
BLACK
6
CONTINUOUS
10
1.08842
20
1.86076
11
1.09329
21
1.86076
0
LINE
8
BLACK
6
CONTINUOUS
10
1.09329
20
1.86076
11
1.09416
21
1.86048
0
LINE
8
BLACK
6
CONTINUOUS
10
1.08935
20
1.85289
11
1.08588
21
1.85115
0
LINE
8
BLACK
6
CONTINUOUS
10
1.08588
20
1.85115
11
1.08434
21
1.84962
0
LINE
8
BLACK
6
CONTINUOUS
10
1.08434
20
1.84962
11
1.08238
21
1.8457
0
LINE
8
BLACK
6
CONTINUOUS
10
1.08238
20
1.8457
11
1.08017
21
1.83684
0
LINE
8
BLACK
6
CONTINUOUS
10
1.08017
20
1.83684
11
1.08017
21
1.82563
0
LINE
8
BLACK
6
CONTINUOUS
10
1.08017
20
1.82563
11
1.08238
21
1.81677
0
LINE
8
BLACK
6
CONTINUOUS
10
1.08238
20
1.81677
11
1.08434
21
1.81285
0
LINE
8
BLACK
6
CONTINUOUS
10
1.08434
20
1.81285
11
1.08588
21
1.81132
0
LINE
8
BLACK
6
CONTINUOUS
10
1.08588
20
1.81132
11
1.08935
21
1.80958
0
LINE
8
BLACK
6
CONTINUOUS
10
1.08935
20
1.80958
11
1.09236
21
1.80958
0
LINE
8
BLACK
6
CONTINUOUS
10
1.09236
20
1.80958
11
1.09583
21
1.81132
0
LINE
8
BLACK
6
CONTINUOUS
10
1.09583
20
1.81132
11
1.09737
21
1.81285
0
LINE
8
BLACK
6
CONTINUOUS
10
1.09737
20
1.81285
11
1.09933
21
1.81677
0
LINE
8
BLACK
6
CONTINUOUS
10
1.09933
20
1.81677
11
1.10154
21
1.82563
0
LINE
8
BLACK
6
CONTINUOUS
10
1.10154
20
1.82563
11
1.10154
21
1.83684
0
LINE
8
BLACK
6
CONTINUOUS
10
1.10154
20
1.83684
11
1.09933
21
1.8457
0
LINE
8
BLACK
6
CONTINUOUS
10
1.09933
20
1.8457
11
1.09737
21
1.84962
0
LINE
8
BLACK
6
CONTINUOUS
10
1.09737
20
1.84962
11
1.09583
21
1.85115
0
LINE
8
BLACK
6
CONTINUOUS
10
1.09583
20
1.85115
11
1.09236
21
1.85289
0
LINE
8
BLACK
6
CONTINUOUS
10
1.09236
20
1.85289
11
1.08935
21
1.85289
0
LINE
8
BLACK
6
CONTINUOUS
10
0.819023
20
1.86057
11
0.819106
21
1.86057
0
LINE
8
BLACK
6
CONTINUOUS
10
0.819106
20
1.86057
11
0.820029
21
1.8599
0
LINE
8
BLACK
6
CONTINUOUS
10
0.820029
20
1.8599
11
0.820978
21
1.85927
0
LINE
8
BLACK
6
CONTINUOUS
10
0.820978
20
1.85927
11
0.821007
21
1.85919
0
LINE
8
BLACK
6
CONTINUOUS
10
0.821007
20
1.85919
11
0.821074
21
1.85914
0
LINE
8
BLACK
6
CONTINUOUS
10
0.821074
20
1.85914
11
0.821427
21
1.85806
0
LINE
8
BLACK
6
CONTINUOUS
10
0.821427
20
1.85806
11
0.821823
21
1.85699
0
LINE
8
BLACK
6
CONTINUOUS
10
0.821823
20
1.85699
11
0.8218
21
1.85691
0
LINE
8
BLACK
6
CONTINUOUS
10
0.8218
20
1.85691
11
0.821826
21
1.85683
0
LINE
8
BLACK
6
CONTINUOUS
10
0.821826
20
1.85683
11
0.821826
21
1.80958
0
LINE
8
BLACK
6
CONTINUOUS
10
0.821826
20
1.80958
11
0.832512
21
1.80958
0
LINE
8
BLACK
6
CONTINUOUS
10
0.832512
20
1.80958
11
0.834826
21
1.80883
0
LINE
8
BLACK
6
CONTINUOUS
10
0.834826
20
1.80883
11
0.836256
21
1.80686
0
LINE
8
BLACK
6
CONTINUOUS
10
0.836256
20
1.80686
11
0.836256
21
1.80443
0
LINE
8
BLACK
6
CONTINUOUS
10
0.836256
20
1.80443
11
0.834826
21
1.80246
0
LINE
8
BLACK
6
CONTINUOUS
10
0.834826
20
1.80246
11
0.832512
21
1.80171
0
LINE
8
BLACK
6
CONTINUOUS
10
0.832512
20
1.80171
11
0.803266
21
1.80171
0
LINE
8
BLACK
6
CONTINUOUS
10
0.803266
20
1.80171
11
0.800952
21
1.80246
0
LINE
8
BLACK
6
CONTINUOUS
10
0.800952
20
1.80246
11
0.799521
21
1.80443
0
LINE
8
BLACK
6
CONTINUOUS
10
0.799521
20
1.80443
11
0.799521
21
1.80686
0
LINE
8
BLACK
6
CONTINUOUS
10
0.799521
20
1.80686
11
0.800952
21
1.80883
0
LINE
8
BLACK
6
CONTINUOUS
10
0.800952
20
1.80883
11
0.803266
21
1.80958
0
LINE
8
BLACK
6
CONTINUOUS
10
0.803266
20
1.80958
11
0.813952
21
1.80958
0
LINE
8
BLACK
6
CONTINUOUS
10
0.813952
20
1.80958
11
0.813952
21
1.84488
0
LINE
8
BLACK
6
CONTINUOUS
10
0.813952
20
1.84488
11
0.810924
21
1.84186
0
LINE
8
BLACK
6
CONTINUOUS
10
0.810924
20
1.84186
11
0.810355
21
1.84157
0
LINE
8
BLACK
6
CONTINUOUS
10
0.810355
20
1.84157
11
0.809901
21
1.84112
0
LINE
8
BLACK
6
CONTINUOUS
10
0.809901
20
1.84112
11
0.805026
21
1.83868
0
LINE
8
BLACK
6
CONTINUOUS
10
0.805026
20
1.83868
11
0.80262
21
1.83832
0
LINE
8
BLACK
6
CONTINUOUS
10
0.80262
20
1.83832
11
0.800461
21
1.83944
0
LINE
8
BLACK
6
CONTINUOUS
10
0.800461
20
1.83944
11
0.799373
21
1.84162
0
LINE
8
BLACK
6
CONTINUOUS
10
0.799373
20
1.84162
11
0.799772
21
1.84402
0
LINE
8
BLACK
6
CONTINUOUS
10
0.799772
20
1.84402
11
0.801505
21
1.84573
0
LINE
8
BLACK
6
CONTINUOUS
10
0.801505
20
1.84573
11
0.805808
21
1.84788
0
LINE
8
BLACK
6
CONTINUOUS
10
0.805808
20
1.84788
11
0.809955
21
1.85202
0
LINE
8
BLACK
6
CONTINUOUS
10
0.809955
20
1.85202
11
0.814613
21
1.85901
0
LINE
8
BLACK
6
CONTINUOUS
10
0.814613
20
1.85901
11
0.814678
21
1.85906
0
LINE
8
BLACK
6
CONTINUOUS
10
0.814678
20
1.85906
11
0.814704
21
1.85914
0
LINE
8
BLACK
6
CONTINUOUS
10
0.814704
20
1.85914
11
0.815627
21
1.85981
0
LINE
8
BLACK
6
CONTINUOUS
10
0.815627
20
1.85981
11
0.816522
21
1.86052
0
LINE
8
BLACK
6
CONTINUOUS
10
0.816522
20
1.86052
11
0.816605
21
1.86052
0
LINE
8
BLACK
6
CONTINUOUS
10
0.816605
20
1.86052
11
0.816672
21
1.86057
0
LINE
8
BLACK
6
CONTINUOUS
10
0.816672
20
1.86057
11
0.817814
21
1.86057
0
LINE
8
BLACK
6
CONTINUOUS
10
0.817814
20
1.86057
11
0.818954
21
1.86062
0
LINE
8
BLACK
6
CONTINUOUS
10
0.818954
20
1.86062
11
0.819023
21
1.86057
0
LINE
8
BLACK
6
CONTINUOUS
10
0.915377
20
1.86075
11
0.915407
21
1.86076
0
LINE
8
BLACK
6
CONTINUOUS
10
0.915407
20
1.86076
11
0.916532
21
1.86039
0
LINE
8
BLACK
6
CONTINUOUS
10
0.916532
20
1.86039
11
0.917667
21
1.86003
0
LINE
8
BLACK
6
CONTINUOUS
10
0.917667
20
1.86003
11
0.917685
21
1.86
0
LINE
8
BLACK
6
CONTINUOUS
10
0.917685
20
1.86
11
0.917715
21
1.85999
0
LINE
8
BLACK
6
CONTINUOUS
10
0.917715
20
1.85999
11
0.918406
21
1.85903
0
LINE
8
BLACK
6
CONTINUOUS
10
0.918406
20
1.85903
11
0.919112
21
1.85807
0
LINE
8
BLACK
6
CONTINUOUS
10
0.919112
20
1.85807
11
0.936172
21
1.80689
0
LINE
8
BLACK
6
CONTINUOUS
10
0.936172
20
1.80689
11
0.936191
21
1.80446
0
LINE
8
BLACK
6
CONTINUOUS
10
0.936191
20
1.80446
11
0.934775
21
1.80248
0
LINE
8
BLACK
6
CONTINUOUS
10
0.934775
20
1.80248
11
0.932467
21
1.80171
0
LINE
8
BLACK
6
CONTINUOUS
10
0.932467
20
1.80171
11
0.930147
21
1.80244
0
LINE
8
BLACK
6
CONTINUOUS
10
0.930147
20
1.80244
11
0.928702
21
1.8044
0
LINE
8
BLACK
6
CONTINUOUS
10
0.928702
20
1.8044
11
0.924725
21
1.81633
0
LINE
8
BLACK
6
CONTINUOUS
10
0.924725
20
1.81633
11
0.906028
21
1.81633
0
LINE
8
BLACK
6
CONTINUOUS
10
0.906028
20
1.81633
11
0.902051
21
1.8044
0
LINE
8
BLACK
6
CONTINUOUS
10
0.902051
20
1.8044
11
0.900606
21
1.80244
0
LINE
8
BLACK
6
CONTINUOUS
10
0.900606
20
1.80244
11
0.898287
21
1.80171
0
LINE
8
BLACK
6
CONTINUOUS
10
0.898287
20
1.80171
11
0.895978
21
1.80248
0
LINE
8
BLACK
6
CONTINUOUS
10
0.895978
20
1.80248
11
0.894563
21
1.80446
0
LINE
8
BLACK
6
CONTINUOUS
10
0.894563
20
1.80446
11
0.894581
21
1.80689
0
LINE
8
BLACK
6
CONTINUOUS
10
0.894581
20
1.80689
11
0.911642
21
1.85807
0
LINE
8
BLACK
6
CONTINUOUS
10
0.911642
20
1.85807
11
0.912347
21
1.85903
0
LINE
8
BLACK
6
CONTINUOUS
10
0.912347
20
1.85903
11
0.913039
21
1.85999
0
LINE
8
BLACK
6
CONTINUOUS
10
0.913039
20
1.85999
11
0.913068
21
1.86
0
LINE
8
BLACK
6
CONTINUOUS
10
0.913068
20
1.86
11
0.913087
21
1.86003
0
LINE
8
BLACK
6
CONTINUOUS
10
0.913087
20
1.86003
11
0.914219
21
1.86039
0
LINE
8
BLACK
6
CONTINUOUS
10
0.914219
20
1.86039
11
0.915347
21
1.86076
0
LINE
8
BLACK
6
CONTINUOUS
10
0.915347
20
1.86076
11
0.915377
21
1.86075
0
LINE
8
BLACK
6
CONTINUOUS
10
0.908653
20
1.82421
11
0.9221
21
1.82421
0
LINE
8
BLACK
6
CONTINUOUS
10
0.9221
20
1.82421
11
0.915377
21
1.84438
0
LINE
8
BLACK
6
CONTINUOUS
10
0.915377
20
1.84438
11
0.908653
21
1.82421
0
LINE
8
BLACK
6
CONTINUOUS
10
1.18706
20
1.86039
11
1.1882
21
1.86003
0
LINE
8
BLACK
6
CONTINUOUS
10
1.1882
20
1.86003
11
1.18821
21
1.86
0
LINE
8
BLACK
6
CONTINUOUS
10
1.18821
20
1.86
11
1.18824
21
1.85999
0
LINE
8
BLACK
6
CONTINUOUS
10
1.18824
20
1.85999
11
1.18894
21
1.85903
0
LINE
8
BLACK
6
CONTINUOUS
10
1.18894
20
1.85903
11
1.18964
21
1.85807
0
LINE
8
BLACK
6
CONTINUOUS
10
1.18964
20
1.85807
11
1.2067
21
1.80689
0
LINE
8
BLACK
6
CONTINUOUS
10
1.2067
20
1.80689
11
1.20672
21
1.80446
0
LINE
8
BLACK
6
CONTINUOUS
10
1.20672
20
1.80446
11
1.2053
21
1.80248
0
LINE
8
BLACK
6
CONTINUOUS
10
1.2053
20
1.80248
11
1.203
21
1.80171
0
LINE
8
BLACK
6
CONTINUOUS
10
1.203
20
1.80171
11
1.20068
21
1.80244
0
LINE
8
BLACK
6
CONTINUOUS
10
1.20068
20
1.80244
11
1.19923
21
1.8044
0
LINE
8
BLACK
6
CONTINUOUS
10
1.19923
20
1.8044
11
1.19525
21
1.81633
0
LINE
8
BLACK
6
CONTINUOUS
10
1.19525
20
1.81633
11
1.17656
21
1.81633
0
LINE
8
BLACK
6
CONTINUOUS
10
1.17656
20
1.81633
11
1.17258
21
1.8044
0
LINE
8
BLACK
6
CONTINUOUS
10
1.17258
20
1.8044
11
1.17114
21
1.80244
0
LINE
8
BLACK
6
CONTINUOUS
10
1.17114
20
1.80244
11
1.16882
21
1.80171
0
LINE
8
BLACK
6
CONTINUOUS
10
1.16882
20
1.80171
11
1.16651
21
1.80248
0
LINE
8
BLACK
6
CONTINUOUS
10
1.16651
20
1.80248
11
1.16509
21
1.80446
0
LINE
8
BLACK
6
CONTINUOUS
10
1.16509
20
1.80446
11
1.16511
21
1.80689
0
LINE
8
BLACK
6
CONTINUOUS
10
1.16511
20
1.80689
11
1.18217
21
1.85807
0
LINE
8
BLACK
6
CONTINUOUS
10
1.18217
20
1.85807
11
1.18288
21
1.85903
0
LINE
8
BLACK
6
CONTINUOUS
10
1.18288
20
1.85903
11
1.18357
21
1.85999
0
LINE
8
BLACK
6
CONTINUOUS
10
1.18357
20
1.85999
11
1.1836
21
1.86
0
LINE
8
BLACK
6
CONTINUOUS
10
1.1836
20
1.86
11
1.18362
21
1.86003
0
LINE
8
BLACK
6
CONTINUOUS
10
1.18362
20
1.86003
11
1.18475
21
1.86039
0
LINE
8
BLACK
6
CONTINUOUS
10
1.18475
20
1.86039
11
1.18588
21
1.86076
0
LINE
8
BLACK
6
CONTINUOUS
10
1.18588
20
1.86076
11
1.18591
21
1.86075
0
LINE
8
BLACK
6
CONTINUOUS
10
1.18591
20
1.86075
11
1.18594
21
1.86076
0
LINE
8
BLACK
6
CONTINUOUS
10
1.18594
20
1.86076
11
1.18706
21
1.86039
0
LINE
8
BLACK
6
CONTINUOUS
10
1.17918
20
1.82421
11
1.19263
21
1.82421
0
LINE
8
BLACK
6
CONTINUOUS
10
1.19263
20
1.82421
11
1.18591
21
1.84438
0
LINE
8
BLACK
6
CONTINUOUS
10
1.18591
20
1.84438
11
1.17918
21
1.82421
0
LINE
8
BLACK
6
CONTINUOUS
10
0.973746
20
1.86001
11
0.975177
21
1.85804
0
LINE
8
BLACK
6
CONTINUOUS
10
0.975177
20
1.85804
11
0.975177
21
1.85561
0
LINE
8
BLACK
6
CONTINUOUS
10
0.975177
20
1.85561
11
0.973746
21
1.85364
0
LINE
8
BLACK
6
CONTINUOUS
10
0.973746
20
1.85364
11
0.971432
21
1.85289
0
LINE
8
BLACK
6
CONTINUOUS
10
0.971432
20
1.85289
11
0.960746
21
1.85289
0
LINE
8
BLACK
6
CONTINUOUS
10
0.960746
20
1.85289
11
0.960746
21
1.80565
0
LINE
8
BLACK
6
CONTINUOUS
10
0.960746
20
1.80565
11
0.959994
21
1.80333
0
LINE
8
BLACK
6
CONTINUOUS
10
0.959994
20
1.80333
11
0.958026
21
1.8019
0
LINE
8
BLACK
6
CONTINUOUS
10
0.958026
20
1.8019
11
0.955593
21
1.8019
0
LINE
8
BLACK
6
CONTINUOUS
10
0.955593
20
1.8019
11
0.953624
21
1.80333
0
LINE
8
BLACK
6
CONTINUOUS
10
0.953624
20
1.80333
11
0.952872
21
1.80565
0
LINE
8
BLACK
6
CONTINUOUS
10
0.952872
20
1.80565
11
0.952872
21
1.85289
0
LINE
8
BLACK
6
CONTINUOUS
10
0.952872
20
1.85289
11
0.942186
21
1.85289
0
LINE
8
BLACK
6
CONTINUOUS
10
0.942186
20
1.85289
11
0.939872
21
1.85364
0
LINE
8
BLACK
6
CONTINUOUS
10
0.939872
20
1.85364
11
0.938442
21
1.85561
0
LINE
8
BLACK
6
CONTINUOUS
10
0.938442
20
1.85561
11
0.938442
21
1.85804
0
LINE
8
BLACK
6
CONTINUOUS
10
0.938442
20
1.85804
11
0.939872
21
1.86001
0
LINE
8
BLACK
6
CONTINUOUS
10
0.939872
20
1.86001
11
0.942186
21
1.86076
0
LINE
8
BLACK
6
CONTINUOUS
10
0.942186
20
1.86076
11
0.971432
21
1.86076
0
LINE
8
BLACK
6
CONTINUOUS
10
0.971432
20
1.86076
11
0.973746
21
1.86001
0
LINE
8
BLACK
6
CONTINUOUS
10
1.01274
20
1.86001
11
1.01417
21
1.85804
0
LINE
8
BLACK
6
CONTINUOUS
10
1.01417
20
1.85804
11
1.01417
21
1.85561
0
LINE
8
BLACK
6
CONTINUOUS
10
1.01417
20
1.85561
11
1.01274
21
1.85364
0
LINE
8
BLACK
6
CONTINUOUS
10
1.01274
20
1.85364
11
1.01043
21
1.85289
0
LINE
8
BLACK
6
CONTINUOUS
10
1.01043
20
1.85289
11
0.999741
21
1.85289
0
LINE
8
BLACK
6
CONTINUOUS
10
0.999741
20
1.85289
11
0.999741
21
1.80565
0
LINE
8
BLACK
6
CONTINUOUS
10
0.999741
20
1.80565
11
0.998989
21
1.80333
0
LINE
8
BLACK
6
CONTINUOUS
10
0.998989
20
1.80333
11
0.997021
21
1.8019
0
LINE
8
BLACK
6
CONTINUOUS
10
0.997021
20
1.8019
11
0.994588
21
1.8019
0
LINE
8
BLACK
6
CONTINUOUS
10
0.994588
20
1.8019
11
0.992619
21
1.80333
0
LINE
8
BLACK
6
CONTINUOUS
10
0.992619
20
1.80333
11
0.991867
21
1.80565
0
LINE
8
BLACK
6
CONTINUOUS
10
0.991867
20
1.80565
11
0.991867
21
1.85289
0
LINE
8
BLACK
6
CONTINUOUS
10
0.991867
20
1.85289
11
0.981181
21
1.85289
0
LINE
8
BLACK
6
CONTINUOUS
10
0.981181
20
1.85289
11
0.978867
21
1.85364
0
LINE
8
BLACK
6
CONTINUOUS
10
0.978867
20
1.85364
11
0.977437
21
1.85561
0
LINE
8
BLACK
6
CONTINUOUS
10
0.977437
20
1.85561
11
0.977437
21
1.85804
0
LINE
8
BLACK
6
CONTINUOUS
10
0.977437
20
1.85804
11
0.978867
21
1.86001
0
LINE
8
BLACK
6
CONTINUOUS
10
0.978867
20
1.86001
11
0.981181
21
1.86076
0
LINE
8
BLACK
6
CONTINUOUS
10
0.981181
20
1.86076
11
1.01043
21
1.86076
0
LINE
8
BLACK
6
CONTINUOUS
10
1.01043
20
1.86076
11
1.01274
21
1.86001
0
LINE
8
BLACK
6
CONTINUOUS
10
0.790957
20
1.86001
11
0.792387
21
1.85804
0
LINE
8
BLACK
6
CONTINUOUS
10
0.792387
20
1.85804
11
0.792387
21
1.85561
0
LINE
8
BLACK
6
CONTINUOUS
10
0.792387
20
1.85561
11
0.790957
21
1.85364
0
LINE
8
BLACK
6
CONTINUOUS
10
0.790957
20
1.85364
11
0.788643
21
1.85289
0
LINE
8
BLACK
6
CONTINUOUS
10
0.788643
20
1.85289
11
0.777956
21
1.85289
0
LINE
8
BLACK
6
CONTINUOUS
10
0.777956
20
1.85289
11
0.777956
21
1.80565
0
LINE
8
BLACK
6
CONTINUOUS
10
0.777956
20
1.80565
11
0.777205
21
1.80333
0
LINE
8
BLACK
6
CONTINUOUS
10
0.777205
20
1.80333
11
0.775236
21
1.8019
0
LINE
8
BLACK
6
CONTINUOUS
10
0.775236
20
1.8019
11
0.772803
21
1.8019
0
LINE
8
BLACK
6
CONTINUOUS
10
0.772803
20
1.8019
11
0.770834
21
1.80333
0
LINE
8
BLACK
6
CONTINUOUS
10
0.770834
20
1.80333
11
0.770082
21
1.80565
0
LINE
8
BLACK
6
CONTINUOUS
10
0.770082
20
1.80565
11
0.770082
21
1.85289
0
LINE
8
BLACK
6
CONTINUOUS
10
0.770082
20
1.85289
11
0.759396
21
1.85289
0
LINE
8
BLACK
6
CONTINUOUS
10
0.759396
20
1.85289
11
0.757082
21
1.85364
0
LINE
8
BLACK
6
CONTINUOUS
10
0.757082
20
1.85364
11
0.755652
21
1.85561
0
LINE
8
BLACK
6
CONTINUOUS
10
0.755652
20
1.85561
11
0.755652
21
1.85804
0
LINE
8
BLACK
6
CONTINUOUS
10
0.755652
20
1.85804
11
0.757082
21
1.86001
0
LINE
8
BLACK
6
CONTINUOUS
10
0.757082
20
1.86001
11
0.759396
21
1.86076
0
LINE
8
BLACK
6
CONTINUOUS
10
0.759396
20
1.86076
11
0.788643
21
1.86076
0
LINE
8
BLACK
6
CONTINUOUS
10
0.788643
20
1.86076
11
0.790957
21
1.86001
0
LINE
8
BLACK
6
CONTINUOUS
10
0.995193
20
1.94297
11
0.995831
21
1.94296
0
LINE
8
BLACK
6
CONTINUOUS
10
0.995831
20
1.94296
11
1.00314
21
1.94053
0
LINE
8
BLACK
6
CONTINUOUS
10
1.00314
20
1.94053
11
1.00387
21
1.93999
0
LINE
8
BLACK
6
CONTINUOUS
10
1.00387
20
1.93999
11
1.00468
21
1.93958
0
LINE
8
BLACK
6
CONTINUOUS
10
1.00468
20
1.93958
11
1.00712
21
1.93714
0
LINE
8
BLACK
6
CONTINUOUS
10
1.00712
20
1.93714
11
1.00822
21
1.93497
0
LINE
8
BLACK
6
CONTINUOUS
10
1.00822
20
1.93497
11
1.00784
21
1.93257
0
LINE
8
BLACK
6
CONTINUOUS
10
1.00784
20
1.93257
11
1.00612
21
1.93085
0
LINE
8
BLACK
6
CONTINUOUS
10
1.00612
20
1.93085
11
1.00372
21
1.93047
0
LINE
8
BLACK
6
CONTINUOUS
10
1.00372
20
1.93047
11
1.00155
21
1.93157
0
LINE
8
BLACK
6
CONTINUOUS
10
1.00155
20
1.93157
11
0.999771
21
1.93335
0
LINE
8
BLACK
6
CONTINUOUS
10
0.999771
20
1.93335
11
0.993947
21
1.93529
0
LINE
8
BLACK
6
CONTINUOUS
10
0.993947
20
1.93529
11
0.99035
21
1.93529
0
LINE
8
BLACK
6
CONTINUOUS
10
0.99035
20
1.93529
11
0.984526
21
1.93335
0
LINE
8
BLACK
6
CONTINUOUS
10
0.984526
20
1.93335
11
0.980761
21
1.92958
0
LINE
8
BLACK
6
CONTINUOUS
10
0.980761
20
1.92958
11
0.978803
21
1.92567
0
LINE
8
BLACK
6
CONTINUOUS
10
0.978803
20
1.92567
11
0.976588
21
1.91681
0
LINE
8
BLACK
6
CONTINUOUS
10
0.976588
20
1.91681
11
0.976588
21
1.91047
0
LINE
8
BLACK
6
CONTINUOUS
10
0.976588
20
1.91047
11
0.978803
21
1.90161
0
LINE
8
BLACK
6
CONTINUOUS
10
0.978803
20
1.90161
11
0.980761
21
1.89769
0
LINE
8
BLACK
6
CONTINUOUS
10
0.980761
20
1.89769
11
0.984526
21
1.89393
0
LINE
8
BLACK
6
CONTINUOUS
10
0.984526
20
1.89393
11
0.99035
21
1.89198
0
LINE
8
BLACK
6
CONTINUOUS
10
0.99035
20
1.89198
11
0.993947
21
1.89198
0
LINE
8
BLACK
6
CONTINUOUS
10
0.993947
20
1.89198
11
0.99977
21
1.89393
0
LINE
8
BLACK
6
CONTINUOUS
10
0.99977
20
1.89393
11
1.00155
21
1.89571
0
LINE
8
BLACK
6
CONTINUOUS
10
1.00155
20
1.89571
11
1.00372
21
1.89681
0
LINE
8
BLACK
6
CONTINUOUS
10
1.00372
20
1.89681
11
1.00612
21
1.89643
0
LINE
8
BLACK
6
CONTINUOUS
10
1.00612
20
1.89643
11
1.00784
21
1.89471
0
LINE
8
BLACK
6
CONTINUOUS
10
1.00784
20
1.89471
11
1.00822
21
1.89231
0
LINE
8
BLACK
6
CONTINUOUS
10
1.00822
20
1.89231
11
1.00712
21
1.89014
0
LINE
8
BLACK
6
CONTINUOUS
10
1.00712
20
1.89014
11
1.00468
21
1.8877
0
LINE
8
BLACK
6
CONTINUOUS
10
1.00468
20
1.8877
11
1.00387
21
1.88729
0
LINE
8
BLACK
6
CONTINUOUS
10
1.00387
20
1.88729
11
1.00314
21
1.88675
0
LINE
8
BLACK
6
CONTINUOUS
10
1.00314
20
1.88675
11
0.995831
21
1.88431
0
LINE
8
BLACK
6
CONTINUOUS
10
0.995831
20
1.88431
11
0.995193
21
1.88431
0
LINE
8
BLACK
6
CONTINUOUS
10
0.995193
20
1.88431
11
0.994586
21
1.88411
0
LINE
8
BLACK
6
CONTINUOUS
10
0.994586
20
1.88411
11
0.989711
21
1.88411
0
LINE
8
BLACK
6
CONTINUOUS
10
0.989711
20
1.88411
11
0.989104
21
1.88431
0
LINE
8
BLACK
6
CONTINUOUS
10
0.989104
20
1.88431
11
0.988466
21
1.88431
0
LINE
8
BLACK
6
CONTINUOUS
10
0.988466
20
1.88431
11
0.981155
21
1.88675
0
LINE
8
BLACK
6
CONTINUOUS
10
0.981155
20
1.88675
11
0.980425
21
1.88729
0
LINE
8
BLACK
6
CONTINUOUS
10
0.980425
20
1.88729
11
0.979616
21
1.8877
0
LINE
8
BLACK
6
CONTINUOUS
10
0.979616
20
1.8877
11
0.974741
21
1.89258
0
LINE
8
BLACK
6
CONTINUOUS
10
0.974741
20
1.89258
11
0.974452
21
1.89314
0
LINE
8
BLACK
6
CONTINUOUS
10
0.974452
20
1.89314
11
0.974004
21
1.8936
0
LINE
8
BLACK
6
CONTINUOUS
10
0.974004
20
1.8936
11
0.971567
21
1.89847
0
LINE
8
BLACK
6
CONTINUOUS
10
0.971567
20
1.89847
11
0.971501
21
1.89891
0
LINE
8
BLACK
6
CONTINUOUS
10
0.971501
20
1.89891
11
0.971269
21
1.89928
0
LINE
8
BLACK
6
CONTINUOUS
10
0.971269
20
1.89928
11
0.968831
21
1.90903
0
LINE
8
BLACK
6
CONTINUOUS
10
0.968831
20
1.90903
11
0.968865
21
1.90952
0
LINE
8
BLACK
6
CONTINUOUS
10
0.968865
20
1.90952
11
0.968714
21
1.90998
0
LINE
8
BLACK
6
CONTINUOUS
10
0.968714
20
1.90998
11
0.968714
21
1.91729
0
LINE
8
BLACK
6
CONTINUOUS
10
0.968714
20
1.91729
11
0.968865
21
1.91776
0
LINE
8
BLACK
6
CONTINUOUS
10
0.968865
20
1.91776
11
0.968831
21
1.91825
0
LINE
8
BLACK
6
CONTINUOUS
10
0.968831
20
1.91825
11
0.971269
21
1.928
0
LINE
8
BLACK
6
CONTINUOUS
10
0.971269
20
1.928
11
0.971501
21
1.92837
0
LINE
8
BLACK
6
CONTINUOUS
10
0.971501
20
1.92837
11
0.971567
21
1.9288
0
LINE
8
BLACK
6
CONTINUOUS
10
0.971567
20
1.9288
11
0.974004
21
1.93368
0
LINE
8
BLACK
6
CONTINUOUS
10
0.974004
20
1.93368
11
0.974452
21
1.93413
0
LINE
8
BLACK
6
CONTINUOUS
10
0.974452
20
1.93413
11
0.974741
21
1.9347
0
LINE
8
BLACK
6
CONTINUOUS
10
0.974741
20
1.9347
11
0.979616
21
1.93958
0
LINE
8
BLACK
6
CONTINUOUS
10
0.979616
20
1.93958
11
0.980424
21
1.93999
0
LINE
8
BLACK
6
CONTINUOUS
10
0.980424
20
1.93999
11
0.981155
21
1.94053
0
LINE
8
BLACK
6
CONTINUOUS
10
0.981155
20
1.94053
11
0.988466
21
1.94296
0
LINE
8
BLACK
6
CONTINUOUS
10
0.988466
20
1.94296
11
0.989104
21
1.94297
0
LINE
8
BLACK
6
CONTINUOUS
10
0.989104
20
1.94297
11
0.989711
21
1.94317
0
LINE
8
BLACK
6
CONTINUOUS
10
0.989711
20
1.94317
11
0.994586
21
1.94317
0
LINE
8
BLACK
6
CONTINUOUS
10
0.994586
20
1.94317
11
0.995193
21
1.94297
0
LINE
8
BLACK
6
CONTINUOUS
10
0.883082
20
1.94297
11
0.88372
21
1.94296
0
LINE
8
BLACK
6
CONTINUOUS
10
0.88372
20
1.94296
11
0.891031
21
1.94053
0
LINE
8
BLACK
6
CONTINUOUS
10
0.891031
20
1.94053
11
0.892989
21
1.93908
0
LINE
8
BLACK
6
CONTINUOUS
10
0.892989
20
1.93908
11
0.893723
21
1.93676
0
LINE
8
BLACK
6
CONTINUOUS
10
0.893723
20
1.93676
11
0.892954
21
1.93445
0
LINE
8
BLACK
6
CONTINUOUS
10
0.892954
20
1.93445
11
0.890974
21
1.93304
0
LINE
8
BLACK
6
CONTINUOUS
10
0.890974
20
1.93304
11
0.888541
21
1.93306
0
LINE
8
BLACK
6
CONTINUOUS
10
0.888541
20
1.93306
11
0.881836
21
1.93529
0
LINE
8
BLACK
6
CONTINUOUS
10
0.881836
20
1.93529
11
0.871218
21
1.93529
0
LINE
8
BLACK
6
CONTINUOUS
10
0.871218
20
1.93529
11
0.867746
21
1.93356
0
LINE
8
BLACK
6
CONTINUOUS
10
0.867746
20
1.93356
11
0.866213
21
1.93202
0
LINE
8
BLACK
6
CONTINUOUS
10
0.866213
20
1.93202
11
0.864477
21
1.92855
0
LINE
8
BLACK
6
CONTINUOUS
10
0.864477
20
1.92855
11
0.864477
21
1.92553
0
LINE
8
BLACK
6
CONTINUOUS
10
0.864477
20
1.92553
11
0.866213
21
1.92206
0
LINE
8
BLACK
6
CONTINUOUS
10
0.866213
20
1.92206
11
0.867746
21
1.92053
0
LINE
8
BLACK
6
CONTINUOUS
10
0.867746
20
1.92053
11
0.871663
21
1.91857
0
LINE
8
BLACK
6
CONTINUOUS
10
0.871663
20
1.91857
11
0.880992
21
1.91624
0
LINE
8
BLACK
6
CONTINUOUS
10
0.880992
20
1.91624
11
0.881364
21
1.91601
0
LINE
8
BLACK
6
CONTINUOUS
10
0.881364
20
1.91601
11
0.881798
21
1.91594
0
LINE
8
BLACK
6
CONTINUOUS
10
0.881798
20
1.91594
11
0.886673
21
1.9135
0
LINE
8
BLACK
6
CONTINUOUS
10
0.886673
20
1.9135
11
0.887127
21
1.91306
0
LINE
8
BLACK
6
CONTINUOUS
10
0.887127
20
1.91306
11
0.887696
21
1.91277
0
LINE
8
BLACK
6
CONTINUOUS
10
0.887696
20
1.91277
11
0.890133
21
1.91033
0
LINE
8
BLACK
6
CONTINUOUS
10
0.890133
20
1.91033
11
0.890423
21
1.90976
0
LINE
8
BLACK
6
CONTINUOUS
10
0.890423
20
1.90976
11
0.89087
21
1.90931
0
LINE
8
BLACK
6
CONTINUOUS
10
0.89087
20
1.90931
11
0.893308
21
1.90443
0
LINE
8
BLACK
6
CONTINUOUS
10
0.893308
20
1.90443
11
0.893443
21
1.90353
0
LINE
8
BLACK
6
CONTINUOUS
10
0.893443
20
1.90353
11
0.893723
21
1.90267
0
LINE
8
BLACK
6
CONTINUOUS
10
0.893723
20
1.90267
11
0.893723
21
1.8978
0
LINE
8
BLACK
6
CONTINUOUS
10
0.893723
20
1.8978
11
0.893443
21
1.89693
0
LINE
8
BLACK
6
CONTINUOUS
10
0.893443
20
1.89693
11
0.893308
21
1.89604
0
LINE
8
BLACK
6
CONTINUOUS
10
0.893308
20
1.89604
11
0.89087
21
1.89116
0
LINE
8
BLACK
6
CONTINUOUS
10
0.89087
20
1.89116
11
0.890423
21
1.89071
0
LINE
8
BLACK
6
CONTINUOUS
10
0.890423
20
1.89071
11
0.890133
21
1.89014
0
LINE
8
BLACK
6
CONTINUOUS
10
0.890133
20
1.89014
11
0.887696
21
1.8877
0
LINE
8
BLACK
6
CONTINUOUS
10
0.887696
20
1.8877
11
0.887127
21
1.88741
0
LINE
8
BLACK
6
CONTINUOUS
10
0.887127
20
1.88741
11
0.886673
21
1.88696
0
LINE
8
BLACK
6
CONTINUOUS
10
0.886673
20
1.88696
11
0.881798
21
1.88453
0
LINE
8
BLACK
6
CONTINUOUS
10
0.881798
20
1.88453
11
0.880901
21
1.88439
0
LINE
8
BLACK
6
CONTINUOUS
10
0.880901
20
1.88439
11
0.880037
21
1.88411
0
LINE
8
BLACK
6
CONTINUOUS
10
0.880037
20
1.88411
11
0.867851
21
1.88411
0
LINE
8
BLACK
6
CONTINUOUS
10
0.867851
20
1.88411
11
0.867245
21
1.88431
0
LINE
8
BLACK
6
CONTINUOUS
10
0.867245
20
1.88431
11
0.866606
21
1.88431
0
LINE
8
BLACK
6
CONTINUOUS
10
0.866606
20
1.88431
11
0.859295
21
1.88675
0
LINE
8
BLACK
6
CONTINUOUS
10
0.859295
20
1.88675
11
0.857337
21
1.88819
0
LINE
8
BLACK
6
CONTINUOUS
10
0.857337
20
1.88819
11
0.856603
21
1.89051
0
LINE
8
BLACK
6
CONTINUOUS
10
0.856603
20
1.89051
11
0.857372
21
1.89282
0
LINE
8
BLACK
6
CONTINUOUS
10
0.857372
20
1.89282
11
0.859352
21
1.89424
0
LINE
8
BLACK
6
CONTINUOUS
10
0.859352
20
1.89424
11
0.861785
21
1.89422
0
LINE
8
BLACK
6
CONTINUOUS
10
0.861785
20
1.89422
11
0.86849
21
1.89198
0
LINE
8
BLACK
6
CONTINUOUS
10
0.86849
20
1.89198
11
0.879108
21
1.89198
0
LINE
8
BLACK
6
CONTINUOUS
10
0.879108
20
1.89198
11
0.88258
21
1.89372
0
LINE
8
BLACK
6
CONTINUOUS
10
0.88258
20
1.89372
11
0.884113
21
1.89525
0
LINE
8
BLACK
6
CONTINUOUS
10
0.884113
20
1.89525
11
0.885849
21
1.89873
0
LINE
8
BLACK
6
CONTINUOUS
10
0.885849
20
1.89873
11
0.885849
21
1.90174
0
LINE
8
BLACK
6
CONTINUOUS
10
0.885849
20
1.90174
11
0.884113
21
1.90521
0
LINE
8
BLACK
6
CONTINUOUS
10
0.884113
20
1.90521
11
0.88258
21
1.90675
0
LINE
8
BLACK
6
CONTINUOUS
10
0.88258
20
1.90675
11
0.878663
21
1.9087
0
LINE
8
BLACK
6
CONTINUOUS
10
0.878663
20
1.9087
11
0.869334
21
1.91104
0
LINE
8
BLACK
6
CONTINUOUS
10
0.869334
20
1.91104
11
0.868962
21
1.91127
0
LINE
8
BLACK
6
CONTINUOUS
10
0.868962
20
1.91127
11
0.868528
21
1.91134
0
LINE
8
BLACK
6
CONTINUOUS
10
0.868528
20
1.91134
11
0.863654
21
1.91377
0
LINE
8
BLACK
6
CONTINUOUS
10
0.863654
20
1.91377
11
0.863199
21
1.91422
0
LINE
8
BLACK
6
CONTINUOUS
10
0.863199
20
1.91422
11
0.86263
21
1.91451
0
LINE
8
BLACK
6
CONTINUOUS
10
0.86263
20
1.91451
11
0.860193
21
1.91695
0
LINE
8
BLACK
6
CONTINUOUS
10
0.860193
20
1.91695
11
0.859904
21
1.91752
0
LINE
8
BLACK
6
CONTINUOUS
10
0.859904
20
1.91752
11
0.859456
21
1.91797
0
LINE
8
BLACK
6
CONTINUOUS
10
0.859456
20
1.91797
11
0.857019
21
1.92284
0
LINE
8
BLACK
6
CONTINUOUS
10
0.857019
20
1.92284
11
0.856883
21
1.92374
0
LINE
8
BLACK
6
CONTINUOUS
10
0.856883
20
1.92374
11
0.856603
21
1.92461
0
LINE
8
BLACK
6
CONTINUOUS
10
0.856603
20
1.92461
11
0.856603
21
1.92948
0
LINE
8
BLACK
6
CONTINUOUS
10
0.856603
20
1.92948
11
0.856883
21
1.93034
0
LINE
8
BLACK
6
CONTINUOUS
10
0.856883
20
1.93034
11
0.857019
21
1.93124
0
LINE
8
BLACK
6
CONTINUOUS
10
0.857019
20
1.93124
11
0.859456
21
1.93611
0
LINE
8
BLACK
6
CONTINUOUS
10
0.859456
20
1.93611
11
0.859904
21
1.93657
0
LINE
8
BLACK
6
CONTINUOUS
10
0.859904
20
1.93657
11
0.860193
21
1.93714
0
LINE
8
BLACK
6
CONTINUOUS
10
0.860193
20
1.93714
11
0.86263
21
1.93958
0
LINE
8
BLACK
6
CONTINUOUS
10
0.86263
20
1.93958
11
0.863199
21
1.93986
0
LINE
8
BLACK
6
CONTINUOUS
10
0.863199
20
1.93986
11
0.863654
21
1.94031
0
LINE
8
BLACK
6
CONTINUOUS
10
0.863654
20
1.94031
11
0.868528
21
1.94275
0
LINE
8
BLACK
6
CONTINUOUS
10
0.868528
20
1.94275
11
0.869426
21
1.94289
0
LINE
8
BLACK
6
CONTINUOUS
10
0.869426
20
1.94289
11
0.870289
21
1.94317
0
LINE
8
BLACK
6
CONTINUOUS
10
0.870289
20
1.94317
11
0.882475
21
1.94317
0
LINE
8
BLACK
6
CONTINUOUS
10
0.882475
20
1.94317
11
0.883082
21
1.94297
0
LINE
8
BLACK
6
CONTINUOUS
10
0.812544
20
1.94154
11
0.813296
21
1.93923
0
LINE
8
BLACK
6
CONTINUOUS
10
0.813296
20
1.93923
11
0.813296
21
1.89873
0
LINE
8
BLACK
6
CONTINUOUS
10
0.813296
20
1.89873
11
0.815032
21
1.89525
0
LINE
8
BLACK
6
CONTINUOUS
10
0.815032
20
1.89525
11
0.816565
21
1.89372
0
LINE
8
BLACK
6
CONTINUOUS
10
0.816565
20
1.89372
11
0.820037
21
1.89198
0
LINE
8
BLACK
6
CONTINUOUS
10
0.820037
20
1.89198
11
0.827927
21
1.89198
0
LINE
8
BLACK
6
CONTINUOUS
10
0.827927
20
1.89198
11
0.831399
21
1.89372
0
LINE
8
BLACK
6
CONTINUOUS
10
0.831399
20
1.89372
11
0.832932
21
1.89525
0
LINE
8
BLACK
6
CONTINUOUS
10
0.832932
20
1.89525
11
0.834668
21
1.89873
0
LINE
8
BLACK
6
CONTINUOUS
10
0.834668
20
1.89873
11
0.834668
21
1.93923
0
LINE
8
BLACK
6
CONTINUOUS
10
0.834668
20
1.93923
11
0.83542
21
1.94154
0
LINE
8
BLACK
6
CONTINUOUS
10
0.83542
20
1.94154
11
0.837389
21
1.94297
0
LINE
8
BLACK
6
CONTINUOUS
10
0.837389
20
1.94297
11
0.839822
21
1.94297
0
LINE
8
BLACK
6
CONTINUOUS
10
0.839822
20
1.94297
11
0.84179
21
1.94154
0
LINE
8
BLACK
6
CONTINUOUS
10
0.84179
20
1.94154
11
0.842542
21
1.93923
0
LINE
8
BLACK
6
CONTINUOUS
10
0.842542
20
1.93923
11
0.842542
21
1.8978
0
LINE
8
BLACK
6
CONTINUOUS
10
0.842542
20
1.8978
11
0.842262
21
1.89693
0
LINE
8
BLACK
6
CONTINUOUS
10
0.842262
20
1.89693
11
0.842127
21
1.89604
0
LINE
8
BLACK
6
CONTINUOUS
10
0.842127
20
1.89604
11
0.839689
21
1.89116
0
LINE
8
BLACK
6
CONTINUOUS
10
0.839689
20
1.89116
11
0.839242
21
1.89071
0
LINE
8
BLACK
6
CONTINUOUS
10
0.839242
20
1.89071
11
0.838952
21
1.89014
0
LINE
8
BLACK
6
CONTINUOUS
10
0.838952
20
1.89014
11
0.836515
21
1.8877
0
LINE
8
BLACK
6
CONTINUOUS
10
0.836515
20
1.8877
11
0.835946
21
1.88741
0
LINE
8
BLACK
6
CONTINUOUS
10
0.835946
20
1.88741
11
0.835491
21
1.88696
0
LINE
8
BLACK
6
CONTINUOUS
10
0.835491
20
1.88696
11
0.830617
21
1.88453
0
LINE
8
BLACK
6
CONTINUOUS
10
0.830617
20
1.88453
11
0.829719
21
1.88439
0
LINE
8
BLACK
6
CONTINUOUS
10
0.829719
20
1.88439
11
0.828856
21
1.88411
0
LINE
8
BLACK
6
CONTINUOUS
10
0.828856
20
1.88411
11
0.819108
21
1.88411
0
LINE
8
BLACK
6
CONTINUOUS
10
0.819108
20
1.88411
11
0.818244
21
1.88439
0
LINE
8
BLACK
6
CONTINUOUS
10
0.818244
20
1.88439
11
0.817347
21
1.88453
0
LINE
8
BLACK
6
CONTINUOUS
10
0.817347
20
1.88453
11
0.812473
21
1.88696
0
LINE
8
BLACK
6
CONTINUOUS
10
0.812473
20
1.88696
11
0.812018
21
1.88741
0
LINE
8
BLACK
6
CONTINUOUS
10
0.812018
20
1.88741
11
0.811449
21
1.8877
0
LINE
8
BLACK
6
CONTINUOUS
10
0.811449
20
1.8877
11
0.809012
21
1.89014
0
LINE
8
BLACK
6
CONTINUOUS
10
0.809012
20
1.89014
11
0.808722
21
1.89071
0
LINE
8
BLACK
6
CONTINUOUS
10
0.808722
20
1.89071
11
0.808275
21
1.89116
0
LINE
8
BLACK
6
CONTINUOUS
10
0.808275
20
1.89116
11
0.805837
21
1.89604
0
LINE
8
BLACK
6
CONTINUOUS
10
0.805837
20
1.89604
11
0.805702
21
1.89693
0
LINE
8
BLACK
6
CONTINUOUS
10
0.805702
20
1.89693
11
0.805422
21
1.8978
0
LINE
8
BLACK
6
CONTINUOUS
10
0.805422
20
1.8978
11
0.805422
21
1.93923
0
LINE
8
BLACK
6
CONTINUOUS
10
0.805422
20
1.93923
11
0.806174
21
1.94154
0
LINE
8
BLACK
6
CONTINUOUS
10
0.806174
20
1.94154
11
0.808142
21
1.94297
0
LINE
8
BLACK
6
CONTINUOUS
10
0.808142
20
1.94297
11
0.810575
21
1.94297
0
LINE
8
BLACK
6
CONTINUOUS
10
0.810575
20
1.94297
11
0.812544
21
1.94154
0
LINE
8
BLACK
6
CONTINUOUS
10
1.05603
20
1.943
11
1.05658
21
1.94302
0
LINE
8
BLACK
6
CONTINUOUS
10
1.05658
20
1.94302
11
1.05716
21
1.94263
0
LINE
8
BLACK
6
CONTINUOUS
10
1.05716
20
1.94263
11
1.05783
21
1.94241
0
LINE
8
BLACK
6
CONTINUOUS
10
1.05783
20
1.94241
11
1.05815
21
1.94197
0
LINE
8
BLACK
6
CONTINUOUS
10
1.05815
20
1.94197
11
1.0586
21
1.94167
0
LINE
8
BLACK
6
CONTINUOUS
10
1.0586
20
1.94167
11
1.05885
21
1.94101
0
LINE
8
BLACK
6
CONTINUOUS
10
1.05885
20
1.94101
11
1.05926
21
1.94045
0
LINE
8
BLACK
6
CONTINUOUS
10
1.05926
20
1.94045
11
1.05926
21
1.9399
0
LINE
8
BLACK
6
CONTINUOUS
10
1.05926
20
1.9399
11
1.05945
21
1.93939
0
LINE
8
BLACK
6
CONTINUOUS
10
1.05945
20
1.93939
11
1.05926
21
1.93871
0
LINE
8
BLACK
6
CONTINUOUS
10
1.05926
20
1.93871
11
1.05926
21
1.93801
0
LINE
8
BLACK
6
CONTINUOUS
10
1.05926
20
1.93801
11
1.05894
21
1.93757
0
LINE
8
BLACK
6
CONTINUOUS
10
1.05894
20
1.93757
11
1.05879
21
1.93704
0
LINE
8
BLACK
6
CONTINUOUS
10
1.05879
20
1.93704
11
1.02875
21
1.89198
0
LINE
8
BLACK
6
CONTINUOUS
10
1.02875
20
1.89198
11
1.05552
21
1.89198
0
LINE
8
BLACK
6
CONTINUOUS
10
1.05552
20
1.89198
11
1.05783
21
1.89123
0
LINE
8
BLACK
6
CONTINUOUS
10
1.05783
20
1.89123
11
1.05926
21
1.88926
0
LINE
8
BLACK
6
CONTINUOUS
10
1.05926
20
1.88926
11
1.05926
21
1.88683
0
LINE
8
BLACK
6
CONTINUOUS
10
1.05926
20
1.88683
11
1.05783
21
1.88486
0
LINE
8
BLACK
6
CONTINUOUS
10
1.05783
20
1.88486
11
1.05552
21
1.88411
0
LINE
8
BLACK
6
CONTINUOUS
10
1.05552
20
1.88411
11
1.02139
21
1.88411
0
LINE
8
BLACK
6
CONTINUOUS
10
1.02139
20
1.88411
11
1.02088
21
1.88428
0
LINE
8
BLACK
6
CONTINUOUS
10
1.02088
20
1.88428
11
1.02033
21
1.88426
0
LINE
8
BLACK
6
CONTINUOUS
10
1.02033
20
1.88426
11
1.01975
21
1.88465
0
LINE
8
BLACK
6
CONTINUOUS
10
1.01975
20
1.88465
11
1.01908
21
1.88486
0
LINE
8
BLACK
6
CONTINUOUS
10
1.01908
20
1.88486
11
1.01876
21
1.8853
0
LINE
8
BLACK
6
CONTINUOUS
10
1.01876
20
1.8853
11
1.01831
21
1.88561
0
LINE
8
BLACK
6
CONTINUOUS
10
1.01831
20
1.88561
11
1.01806
21
1.88626
0
LINE
8
BLACK
6
CONTINUOUS
10
1.01806
20
1.88626
11
1.01765
21
1.88683
0
LINE
8
BLACK
6
CONTINUOUS
10
1.01765
20
1.88683
11
1.01765
21
1.88738
0
LINE
8
BLACK
6
CONTINUOUS
10
1.01765
20
1.88738
11
1.01746
21
1.88789
0
LINE
8
BLACK
6
CONTINUOUS
10
1.01746
20
1.88789
11
1.01765
21
1.88856
0
LINE
8
BLACK
6
CONTINUOUS
10
1.01765
20
1.88856
11
1.01765
21
1.88926
0
LINE
8
BLACK
6
CONTINUOUS
10
1.01765
20
1.88926
11
1.01797
21
1.88971
0
LINE
8
BLACK
6
CONTINUOUS
10
1.01797
20
1.88971
11
1.01812
21
1.89023
0
LINE
8
BLACK
6
CONTINUOUS
10
1.01812
20
1.89023
11
1.04816
21
1.93529
0
LINE
8
BLACK
6
CONTINUOUS
10
1.04816
20
1.93529
11
1.02139
21
1.93529
0
LINE
8
BLACK
6
CONTINUOUS
10
1.02139
20
1.93529
11
1.01908
21
1.93604
0
LINE
8
BLACK
6
CONTINUOUS
10
1.01908
20
1.93604
11
1.01765
21
1.93801
0
LINE
8
BLACK
6
CONTINUOUS
10
1.01765
20
1.93801
11
1.01765
21
1.94045
0
LINE
8
BLACK
6
CONTINUOUS
10
1.01765
20
1.94045
11
1.01908
21
1.94241
0
LINE
8
BLACK
6
CONTINUOUS
10
1.01908
20
1.94241
11
1.02139
21
1.94317
0
LINE
8
BLACK
6
CONTINUOUS
10
1.02139
20
1.94317
11
1.05552
21
1.94317
0
LINE
8
BLACK
6
CONTINUOUS
10
1.05552
20
1.94317
11
1.05603
21
1.943
0
LINE
8
BLACK
6
CONTINUOUS
10
0.951615
20
1.89667
11
0.951933
21
1.89667
0
LINE
8
BLACK
6
CONTINUOUS
10
0.951933
20
1.89667
11
0.95219
21
1.89648
0
LINE
8
BLACK
6
CONTINUOUS
10
0.95219
20
1.89648
11
0.952504
21
1.89643
0
LINE
8
BLACK
6
CONTINUOUS
10
0.952504
20
1.89643
11
0.952944
21
1.89599
0
LINE
8
BLACK
6
CONTINUOUS
10
0.952944
20
1.89599
11
0.9535
21
1.89571
0
LINE
8
BLACK
6
CONTINUOUS
10
0.9535
20
1.89571
11
0.955937
21
1.89327
0
LINE
8
BLACK
6
CONTINUOUS
10
0.955937
20
1.89327
11
0.95622
21
1.89271
0
LINE
8
BLACK
6
CONTINUOUS
10
0.95622
20
1.89271
11
0.956661
21
1.89227
0
LINE
8
BLACK
6
CONTINUOUS
10
0.956661
20
1.89227
11
0.956759
21
1.89166
0
LINE
8
BLACK
6
CONTINUOUS
10
0.956759
20
1.89166
11
0.957042
21
1.8911
0
LINE
8
BLACK
6
CONTINUOUS
10
0.957042
20
1.8911
11
0.956944
21
1.89048
0
LINE
8
BLACK
6
CONTINUOUS
10
0.956944
20
1.89048
11
0.957042
21
1.88987
0
LINE
8
BLACK
6
CONTINUOUS
10
0.957042
20
1.88987
11
0.956759
21
1.88931
0
LINE
8
BLACK
6
CONTINUOUS
10
0.956759
20
1.88931
11
0.956661
21
1.8887
0
LINE
8
BLACK
6
CONTINUOUS
10
0.956661
20
1.8887
11
0.95622
21
1.88826
0
LINE
8
BLACK
6
CONTINUOUS
10
0.95622
20
1.88826
11
0.955937
21
1.8877
0
LINE
8
BLACK
6
CONTINUOUS
10
0.955937
20
1.8877
11
0.9535
21
1.88526
0
LINE
8
BLACK
6
CONTINUOUS
10
0.9535
20
1.88526
11
0.952944
21
1.88498
0
LINE
8
BLACK
6
CONTINUOUS
10
0.952944
20
1.88498
11
0.952504
21
1.88454
0
LINE
8
BLACK
6
CONTINUOUS
10
0.952504
20
1.88454
11
0.95219
21
1.88449
0
LINE
8
BLACK
6
CONTINUOUS
10
0.95219
20
1.88449
11
0.951933
21
1.8843
0
LINE
8
BLACK
6
CONTINUOUS
10
0.951933
20
1.8843
11
0.951615
21
1.8843
0
LINE
8
BLACK
6
CONTINUOUS
10
0.951615
20
1.8843
11
0.951332
21
1.88416
0
LINE
8
BLACK
6
CONTINUOUS
10
0.951332
20
1.88416
11
0.950716
21
1.88426
0
LINE
8
BLACK
6
CONTINUOUS
10
0.950716
20
1.88426
11
0.9501
21
1.88416
0
LINE
8
BLACK
6
CONTINUOUS
10
0.9501
20
1.88416
11
0.949817
21
1.8843
0
LINE
8
BLACK
6
CONTINUOUS
10
0.949817
20
1.8843
11
0.9495
21
1.8843
0
LINE
8
BLACK
6
CONTINUOUS
10
0.9495
20
1.8843
11
0.949243
21
1.88449
0
LINE
8
BLACK
6
CONTINUOUS
10
0.949243
20
1.88449
11
0.948929
21
1.88454
0
LINE
8
BLACK
6
CONTINUOUS
10
0.948929
20
1.88454
11
0.948488
21
1.88498
0
LINE
8
BLACK
6
CONTINUOUS
10
0.948488
20
1.88498
11
0.947932
21
1.88526
0
LINE
8
BLACK
6
CONTINUOUS
10
0.947932
20
1.88526
11
0.945495
21
1.8877
0
LINE
8
BLACK
6
CONTINUOUS
10
0.945495
20
1.8877
11
0.945212
21
1.88826
0
LINE
8
BLACK
6
CONTINUOUS
10
0.945212
20
1.88826
11
0.944771
21
1.8887
0
LINE
8
BLACK
6
CONTINUOUS
10
0.944771
20
1.8887
11
0.944673
21
1.88931
0
LINE
8
BLACK
6
CONTINUOUS
10
0.944673
20
1.88931
11
0.94439
21
1.88987
0
LINE
8
BLACK
6
CONTINUOUS
10
0.94439
20
1.88987
11
0.944488
21
1.89048
0
LINE
8
BLACK
6
CONTINUOUS
10
0.944488
20
1.89048
11
0.94439
21
1.8911
0
LINE
8
BLACK
6
CONTINUOUS
10
0.94439
20
1.8911
11
0.944673
21
1.89166
0
LINE
8
BLACK
6
CONTINUOUS
10
0.944673
20
1.89166
11
0.944771
21
1.89227
0
LINE
8
BLACK
6
CONTINUOUS
10
0.944771
20
1.89227
11
0.945212
21
1.89271
0
LINE
8
BLACK
6
CONTINUOUS
10
0.945212
20
1.89271
11
0.945495
21
1.89327
0
LINE
8
BLACK
6
CONTINUOUS
10
0.945495
20
1.89327
11
0.947932
21
1.89571
0
LINE
8
BLACK
6
CONTINUOUS
10
0.947932
20
1.89571
11
0.948488
21
1.89599
0
LINE
8
BLACK
6
CONTINUOUS
10
0.948488
20
1.89599
11
0.948929
21
1.89643
0
LINE
8
BLACK
6
CONTINUOUS
10
0.948929
20
1.89643
11
0.949243
21
1.89648
0
LINE
8
BLACK
6
CONTINUOUS
10
0.949243
20
1.89648
11
0.9495
21
1.89667
0
LINE
8
BLACK
6
CONTINUOUS
10
0.9495
20
1.89667
11
0.949817
21
1.89667
0
LINE
8
BLACK
6
CONTINUOUS
10
0.949817
20
1.89667
11
0.9501
21
1.89681
0
LINE
8
BLACK
6
CONTINUOUS
10
0.9501
20
1.89681
11
0.950716
21
1.89671
0
LINE
8
BLACK
6
CONTINUOUS
10
0.950716
20
1.89671
11
0.951332
21
1.89681
0
LINE
8
BLACK
6
CONTINUOUS
10
0.951332
20
1.89681
11
0.951615
21
1.89667
0
LINE
8
BLACK
6
CONTINUOUS
10
0.93597
20
1.94241
11
0.9374
21
1.94045
0
LINE
8
BLACK
6
CONTINUOUS
10
0.9374
20
1.94045
11
0.9374
21
1.93801
0
LINE
8
BLACK
6
CONTINUOUS
10
0.9374
20
1.93801
11
0.93597
21
1.93604
0
LINE
8
BLACK
6
CONTINUOUS
10
0.93597
20
1.93604
11
0.933656
21
1.93529
0
LINE
8
BLACK
6
CONTINUOUS
10
0.933656
20
1.93529
11
0.92297
21
1.93529
0
LINE
8
BLACK
6
CONTINUOUS
10
0.92297
20
1.93529
11
0.92297
21
1.88805
0
LINE
8
BLACK
6
CONTINUOUS
10
0.92297
20
1.88805
11
0.922218
21
1.88573
0
LINE
8
BLACK
6
CONTINUOUS
10
0.922218
20
1.88573
11
0.920249
21
1.8843
0
LINE
8
BLACK
6
CONTINUOUS
10
0.920249
20
1.8843
11
0.917816
21
1.8843
0
LINE
8
BLACK
6
CONTINUOUS
10
0.917816
20
1.8843
11
0.915847
21
1.88573
0
LINE
8
BLACK
6
CONTINUOUS
10
0.915847
20
1.88573
11
0.915096
21
1.88805
0
LINE
8
BLACK
6
CONTINUOUS
10
0.915096
20
1.88805
11
0.915096
21
1.93529
0
LINE
8
BLACK
6
CONTINUOUS
10
0.915096
20
1.93529
11
0.904409
21
1.93529
0
LINE
8
BLACK
6
CONTINUOUS
10
0.904409
20
1.93529
11
0.902095
21
1.93604
0
LINE
8
BLACK
6
CONTINUOUS
10
0.902095
20
1.93604
11
0.900665
21
1.93801
0
LINE
8
BLACK
6
CONTINUOUS
10
0.900665
20
1.93801
11
0.900665
21
1.94045
0
LINE
8
BLACK
6
CONTINUOUS
10
0.900665
20
1.94045
11
0.902095
21
1.94241
0
LINE
8
BLACK
6
CONTINUOUS
10
0.902095
20
1.94241
11
0.904409
21
1.94317
0
LINE
8
BLACK
6
CONTINUOUS
10
0.904409
20
1.94317
11
0.933656
21
1.94317
0
LINE
8
BLACK
6
CONTINUOUS
10
0.933656
20
1.94317
11
0.93597
21
1.94241
  0
ENDSEC
  0
EOF
